<?xml version="1.0" encoding="utf-8"?>
<svg width="500px" height="500px" viewBox="0 0 500 500" version="1.1" xmlns:xlink="http://www.w3.org/1999/xlink" xmlns="http://www.w3.org/2000/svg">
  <defs>
    <linearGradient gradientUnits="objectBoundingBox" x1="0" y1="0" x2="1" y2="1" id="gradient_1">
      <stop offset="0%" stop-color="#2E2E2E" />
      <stop offset="100%" stop-color="#343434" />
    </linearGradient>
    <linearGradient gradientUnits="objectBoundingBox" x1="0.5" y1="0" x2="0.62731856" y2="0.6768747" id="gradient_2">
      <stop offset="0%" stop-color="#FFBCAC" />
      <stop offset="100%" stop-color="#FFC9BC" />
    </linearGradient>
    <path d="M500 0L500 0L500 500L0 500L0 0L500 0Z" id="path_1" />
    <path d="M500 0L500 0L500 500L0 500L0 0L500 0L500 0Z" id="path_2" />
    <clipPath id="clip_1">
      <use xlink:href="#path_1" />
    </clipPath>
    <clipPath id="mask_1">
      <use xlink:href="#path_2" />
    </clipPath>
  </defs>
  <g id="Adopt a pet-bro" clip-path="url(#clip_1)">
    <path d="M500 0L500 0L500 500L0 500L0 0L500 0Z" id="Adopt-a-pet-bro" fill="none" stroke="none" />
    <g id="Mask-Group">
      <path d="M500 0L500 0L500 500L0 500L0 0L500 0L500 0Z" id="path_1" fill="none" stroke="none" />
      <g clip-path="url(#mask_1)">
        <g id="Adopt-a-pet-bro">
          <path d="M500 0L500 0L500 500L0 500L0 0L500 0L500 0Z" id="Adopt-a-pet-bro" fill="none" stroke="none" />
          <g id="freepik--background-simple--inject-2" transform="translate(20.9351 28.482195)">
            <path d="M197.065 429.518C197.065 429.518 277.065 442.368 339.805 386.148C402.545 329.928 419.805 238.528 435.725 164.918C451.645 91.3078 417.815 25.8078 355.285 4.8178C292.755 -16.1722 265.715 37.2078 188.585 54.0678C111.455 70.9278 87.9949 63.5678 33.7849 120.348C-20.4251 177.128 -7.9351 284.788 60.7549 353.268C129.445 421.748 197.065 429.518 197.065 429.518L197.065 429.518L197.065 429.518Z" id="Shape" fill="#FFFFFF" stroke="none" />
            <path d="M197.065 429.518C197.065 429.518 277.065 442.368 339.805 386.148C402.545 329.928 419.805 238.528 435.725 164.918C451.645 91.3078 417.815 25.8078 355.285 4.8178C292.755 -16.1722 265.715 37.2078 188.585 54.0678C111.455 70.9278 87.9949 63.5678 33.7849 120.348C-20.4251 177.128 -7.9351 284.788 60.7549 353.268C129.445 421.748 197.065 429.518 197.065 429.518L197.065 429.518L197.065 429.518Z" id="Shape#1" fill="#FFFFFF" stroke="none" />
          </g>
          <path d="M50.07 415.5C50.07 407.492 136.927 401 244.07 401C351.213 401 438.07 407.492 438.07 415.5C438.07 423.508 351.213 430 244.07 430C136.927 430 50.07 423.508 50.07 415.5L50.07 415.5Z" id="freepik--Floor--inject-2" fill="#202020" fill-rule="evenodd" stroke="none" />
          <g id="freepik--Character--inject-2" transform="translate(214.70735 108.88333)">
            <path d="M253.403 272.117C253.403 272.117 259.243 273.487 261.983 277.947C264.723 282.407 267.133 287.947 271.593 287.947C276.053 287.947 264.043 290.687 255.463 287.597C246.883 284.507 232.813 282.457 232.813 282.457C232.813 282.457 242.073 272.787 253.403 272.117L253.403 272.117L253.403 272.117Z" id="Shape#2" fill="#2A2A2A" stroke="#202020" stroke-width="1" stroke-linecap="round" stroke-linejoin="round" />
            <path d="M207.753 292.347C207.753 292.347 219.753 298.527 229.373 294.747C238.993 290.967 239.373 280.677 244.483 276.557C249.593 272.437 253.403 272.097 253.403 272.097C253.403 272.097 229.033 275.187 217.023 272.097C209.011 270.169 201.508 266.541 195.023 261.457C191.933 259.057 189.183 257.337 189.183 257.337C189.183 257.337 188.183 268.337 193.303 278.277C196.547 284.349 201.596 289.265 207.753 292.347L207.753 292.347L207.753 292.347Z" id="Shape#3" fill="#A15FFF" stroke="#202020" stroke-width="1" stroke-linecap="round" stroke-linejoin="round" />
            <path d="M229.373 294.747C238.983 290.977 239.373 280.677 244.483 276.557C249.213 272.767 252.783 272.177 253.323 272.107C252.483 272.207 244.933 273.107 236.393 273.387C232.323 278.387 228.983 285.007 222.803 289.227C212.803 296.067 200.533 286.947 200.533 286.947L200.303 287.227C202.528 289.281 205.037 291.005 207.753 292.347C207.753 292.347 219.763 298.527 229.373 294.747L229.373 294.747L229.373 294.747Z" id="Shape#4" fill="#2A2A2A" stroke="#202020" stroke-width="1" stroke-linecap="round" stroke-linejoin="round" />
            <path d="M163.813 120.037C163.813 120.037 174.813 144.747 174.813 180.787C174.813 216.827 195.403 262.137 198.153 271.787C200.903 281.437 209.823 292.377 209.823 292.377C209.823 292.377 186.823 289.977 173.093 282.767C159.363 275.557 140.363 270.367 140.363 250.117C140.363 229.867 139.103 171.527 134.983 144.747C130.863 117.967 141.163 110.087 149.403 111.457C157.643 112.827 163.813 120.037 163.813 120.037L163.813 120.037L163.813 120.037Z" id="Shape#5" fill="#343434" stroke="#202020" stroke-width="1" stroke-linecap="round" stroke-linejoin="round" />
            <path d="M29.9526 236.057C29.9526 236.057 30.9526 244.297 40.5926 244.297C50.2326 244.297 54.2926 230.217 55.3526 227.817C56.4126 225.417 31.2926 233.647 29.9526 236.057L29.9526 236.057L29.9526 236.057Z" id="Shape#6" fill="#343434" stroke="#202020" stroke-width="1" stroke-linecap="round" stroke-linejoin="round" />
            <path d="M96.8826 0.246666C96.8826 0.246666 79.3726 -2.84333 67.7026 13.9766C56.0326 30.7966 52.6026 47.9766 57.7026 58.5966C62.8026 69.2166 59.4226 74.7266 51.5226 77.1266C43.6227 79.5266 26.8127 71.2966 16.5226 87.7666C6.23265 104.237 12.7426 115.227 18.5826 123.467C24.4226 131.707 11.3726 133.077 3.13265 144.407C-5.10734 155.737 1.07266 196.577 43.9826 188.687C86.8926 180.797 88.9826 161.917 91.6926 144.407C94.4026 126.897 107.823 112.827 122.583 113.517C137.343 114.207 149.703 108.027 148.673 91.8867C147.643 75.7467 135.283 74.0366 135.973 64.4266C136.663 54.8166 145.243 46.2366 138.723 27.7066C132.203 9.17666 111.643 -1.81333 96.8826 0.246666L96.8826 0.246666L96.8826 0.246666Z" id="Shape#7" fill="#202020" stroke="#202020" stroke-width="1" stroke-linecap="round" stroke-linejoin="round" />
            <path d="M117.793 75.5266C117.793 75.5266 119.163 93.6766 120.873 96.0667C122.583 98.4567 130.123 102.237 140.733 105.657C151.343 109.077 156.823 126.197 153.063 145.377C149.303 164.557 141.063 188.167 142.063 192.967C143.063 197.767 157.123 212.477 153.063 232.967C149.003 253.457 147.293 250.477 147.293 250.477C147.293 250.477 153.113 247.057 157.213 250.137C161.313 253.217 165.433 254.937 170.913 254.247C176.393 253.557 182.913 254.937 188.713 262.467C194.513 269.997 197.273 278.557 204.803 282.667C212.333 286.777 240.413 290.197 240.413 291.907C240.413 293.617 226.723 302.177 210.973 306.287C195.223 310.397 161.293 311.117 140.053 311.767C118.813 312.417 99.6526 314.847 78.4226 316.217C57.1926 317.587 54.4226 317.217 36.9926 309.367C19.5627 301.517 12.9926 299.437 10.6326 286.777C8.27265 274.117 17.6326 264.777 26.7226 255.957C35.0926 247.867 65.7226 213.507 69.5226 204.957C73.3227 196.407 76.3626 189.547 78.0826 184.757C79.8026 179.967 71.5726 158.397 67.4626 143.667C63.3527 128.937 66.0927 119.367 66.0927 119.367C66.0927 119.367 47.6027 112.517 40.7626 102.927C33.9226 93.3366 38.7027 90.2566 50.0027 87.5166C61.3026 84.7766 70.2027 85.5166 76.3626 85.5166C82.5226 85.5166 91.7726 88.5966 93.4826 88.5966C95.1926 88.5966 92.4826 78.3266 92.4826 78.3266C96.5147 79.9578 100.797 80.8846 105.143 81.0666C111.293 81.0066 117.793 75.5266 117.793 75.5266L117.793 75.5266L117.793 75.5266Z" id="Shape#8" fill="url(#gradient_1)" stroke="#202020" stroke-width="1" stroke-linecap="round" stroke-linejoin="round" />
            <path d="M120.873 96.1166C119.163 93.7266 117.793 75.5766 117.793 75.5766C117.793 75.5766 111.293 81.0566 105.123 81.0566C100.777 80.8745 96.4947 79.9478 92.4626 78.3166C92.4626 78.3166 95.1926 88.5866 93.4626 88.5866C92.3126 88.5866 87.7226 87.1866 82.9726 86.2766C82.6326 91.7666 81.3926 122.727 96.1226 126.277C108.213 129.157 119.443 113.947 126.913 100.277C123.813 98.6466 121.683 97.2066 120.873 96.1166L120.873 96.1166L120.873 96.1166Z" id="Shape#9" fill="#FFC9BC" stroke="#202020" stroke-width="1" stroke-linecap="round" stroke-linejoin="round" />
            <path d="M204.753 282.667C197.223 278.557 194.483 269.997 188.663 262.467C182.843 254.937 176.343 253.567 170.863 254.247C165.383 254.927 161.273 253.247 157.163 250.137C154.163 247.867 150.163 249.137 148.323 249.947C148.637 249.432 148.905 248.89 149.123 248.327L140.123 259.057C140.123 259.057 144.243 261.457 150.763 260.427C157.283 259.397 166.553 261.427 171.353 271.757C176.153 282.087 174.793 282.047 178.913 286.517C183.033 290.987 199.163 299.517 207.053 301.957C214.053 304.087 217.553 304.057 218.243 304.027C230.683 299.617 240.353 293.347 240.353 291.907C240.363 290.197 212.293 286.777 204.753 282.667L204.753 282.667L204.753 282.667Z" id="Shape#10" fill="#FFFFFF" stroke="#202020" stroke-width="1" stroke-linecap="round" stroke-linejoin="round" />
            <path d="M36.6126 284.407C38.3015 280.24 40.5889 276.343 43.4026 272.837C53.5126 260.187 92.5326 235.267 107.703 224.067" id="Shape#11" fill="#100F0F" stroke="#202020" stroke-width="1" stroke-linecap="round" stroke-linejoin="round" />
            <path d="M33.6526 298.117C33.6781 295.735 33.9733 293.363 34.5326 291.047" id="Shape#12" fill="#100F0F" stroke="#202020" stroke-width="1" stroke-linecap="round" stroke-linejoin="round" />
            <path d="M117.023 215.887C118.733 215.657 120.453 215.487 122.153 215.397" id="Shape#13" fill="#100F0F" stroke="#202020" stroke-width="1" stroke-linecap="round" stroke-linejoin="round" />
            <path d="M79.1626 229.117C88.5209 224.059 98.4563 220.15 108.753 217.477" id="Shape#14" fill="#100F0F" stroke="#202020" stroke-width="1" stroke-linecap="round" stroke-linejoin="round" />
            <path d="M147.293 250.477C147.293 250.477 120.963 286.477 91.4426 296.807" id="Shape#15" fill="#100F0F" stroke="#202020" stroke-width="1" stroke-linecap="round" stroke-linejoin="round" />
            <path d="M114.953 283.117C114.953 283.117 108.553 293.347 100.313 299.187" id="Shape#16" fill="#100F0F" stroke="#202020" stroke-width="1" stroke-linecap="round" stroke-linejoin="round" />
            <path d="M130.073 297.617C144.633 294.927 169.493 289.277 187.153 279.617" id="Shape#17" fill="#100F0F" stroke="#202020" stroke-width="1" stroke-linecap="round" stroke-linejoin="round" />
            <path d="M118.163 299.557C118.163 299.557 120.213 299.287 123.693 298.727" id="Shape#18" fill="#100F0F" stroke="#202020" stroke-width="1" stroke-linecap="round" stroke-linejoin="round" />
            <path d="M146.293 107.337C146.293 107.337 137.363 113.517 126.043 127.247C114.723 140.977 98.2926 194.177 87.6126 212.027C76.9326 229.877 50.8826 235.367 42.6126 235.707C34.3427 236.047 29.9126 236.057 29.9126 236.057C29.9126 236.057 54.9126 219.577 64.2326 205.167C73.5526 190.757 78.6526 158.477 92.3826 137.547C106.113 116.617 122.583 96.6966 122.583 96.6966C122.583 96.6966 138.073 101.117 146.293 107.337L146.293 107.337L146.293 107.337Z" id="Shape#19" fill="#A15FFF" stroke="#202020" stroke-width="1" stroke-linecap="round" stroke-linejoin="round" />
            <path d="M125.773 97.6867C123.843 97.0467 122.623 96.6867 122.623 96.6867C122.623 96.6867 106.153 116.597 92.4226 137.537C78.6926 158.477 73.5426 190.737 64.2726 205.157C62.1271 208.363 59.6756 211.354 56.9527 214.087C66.2227 209.607 70.5827 202.477 74.9527 192.337C80.4127 179.737 96.0827 141.517 105.793 126.097C112.983 114.717 121.703 103.027 125.773 97.6867L125.773 97.6867L125.773 97.6867Z" id="Shape#20" fill="#343434" stroke="#202020" stroke-width="1" stroke-linecap="round" stroke-linejoin="round" />
            <path d="M87.6126 212.027C98.2527 194.177 114.733 140.977 126.063 127.247C137.393 113.517 146.293 107.337 146.293 107.337C144.931 106.335 143.508 105.42 142.033 104.597C131.548 110.624 122.958 119.464 117.233 130.117C104.103 154.117 90.9626 203.217 70.4126 218.117C56.2326 228.357 44.2226 230.177 38.1426 230.317C33.3626 233.877 29.9526 236.127 29.9526 236.127C29.9526 236.127 34.4126 236.127 42.6526 235.777C50.8926 235.427 76.9726 229.877 87.6126 212.027L87.6126 212.027L87.6126 212.027Z" id="Shape#21" fill="#343434" stroke="#202020" stroke-width="1" stroke-linecap="round" stroke-linejoin="round" />
            <path d="M120.873 48.8267C120.873 48.8267 122.243 40.6067 126.013 41.9766C129.783 43.3466 128.403 50.1966 127.383 53.6166C126.625 55.7599 125.014 57.4939 122.933 58.4066L120.873 48.8267L120.873 48.8267Z" id="Shape#22" fill="#FFC9BC" stroke="#202020" stroke-width="1" stroke-linecap="round" stroke-linejoin="round" />
            <path d="M78.0626 59.1666C78.0626 59.1666 72.1526 53.2967 69.8926 56.6067C67.6326 59.9166 72.7426 64.6766 75.5826 66.8567C77.4521 68.1475 79.7737 68.6038 81.9926 68.1166L78.0626 59.1666L78.0626 59.1666Z" id="Shape#23" fill="#FFC9BC" stroke="#202020" stroke-width="1" stroke-linecap="round" stroke-linejoin="round" />
            <path d="M94.1726 21.7766C94.1726 21.7766 84.2426 42.6567 73.6227 52.5866C73.6227 52.5866 80.4727 69.7066 84.2426 76.8967C88.0126 84.0867 101.363 89.5666 108.243 89.5666C115.123 89.5666 121.943 78.2666 123.653 72.4466C125.363 66.6267 120.233 35.4466 120.233 35.4466C120.233 35.4466 98.9626 28.6266 94.1726 21.7766L94.1726 21.7766L94.1726 21.7766Z" id="Shape#24" fill="url(#gradient_2)" stroke="#202020" stroke-width="1" stroke-linecap="round" stroke-linejoin="round" />
            <path d="M107.953 52.8766C107.244 51.663 107.113 50.1973 107.593 48.8766C108.032 47.5329 108.904 46.3725 110.073 45.5766C111.206 44.8025 112.55 44.3974 113.923 44.4166C114.577 44.4292 115.227 44.5335 115.853 44.7266C116.492 44.9638 117.09 45.3014 117.623 45.7266L117.623 46.0066C116.563 46.0805 115.512 46.2512 114.483 46.5166C113.466 46.7898 112.502 47.2327 111.633 47.8266C109.88 49.0274 108.659 50.8578 108.223 52.9366L107.953 52.8766L107.953 52.8766Z" id="Shape#25" fill="#202020" stroke="none" />
            <path d="M82.2926 54.6566C82.5244 53.2592 83.3678 52.0382 84.5926 51.3267C85.7779 50.5584 87.1852 50.2066 88.5926 50.3267C89.9612 50.4564 91.2566 51.0046 92.3026 51.8967C92.7967 52.3236 93.2277 52.8186 93.5826 53.3667C93.9209 53.9608 94.1606 54.6058 94.2926 55.2767L94.1226 55.4967C93.2554 54.874 92.3352 54.3285 91.3726 53.8667C90.4224 53.4379 89.4095 53.1644 88.3726 53.0567C86.2573 52.8609 84.1478 53.4876 82.4826 54.8067L82.2926 54.6566L82.2926 54.6566Z" id="Shape#26" fill="#202020" stroke="none" />
            <path d="M81.1626 47.7966C81.1626 47.7966 81.8426 41.2866 89.7226 40.9466" id="Shape#27" fill="#100F0F" stroke="#202020" stroke-width="2" stroke-linecap="round" stroke-linejoin="round" />
            <path d="M102.733 37.5266C106.451 36.3777 110.492 37.0087 113.683 39.2367" id="Shape#28" fill="#100F0F" stroke="#202020" stroke-width="2" stroke-linecap="round" stroke-linejoin="round" />
            <path d="M99.6526 64.5767C101.223 64.962 102.827 65.1898 104.443 65.2566C106.493 65.2566 107.863 61.8366 107.863 61.8366" id="Shape#29" fill="#100F0F" stroke="#202020" stroke-width="1" stroke-linecap="round" stroke-linejoin="round" />
            <path d="M99.6526 70.0466C99.6526 70.0466 107.183 72.7866 111.293 65.9366" id="Shape#30" fill="#100F0F" stroke="#202020" stroke-width="1" stroke-linecap="round" stroke-linejoin="round" />
            <path d="M97.2926 35.2966C97.2926 36.1472 96.6031 36.8366 95.7526 36.8366C94.9021 36.8366 94.2126 36.1472 94.2126 35.2967C94.2126 34.4461 94.9021 33.7567 95.7526 33.7567C96.6031 33.7566 97.2926 34.4461 97.2926 35.2966L97.2926 35.2966L97.2926 35.2966Z" id="Shape#31" fill="#202020" stroke="none" />
            <path d="M122.123 141.877C122.123 141.877 122.993 129.457 128.763 131.477C134.533 133.497 130.493 146.777 128.763 149.957C127.033 153.137 121.833 147.117 122.123 141.877L122.123 141.877L122.123 141.877Z" id="Shape#32" fill="#FFFFFF" stroke="#202020" stroke-width="1" stroke-linecap="round" stroke-linejoin="round" />
            <path d="M92.6726 98.8567C97.7008 103.004 101.745 108.216 104.513 114.117C107.246 120.629 109.56 127.309 111.443 134.117C111.443 134.117 118.373 133.247 126.743 143.067C135.113 152.887 135.833 168.687 131.653 177.717C124.433 193.307 101.053 190.127 89.5026 189.257C77.9526 188.387 71.8926 179.737 66.6926 167.607C61.4926 155.477 64.3826 130.077 66.1126 123.147C67.8427 116.217 68.1126 110.737 66.1126 103.807C64.1126 96.8767 78.5326 89.3267 92.6726 98.8567L92.6726 98.8567L92.6726 98.8567Z" id="Shape#33" fill="#FFFFFF" stroke="#202020" stroke-width="1" stroke-linecap="round" stroke-linejoin="round" />
            <path d="M121.543 146.207C121.543 146.207 126.743 139.277 129.343 140.717C131.943 142.157 133.963 149.957 133.963 149.957C133.963 149.957 135.403 138.957 140.023 139.277C144.643 139.597 144.023 149.087 140.893 160.927C137.763 172.767 132.523 170.457 131.653 167.277C131.182 165.513 130.604 163.78 129.923 162.087" id="Shape#34" fill="#FFFFFF" stroke="#202020" stroke-width="1" stroke-linecap="round" stroke-linejoin="round" />
            <path d="M67.0226 133.117C67.0226 133.117 70.0226 135.367 82.0226 136.207C94.0226 137.047 102.553 129.797 102.073 133.607C100.073 149.607 73.6526 150.067 65.4826 139.287C63.9326 137.267 63.8226 133.187 67.0226 133.117L67.0226 133.117L67.0226 133.117Z" id="Shape#35" fill="#202020" stroke="#202020" stroke-width="1" stroke-linecap="round" stroke-linejoin="round" />
            <path d="M67.6026 148.547C67.6026 148.547 70.6026 150.797 82.6026 151.637C94.6026 152.477 103.133 145.227 102.663 149.037C100.663 165.037 74.2326 165.497 66.0726 154.717C64.5126 152.717 64.4026 148.637 67.6026 148.547L67.6026 148.547L67.6026 148.547Z" id="Shape#36" fill="#202020" stroke="#202020" stroke-width="1" stroke-linecap="round" stroke-linejoin="round" />
            <path d="M71.3926 166.547C71.3926 166.547 74.5226 168.547 86.5327 168.547C98.5427 168.547 106.533 160.667 106.343 164.487C105.513 180.577 79.1927 182.987 70.2627 172.827C68.6126 170.927 68.2026 166.867 71.3926 166.547L71.3926 166.547L71.3926 166.547Z" id="Shape#37" fill="#202020" stroke="#202020" stroke-width="1" stroke-linecap="round" stroke-linejoin="round" />
            <path d="M85.2926 181.197C85.2926 181.197 88.7426 182.607 100.543 180.357C112.343 178.107 118.763 168.927 119.273 172.727C121.413 188.727 95.9826 195.907 85.3427 187.567C83.3626 186.017 82.2126 182.117 85.2926 181.197L85.2926 181.197L85.2926 181.197Z" id="Shape#38" fill="#202020" stroke="#202020" stroke-width="1" stroke-linecap="round" stroke-linejoin="round" />
            <path d="M144.503 138.187L145.503 185.087C145.503 185.087 116.743 187.827 107.503 186.457C98.2626 185.087 94.5026 183.377 94.5026 183.377C92.6049 180.52 90.8882 177.548 89.3626 174.477C87.6526 170.707 86.2827 170.707 83.5426 167.287C80.8026 163.867 79.0926 161.467 79.0926 165.227C79.0926 168.987 81.1526 170.027 81.8326 171.397C82.3008 172.712 82.5344 174.1 82.5226 175.497C82.5226 175.497 74.3026 173.447 71.9026 172.417C69.5026 171.387 67.4526 170.027 67.1126 171.737C66.7726 173.447 67.1126 174.477 68.4826 177.557C69.8526 180.637 68.4826 186.117 69.8526 188.857C71.2226 191.597 76.3526 195.357 78.7526 196.387C81.1526 197.417 92.4526 196.727 96.2126 197.067C99.9726 197.407 119.843 201.177 132.163 203.577C144.483 205.977 157.843 207.687 161.613 205.627C165.383 203.567 167.433 202.207 168.113 198.787C168.793 195.367 169.823 160.437 169.823 150.847C169.823 141.257 169.483 128.257 166.743 122.087C163.552 115.598 157.667 110.843 150.653 109.087C144.143 107.717 146.303 107.347 146.303 107.347" id="Shape#39" fill="#FFC9BC" stroke="#202020" stroke-width="1" stroke-linecap="round" stroke-linejoin="round" />
            <path d="M142.293 132.857L144.963 158.927C149.203 157.127 158.763 153.677 168.513 154.407L169.813 154.527C169.813 153.077 169.813 151.827 169.813 150.847C169.813 141.267 169.473 128.257 166.733 122.087C163.543 115.598 157.657 110.842 150.643 109.087C149.643 108.887 146.643 108.817 146.013 108.657" id="Shape#40" fill="#343434" stroke="#202020" stroke-width="1" stroke-linecap="round" stroke-linejoin="round" />
            <path d="M101.363 204.747C99.7897 204.747 98.5053 203.489 98.4726 201.917L98.1326 183.777C98.0526 182.709 98.5698 181.684 99.4764 181.114C100.383 180.544 101.531 180.522 102.458 181.057C103.386 181.592 103.942 182.596 103.903 183.667L104.243 201.807C104.259 202.572 103.969 203.313 103.438 203.864C102.907 204.416 102.178 204.734 101.413 204.747L101.363 204.747L101.363 204.747Z" id="Shape#41" fill="#FFFFFF" stroke="#202020" stroke-width="1" stroke-linecap="round" stroke-linejoin="round" />
            <path d="M45.8926 88.8766C45.8926 88.8766 20.2126 91.9666 18.5026 98.8066C16.7926 105.647 26.0326 118.667 45.8926 124.807C65.7527 130.947 96.5627 135.807 100.333 136.807C104.103 137.807 103.413 143.997 103.413 143.997L102.413 158.377C102.413 158.377 97.6226 172.377 98.6526 172.757C99.6826 173.137 101.043 171.757 102.763 167.617C104.32 164.275 106.149 161.068 108.233 158.027C108.233 158.027 110.293 157.347 110.293 160.427C110.293 163.507 107.553 176.177 107.553 176.177C107.553 176.177 109.263 178.577 110.293 175.837C111.323 173.097 116.113 161.837 116.113 161.837L116.113 176.557C116.113 176.557 117.483 177.557 118.513 177.247C119.543 176.937 121.213 159.117 121.213 159.117C121.724 159.85 122.299 160.536 122.933 161.167C123.933 162.167 125.323 175.897 125.323 175.897C125.323 175.897 127.043 176.897 127.723 175.207C128.403 173.517 126.723 160.147 126.353 156.377C125.983 152.607 118.133 136.867 116.083 133.097C114.033 129.327 108.553 125.907 102.733 124.197C99.1127 123.137 63.7327 106.047 48.2927 95.7767" id="Shape#42" fill="#FFC9BC" stroke="#202020" stroke-width="1" stroke-linecap="round" stroke-linejoin="round" />
            <path d="M99.6526 142.437L99.3626 142.437C97.7778 142.274 96.6214 140.863 96.7726 139.277C98.0626 126.037 105.973 122.807 110.033 122.987C111.568 123.111 112.735 124.418 112.687 125.957C112.639 127.497 111.392 128.728 109.853 128.757C109.173 128.757 103.563 129.117 102.523 139.847C102.374 141.319 101.133 142.439 99.6526 142.437L99.6526 142.437L99.6526 142.437Z" id="Shape#43" fill="#FFFFFF" stroke="#202020" stroke-width="1" stroke-linecap="round" stroke-linejoin="round" />
            <path d="M73.9726 110.797C67.8026 110.797 54.4526 109.797 51.7126 105.657C48.9726 101.517 52.7126 96.0666 52.7126 96.0666C52.7126 96.0666 48.9426 89.2266 50.3126 85.4566C51.6826 81.6866 63.6726 84.4566 63.6726 84.4566L77.6726 80.0066C77.6726 80.0066 84.2926 74.1166 88.0026 74.1166C91.7126 74.1166 90.0626 83.3666 90.0626 83.3666C90.0626 83.3666 96.5626 84.7366 98.2826 90.8966C100.003 97.0566 94.8526 101.507 92.4626 103.897C90.0726 106.287 88.3526 106.637 88.3526 106.637" id="Shape#44" fill="#FFFFFF" stroke="#202020" stroke-width="1" stroke-linecap="round" stroke-linejoin="round" />
            <path d="M79.2926 99.4866C79.2926 99.4866 74.8126 100.237 75.1826 101.357C75.5527 102.477 77.4226 103.227 79.2926 102.477C81.1626 101.727 81.3926 99.1166 79.2926 99.4866L79.2926 99.4866L79.2926 99.4866Z" id="Shape#45" fill="#FFFFFF" stroke="#202020" stroke-width="1" stroke-linecap="round" stroke-linejoin="round" />
            <path d="M72.7626 97.1766C73.0326 98.3867 72.7126 99.4766 72.0626 99.6266C71.4126 99.7766 70.6626 98.9066 70.3926 97.6966C70.1226 96.4867 70.3926 95.3867 71.0926 95.2467C71.7926 95.1067 72.5026 95.9667 72.7626 97.1766L72.7626 97.1766L72.7626 97.1766Z" id="Shape#46" fill="#202020" stroke="none" />
            <path d="M82.5826 94.7467C82.8427 95.9567 82.5327 97.0467 81.8727 97.1966C81.2126 97.3466 80.4727 96.4766 80.2026 95.2667C79.9326 94.0567 80.2026 92.9567 80.9126 92.8167C81.6226 92.6767 82.2926 93.5366 82.5826 94.7467L82.5826 94.7467L82.5826 94.7467Z" id="Shape#47" fill="#202020" stroke="none" />
            <path d="M78.7926 103.377C79.1855 104.281 79.0177 105.33 78.3626 106.067C77.2326 107.197 74.8226 106.777 74.3626 105.217" id="Shape#48" fill="#100F0F" stroke="#202020" stroke-width="1" stroke-linecap="round" stroke-linejoin="round" />
            <path d="M79.2126 105.217C79.2126 105.217 80.3427 106.497 82.3326 105.217C82.866 104.939 83.2321 104.42 83.3155 103.825C83.3989 103.229 83.1892 102.63 82.7527 102.217" id="Shape#49" fill="#100F0F" stroke="#202020" stroke-width="1" stroke-linecap="round" stroke-linejoin="round" />
            <path d="M77.9426 82.2766C77.9426 82.2766 66.9426 84.8267 65.7626 87.3767C64.5826 89.9267 77.9426 85.9567 79.6426 84.3767C81.3427 82.7967 79.7826 81.7167 77.9426 82.2766L77.9426 82.2766L77.9426 82.2766Z" id="Shape#50" fill="#202020" stroke="#202020" stroke-width="1" stroke-linecap="round" stroke-linejoin="round" />
            <path d="M76.1026 88.2266C76.1026 88.2266 68.8726 90.7766 69.7226 91.4866C70.5726 92.1966 77.2326 90.4866 78.6426 89.3566C80.0526 88.2266 78.6426 87.3766 76.1026 88.2266L76.1026 88.2266L76.1026 88.2266Z" id="Shape#51" fill="#202020" stroke="#202020" stroke-width="1" stroke-linecap="round" stroke-linejoin="round" />
            <path d="M50.7526 101.677C50.7526 101.677 61.9426 94.5966 61.2326 97.9967C60.5226 101.397 53.0226 106.777 53.0226 106.777C51.1433 105.839 50.1918 103.701 50.7526 101.677L50.7526 101.677L50.7526 101.677Z" id="Shape#52" fill="#202020" stroke="#202020" stroke-width="1" stroke-linecap="round" stroke-linejoin="round" />
            <path d="M58.6826 109.187C58.6826 109.187 65.4826 100.967 65.0526 104.797C64.6227 108.627 63.0526 109.747 63.0526 109.747C63.0526 109.747 59.1026 109.187 58.6826 109.187L58.6826 109.187L58.6826 109.187Z" id="Shape#53" fill="#202020" stroke="#202020" stroke-width="1" stroke-linecap="round" stroke-linejoin="round" />
            <path d="M96.2026 87.5166C96.2026 87.5166 88.7026 89.0766 89.2626 90.5166C89.8226 91.9566 98.3326 93.5166 98.3326 93.5166C98.3326 93.5166 98.7526 89.4967 96.2026 87.5166L96.2026 87.5166L96.2026 87.5166Z" id="Shape#54" fill="#202020" stroke="#202020" stroke-width="1" stroke-linecap="round" stroke-linejoin="round" />
            <path d="M96.0626 100.117C96.0626 100.117 88.4126 97.4266 88.9826 99.4166C89.5526 101.407 93.2326 103.237 93.2326 103.237C93.2326 103.237 95.0726 101.257 96.0626 100.117L96.0626 100.117L96.0626 100.117Z" id="Shape#55" fill="#202020" stroke="#202020" stroke-width="1" stroke-linecap="round" stroke-linejoin="round" />
            <path d="M50.3426 85.4566C50.3426 85.4566 54.7926 86.4566 56.8526 88.5366C58.9126 90.6166 59.5926 91.2766 56.8526 94.0166C54.1126 96.7566 52.7426 96.0166 52.7426 96.0166C52.7426 96.0166 50.0026 90.5966 50.3426 85.4566L50.3426 85.4566L50.3426 85.4566Z" id="Shape#56" fill="#FFFFFF" stroke="#202020" stroke-width="1" stroke-linecap="round" stroke-linejoin="round" />
            <path d="M88.0026 74.1166C88.0026 74.1166 84.2426 81.9967 86.0026 84.0466C87.7626 86.0966 90.1126 83.3666 90.1126 83.3666C90.1126 83.3666 92.4626 73.8166 88.0026 74.1166L88.0026 74.1166L88.0026 74.1166Z" id="Shape#57" fill="#FFFFFF" stroke="#202020" stroke-width="1" stroke-linecap="round" stroke-linejoin="round" />
            <path d="M74.2026 108.047C74.2026 108.047 68.5826 107.297 66.7026 109.547C64.8226 111.797 66.7026 113.297 71.9526 113.667C77.2026 114.037 80.4926 110.457 74.2026 108.047L74.2026 108.047L74.2026 108.047Z" id="Shape#58" fill="#FFFFFF" stroke="#202020" stroke-width="1" stroke-linecap="round" stroke-linejoin="round" />
            <path d="M97.4526 106.547C97.4526 106.547 88.4526 103.917 83.5826 106.917C78.7126 109.917 73.8326 118.167 79.0826 121.537C84.3326 124.907 85.8326 114.797 85.8326 114.797C85.8326 114.797 94.8326 126.037 103.073 119.667" id="Shape#59" fill="#FFFFFF" stroke="#202020" stroke-width="1" stroke-linecap="round" stroke-linejoin="round" />
            <path d="M176.113 134.117C166.013 131.517 154.753 143.067 151.863 152.887C148.973 162.707 147.243 176.557 140.023 180.887C136.506 183.019 132.285 183.663 128.293 182.677C127.025 183.979 125.581 185.096 124.003 185.997C130.123 187.697 141.663 189.477 149.003 181.717C159.403 170.717 157.093 155.717 165.463 148.517C173.833 141.317 179.033 154.867 184.223 150.247C189.413 145.627 186.223 136.677 176.113 134.117L176.113 134.117L176.113 134.117Z" id="Shape#60" fill="#FFFFFF" stroke="#202020" stroke-width="1" stroke-linecap="round" stroke-linejoin="round" />
            <path d="M152.453 177.227L146.063 172.927C145.35 174.644 144.434 176.269 143.333 177.767C144.623 179.607 146.243 181.767 147.333 183.187C147.894 182.731 148.425 182.24 148.923 181.717C150.243 180.338 151.425 178.835 152.453 177.227L152.453 177.227L152.453 177.227Z" id="Shape#61" fill="#202020" stroke="#202020" stroke-width="1" stroke-linecap="round" stroke-linejoin="round" />
            <path d="M176.113 134.117C175.493 133.957 174.861 133.85 174.223 133.797C170.443 137.797 169.503 143.147 169.313 146.517C175.513 145.307 179.853 154.147 184.193 150.287C189.393 145.627 186.223 136.677 176.113 134.117L176.113 134.117L176.113 134.117Z" id="Shape#62" fill="#202020" stroke="#202020" stroke-width="1" stroke-linecap="round" stroke-linejoin="round" />
            <path d="M136.943 182.287C135.87 182.655 134.76 182.904 133.633 183.027C133.959 184.493 134.373 185.939 134.873 187.357L134.873 187.447C136.764 187.406 138.644 187.14 140.473 186.657C139.443 185.087 138.26 183.624 136.943 182.287L136.943 182.287L136.943 182.287Z" id="Shape#63" fill="#202020" stroke="#202020" stroke-width="1" stroke-linecap="round" stroke-linejoin="round" />
            <path d="M150.423 158.267C149.933 160.267 149.423 162.267 148.923 164.267L156.593 168.167C157.493 165.467 158.213 162.787 158.993 160.257L150.423 158.267L150.423 158.267Z" id="Shape#64" fill="#202020" stroke="#202020" stroke-width="1" stroke-linecap="round" stroke-linejoin="round" />
            <path d="M155.133 145.887L161.763 153.187C162.521 151.757 163.481 150.444 164.613 149.287L159.003 140.967C157.563 142.483 156.267 144.13 155.133 145.887L155.133 145.887L155.133 145.887Z" id="Shape#65" fill="#202020" stroke="#202020" stroke-width="1" stroke-linecap="round" stroke-linejoin="round" />
            <path d="M146.293 107.847L146.293 107.337C146.293 107.337 145.583 107.467 146.293 107.847L146.293 107.847L146.293 107.847Z" id="Shape#66" fill="#FFFFFF" stroke="#202020" stroke-width="1" stroke-linecap="round" stroke-linejoin="round" />
          </g>
          <g id="freepik--Box--inject-2" transform="translate(52.787975 281.7476)">
            <path d="M45.212 45.8724C45.212 45.8724 39.822 43.9724 35.062 30.9624C30.302 17.9524 19.202 14.7924 8.06203 18.5924C-3.07797 22.3924 -0.497977 34.4524 2.99203 35.7224C6.48203 36.9924 9.33203 30.6524 16.632 27.1624C23.932 23.6724 27.732 31.6024 29.632 37.3124C31.532 43.0224 39.212 49.3624 43.312 49.3624C47.412 49.3624 46.212 49.0524 45.212 45.8724L45.212 45.8724L45.212 45.8724Z" id="Shape#67" fill="#202020" stroke="#202020" stroke-width="1" stroke-linecap="round" stroke-linejoin="round" />
            <path d="M49.022 50.9524C49.022 50.9524 50.022 38.9024 59.802 32.2324C69.582 25.5624 86.132 33.2324 89.302 39.2324C91.2955 43.2991 92.4808 47.7141 92.792 52.2324L49.022 50.9524L49.022 50.9524Z" id="Shape#68" fill="#202020" stroke="#202020" stroke-width="1" stroke-linecap="round" stroke-linejoin="round" />
            <path d="M68.142 37.8224C68.142 37.8224 62.662 42.0424 62.242 47.9424C61.822 53.8424 78.692 54.6924 84.172 52.5824C89.652 50.4724 88.382 39.0924 81.172 33.5824C73.962 28.0724 68.142 37.8224 68.142 37.8224L68.142 37.8224L68.142 37.8224Z" id="Shape#69" fill="#FFFFFF" stroke="#202020" stroke-width="1" stroke-linecap="round" stroke-linejoin="round" />
            <path d="M158.782 33.5024C154.972 30.9624 146.722 33.8224 146.722 33.8224C146.722 33.8224 148.942 29.3824 148.942 25.8924C148.942 22.4024 139.112 18.8924 139.112 18.8924C134.833 14.8963 129.038 12.9393 123.212 13.5224C123.212 13.5224 123.842 1.15243 122.572 1.46242C121.302 1.77242 114.642 5.90243 107.982 16.3724C101.322 26.8424 109.352 35.1524 111.262 40.5424C111.262 40.7025 111.372 40.8424 111.422 40.9925C109.872 43.3925 107.642 46.7725 106.252 48.6325C104.512 50.9525 119.452 49.7725 126.872 49.0525L153.342 49.0525C153.731 48.0354 153.947 46.9607 153.982 45.8725C153.873 44.171 153.659 42.4778 153.342 40.8025C154.462 43.3672 157.385 44.6162 160.012 43.6525C164.802 42.0724 162.582 36.0424 158.782 33.5024L158.782 33.5024L158.782 33.5024Z" id="Shape#70" fill="#FFFFFF" stroke="#202020" stroke-width="1" stroke-linecap="round" stroke-linejoin="round" />
            <path d="M146.722 33.8224C142.554 36.9965 140.011 41.8583 139.782 47.0924" id="Shape#71" fill="#100F0F" stroke="#202020" stroke-width="1" stroke-linecap="round" stroke-linejoin="round" />
            <path d="M129.912 21.7724C131.891 18.5 134.188 15.4317 136.772 12.6124C138.242 11.1324 143.012 6.50243 145.522 7.73241C147.082 8.5024 145.832 11.3124 145.452 12.5724C143.552 18.9124 143.552 28.4324 140.062 31.2824C136.572 34.1324 130.232 30.9624 130.232 30.9624" id="Shape#72" fill="#FFFFFF" stroke="#202020" stroke-width="1" stroke-linecap="round" stroke-linejoin="round" />
            <path d="M123.212 13.5224C123.212 13.5224 114.962 13.8324 110.522 19.8624" id="Shape#73" fill="#100F0F" stroke="#202020" stroke-width="1" stroke-linecap="round" stroke-linejoin="round" />
            <path d="M38.232 45.8724L155.292 45.8724L155.292 141.352L38.232 141.352L38.232 45.8724L38.232 45.8724Z" id="Rectangle" fill="#D8A770" fill-rule="evenodd" stroke="#202020" stroke-width="1" stroke-linecap="round" stroke-linejoin="round" />
            <path d="M22.372 45.8724L15.072 66.4924L27.762 66.4924L22.372 45.8724L22.372 45.8724L22.372 45.8724Z" id="Polygon" fill="#D8A770" fill-rule="evenodd" stroke="#202020" stroke-width="1" stroke-linecap="round" stroke-linejoin="round" />
            <path d="M38.232 45.8724L22.372 45.8724L22.372 128.352L38.232 141.362L38.232 45.8724L38.232 45.8724L38.232 45.8724Z" id="Polygon#1" fill="#D8A770" fill-rule="evenodd" stroke="#202020" stroke-width="1" stroke-linecap="round" stroke-linejoin="round" />
            <path d="M38.232 45.8724L48.382 77.6024L163.532 77.6024L155.292 45.8724L38.232 45.8724L38.232 45.8724L38.232 45.8724Z" id="Polygon#2" fill="#D8A770" fill-rule="evenodd" stroke="#202020" stroke-width="1" stroke-linecap="round" stroke-linejoin="round" />
            <path d="M73.762 9.71239C73.762 9.71239 86.132 2.71239 87.402 5.5924C88.672 8.4724 81.402 16.6924 81.402 16.6924L73.762 9.71239L73.762 9.71239Z" id="Shape#74" fill="#202020" stroke="#202020" stroke-width="1" stroke-linecap="round" stroke-linejoin="round" />
            <path d="M75.662 40.4824C62.662 42.0724 58.532 36.0424 56.002 34.7724C53.472 33.5024 48.072 35.0924 46.482 34.7724C44.892 34.4524 47.112 26.8424 51.552 19.5424C54.0058 15.3727 57.2377 11.713 61.072 8.76241C61.072 8.76241 69.002 7.17241 75.072 9.08242C81.142 10.9924 84.272 17.0124 88.072 17.3224C91.872 17.6324 91.552 20.1824 91.242 23.6724C90.932 27.1624 90.922 30.0124 88.072 33.5024C86.1213 35.7504 83.7415 37.5862 81.072 38.9024" id="Shape#75" fill="#FFFFFF" stroke="#202020" stroke-width="1" stroke-linecap="round" stroke-linejoin="round" />
            <path d="M61.072 8.76241C57.2377 11.713 54.0058 15.3727 51.552 19.5424C47.112 26.8424 44.892 34.4525 46.482 34.7725C48.072 35.0925 53.482 33.5025 56.002 34.7725C57.942 35.7725 60.842 39.5025 67.942 40.5025C67.7876 39.0194 68.0041 37.5212 68.572 36.1425C70.672 30.2425 79.952 27.7125 83.742 22.2225C87.532 16.7325 81.212 12.9524 81.212 12.9524L81.212 12.7724C79.4274 11.1412 77.3324 9.88622 75.052 9.08242C69.002 7.17241 61.072 8.76241 61.072 8.76241L61.072 8.76241L61.072 8.76241Z" id="Shape#76" fill="#202020" stroke="#202020" stroke-width="1" stroke-linecap="round" stroke-linejoin="round" />
            <path d="M55.482 15.5224C55.482 15.5224 60.102 3.21239 67.732 0.152399C72.212 -1.6576 70.912 13.2524 70.912 13.2524" id="Shape#77" fill="#202020" stroke="#202020" stroke-width="1" stroke-linecap="round" stroke-linejoin="round" />
            <path d="M88.042 17.3224C88.042 17.3224 85.812 17.9624 87.402 20.5024C88.992 23.0424 90.572 25.2524 91.842 22.4024C93.112 19.5524 90.262 16.3724 88.042 17.3224L88.042 17.3224L88.042 17.3224Z" id="Shape#78" fill="#FFFFFF" stroke="#202020" stroke-width="1" stroke-linecap="round" stroke-linejoin="round" />
            <path d="M67.032 2.4424C67.032 2.4424 61.392 15.1024 65.202 16.0624C69.012 17.0224 70.272 12.8824 70.912 7.17238C71.552 1.46236 69.882 -0.417608 67.032 2.4424L67.032 2.4424L67.032 2.4424Z" id="Shape#79" fill="#FFFFFF" stroke="#202020" stroke-width="1" stroke-linecap="round" stroke-linejoin="round" />
            <path d="M80.972 17.1024C81.752 18.1024 81.972 19.3124 81.482 19.6824C80.992 20.0524 79.932 19.5024 79.152 18.4524C78.372 17.4024 78.152 16.2424 78.642 15.8624C79.132 15.4824 80.212 16.0424 80.972 17.1024L80.972 17.1024L80.972 17.1024Z" id="Shape#80" fill="#FFFFFF" stroke="none" />
            <path d="M63.932 42.0724L58.532 35.7224C58.532 35.7224 55.042 33.5024 52.822 35.4124C50.602 37.3224 45.212 48.0924 49.972 52.2524C54.732 56.4124 57.902 45.9024 58.852 44.9524L59.852 44.0024" id="Shape#81" fill="#202020" stroke="#202020" stroke-width="1" stroke-linecap="round" stroke-linejoin="round" />
            <path d="M58.492 45.4924C56.4611 42.6035 53.3347 40.6734 49.842 40.1524C48.052 44.1524 46.912 49.5724 49.972 52.2224C54.212 55.9224 57.212 47.8724 58.492 45.4924L58.492 45.4924L58.492 45.4924Z" id="Shape#82" fill="#FFFFFF" stroke="#202020" stroke-width="1" stroke-linecap="round" stroke-linejoin="round" />
            <path d="M87.432 41.7024L90.262 35.7024C90.262 35.7024 93.752 33.4824 95.972 35.3924C98.192 37.3024 103.582 48.0724 98.822 52.2024C94.062 56.3324 90.8921 45.8524 89.942 44.9024L88.992 43.9524" id="Shape#83" fill="#202020" stroke="#202020" stroke-width="1" stroke-linecap="round" stroke-linejoin="round" />
            <path d="M99.642 41.8724C94.512 42.6624 92.282 45.2024 91.362 47.6624C92.922 50.8124 95.482 55.1224 98.822 52.2224C101.462 49.9324 100.972 45.6024 99.642 41.8724L99.642 41.8724L99.642 41.8724Z" id="Shape#84" fill="#FFFFFF" stroke="#202020" stroke-width="1" stroke-linecap="round" stroke-linejoin="round" />
          </g>
        </g>
      </g>
    </g>
  </g>
</svg>