<svg xmlns="http://www.w3.org/2000/svg" viewBox="0 0 500 500" xmlns:xlink="http://www.w3.org/1999/xlink"><defs><path id="a" d="M500 0v500H0V0z"/><path id="c" fill="#756556" d="M183.2 137.2 101 89.7l-82.3 47.5 82.3 47.5z"/><clipPath id="b"><use href="#a"/></clipPath></defs><g clip-path="url(#b)"><path fill="none" d="M500 0v500H0V0z"/><path fill="#FFF" d="M91.7 416.5C4.2 366 4.2 284.1 91.7 233.6s229.3-50.5 316.8 0 87.4 132.4 0 183C321 467 179 467 91.7 416.5"/><path fill="#E0E0E0" fill-rule="evenodd" d="M43 305.5c0-30 42.2-54.3 94.2-54.3s94 24.3 94 54.3-42 54.4-94 54.4S43 335.5 43 305.5m209.4 5.4c0-33.5 47-60.7 105-60.7s105 27.2 105 60.7-47 60.6-105 60.6-105-27.1-105-60.6m-21.8 20.8-89.4 51.6c-2.2 1.3-2.2 3.4 0 4.6l89.4 51.7a9 9 0 0 0 8 0l89.4-51.7c2.2-1.2 2.2-3.3 0-4.6l-89.4-51.6a9 9 0 0 0-8 0"/><path fill="#BA68C8" d="m420.5 302.9-7.8-6.5s-1.7-22.2 3.5-41.2c7.3-26.6 22.3-36.6 31.5-32 6.5 3.2 8.8 13.2-5 27.5a91 91 0 0 0-22.2 52.2"/><path fill-opacity=".3" d="m420.5 302.9-7.8-6.5s-1.7-22.2 3.5-41.2c7.3-26.6 22.3-36.6 31.5-32 6.5 3.2 8.8 13.2-5 27.5a91 91 0 0 0-22.2 52.2"/><path fill="#FFF" d="M417.5 288.5h.1a.6.6 0 0 0 .6-.7 78 78 0 0 1 26.5-59q.4-.5 0-1h-.8a79 79 0 0 0-26.9 60q0 .6.5.7"/><path fill="#BA68C8" d="M436.4 323.5c5.4-1.8 6.6-4.9 7.5-8.7l.6-4 .5-3.7q0-2 .9-3.7c1.2-2.3 4-3.1 6.5-3.8 2.8-.7 5.8-2 7-4.8q1-3.6-.2-7T457 281q-.7-2.6.3-5a8 8 0 0 1 2-2.4c2.2-1.8 4.7-3.1 6.2-5.5a6 6 0 0 0 1-3c.1-3.1-2.4-4.6-4.9-5.4q-2.5-.6-5.2-.2c-5.5.7-10.3 5-15.9 5.1-2.1 0-4.2-.6-6.4-.9-2.1-.2-4.5 0-6.1 1.4-3.2 2.8-1.6 8.5-4.4 11.8-2 2.4-5.1 2.7-7.7 4.3q-4.4 2.7-6.3 7.6a22 22 0 0 0-1.4 11.1c1.3 8 7 12.5 12.4 17.7 2.3 2.2 10.4 7.6 15.8 5.9"/><path fill-opacity=".1" d="M436.4 323.5c5.4-1.8 6.6-4.9 7.5-8.7l.6-4 .5-3.7q0-2 .9-3.7c1.2-2.3 4-3.1 6.5-3.8 2.8-.7 5.8-2 7-4.8q1-3.6-.2-7T457 281q-.7-2.6.3-5a8 8 0 0 1 2-2.4c2.2-1.8 4.7-3.1 6.2-5.5a6 6 0 0 0 1-3c.1-3.1-2.4-4.6-4.9-5.4q-2.5-.6-5.2-.2c-5.5.7-10.3 5-15.9 5.1-2.1 0-4.2-.6-6.4-.9-2.1-.2-4.5 0-6.1 1.4-3.2 2.8-1.6 8.5-4.4 11.8-2 2.4-5.1 2.7-7.7 4.3q-4.4 2.7-6.3 7.6a22 22 0 0 0-1.4 11.1c1.3 8 7 12.5 12.4 17.7 2.3 2.2 10.4 7.6 15.8 5.9"/><path fill="#FFF" d="M458.4 263.8a1 1 0 0 0-.8-.4 73 73 0 0 0-25.1 22.4 95 95 0 0 0-14.6 26q-.1.5.4.7t.7-.3a94 94 0 0 1 14.3-25.6 83 83 0 0 1 17.5 3.8q.2 0 .3-.4l-.4-.7q-8-2.8-16.5-3.9a71 71 0 0 1 24.2-21.1z"/><path fill="#BA68C8" d="M96.8 296.6c.7-14 2.2-27-4.3-47.2-5.4-17-21.5-34.2-32-33.8-9.5.4-15.2 11-3.7 23 2.5 2.5 26.2 23 27.3 46.2l2.5 13.5a2.5 2.5 0 0 0 3.6 1.7z"/><path fill-opacity=".3" d="M96.8 296.6c.7-14 2.2-27-4.3-47.2-5.4-17-21.5-34.2-32-33.8-9.5.4-15.2 11-3.7 23 2.5 2.5 26.2 23 27.3 46.2l2.5 13.5a2.5 2.5 0 0 0 3.6 1.7z"/><path fill="#FFF" d="m93 295.7-.5-.6c-.4-35.5-13.2-60.5-32.2-71.9a.6.6 0 1 1 .6-1c19.4 11.5 32.5 36.9 33 73l-.6.6z"/><path fill="#BA68C8" d="M88.5 300.8a4.5 4.5 0 0 1-6.3-2.5q-4-9.5-11.3-16.9c-8.9-9-21.2-14.8-23.1-20.8-2.3-7.4 4.2-11 14.5-8.4 12.6 3.1 26.2 18.1 27.6 47.8z"/><path fill-opacity=".1" d="M88.5 300.8a4.5 4.5 0 0 1-6.3-2.5q-4-9.5-11.3-16.9c-8.9-9-21.2-14.8-23.1-20.8-2.3-7.4 4.2-11 14.5-8.4 12.6 3.1 26.2 18.1 27.6 47.8z"/><path fill="#FFF" d="m86.5 298.9-.4-.6c-4-26-21-38.2-29.3-41l-.5-.7.7-.4c9.3 3 26.1 15.4 30.2 42l-.5.7z"/><path fill="#37474F" d="M417.8 265.3c4.4 13 8.2 30 14.1 55.5 5.6 24 5.6 40.8-2.1 46.6-7.5 5.6-30 2.3-44-27.6a964 964 0 0 0-22-39.8q-6.7-1.5-13-4.5l-48.3 2.3c-19.8-4-53-8.7-50.6-16 2.8-7.7 13.6-13.8 24.5-17.6a218 218 0 0 1 65.1-11.8z"/><path fill="#263238" d="M349.7 287c-6.5-10.3-6.6-16.3-6.6-16.3s-1.4 12.8 4.8 21.7l-42.5 5.4 45.5-2.3q6.1 3 12.8 4.6s-7.6-2.7-14-13"/><path fill="#A47568" d="M338.5 323.1a26 26 0 0 0 11.2 5.3q2.1.3 4-.4c4.5-1.3 11.8-2 15.2 7 3.8 10 15.8 14 19.5 20.7a43 43 0 0 1 2.6 20c-.8 5.3-11.1 2.3-15.4-3.7a105 105 0 0 0-18.5-17.9c-9-4-19-10.2-23.3-12.7z"/><path fill="#37474F" d="M272.8 270.4c-26 4-25 19.4-17.5 29.3 8 10.7 35.2 23.7 49.8 30.5a1883 1883 0 0 0 37.9 16.7 27 27 0 0 1 6.6-18.5c-15.3-9-31.5-36.6-55.9-38.5z"/><path fill="#263238" d="M387.2 379.2a6 6 0 0 0 4.2-1.4c1-1 3-8.4 0-17.1a38 38 0 0 0-11.1-16.5 22 22 0 0 1-6-10.5c-1.3-4.3-5-9.5-7.3-9.9s-5.5 1.6-5.5 1.6z"/><path fill="#BA68C8" d="M349.9 351c.8 2.7 3.2 3.2 5.7 4 3.5 1 7 4.2 10.5 7.9q3.3 3.7 6.4 7.6c2 2.6 4 6.4 6.3 8.4 3.2 2.8 9.2 1.7 10.5-2.8 1-4 .9-13.5-4.3-22.2-2.8-4.7-9.8-9-12-15.5a30 30 0 0 0-7.3-12.8c-2.1-1.8-3.9-1.2-6.3-.2a81 81 0 0 1-9.8 3q.6 4.2 3.2 7.6 1 1 1.4 2.4.3 1 0 2c0 .8-.3 1.9-1.1 2.2l-1.1.2c-1.3.3-1.8 1.8-2 3.2a12 12 0 0 0-.1 5"/><path fill-opacity=".4" d="M349.9 351c.8 2.7 3.2 3.2 5.7 4 3.5 1 7 4.2 10.5 7.9q3.3 3.7 6.4 7.6c2 2.6 4 6.4 6.3 8.4 3.2 2.8 9.2 1.7 10.5-2.8 1-4 .9-13.5-4.3-22.2-2.8-4.7-9.8-9-12-15.5a30 30 0 0 0-7.3-12.8c-2.1-1.8-3.9-1.2-6.3-.2a81 81 0 0 1-9.8 3q.6 4.2 3.2 7.6 1 1 1.4 2.4.3 1 0 2c0 .8-.3 1.9-1.1 2.2l-1.1.2c-1.3.3-1.8 1.8-2 3.2a12 12 0 0 0-.1 5"/><path fill="#F5F5F5" d="M362.7 359.6a4 4 0 0 1-3-2.6c-.8-1.9-.3-5.7.9-8.3a1.7 1.7 0 0 1 2.7-.5q.8 1 .3 2-2.3 4.4-.9 9.4m5 5.1a5 5 0 0 1-3-3.2s-1.1-5.1 1-9a1.6 1.6 0 0 1 2.5-.5q.7.8.3 1.8a13 13 0 0 0-.8 10.9m4.8 5.8q-2.2-1.1-2.8-3.4s-1-4.8 1-8.7a1.6 1.6 0 0 1 2.6-.4q.8.8.3 1.8a12 12 0 0 0-1.1 10.7"/><path fill="#E5A39B" d="M340.7 317.6c-4.6-1.2-11.5-2.8-14.3-6.6s-8.7-7.3-16.6-2c-5 3.2-11 4.3-17 4.7-2.5.2-5.4-.1-8 .4a30 30 0 0 0-13 7.8 9 9 0 0 0-.2 9.8q1.2 1.8 3.3 2.3c2.7.6 5-.3 7.6-1l6.6-1.5q7.5-1.5 15-1.7c2.1-.1 6.6-.5 8.7-.3a92 92 0 0 1 21.7 5.6z"/><path fill="#37474F" d="M434 360.6c-1.5 9-11.7 13.4-33.5 9-21.8-4.3-73.7-37-73.7-37s2-12.5 14-15.8c0 0 10.8 2 28.6 5.8q12 2.6 23.6 6.5c12 16 24.4 9.6 28.9 15.2 7.4 9.4 12 16.3 12 16.3"/><path fill="#263238" d="M269.3 332.2a6 6 0 0 1-2.6-3.6c-.3-1.4 2.6-8.6 10-13.8a38 38 0 0 1 19-6.8c4.1-.4 7.2-2.3 10.9-5 3.6-2.6 9.6-4.6 11.7-3.6s3.5 4.6 3.5 4.6z"/><path fill="#BA68C8" d="M316.1 331.4c-2.3 1.8-4.5.8-7 0a27 27 0 0 0-13.1.2q-5 1-9.7 2.3c-3.2.8-7.1 2.8-10 3-4.3.5-8.5-4-6.8-8.4a32 32 0 0 1 16.5-15.3c5-2.2 13.2-1.5 18.9-5.4 3.8-2.7 8.6-5.7 13.3-6 2.9-.3 3.9 1.3 5.3 3.4q2.9 4.3 6.1 8.2-2.9 3-7 4.3-1.4.3-2.6 1-.7.7-1.1 1.7c-.4.7-.9 1.7-.4 2.5l.8.7c.9 1 .3 2.6-.3 3.9q-.9 2-2.4 3.6z"/><path fill-opacity=".4" d="M316.1 331.4c-2.3 1.8-4.5.8-7 0a27 27 0 0 0-13.1.2q-5 1-9.7 2.3c-3.2.8-7.1 2.8-10 3-4.3.5-8.5-4-6.8-8.4a32 32 0 0 1 16.5-15.3c5-2.2 13.2-1.5 18.9-5.4 3.8-2.7 8.6-5.7 13.3-6 2.9-.3 3.9 1.3 5.3 3.4q2.9 4.3 6.1 8.2-2.9 3-7 4.3-1.4.3-2.6 1-.7.7-1.1 1.7c-.4.7-.9 1.7-.4 2.5l.8.7c.9 1 .3 2.6-.3 3.9q-.9 2-2.4 3.6z"/><path fill="#F5F5F5" d="M300.7 330.8q2 .9 3.9-.3c1.8-1 3.6-4.4 4.2-7.2a1.7 1.7 0 0 0-2-2q-1 .3-1.3 1.4c-.5 3.2-2.2 6.2-4.8 8.1m-7 1.2q2.2.6 4.2-.8s4-3.5 4.6-7.9a1.6 1.6 0 0 0-1.8-1.9q-1.1.3-1.3 1.3c-.4 3.8-2.5 7.3-5.8 9.3m-7.3 1.9q2.3.4 4.3-1.1s3.6-3.2 4.3-7.6a1.6 1.6 0 0 0-1.9-2q-1 .3-1.2 1.4a12 12 0 0 1-5.5 9.3"/><path fill="#263238" d="M377.9 324.6s14.6 2.9 25.5 10.2c0 0-11.2-13-28.4-15.4zM293.6 290c9.7.6 17 5.6 19 6.7l1 .7 5.8-.3q-4.3-3.7-9.3-5.7c-5.2-2.2-11-2.7-16.5-1.4"/><path fill="#F6C0B3" d="M311.9 243.6c11.2 2.2 17.7 2.1 23-10 7-15.7 18-41.3 18-41.3l5.6-43.3c-11.2-1.6-21.2 4.6-27.8 20-6.6 15.8-19.5 48.2-19.5 48.2-8.1-.7-16.3-.6-24.4-1.1-3.8-.3-7.2-.7-10.4-3q-3-2.4-6.2-4.6-2.2-1.3-4.5-2.2-2.1-1-3.9-2.4-.5-.5-1.2-.6c-.9 0-1.4 1-1.6 1.7q-.2 1.8.4 3.5.9 1.6 2.1 2.8.6.5.3 1-.3.3-.7.1-4.4-.8-8.6-2.2a6 6 0 0 0-4 .1c-2.2 1-2.6 4-2.3 6.3 2 15.7 19.6 17.2 31.9 19.8z"/><path fill="#BA68C8" d="M361 148.2c-8 .2-16.9-1-25 10-8 11-19.2 45-19.2 45s20.8 2 25.5 13.3l18.4-35.4z"/><path fill="#232323" d="M389.1 148.5c15.9 3 26.5 6.3 29.4 9.2 6.8 13.8-2 60.1-2 60.1l.3 26.8 1 20.7c-17.1 14.4-72.4 8.2-81.8-12 0 0-2.3-51.6 0-71.3 2.6-21 12-33.1 30-34.2z"/><path fill="#263238" fill-rule="evenodd" d="M328.5 99.9a21.6 21.6 0 1 1 43.2 0 21.6 21.6 0 0 1-43.2 0"/><path fill="#263238" d="M392.8 110.2s-1.7 17.7-3 20.7a8 8 0 0 1-4 4.1l-1.1-12.1z"/><path fill="#161616" d="M385.4 86.1q4.1-.8 7.3 1.6c3.4 2.8 2.8 12.6 0 22.5l-6.7 1.6z"/><path fill="#E5A39B" d="M384 112c1.4.7 3.1-2.2 4.6-4.2s6.8-5 10.3.6c3.4 5.5-1 13.8-5.2 16a5.4 5.4 0 0 1-7.5-2l2.6 27.9c-6.3 15.2-36 17.6-26.4.6l-.8-7q-5.2 1.2-10.6 1.4c-3.7 0-8.3-3-11.6-9.8-4.4-9-6.4-18-6.3-37.3.2-21.2 25.2-23.1 39.2-16.3s11.8 30.1 11.8 30.1"/><path fill="#161616" d="M383.1 74.8a67 67 0 0 0-15-2.7c-10.8-1.2-21.8-2-32-5.9a7 7 0 0 0-4-.6c-2.5.6-3.2 3.8-3 6.4q.2 3.6 1.7 7c-1.6-1.5-4.4-1-5.7.7a7 7 0 0 0-1 6.1c3.2 12.7 15.7 13.9 25.7 12.7 3.4-.4 10.7-1.8 13.8-5.7 2.3 5.3 7.4 8.7 13.2 8.7a46 46 0 0 0 1.9 10c.4 1.6 1.2 3.2 2.7 3.6q2 .4 3.3-1.2c1.4-1.7 2.2-4 3.7-5.8 2-2.3 2.4-17.9 2.4-20.7l.2-.7c2-3.6-1.4-9-4.6-10.5z"/><path fill="#161616" d="M389.7 87.1a5 5 0 1 0 7-7.4z"/><path fill="#A47568" d="M361.5 144s10.6-3.2 14.7-6c2.7-2 4.8-7.2 5.3-9q.2 5.5-2.8 10.3c-2.8 4.4-16.6 9.3-16.6 9.3z"/><path fill="#263238" d="M359.7 112.7a3 3 0 0 0 3 2.5 2.9 2.9 0 1 0-3-2.5m7.7-8.2-5.6-2.4c-.6 1.6 0 3.4 1.6 4.1a3 3 0 0 0 4-1.7"/><path fill="#A47568" d="m365.1 127-8.8 4.4a5 5 0 0 0 6.5 2.3 5 5 0 0 0 2.2-6.7"/><path fill="#F28F8F" d="M365.1 129a4.5 4.5 0 0 0-4.3 5.2q1 0 2-.5a5 5 0 0 0 2.7-4.7z"/><path fill="#263238" d="m340.7 103.2-5 3.6a3 3 0 0 0 4.2.8c1.4-1 1.7-2.9.8-4.4m-1.2 11.1a2.8 2.8 0 1 0 2.5-3.2 3 3 0 0 0-2.5 3.2"/><path fill="#A47568" fill-rule="evenodd" d="m352.1 113 .8 15-8.1-1.7z"/><path fill="#E5A39B" d="M418.5 157.7c9.6 6.2 13.2 17.3 8.6 33.7-5 18-14.6 40.5-24.9 56-4.1 6.2-6.4 8-25 5q-14.3-2.5-28.3-5.7a169 169 0 0 1-33.3-10 26 26 0 0 1-8-5.8 8 8 0 0 1 .6-11.8c9.3-8.8 11.8-1 18.6 1.2 0 0 4 0 6 .3 1.7.2 1.8-.1 3.2.8 3 2 4.8 3.5 6.6 3.7 12 1.8 39.5 3.6 39.5 3.6l17.5-42.4s9.8-30.2 19-28.6"/><path fill="#E5A39B" d="M339.1 223.5c-.4-.2-1.9-3.2-2.3-3.8a33 33 0 0 0-3.3-4.2 13 13 0 0 0-4-3l-7-2h-1a1 1 0 0 0-.7 1q0 .6.3 1a9 9 0 0 0 2.7 3.5c.8.7 3.5 3.5 4.2 4.4 0 0 11 3.8 11 3"/><path fill="#BA68C8" d="M413.6 155c7.3 1.8 13.6 4 15.9 14s1.5 15.3-7.5 38.3c-5.4 14-9.7 22.5-9.7 22.5s-5.2-13.3-25.2-14.7l12.9-38.8s7.5-16.9 13.5-21.3"/><path fill="#FFBCBB" d="M145.3 325.4s-32.6-12-36.7-15.3c-3.3-2.7-1.3-9.3-6-10.3-5.4-1.3-9.2 1.6-12.7 4.8-3.3 3-7.5 4.4-15.6 1.6s-16-6.9-19.1-5.4-1.2 4.1 13 10.6c8 3.8 18.4 8.1 25 10.7q7.2 2.7 13.4 7.3c8.6 6 10.2 7.3 20.4 13.4 20.4 12.2 32.5 15.5 48.7 12.4z"/><path fill="#2E2E2E" d="M114.7 313.3c-6.5 3.8-9.6 7.9-10 15.1 0 0 4.4 3.4 11.4 8.2 8.3 5.8 28.4 18.9 41.9 20.3 20.9 2 27.5-4.2 27.5-4.2z"/><path fill="#4A4C4D" d="M108.7 318c10.7 18 36.8 29.1 45 30a71 71 0 0 1-11.2-19.2l-27.8-15.5a25 25 0 0 0-6 4.7m-61.2-18.6q-.4-2 .8-3.7c2.8-3.4 6.5-5.2 9-6.5q4.6-2.1 9.8-1.8c6.4.3 11.9 5.1 18.3 5.5 4.7.3 9-2.2 13.7-3.3q2.2-.6 4.5-.4c1.3 0 3.3 1 3.8 2q.9 2 .3 4.2c-.3.8-2 2.5-3.3 3.4-1.8 1.2-4 1.6-6.5 2.3-6.6 2-36 2.7-50.4-1.7"/><path fill="#BA68C8" d="m108.8 308.3.1 1.8c.1.8-.3 1-1 1.5-2.7 1.8-6 1.6-9.1 1.1-2.4-.4-4.9-1-7.2-.6-2.9.5-5.2 2.6-7.3 4.6l-1 1.5s-16.5-7-24-11c-3.8-2-8.2-3.9-11.2-7-.2-.2.7-1.4.8-1.5a7 7 0 0 1 3.8-2q3.6-1 7.3-.6 5.5 1 10.9 2.3a93 93 0 0 0 20.9 1.6q5.1-.1 9.9-2.2 1.8-.8 3.4-2l1.6-2c.5-.8.8-2 1.3-1 1.3 2.5 1.5 6.3 1.3 9.1q-.1 3-.4 5.7z"/><path fill-opacity=".2" d="m108.8 308.3.1 1.8c.1.8-.3 1-1 1.5-2.7 1.8-6 1.6-9.1 1.1-2.4-.4-4.9-1-7.2-.6-2.9.5-5.2 2.6-7.3 4.6l-1 1.5s-16.5-7-24-11c-3.8-2-8.2-3.9-11.2-7-.2-.2.7-1.4.8-1.5a7 7 0 0 1 3.8-2q3.6-1 7.3-.6 5.5 1 10.9 2.3a93 93 0 0 0 20.9 1.6q5.1-.1 9.9-2.2 1.8-.8 3.4-2l1.6-2c.5-.8.8-2 1.3-1 1.3 2.5 1.5 6.3 1.3 9.1q-.1 3-.4 5.7z"/><path fill="#FAFAFA" d="M65.8 297.2c-3.1 4.2-3.1 11.6-3.1 11.6s-5.3-2-10.5-5c-5-2.8-4.7-4.4-4.7-4.4q.3-1.3 1.4-2.2a9 9 0 0 1 6.8-2q5.2.5 10 2m-.2 9.2a9 9 0 0 0-.3 3.7q.7.6 1.7.8-.1-2 .4-3.8c.3-1-1.4-1.7-1.8-.7m5.1 2.4a8 8 0 0 0-.4 3.6q.7.6 1.7.8-.1-2 .4-3.8c.3-1.1-1.4-1.7-1.7-.7m5 2.3a8 8 0 0 0-.3 3.8q.6.6 1.6.8 0-2 .4-3.8c.3-1.1-1.3-1.7-1.7-.7"/><path fill="#E0E0E0" d="M107.9 292.8q0-.7-.5-1.5s-1.7 3.4-7.6 5.3a46 46 0 0 1-25.1.1c-11.6-2.6-18.2-5.1-23.4-2.9-5.3 2-3.8 5.7-3.8 5.7s2.5-4.7 9.8-3.8c7 .8 17.4 4.5 27 4.9 10.2.4 20.4-1 23.6-7.8"/><path fill="#2E2E2E" d="M225.2 314.7c-5-15.7-18.6-25-30.7-35-12-10.2-31.4-27.2-31.4-27.2l-68-13.7c-4.2 8.7-8.5 25.3-8.5 37.9 0 11.8 3.6 27.5 24.2 42.8a558 558 0 0 0 31.4 22.3c9.5 6 30.3 16.5 42.6 12.4a15.4 15.4 0 0 0 10.3-18.7l4.3.2h4q6.2.2 12-1.8c8.6-3.1 12.7-10 9.8-19.2"/><path fill="#4A4C4D" d="m198.1 335-4.3-.2c-7.5-16.2-49.3-49.4-49.3-49.4 3.4-1.6 11.2-5.8 13.8-10.5-1 6-4.5 9-7.8 11.4 5 4.6 26.6 22.8 32.4 28.2 6 5.7 12.3 12.4 15.2 20.5"/><path fill="#DCA2A2" d="M148.9 152.7c8.9.7 13.1 3.2 21.9 12.9s25 27.2 28 31.7c2.8 4.6 11.3 14.4-1.5 21.8-12.7 7.4-40 9.8-40 9.8z"/><path fill="#7300FF" d="M164.5 207.1c11.9-9.8 8-22.5 3.6-31.1-8.6-17.1-17.6-23.9-21.4-23.8l-24-3.1q-14.6 2.3-27.6 9.3c-9.4 5.4-6.9 11.5-5.6 17.2 3.3 15.3 7.6 24 8.9 28.6s3.6 11.9 1.7 19.4c-.7 2.9-2.7 5.7-5.7 13.7q-3.9 10-6 20.3s19.1 17.5 52.8 12.7c24.7-3.6 27.9-12.6 27.9-12.6l-5.9-30.5c.6-10.1.7-13.8 1.2-20.1"/><path fill="#B2B2B2" d="M164.5 207.1c11.9-9.8 8-22.5 3.6-31-8.6-17.3-17.6-24-21.4-24l-24-3q-14.6 2.3-27.6 9.3c-9.4 5.4-6.9 11.7-5.6 17.2 3.3 15.3 7.6 24 8.9 28.7s3.6 11.8 1.7 19.3c-.7 3-2.7 5.7-5.7 13.7q-3.9 10-6 20.3s19.1 17.5 52.8 12.8c24.7-3.5 27.9-12.6 27.9-12.6l-5.9-30.5c.6-10.2.7-13.8 1.2-20.2" opacity=".5"/><path fill="#1D1D1D" d="M157 75.7c-12.7-6.9-29.1-4.2-35.5 6.1 0 0-6.5-1.2-13 4.5-7.4 6.5-7.3 16.2-7.4 25.1-.1 10.5-4 13.6-5.4 21.6s4 13.3 9.9 14c0 0-2-7.3 0-10.7 0 0-.5 10.5 9.5 12.3 8 1.4 14-4 14-4s-10-1.8-11.7-8l1-10.1 18.3 19.6c10.5 9.1 25.2 3.4 25.6-.8 0 0-11.8-12.3 4.2-27.6s3.2-35.1-9.5-42"/><path fill="#FFBCBB" d="M166.2 122c-2.4 18.3-8.9 22.2-12 23.2s-8.8-.3-14.3-1.8l-.9 8.7s8.6 8.5 6.4 10.5c-4.1 3.7-15 2-20.3-1a23 23 0 0 1-8.9-8.2q-.7-1.1-.4-2.4l2.6-24.5s-3 1.7-7.4-1.3c-4-2.7-4.8-11-1.1-14.6 2.7-2.5 7.6-2.4 10 2.2 1.3 3.3.5 6.3 2.8 6.2s3.2-2.2 3.5-4l1-5.2c5.6-.5 11.8-8 13-13.4 3.7 2.2 7.6 4 11.5 4.1 6.1.3 9.4-.5 13-4.5q.8 1.5 1.2 3.4 1 3.7 1 7.4a93 93 0 0 1-.9 15.2"/><path fill="#DCA2A2" d="M140 143.4c-5.8-1.4-17.6-6.1-19-11.1 0 0 .3 3 3.7 6.5 3.3 3.5 15 8.2 15 8.2z"/><path fill="#263238" d="M146.2 115.8a2.6 2.6 0 1 1-2.4-2.8 2.6 2.6 0 0 1 2.4 2.8m17.3.9a2.4 2.4 0 0 1-2.5 2.3 2.2 2.2 0 0 1-2.2-2.5 2.4 2.4 0 0 1 2.5-2.3c1.3 0 2.3 1.2 2.2 2.5"/><path fill="#DCA2A2" fill-rule="evenodd" d="m152.5 111.4-1.3 17.5 8.3-1.7z"/><path fill="#263238" d="m137.5 108 5-3.8c1.1 1.5.8 3.5-.6 4.6a3 3 0 0 1-4.4-.8"/><path fill="#874C4C" d="m141.8 128.7 7.8 3.6a4.5 4.5 0 0 1-5.8 2.2 4.2 4.2 0 0 1-2-5.8"/><path fill="#DCA2A2" d="M143.8 134.5a4 4 0 0 1-2.4-3.8l1.4-.1a4 4 0 0 1 3.5 4.2q-1.4.1-2.5-.3"/><path fill="#263238" d="m161.9 105.1 4.6 4.5a3 3 0 0 1-4.4.1 3.3 3.3 0 0 1-.2-4.6"/><path fill="#616161" d="M173.3 171.2q-1.7-.2-3.4-.8-3.3-1-6.6-.7c-2.3.2-5.3 1.1-7 2.7-.6.7-.8 2.3.3 2.6q-.1 1 .6 1.4.8.6 1.7.4c0 .6 1 1 2 .9q2.1-.5 4.3-.5c3 .1 3.6 1.3 3.6 1.3"/><path fill="#292929" d="M161.3 174.8c-1.4-.3-2.7.6-3 2h.6q.5-1.9 2.4-2m-2.3-1.9q-2 0-3 1.8l.5.3c.4-1 1.4-2 2.5-2.1"/><path fill="#616161" d="m200.2 163.6-5 1.4-10 2.8-1 .2-2.2.4-4.9.8h-.3q-1 0-2 .3l-1 1-1.1 1-.4.5-3.1 5.4q-1 1.4-2.7 1.8a7 7 0 0 0-4.1 2.6q-.4-.5-1-.6-.2-.8-1-1.3-1-.4-2 0c0-.5-.9-1.2-2.6-.8a25 25 0 0 0-9 4.4c-4.5 2.8-6 5.4-6 7.5q.1 2.2 2 3.4s-13.9 13.2 5.1 24.5c18.5 11 42.6-.8 50.2-18.3a48 48 0 0 0 3.6-14.6c1-9.6-.9-17-1.5-22.4"/><path fill="#515151" d="M162 185.1s3-1.3 4.4.3q1.1-.5 2.2.1.8.6.6 1.7.6 0 1 .7.3 1.3-.4 2.2-1.7 3.1-5.2 4.3a8 8 0 0 1 3.9 6c.7 4.8-.9 7.3-.9 7.3q9.8-2.4 16-10.4c8.5-10.9 5.4-30 5.4-30l-14.1 2.3a11 11 0 0 0-5.7 8q-4.5.3-8.2 3l.4.7q.6 0 1 .6c.7 1 .5 2.4-.4 3.2"/><path fill-opacity=".3" d="M162 185.1s3-1.3 4.4.3q1.1-.5 2.2.1.8.6.6 1.7.6 0 1 .7.3 1.3-.4 2.2-1.7 3.1-5.2 4.3a8 8 0 0 1 3.9 6c.7 4.8-.9 7.3-.9 7.3q9.8-2.4 16-10.4c8.5-10.9 5.4-30 5.4-30l-14.1 2.3a11 11 0 0 0-5.7 8q-4.5.3-8.2 3l.4.7q.6 0 1 .6c.7 1 .5 2.4-.4 3.2"/><path fill-opacity=".1" d="M182.9 180c-2.3-.1-5.5.4-7.3 1.8-.8.6-1.2 2.2-.1 2.7q-.2.8.4 1.5t1.7.6c0 .6.9 1.1 1.9 1.1 1.4 0 1.8-.4 4.4.1q2 .5 3.6 2 1.3-4 1.7-8.1-3-1.5-6.3-1.7"/><path fill="#616161" d="M189.6 180.1a17 17 0 0 0-6.7-1.8c-2.3-.1-5.5.4-7.3 1.9-.8.5-1.2 2-.1 2.6q-.2.8.4 1.5t1.7.6c0 .6.9 1.2 1.9 1.1 1.4 0 1.8-.4 4.4.1q2.4.6 4 2.5l4.7-7.2q-1.5-.5-3-1.3"/><path fill="#292929" d="M180 183.2q-1.2-.5-2.3.2-.6.5-.8 1.4h.7c0-1 1.3-1.6 2.4-1.6m-5.1-.9q.1.3.6.5.5-1.1 1.8-1.3-1.4-.3-2.4.8"/><path fill-opacity=".1" d="M201.9 176.5c-.4-5.2-1.3-9.5-1.7-12.9l-5 1.4-10 2.8-1 .2-2.2.4-4.9.8h-.3q-1 0-2 .3l-.8.6a15 15 0 0 0 8.6 4.6c6.5 1.5 13.5-.7 13.5-.7 1.1 2 3.5 3 5.8 2.5"/><path fill="#292929" d="M190.4 143.6q-.8-2.5-6.3-2.6c-2.8 0-5.5.8-9.7-1-4.1-2-7.6-1-8.7 3-1.2 4.2-.2 9.4 4.4 11.2 4.2 1.6 11.1.8 15-1.9 3.9-2.6 5.3-8.8 5.3-8.8"/><path fill="#515151" d="m178 141.9.3-.9q-2.1-.2-3.9-1c-4.1-2-7.6-1-8.7 3q-.6 2.3-.4 4.4 1.2.8 2.7 1 1.3.2 2.1-.6c.6-.8.4-2 1-2.7s2-.5 3.1-.6a4 4 0 0 0 3.8-2.5"/><path fill-opacity=".4" d="m178 141.9.3-.9q-2.1-.2-3.9-1c-4.1-2-7.6-1-8.7 3q-.6 2.3-.4 4.4 1.2.8 2.7 1 1.3.2 2.1-.6c.6-.8.4-2 1-2.7s2-.5 3.1-.6a4 4 0 0 0 3.8-2.5"/><path fill="#616161" d="M201.7 151.6c-2-4.3-3-5.2-8.6-7.2s-9-1.7-14 1.3c-3 1.9-4.2 7-4.2 7q-3.1.3-5 2.8c-2.2 3.3-.5 9.2.8 11.2q3.6 4.8 9.5 6.1c7.2 1.5 13 1 16.5-2.6 4.5-4.6 6.5-15.4 5-18.6"/><path fill="#515151" d="m200.7 158.6.1-1.5c0-1.7-.3-3.9-1.4-5.1a7 7 0 0 0-8.1-2.9 7 7 0 0 0-4.4 2.9c-1 1.5-1.4 3.2 0 4.5l1.5 1.4c.7.8 1 2 1.5 2.7a5 5 0 0 0 2.8 2q1.6.4 3.4 0 2.2 0 3.7-1.8.6-1 .9-2.2"/><path fill-opacity=".3" d="m200.7 158.6.1-1.5c0-1.7-.3-3.9-1.4-5.1a7 7 0 0 0-8.1-2.9 7 7 0 0 0-4.4 2.9c-1 1.5-1.4 3.2 0 4.5l1.5 1.4c.7.8 1 2 1.5 2.7a5 5 0 0 0 2.8 2q1.6.4 3.4 0 2.2 0 3.7-1.8.6-1 .9-2.2"/><path d="M191.7 154.7a1.7 1.7 0 1 1-3.3 0 1.7 1.7 0 0 1 3.3 0m-11.6-3.1a1.7 1.7 0 1 1-3.3 0 1.7 1.7 0 0 1 3.3 0m-3.9 13.5h-.2l-.3-.4.8-3.8a.4.4 0 0 1 .7.1l-.7 3.8q0 .3-.3.3"/><path d="M178.5 156.5q-3.1-.9-4 .2c-.5 1.3.4 3.1 1 3.8q1.2 1 2.6.9c1.1-.2 3-.9 3.3-2q.4-1.9-2.9-3"/><path fill="#292929" d="M175.3 156.6q-.8.6-.5 1.6c.3.4.7-1.1 1.8-1.1q1.8.2 3.5 1.2c.6.4.7-.4-.7-1q-2.6-1.3-4-.7"/><path d="M178.6 165.5h-.7q-2.3 0-3.8-1.6a.4.4 0 0 1 .6-.5q1.4 1.3 3.2 1.3 2.5.3 4.4-1.2a.4.4 0 0 1 .6.6 6 6 0 0 1-4.3 1.4"/><path fill="#292929" d="M198.5 147c2.2.2 6.6 1.2 8 3.3 1.3 2.1 5.6 9.1 4.4 15.7-.8 5-5.1 8.5-10.2 8.3-3.5-.3-5.7-2-4-7.1 1.8-5.2 3.2-12.4 1.9-15.9-1.2-3.2-2.6-4.6 0-4.3"/><path fill="#515151" d="M209.3 155.5a10 10 0 0 1-3.7 3.2l-2 1q-.8.8-.6 2 .7 1 2.2 1.4c.9.2 1.9.8 2 1.7 0 .6-.6 1.2-.7 1.9a1.7 1.7 0 0 0 2 1.6q1.4-.3 2.2-1.4l.2-1c.7-3.6-.4-7.4-1.7-10.4"/><path fill-opacity=".4" d="M209.3 155.5a10 10 0 0 1-3.7 3.2l-2 1q-.8.8-.6 2 .7 1 2.2 1.4c.9.2 1.9.8 2 1.7 0 .6-.6 1.2-.7 1.9a1.7 1.7 0 0 0 2 1.6q1.4-.3 2.2-1.4l.2-1c.7-3.6-.4-7.4-1.7-10.4"/><path fill="#292929" d="M162 185.1c-6 2.6-11.5 5.5-12.6 8.8s1.8 4.2 1.8 4.2-3-.1-3-2.8 2.5-6.9 13.8-10.2m4.3 2.9c.6-.1 1.9-.6 2-1.4q0-.7-.9-.6a3 3 0 0 0-1.7.6c-.8.7-.4 1.5.6 1.4m1 2c.7 0 2-.2 2.2-1 .2-.6-.3-.8-.7-.8a3 3 0 0 0-1.9.3c-.9.5-.5 1.4.4 1.5m-4-3c.6 0 1.8-.4 2-1q-.1-.8-.8-.8-1 0-1.7.5c-.8.5-.4 1.3.5 1.3"/><path fill="#292929" d="M163.9 188.3c-.7-.6-1.8-1.2-4.8-.3-3.1.9-4.2 2.3-3.4 3 1 .9 2.8-.6 2.4 1.6-.2 1.2 1.4 2.1 4.2 0 2.8-2.2 2.3-3.5 1.6-4.3m-5.9-5.7c.7-.1 2-.6 2-1.4q0-.7-.8-.6a3 3 0 0 0-1.8.6c-.7.7-.3 1.5.6 1.4m1.1 2c.7 0 2-.2 2.2-1q.1-.8-.7-.8a3 3 0 0 0-1.9.3c-.9.5-.5 1.4.4 1.5m-4.1-3c.7 0 1.8-.4 2-1q0-.7-.8-.7-.8-.1-1.6.4c-.8.5-.4 1.3.4 1.3m.7 1.4c-.7-.7-1.8-1.3-4.8-.4-3.1.9-4.2 2.3-3.5 3 1.1 1 3-.5 2.5 1.6-.2 1.3 1.4 2.2 4.2 0 2.8-2.1 2.3-3.5 1.6-4.2m-12.9 27.2a1 1 0 0 1-1 .5c-6.5-.5-15.2-6-18.8-13.6-3.6-7.8-.7-17 .6-17 1.3-.2-1.3 5 .2 11.7 1.4 6 7 13.6 18.2 15.5q.6 0 .8.6a3 3 0 0 1 0 2.3"/><path fill-opacity=".1" d="M200.3 194.5c-1-.2-1.6.3-2.7 1l-3.2 2.6q-4.9 4-11.2 4.9-2.7.3-5.3.2-1.3 0-2.1-1-.5-1.2 0-2.3 1-2.3 1.5-4.5c.2-1.4.3-4.2-1-5.1q-.6-.5-1.6.1l-1.4 1.8a53 53 0 0 0-4 5.9 8 8 0 0 0-2.7-3.7c3.6-2.7 3.4-4.3 3.4-4.3-2 3-6.7 4.3-6.7 4.3a8 8 0 0 1 4.4 6.7q-.8 2.1-2.3 3.9-2.7 3.1-6.7 4.4c-1.8.6-10.7 1.4-18.8 2.1q2.2 3.7 8.2 7.4c18.5 11 42.6-.8 50.1-18.3q1.4-3 2.2-6.2"/><path fill="#FFBCBB" d="M131.3 236.3q7.8-1.2 15.6-3c12.5-3 25.2-7 36.6-13q5.4-2.7 10.1-6.4 2.4-1.6 4.2-4 1.6-2.3 2.9-5.1 1.6-3.5 1.3-7.4c0-.7-.3-1.7-1.1-1.8-1-.2-1.6 1.1-2.2 1.7q-1.2 1.4-2.5 2.5-4.9 4-11.1 4.9-2.7.3-5.4.2-1.3 0-2-1-.6-1.1 0-2.3.8-2.2 1.4-4.5c.2-1.4.3-4.2-.9-5.1q-.9-.5-1.6.1-.9.8-1.5 1.9-2.5 3-4.4 6.3c-1.2 2.1-2 4.5-3.6 6.4q-2.7 3.1-6.7 4.4c-3 1-25.3 2.6-31.2 3L115 184s-7.5-23.3-19.9-25.6c-6.4 3.7-8.3 6.9-9.3 14-1 7.2 1.9 13.3 5 23 3.2 9.6 18.3 32.7 22.5 37.4 4.3 4.6 6.5 4.6 13.7 4z"/><use fill-rule="evenodd" href="#c" transform="translate(133.6 179.4)"/><path fill="#C5A58D" fill-opacity=".4" fill-rule="evenodd" d="m316.8 316.6-82.2-47.5-82.3 47.5 82.3 47.5z"/><use fill-opacity=".1" fill-rule="evenodd" href="#c" transform="translate(133.6 179.4)"/><path fill="#756556" fill-opacity=".1" fill-rule="evenodd" d="M234.6 338.2v-69.1l-82.3 47.5v69z"/><path fill="#756556" fill-opacity=".2" fill-rule="evenodd" d="m234.6 338.2-82.3 47.5 82.3 47.5 82.2-47.5z"/><path fill="#757575" d="M276.4 180.9c-3.7-1.2-5.7-.5-9 2.3s-4.1 3.4-4.5 6.9c-.3 3.4.7 10.6 4.4 9.5s9-18.7 9-18.7"/><path fill="#333" d="M232.9 287.4c-.6 7.8 5.1 25 4.6 29.4a49 49 0 0 1-6 15.3c-2 3.2-2.7 4.6 0 11.1 2.5 6.5 7.4 16 8.5 18 1 1.9 4.5.8 8-.6 3.4-1.3 8-4.1 5.2-7.4-1.3-1.5-8.8 1-8.8 1s-3.7-11-3-14.7c.6-3.7 10.3-11.8 15.3-19.5s-1.7-30.3-1.7-30.3z"/><path fill-opacity=".6" d="M232.9 287.4c-.6 7.8 5.1 25 4.6 29.4a49 49 0 0 1-6 15.3c-2 3.2-2.7 4.6 0 11.1 2.5 6.5 7.4 16 8.5 18 1 1.9 4.5.8 8-.6 3.4-1.3 8-4.1 5.2-7.4-1.3-1.5-8.8 1-8.8 1s-3.7-11-3-14.7c.6-3.7 10.3-11.8 15.3-19.5s-1.7-30.3-1.7-30.3z"/><path fill="#333" d="m292.8 232.1-.6-2c1.2 4.4-3.3 16.6-11.6 26s-4.7 16.6-2.5 26.6c-1.3-6.8-.9-9 1-14.7 4.1-11.4 17.1-11.9 13.8-35.9"/><path fill="#333" d="M321.7 214.5c-5.4-3.1-9-1.2-13.5 3.5q-5 5.4-11.1 9.4c-.6-4.2-1.5-8.1-1.6-10-.3-3.8 0-7.8 2.4-10.7 2.5-3 3.6-4.6 6.6-6.9q1.6-1 3-2.6c1-1 2.6-3.4 1.8-4.8a8 8 0 0 1-5.5 1.8q-1.2 0-2.2-.9l-.2-.2q0-.3.3-.3l1.5-.4q2.4-.3 4.3-1.7 1.5-1.1 2-2.8c.2-.9 0-1 0-1.9l-.6-2c-.7-1.8-2.2-2.3-3.9-3-3.7-1.9-5 .2-10.4.7-4 .5-13.3-4.1-20.5.4-7.8 5-8.3 13-9.8 21q-.5 2.6-1.4 5.1c-2.3 5.2-5 6.3-8.3 17-4.9 15.9-3.7 24.4-12.3 36.3a44 44 0 0 0-9.8 25c0 10 1.8 12.6 9.9 19.6 5.9 5 8.7 6 14.4 14 1.9 2.5 2 12.8.6 17.4s-2.6 7-1.2 10.5c1.4 3.6 7.9 18.7 10.3 22.4 2.3 3.7 5 2.8 12.9.4 7.7-2.3 4-7.2 1.2-6.9a63 63 0 0 0-7 1.4S268 352 268 348.8c0-3.3 6.7-17 12-24 5.4-7.3 3.3-18.7 0-33.2s-3.4-16-.8-23.5c2.5-7.2 8.6-10 12-17.2 4-1.8 8-3.5 9.4-5.7 3.2-4.3 9.6-15 12.3-18.7 3.6-5 6.2-7.8 10-6.4 3.5 1.3 4 .4 4 .4.4-2-2-4.2-5.2-6"/><path fill-opacity=".4" d="M321.7 214.5c-5.4-3.1-9-1.2-13.5 3.5q-5 5.4-11.1 9.4c-.6-4.2-1.5-8.1-1.6-10-.3-3.8 0-7.8 2.4-10.7 2.5-3 3.6-4.6 6.6-6.9q1.6-1 3-2.6c1-1 2.6-3.4 1.8-4.8a8 8 0 0 1-5.5 1.8q-1.2 0-2.2-.9l-.2-.2q0-.3.3-.3l1.5-.4q2.4-.3 4.3-1.7 1.5-1.1 2-2.8c.2-.9 0-1 0-1.9l-.6-2c-.7-1.8-2.2-2.3-3.9-3-3.7-1.9-5 .2-10.4.7-4 .5-13.3-4.1-20.5.4-7.8 5-8.3 13-9.8 21q-.5 2.6-1.4 5.1c-2.3 5.2-5 6.3-8.3 17-4.9 15.9-3.7 24.4-12.3 36.3a44 44 0 0 0-9.8 25c0 10 1.8 12.6 9.9 19.6 5.9 5 8.7 6 14.4 14 1.9 2.5 2 12.8.6 17.4s-2.6 7-1.2 10.5c1.4 3.6 7.9 18.7 10.3 22.4 2.3 3.7 5 2.8 12.9.4 7.7-2.3 4-7.2 1.2-6.9a63 63 0 0 0-7 1.4S268 352 268 348.8c0-3.3 6.7-17 12-24 5.4-7.3 3.3-18.7 0-33.2s-3.4-16-.8-23.5c2.5-7.2 8.6-10 12-17.2 4-1.8 8-3.5 9.4-5.7 3.2-4.3 9.6-15 12.3-18.7 3.6-5 6.2-7.8 10-6.4 3.5 1.3 4 .4 4 .4.4-2-2-4.2-5.2-6"/><path fill="#FAFAFA" d="M279.2 268a22 22 0 0 0-1.1 14.7c-2.1-9.6-5.6-16.6 1.8-25.6 2.4-2.5 6.9-4.4 11.1-6.2-3.3 7-9.3 10-11.8 17"/><path fill="#232323" d="M236.4 287.3c-2.7 3.3-6.4 3.8-16.3 9.9-9 5.6-11.3 16.7-7.3 23.8 3.4 6 7.2 10.7 7.8 15 1 6.8-2.4 9.7-2.4 9.7s6.6-2.3 7.8-7.2c0 0 1.3 6-4.1 12 0 0 12.6 2.9 15.2-10.5 2-10.3-1-16.2-7.4-21.9-4.9-4.3-7-11.6.3-17.3 8.6-6.7 9.5-10.2 9.5-10.2s.6-3.2-3.1-3.3"/><path fill="#F28F8F" d="M308.3 190q2.3 0 4.2 1.8c.8.7 3.4 5.4 1.9 7-1.5 1.7-5.4.6-6.1-3 0 0-5.8.7-7.7-1.5s.8-3.3 3.4-3.6z"/><path fill="#874C4C" d="M309.4 192.4s-2.3 2-1.8 3.4h.7q.2 1.5 1.3 2.5t2.7 1c2-.2 1-1.9.4-3.7-.6-2-2.3-3.6-3.3-3.2"/><path fill="#FAFAFA" d="M309.4 192.4c.8 1.4-1 3.8-1.8 4.8l-3 2.6c-3 2.2-4.2 4-6.6 6.9-2.6 2.7-2.7 6.7-2.6 10.6.2 2 1 6 1.6 10q-.4.4-1 .6a78 78 0 0 0-5.1-12.5c-2-4-3.8-7.4-1.5-13.5 1.6-4.2 1.2-7 8.3-9.5 6.3-2.2 3.3-6.2 1.4-7.4-2-1.1-3.3-2.7-2.5-3.7 3.1-1 5.5-1.8 8-.5 1.7.8 3.4 1.4 4.2 3.2l.5 2c0 .9.2 1 0 1.9q-.5 1.6-1.9 2.7a10 10 0 0 1-4.3 1.8l-1.5.4q-.2 0-.3.2t.2.3q1 .7 2.2.7 3.1.3 5.6-1.6"/><path fill="#232323" d="m304.1 182.1-.7-.6-1.1-.3q-.5-.1-.6-.7 0-.3.4-.4.8-.5 1.8-.7 1.1 0 2.3.5c2 .9 2.8 1.4 3.3 2.1s-.3 3-.3 3l-.3-1c-.5-1.2-2.1-1.1-3.2-1.3q-1 0-1.6-.6"/><path fill-opacity=".1" d="M295.5 217.3c-.2-3.8 0-7.7 2.5-10.6 2.5-3 3.5-4.6 6.5-6.9l1.2-.9c-5.2 3.6-9.4 1.8-12.2 4.2-2.9 2.5-1 8.5 1 11.4q.7 1.5 1 2.8"/><path fill="#757575" d="M282.8 192.6a32 32 0 0 1 8.9-6.5c2.4-1 6.6 4.6 6.6 9.2s-3.2 13.3-6.7 13c-3.5-.1-7-13.2-8.7-11.7-1.6 1.6-2.3-1-.1-4"/><path fill="#FFC089" fill-rule="evenodd" d="m234.6 433.2 82.2-47.5v-69.1l-82.2 47.5z"/><path fill="#242424" fill-opacity=".6" fill-rule="evenodd" d="m234.6 433.2 82.2-47.5v-69.1l-82.2 47.5z"/><path fill="#FFC089" fill-opacity=".1" fill-rule="evenodd" d="m234.6 364.1 14.9 30.2 67.3-38.9v-38.8z"/><path fill="#FFC089" fill-rule="evenodd" d="m234.6 433.2-82.3-47.5v-69.1l82.3 47.5z"/><path fill="#242424" fill-opacity=".4" fill-rule="evenodd" d="m234.6 433.2-82.3-47.5v-69.1l82.3 47.5z"/><path fill="#FFC089" fill-opacity=".1" fill-rule="evenodd" d="m234.6 364.1-15 30.2-67.2-38.9v-38.8z"/><path fill="#FFC089" fill-opacity=".1" d="M157.9 370.4v8.1a9 9 0 0 0 4 7l18.2 10.4c2.2 1.3 4 .3 4-2.3v-8a9 9 0 0 0-4-7l-18.2-10.5c-2.2-1.2-4-.2-4 2.3"/><path fill="#FFC089" fill-rule="evenodd" d="m152.3 316.6-18.7 23.7 82.3 47.5 18.7-23.7z"/><path fill="#242424" fill-opacity=".6" fill-rule="evenodd" d="m152.3 316.6-18.7 23.7 82.3 47.5 18.7-23.7z"/><path fill="#FFC089" fill-rule="evenodd" d="m316.8 316.6 18.7 23.7-82.3 47.5-18.6-23.7z"/><path fill="#242424" fill-opacity=".4" fill-rule="evenodd" d="m316.8 316.6 18.7 23.7-82.3 47.5-18.6-23.7z"/><path fill="#F0F0F0" d="M195.1 320.7c1.7 5 9.9 7.3 15.4 17q3.5 6.5 2.3 13.8l-48.1-27.8-3.3-7.3z"/><path fill="#F0F0F0" d="M146.5 332.4a17 17 0 0 1 3.3-7.9q4.5-6 11.6-8.2l11.2 7c-12-.4-16 5.9-17.2 9.4-.7 2.4-1.4 4.3-2.8 4.3q-1.2 0-1.5-1.3a1.4 1.4 0 0 1-2.5-.8q-.8.4-1.5-.2-.7-1-.6-2.3"/><path fill="#E0E0E0" d="M147.1 334.6a1 1 0 0 0 1.2-.6q.2-.8.7-1.5-.4 1.2-.4 2.4-.8.4-1.5-.3m2.4 1.5q.9-.2 1.2-1.2 0-.8.6-1.4-.3 1-.2 2.2-.7.6-1.6.4"/><path fill="#F0F0F0" d="M167.9 342.3q.8-4.6 3.4-8.3 3.7-5.6 9.6-8.6v-3s14 2.9 14.2 12c-12.2-1-16.7 5-18 8.6-1 2.5-1.7 4.3-3.2 4.2q-1.2 0-1.4-1.3a1.5 1.5 0 0 1-2.5-1q-1 .4-1.6-.3-.6-1-.4-2.3"/><path fill="#E0E0E0" d="M168.4 344.5a1 1 0 0 0 1.2-.5l.8-1.6q-.4 1.3-.4 2.5-1 .4-1.6-.4m2.4 1.7q1-.1 1.3-1.1 0-.8.7-1.5-.4 1.1-.4 2.3-.7.6-1.6.3m-9.3-29.9-2.2.8q5.8 5.9 13.7 8.5c5.2 1.8 13 2.8 20 .3a10 10 0 0 0 3.8-2.5 8 8 0 0 1-1.5-2.2m-18.2-28.9c-1.8-4.4-8.3-9.5-13.4-7.4-2.8 1.1-.8 11.7-.8 11.7s9.5 0 14.2-4.3"/><path fill="#FFA8A7" d="M172.9 294.8a31 31 0 0 1-10 1.8s-2-10.6.8-11.7c1.9-.5 6.7 2 9.2 9.9"/><path fill="#F28F8F" d="M166.5 291.4q.1-1.5-.7-2.8c1.8-.1 4.2 1.5 4.6 4.4 0 0-2.6 4.8-6.4 2.8q-.6-1-1.5-2l-.2-2.3q2-.6 4.2-.2"/><path fill="#E0E0E0" d="M190 296.1c3.9-2.6 12.2-3.2 15.2 1.4 1.7 2.5-7.2 11.1-7.2 11.1s-6.6-6.3-8-12.5"/><path fill="#FFA8A7" d="M192 300.5c2.9 4.2 6 8.1 6 8.1s8.9-8.6 7.2-11.1c-1.3-1.5-6.7-2-13.2 3"/><path fill="#F28F8F" d="m197.6 306.5 1.5-.8 1.8-2q-1.5-1.4-3.4-2.3.6-1.2 2-1.9c-1.4-1-4.5-.8-6 1.3q0 1.7.7 3.2.9 1.2 1.8 2 .7.5 1.6.6"/><path fill="#F5F5F5" d="M173.5 323.8a28 28 0 0 0 17.9.2c7.3-2.7 7.7-13.3 6-18.1s-5.5-9.8-14-12.6c-8.3-2.8-14.2-1.1-18.5 1.7s-10.3 11.4-6 18.1c3.6 5.5 10 9.1 14.6 10.7"/><path fill="#E0E0E0" d="M173.5 322.7c-9.3-3.2-8.8-9-6.4-11.3s6.3-3 10.7-1.6c4.5 1.5 7.2 4.4 7.7 7.7.5 3.4-2.6 8.3-12 5.2"/><path fill="#455A64" d="m176.2 314.8 2.2-.3q.3 0 .2-.4l-.3-.3-1.9.3-1.4-1.4h-.5q-.3.3 0 .5z"/><path fill="#455A64" d="M177.8 319.5q.5 0 1-.3 1-.5 1.3-1.5 0-.3-.2-.4l-.4.2a2 2 0 0 1-1 1.1q-.7.4-1.4.2-.8-.3-1-1a2 2 0 0 1-.1-1.5l.5-1.9-.1-.4q-.3 0-.4.2l-.6 1.8q-.3 1 0 2a2.4 2.4 0 0 0 2.4 1.4"/><path fill="#455A64" d="M173.7 318.1q.5 0 1-.3.9-.4 1.3-1.5l.6-1.8a.3.3 0 0 0-.2-.4q-.3 0-.4.3l-.6 1.7a2 2 0 0 1-1 1.2q-.7.3-1.4.1a2 2 0 0 1-1.2-2.5l-.1-.4q-.4 0-.4.2c-.5 1.4.2 2.8 1.5 3.3zm-6.5-13.1a2.2 2.2 0 1 0 2.7-1.5 2 2 0 0 0-2.7 1.5m22 7.4a2.2 2.2 0 1 1-1.3-2.8 2.2 2.2 0 0 1 1.3 2.9m6 3.3.3-.1c2-2.5 5.3-3.5 8.4-2.5l.5-.3a.4.4 0 0 0-.2-.6c-4.4-1.5-7.5.7-9.4 2.7v.7zm1 1.2h.2a7 7 0 0 1 5.7-.6.4.4 0 0 0 .6-.3q0-.4-.3-.6a8 8 0 0 0-6.5.6q-.3.3-.1.7zm7 3.7.3-.1q.2-.4 0-.7a9 9 0 0 0-8.3-2q-.4.2-.3.7l.5.3q4.2-1 7.5 1.7 0 .2.3.1m-41.9-16.1q.3-.1.4-.5c-.3-2.8-1.5-6.4-5.8-7.9a.5.5 0 0 0-.3 1c3 1 5 3.8 5.2 7a.4.4 0 0 0 .5.4m-1.5.3q.5-.1.3-.6a8 8 0 0 0-4.7-4.4.5.5 0 1 0-.2 1 7 7 0 0 1 4.2 3.7q0 .3.4.3m-.6 2h.3q.3-.3.1-.7a9 9 0 0 0-7.8-3.5q-.3.1-.4.5a.4.4 0 0 0 .5.5c2.7-.2 5.3 1 7 3q0 .3.3.2"/><path fill="#F5F5F5" d="M170.8 292.6c-.4-1.9-2.2-4.2-4-4.2q.8 1.3.5 2.8s-4.5-1.2-6 .9q2.4.8 3.2 3.3c3.5 2.3 6.3-2.8 6.3-2.8m23.2 8.1c1.5-1.2 4-1.5 5.4-.4q-1.4.6-2 1.9s4.2 1.8 4.1 4.5a4 4 0 0 0-4 .8c-4.4-.6-3.5-6.8-3.5-6.8"/><path fill="#F0F0F0" d="M249.2 335.9a1.4 1.4 0 0 1-2.7-.4c.5-3.9-1-6.9-4-8a8 8 0 0 0-9.5 3c-1.7 2.3-1.6 5.1-1.4 8.3.2 4 .4 8.5-3.2 13q-3.1 3.3-7.7 4.3l-3.8-2.2c3.5-.3 7.3-1.5 9.4-4 3-3.5 2.7-7.1 2.5-11-.2-3.4-.3-6.9 2-10a11 11 0 0 1 12.7-4c3.3 1.3 6.5 4.9 5.7 11"/><path fill="#D5D5D5" fill-rule="evenodd" d="M248.6 406.7q.6-.8 1.5-1.4l1-.5q.6-.2.8.3l.5 1.7.7 2 .6 2 .5 1.9-.4.6-1.3 1h-.3l-.2-.3-.2-.4-.3-1-2.3 1.5-.3 2.3-.8.8q-.5.4-1 .3-.3 0-.4-.6v-.5l.1-.6.2-1.3.3-1.6.4-1.9.3-1.8.3-1.5zm1.5 1.2-.3 1.8-.3 2 1.5-1q0-.8-.4-1.5zm8 2.9-.5.3-.6.3-.6.3-.6.2q-.7 0-.7-.8l-.3-7.7.1-.7.4-.5 1.2-1 1-.8 1.8-.9a2 2 0 0 1 1.5.1q.7.3 1 1l.4 2.2q0 1.3-.2 2.5a9 9 0 0 1-2.2 4.1q-.7.8-1.7 1.4m-.8-2 .3-.1.4-.2q.8-.7 1.4-1.6l.4-1.2v-1.4q0-1.5-.6-2-.5-.3-1.4.2l-.4.3-.4.3zm12.4-9.8a8 8 0 0 1-1.8 5.2q-.6.8-1.4 1.2-.6.5-1.3.6-.6 0-1.1-.2t-.7-1q-.4-.7-.4-1.5a7 7 0 0 1 .8-3.8l1-1.5 1.4-1.2 1.4-.5 1 .2q.5.2.8.9t.3 1.6m-4.5 2.8q0 .8.4 1.4.3.3.8 0 .6-.5.8-1.1.3-.9.3-1.7t-.4-1.4q-.3-.3-.8 0-.6.5-.8 1.1-.3.9-.3 1.7m8.1-1.1-.5.4-.6.4-.5.3h-.3l-.3-.3-.1-.6-.3-7.8.1-.7.4-.5 1-1 1.1-.8q1.7-1.1 2.7-.7 1 .3 1 2a6 6 0 0 1-1.7 4.5L274 397l-1 .6zm.4-5.8q.5-.3.8-.8l.3-1.2q0-.6-.4-.8-.3 0-.8.3l-.4.2-.2.2v2.6z"/><path fill="#D5D5D5" d="M280.4 393.3q0 .4.3.4t.5-.2l.4-.2.4-.4.2.3.1.5q0 .7-.3 1.2-.5.8-1.3 1.3-1 .6-1.7.4-.7-.3-.7-1.8l-.3-7 1-.8q.3-.3.8-.3t.4.9v1l1.7-1 .1.3.1.6-.2 1q0 .3-.5.6l-1.1.7zm11-6.9q-.4.8-1 1.2l-.8.3q-.4 0-.4-.3l-.7-2-.4-1.3v6.7l-.5.4-.5.4-.9.3q-.3 0-.3-.6v-8.7l.4-.7q.3-.6 1-.9l1-.4q.5 0 .6.5l.3.8.3.9.3.9.3.8 1-5.6.5-.6.7-.5q.3-.3 1-.4h.3l.1.4.2 1 .2 1.5.2 1.7.2 1.8.1 1.5.1 1.1-1 1-.8.3q-.4 0-.4-.6l-.4-5.6-.4 2z"/><path fill="#D5D5D5" fill-rule="evenodd" d="M299.3 384.2q-.6.4-1.4.6l-1.1-.1q-.6-.3-.8-1-.4-.7-.4-1.7a8 8 0 0 1 .9-3.8 7 7 0 0 1 2.2-2.4l1.2-.5 1 .1q.5.3.6.7.3.6.3 1.3l-.2 1-.6.8-3.2 2.6q.2.5.7.5t1-.4a6 6 0 0 0 1.7-1.7q.2 0 .3.3.3.2.2.5 0 .8-.5 1.5a6 6 0 0 1-1.9 1.7m-.6-6.3-.5.5-.3.5-.2.6-.1.6 2.2-1.9q0-.3-.4-.4-.2-.2-.7 0m6.4-4.4q0-.7.2-1.3t1-1 .8-.2q.5.5.4 1 0 .8-.3 1.4-.3.7-.8 1t-1 .1q-.3-.3-.4-1m.2 5.3q0-.8.2-1.4.3-.7 1-1 .5-.3.8-.1.5.3.4 1t-.3 1.3q-.3.7-.8 1t-1 .1q-.4-.3-.3-1"/><path fill="#D5D5D5" d="M311.9 372a19 19 0 0 1-.7 5.8l-.5 1.4q-.3.6-.9 1a1 1 0 0 1-1-.1 19 19 0 0 0 1-4.9 18 18 0 0 0-.5-4.9 5 5 0 0 0-1-2q0-.4.4-.8l.6-.6q.4-.3.9-.2l.6.7q.5.8.7 1.8z"/><path fill="#B43BFF" fill-rule="evenodd" d="M81.7 113.9a5.7 5.7 0 0 0-7.3-3.3c-2.7 1-3.8 4.8-3.2 7.6-1.3-2.5-4.7-4.7-7.4-3.6a5.6 5.6 0 0 0-3.3 7.3c1.6 4.2 6.4 5 10.7 6.5l4.5 1.7 2.3-4.2c2.3-4 5.3-7.8 3.7-12M315.3 145a5.7 5.7 0 0 0-7.3-3.3c-2.7 1-3.8 4.9-3.2 7.6-1.3-2.5-4.7-4.6-7.4-3.6a6 6 0 0 0-3.3 3.2 6 6 0 0 0 0 4c1.6 4.2 6.4 5 10.7 6.6l4.5 1.6 2.4-4.2c2.2-3.9 5.2-7.7 3.6-11.9m-111.1-25.4q.9-2 .3-4a6 6 0 0 0-3-3.5c-2.6-1.3-6 .5-7.6 2.9 1-2.7.1-6.5-2.5-7.7a6 6 0 0 0-4.5-.2 6 6 0 0 0-2.9 2.8c-2 4 .7 8 2.6 12.1l2 4.3 4.6-1.2c4.3-1 9-1.5 11-5.5m236.4 2.8q.9-2 .3-4a6 6 0 0 0-3-3.5c-2.5-1.3-6 .5-7.5 2.9.8-2.7 0-6.5-2.5-7.8a5.6 5.6 0 0 0-7.5 2.6c-2 4 .7 8 2.6 12.2l2 4.3 4.6-1.2c4.3-1.1 9-1.5 11-5.5"/></g></svg>