<svg xmlns="http://www.w3.org/2000/svg" viewBox="0 0 500 500"><g id="freepik--background-simple--inject-2"><path d="M218,458s80,12.85,142.74-43.37,80-147.62,95.92-221.23S438.75,54.29,376.22,33.3s-89.57,32.39-166.7,49.25-100.59,9.5-154.8,66.28S13,313.27,81.69,381.75,218,458,218,458Z" style="fill:#FFFFFF"></path><path d="M218,458s80,12.85,142.74-43.37,80-147.62,95.92-221.23S438.75,54.29,376.22,33.3s-89.57,32.39-166.7,49.25-100.59,9.5-154.8,66.28S13,313.27,81.69,381.75,218,458,218,458Z" style="fill:#fff;opacity:0.7000000000000001"></path></g><g id="freepik--Floor--inject-2"><ellipse cx="244.07" cy="415.5" rx="194" ry="14.5" style="fill:#263238"></ellipse></g><g id="freepik--Character--inject-2"><path d="M468.11,381s5.84,1.37,8.58,5.83,5.15,10,9.61,10-7.55,2.74-16.13-.35-22.65-5.14-22.65-5.14S456.78,381.67,468.11,381Z" style="fill:#242424;stroke:#263238;stroke-linecap:round;stroke-linejoin:round"></path><path d="M422.46,401.23s12,6.18,21.62,2.4,10-14.07,15.11-18.19,8.92-4.46,8.92-4.46-24.37,3.09-36.38,0a57.43,57.43,0,0,1-22-10.64c-3.09-2.4-5.84-4.12-5.84-4.12s-1,11,4.12,20.94A33.27,33.27,0,0,0,422.46,401.23Z" style="fill:#919191;stroke:#263238;stroke-linecap:round;stroke-linejoin:round"></path><path d="M444.08,403.63c9.61-3.77,10-14.07,15.11-18.19,4.73-3.79,8.3-4.38,8.84-4.45-.84.1-8.39,1-16.93,1.28-4.07,5-7.41,11.62-13.59,15.84-10,6.84-22.27-2.28-22.27-2.28l-.23.28a31.66,31.66,0,0,0,7.45,5.12S434.47,407.41,444.08,403.63Z" style="fill:#FFFFFF;stroke:#263238;stroke-linecap:round;stroke-linejoin:round"></path><path d="M378.52,228.92s11,24.71,11,60.75,20.59,81.35,23.34,91,11.67,20.59,11.67,20.59-23-2.4-36.73-9.61S355.07,379.25,355.07,359s-1.26-78.59-5.38-105.37,6.18-34.66,14.42-33.29S378.52,228.92,378.52,228.92Z" style="fill:#242424;stroke:#263238;stroke-linecap:round;stroke-linejoin:round"></path><path d="M468,381h0Z" style="fill:#FFFFFF;stroke:#263238;stroke-linecap:round;stroke-linejoin:round"></path><path d="M244.66,344.94s1,8.24,10.64,8.24S269,339.1,270.06,336.7,246,342.53,244.66,344.94Z" style="fill:#242424;stroke:#263238;stroke-linecap:round;stroke-linejoin:round"></path><path d="M311.59,109.13s-17.51-3.09-29.18,13.73-15.1,34-10,44.62,1.72,16.13-6.18,18.53-24.71-5.83-35,10.64-3.78,27.46,2.06,35.7-7.21,9.61-15.45,20.94-2.06,52.17,40.85,44.28,45-26.77,47.71-44.28,16.13-31.58,30.89-30.89,27.12-5.49,26.09-21.63-13.39-17.85-12.7-27.46,9.27-18.19,2.75-36.72S326.35,107.07,311.59,109.13Z" style="fill:#263238;stroke:#263238;stroke-linecap:round;stroke-linejoin:round"></path><path d="M332.5,184.41s1.37,18.15,3.08,20.54,9.25,6.17,19.86,9.59,16.09,20.54,12.33,39.72-12,42.79-11,47.59,15.06,19.51,11,40S362,359.36,362,359.36s5.82-3.42,9.92-.34,8.22,4.8,13.7,4.11,12,.69,17.8,8.22,8.56,16.09,16.09,20.2,35.61,7.53,35.61,9.24-13.69,10.27-29.44,14.38S376,420,354.76,420.65s-40.4,3.08-61.63,4.45-24,1-41.43-6.85-24-9.93-26.36-22.59,7-22,16.09-30.82c8.37-8.09,39-42.45,42.8-51s6.84-15.41,8.56-20.2-6.51-26.36-10.62-41.09-1.37-24.3-1.37-24.3-18.49-6.85-25.33-16.44-2.06-12.67,9.24-15.41,20.2-2,26.36-2,15.41,3.08,17.12,3.08-1-10.27-1-10.27a38,38,0,0,0,12.66,2.74C326,189.89,332.5,184.41,332.5,184.41Z" style="fill:#FFFFFF;stroke:#263238;stroke-linecap:round;stroke-linejoin:round"></path><path d="M335.58,205c-1.71-2.39-3.08-20.54-3.08-20.54s-6.5,5.48-12.67,5.48a38,38,0,0,1-12.66-2.74s2.73,10.27,1,10.27c-1.15,0-5.74-1.4-10.49-2.31-.34,5.49-1.58,36.45,13.15,40,12.09,2.88,23.32-12.33,30.79-26C338.52,207.53,336.39,206.09,335.58,205Z" style="fill:#b2b2b2;stroke:#263238;stroke-linecap:round;stroke-linejoin:round"></path><path d="M419.46,391.55c-7.53-4.11-10.27-12.67-16.09-20.2s-12.32-8.9-17.8-8.22-9.59-1-13.7-4.11c-3-2.27-7-1-8.84-.19a10.07,10.07,0,0,0,.8-1.62l-9,10.73s4.12,2.4,10.64,1.37,15.79,1,20.59,11.33,3.44,10.29,7.56,14.76,20.25,13,28.14,15.44c7,2.13,10.5,2.1,11.19,2.07,12.44-4.41,22.11-10.68,22.11-12.12C455.07,399.08,427,395.66,419.46,391.55Z" style="fill:#fff;stroke:#263238;stroke-linecap:round;stroke-linejoin:round"></path><path d="M251.32,393.29a46.24,46.24,0,0,1,6.79-11.57c10.11-12.65,49.13-37.57,64.3-48.77" style="fill:none;stroke:#263238;stroke-linecap:round;stroke-linejoin:round"></path><path d="M248.36,407a31.55,31.55,0,0,1,.88-7.07" style="fill:none;stroke:#263238;stroke-linecap:round;stroke-linejoin:round"></path><path d="M331.73,324.77c1.71-.23,3.43-.4,5.13-.49" style="fill:none;stroke:#263238;stroke-linecap:round;stroke-linejoin:round"></path><path d="M293.87,338a132,132,0,0,1,29.59-11.64" style="fill:none;stroke:#263238;stroke-linecap:round;stroke-linejoin:round"></path><path d="M362,359.36s-26.33,36-55.85,46.33" style="fill:none;stroke:#263238;stroke-linecap:round;stroke-linejoin:round"></path><path d="M329.66,392s-6.4,10.23-14.64,16.07" style="fill:none;stroke:#263238;stroke-linecap:round;stroke-linejoin:round"></path><path d="M344.78,406.5c14.56-2.69,39.42-8.34,57.08-18" style="fill:none;stroke:#263238;stroke-linecap:round;stroke-linejoin:round"></path><path d="M332.87,408.44s2.05-.27,5.53-.83" style="fill:none;stroke:#263238;stroke-linecap:round;stroke-linejoin:round"></path><path d="M361,216.22s-8.93,6.18-20.25,19.91S313,303.06,302.32,320.91s-36.73,23.34-45,23.68-12.7.35-12.7.35,25-16.48,34.32-30.89,14.42-46.69,28.15-67.62,30.2-40.85,30.2-40.85S352.78,210,361,216.22Z" style="fill:#919191;stroke:#263238;stroke-linecap:round;stroke-linejoin:round"></path><path d="M340.48,206.57c-1.93-.64-3.15-1-3.15-1s-16.47,19.91-30.2,40.85-18.88,53.2-28.15,67.62a59.67,59.67,0,0,1-7.32,8.93c9.27-4.48,13.63-11.61,18-21.75,5.46-12.6,21.13-50.82,30.84-66.24C327.69,223.6,336.41,211.91,340.48,206.57Z" style="fill:#FFFFFF;stroke:#263238;stroke-linecap:round;stroke-linejoin:round"></path><path d="M302.32,320.91c10.64-17.85,27.12-71.05,38.45-84.78S361,216.22,361,216.22a40.56,40.56,0,0,0-4.26-2.74A64.85,64.85,0,0,0,331.94,239c-13.13,24-26.27,73.1-46.82,88-14.18,10.24-26.19,12.06-32.27,12.2-4.78,3.56-8.19,5.81-8.19,5.81s4.46,0,12.7-.35S291.68,338.76,302.32,320.91Z" style="fill:#FFFFFF;stroke:#263238;stroke-linecap:round;stroke-linejoin:round"></path><path d="M335.58,157.71s1.37-8.22,5.14-6.85,2.39,8.22,1.37,11.64a8.22,8.22,0,0,1-4.45,4.79Z" style="fill:#b2b2b2;stroke:#263238;stroke-linecap:round;stroke-linejoin:round"></path><path d="M292.77,168.05s-5.91-5.87-8.17-2.56,2.85,8.07,5.69,10.25A8.19,8.19,0,0,0,296.7,177Z" style="fill:#b2b2b2;stroke:#263238;stroke-linecap:round;stroke-linejoin:round"></path><path d="M308.88,130.66s-9.93,20.88-20.55,30.81c0,0,6.85,17.12,10.62,24.31s17.12,12.67,24,12.67,13.7-11.3,15.41-17.12-3.42-37-3.42-37S313.67,137.51,308.88,130.66Z" style="fill:#b2b2b2;stroke:#263238;stroke-linecap:round;stroke-linejoin:round"></path><path d="M322.66,161.76a4.73,4.73,0,0,1-.36-4,6.4,6.4,0,0,1,2.48-3.3,6.66,6.66,0,0,1,3.85-1.16,7,7,0,0,1,1.93.31,6.42,6.42,0,0,1,1.77,1v.28a17.43,17.43,0,0,0-3.14.51,9.36,9.36,0,0,0-2.85,1.31,8.25,8.25,0,0,0-3.41,5.11Z" style="fill:#263238"></path><path d="M297,163.54a4.75,4.75,0,0,1,2.3-3.33,6.36,6.36,0,0,1,4-1,6.69,6.69,0,0,1,3.71,1.57,6.9,6.9,0,0,1,1.28,1.47,6.33,6.33,0,0,1,.71,1.91l-.17.22a18.25,18.25,0,0,0-2.75-1.63,9.74,9.74,0,0,0-3-.81,8.26,8.26,0,0,0-5.89,1.75Z" style="fill:#263238"></path><path d="M295.87,156.68s.68-6.51,8.56-6.85" style="fill:none;stroke:#263238;stroke-linecap:round;stroke-linejoin:round;stroke-width:2px"></path><path d="M317.44,146.41a12.62,12.62,0,0,1,10.95,1.71" style="fill:none;stroke:#263238;stroke-linecap:round;stroke-linejoin:round;stroke-width:2px"></path><path d="M314.36,173.46a24.32,24.32,0,0,0,4.79.68c2.05,0,3.42-3.42,3.42-3.42" style="fill:none;stroke:#263238;stroke-linecap:round;stroke-linejoin:round"></path><path d="M314.36,178.93s7.53,2.74,11.64-4.11" style="fill:none;stroke:#263238;stroke-linecap:round;stroke-linejoin:round"></path><path d="M312,144.18a1.54,1.54,0,1,1-1.54-1.54A1.54,1.54,0,0,1,312,144.18Z" style="fill:#263238"></path><path d="M336.83,250.76s.87-12.42,6.64-10.4,1.73,15.3,0,18.48S336.54,256,336.83,250.76Z" style="fill:#fff;stroke:#263238;stroke-linecap:round;stroke-linejoin:round"></path><path d="M307.38,207.74A44,44,0,0,1,319.22,223,166.06,166.06,0,0,1,326.15,243s6.93-.87,15.3,8.95,9.09,25.62,4.91,34.65c-7.22,15.59-30.6,12.41-42.15,11.54s-17.61-9.52-22.81-21.65-2.31-37.53-.58-44.46,2-12.41,0-19.34S293.24,198.21,307.38,207.74Z" style="fill:#fff;stroke:#263238;stroke-linecap:round;stroke-linejoin:round"></path><path d="M336.25,255.09s5.2-6.93,7.8-5.49,4.62,9.24,4.62,9.24,1.44-11,6.06-10.68,4,9.81.87,21.65-8.37,9.53-9.24,6.35a45,45,0,0,0-1.73-5.19" style="fill:#fff;stroke:#263238;stroke-linecap:round;stroke-linejoin:round"></path><path d="M281.73,242s3,2.25,15,3.09,20.53-6.41,20.05-2.6c-2,16-28.42,16.46-36.59,5.68C278.64,246.15,278.53,242.07,281.73,242Z" style="fill:#263238;stroke:#263238;stroke-linecap:round;stroke-linejoin:round"></path><path d="M282.31,257.43s3,2.25,15,3.09,20.53-6.41,20.06-2.6c-2,16-28.43,16.46-36.59,5.68C279.22,261.6,279.11,257.52,282.31,257.43Z" style="fill:#263238;stroke:#263238;stroke-linecap:round;stroke-linejoin:round"></path><path d="M286.1,275.43s3.13,2,15.14,2,20-7.88,19.81-4.06c-.83,16.09-27.15,18.5-36.08,8.34C283.32,279.81,282.91,275.75,286.1,275.43Z" style="fill:#263238;stroke:#263238;stroke-linecap:round;stroke-linejoin:round"></path><path d="M300,290.08s3.45,1.41,15.25-.84,18.22-11.43,18.73-7.63c2.14,16-23.29,23.18-33.93,14.84C298.07,294.9,296.92,291,300,290.08Z" style="fill:#263238;stroke:#263238;stroke-linecap:round;stroke-linejoin:round"></path><path d="M359.21,247.07l1,46.9s-28.76,2.74-38,1.37-13-3.08-13-3.08a82,82,0,0,1-5.14-8.9c-1.71-3.77-3.08-3.77-5.82-7.19s-4.45-5.82-4.45-2.06,2.06,4.8,2.74,6.17a11.93,11.93,0,0,1,.69,4.1s-8.22-2.05-10.62-3.08-4.45-2.39-4.79-.68,0,2.74,1.37,5.82,0,8.56,1.37,11.3,6.5,6.5,8.9,7.53,13.7.34,17.46.68,23.63,4.11,35.95,6.51,25.68,4.11,29.45,2.05,5.82-3.42,6.5-6.84,1.71-38.35,1.71-47.94-.34-22.59-3.08-28.76a24.58,24.58,0,0,0-16.09-13c-6.51-1.37-4.35-1.74-4.35-1.74" style="fill:#b2b2b2;stroke:#263238;stroke-linecap:round;stroke-linejoin:round"></path><path d="M357,241.74l2.67,26.07c4.24-1.8,13.8-5.25,23.55-4.52l1.3.12c0-1.45,0-2.7,0-3.68,0-9.58-.34-22.59-3.08-28.76a24.58,24.58,0,0,0-16.09-13c-1-.2-4-.27-4.63-.43" style="fill:#FFFFFF;stroke:#263238;stroke-linecap:round;stroke-linejoin:round"></path><path d="M316.07,313.63a2.89,2.89,0,0,1-2.89-2.83l-.34-18.14a2.89,2.89,0,1,1,5.77-.11l.34,18.14a2.88,2.88,0,0,1-2.83,2.94Z" style="fill:#fff;stroke:#263238;stroke-linecap:round;stroke-linejoin:round"></path><path d="M260.6,197.76s-25.68,3.09-27.39,9.93,7.53,19.86,27.39,26,50.67,11,54.44,12,3.08,7.19,3.08,7.19l-1,14.38s-4.79,14-3.76,14.38,2.39-1,4.11-5.14a67.23,67.23,0,0,1,5.47-9.59s2.06-.68,2.06,2.4-2.74,15.75-2.74,15.75,1.71,2.4,2.74-.34,5.82-14,5.82-14v14.72s1.37,1,2.4.69S335.92,268,335.92,268a15,15,0,0,0,1.72,2.05c1,1,2.39,14.73,2.39,14.73s1.72,1,2.4-.69-1-15.06-1.37-18.83-8.22-19.51-10.27-23.28-7.53-7.19-13.35-8.9c-3.62-1.06-39-18.15-54.44-28.42" style="fill:#b2b2b2;stroke:#263238;stroke-linecap:round;stroke-linejoin:round"></path><path d="M314.36,251.32h-.29a2.9,2.9,0,0,1-2.59-3.16c1.29-13.24,9.2-16.47,13.26-16.29a2.89,2.89,0,0,1-.18,5.77c-.68,0-6.29.36-7.33,11.09A2.88,2.88,0,0,1,314.36,251.32Z" style="fill:#fff;stroke:#263238;stroke-linecap:round;stroke-linejoin:round"></path><path d="M288.68,219.68c-6.17,0-19.52-1-22.26-5.14s1-9.59,1-9.59-3.77-6.84-2.4-10.61,13.36-1,13.36-1l14-4.45S299,183,302.71,183s2.06,9.25,2.06,9.25,6.5,1.37,8.22,7.53-3.43,10.61-5.82,13-4.11,2.74-4.11,2.74" style="fill:#fff;stroke:#263238;stroke-linecap:round;stroke-linejoin:round"></path><path d="M294,208.37s-4.48.75-4.11,1.87,2.24,1.87,4.11,1.12S296.1,208,294,208.37Z" style="fill:#fff;stroke:#263238;stroke-linecap:round;stroke-linejoin:round"></path><path d="M287.47,206.06c.27,1.21-.05,2.3-.7,2.45s-1.4-.72-1.67-1.93,0-2.31.7-2.45S287.21,204.85,287.47,206.06Z" style="fill:#263238"></path><path d="M297.29,203.63c.26,1.21-.05,2.3-.71,2.45s-1.4-.72-1.67-1.93,0-2.31.71-2.45S297,202.42,297.29,203.63Z" style="fill:#263238"></path><path d="M293.5,212.26a2.53,2.53,0,0,1-.43,2.69c-1.13,1.13-3.54.71-4-.85" style="fill:none;stroke:#263238;stroke-linecap:round;stroke-linejoin:round"></path><path d="M293.92,214.1s1.13,1.28,3.12,0a1.86,1.86,0,0,0,.42-3" style="fill:none;stroke:#263238;stroke-linecap:round;stroke-linejoin:round"></path><path d="M292.65,191.16s-11,2.55-12.18,5.1,12.18-1.42,13.88-3S294.49,190.6,292.65,191.16Z" style="fill:#263238;stroke:#263238;stroke-linecap:round;stroke-linejoin:round"></path><path d="M290.81,197.11s-7.23,2.55-6.38,3.26,7.51-1,8.92-2.13S293.35,196.26,290.81,197.11Z" style="fill:#263238;stroke:#263238;stroke-linecap:round;stroke-linejoin:round"></path><path d="M265.46,210.56s11.19-7.08,10.48-3.68-8.21,8.78-8.21,8.78A4.39,4.39,0,0,1,265.46,210.56Z" style="fill:#263238;stroke:#263238;stroke-linecap:round;stroke-linejoin:round"></path><path d="M273.39,218.07s6.8-8.22,6.37-4.39-2,4.95-2,4.95S273.81,218.07,273.39,218.07Z" style="fill:#263238;stroke:#263238;stroke-linecap:round;stroke-linejoin:round"></path><path d="M310.91,196.4s-7.5,1.56-6.94,3,9.07,3,9.07,3S313.46,198.38,310.91,196.4Z" style="fill:#263238;stroke:#263238;stroke-linecap:round;stroke-linejoin:round"></path><path d="M310.77,209s-7.65-2.69-7.08-.7,4.25,3.82,4.25,3.82S309.78,210.14,310.77,209Z" style="fill:#263238;stroke:#263238;stroke-linecap:round;stroke-linejoin:round"></path><path d="M265.05,194.34s4.45,1,6.51,3.08,2.74,2.74,0,5.48-4.11,2-4.11,2S264.71,199.48,265.05,194.34Z" style="fill:#fff;stroke:#263238;stroke-linecap:round;stroke-linejoin:round"></path><path d="M302.71,183s-3.76,7.88-2,9.93,4.11-.68,4.11-.68S307.17,182.7,302.71,183Z" style="fill:#fff;stroke:#263238;stroke-linecap:round;stroke-linejoin:round"></path><path d="M288.91,216.93s-5.62-.75-7.5,1.5,0,3.75,5.25,4.12S295.2,219.34,288.91,216.93Z" style="fill:#fff;stroke:#263238;stroke-linecap:round;stroke-linejoin:round"></path><path d="M312.16,215.43s-9-2.63-13.87.37-9.75,11.25-4.5,14.62,6.75-6.74,6.75-6.74,9,11.24,17.24,4.87" style="fill:#fff;stroke:#263238;stroke-linecap:round;stroke-linejoin:round"></path><path d="M390.82,243c-10.1-2.6-21.36,8.95-24.25,18.77s-4.62,23.67-11.84,28A15.47,15.47,0,0,1,343,291.56a19.41,19.41,0,0,1-4.29,3.32c6.12,1.7,17.66,3.48,25-4.28,10.4-11,8.09-26,16.46-33.2s13.57,6.35,18.76,1.73S400.93,245.56,390.82,243Z" style="fill:#fff;stroke:#263238;stroke-linecap:round;stroke-linejoin:round"></path><path d="M367.16,286.11l-6.39-4.3a23.12,23.12,0,0,1-2.73,4.84c1.29,1.84,2.91,4,4,5.42a16.78,16.78,0,0,0,1.59-1.47A29.31,29.31,0,0,0,367.16,286.11Z" style="fill:#263238;stroke:#263238;stroke-linecap:round;stroke-linejoin:round"></path><path d="M390.82,243a11.31,11.31,0,0,0-1.89-.32c-3.78,4-4.72,9.35-4.91,12.72,6.2-1.21,10.54,7.63,14.88,3.77C404.1,254.51,400.93,245.56,390.82,243Z" style="fill:#263238;stroke:#263238;stroke-linecap:round;stroke-linejoin:round"></path><path d="M351.65,291.17a15.28,15.28,0,0,1-3.31.74,37.58,37.58,0,0,0,1.24,4.33l0,.09a23.93,23.93,0,0,0,5.6-.79A28.54,28.54,0,0,0,351.65,291.17Z" style="fill:#263238;stroke:#263238;stroke-linecap:round;stroke-linejoin:round"></path><path d="M365.13,267.15c-.49,2-1,4-1.5,6l7.67,3.9c.9-2.7,1.62-5.38,2.4-7.91Z" style="fill:#263238;stroke:#263238;stroke-linecap:round;stroke-linejoin:round"></path><path d="M369.84,254.77l6.63,7.3a16.93,16.93,0,0,1,2.85-3.9l-5.61-8.32A33.63,33.63,0,0,0,369.84,254.77Z" style="fill:#263238;stroke:#263238;stroke-linecap:round;stroke-linejoin:round"></path><path d="M361,216.73l0-.51S360.29,216.35,361,216.73Z" style="fill:#fff;stroke:#263238;stroke-linecap:round;stroke-linejoin:round"></path></g><g id="freepik--Box--inject-2"><path d="M98,327.62s-5.39-1.9-10.15-14.91-15.86-16.17-27-12.37-8.56,15.86-5.07,17.13,6.34-5.07,13.64-8.56,11.1,4.44,13,10.15S92,331.11,96.1,331.11,99,330.8,98,327.62Z" style="fill:#263238;stroke:#263238;stroke-linecap:round;stroke-linejoin:round"></path><path d="M101.81,332.7s1-12.05,10.78-18.72,26.33,1,29.5,7a35,35,0,0,1,3.49,13Z" style="fill:#263238;stroke:#263238;stroke-linecap:round;stroke-linejoin:round"></path><path d="M120.93,319.57s-5.48,4.22-5.9,10.12,16.45,6.75,21.93,4.64,4.21-13.49-3-19S120.93,319.57,120.93,319.57Z" style="fill:#fff;stroke:#263238;stroke-linecap:round;stroke-linejoin:round"></path><path d="M211.57,315.25c-3.81-2.54-12.06.32-12.06.32s2.22-4.44,2.22-7.93-9.83-7-9.83-7A20.33,20.33,0,0,0,176,295.27s.63-12.37-.64-12.06-7.93,4.44-14.59,14.91,1.37,18.78,3.28,24.17c0,.16.11.3.16.45-1.55,2.4-3.78,5.78-5.17,7.64-1.74,2.32,13.2,1.14,20.62.42h26.47a9.8,9.8,0,0,0,.64-3.18,41.7,41.7,0,0,0-.64-5.07,5.29,5.29,0,0,0,6.67,2.85C217.59,323.82,215.37,317.79,211.57,315.25Z" style="fill:#fff;stroke:#263238;stroke-linecap:round;stroke-linejoin:round"></path><path d="M199.51,315.57a17.65,17.65,0,0,0-6.94,13.27" style="fill:none;stroke:#263238;stroke-linecap:round;stroke-linejoin:round"></path><path d="M182.7,303.52a57.89,57.89,0,0,1,6.86-9.16c1.47-1.48,6.24-6.11,8.75-4.88,1.56.77.31,3.58-.07,4.84-1.9,6.34-1.9,15.86-5.39,18.71s-9.83-.32-9.83-.32" style="fill:#fff;stroke:#263238;stroke-linecap:round;stroke-linejoin:round"></path><path d="M176,295.27s-8.25.31-12.69,6.34" style="fill:none;stroke:#263238;stroke-linecap:round;stroke-linejoin:round"></path><rect x="91.02" y="327.62" width="117.06" height="95.48" style="fill:#b9b9b9;stroke:#263238;stroke-linecap:round;stroke-linejoin:round"></rect><polygon points="75.16 327.62 67.86 348.24 80.55 348.24 75.16 327.62" style="fill:#4b4b4b;stroke:#263238;stroke-linecap:round;stroke-linejoin:round"></polygon><polygon points="91.02 327.62 75.16 327.62 75.16 410.1 91.02 423.11 91.02 327.62" style="fill:#737373;stroke:#263238;stroke-linecap:round;stroke-linejoin:round"></polygon><polygon points="91.02 327.62 101.17 359.35 216.32 359.35 208.08 327.62 91.02 327.62" style="fill:#b9b9b9;stroke:#263238;stroke-linecap:round;stroke-linejoin:round"></polygon><path d="M126.55,291.46s12.37-7,13.64-4.12-6,11.1-6,11.1Z" style="fill:#263238;stroke:#263238;stroke-linecap:round;stroke-linejoin:round"></path><path d="M128.45,322.23c-13,1.59-17.13-4.44-19.66-5.71s-7.93.32-9.52,0,.63-7.93,5.07-15.23a37.78,37.78,0,0,1,9.52-10.78s7.93-1.59,14,.32,9.2,7.93,13,8.24,3.48,2.86,3.17,6.35-.32,6.34-3.17,9.83a22.36,22.36,0,0,1-7,5.4" style="fill:#fff;stroke:#263238;stroke-linecap:round;stroke-linejoin:round"></path><path d="M113.86,290.51a37.78,37.78,0,0,0-9.52,10.78c-4.44,7.3-6.66,14.91-5.07,15.23s7-1.27,9.52,0c1.94,1,4.84,4.73,11.94,5.73a9,9,0,0,1,.63-4.36c2.1-5.9,11.38-8.43,15.17-13.92S134,294.7,134,294.7l0-.18a18,18,0,0,0-6.16-3.69C121.79,288.92,113.86,290.51,113.86,290.51Z" style="fill:#263238;stroke:#263238;stroke-linecap:round;stroke-linejoin:round"></path><path d="M108.27,297.27s4.62-12.31,12.25-15.37C125,280.09,123.7,295,123.7,295" style="fill:#263238;stroke:#263238;stroke-linecap:round;stroke-linejoin:round"></path><path d="M140.83,299.07s-2.23.64-.64,3.18,3.17,4.75,4.44,1.9S143.05,298.12,140.83,299.07Z" style="fill:#fff;stroke:#263238;stroke-linecap:round;stroke-linejoin:round"></path><path d="M119.82,284.19s-5.64,12.66-1.83,13.62,5.07-3.18,5.71-8.89S122.67,281.33,119.82,284.19Z" style="fill:#fff;stroke:#263238;stroke-linecap:round;stroke-linejoin:round"></path><path d="M133.76,298.85c.78,1,1,2.21.51,2.58s-1.55-.18-2.33-1.23-1-2.21-.51-2.59S133,297.79,133.76,298.85Z" style="fill:#fff"></path><path d="M116.72,323.82l-5.4-6.35s-3.49-2.22-5.71-.31S98,329.84,102.76,334s7.93-6.35,8.88-7.3l1-.95" style="fill:#263238;stroke:#263238;stroke-linecap:round;stroke-linejoin:round"></path><path d="M111.28,327.24a12.9,12.9,0,0,0-8.65-5.34c-1.79,4-2.93,9.42.13,12.07C107,337.67,110,329.62,111.28,327.24Z" style="fill:#fff;stroke:#263238;stroke-linecap:round;stroke-linejoin:round"></path><path d="M140.22,323.45l2.83-6s3.49-2.22,5.71-.31,7.61,12.68,2.85,16.81-7.93-6.35-8.88-7.3l-.95-.95" style="fill:#263238;stroke:#263238;stroke-linecap:round;stroke-linejoin:round"></path><path d="M152.43,323.62c-5.13.79-7.36,3.33-8.28,5.79,1.56,3.15,4.12,7.46,7.46,4.56C154.25,331.68,153.76,327.35,152.43,323.62Z" style="fill:#fff;stroke:#263238;stroke-linecap:round;stroke-linejoin:round"></path></g></svg>