<svg xmlns="http://www.w3.org/2000/svg" viewBox="0 0 500 500"><g id="freepik--background-complete--inject-65"><rect x="416.78" y="398.49" width="33.12" height="0.25" style="fill:#ebebeb"></rect><rect x="322.53" y="401.21" width="8.69" height="0.25" style="fill:#ebebeb"></rect><rect x="396.59" y="389.21" width="19.19" height="0.25" style="fill:#ebebeb"></rect><rect x="52.46" y="390.89" width="43.19" height="0.25" style="fill:#ebebeb"></rect><rect x="104.56" y="390.89" width="6.33" height="0.25" style="fill:#ebebeb"></rect><rect x="131.47" y="395.11" width="93.68" height="0.25" style="fill:#ebebeb"></rect><path d="M237,337.8H43.92a5.71,5.71,0,0,1-5.71-5.71V60.66A5.71,5.71,0,0,1,43.92,55H237a5.71,5.71,0,0,1,5.71,5.71V332.09A5.71,5.71,0,0,1,237,337.8ZM43.92,55.2a5.47,5.47,0,0,0-5.46,5.46V332.09a5.47,5.47,0,0,0,5.46,5.46H237a5.47,5.47,0,0,0,5.46-5.46V60.66A5.47,5.47,0,0,0,237,55.2Z" style="fill:#ebebeb"></path><path d="M453.31,337.8H260.21a5.72,5.72,0,0,1-5.71-5.71V60.66A5.72,5.72,0,0,1,260.21,55h193.1A5.71,5.71,0,0,1,459,60.66V332.09A5.71,5.71,0,0,1,453.31,337.8ZM260.21,55.2a5.47,5.47,0,0,0-5.46,5.46V332.09a5.47,5.47,0,0,0,5.46,5.46h193.1a5.47,5.47,0,0,0,5.46-5.46V60.66a5.47,5.47,0,0,0-5.46-5.46Z" style="fill:#ebebeb"></path><rect y="382.4" width="500" height="0.25" style="fill:#ebebeb"></rect><path d="M119.19,362.76S100,350.68,92.38,349.18c-5.26-1-17,.08-18.5-12.92C73,328.54,79,328.48,84,329.7a4.71,4.71,0,0,0,5.86-4.38c.16-4.06,1.49-8.16,6.65-6.36,9.39,3.3,9,16.56,11.39,21.68,3.8,8.2,26,18.62,26,18.62Z" style="fill:#f0f0f0"></path><path d="M156.37,354.58H82a11.89,11.89,0,0,0-10.1,5.63L63.48,373.8A6.44,6.44,0,0,0,69,383.64H169.42a6.44,6.44,0,0,0,5.48-9.84l-8.43-13.59A11.89,11.89,0,0,0,156.37,354.58Z" style="fill:#e0e0e0"></path><path d="M397.6,189.06a12.54,12.54,0,0,0-10.43-4.1c-7.05.63-17.6.15-18.51-8.19-1.37-12.61,17-10.07,20.53-15.54s10.3-10.12,18.12-6.55,4.5,14,6.12,18.68,10.22,16,2.07,23.15C410.14,201.17,402.33,194.31,397.6,189.06Z" style="fill:#f0f0f0"></path><path d="M386.39,146.74c1.46,4.39.32,11.17-3.46,12.42s-8.76-3.48-10.22-7.87.43-9,4.2-10.22S384.93,142.35,386.39,146.74Z" style="fill:#f0f0f0"></path><path d="M408.86,138.65c-.16,4.9-3.79,11.23-8,11.09s-7.43-6.69-7.27-11.59,3.71-8.76,7.94-8.62S409,133.75,408.86,138.65Z" style="fill:#f0f0f0"></path><path d="M428.59,151.32c-3,3.85-9.72,6.78-13,4.16s-2-9.8,1-13.64,8.19-4.84,11.51-2.22S431.64,147.48,428.59,151.32Z" style="fill:#f0f0f0"></path><path d="M433.8,173.78c-3.88,3-11.07,4.22-13.65.87s.43-10,4.32-13,9.12-2.71,11.7.64S437.69,170.79,433.8,173.78Z" style="fill:#f0f0f0"></path><path d="M166.75,309.83a11.53,11.53,0,0,0-9.4,4.25c-4.11,5.07-11.2,11.73-17.29,7-9.22-7.19,4.25-17.69,2.91-23.55s-.08-13.3,7.3-16.17,12.16,6,16.27,8,17.17,3.55,16.63,13.49C182.81,309.31,173.26,310.07,166.75,309.83Z" style="fill:#f5f5f5"></path><path d="M131.6,290.06c3.83,1.86,7.58,7,6,10.27s-7.93,3.54-11.76,1.69-5.65-6-4.06-9.33S127.76,288.21,131.6,290.06Z" style="fill:#f5f5f5"></path><path d="M140.68,270c3.13,3.25,5,9.72,2.18,12.42s-9.2.61-12.33-2.64-3.41-8.08-.6-10.78S137.54,266.77,140.68,270Z" style="fill:#f5f5f5"></path><path d="M161.72,265.12c.58,4.48-1.77,10.77-5.63,11.28s-7.76-5-8.34-9.45,2.06-8.52,5.92-9S161.13,260.64,161.72,265.12Z" style="fill:#f5f5f5"></path><path d="M179.9,276.09c-.51,4.49-4.32,10-8.19,9.59s-6.32-6.7-5.81-11.19,4.07-7.77,7.93-7.33S180.42,271.6,179.9,276.09Z" style="fill:#f5f5f5"></path><path d="M214.68,108.51a6.86,6.86,0,0,0-5.91,1.76c-2.84,2.68-7.58,6.06-10.8,2.76-4.89-5,3.93-10.15,3.6-13.73s1-7.88,5.62-9,6.73,4.54,9,6,9.89,3.47,8.77,9.32C224.24,109.48,218.52,109.17,214.68,108.51Z" style="fill:#f5f5f5"></path><path d="M195.43,94c2.12,1.41,3.93,4.73,2.72,6.56s-5,1.47-7.1.07-2.87-4-1.66-5.86S193.3,92.58,195.43,94Z" style="fill:#f5f5f5"></path><path d="M202.41,82.83c1.6,2.18,2.18,6.16.3,7.53s-5.49-.37-7.09-2.55-1.37-5.06.5-6.43S200.81,80.65,202.41,82.83Z" style="fill:#f5f5f5"></path><path d="M215.27,81.61c0,2.7-1.91,6.24-4.23,6.23s-4.2-3.56-4.19-6.26,1.9-4.89,4.23-4.88S215.28,78.9,215.27,81.61Z" style="fill:#f5f5f5"></path><path d="M225.17,89.57c-.66,2.61-3.36,5.59-5.62,5s-3.21-4.48-2.55-7.1,3-4.27,5.29-3.7S225.84,87,225.17,89.57Z" style="fill:#f5f5f5"></path><path d="M103,258.24a7.32,7.32,0,0,0-4.4,4.82c-1.12,4-3.58,9.61-8.3,8.37-7.15-1.87-2-11.34-4.19-14.41s-3.37-7.7.2-11.21,8.57.46,11.44.55,10.86-2.22,13,3.69C112.15,253.93,106.79,256.76,103,258.24Z" style="fill:#f5f5f5"></path><path d="M77.59,255.54c2.69.11,6.14,2.15,6,4.47s-3.72,4-6.41,3.92-4.79-2.1-4.69-4.41S74.9,255.42,77.59,255.54Z" style="fill:#f5f5f5"></path><path d="M77.86,241.62c2.64,1.11,5.32,4.41,4.37,6.67S77,251,74.41,249.84s-4-3.85-3-6.11S75.23,240.52,77.86,241.62Z" style="fill:#f5f5f5"></path><path d="M88.86,233.52c1.46,2.46,1.66,6.7-.45,8s-5.75-.95-7.21-3.4-.93-5.47,1.19-6.73S87.4,231.07,88.86,233.52Z" style="fill:#f5f5f5"></path><path d="M102.17,235.36c.82,2.74,0,6.9-2.37,7.61s-5.35-2.31-6.17-5.05.43-5.53,2.78-6.24S101.34,232.62,102.17,235.36Z" style="fill:#f5f5f5"></path><path d="M316.78,128.55a7.27,7.27,0,0,0-6.14-2.2c-4.1.49-10.25.4-10.93-4.43-1-7.32,9.72-6.17,11.68-9.43s5.81-6.07,10.43-4.14,2.87,8.09,3.9,10.77,6.24,9.16,1.62,13.44C324.31,135.38,319.63,131.52,316.78,128.55Z" style="fill:#f5f5f5"></path><path d="M309.49,104.11c.93,2.53.39,6.5-1.79,7.3s-5.16-1.88-6.09-4.4.08-5.23,2.26-6S308.56,101.58,309.49,104.11Z" style="fill:#f5f5f5"></path><path d="M322.43,99c0,2.86-2,6.61-4.47,6.6s-4.44-3.76-4.44-6.62,2-5.17,4.47-5.16S322.44,96.13,322.43,99Z" style="fill:#f5f5f5"></path><path d="M334.15,106c-1.7,2.3-5.54,4.12-7.52,2.66s-1.34-5.67.36-8,4.69-3,6.67-1.51S335.85,103.72,334.15,106Z" style="fill:#f5f5f5"></path><path d="M337.59,119c-2.21,1.81-6.37,2.65-7.93.75s.07-5.82,2.27-7.64,5.27-1.74,6.83.16S339.8,117.18,337.59,119Z" style="fill:#f5f5f5"></path></g><g id="freepik--Shadow--inject-65"><ellipse id="freepik--path--inject-65" cx="245.18" cy="412.39" rx="193.89" ry="11.32" style="fill:#f5f5f5"></ellipse></g><g id="freepik--House--inject-65"><polygon points="424.58 282.78 352.81 225.98 281.04 282.78 281.04 383.64 424.58 383.64 424.58 282.78" style="fill:#A5A5B8"></polygon><polygon points="424.58 282.78 352.81 225.98 281.04 282.78 281.04 383.64 424.58 383.64 424.58 282.78" style="opacity:0.3"></polygon><path d="M430.24,290.89,352.81,229.6l-77.43,61.29a3.49,3.49,0,0,1-4.9-.57h0a3.49,3.49,0,0,1,.57-4.9l81.76-64.72,81.76,64.72a3.48,3.48,0,0,1,.57,4.9h0A3.49,3.49,0,0,1,430.24,290.89Z" style="fill:#A5A5B8"></path><g style="opacity:0.3"><path d="M430.24,290.89,352.81,229.6l-77.43,61.29a3.49,3.49,0,0,1-4.9-.57h0a3.49,3.49,0,0,1,.57-4.9l81.76-64.72,81.76,64.72a3.48,3.48,0,0,1,.57,4.9h0A3.49,3.49,0,0,1,430.24,290.89Z" style="fill:#fff"></path></g><path d="M352.81,283.58a31.56,31.56,0,0,0-31.56,31.56v68.5h63.13v-68.5A31.56,31.56,0,0,0,352.81,283.58Z" style="fill:#A5A5B8"></path><path d="M352.81,283.58a31.56,31.56,0,0,0-31.56,31.56v68.5h63.13v-68.5A31.56,31.56,0,0,0,352.81,283.58Z" style="opacity:0.5"></path><path d="M361.87,275.8s21.71,14.4,12.48-6.77c0,0,6.42-13.57-1.66-12.41s-10.82,5.74-10.82,5.74l-18.12-1s-21.7-14.39-12.47,6.77c0,0-6.43,13.57,1.65,12.41s10.82-5.74,10.82-5.74Z" style="fill:#A5A5B8"></path><path d="M361.87,275.8s21.71,14.4,12.48-6.77c0,0,6.42-13.57-1.66-12.41s-10.82,5.74-10.82,5.74l-18.12-1s-21.7-14.39-12.47,6.77c0,0-6.43,13.57,1.65,12.41s10.82-5.74,10.82-5.74Z" style="fill:#fff;opacity:0.3"></path></g><g id="freepik--speech-bubble--inject-65"><path d="M92.65,99s-2.64-7.13-.84-8.93,2.49,6.37,5.24,7.84Z" style="fill:#A5A5B8"></path><path d="M137.29,96.72s2.67-6.17,1.17-7.84-2.5,5.5-5,6.67Z" style="fill:#A5A5B8"></path><path d="M103.78,83s1.62-8.84,3.83-9-.29,7.07,1.18,9.72Z" style="fill:#A5A5B8"></path><path d="M124.25,84.63s-.06-9-2.21-9.52-.94,7-2.85,9.37Z" style="fill:#A5A5B8"></path><g style="opacity:0.5"><path d="M92.65,99s-2.64-7.13-.84-8.93,2.49,6.37,5.24,7.84Z" style="fill:#fff"></path><path d="M137.29,96.72s2.67-6.17,1.17-7.84-2.5,5.5-5,6.67Z" style="fill:#fff"></path><path d="M103.78,83s1.62-8.84,3.83-9-.29,7.07,1.18,9.72Z" style="fill:#fff"></path><path d="M124.25,84.63s-.06-9-2.21-9.52-.94,7-2.85,9.37Z" style="fill:#fff"></path></g><g style="opacity:0.5"><path d="M92.65,99s-2.64-7.13-.84-8.93,2.49,6.37,5.24,7.84Z"></path><path d="M137.29,96.72s2.67-6.17,1.17-7.84-2.5,5.5-5,6.67Z"></path><path d="M103.78,83s1.62-8.84,3.83-9-.29,7.07,1.18,9.72Z"></path><path d="M124.25,84.63s-.06-9-2.21-9.52-.94,7-2.85,9.37Z"></path></g><path d="M135.85,93.35a3.92,3.92,0,0,0-3.72-.24,1.87,1.87,0,0,1-2.58-1.61c-.28-4-1.66-10.32-7.45-11.51-3.37-.69-6.28,1.44-8,3.2a1.86,1.86,0,0,1-2.89-.31,5,5,0,0,0-6.35-2.1c-5.72,2.08-6.7,9.07-6.72,13.56A1.85,1.85,0,0,1,95.51,96c-1.82-.84-4.07-.59-5.23,4.38-2.16,9.23,5.7,37.8,5.7,37.8v35.15a58.25,58.25,0,0,0,41.9-1.63L136.63,137C141.54,101.4,140.1,96,135.85,93.35Z" style="fill:#A5A5B8"></path><path d="M189.16,147.11l-12-13.33a62.61,62.61,0,1,0-5.56,17.06ZM99.4,172.67a52.1,52.1,0,1,1,65.67-33.41A52.08,52.08,0,0,1,99.4,172.67Z" style="fill:#A5A5B8"></path><path d="M189.16,147.11l-12-13.33a62.61,62.61,0,1,0-5.56,17.06ZM99.4,172.67a52.1,52.1,0,1,1,65.67-33.41A52.08,52.08,0,0,1,99.4,172.67Z" style="opacity:0.6"></path><path d="M118.14,124.47a7.65,7.65,0,0,0-7.24-.23c-4.45,2.16-11.57,4.7-13.55-.06-2.95-7.07,7.27-8.25,11.2-15.12s8-3.73,12.17,1.57,12.38,4.71,11.59,14.14C131.76,131.43,123.15,127.41,118.14,124.47Z" style="fill:#263238"></path><path d="M117.82,169.56a12.44,12.44,0,0,0-4.38.28c-1.81.39-4.15.25-4.5-2.93-.59-5.3,5.12-6.53,7.66-6.68,2.3-.13,7.46.4,7.07,5.89C123.41,169.68,120.12,169.87,117.82,169.56Z" style="fill:#263238"></path><path d="M101.57,103.83c0,2.64-1.82,3.61-4.07,3.61s-4.08-1-4.08-3.61S95.24,99,97.5,99,101.57,101.18,101.57,103.83Z" style="fill:#263238"></path><path d="M136.19,103.25c0,3.61-2.48,4.92-5.54,4.92s-5.54-1.31-5.54-4.92,2.48-6.53,5.54-6.53S136.19,99.64,136.19,103.25Z" style="fill:#263238"></path><path d="M111,89.94c0,3.22-2,4.39-4.4,4.39s-4.39-1.17-4.39-4.39,2-5.81,4.39-5.81S111,86.73,111,89.94Z" style="fill:#263238"></path><path d="M126.11,90.44c0,3.22-2,4.39-4.39,4.39s-4.4-1.17-4.4-4.39,2-5.81,4.4-5.81S126.11,87.23,126.11,90.44Z" style="fill:#263238"></path></g><g id="freepik--Dog--inject-65"><path d="M175.37,398.71A102.19,102.19,0,0,1,165,399.85c-2.83-.07-5.63-1-8.48-1.73l2.67-1.95s-7,.38-9.27,0c-3.1-.52-5.91-2.22-8.78-3.65L144.6,390s-8.38-.82-11-1.86c-1.52-.61-2.67-1.9-4-2.94l3.81-1.09s-9.51-5-12.19-7.38c-5-4.39-7.59-11.46-10-19,0,0,8.77,3.47,22.8,10.43,2.56,1.27,9.59,6.23,9.59,6.23l-1.31-5.34c3.44,1,7.31,3.39,11.1,4.85,2.69,1,10.11,5.57,10.11,5.57l-1.18-3.66c3.44.66,7.11.81,10.76,1.76,2.8.73,10.78,4.22,10.78,4.22l-3.42-5.4c7.68.83,14.07,3.15,22.85,3.08v20.16a124.88,124.88,0,0,1-31,1.09Z" style="fill:#A5A5B8"></path><g style="opacity:0.2"><path d="M175.37,398.71A102.19,102.19,0,0,1,165,399.85c-2.83-.07-5.63-1-8.48-1.73l2.67-1.95s-7,.38-9.27,0c-3.1-.52-5.91-2.22-8.78-3.65L144.6,390s-8.38-.82-11-1.86c-1.52-.61-2.67-1.9-4-2.94l3.81-1.09s-9.51-5-12.19-7.38c-5-4.39-7.59-11.46-10-19,0,0,8.77,3.47,22.8,10.43,2.56,1.27,9.59,6.23,9.59,6.23l-1.31-5.34c3.44,1,7.31,3.39,11.1,4.85,2.69,1,10.11,5.57,10.11,5.57l-1.18-3.66c3.44.66,7.11.81,10.76,1.76,2.8.73,10.78,4.22,10.78,4.22l-3.42-5.4c7.68.83,14.07,3.15,22.85,3.08v20.16a124.88,124.88,0,0,1-31,1.09Z"></path></g><path d="M188.47,339.46c-8.74,16.32,1.68,40.05,7.63,58.52,0,0-6.33,3-7.69,11.72a5.08,5.08,0,0,0,5.07,5.8h18.57a5,5,0,0,0,3.64-1.52,10.72,10.72,0,0,0,2.51-11.52s21.69,6.52,33,1.85c22-9.08-30.68-68.23-30.68-68.23l-8-7.59S194.34,328.49,188.47,339.46Z" style="fill:#A5A5B8"></path><path d="M227.37,404.61c-9.9-4.73-13-17.18-13.52-14.11-.63,3.6,4.35,12,4.35,12Z" style="opacity:0.2"></path><path d="M210.58,396.84a15.12,15.12,0,0,0-9-.33.67.67,0,0,1-.57-1.19c2.28-1.73,6.06-3.3,10.24.37A.67.67,0,0,1,210.58,396.84Z" style="opacity:0.2"></path><path d="M208.36,328.49h4.17l2.4,2.28c2.16,17.13,6.78,43-1.09,29.05C207.67,348.89,208.36,328.49,208.36,328.49Z" style="opacity:0.2"></path><path d="M291.65,345.21c4.89-4.47,22.1-9.38,23.17,12.81s-23.63,37.83-23.63,37.83,38-5.23,40.94,6.95-7.44,8.55-32,8.55-38-.8-34.59-12.31S280.61,355.3,291.65,345.21Z" style="fill:#A5A5B8"></path><path d="M291.65,345.21c4.89-4.47,22.1-9.38,23.17,12.81s-23.63,37.83-23.63,37.83,38-5.23,40.94,6.95-7.44,8.55-32,8.55-38-.8-34.59-12.31S280.61,355.3,291.65,345.21Z" style="opacity:0.2"></path><path d="M291,162.82a13.13,13.13,0,0,1,5.49-10.09c5.49-3.77,16.16-13.47,21-6.18s2.78,14.71,2.14,19.6c-.75,5.68-.76,18.19-13.95,18.19Z" style="fill:#A5A5B8"></path><path d="M291,162.82a13.13,13.13,0,0,1,5.49-10.09c5.49-3.77,16.16-13.47,21-6.18s2.78,14.71,2.14,19.6c-.75,5.68-.76,18.19-13.95,18.19Z" style="opacity:0.2"></path><path d="M264,160.56s2.2-6.39-1.65-12-10.48-18.85-17.61-13.06-7.73,14-8.83,19.13c-1.28,6-5.63,18.64,6.76,22.91Z" style="fill:#A5A5B8"></path><path d="M264,160.56s2.2-6.39-1.65-12-10.48-18.85-17.61-13.06-7.73,14-8.83,19.13c-1.28,6-5.63,18.64,6.76,22.91Z" style="opacity:0.2"></path><path d="M303.46,181l-8-11.63c.3-3.29,1.26-9.11,4.38-13.07,4.58-5.78,13.66-11.33,16.17-6C318.82,156.16,318.24,169.91,303.46,181Z" style="opacity:0.2"></path><path d="M246,174.91l11.54-9.2c.86-3.42,2-9.62.43-14.63-2.28-7.33-8.88-15.88-13.1-11.29C240.23,144.84,236,158.93,246,174.91Z" style="opacity:0.2"></path><path d="M212.1,308.62h-1.25a1,1,0,0,1-.86-1.48l3.53-6.28a20.1,20.1,0,0,0,2.28-6.33c4.08-23,4.09-70.23,23.09-78.17,20.43-8.54,46.73-3.46,57.94,8.23a53.06,53.06,0,0,1,9.56,15l5.53,6.2a.91.91,0,0,1-.24,1.41l-.51.28,4,8.57a.92.92,0,0,1-1.13,1.25l-.18-.07,1.64,9.27a.92.92,0,0,1-1.6.75l-.12-.14a112.84,112.84,0,0,1-2.29,40.14C303,342.4,290.13,405.13,249,405.13c-29.59,0-37-44.12-36.85-76.52h0a1,1,0,0,1-1.7-.8l.89-7.91h-.85a1,1,0,0,1-1-1.25Z" style="fill:#A5A5B8"></path><path d="M217.3,372.54c2,6.72,10.47,23.5,22.66,24.59,12.81,1.14,19.82-6.05,26.07-11.21,13.43-11.08,20.23-67.23,20.23-67.23l7-12.14,9.4-14.63,11.19,2a111,111,0,0,1-2.37,13.28C303,342.4,290.13,405.13,249,405.13,232.11,405.13,222.46,390.83,217.3,372.54Z" style="opacity:0.2"></path><path d="M302.63,235.26s-1.22-15.23,3.66-23.16,7.57-50.87-28.06-55.4C241.3,152,231.57,187.39,231,199.59s2.59,27.14,2.59,27.14l43.16,16.16Z" style="fill:#A5A5B8"></path><path d="M232.92,188.7c4.33-15.07,16.6-35.65,45.31-32,34.09,4.33,33.1,43.81,28.68,54.17.84-4.28.59-9.54-5.81-15.25-8.53-7.62-18.9,1.83-22-5.49s16.35-5.26,10.67-13.14c-3.86-5.35-9.28-1.66-12.45,1.68a3.55,3.55,0,0,1-5.69-.77c-2.24-4.21-9.12-7-12.92-3-6.76,7.18,11.55,5.11,6.81,14C262.07,195.47,242.68,181.35,232.92,188.7Z" style="fill:#A5A5B8"></path><path d="M232.92,188.7c4.33-15.07,16.6-35.65,45.31-32,34.09,4.33,33.1,43.81,28.68,54.17.84-4.28.59-9.54-5.81-15.25-8.53-7.62-18.9,1.83-22-5.49s16.35-5.26,10.67-13.14c-3.86-5.35-9.28-1.66-12.45,1.68a3.55,3.55,0,0,1-5.69-.77c-2.24-4.21-9.12-7-12.92-3-6.76,7.18,11.55,5.11,6.81,14C262.07,195.47,242.68,181.35,232.92,188.7Z" style="opacity:0.2"></path><path d="M268.71,212.08a2.85,2.85,0,0,0,3.57.76,31.07,31.07,0,0,1,5-2c5.94-1.83,2-10.46-4.73-8.66,0,0-6.92-4.18-9.24,2C261.6,208.87,265.84,208.31,268.71,212.08Z" style="fill:#263238"></path><g style="opacity:0.6000000000000001"><path d="M263.44,207.64l1.71.16s2.39-4.26,3.47-.93c.58,1.77-1.48,2.17-3.53,2.16A6.48,6.48,0,0,1,263.44,207.64Z"></path><path d="M273.47,207.31c1.6-3.11,3.27,1.48,3.27,1.48l3.06.21a3.49,3.49,0,0,1-1.12,1.22C276.35,210.1,272.31,209.56,273.47,207.31Z"></path></g><path d="M280,235.18a58.49,58.49,0,0,1-27.63-5,1.65,1.65,0,0,0-2,2.48c4.41,5.89,11.48,14.07,16.65,14,6.63-.07,5.79-2.88,14-8.45A1.65,1.65,0,0,0,280,235.18Z" style="opacity:0.2"></path><path d="M276.76,253s10,20.43-2.82,44.37l6.41-9.55a1.31,1.31,0,0,1,2.3.23l.29.71a.41.41,0,0,0,.78-.16v-8.83a1.31,1.31,0,0,1,2.2-1l.4.36a.41.41,0,0,0,.66-.43l-3.4-9.46a1.32,1.32,0,0,1,1.81-1.63h0a.41.41,0,0,0,.52-.58l-3.29-5.42a1.31,1.31,0,0,1,.77-1.95l.34-.09a.41.41,0,0,0,.15-.71Z" style="opacity:0.2"></path><path d="M282.33,188.9c-.13,2.48,1.1,4.57,2.75,4.65s3.09-1.85,3.23-4.33-1.1-4.57-2.75-4.66S282.46,186.41,282.33,188.9Z" style="fill:#263238"></path><path d="M257.06,185.54c-.14,2.49,1.09,4.57,2.74,4.66s3.1-1.85,3.23-4.33-1.09-4.57-2.74-4.66S257.19,183.06,257.06,185.54Z" style="fill:#263238"></path><path d="M287.72,214.22s-4.76,7.57-9.64,5.46-8.69-3.63-8.69-3.63-10.17,2-13,0-5.14-6.4-5.14-6.4-1.66,17.5,16,20.58C283.42,233.05,287.72,214.22,287.72,214.22Z" style="fill:#A5A5B8"></path><path d="M287.72,214.22s-4.76,7.57-9.64,5.46-8.69-3.63-8.69-3.63-10.17,2-13,0-5.14-6.4-5.14-6.4-1.66,17.5,16,20.58C283.42,233.05,287.72,214.22,287.72,214.22Z" style="fill:#263238"></path><path d="M260.25,216.91a50,50,0,0,0,9.14-.86s2.83,1.13,6.73,2.79a34.41,34.41,0,0,0,.41,11c1.51,8.8-4.78,14.14-11.87,13.07s-9.11-8.39-6.86-13.87A39.38,39.38,0,0,0,260.25,216.91Z" style="fill:#A5A5B8"></path><path d="M260.25,216.91a50,50,0,0,0,9.14-.86s2.83,1.13,6.73,2.79a34.41,34.41,0,0,0,.41,11c1.51,8.8-4.78,14.14-11.87,13.07s-9.11-8.39-6.86-13.87A39.38,39.38,0,0,0,260.25,216.91Z" style="fill:#ff5652"></path><path d="M312.08,272.47c2.24,7.08,4.74,14.64,2.52,29.59S313.3,328,309,350.55s-5.73,41.17,3.08,49.1c0,0,10.34,1.22,10.65,12.8h0a3,3,0,0,1-3.05,3.05H294.09s-5.49-.61-5.79-8.54c0,0-5.87-.77-4-13.41l-1.83-14.64s4.88-7.93,2.44-27.75S295.56,220.13,312.08,272.47Z" style="fill:#A5A5B8"></path><path d="M209.78,415.5H207a29.32,29.32,0,0,1,1.35-8.72,7,7,0,0,1,1.6-2.91c1.37-1.18,3.37.8,2,2C210.11,407.43,209.82,412.05,209.78,415.5Z" style="fill:#A5A5B8"></path><path d="M198.09,406.78a6.78,6.78,0,0,1,1.6-2.91c1.37-1.18,3.37.8,2,2-1.83,1.57-2.12,6.19-2.17,9.64h-2.78A29.32,29.32,0,0,1,198.09,406.78Z" style="fill:#A5A5B8"></path><path d="M188.47,411.5a24.26,24.26,0,0,1,1.7-4.85,6.93,6.93,0,0,1,2.11-2.79c1.51-1,2.93,1.44,1.42,2.43.39-.26-.09.09-.23.3a12.13,12.13,0,0,0-.86,1.48,25,25,0,0,0-2,6.58A5.09,5.09,0,0,1,188.47,411.5Z" style="fill:#A5A5B8"></path><path d="M303.77,415.5H301a16.3,16.3,0,0,0-2-9.93c-1-1.54,1.48-3,2.43-1.42A18.89,18.89,0,0,1,303.77,415.5Z" style="fill:#A5A5B8"></path><path d="M314.65,415.5a15.81,15.81,0,0,0-.18-2.28,17,17,0,0,0-4-8.3c-1.18-1.37.81-3.37,2-2a19.56,19.56,0,0,1,5,12.57Z" style="fill:#A5A5B8"></path><g style="opacity:0.5"><path d="M209.78,415.5H207a29.32,29.32,0,0,1,1.35-8.72,7,7,0,0,1,1.6-2.91c1.37-1.18,3.37.8,2,2C210.11,407.43,209.82,412.05,209.78,415.5Z" style="opacity:0.2"></path><path d="M198.09,406.78a6.78,6.78,0,0,1,1.6-2.91c1.37-1.18,3.37.8,2,2-1.83,1.57-2.12,6.19-2.17,9.64h-2.78A29.32,29.32,0,0,1,198.09,406.78Z" style="opacity:0.2"></path><path d="M188.47,411.5a24.26,24.26,0,0,1,1.7-4.85,6.93,6.93,0,0,1,2.11-2.79c1.51-1,2.93,1.44,1.42,2.43.39-.26-.09.09-.23.3a12.13,12.13,0,0,0-.86,1.48,25,25,0,0,0-2,6.58A5.09,5.09,0,0,1,188.47,411.5Z" style="opacity:0.2"></path><g style="opacity:0.2"><path d="M303.77,415.5H301a16.3,16.3,0,0,0-2-9.93c-1-1.54,1.48-3,2.43-1.42A18.89,18.89,0,0,1,303.77,415.5Z"></path><path d="M310.45,404.92c-1.18-1.37.81-3.37,2-2a19.56,19.56,0,0,1,5,12.57h-2.83a15.81,15.81,0,0,0-.18-2.28"></path></g></g><path d="M304.53,399a14.74,14.74,0,0,0-8.78-.32.66.66,0,0,1-.56-1.16c2.22-1.68,5.9-3.21,10,.36A.65.65,0,0,1,304.53,399Z" style="opacity:0.2"></path><path d="M206.41,163.14s-2.44-5.95-3.35-5.49,0,7.78,0,7.78Z" style="fill:#A5A5B8"></path><path d="M216.17,151.07a9.87,9.87,0,0,1-1-3.66.87.87,0,0,0-1.5-.58,5.65,5.65,0,0,0-1.6,4.24Z" style="fill:#A5A5B8"></path><path d="M224.58,149.15a5.75,5.75,0,0,1-1.11-3.05.86.86,0,0,0-1.54-.45,6,6,0,0,0-1.16,5Z" style="fill:#A5A5B8"></path><path d="M236,157.63a6.86,6.86,0,0,1,1-3.6.83.83,0,0,0-.92-1.26,4.47,4.47,0,0,0-3.27,4.86Z" style="fill:#A5A5B8"></path><g style="opacity:0.5"><path d="M206.41,163.14s-2.44-5.95-3.35-5.49,0,7.78,0,7.78Z" style="fill:#fff"></path><path d="M216.17,151.07a9.87,9.87,0,0,1-1-3.66.87.87,0,0,0-1.5-.58,5.65,5.65,0,0,0-1.6,4.24Z" style="fill:#fff"></path><path d="M224.58,149.15a5.75,5.75,0,0,1-1.11-3.05.86.86,0,0,0-1.54-.45,6,6,0,0,0-1.16,5Z" style="fill:#fff"></path><path d="M236,157.63a6.86,6.86,0,0,1,1-3.6.83.83,0,0,0-.92-1.26,4.47,4.47,0,0,0-3.27,4.86Z" style="fill:#fff"></path></g><g style="opacity:0.5"><path d="M206.41,163.14s-2.44-5.95-3.35-5.49,0,7.78,0,7.78Z"></path><path d="M216.17,151.07a9.87,9.87,0,0,1-1-3.66.87.87,0,0,0-1.5-.58,5.65,5.65,0,0,0-1.6,4.24Z"></path><path d="M224.58,149.15a5.75,5.75,0,0,1-1.11-3.05.86.86,0,0,0-1.54-.45,6,6,0,0,0-1.16,5Z"></path><path d="M236,157.63a6.86,6.86,0,0,1,1-3.6.83.83,0,0,0-.92-1.26,4.47,4.47,0,0,0-3.27,4.86Z"></path></g><path d="M303.38,220.45a59.54,59.54,0,0,0-.88,11.05A55.78,55.78,0,0,1,297,233a1.93,1.93,0,0,1-1.68-3.35A38.88,38.88,0,0,0,303.38,220.45Z" style="opacity:0.2"></path><path d="M232.54,221.15A131.86,131.86,0,0,1,231,207.31a54.31,54.31,0,0,0,9,13.53,1.93,1.93,0,0,1-2.16,3.07,31.21,31.21,0,0,1-3.63-1.69c.75,6.2,2.13,15.47,4.06,19.91,3.05,7,3,11.44,3,11.44l-8.68.91L224,239.85C226,232.22,228.7,225.61,232.54,221.15Z" style="opacity:0.2"></path><path d="M219.23,267.05c6-1.93,13.69-1.86,13.69-1.86l10.52,6.43s5.88,25.71-8.87,31.2c-4.45,1.66-15.69-3.09-17.12-20.15C218,277.78,218.57,272.47,219.23,267.05Z" style="opacity:0.2"></path><path d="M238.28,247.16s7.49,10.3,4.43,28.85a9.76,9.76,0,0,1-10.35,8.08c-6.27-.45-14.19-1.62-16.65-4.6a38.42,38.42,0,0,1-8.23-26.23c.61-11.89,1.22-46.36,1.22-46.36s1.72-15.24-1.28-23.17-7.87-18.61-4.52-21.35a5.24,5.24,0,0,1,3.95-1.19,2.22,2.22,0,0,0,2.33-2.69c-.67-3.15-1.05-7.23,1.09-8.32a7.41,7.41,0,0,1,5.22-.29,4.53,4.53,0,0,0,4.26-1c1-.91,2.67-1.5,5.42-.18a7.18,7.18,0,0,1,4,5.3,2.31,2.31,0,0,0,3.35,1.54,4,4,0,0,1,4.9.39c3.66,3.35,1.83,10.67-.61,15.85s-.92,29-4,37.82S231.57,240.15,238.28,247.16Z" style="fill:#A5A5B8"></path><path d="M231.38,163.27a2.88,2.88,0,1,0,5.75,0c0-1.59-1.29-3.79-2.88-3.79S231.38,161.68,231.38,163.27Z" style="fill:#263238"></path><path d="M221.8,155.39a3.13,3.13,0,0,0,4.24,2c1.54-.56,2.13-1.87,1.33-4.06s-2.7-3.49-4.24-2.92S221,153.2,221.8,155.39Z" style="fill:#263238"></path><path d="M205.63,170.15c1.82,1.44,4,.37,5.32-1.33s1.37-3.38-.45-4.83-4.39-2.14-5.73-.44A5.24,5.24,0,0,0,205.63,170.15Z" style="fill:#263238"></path><path d="M212.12,157.78c.43,2.86,2.33,3.87,4.41,3.56s2.65-1.85,2.21-4.71-2.48-4.91-4.56-4.59S211.68,154.93,212.12,157.78Z" style="fill:#263238"></path><path d="M227.73,174.58c1.58.06,5.82.46,5.82-2.44s-6.1-2.36-7.62-5.45-6.71-4.38-8.08,0-8.45,5.3-5.75,9S220.38,174.29,227.73,174.58Z" style="fill:#263238"></path><path d="M223.58,246.64c6.29-2.41,4.53-13.59,4.53-26.55,0-26.43,6.21-39.82-6.5-39.12s-6.7,25.65-7.19,39.48S210.26,251.75,223.58,246.64Z" style="fill:#fff;opacity:0.30000000000000004"></path><path d="M221.11,206c1.15.07,4.23,1.07,4.23-1.83s-7.16-2.29-7.47,0S220.18,205.94,221.11,206Z" style="fill:#263238"></path></g><g id="freepik--Plants--inject-65"><path d="M69.54,405.75a23.55,23.55,0,0,1-6.42,4.19,17.52,17.52,0,0,1,7.38.45,15.08,15.08,0,0,1-6.61,1.09,10.88,10.88,0,0,1,4,1.76l-9,.87a3.14,3.14,0,0,1,.23-2.61C60.84,408.57,66.5,406.63,69.54,405.75Z" style="fill:#A5A5B8"></path><path d="M69.54,405.75a23.55,23.55,0,0,1-6.42,4.19,17.52,17.52,0,0,1,7.38.45,15.08,15.08,0,0,1-6.61,1.09,10.88,10.88,0,0,1,4,1.76l-9,.87a3.14,3.14,0,0,1,.23-2.61C60.84,408.57,66.5,406.63,69.54,405.75Z" style="fill:#fff;opacity:0.7000000000000001"></path><path d="M83.41,404.42a20.32,20.32,0,0,1,6.33,4.94,13.86,13.86,0,0,0-6.37.31l7.74,1A7.2,7.2,0,0,0,86.68,413a13.25,13.25,0,0,1,6.47-.29,8.31,8.31,0,0,0,2.37.32,2,2,0,0,0,1.85-1.29,2.52,2.52,0,0,0-.42-1.88C94.24,405.25,88.24,404.55,83.41,404.42Z" style="fill:#A5A5B8"></path><path d="M83.41,404.42a20.32,20.32,0,0,1,6.33,4.94,13.86,13.86,0,0,0-6.37.31l7.74,1A7.2,7.2,0,0,0,86.68,413a13.25,13.25,0,0,1,6.47-.29,8.31,8.31,0,0,0,2.37.32,2,2,0,0,0,1.85-1.29,2.52,2.52,0,0,0-.42-1.88C94.24,405.25,88.24,404.55,83.41,404.42Z" style="fill:#fff;opacity:0.2"></path><path d="M122.94,405.35a23.32,23.32,0,0,1-6.42,4.19,17.37,17.37,0,0,1,7.38.46,15.07,15.07,0,0,1-6.61,1.08,10.9,10.9,0,0,1,4,1.77l-9,.87a3.14,3.14,0,0,1,.23-2.61C114.24,408.17,119.9,406.23,122.94,405.35Z" style="fill:#A5A5B8"></path><path d="M122.94,405.35a23.32,23.32,0,0,1-6.42,4.19,17.37,17.37,0,0,1,7.38.46,15.07,15.07,0,0,1-6.61,1.08,10.9,10.9,0,0,1,4,1.77l-9,.87a3.14,3.14,0,0,1,.23-2.61C114.24,408.17,119.9,406.23,122.94,405.35Z" style="fill:#fff;opacity:0.2"></path><path d="M97.19,390.19c-1.76-8.35-8.47-13.41-15.31-18.5,4.16,7.13,9.05,13.67,11.25,21.64A38.62,38.62,0,0,0,81.87,382.8s6.32,12.27,8.74,14.65A32,32,0,0,0,72.09,388c13.25,8.8,18,17,19.77,21.93a6,6,0,0,0,5.68,3.88l14-.09a6,6,0,0,0,5.6-4c2.46-6.6,6.73-12.28,13.08-15.53-5.34,1.49-9.83,2.57-13,7.09,2-6.6,5.38-10.43,11.69-13.21-5.86.95-11.64,3.12-14,8.55a21.15,21.15,0,0,1,8.72-15.57c-5,.76-9.84,4.33-10.8,9.32-.17-6.64.54-13.34,4.16-18.9a20.86,20.86,0,0,0-9.08,14.28c-1.57-5.73-2.34-14.09-9-21.58a46.57,46.57,0,0,1,2.35,20.21c-.57-3.49-5.79-12.35-10.78-15.58C90.43,368.83,97.72,381.81,97.19,390.19Z" style="fill:#A5A5B8"></path><g style="opacity:0.6000000000000001"><path d="M97.19,390.19c-1.76-8.35-8.47-13.41-15.31-18.5,4.16,7.13,9.05,13.67,11.25,21.64A38.62,38.62,0,0,0,81.87,382.8s6.32,12.27,8.74,14.65A32,32,0,0,0,72.09,388c13.25,8.8,18,17,19.77,21.93a6,6,0,0,0,5.68,3.88l14-.09a6,6,0,0,0,5.6-4c2.46-6.6,6.73-12.28,13.08-15.53-5.34,1.49-9.83,2.57-13,7.09,2-6.6,5.38-10.43,11.69-13.21-5.86.95-11.64,3.12-14,8.55a21.15,21.15,0,0,1,8.72-15.57c-5,.76-9.84,4.33-10.8,9.32-.17-6.64.54-13.34,4.16-18.9a20.86,20.86,0,0,0-9.08,14.28c-1.57-5.73-2.34-14.09-9-21.58a46.57,46.57,0,0,1,2.35,20.21c-.57-3.49-5.79-12.35-10.78-15.58C90.43,368.83,97.72,381.81,97.19,390.19Z" style="fill:#fff;opacity:0.7000000000000001"></path></g><path d="M71.2,390.19c-1.76-8.35-8.47-13.41-15.32-18.5,4.17,7.13,9.06,13.67,11.25,21.64A38.49,38.49,0,0,0,55.87,382.8s6.32,12.27,8.74,14.65A32,32,0,0,0,46.1,388c13.25,8.8,18,17,19.77,21.93a6,6,0,0,0,5.68,3.88l14-.09a6,6,0,0,0,5.6-4c2.46-6.6,6.73-12.28,13.08-15.53-5.34,1.49-9.83,2.57-13,7.09,2-6.6,5.38-10.43,11.69-13.21-5.86.95-11.64,3.12-14,8.55a21.19,21.19,0,0,1,8.73-15.57c-5,.76-9.84,4.33-10.81,9.32-.16-6.64.55-13.34,4.17-18.9a20.87,20.87,0,0,0-9.09,14.28c-1.56-5.73-2.33-14.09-9-21.58a46.76,46.76,0,0,1,2.35,20.21c-.57-3.49-5.79-12.35-10.78-15.58C64.44,368.83,71.73,381.81,71.2,390.19Z" style="fill:#A5A5B8"></path><path d="M57.42,404.42a20.43,20.43,0,0,1,6.33,4.94,13.86,13.86,0,0,0-6.37.31l7.73,1A7.2,7.2,0,0,0,60.69,413a13.25,13.25,0,0,1,6.47-.29,8.31,8.31,0,0,0,2.37.32,2,2,0,0,0,1.85-1.29,2.48,2.48,0,0,0-.43-1.88C68.25,405.25,62.25,404.55,57.42,404.42Z" style="fill:#A5A5B8"></path><path d="M97,405.35a23.32,23.32,0,0,1-6.42,4.19,17.37,17.37,0,0,1,7.38.46,15.1,15.1,0,0,1-6.61,1.08,10.86,10.86,0,0,1,4,1.77l-9,.87a3.1,3.1,0,0,1,.23-2.61C88.25,408.17,93.9,406.23,97,405.35Z" style="fill:#A5A5B8"></path><g style="opacity:0.6000000000000001"><path d="M71.2,390.19c-1.76-8.35-8.47-13.41-15.32-18.5,4.17,7.13,9.06,13.67,11.25,21.64A38.49,38.49,0,0,0,55.87,382.8s6.32,12.27,8.74,14.65A32,32,0,0,0,46.1,388c13.25,8.8,18,17,19.77,21.93a6,6,0,0,0,5.68,3.88l14-.09a6,6,0,0,0,5.6-4c2.46-6.6,6.73-12.28,13.08-15.53-5.34,1.49-9.83,2.57-13,7.09,2-6.6,5.38-10.43,11.69-13.21-5.86.95-11.64,3.12-14,8.55a21.19,21.19,0,0,1,8.73-15.57c-5,.76-9.84,4.33-10.81,9.32-.16-6.64.55-13.34,4.17-18.9a20.87,20.87,0,0,0-9.09,14.28c-1.56-5.73-2.33-14.09-9-21.58a46.76,46.76,0,0,1,2.35,20.21c-.57-3.49-5.79-12.35-10.78-15.58C64.44,368.83,71.73,381.81,71.2,390.19Z" style="fill:#fff"></path><path d="M57.42,404.42a20.43,20.43,0,0,1,6.33,4.94,13.86,13.86,0,0,0-6.37.31l7.73,1A7.2,7.2,0,0,0,60.69,413a13.25,13.25,0,0,1,6.47-.29,8.31,8.31,0,0,0,2.37.32,2,2,0,0,0,1.85-1.29,2.48,2.48,0,0,0-.43-1.88C68.25,405.25,62.25,404.55,57.42,404.42Z" style="fill:#fff"></path><path d="M97,405.35a23.32,23.32,0,0,1-6.42,4.19,17.37,17.37,0,0,1,7.38.46,15.1,15.1,0,0,1-6.61,1.08,10.86,10.86,0,0,1,4,1.77l-9,.87a3.1,3.1,0,0,1,.23-2.61C88.25,408.17,93.9,406.23,97,405.35Z" style="fill:#fff"></path></g><path d="M414.24,377.65a15.35,15.35,0,0,1,4.75,3.71,10.45,10.45,0,0,0-4.78.23l5.81.77a5.38,5.38,0,0,0-3.33,1.72,10,10,0,0,1,4.86-.23,6.36,6.36,0,0,0,1.77.25,1.52,1.52,0,0,0,1.39-1,1.82,1.82,0,0,0-.32-1.41C422.37,378.28,417.87,377.75,414.24,377.65Z" style="fill:#A5A5B8"></path><path d="M414.24,377.65a15.35,15.35,0,0,1,4.75,3.71,10.45,10.45,0,0,0-4.78.23l5.81.77a5.38,5.38,0,0,0-3.33,1.72,10,10,0,0,1,4.86-.23,6.36,6.36,0,0,0,1.77.25,1.52,1.52,0,0,0,1.39-1,1.82,1.82,0,0,0-.32-1.41C422.37,378.28,417.87,377.75,414.24,377.65Z" style="fill:#fff;opacity:0.2"></path><path d="M443.89,378.36a17.72,17.72,0,0,1-4.82,3.14,13,13,0,0,1,5.54.34,11.49,11.49,0,0,1-5,.81,8.1,8.1,0,0,1,3,1.33l-6.76.65a2.36,2.36,0,0,1,.18-2C437.37,380.47,441.61,379,443.89,378.36Z" style="fill:#A5A5B8"></path><path d="M443.89,378.36a17.72,17.72,0,0,1-4.82,3.14,13,13,0,0,1,5.54.34,11.49,11.49,0,0,1-5,.81,8.1,8.1,0,0,1,3,1.33l-6.76.65a2.36,2.36,0,0,1,.18-2C437.37,380.47,441.61,379,443.89,378.36Z" style="fill:#fff;opacity:0.2"></path><path d="M424.58,367c-1.32-6.26-6.36-10.06-11.49-13.87,3.12,5.35,6.8,10.25,8.44,16.22a29,29,0,0,0-8.44-7.89s4.74,9.2,6.55,11a23.94,23.94,0,0,0-13.89-7.08c9.94,6.6,13.47,12.78,14.83,16.45a4.52,4.52,0,0,0,4.26,2.91l10.52-.08a4.53,4.53,0,0,0,4.2-3,20.79,20.79,0,0,1,9.8-11.65c-4,1.12-7.37,1.93-9.77,5.32a14.28,14.28,0,0,1,8.77-9.9c-4.39.7-8.73,2.34-10.53,6.41a15.88,15.88,0,0,1,6.54-11.68c-3.76.57-7.37,3.25-8.1,7-.12-5,.41-10,3.13-14.17a15.62,15.62,0,0,0-6.82,10.7c-1.17-4.29-1.75-10.56-6.75-16.18a35.11,35.11,0,0,1,1.77,15.16c-.43-2.62-4.35-9.27-8.09-11.69C419.51,351,425,360.7,424.58,367Z" style="fill:#A5A5B8"></path><g style="opacity:0.6000000000000001"><path d="M424.58,367c-1.32-6.26-6.36-10.06-11.49-13.87,3.12,5.35,6.8,10.25,8.44,16.22a29,29,0,0,0-8.44-7.89s4.74,9.2,6.55,11a23.94,23.94,0,0,0-13.89-7.08c9.94,6.6,13.47,12.78,14.83,16.45a4.52,4.52,0,0,0,4.26,2.91l10.52-.08a4.53,4.53,0,0,0,4.2-3,20.79,20.79,0,0,1,9.8-11.65c-4,1.12-7.37,1.93-9.77,5.32a14.28,14.28,0,0,1,8.77-9.9c-4.39.7-8.73,2.34-10.53,6.41a15.88,15.88,0,0,1,6.54-11.68c-3.76.57-7.37,3.25-8.1,7-.12-5,.41-10,3.13-14.17a15.62,15.62,0,0,0-6.82,10.7c-1.17-4.29-1.75-10.56-6.75-16.18a35.11,35.11,0,0,1,1.77,15.16c-.43-2.62-4.35-9.27-8.09-11.69C419.51,351,425,360.7,424.58,367Z" style="fill:#fff;opacity:0.7000000000000001"></path></g><path d="M405.09,367c-1.32-6.26-6.36-10.06-11.49-13.87,3.12,5.35,6.79,10.25,8.44,16.22a28.93,28.93,0,0,0-8.45-7.89s4.74,9.2,6.56,11a23.94,23.94,0,0,0-13.89-7.08c9.94,6.6,13.47,12.78,14.83,16.45a4.52,4.52,0,0,0,4.26,2.91l10.51-.08a4.53,4.53,0,0,0,4.21-3,20.79,20.79,0,0,1,9.8-11.65c-4,1.12-7.37,1.93-9.77,5.32a14.27,14.27,0,0,1,8.76-9.9c-4.39.7-8.72,2.34-10.52,6.41a15.88,15.88,0,0,1,6.54-11.68c-3.76.57-7.38,3.25-8.1,7-.12-5,.41-10,3.13-14.17a15.62,15.62,0,0,0-6.82,10.7c-1.17-4.29-1.75-10.56-6.75-16.18a35,35,0,0,1,1.76,15.16c-.42-2.62-4.34-9.27-8.08-11.69C400,351,405.48,360.7,405.09,367Z" style="fill:#A5A5B8"></path><path d="M394.75,377.65a15.47,15.47,0,0,1,4.75,3.71,10.45,10.45,0,0,0-4.78.23l5.8.77a5.38,5.38,0,0,0-3.32,1.72,10,10,0,0,1,4.86-.23,6.26,6.26,0,0,0,1.77.25,1.52,1.52,0,0,0,1.39-1,1.86,1.86,0,0,0-.32-1.41C402.87,378.28,398.37,377.75,394.75,377.65Z" style="fill:#A5A5B8"></path><path d="M424.4,378.36a17.72,17.72,0,0,1-4.82,3.14,13,13,0,0,1,5.54.34,11.52,11.52,0,0,1-5,.81,8.1,8.1,0,0,1,3,1.33l-6.76.65a2.32,2.32,0,0,1,.18-2C417.88,380.47,422.11,379,424.4,378.36Z" style="fill:#A5A5B8"></path><g style="opacity:0.6000000000000001"><path d="M405.09,367c-1.32-6.26-6.36-10.06-11.49-13.87,3.12,5.35,6.79,10.25,8.44,16.22a28.93,28.93,0,0,0-8.45-7.89s4.74,9.2,6.56,11a23.94,23.94,0,0,0-13.89-7.08c9.94,6.6,13.47,12.78,14.83,16.45a4.52,4.52,0,0,0,4.26,2.91l10.51-.08a4.53,4.53,0,0,0,4.21-3,20.79,20.79,0,0,1,9.8-11.65c-4,1.12-7.37,1.93-9.77,5.32a14.27,14.27,0,0,1,8.76-9.9c-4.39.7-8.72,2.34-10.52,6.41a15.88,15.88,0,0,1,6.54-11.68c-3.76.57-7.38,3.25-8.1,7-.12-5,.41-10,3.13-14.17a15.62,15.62,0,0,0-6.82,10.7c-1.17-4.29-1.75-10.56-6.75-16.18a35,35,0,0,1,1.76,15.16c-.42-2.62-4.34-9.27-8.08-11.69C400,351,405.48,360.7,405.09,367Z" style="fill:#fff"></path><path d="M394.75,377.65a15.47,15.47,0,0,1,4.75,3.71,10.45,10.45,0,0,0-4.78.23l5.8.77a5.38,5.38,0,0,0-3.32,1.72,10,10,0,0,1,4.86-.23,6.26,6.26,0,0,0,1.77.25,1.52,1.52,0,0,0,1.39-1,1.86,1.86,0,0,0-.32-1.41C402.87,378.28,398.37,377.75,394.75,377.65Z" style="fill:#fff"></path><path d="M424.4,378.36a17.72,17.72,0,0,1-4.82,3.14,13,13,0,0,1,5.54.34,11.52,11.52,0,0,1-5,.81,8.1,8.1,0,0,1,3,1.33l-6.76.65a2.32,2.32,0,0,1,.18-2C417.88,380.47,422.11,379,424.4,378.36Z" style="fill:#fff"></path></g></g></svg>
