<svg xmlns="http://www.w3.org/2000/svg" viewBox="0 0 500 500"><g id="freepik--Floor--inject-194"><ellipse id="freepik--floor--inject-194" cx="250.62" cy="340.11" rx="233.32" ry="138.79" style="fill:#f5f5f5"></ellipse></g><g id="freepik--Shadows--inject-194"><path id="freepik--Shadow--inject-194" d="M280.46,316.87c-40.34,23.29-40.34,61,0,84.33s105.73,23.29,146.06,0,40.34-61,0-84.33S320.79,293.59,280.46,316.87Z" style="fill:#e0e0e0"></path><path id="freepik--shadow--inject-194" d="M75.6,249.11c-38.42,22.18-38.42,58.13,0,80.31s100.69,22.18,139.1,0,38.42-58.13,0-80.31S114,226.93,75.6,249.11Z" style="fill:#e0e0e0"></path><path id="freepik--shadow--inject-194" d="M83.45,404.45l-.09-.06a38.56,38.56,0,0,1-11.56-9.83h0a12.87,12.87,0,0,1-2.37-5h0a5.67,5.67,0,0,1,1.81-5.63,2.07,2.07,0,0,1,.41-.28h0l.29-.16h0a14.51,14.51,0,0,1,1.58-.68h0l.1,0,.2-.07h0c1.46-.52,3.42-1.09,5.74-1.71h0l.39-.1h0l.29-.08h0c1.85-.49,3.91-1,6.12-1.55h0l.27-.07,1.6-.39h0l.39-.09h0l4.14-1h0l.29-.07h0l4-1h0l.39-.1h0l1.77-.45h0l.3-.07h0l4.43-1.14,61.74-35.64a12.74,12.74,0,0,1,11.68,0l40.41,23.33a5.33,5.33,0,0,1,3,4.5v1.86a5.32,5.32,0,0,1-3,4.5l-32.89,19,53.64,30.9h0a1.89,1.89,0,0,1,1.6,0h0l0,0h0l64.77,35.81h0a2.79,2.79,0,0,1,1.22,2.6,8.82,8.82,0,0,1-4,7,2.82,2.82,0,0,1-2.82.3h0l-63.47-38.16A2.12,2.12,0,0,1,235,429l-56.6-32.61h0c-.05,0-.08-.07-.12-.1l-32.81,18.94a11.85,11.85,0,0,1-5.84,1.42,13.54,13.54,0,0,1-3.32-.42c-3.69.61-14.13,0-14.19,0C114.36,415.23,94.71,411.42,83.45,404.45Z" style="fill:#e0e0e0"></path></g><g id="freepik--fish-bowl--inject-194"><g id="freepik--fish-bowl--inject-194"><g id="freepik--Bowl--inject-194"><g id="freepik--fish-bowl--inject-194"><path d="M296.8,318.82c31.48-18.17,82.51-18.17,114,0s31.48,47.64,0,65.81-82.51,18.17-114,0S265.33,337,296.8,318.82Z" style="fill:#BA68C8"></path><path d="M296.8,318.82c31.48-18.17,82.51-18.17,114,0s31.48,47.64,0,65.81-82.51,18.17-114,0S265.33,337,296.8,318.82Z" style="fill:#fff;opacity:0.75"></path><path d="M296.8,318.82c31.48-18.17,82.51-18.17,114,0s31.48,47.64,0,65.81-82.51,18.17-114,0S265.33,337,296.8,318.82Z" style="opacity:0.05"></path><path d="M313.18,381.36l46.56-14.54-30.2-25.58-50.05-7.55c-12.3,16.91-6.54,37.17,17.31,50.94a97.15,97.15,0,0,0,24.94,9.8C311.48,390.09,313.18,381.36,313.18,381.36Z" style="opacity:0.1"></path><path d="M434.07,160.37l-.15-.55-2.6-2.43a106.53,106.53,0,0,0-42-24.33l-.34-.1a117.13,117.13,0,0,0-70.31,0l-.36.11a106.67,106.67,0,0,0-41.95,24.26l-2.67,2.49-.15.56a48.38,48.38,0,0,1-11.26,20.1,122.49,122.49,0,0,0-32.68,83c-.25,68,54.92,124,122.91,124.69A124.24,124.24,0,0,0,478,264a122.48,122.48,0,0,0-32.68-83.48A48.36,48.36,0,0,1,434.07,160.37Z" style="fill:#BA68C8"></path><path d="M434.07,160.37l-.15-.55-2.6-2.43a106.53,106.53,0,0,0-42-24.33l-.34-.1a117.13,117.13,0,0,0-70.31,0l-.36.11a106.67,106.67,0,0,0-41.95,24.26l-2.67,2.49-.15.56a48.38,48.38,0,0,1-11.26,20.1,122.49,122.49,0,0,0-32.68,83c-.25,68,54.92,124,122.91,124.69A124.24,124.24,0,0,0,478,264a122.48,122.48,0,0,0-32.68-83.48A48.36,48.36,0,0,1,434.07,160.37Z" style="fill:#fff;opacity:0.85"></path><path d="M471.08,264.07a117.29,117.29,0,1,1-193.41-89.23l.51-.43c.6-.51,1.21-1,1.81-1.5l.33-.26a78.68,78.68,0,0,1,9.07-6.1C325,146,382.63,146,418.2,166.55a77.64,77.64,0,0,1,8.84,5.92l.43.34c.66.53,1.31,1.06,1.94,1.6l.68.58A117,117,0,0,1,471.08,264.07Z" style="fill:#BA68C8"></path><path d="M471.08,264.07a117.29,117.29,0,1,1-193.41-89.23l.51-.43c.6-.51,1.21-1,1.81-1.5l.33-.26a78.68,78.68,0,0,1,9.07-6.1C325,146,382.63,146,418.2,166.55a77.64,77.64,0,0,1,8.84,5.92l.43.34c.66.53,1.31,1.06,1.94,1.6l.68.58A117,117,0,0,1,471.08,264.07Z" style="fill:#fff;opacity:0.55"></path><path d="M406.91,363.51c-29.34,16.93-76.9,16.93-106.22,0-19.25-11.12-25.88-26.76-19.84-41,3.14-7.46,9.76-14.54,19.84-20.34,29.32-16.94,76.88-16.94,106.22,0,10.08,5.8,16.69,12.88,19.85,20.34C432.77,336.75,426.15,352.39,406.91,363.51Z" style="fill:#BA68C8"></path><g style="opacity:0.55"><path d="M406.91,363.51c-29.34,16.93-76.9,16.93-106.22,0-19.25-11.12-25.88-26.76-19.84-41,3.14-7.46,9.76-14.54,19.84-20.34,29.32-16.94,76.88-16.94,106.22,0,10.08,5.8,16.69,12.88,19.85,20.34C432.77,336.75,426.15,352.39,406.91,363.51Z" style="fill:#fff"></path></g><g style="opacity:0.05"><path d="M406.91,363.51c-29.34,16.93-76.9,16.93-106.22,0-19.25-11.12-25.88-26.76-19.84-41,3.14-7.46,9.76-14.54,19.84-20.34,29.32-16.94,76.88-16.94,106.22,0,10.08,5.8,16.69,12.88,19.85,20.34C432.77,336.75,426.15,352.39,406.91,363.51Z"></path></g><path d="M418.2,240.92c-35.57,20.54-93.24,20.54-128.81,0-31.1-18-35-45.66-11.72-66.08l.51-.43c.6-.51,1.21-1,1.81-1.5l.33-.26a78.68,78.68,0,0,1,9.07-6.1C325,146,382.63,146,418.2,166.55a77.64,77.64,0,0,1,8.84,5.92l.43.34c.66.53,1.31,1.06,1.94,1.6l.68.58C453.19,195.38,449.24,223,418.2,240.92Z" style="fill:#BA68C8"></path><path d="M418.2,240.92c-35.57,20.54-93.24,20.54-128.81,0-31.1-18-35-45.66-11.72-66.08l.51-.43c.6-.51,1.21-1,1.81-1.5l.33-.26a78.68,78.68,0,0,1,9.07-6.1C325,146,382.63,146,418.2,166.55a77.64,77.64,0,0,1,8.84,5.92l.43.34c.66.53,1.31,1.06,1.94,1.6l.68.58C453.19,195.38,449.24,223,418.2,240.92Z" style="fill:#fff;opacity:0.65"></path><g style="opacity:0.30000000000000004"><path d="M441.86,212.18c-1.1,1.1-.54,2.46.61,3.59a34.31,34.31,0,0,0,1.62-5.14A23.69,23.69,0,0,0,441.86,212.18Z" style="fill:#fff"></path><path d="M397.54,246.19c-.87-.44-1.52-1.12-1.28-1.79a3.6,3.6,0,0,1,.75-1,2.58,2.58,0,0,0,.17-3.38c-.51-.68-1.31-1.53-.43-2.07a3,3,0,0,1,2.21-.1,6.27,6.27,0,0,1,1.72.94,11.55,11.55,0,0,0,5.38,2.06c3.91.39,7.32-1.46,10-3.15l4.25-2.7a7.86,7.86,0,0,1,4.53-1.53,21.44,21.44,0,0,1,3.09.64l.14,0a57.39,57.39,0,0,0,6.56-6.18c-1-.27-1.94-.53-2.92-.75s-1.95-.31-2.53.72c-.45.8-.11,1.81-.84,2.49-.95.88-3.35.85-4.8.23a8.25,8.25,0,0,1-3-2.57c-3.36-3.92-8.58-7.3-14.92-9.7a8.18,8.18,0,0,1-2.95-1.52,2.57,2.57,0,0,1-.41-2.36l.63-4.13a1.36,1.36,0,0,1,.47-1,4.26,4.26,0,0,1,2.46-.45c3.38.09,6.69,1.11,10,.7,2.67-.32,4.74-1.5,6.92-2.44a37.05,37.05,0,0,1,7.62-2.31c3.55-.68,7.61-.91,10.88.14a6.41,6.41,0,0,1,3.39,2.34c.1-.86.18-1.72.21-2.59-1.4-.63-3-1.29-2.92-2.27s1.39-1.47,2.78-2c-.09-.85-.21-1.71-.37-2.57a15,15,0,0,1-2.91,1.38c-3.35,1.19-7.54,1.53-10.57,3-1.58.75-3.24,1.86-5.22,1.57a2.92,2.92,0,0,1-2.45-1.82c-.28-.79-.2-1.62-.51-2.4-.53-1.3-2.14-2.37-3.86-3.26C413.87,194,407.37,192.25,404,189c-.61-.58-1.11-1.29-.7-1.91.87-1.33,4.42-1,6.29-1.92s1.28-2.72.47-4.11l-2.49-4.21a6.7,6.7,0,0,1-1.21-3.08,3,3,0,0,1,2.1-2.79c2.11-.89,5.08-.52,7.46.09a21.51,21.51,0,0,1,5.11,1.88c7.15,4,4.7,11.47,11.67,15.55a10.61,10.61,0,0,0,5.42,1.47,29.75,29.75,0,0,0,3.43-.42,37.68,37.68,0,0,0-2-3.65,9.28,9.28,0,0,1-3.24-.67c-3.56-1.6-4.57-6.07-6.83-9.24a18,18,0,0,0-7.91-5.8c-3.06-1.27-6.29-2.09-9.41-3.21a2,2,0,0,1-1.09-.74c-.36-.62-.15-2.09.2-3.32a109.89,109.89,0,0,0-14.59-5.59,40.39,40.39,0,0,1,6.21,3.47c2,1.39,3.93,2.92,4.6,4.7a1.83,1.83,0,0,1-.1,1.77,5.85,5.85,0,0,1-1.86,1.35,16.8,16.8,0,0,0-4.63,3.38c-1.11,1.3-1.58,2.83-.82,4.21s2.87,2.59,4.16,3.94,1.48,3.35-.78,4.17a10.51,10.51,0,0,1-2.31.43,18.67,18.67,0,0,1-7.6-.86,5,5,0,0,1-2.4-2.06c-.89-1.51-.81-3.37-.76-5.12a8.24,8.24,0,0,0-.82-4.75c-.72-1.18-2.06-1.83-2.73-3.05a12,12,0,0,1-.77-2.73c-1.08-4-7.39-3.24-8.52-7-.57-1.91,2.16-3.78,5.4-4.29a18.1,18.1,0,0,1,3.76-.16q-4.49-1-9.08-1.71a3.32,3.32,0,0,1-1.48,1.09c-.76.31-1.69.45-2.4.79a2.77,2.77,0,0,0-1.34,1.35c-.77,1.68.19,3.59,2.4,4.77,1.17.62,2.64,1,3.9,1.59a11,11,0,0,1,2.95,1.86c1,.9,1.53,2.19.2,2.92a6.64,6.64,0,0,1-2.26.59c-3.72.54-8.2,1-10.92-.6-2-1.14-2.2-3-3.53-4.39a12.1,12.1,0,0,0-3.13-2.17,46,46,0,0,0-15.42-4.57c-2-.25-4.3-.5-5.35-1.51a2.49,2.49,0,0,1-.62-2q0-.47,0-1c-1.53.13-3.05.29-4.57.46a2.24,2.24,0,0,1,.07,3.2,14,14,0,0,1-2.84,1.93c-2,1.23-3.54,2.73-3.95,4.38s.46,3.47,2.65,4.57c1.24.63,4.24,1.14,3.47,2-1.21,1.35-5.15-.16-7.61-.65a20.44,20.44,0,0,0-5.83-.42c-2.59.23-5.24.82-7.82.3-1.86-.38-4.37-1.21-5.24-3.1-.7-1.52,0-3.2-1-4.66a4.52,4.52,0,0,0-1-1q-2.33.81-4.57,1.71a3.23,3.23,0,0,1,1,1,5,5,0,0,1,.51,1.77c.53,2.8,3.07,5.76,7.7,6.66,3.05.6,6.36.21,9.56,0a65.44,65.44,0,0,1,17.61,1.47c2.86.65,6,1.89,5.84,3.66-.11,1.21-1.84,2.19-3.78,2.64a28.08,28.08,0,0,1-6.19.4c-1.25.46-3.72,1.38-4.28,2.39-.44.81,0,1.68.25,2.52a1.8,1.8,0,0,1-1.09,2.34,5.42,5.42,0,0,1-3.7-.16,14.06,14.06,0,0,1-2.71-1.65,19.74,19.74,0,0,0-8.84-3.06c-4.51-.47-9.21.42-13.69-.13a16.49,16.49,0,0,1-6.51-2.11c-.54-.32-1-.71-1-1.16,0-.8,1.46-1.31,2-2,1-1.23-.82-2.57-2.53-3.49a21.58,21.58,0,0,1-4.41-2.78,5.84,5.84,0,0,1-.77-.9c-.81.5-1.61,1-2.38,1.53.41.27.84.53,1.28.78,1.89,1.1,4.14,2.47,3.35,3.95a8.78,8.78,0,0,1-1,1.17c-1,1.19-.67,2.71.77,3.74,1.69,1.2,4.65,1.72,5.87,3.1s-.19,3.32-2.77,3.79-5.48-.39-7.92.24-3.36,2.33-5.75,2.83-4.73-.41-7.08-.86a20.22,20.22,0,0,0-4.68-.29c-.59,1.08-1.13,2.15-1.6,3.24a21.22,21.22,0,0,1,6.27-.11,27.78,27.78,0,0,1,10.84,3.67c2.38,1.42,4.42,3.36,3.62,5.28-.74,1.76-3.75,3.13-3.69,4.95,0,1.52,2.27,2.71,4.44,3.57s4.66,1.68,5.72,3.08c.89,1.17.6,2.53,1.17,3.77,1.69,3.65,9.8,4.93,13.23,8.15.45.42.76,1,.11,1.35a2.91,2.91,0,0,1-1.17.18c-1.83,0-3.78.45-5.13-.68s-1.64-2.44-3-3.48a16.68,16.68,0,0,0-9.43-2.84,17.68,17.68,0,0,0-9.75,2.46c-.71.48-1.32,1-2.11,1.45A13.38,13.38,0,0,1,269,223c.72,1.06,1.48,2.1,2.32,3.13a5.45,5.45,0,0,1,.62.35,18.09,18.09,0,0,1,2.3,2.16c4.91,4.68,13.2,4.44,17.83,9.37a25.21,25.21,0,0,1,3.81,6.34,110.93,110.93,0,0,0,15.82,6l.13-.06c1.59-.71,2.34-2,1.85-3.11a1.4,1.4,0,0,1-.2-.69,1,1,0,0,1,.37-.51,6.91,6.91,0,0,1,5.86-.8c1.61.51,2.54,1.55,4.14,2.07a15,15,0,0,0,5.61.22,20.37,20.37,0,0,1,3.9-.1,4.66,4.66,0,0,1,3.09,1.25c.53.72.18,1.53.28,2.3.2,1.43,2,2.65,4.16,3.36a35.81,35.81,0,0,0,7.08,1.29c1.59.19,3.2.39,4.72.7,1.63,0,3.26,0,4.88,0-.89-.34-1.57-1-1.13-1.52a3.25,3.25,0,0,1,1.82-.73c5.82-1.09,12.64-.39,17.72-2.34,2.9-1.12,4.78-3,7.7-4.07a18.64,18.64,0,0,1,11.7-.22,15,15,0,0,1,3.84,1.92c1.1-.37,2.19-.75,3.27-1.15a15.72,15.72,0,0,0-2-.89A25.16,25.16,0,0,1,397.54,246.19ZM365.9,174.54a5.52,5.52,0,0,1,1.46-1.92c1.9-1.61,5.4-2.38,8.75-2.43,4.62-.06,9.61,1.34,11,3.88,1.2,2.19-.52,4.58,0,6.86.7,2.95,4.95,5.12,8.91,7L409,194.17c4.91,2.36,10.16,5.06,10.93,8.72a2.73,2.73,0,0,1-.62,2.54c-1.09,1.22-3.47,1.87-5.79,2.12-4.29.46-7.14-.36-11.24-1.22-.85-.17-1.86-.36-2.31-.51-.24-.08-1-.23-1-.23a18.54,18.54,0,0,1-5.33-1.79c-1.29-.67-2.43-1.51-2.69-2.49s.35-1.93.2-2.89-1.12-1.93-2.07-2.79a14.2,14.2,0,0,0-4.83-3.15,28.12,28.12,0,0,0-7.41-1.12,29.65,29.65,0,0,1-7.42-1.08c-2.21-.77-3.82-2.32-3.07-3.74a10.26,10.26,0,0,1,2-2c2-1.88,1.72-4.45-.58-6.2a9.94,9.94,0,0,1-1.8-1.43A2.24,2.24,0,0,1,365.9,174.54ZM383,221.73c.78,1.21,1.57,2.65.33,3.73a7,7,0,0,1-2.57,1.13,14.85,14.85,0,0,1-4.44.62,18.83,18.83,0,0,1-3.78-.64c-1.76-.58-4.12-2.06-5.8-2.66-1.19-.45-2.83-.86-4.06-1.27s-2.27-1.12-2.19-1.94c.09-1,1.68-1.65,2.84-2.38,3-1.87,3.37-4.93.9-7-.77-.65-1.79-1.22-2.46-1.92s-.92-1.6-.13-2.25c1.36-1.11,4.33-.66,6.59-1,3.15-.52,4.69-2.68,7.65-3.5s6.61-.08,9.63.78a36.48,36.48,0,0,1,8.89,3.51c2.46,1.52,4.14,3.57,3.84,5.65s-2.9,4.09-6.44,4.46c-1.54.17-3.12,0-4.68.06a8,8,0,0,0-4.2,1C381.5,219.05,382.18,220.52,383,221.73Zm-45.85,4.4a18.09,18.09,0,0,1,3.17-.88c3.27-1.8,5.55-4.19,6.42-6.75.48-1.42.54-2.88,1.06-4.3a6.35,6.35,0,0,1,3.64-3.69,2.88,2.88,0,0,1,1-.25,3.91,3.91,0,0,1,1.37.24c2.66.83,5.54,1.83,6.41,3.49.73,1.4-.18,2.91-1.59,4.11s-3.19,2.25-2.94,3.6c.16.86,1.19,1.59,2.38,2.12,2.64,1.16,6.08,1.5,9.06,2.35s5.73,2.68,4.79,4.52c-1.21,2.38-7.17,2.72-9.37,4.84-.86.82-1.06,1.83-2,2.61-1.55,1.29-4.8,1.6-7.36,1.07a15.13,15.13,0,0,1-6.17-3,40.73,40.73,0,0,0-5-3.7c-1.65-.93-3.69-1.66-5-2.76S335.33,227,337.11,226.13Zm-1.76-2.67c-2.51-.17-5-1-6.14-2.33a4.11,4.11,0,0,1-.31-.53c-.29-1.15.38-1.78,1.31-2.81.62-.68,1.47-1.28,2.13-1.95a8.86,8.86,0,0,0,2.13-5.21c.51-3.12,1-6.24,1.53-9.36a5.62,5.62,0,0,1,1.4-3.38c1.31-1.34,4-2.16,6.63-2.08s5.13,1.11,6.16,2.51a9.67,9.67,0,0,1,1.09,3,8.62,8.62,0,0,0,3.11,4c.95.73,2.15,1.66,1.36,2.45s-2.75.66-4.32.78a9,9,0,0,0-6.13,2.84,9.84,9.84,0,0,0-1.9,4.6c-.25,1.16-.51,2.34-.76,3.51a4.36,4.36,0,0,1-.91,2.13C340.58,222.92,337.86,223.62,335.35,223.46ZM339,167.92a16.74,16.74,0,0,1-4.77-3.14c-1.14-1.24-1.59-2.74-.71-4.05,1.38-2.06,5.7-3,9.51-2.81a38.64,38.64,0,0,1,10.5,2.56c4.81,1.71,10,3.7,11.52,6.84a1.51,1.51,0,0,1,.16,1.22,3.16,3.16,0,0,1-1,1.11c-2.36,1.92-4.69,4-4.6,6.4.06,1.73,1.45,3.37,3.16,4.81.79.68,1.71,1.46,1.31,2.26-.29.57-1.21,1-1.68,1.49-1.11,1.22.22,3-1.64,3.91a4.55,4.55,0,0,1-4.87-1.2c-.75-1.1-.42-2.34-.58-3.52-.28-1.88-1.92-3.68-4.45-4.87-1.67-.79-4-1.65-3.58-2.88a4.67,4.67,0,0,1,.59-.88c1-1.43.22-3.22-1.87-4.19A56.13,56.13,0,0,1,339,167.92Zm-9.94,22.37c.57-1.16,3.24-1.47,4.49-2.43,1.82-1.4,0-3.38.26-5.11.29-2.06,3.83-3.67,7.4-3.68a12.51,12.51,0,0,1,8.66,3.15c1.46,1.49,1.95,3.22,2.94,4.84a15.16,15.16,0,0,0,4.37,4.43,12.44,12.44,0,0,0,3.48,1.73c3.11.93,6.83.54,10.31.35a36.44,36.44,0,0,1,7.47.23,11.71,11.71,0,0,1,6,2.45c.91.86,1.68,2.24.75,3.11s-3,.84-4.43.28a3.3,3.3,0,0,0-.85-.11,24.12,24.12,0,0,0-6.5.88c-2.44.74-4.36,2-6.74,2.75s-5.66,1.12-7.74.07c-3-1.49-1.34-4.42-3.2-6.42-1.32-1.43-4.17-2.13-6.87-2.56a38.28,38.28,0,0,0-6.45-.51c-2.07,0-4.14.33-6.2.22a13.43,13.43,0,0,1-5.66-1.47C329.55,191.93,328.7,191.1,329.08,190.29Zm-29.81-4.14c.28-1.29,2-2.37,4-2.92a21.13,21.13,0,0,1,6.59-.5,33.1,33.1,0,0,1,12.07,2.88c1.31.63,2.57,1.4,2.84,2.38a4.08,4.08,0,0,1-.32,2.13,3.21,3.21,0,0,0,2.26,4,35.45,35.45,0,0,0,5,.85c1.67.34,3.24,1.4,2.39,2.29A7,7,0,0,1,333,198c-1.34.93-.92,2.28-.73,3.48a7.33,7.33,0,0,1-1.14,5.05,2.06,2.06,0,0,1-.27.44c-2.16,1.82-3.57,4.34-7.24,5a9.12,9.12,0,0,1-6.66-1.68c-1.9-1.47-2.73-3.39-2.23-5.2s2.1-3.32,2.15-5.07c0-1.4-1-2.75-2.26-3.93a20.51,20.51,0,0,0-5.79-3.53c-2.09-.86-4.45-1.52-6.38-2.5S299,187.62,299.27,186.15Zm-7.34,21.43a9.4,9.4,0,0,1-3.31-2.67,2.62,2.62,0,0,1,.51-3.52c1.35-1.3,4.09-2.44,3.44-3.9a4.13,4.13,0,0,0-1.81-1.48l-5.63-3.17c-1.12-.63-2.32-1.36-2.37-2.26,0-.68.62-1.33,1.45-1.81a12,12,0,0,1,9.72-.27c1.77.83,2.77,2.09,4.27,3.09a27.11,27.11,0,0,0,6.61,2.71,27.92,27.92,0,0,1,6.63,2.69c1.8,1.18,2.86,2.85,2,4.34-.63,1.06-2.16,1.92-2.54,3s.18,2.41-1.41,3a11.25,11.25,0,0,1-3.58,0c-2.3-.07-4.33.77-6.51,1.21A13.71,13.71,0,0,1,291.93,207.58Zm28,34.31c-1.83,1-4.39.35-6.81.54-1,.09-2.07-.1-3.12-.11s-2.26.24-2.53.82a.87.87,0,0,0,.21.91c.48.65,1.33,1.17,1.88,1.79s.76,1.45,0,2c-.94.65-2.75.54-4.07.16a9.74,9.74,0,0,1-6.71-6.32c-1-2.49-1.67-5.19-4.62-7.1-2.57-1.65-6.4-2.41-9.75-3.51s-6.6-2.91-6.41-5.13c.11-1.12,1.1-2.16,2.32-3a15.58,15.58,0,0,1,7.31-2.76c2.93-.32,6.23.24,8,1.62a10.25,10.25,0,0,1,2.22,3.15,5.36,5.36,0,0,0,3.71,2.49c2.51.44,5.16-.65,7.75-.39a7.92,7.92,0,0,1,5.47,3.32l5,6a7.47,7.47,0,0,1,1.72,2.83A2.48,2.48,0,0,1,319.9,241.89Zm1-7.72a23.25,23.25,0,0,1-1.45-3.19c-1.75-3.94-5.7-7.56-11.11-10.17-2.78-1.33-6-2.42-8.16-4.08s-3.12-4.14-.9-5.79,6.88-1.74,10.28-.82,6,2.53,9,3.83a8.26,8.26,0,0,0,3,.8c2.87.12,4.41-2.32,7.27-2.54.31,0,1.21,0,1.57.46.63.85-.44,2.6-1.37,3.6s-2.4,1.79-3.47,2.73-1.73,2.21-.8,3.2c1.43,1.56,5.8,1.64,7,3.26s-1.27,3.15-1.24,4.81c0,2.22,4.45,4.09,3.37,6.23-.59,1.17-2.81,1.9-4.92,1.85a11,11,0,0,1-5.45-1.65A8.5,8.5,0,0,1,320.87,234.17Zm58.22,13.43c-2.81,2.43-8,3.66-13.09,3.79-3.94.09-8.39-.31-11.41,1.16a21.11,21.11,0,0,1-2,1,11.61,11.61,0,0,1-4.81.3c-2.47-.23-5.18-.74-6.29-2-.82-1-.53-2.09-.51-3.16a2.72,2.72,0,0,0-2-2.83c-1.58-.51-3.51-.14-5.29,0a21.39,21.39,0,0,1-7-.48c-2.05-.52-4-1.54-4-2.83.06-1.13,1.76-2.07,3.66-2.37a17.89,17.89,0,0,1,5.79.25l.5-.11c2.07-.83,3.48-2.2,3.78-3.65a7.37,7.37,0,0,1,.4-2.06,2.77,2.77,0,0,1,2.51-1.26,3.54,3.54,0,0,1,2.82,1.66,17.35,17.35,0,0,0,5.1,5.12,14.11,14.11,0,0,0,9.29,1.72,31.72,31.72,0,0,0,5.46-2,24.82,24.82,0,0,1,9.7-1.37,16.64,16.64,0,0,1,5.73,1.17C381.5,241.46,381.89,245.16,379.09,247.6Zm12.52-10.46c.18,1.31,2.25,2.35,2.36,3.67.1,1.14-1.32,2.13-2.66,3a6.74,6.74,0,0,1-3.45,1.28,4.7,4.7,0,0,1-3.26-1.2,11.65,11.65,0,0,1-1.48-2.18,10.74,10.74,0,0,0-4.47-3.59l-.39-.1c-2-1.28-5.44-1-8.38-1.2-.62,0-1.34-.15-1.53-.49a.54.54,0,0,1,.08-.5c1.13-1.92,6.06-2.53,6.63-4.52.17-.58-.08-1.2.29-1.73.53-.81,2.22-1.15,3.73-1.18a35.05,35.05,0,0,0,4.48-.11c2-.33,3.58-1.48,3.6-2.7,0-1.74-2.69-3.37-1.83-5,.53-1,2.3-1.69,4.1-1.95s3.67-.22,5.52-.34a28.18,28.18,0,0,1,3.56-.14,13.52,13.52,0,0,1,6.11,2.14,54.94,54.94,0,0,1,9.14,6.56c2.2,2,4.16,4.29,3.18,6.56a8.6,8.6,0,0,1-3.24,3.18,10.09,10.09,0,0,1-3.45,1.6A12.94,12.94,0,0,1,405,238a16.34,16.34,0,0,1-4.42-1.56,12.81,12.81,0,0,0-3.68-1.68C394.38,234.29,391.39,235.63,391.61,237.14Z" style="fill:#fff"></path><path d="M262.94,200.11a30.15,30.15,0,0,0-.21,3.8,8.37,8.37,0,0,1,.93,1.29,2.65,2.65,0,0,1,.06,2.92,3.16,3.16,0,0,1-.59.63c.17,1,.41,2,.68,3.05,1.75-1.11,3.57-2.22,4.51-3.61a3.64,3.64,0,0,0-.43-4.69C266.72,202.19,264.71,201.19,262.94,200.11Z" style="fill:#fff"></path></g><path d="M289.39,166.55a78.68,78.68,0,0,0-9.07,6.1l-.33.26c-.6.49-1.21,1-1.81,1.5l-.51.43c-23.28,20.42-19.38,48.12,11.72,66.08,11.82,6.82,26.07,11.36,41.14,13.65-42.65-10.23-55.14-55.9-26.1-78.47s84.62-20.35,109.3-11.5l.23-.33C378.18,146.06,323.58,146.81,289.39,166.55Z" style="opacity:0.05"></path><path d="M262.24,180.48a122.49,122.49,0,0,0-32.68,83c-.2,54.25,34.89,100.86,83.62,117.84-66.26-43-61.64-134-26.38-170.65l-13.15-50.89-.15.56A48.38,48.38,0,0,1,262.24,180.48Z" style="opacity:0.1"></path></g><g id="freepik--Up--inject-194"><path d="M411.71,138.36c-15.64-9-36.2-14-57.91-14s-42.28,5-57.91,14c-17.42,10.06-27,24-27,39.39s9.59,29.34,27,39.39c15.63,9,36.2,14,57.91,14s42.27-5,57.91-14c17.41-10,27-24,27-39.39S429.12,148.42,411.71,138.36Zm-8.43,63.92c-27.33,15.78-71.64,15.78-99,0s-27.33-41.36,0-57.14,71.64-15.78,99,0S430.61,186.5,403.28,202.28Z" style="fill:#BA68C8"></path><path d="M411.71,138.36c-15.64-9-36.2-14-57.91-14s-42.28,5-57.91,14c-17.42,10.06-27,24-27,39.39s9.59,29.34,27,39.39c15.63,9,36.2,14,57.91,14s42.27-5,57.91-14c17.41-10,27-24,27-39.39S429.12,148.42,411.71,138.36Zm-8.43,63.92c-27.33,15.78-71.64,15.78-99,0s-27.33-41.36,0-57.14,71.64-15.78,99,0S430.61,186.5,403.28,202.28Z" style="fill:#fff;opacity:0.75"></path><path d="M411.71,217.14c12.63-7.29,21.14-16.66,24.87-27.11-1.92,4.66-8.47,17.51-29.91,26.79-28.2,12.21-70.09,13.09-103.34-2s-34.78-42.75-29.68-55l-.08,0a37.13,37.13,0,0,0-4.69,18c0,15.35,9.59,29.34,27,39.39,15.63,9,36.2,14,57.91,14S396.07,226.17,411.71,217.14Z" style="opacity:0.1"></path><path d="M284.37,168.6h0c1.88-8.58,8.51-16.87,19.92-23.46,27.33-15.78,71.64-15.78,99,0,11.13,6.42,17.72,14.47,19.79,22.82h0c-2.46-16.47-15.35-27.52-38-34.36-23-7-51.2-7.07-75.62,3.83C293.54,144.54,284.37,157.25,284.37,168.6Z" style="opacity:0.1"></path><path d="M429.28,161.85c-1.35-.77-3.66-1.27-3.24,2,.74,5.76,1.24,14.31-2.26,22.39-6.53,15.06-28.66,30.35-77.08,32.22,0,0,26.56,5.6,52.92-4.38,23.37-8.85,29.83-19.69,33.52-33.21C435.36,172.84,432.81,163.89,429.28,161.85Z" style="fill:#fff;opacity:0.6000000000000001"></path></g><polygon id="freepik--shadow--inject-194" points="279.88 348.27 286.21 353 289.65 357.26 300.17 357.24 301.81 355.86 305.87 361.58 310.69 362.62 312.86 365.35 319.33 365.2 321.78 362.19 326.38 361.58 330.77 358.37 318.54 347.75 320.14 345.83 279.88 348.27" style="opacity:0.15"></polygon><path id="freepik--Light--inject-194" d="M440.32,192.39s-2,18.26-28.94,30c0,0,27.34,13.52,31.3,61.3,3.09,37.23-27.58,74.84-43.05,83.77C439.3,350.05,456,318.36,463.09,293S468,220.07,440.32,192.39Z" style="fill:#fff;opacity:0.5"></path><g id="freepik--Plants--inject-194"><g id="freepik--Algae--inject-194"><path d="M264.12,269.31c-1.36,3.77-2.44,7.93-1.55,11.9,1.35,6.09,6.86,10,8.74,15.92,2.23,7-1.09,15.13,1.53,21.94,1.09,2.86,3.17,5.27,3.69,8.33a8.37,8.37,0,0,1-1.54,6.37,6.38,6.38,0,0,1-5.41,2.51c-1.45-3.33-4.73-5.28-6.26-8.57-1.91-4.1-.63-9.06.78-13.37s2.92-9.1,1.38-13.39c-1.07-3-3.42-5.12-5.19-7.67a21.88,21.88,0,0,1-3.54-15,39,39,0,0,1,3.86-11.37,59.32,59.32,0,0,0,4-9.7c1-3.52.3-8.41-1.05-13.34a28.39,28.39,0,0,1,3.71,12.21C267.58,261,265.7,264.91,264.12,269.31Z" style="fill:#BA68C8"></path><path d="M264.12,269.31c-1.36,3.77-2.44,7.93-1.55,11.9,1.35,6.09,6.86,10,8.74,15.92,2.23,7-1.09,15.13,1.53,21.94,1.09,2.86,3.17,5.27,3.69,8.33a8.37,8.37,0,0,1-1.54,6.37,6.38,6.38,0,0,1-5.41,2.51c-1.45-3.33-4.73-5.28-6.26-8.57-1.91-4.1-.63-9.06.78-13.37s2.92-9.1,1.38-13.39c-1.07-3-3.42-5.12-5.19-7.67a21.88,21.88,0,0,1-3.54-15,39,39,0,0,1,3.86-11.37,59.32,59.32,0,0,0,4-9.7c1-3.52.3-8.41-1.05-13.34a28.39,28.39,0,0,1,3.71,12.21C267.58,261,265.7,264.91,264.12,269.31Z" style="opacity:0.2"></path><path d="M264.12,269.31c-1.36,3.77-2.44,7.93-1.55,11.9,1.35,6.09,6.86,10,8.74,15.92,2.23,7-1.09,15.13,1.53,21.94,1.09,2.86,3.17,5.27,3.69,8.33.37,2.25,0,7.12-1.44,5.48-3.3-3.86-8-7.5-7.2-15.69.79-8.38,3.48-16.76-3.59-25.91s-4.18-18.11-.54-25.93,2.49-15.17-.18-21.47a28.39,28.39,0,0,1,3.71,12.21C267.58,261,265.7,264.91,264.12,269.31Z" style="opacity:0.1"></path><path d="M274.91,333.48a28.31,28.31,0,0,1-5.87-7.86,18.4,18.4,0,0,1-1.52-9.7c.32-3.23.89-6.41,1.14-9.6a19.54,19.54,0,0,0-1.23-9.32,20.82,20.82,0,0,0-2.36-4.12,36.45,36.45,0,0,1-2.74-4,18.45,18.45,0,0,1-2.61-9.34,22.59,22.59,0,0,1,.53-4.85,29.94,29.94,0,0,1,1.48-4.62c.6-1.51,1.28-3,1.93-4.44a23.91,23.91,0,0,0,1.61-4.55l.08,0a23.79,23.79,0,0,1-1.53,4.59c-.63,1.49-1.28,3-1.85,4.47a28.92,28.92,0,0,0-1.38,4.6,22.51,22.51,0,0,0-.42,4.77,17.94,17.94,0,0,0,2.7,9,38.29,38.29,0,0,0,2.78,3.92,21.38,21.38,0,0,1,2.46,4.25,20.14,20.14,0,0,1,1.36,9.67c-.23,3.25-.77,6.43-1,9.63a17.49,17.49,0,0,0,1.55,9.17,27.1,27.1,0,0,0,5.76,7.47Z" style="fill:#BA68C8"></path></g><g id="freepik--algae--inject-194"><path d="M290.84,314.71a21.91,21.91,0,0,0-3.29-7.25,7.71,7.71,0,0,1-.73-6.83c.85-2.63,2.59-4.67,3.24-7.36a11,11,0,0,0-1.21-8.31c-1.18-1.94-2.61-3.87-2.84-6.14-.18-1.8.43-3.57.75-5.35.19-1,.13-2.39-.84-2.81a2.32,2.32,0,0,0-2.07.42,9.94,9.94,0,0,0-3.92,4.67c-2.44,6.17,1,8.64,1.25,13.23.13,2.31-1.41,4.94-2.33,7s-2.56,3.86-3,6.09c-.74,3.82,2.31,7.36,2.61,11.24.25,3.22-2.55,7.64-.76,10.59.59,1,3.39,2,4.45,2.5,2.26,1,3.89-2.71,5.4-4.23C289.49,320.29,291.35,317.56,290.84,314.71Z" style="fill:#BA68C8"></path><path d="M290.84,314.71a21.91,21.91,0,0,0-3.29-7.25,7.71,7.71,0,0,1-.73-6.83c.85-2.63,2.59-4.67,3.24-7.36a11,11,0,0,0-1.21-8.31c-1.18-1.94-2.61-3.87-2.84-6.14-.18-1.8.43-3.57.75-5.35.19-1,.13-2.39-.84-2.81a2.32,2.32,0,0,0-2.07.42,9.94,9.94,0,0,0-3.92,4.67c-2.44,6.17,1,8.64,1.25,13.23.13,2.31-1.41,4.94-2.33,7s-2.56,3.86-3,6.09c-.74,3.82,2.31,7.36,2.61,11.24.25,3.22-2.55,7.64-.76,10.59.59,1,3.39,2,4.45,2.5,2.26,1,3.89-2.71,5.4-4.23C289.49,320.29,291.35,317.56,290.84,314.71Z" style="opacity:0.1"></path><path d="M283.34,275.9a7.1,7.1,0,0,0-.22,3.24,17.5,17.5,0,0,0,.83,3.18,28.41,28.41,0,0,1,1.73,6.24,8.49,8.49,0,0,1-.25,3.14,10.31,10.31,0,0,1-.58,1.48l-.71,1.47a46.12,46.12,0,0,0-2.7,6,13.35,13.35,0,0,0-.28,6.7c.09.56.26,1.09.39,1.64l.43,1.57c.28,1,.54,2.09.77,3.14a29.09,29.09,0,0,1,.75,6.32,12.1,12.1,0,0,1-1.43,5.88l1.55.85a13.55,13.55,0,0,0,1.43-6.74,29.66,29.66,0,0,0-1-6.61c-.26-1.07-.57-2.13-.89-3.18s-.67-2.07-.9-3.1a12.25,12.25,0,0,1,.05-6.22,44.29,44.29,0,0,1,2.44-6l.66-1.5a9.56,9.56,0,0,0,.56-1.58,9,9,0,0,0,.17-3.34,29.13,29.13,0,0,0-2-6.27,18.19,18.19,0,0,1-.93-3.11A7.05,7.05,0,0,1,283.34,275.9Z" style="fill:#fafafa"></path></g><g id="freepik--Rock--inject-194"><polygon points="294.75 320.02 305.49 329.3 308.74 335.43 300.95 335.56 290.64 338.81 288.89 332.33 294.1 326.81 294.75 320.02" style="fill:#BA68C8"></polygon><polygon points="294.75 320.02 305.49 329.3 308.74 335.43 300.95 335.56 290.64 338.81 288.89 332.33 294.1 326.81 294.75 320.02" style="opacity:0.30000000000000004"></polygon><polygon points="294.75 320.02 287.56 319.36 285.1 326.41 288.89 332.33 294.1 326.81 294.75 320.02" style="fill:#BA68C8"></polygon><polygon points="294.75 320.02 287.56 319.36 285.1 326.41 288.89 332.33 294.1 326.81 294.75 320.02" style="opacity:0.35000000000000003"></polygon><polygon points="276.14 325.79 274.42 331.33 279.81 330.35 285.61 334.37 287.93 338.21 289.21 345.34 290.13 355.22 294.27 347.36 290.64 338.81 286.71 333.02 280.27 329.78 276.14 325.79" style="fill:#BA68C8"></polygon><polygon points="279.88 348.3 272.08 339.75 276.68 333.58 279.88 348.3" style="fill:#BA68C8"></polygon><g style="opacity:0.5"><polygon points="276.14 325.79 274.42 331.33 279.81 330.35 285.61 334.37 287.93 338.21 289.21 345.34 290.13 355.22 294.27 347.36 290.64 338.81 286.71 333.02 280.27 329.78 276.14 325.79"></polygon><polygon points="279.88 348.3 272.08 339.75 276.68 333.58 279.88 348.3"></polygon></g><polygon points="301.02 325.43 304.63 330.94 305.25 333.83 300.99 333.48 290.64 338.81 300.95 335.56 308.74 335.43 305.49 329.3 301.02 325.43" style="fill:#BA68C8"></polygon><polygon points="287.56 319.36 286.79 326.28 290.24 330.9 288.89 332.33 285.1 326.41 287.56 319.36" style="fill:#BA68C8"></polygon><polygon points="294.27 347.36 299.84 347.08 311.37 345.1 319.06 340.86 317.04 336.76 312.97 335.52 316.13 337.46 316.29 340.17 312.09 342.59 295.1 345.87 290.64 338.81 294.27 347.36" style="fill:#BA68C8"></polygon><g style="opacity:0.25"><polygon points="301.02 325.43 304.63 330.94 305.25 333.83 300.99 333.48 290.64 338.81 300.95 335.56 308.74 335.43 305.49 329.3 301.02 325.43"></polygon><polygon points="287.56 319.36 286.79 326.28 290.24 330.9 288.89 332.33 285.1 326.41 287.56 319.36"></polygon><polygon points="294.27 347.36 299.84 347.08 311.37 345.1 319.06 340.86 317.04 336.76 312.97 335.52 316.13 337.46 316.29 340.17 312.09 342.59 295.1 345.87 290.64 338.81 294.27 347.36"></polygon></g><polygon points="305.49 329.3 312.97 335.52 316.13 337.46 316.29 340.17 312.09 342.59 295.1 345.87 293.84 343.88 300.17 339.48 304.31 340.38 308.74 335.43 305.49 329.3" style="fill:#BA68C8"></polygon><polygon points="305.49 329.3 312.97 335.52 316.13 337.46 316.29 340.17 312.09 342.59 295.1 345.87 293.84 343.88 300.17 339.48 304.31 340.38 308.74 335.43 305.49 329.3" style="opacity:0.35000000000000003"></polygon><polygon points="287.56 319.36 276.14 325.79 280.27 329.78 286.71 333.02 290.64 338.81 288.89 332.33 285.1 326.41 287.56 319.36" style="fill:#BA68C8"></polygon><polygon points="279.81 330.35 285.61 334.37 287.93 338.21 289.21 345.34 286.46 351.41 279.88 348.3 276.68 333.58 279.81 330.35" style="fill:#BA68C8"></polygon><polygon points="308.74 335.43 304.31 340.38 300.17 339.48 300.95 335.56 308.74 335.43" style="fill:#BA68C8"></polygon><polygon points="312.46 349.26 308.88 349.64 307.43 347.49 299.84 347.08 311.37 345.1 312.46 349.26" style="fill:#BA68C8"></polygon><g style="opacity:0.45"><polygon points="287.56 319.36 276.14 325.79 280.27 329.78 286.71 333.02 290.64 338.81 288.89 332.33 285.1 326.41 287.56 319.36"></polygon><polygon points="279.81 330.35 285.61 334.37 287.93 338.21 289.21 345.34 286.46 351.41 279.88 348.3 276.68 333.58 279.81 330.35"></polygon><polygon points="308.74 335.43 304.31 340.38 300.17 339.48 300.95 335.56 308.74 335.43"></polygon><polygon points="312.46 349.26 308.88 349.64 307.43 347.49 299.84 347.08 311.37 345.1 312.46 349.26"></polygon></g><polygon points="296.6 347.24 299.84 347.08 302.39 351.06 298.76 354.69 296.6 347.24" style="fill:#BA68C8"></polygon><polygon points="296.6 347.24 299.84 347.08 302.39 351.06 298.76 354.69 296.6 347.24" style="opacity:0.35000000000000003"></polygon><polygon points="274.42 331.33 269.58 336.28 272.08 339.75 276.68 333.58 279.81 330.35 274.42 331.33" style="fill:#BA68C8"></polygon><polygon points="290.13 355.22 286.46 351.41 289.21 345.34 290.13 355.22" style="fill:#BA68C8"></polygon><polygon points="290.64 338.81 293.84 343.88 300.17 339.48 300.95 335.56 290.64 338.81" style="fill:#BA68C8"></polygon><polygon points="319.06 340.86 320.14 345.85 312.46 349.26 311.37 345.1 319.06 340.86" style="fill:#BA68C8"></polygon><polygon points="290.13 355.22 298.76 354.69 296.6 347.24 294.27 347.36 290.13 355.22" style="fill:#BA68C8"></polygon><polygon points="308.88 349.64 302.39 351.06 299.84 347.08 307.43 347.49 308.88 349.64" style="fill:#BA68C8"></polygon><g style="opacity:0.4"><polygon points="274.42 331.33 269.58 336.28 272.08 339.75 276.68 333.58 279.81 330.35 274.42 331.33"></polygon><polygon points="290.13 355.22 286.46 351.41 289.21 345.34 290.13 355.22"></polygon><polygon points="290.64 338.81 293.84 343.88 300.17 339.48 300.95 335.56 290.64 338.81"></polygon><polygon points="319.06 340.86 320.14 345.85 312.46 349.26 311.37 345.1 319.06 340.86"></polygon><polygon points="290.13 355.22 298.76 354.69 296.6 347.24 294.27 347.36 290.13 355.22"></polygon><polygon points="308.88 349.64 302.39 351.06 299.84 347.08 307.43 347.49 308.88 349.64"></polygon></g><polygon points="274.42 331.33 276.14 325.79 287.56 319.36 294.75 320.02 305.49 329.3 312.97 335.52 317.04 336.76 319.06 340.86 320.14 345.85 312.46 349.26 308.88 349.64 302.39 351.06 298.76 354.69 290.13 355.22 286.46 351.41 279.88 348.3 272.08 339.75 269.58 336.28 274.42 331.33" style="opacity:0.2"></polygon></g><path d="M335,320.15a.35.35,0,0,0-.14.13,5.08,5.08,0,0,1-1.41,1.36,13.76,13.76,0,0,1-1.84,1l-.34.2c0-.08,0-.17,0-.25,0-1-.07-2,0-3a4.77,4.77,0,0,1,.95-3.21c.12-.12-.09-.51-.24-.4a3.61,3.61,0,0,0-1.08,1.12,5.74,5.74,0,0,0-.57,1.47,14.92,14.92,0,0,0-.26,3.34,15.1,15.1,0,0,1-.4,3.06,5.12,5.12,0,0,1-.45,1.28,7.31,7.31,0,0,0-.29.78c0,.12-.36.61-.33.72-.07-.25-.15-.49-.22-.74a13.46,13.46,0,0,1-.47-1.87,5.24,5.24,0,0,1,.26-2.22c0-.14-.16-.49-.27-.28a7.49,7.49,0,0,0-.65,3.3c0,1.11.25,2.2.28,3.31a10.88,10.88,0,0,1-.15,1.51,7.07,7.07,0,0,1-.53,2.33A13.16,13.16,0,0,1,325,335.3c0-.22,0-.45-.05-.67a21.89,21.89,0,0,1-.06-2.29,7.18,7.18,0,0,1,.1-1,11.53,11.53,0,0,1,.27-1.3,5,5,0,0,1,1.14-1.92c.13-.15-.13-.56-.3-.43a6.7,6.7,0,0,0-1.68,1.84,4.81,4.81,0,0,0-.52,1.07,11.23,11.23,0,0,0-.28,1.28c0,.16,0,.32-.05.48l0-.08a4.05,4.05,0,0,1-.54-2.4c0-.13-.22-.46-.3-.24a4.82,4.82,0,0,0-.22,2,9.82,9.82,0,0,0,.64,2.17,5.71,5.71,0,0,1,.49,1.84,4.22,4.22,0,0,1-.53,1.45,5.78,5.78,0,0,1-2,2.2,13.14,13.14,0,0,1-2.85,1.5,7.49,7.49,0,0,0,1-1.15,25.49,25.49,0,0,0,1.3-2.87,6,6,0,0,1,1-1.32,2.59,2.59,0,0,0,.84-1.13s0-.06,0-.06c-.77-.15-1.7.7-2.19,1.24a25.75,25.75,0,0,0-2,3.05,7.47,7.47,0,0,1-1.9,1.82,6.76,6.76,0,0,1-1.84.84,8.85,8.85,0,0,1,.5-1.76,10.12,10.12,0,0,1,1-2.11,8.88,8.88,0,0,1,1.66-1.75,13.47,13.47,0,0,0,2.38-2,6.09,6.09,0,0,0,1.16-3.1c.15-1.06-.13-2.06.41-3.05.69-1.27,2.22-1.66,3.2-2.64a2.76,2.76,0,0,0,.82-2.83c0-.08-.14-.16-.15,0a2.56,2.56,0,0,1-.3.84,2.06,2.06,0,0,1-.55.75,8.11,8.11,0,0,1-1.54,1.06,8.48,8.48,0,0,0-2.3,1.38,6,6,0,0,1,.06-2.38c.05-.19-.26-.59-.38-.31a7.26,7.26,0,0,0-.51,1.51,6.43,6.43,0,0,0,0,1.52,27.82,27.82,0,0,1,.12,3.16,5.39,5.39,0,0,1-1,2.79,5.18,5.18,0,0,1-1.29,1.23,12.32,12.32,0,0,0,.83-3.92,8.55,8.55,0,0,0-.15-1.82,12.73,12.73,0,0,1-.36-1.6,5.27,5.27,0,0,1,.61-2.94,6.26,6.26,0,0,1,3.26-2.69c1.16-.49,2.38-.8,3.56-1.2a10.31,10.31,0,0,0,2.78-1.27,3.37,3.37,0,0,0,1-1,2.87,2.87,0,0,0,.25-1.43c-1.44,1.76-3.55,2.32-5.65,2.87-.78.2-1.56.42-2.33.7l.09-.09c2.23-2,4.75-3.88,5.93-6.73.06-.15-.18-.53-.31-.34a15.13,15.13,0,0,1-3.19,3.25.13.13,0,0,0,0-.06,4.82,4.82,0,0,0-.75-1.85c-.14-.22-.36-.45-.62-.41a5.08,5.08,0,0,1,.47,1.95,2,2,0,0,1-.94,1.78,14,14,0,0,0-2.18,1.82c-.17.16-.32.33-.48.49.16-.24.33-.47.48-.71a8.29,8.29,0,0,0,.79-1.71,10,10,0,0,0,.2-2,4.07,4.07,0,0,1,.17-1.1,2.3,2.3,0,0,1,1.16-1.16,6.75,6.75,0,0,0,2.22-1.59c.11-.17-.13-.57-.31-.39a7.23,7.23,0,0,1-2.83,1.29,3.9,3.9,0,0,0-1.57,1l0,0a11.61,11.61,0,0,1-.93-1.39,2,2,0,0,1-.23-1.34c0-.07-.06-.27-.14-.16s-.26.22-.31.42a1.75,1.75,0,0,0,0,.56,4.18,4.18,0,0,0,.38,1.23c.39.84,1.14,1.7,1.12,2.67a5.7,5.7,0,0,1-.47,1.8,12.81,12.81,0,0,1-.85,1.54l0,.05a.76.76,0,0,0-.06-.16,15.6,15.6,0,0,1-1.72-3.9c0-.07-.12-.23-.19-.12a3.16,3.16,0,0,0,.18,2.88,9.37,9.37,0,0,1,1,3.28,7.65,7.65,0,0,1-.94,3.52c-.1-.16-.25-.28-.35-.44a6.58,6.58,0,0,1-.42-.73,10.58,10.58,0,0,1-.63-1.52,10.17,10.17,0,0,1-.51-3.24c-.34.12-.44.54-.47.9a9.07,9.07,0,0,0,.54,4c.5,1.31,1.19,2.54,1.68,3.86a8.09,8.09,0,0,1,.5,2.12c.31,4.05-2.59,7.3-3.9,10.9a8.12,8.12,0,0,0-.46,3.88l0,0a15,15,0,0,1-1.38-1.5c-.08-.27-.18-.53-.25-.8a4.75,4.75,0,0,1-.15-1.72c.18-1.47,1.39-2.52,2.25-3.62.11-.14-.07-.51-.27-.45a5.18,5.18,0,0,0-3.33,3.06,8.79,8.79,0,0,1-.14-1.45,2.87,2.87,0,0,1,.53-1.25,8,8,0,0,1,1.91-2.23c.49-.39,1-.79,1.45-1.2a7.29,7.29,0,0,0,1.08-.92A5.77,5.77,0,0,0,315,330a3.82,3.82,0,0,0,.45-2,.24.24,0,0,0-.11-.2.18.18,0,0,0-.2.06.47.47,0,0,0-.1.2,4.62,4.62,0,0,1-1.49,2.05c-.82.68-1.69,1.25-2.49,1.95a4.88,4.88,0,0,0,.24-2,2.16,2.16,0,0,1,.15-1.57,22.53,22.53,0,0,0,1.46-2.63,8.13,8.13,0,0,0,.05-3.83,9,9,0,0,0-.89-2.3l0-1.23a9.89,9.89,0,0,1,.16-1.71c.08-.2.15-.4.23-.62a4.68,4.68,0,0,1,.52-1c.77-1.17,1.93-2,2.72-3.18a5,5,0,0,0,.93-3c0-.14-.09-.33-.23-.3s-.13.15-.15.25a3.77,3.77,0,0,1-1.1,2.09c-.7.59-1.42,1.21-2.06,1.86-.08.07-.15.15-.22.22a5.94,5.94,0,0,0-1.4-4.25c-.12-.14-.34-.12-.31.1a5.4,5.4,0,0,0,.47,1.17,3.3,3.3,0,0,1,.34,1.8c-.17,1.17-.55,2.29-.83,3.44a14,14,0,0,0-.38,2.24c-.78-1.08-1.62-2.14-2.31-3.29,0-.09-.18-.11-.18,0a7.24,7.24,0,0,0,1.36,3.48,12.32,12.32,0,0,1,1.75,3.81,7.8,7.8,0,0,1-.06,3.87,12.16,12.16,0,0,1-1.32,2.25,2.82,2.82,0,0,1-.81-1.88,2.89,2.89,0,0,1,0-.88,5.26,5.26,0,0,0,.13-1,4.39,4.39,0,0,0-1.09-2.82s0,0,0,0a7.23,7.23,0,0,0-.12-3.07,5.84,5.84,0,0,0-.62-1.43,4.55,4.55,0,0,1-.72-1.36c-.23-1,.63-1.65,1.21-2.35a4.2,4.2,0,0,0,.81-1.32,2.51,2.51,0,0,0,0-1.51c0-.12-.22-.19-.22,0a1.22,1.22,0,0,1-.46.89c-.36.38-.75.74-1.14,1.1s-.72.67-1.06,1a3.4,3.4,0,0,0-.74,1.09c0,.08,0,.15-.07.22a5.75,5.75,0,0,1-2.34-1.88c-.1-.18-.37-.18-.28.07.5,1.54,2.09,2.21,3.07,3.39a5.69,5.69,0,0,1,1.31,4.06,5.91,5.91,0,0,0-1.37-.57,5.48,5.48,0,0,1-2.21-1,1.18,1.18,0,0,0,.45.69,3.19,3.19,0,0,0,.71.51,5.75,5.75,0,0,1,.87.41,6.67,6.67,0,0,1,2,1.66,3.55,3.55,0,0,1,.65,2.56c0,.21,0,1-.22,1.14s-.61-.72-.72-.88-.08-.11-.14-.1-.1.16-.07.26a11,11,0,0,0,1.6,3.34c.38.49.85.9,1.21,1.41a1.83,1.83,0,0,1,.16,1.36,10.21,10.21,0,0,1-1.09,2.67,6.07,6.07,0,0,0-.43,4.84l.06.15a7,7,0,0,1-1.28-1.32,3.53,3.53,0,0,1-.52-1.73,12.41,12.41,0,0,1,.95-3.63,8,8,0,0,0,.32-1.88.9.9,0,0,0,0-.37.33.33,0,0,0-.26-.24A3.4,3.4,0,0,1,307,331a12.12,12.12,0,0,1-1,1.2,3.76,3.76,0,0,0-.46.89l-.12.38a7.35,7.35,0,0,1-.14-1.42c0-1,.16-2.08.16-3.13a13.56,13.56,0,0,0-.46-3.17,11.17,11.17,0,0,0-2.59-4.84,4.12,4.12,0,0,1-.2-.51,6.43,6.43,0,0,1-.28-2.38,8.78,8.78,0,0,0-.07-2.29,7.45,7.45,0,0,0-.86-2.15c-.12-.21-.3,0-.22.15a3.61,3.61,0,0,1,.25,2.22,20.5,20.5,0,0,0-.4,2.45,6.62,6.62,0,0,0,0,1.09,11.25,11.25,0,0,0-3.5-1.43c-.22,0-.13.31,0,.36a7.55,7.55,0,0,1,2.34,1.33,15.78,15.78,0,0,1,1.74,1.91l.07.11a2.3,2.3,0,0,0,.35.51,13.42,13.42,0,0,1,1.89,5.09c.32,2-.22,4,.08,6a6.56,6.56,0,0,0,.19.88l-.37-.42-.2-.41a10.29,10.29,0,0,1-.71-1.55,12.14,12.14,0,0,1-.48-3.11,21.06,21.06,0,0,0-.35-3.17c-.09-.42-.3-.76-.42-1.16a6.73,6.73,0,0,0-.54-1.27,5.41,5.41,0,0,0-.45-.72c-.08-.11-.3-.37-.33,0a.62.62,0,0,0,.06.26,8.62,8.62,0,0,1,.64,3.13c0,1.15-.07,2.31-.05,3.47-.39-.87-.76-1.75-1.15-2.65-.76-1.74-2-3.6-4-4.05-.12,0-.07.21,0,.25,1.12.8,1.53,2.61,2.06,3.82l.18.44a7.19,7.19,0,0,0-1.4-.81,2.66,2.66,0,0,0-2.08-.17s0,.11,0,.12c.38.18.8.23,1.19.37a6.58,6.58,0,0,1,1,.49,5.33,5.33,0,0,1,1.44,1.32,10.31,10.31,0,0,1,1,1.71,26.49,26.49,0,0,0,2.32,3.77c.41.54.84,1.05,1.29,1.55s1,1,1.46,1.53a25.79,25.79,0,0,1-2.36-1.16c-.33-.2-.64-.42-1-.64a10.57,10.57,0,0,1-2.76-2.4,6.69,6.69,0,0,0-1.59-1.76c-.15-.11-.17.15-.09.23a8.79,8.79,0,0,1,1.55,2.59,6.75,6.75,0,0,0,1.62,1.95,6,6,0,0,0,.48.4h0c-.83-.12-1.87.37-2.44-.49-.08-.12-.15,0-.11.13a1.36,1.36,0,0,0,1,.81c.46.09.92,0,1.38.09a5.46,5.46,0,0,1,.88.24l.77.26c.66.38,1.35.71,2.06,1a12.72,12.72,0,0,1,3.79,2.32c.54.52,1.11,1,1.64,1.54a6.24,6.24,0,0,0,1.53,1.38,3.37,3.37,0,0,0,1.31.8.91.91,0,0,0,1.06-.47,1.56,1.56,0,0,0,1.6.95.43.43,0,0,0,.3-.18.92.92,0,0,0,0-.74c.82-.25,2.13-.57,2.29-.6a25.28,25.28,0,0,0,2.73-.67,63.63,63.63,0,0,0,6.74-2.29L327,340l.36-.08c.89-.13,1.79-.14,2.67-.28,1.41-.21,3.27-.54,4.05-1.89,0-.08,0-.32-.15-.24a6.41,6.41,0,0,1-2.18,1.1,10.28,10.28,0,0,1-2.35.21,12.83,12.83,0,0,0,2.06-1.43,7,7,0,0,0,2.47-4.28c0-.13-.17-.39-.23-.18-.57,1.78-2.45,3.08-4,4a26.11,26.11,0,0,1-4.5,2.14,3.43,3.43,0,0,0-.9.34c-.37.14-.73.27-1.1.39l.38-.27a47.72,47.72,0,0,0,3.91-3.33c1-.95,2.21-2.38,3.67-2.62.26,0,0-.49-.18-.49a5,5,0,0,0-1.44.19,5.44,5.44,0,0,0-.68.23c-.14.06-.27.18-.4.22a3.49,3.49,0,0,1,.2-1.35,6.84,6.84,0,0,1,.5-1.3,6.93,6.93,0,0,1,1.68-2.16,16.31,16.31,0,0,0,2.11-1.87c.51-.63.73-1.41,1.21-2,.12-.16-.13-.56-.29-.38-.52.58-.9,1.29-1.48,1.83A13.71,13.71,0,0,1,330,328c.22-.53.42-1.08.6-1.62a5.33,5.33,0,0,1,.58-1.37,6.38,6.38,0,0,1,1-1.13c1.07-.95,2.41-1.72,2.89-3.14l.06-.19a.59.59,0,0,0,0-.26A.19.19,0,0,0,335,320.15Z" style="fill:#37474f"></path><g id="freepik--rock--inject-194"><polygon points="316.21 343.62 322.37 348.93 324.23 352.43 319.77 352.51 313.87 354.38 312.86 350.68 315.85 347.51 316.21 343.62" style="fill:#BA68C8"></polygon><polygon points="316.21 343.62 322.37 348.93 324.23 352.43 319.77 352.51 313.87 354.38 312.86 350.68 315.85 347.51 316.21 343.62" style="opacity:0.30000000000000004"></polygon><polygon points="316.21 343.62 312.09 343.25 310.69 347.29 312.86 350.68 315.85 347.51 316.21 343.62" style="fill:#BA68C8"></polygon><polygon points="316.21 343.62 312.09 343.25 310.69 347.29 312.86 350.68 315.85 347.51 316.21 343.62" style="opacity:0.35000000000000003"></polygon><polygon points="305.56 346.94 304.58 350.12 307.66 349.55 310.98 351.85 312.32 354.05 313.06 358.13 313.6 363.78 315.96 359.28 313.87 354.38 311.62 351.07 307.92 349.22 305.56 346.94" style="fill:#BA68C8"></polygon><polygon points="307.72 359.83 303.24 354.94 305.87 351.4 307.72 359.83" style="fill:#BA68C8"></polygon><g style="opacity:0.5"><polygon points="305.56 346.94 304.58 350.12 307.66 349.55 310.98 351.85 312.32 354.05 313.06 358.13 313.6 363.78 315.96 359.28 313.87 354.38 311.62 351.07 307.92 349.22 305.56 346.94"></polygon><polygon points="307.72 359.83 303.24 354.94 305.87 351.4 307.72 359.83"></polygon></g><polygon points="319.81 346.72 321.88 349.87 322.24 351.52 319.79 351.32 313.87 354.38 319.77 352.51 324.23 352.43 322.37 348.93 319.81 346.72" style="fill:#BA68C8"></polygon><polygon points="312.09 343.25 311.66 347.21 313.64 349.85 312.86 350.68 310.69 347.29 312.09 343.25" style="fill:#BA68C8"></polygon><polygon points="315.96 359.28 319.15 359.12 325.75 357.97 330.15 355.54 328.99 353.19 326.66 352.48 328.47 353.6 328.56 355.14 326.16 356.53 316.43 358.43 313.87 354.38 315.96 359.28" style="fill:#BA68C8"></polygon><g style="opacity:0.25"><polygon points="319.81 346.72 321.88 349.87 322.24 351.52 319.79 351.32 313.87 354.38 319.77 352.51 324.23 352.43 322.37 348.93 319.81 346.72"></polygon><polygon points="312.09 343.25 311.66 347.21 313.64 349.85 312.86 350.68 310.69 347.29 312.09 343.25"></polygon><polygon points="315.96 359.28 319.15 359.12 325.75 357.97 330.15 355.54 328.99 353.19 326.66 352.48 328.47 353.6 328.56 355.14 326.16 356.53 316.43 358.43 313.87 354.38 315.96 359.28"></polygon></g><polygon points="322.37 348.93 326.66 352.48 328.47 353.6 328.56 355.14 326.16 356.53 316.43 358.43 315.71 357.29 319.33 354.76 321.7 355.28 324.23 352.43 322.37 348.93" style="fill:#BA68C8"></polygon><polygon points="322.37 348.93 326.66 352.48 328.47 353.6 328.56 355.14 326.16 356.53 316.43 358.43 315.71 357.29 319.33 354.76 321.7 355.28 324.23 352.43 322.37 348.93" style="opacity:0.35000000000000003"></polygon><polygon points="312.09 343.25 305.56 346.94 307.92 349.22 311.62 351.07 313.87 354.38 312.86 350.68 310.69 347.29 312.09 343.25" style="fill:#BA68C8"></polygon><polygon points="307.66 349.55 310.98 351.85 312.32 354.05 313.06 358.13 311.49 361.61 307.72 359.83 305.87 351.4 307.66 349.55" style="fill:#BA68C8"></polygon><polygon points="324.23 352.43 321.7 355.28 319.33 354.76 319.77 352.51 324.23 352.43" style="fill:#BA68C8"></polygon><polygon points="326.38 360.35 324.33 360.58 323.5 359.34 319.15 359.12 325.75 357.97 326.38 360.35" style="fill:#BA68C8"></polygon><g style="opacity:0.45"><polygon points="312.09 343.25 305.56 346.94 307.92 349.22 311.62 351.07 313.87 354.38 312.86 350.68 310.69 347.29 312.09 343.25"></polygon><polygon points="307.66 349.55 310.98 351.85 312.32 354.05 313.06 358.13 311.49 361.61 307.72 359.83 305.87 351.4 307.66 349.55"></polygon><polygon points="324.23 352.43 321.7 355.28 319.33 354.76 319.77 352.51 324.23 352.43"></polygon><polygon points="326.38 360.35 324.33 360.58 323.5 359.34 319.15 359.12 325.75 357.97 326.38 360.35"></polygon></g><polygon points="317.29 359.21 319.15 359.12 320.61 361.39 318.54 363.47 317.29 359.21" style="fill:#BA68C8"></polygon><polygon points="317.29 359.21 319.15 359.12 320.61 361.39 318.54 363.47 317.29 359.21" style="opacity:0.35000000000000003"></polygon><polygon points="304.58 350.12 301.81 352.95 303.24 354.94 305.87 351.4 307.66 349.55 304.58 350.12" style="fill:#BA68C8"></polygon><polygon points="313.6 363.78 311.49 361.61 313.06 358.13 313.6 363.78" style="fill:#BA68C8"></polygon><polygon points="313.87 354.38 315.71 357.29 319.33 354.76 319.77 352.51 313.87 354.38" style="fill:#BA68C8"></polygon><polygon points="330.15 355.54 330.77 358.39 326.38 360.35 325.75 357.97 330.15 355.54" style="fill:#BA68C8"></polygon><polygon points="313.6 363.78 318.54 363.47 317.29 359.21 315.96 359.28 313.6 363.78" style="fill:#BA68C8"></polygon><polygon points="324.33 360.58 320.61 361.39 319.15 359.12 323.5 359.34 324.33 360.58" style="fill:#BA68C8"></polygon><g style="opacity:0.4"><polygon points="304.58 350.12 301.81 352.95 303.24 354.94 305.87 351.4 307.66 349.55 304.58 350.12"></polygon><polygon points="313.6 363.78 311.49 361.61 313.06 358.13 313.6 363.78"></polygon><polygon points="313.87 354.38 315.71 357.29 319.33 354.76 319.77 352.51 313.87 354.38"></polygon><polygon points="330.15 355.54 330.77 358.39 326.38 360.35 325.75 357.97 330.15 355.54"></polygon><polygon points="313.6 363.78 318.54 363.47 317.29 359.21 315.96 359.28 313.6 363.78"></polygon><polygon points="324.33 360.58 320.61 361.39 319.15 359.12 323.5 359.34 324.33 360.58"></polygon></g></g></g></g><g id="freepik--Fish--inject-194"><path d="M360.39,324a1.62,1.62,0,1,0,1.74-1.49A1.63,1.63,0,0,0,360.39,324Z" style="fill:#263238"></path><path d="M418.85,295.78c2.39-.7,11.31-6.27,12.53-14.68,1.13-7.77-1.08-12.31-7.08-18.53-9.94-10.29-9.17-15.57-6.5-19.06,0,0-6.19,3.58-5.6,13.19.28,4.41,3.37,7.71,5.3,11.41s-3.9,4.65-3.28,9.19c.31,2.19,3.42,4.47,4.12,8s-3.34,4.26-2.9,6.88,1,2.17,1.45,3.48Z" style="fill:#BA68C8"></path><path d="M418.85,295.78c2.39-.7,11.31-6.27,12.53-14.68,1.13-7.77-1.08-12.31-7.08-18.53-9.94-10.29-9.17-15.57-6.5-19.06,0,0-6.19,3.58-5.6,13.19.28,4.41,3.37,7.71,5.3,11.41s-3.9,4.65-3.28,9.19c.31,2.19,3.42,4.47,4.12,8s-3.34,4.26-2.9,6.88,1,2.17,1.45,3.48Z" style="opacity:0.55"></path><path d="M418.85,295.78l1.6,6s3.73.4,6,8.63a17.69,17.69,0,0,1-1.65,13.92c6.34-1.08,9.21-7.43,9.55-11.44a21,21,0,0,0-2-10s3.54-6.13,3.56-12.35c0-6-1.8-13.22-6.08-20.81,1.79,3.37,2.29,6.85,1.62,11.47C430.16,289.51,421.24,295.09,418.85,295.78Z" style="fill:#BA68C8"></path><path d="M418.85,295.78l1.6,6s3.73.4,6,8.63a17.69,17.69,0,0,1-1.65,13.92c6.34-1.08,9.21-7.43,9.55-11.44a21,21,0,0,0-2-10s3.54-6.13,3.56-12.35c0-6-1.8-13.22-6.08-20.81,1.79,3.37,2.29,6.85,1.62,11.47C430.16,289.51,421.24,295.09,418.85,295.78Z" style="opacity:0.4"></path><path d="M418.85,295.78c3.16,2,10.09-1.83,13.16-7.16,0,0-1,5-7.34,8.13,0,0,6.7.07,10.61-5.31a15.1,15.1,0,0,1-7.88,6.88,10.94,10.94,0,0,1,4.88,4.48,12.69,12.69,0,0,0-8.15-3.71,10,10,0,0,1,7,7.77,19.67,19.67,0,0,1-1.49,11.4c1.52-5,2-12.3-3.15-15.9-4.15-2.93-6-.63-6-.63Z" style="opacity:0.15"></path><path d="M413,260.11c1.56,3.42,6.84,7.07,11.51,12.3s4.67,9.4,3.72,10.81a11.1,11.1,0,0,0-4.8-7.17c-3.37-2.1-6.41-2.51-8.43-2,1.37-2.11,3.87-3.35,2.51-6S414.09,263,413,260.11Z" style="opacity:0.15"></path><path d="M416.78,281.74c4,2.47,5.86,5.18,6,8.29.1,1.77-1.73-2.53-4.71-2.55a3.39,3.39,0,0,0,.24-2.21A10,10,0,0,0,416.78,281.74Z" style="opacity:0.15"></path><path d="M415.79,246.43a14,14,0,0,0-2.4,5,13.46,13.46,0,0,0,2.72,11.94c3.66,4.24,6.4,6.89,6.4,6.89-3.72-3.56-7.27-6.44-9-9.07a12.38,12.38,0,0,1-1.27-4.53c-.44-7.32,3-11.13,4.71-12.54.29-.23.58-.45.89-.65a8,8,0,0,0-1.17,8.05A9.23,9.23,0,0,1,415.79,246.43Z" style="fill:#BA68C8"></path><path d="M415,274.08c-1,1.83-.57,3.76.73,5.45s4.55,4,5.55,5.61a8.32,8.32,0,0,1,1.54,4.89,9.7,9.7,0,0,0-2.79-5.57A11.14,11.14,0,0,0,417,282c-.85-1.35-2.31-2.4-2.75-4.33A4.26,4.26,0,0,1,415,274.08Z" style="fill:#BA68C8"></path><path d="M418.85,295.78a23.21,23.21,0,0,0,9.26-6.56c4.38-5,5-14.11,1.65-19.58,1.68,2.87,3.55,11.17-1,17.7A26.54,26.54,0,0,1,418.85,295.78Z" style="fill:#BA68C8"></path><path d="M420.5,301.74a10.3,10.3,0,0,1,6,3.48c3,3.25,2.88,10.37,4.69,10.17s3.05-5.68,2-10.39a19.82,19.82,0,0,1,1.13,7.84c-.34,4-3.21,10.36-9.55,11.44a17.69,17.69,0,0,0,1.65-13.92C424.33,302.69,421,301.82,420.5,301.74Z" style="opacity:0.1"></path><path d="M367.86,332.6c.11,2.46,1.09,5.15,5.07,8.81s11.37,5.51,12.58,5.67a3,3,0,0,0,1.05-1.79c.07-.89-.47-1.87,0-2.83s1.47-.7,2.31-1.64a3,3,0,0,0,.43-2.23,20,20,0,0,1-12-1.28,13.78,13.78,0,0,1-7-6.06C369.66,330,367.75,330.15,367.86,332.6Z" style="fill:#BA68C8"></path><path d="M367.86,332.6c.11,2.46,1.09,5.15,5.07,8.81s11.37,5.51,12.58,5.67a3,3,0,0,0,1.05-1.79c.07-.89-.47-1.87,0-2.83s1.47-.7,2.31-1.64a3,3,0,0,0,.43-2.23,20,20,0,0,1-12-1.28,13.78,13.78,0,0,1-7-6.06C369.66,330,367.75,330.15,367.86,332.6Z" style="opacity:0.55"></path><path d="M376.15,339.4a27.44,27.44,0,0,0,6.37,2.19,9.8,9.8,0,0,0,6.18-.6c-.81.75-1.74.7-2.13,1.47a2.61,2.61,0,0,0-.12,1.65,22.32,22.32,0,0,1-5.64-1.53C377.24,341.05,375.67,339.17,376.15,339.4Z" style="opacity:0.15"></path><path d="M369.59,335.47c.93,3.18,3.15,6.29,8.84,9.34a20.91,20.91,0,0,1-5.5-3.4c-4-3.66-5-6.35-5.07-8.81s1.8-2.61,2.5-1.35C369.4,330.54,368.66,332.28,369.59,335.47Z" style="opacity:0.15"></path><path d="M360.59,334.67c-2.16-1.19-2-4.52-.39-7.56.17-.32.11-.23.28-.52.33-.55-.22-1.1.06-2a4.77,4.77,0,0,1,2-2.28c.86-.24,1,.09,1.58-.54.86-1,1.57-1.73,3-3.33,4.49-5,8.45-11.95,15.56-16.72s18.64-8.18,36.16-5.94a4.62,4.62,0,0,1,1.6,6,13.39,13.39,0,0,0-4.91,6.37c-.9,2.91-.8,13.09-7.12,21.45s-18.24,11-25.52,10.1-16-2.1-19.15-2.61A3.55,3.55,0,0,1,360.59,334.67Z" style="fill:#BA68C8"></path><path d="M360.59,334.67c-2.16-1.19-2-4.52-.39-7.56.17-.32.11-.23.28-.52.33-.55-.22-1.1.06-2a4.77,4.77,0,0,1,2-2.28c.86-.24,1,.09,1.58-.54.86-1,1.57-1.73,3-3.33,4.49-5,8.45-11.95,15.56-16.72s18.64-8.18,36.16-5.94a4.62,4.62,0,0,1,1.6,6,13.39,13.39,0,0,0-4.91,6.37c-.9,2.91-.8,13.09-7.12,21.45s-18.24,11-25.52,10.1-16-2.1-19.15-2.61A3.55,3.55,0,0,1,360.59,334.67Z" style="fill:#fff;opacity:0.85"></path><path d="M415.57,301.68c-3.86,2.38-4.11,11.76-9.47,20.8s-11.79,15.12-24.33,14.87-15.14.71-19.56-.81a4.72,4.72,0,0,0,1.54.5c3.14.51,11.87,1.67,19.15,2.61s19.2-1.74,25.52-10.1,6.22-18.54,7.12-21.45a13.39,13.39,0,0,1,4.91-6.37,4.62,4.62,0,0,0-1.6-6C420.37,297.42,419.42,299.3,415.57,301.68Z" style="fill:#BA68C8"></path><path d="M363.08,323.19a12.53,12.53,0,0,0-2.58,2.4c.06.38.17.65,0,1A15.22,15.22,0,0,1,363.08,323.19Z" style="opacity:0.15"></path><path d="M382.86,334.46a11.93,11.93,0,0,0-3.93-11.09s3.09,1.31,4.8,5.9A14.08,14.08,0,0,1,384,338s2.27,2,8.06,1.15a28.28,28.28,0,0,1-9.14.49l-4.53-.6C379.69,339.22,382,338.81,382.86,334.46Z" style="opacity:0.15"></path><path d="M368.85,329.57a1.62,1.62,0,1,0,1.74-1.49A1.62,1.62,0,0,0,368.85,329.57Z" style="fill:#263238"></path><path d="M386.22,337.24c.6,2.38,2.1,4.83,6.74,7.61s12.24,3.14,13.46,3a3,3,0,0,0,.66-2c-.1-.88-.83-1.73-.55-2.77s1.29-1,1.93-2.07a3,3,0,0,0,0-2.27,20,20,0,0,1-12,1.14,13.8,13.8,0,0,1-8.05-4.54C387.46,334.32,385.63,334.85,386.22,337.24Z" style="fill:#BA68C8"></path><path d="M386.22,337.24c.6,2.38,2.1,4.83,6.74,7.61s12.24,3.14,13.46,3a3,3,0,0,0,.66-2c-.1-.88-.83-1.73-.55-2.77s1.29-1,1.93-2.07a3,3,0,0,0,0-2.27,20,20,0,0,1-12,1.14,13.8,13.8,0,0,1-8.05-4.54C387.46,334.32,385.63,334.85,386.22,337.24Z" style="fill:#BA68C8"></path><path d="M386.22,337.24c.6,2.38,2.1,4.83,6.74,7.61s12.24,3.14,13.46,3a3,3,0,0,0,.66-2c-.1-.88-.83-1.73-.55-2.77s1.29-1,1.93-2.07a3,3,0,0,0,0-2.27,20,20,0,0,1-12,1.14,13.8,13.8,0,0,1-8.05-4.54C387.46,334.32,385.63,334.85,386.22,337.24Z" style="opacity:0.4"></path><path d="M395.71,342.24a27.18,27.18,0,0,0,6.67.88,9.75,9.75,0,0,0,5.94-1.83c-.64.9-1.57,1-1.79,1.87a2.55,2.55,0,0,0,.21,1.64,21.88,21.88,0,0,1-5.83-.38C397.11,343.64,395.19,342.11,395.71,342.24Z" style="opacity:0.15"></path><path d="M388.49,339.7c1.55,2.93,4.35,5.53,10.53,7.38a20.45,20.45,0,0,1-6.06-2.23c-4.64-2.78-6.14-5.23-6.74-7.61s1.24-2.92,2.18-1.82C387.32,334.91,386.94,336.76,388.49,339.7Z" style="opacity:0.15"></path><path d="M396.45,340a20,20,0,0,0,12-1.14,3.55,3.55,0,0,1,.21,1.77,2.86,2.86,0,0,0-.37-1.35,14.08,14.08,0,0,1-6.22,1.46c-3.89.11-9.26-.85-11.7-3.44A15.21,15.21,0,0,0,396.45,340Z" style="fill:#BA68C8"></path><path d="M400.91,335.93a27.22,27.22,0,0,0,16.45,2.15c8.22-1.31,13.19-9,19.26-6.78,0,0-2-2.89-7.79-1.23s-6.49.2-6.54-2.14-1.32-3.85-3.27-3.46-3.26,1.07-4.2.06-.29-3.51-1.75-4.22C410.8,327.5,406.81,332.81,400.91,335.93Z" style="fill:#BA68C8"></path><path d="M400.91,335.93a27.22,27.22,0,0,0,16.45,2.15c8.22-1.31,13.19-9,19.26-6.78,0,0-2-2.89-7.79-1.23s-6.49.2-6.54-2.14-1.32-3.85-3.27-3.46-3.26,1.07-4.2.06-.29-3.51-1.75-4.22C410.8,327.5,406.81,332.81,400.91,335.93Z" style="opacity:0.4"></path><path d="M411.5,331.43h0a10.12,10.12,0,0,0,4.27-3c1.39-1.57,1.67-2.52,2.68-3.29a2.48,2.48,0,0,1,2.64-.25,2.41,2.41,0,0,0-2.08-.47c-.56.12-1.06.25-1.51.36C415.79,328.8,412.61,331.06,411.5,331.43Z" style="fill:#BA68C8"></path><path d="M413.26,336c1.09.37,5.16,0,8.35-1.58s4.56-2.73,7.25-3.69,5.55-1.17,7.74.6c-.17-.24-2.28-2.8-7.77-1.22-.49.14-.94.26-1.36.36h0a37.58,37.58,0,0,0-5,2.93c-3.95,2.47-8.09,2.81-9,2.6A1.34,1.34,0,0,1,413.26,336Z" style="fill:#BA68C8"></path><path d="M403.81,335.74s1.69,1.38,7.91,2S425.07,335,425.14,335a22.37,22.37,0,0,1-7.78,3.11,27.22,27.22,0,0,1-16.45-2.15c5.9-3.12,9.89-8.43,12.16-15.62C413.07,320.31,411.06,331.27,403.81,335.74Z" style="opacity:0.15"></path><path d="M414,321.61c.28,1,.23,2.27.83,2.92s1.54.58,2.68.3h0c-2.38,5.5-7.59,7.74-6.14,6.19C413.69,328.53,414.38,323.68,414,321.61Z" style="opacity:0.15"></path><path d="M422.29,327.93c0,2.14.68,3.54,5.18,2.5a38.92,38.92,0,0,0-5,2.93c-4.9,3.06-10.11,2.85-9,2.39a12.92,12.92,0,0,0,5.45-3.64c2-2.22,3-4.75,2.87-6.41A4.76,4.76,0,0,1,422.29,327.93Z" style="opacity:0.15"></path><path d="M371.51,317c3.13-4.18,6.53-8.75,11.55-12.25,6-4.18,15.39-7.45,29.1-7,1.46-3.76-1.33-3.93-3.37-5.87s0-3.72-.39-4.87c-1.1-3.09-4.91-.72-7.62-1.83-1.2-.5-1.16-1.54-1.57-2.44-.51-1.13-1.83-1.9-4.16-1.25-8.13,2.27-13.21,9.42-15.7,17.4C376.64,307.5,374.49,313,371.51,317Z" style="fill:#BA68C8"></path><path d="M371.51,317c3.13-4.18,6.53-8.75,11.55-12.25,6-4.18,15.39-7.45,29.1-7,1.46-3.76-1.33-3.93-3.37-5.87s0-3.72-.39-4.87c-1.1-3.09-4.91-.72-7.62-1.83-1.2-.5-1.16-1.54-1.57-2.44-.51-1.13-1.83-1.9-4.16-1.25-8.13,2.27-13.21,9.42-15.7,17.4C376.64,307.5,374.49,313,371.51,317Z" style="opacity:0.4"></path><path d="M376.13,311.1h0c2.13-2.19,3.59-8.65,5.24-12,1.86-3.74,4.67-9.94,11.94-13.51-7.11,5.15-10,15-7.65,13.54,3.3-2.05,4.52-9.39,13.4-12.8-5.1,2.45-8.86,10.53-5.84,9.54,2.62-.87,4.2-6.35,10.74-7.63-3.72,1.15-7.69,6.81-4.65,7.1,2.07.19,2.19-3,7.48-4-1.6.45-4.81,3.92-2.74,4.52s3.31-1.73,5.7-1.56c-2.15.63-2.77,3.11,2.41,3.35-13.71-.41-23.07,2.86-29.1,7A37.36,37.36,0,0,0,376.13,311.1Z" style="opacity:0.15"></path><path d="M393.9,282.5c-4.1,1.57-5.85,2.72-9.29,6.78-3.59,4.24-4.75,9.81-6.52,13.46h0c.41-1.23.83-2.53,1.26-3.92,2.49-8,7.57-15.13,15.7-17.4,2.33-.65,3.65.12,4.16,1.25C399.21,282.66,398,280.93,393.9,282.5Z" style="fill:#BA68C8"></path><path d="M404.91,285.67c-2,0-3.3,0-4.48-.76h0a2.89,2.89,0,0,0,.35.19c2.71,1.11,6.52-1.26,7.62,1.83a1.9,1.9,0,0,1-.1,1.18C408.69,286.41,406.86,285.66,404.91,285.67Z" style="fill:#BA68C8"></path><path d="M373.48,330.3a2.87,2.87,0,0,1-1.72,2.44,3.31,3.31,0,0,1-4.38-2s.39,3.92,4.09,3.08C374.17,333.24,373.48,330.3,373.48,330.3Z" style="opacity:0.15"></path><g id="freepik--Scales--inject-194"><path d="M401.82,324.33c2.74-1.32,5.71-.16,4,3.88,0,0,2.09-2.79.67-4.31C404.79,322.06,401.82,324.33,401.82,324.33Z" style="fill:#fff"></path><path d="M398.83,319.9c2.74-1.33,5.71-.16,4,3.87,0,0,2.08-2.79.66-4.31C401.8,317.62,398.83,319.9,398.83,319.9Z" style="fill:#fff"></path><path d="M403,319.83c2.75-1.33,5.18.2,3.49,4.23,0,0,2.2-3.07.78-4.59C405.57,317.63,403,319.83,403,319.83Z" style="fill:#fff"></path><path d="M388,327.38c3-.39,5.47,1.66,2.59,4.95,0,0,2.87-2,2-3.88C391.57,326.16,388,327.38,388,327.38Z" style="fill:#fff"></path><path d="M391.76,328.47c3-.71,5.62,1.06,3.1,4.64,0,0,2.64-2.28,1.57-4.07C395.15,326.88,391.76,328.47,391.76,328.47Z" style="fill:#fff"></path><path d="M390.87,332.06c3-.38,5.47,1.66,2.59,4.95,0,0,2.86-2,2-3.87C394.41,330.85,390.87,332.06,390.87,332.06Z" style="fill:#fff"></path><path d="M374.79,317.33c2.67-1.47,5.7-.48,4.24,3.64,0,0,1.93-2.9.43-4.34C377.64,314.89,374.79,317.33,374.79,317.33Z" style="fill:#fff"></path><path d="M379.17,320.87c2.74-1.34,5.72-.2,4.05,3.85,0,0,2.07-2.81.64-4.32C382.13,318.57,379.17,320.87,379.17,320.87Z" style="fill:#fff"></path><path d="M379.24,316.91c2.64-1.52,5.69-.56,4.29,3.58,0,0,1.88-2.93.36-4.34C382.05,314.43,379.24,316.91,379.24,316.91Z" style="fill:#fff"></path><path d="M384.4,311.13c2.91-.88,5.67.73,3.38,4.46,0,0,2.49-2.44,1.32-4.16C387.69,309.35,384.4,311.13,384.4,311.13Z" style="fill:#fff"></path><path d="M388.83,312.7c2.79-1.24,5.72,0,3.91,4,0,0,2.17-2.72.8-4.28C391.88,310.51,388.83,312.7,388.83,312.7Z" style="fill:#fff"></path><path d="M407.7,307c2.43-1.84,5.57-1.28,4.71,3,0,0,1.5-3.15-.2-4.36C410.17,304.14,407.7,307,407.7,307Z" style="fill:#fff"></path><path d="M405.41,301.87c3-.33,5.44,1.77,2.5,5,0,0,2.9-1.93,2.07-3.84C409,300.72,405.41,301.87,405.41,301.87Z" style="fill:#fff"></path><path d="M408.84,302c2.83-1.13,5.71.24,3.75,4.15,0,0,2.27-2.64,1-4.26C412,299.94,408.84,302,408.84,302Z" style="fill:#fff"></path><path d="M395.06,306.42c2.87-1,5.7.46,3.58,4.29,0,0,2.38-2.55,1.13-4.22C398.26,304.48,395.06,306.42,395.06,306.42Z" style="fill:#fff"></path><path d="M391.92,302c3-.57,5.56,1.31,2.9,4.78,0,0,2.73-2.16,1.74-4C395.37,300.55,391.92,302,391.92,302Z" style="fill:#fff"></path><path d="M395.86,302.28c3.44-.91,6.15.88,3.48,4.34,0,0,2.53-1.95,1.54-3.79C399.69,300.62,395.86,302.28,395.86,302.28Z" style="fill:#fff"></path></g><path d="M369.62,329.27a.59.59,0,1,0,1.18.09.59.59,0,0,0-1.18-.09Z" style="fill:#fff"></path></g><g id="freepik--Bubbles--inject-194"><path d="M355.31,321.87a6.68,6.68,0,1,1-6.68-6.68A6.68,6.68,0,0,1,355.31,321.87Z" style="fill:#fff;opacity:0.5"></path><path d="M349.28,320.4a2.8,2.8,0,1,1-2.8-2.8A2.8,2.8,0,0,1,349.28,320.4Z" style="fill:#fff"></path><circle cx="355.81" cy="310.74" r="3.33" style="fill:#fff;opacity:0.5"></circle><circle cx="354.68" cy="309.96" r="1.13" style="fill:#fff"></circle><path d="M355.31,333.3a1.91,1.91,0,1,1-1.91-1.91A1.9,1.9,0,0,1,355.31,333.3Z" style="fill:#fff;opacity:0.5"></path><path d="M353.39,332.64a.51.51,0,0,1-.51.51.51.51,0,0,1,0-1A.51.51,0,0,1,353.39,332.64Z" style="fill:#fff"></path><circle cx="351.5" cy="303.95" r="1.54" style="fill:#fff;opacity:0.5"></circle><path d="M351.49,303.42a.41.41,0,0,1-.41.41.41.41,0,0,1-.41-.41.41.41,0,0,1,.41-.41A.42.42,0,0,1,351.49,303.42Z" style="fill:#fff"></path></g></g></g><g id="freepik--Cat--inject-194"><g id="freepik--Kitten--inject-194"><path d="M195.91,234c19.71,8.81,24.56,2.51,34.89-9.89s26.57-39.27,30.7-40.45,18.2-2.6,15.95-10.33c-2-6.91-11.52-9.75-22.15-6.5s-21.91,16.83-21.91,16.83Z" style="fill:#37474f"></path><path d="M270.36,170.07c-.14-.12-.23-.61.07-.57,3,.37,5.34,2.77,6.67,5.3a8.86,8.86,0,0,1,.49,1.09,5.21,5.21,0,0,1-1.72,2.79,11.59,11.59,0,0,0-.43-2C274.59,173.93,272.52,171.91,270.36,170.07Z" style="fill:#263238"></path><path d="M268.7,177.29a13.16,13.16,0,0,0-1.5-2.66,7.91,7.91,0,0,0-3.19-2.5c-.3-.14-.29-.86.1-.79a10.18,10.18,0,0,1,5.44,3,12,12,0,0,1,2.76,6.41c-.82.34-1.68.64-2.56.91A14.71,14.71,0,0,0,268.7,177.29Z" style="fill:#263238"></path><path d="M46.74,252.84a32.69,32.69,0,0,0,27.93-16.55l5,28.47Z" style="fill:#263238"></path><path d="M130.78,291c10.86,5.14,30.11,3.45,37.66-10.69s5.09-64.45-14.73-71S113.19,270.07,130.78,291Z" style="fill:#fafafa"></path><path d="M125.31,278.8l8-29.77a31,31,0,0,0-5.35-8.17q.66-2.34,1.41-4.6a37.39,37.39,0,0,1,9.83,11.6c9,16.64,3.4,38.52,3.4,38.52s6.54,5.33,18.67-7.06C166.51,274,170,266.6,172.34,260c-.26,8.6-1.63,16.12-3.9,20.37-7.55,14.14-26.8,15.83-37.66,10.69A28,28,0,0,1,125.31,278.8Z" style="fill:#ebebeb"></path><path d="M217,124.79c14.14,18.58,21.47,52.92,12.47,75.91s-32,33.34-39.35,42-11.31,34-6,50.67c0,0,14.67,3.66,10.34,11s-12.34,7-18.34,5.34-30-18.33-29-82A46.33,46.33,0,0,0,133.3,249a51.37,51.37,0,0,1,4.59,22.11c-.37,10.66-7.11,19.89-7.11,19.89a59.43,59.43,0,0,1,13.34,1c5.66,1.34,7,6.33,5.66,9.67s-7.66,6.66-14,5.33S95.45,291.7,84.12,282.37s-11.67-35.34-8-57,18.66-48,55.66-69.66l23.89-39.1Z" style="fill:#455a64"></path><path d="M217,124.79c22.51,18.59,14.67,51.64,0,79.6,0,0-3.24-14.09-19.76-25.25C177,165.51,141.67,149,155.67,116.61Z" style="fill:#f5f5f5"></path><path d="M155.67,116.61l61.3,8.18h0c.56.46,1.08.93,1.6,1.41a36.8,36.8,0,0,1,7.2,8.93c-1.64,3.48-6.54,8.86-13.49,11.09-10,3.19-44.64-7.43-50.33-18,0,0-1.41,13.93,20.75,31.6,11.66,9.3,29.43,12.52,34.24,44.59h0s-3.25-14.1-19.76-25.25C177,165.51,141.67,149,155.67,116.61Z" style="fill:#e0e0e0"></path><path d="M111.54,227.73s14.63,2.74,24.22,14.91A40.58,40.58,0,0,0,133.3,249C128.27,237.1,111.54,227.73,111.54,227.73Z" style="fill:#37474f"></path><path d="M142.2,232.71v0c.79-20.17,9-30.12,9-30.12s-3.73,8-4.12,25.13A40.27,40.27,0,0,0,142.2,232.71Z" style="fill:#37474f"></path><path d="M182.88,288.6h0a48.89,48.89,0,0,0,1.23,4.77,14,14,0,0,0-12.18,3.07S169.35,289.64,182.88,288.6Z" style="fill:#37474f"></path><path d="M122.22,296.44a17.82,17.82,0,0,0,8.56-5.41,69.22,69.22,0,0,1,7.91.2C132.87,298.34,122.22,296.44,122.22,296.44Z" style="fill:#37474f"></path><path d="M180,300.71a.63.63,0,0,1,.33-.06,8.14,8.14,0,0,1,3.09.61,7.07,7.07,0,0,1,3.3,3.62,8.5,8.5,0,0,1,.56,4.57c0,.22-.07.44-.11.67a14.54,14.54,0,0,1-2.35.45c0-.19.11-.38.15-.57a7.27,7.27,0,0,0-.35-3.78c-.79-2.24-2.72-3.86-4.62-5.12a.35.35,0,0,1-.11-.1.21.21,0,0,1,0-.2A.2.2,0,0,1,180,300.71Z" style="fill:#263238"></path><path d="M191.81,307.58a11.06,11.06,0,0,0-.21-2.75,10.92,10.92,0,0,0-3.38-6,.66.66,0,0,1-.3-.54c.14-.64,2.87,1.12,3.16,1.36a8.31,8.31,0,0,1,2.37,3.77,10.46,10.46,0,0,1,.39,1.83A12.69,12.69,0,0,1,191.81,307.58Z" style="fill:#263238"></path><path d="M137,299.64a.56.56,0,0,1,.31-.14,7.86,7.86,0,0,1,3.12-.27,7,7,0,0,1,4.18,2.56,8.3,8.3,0,0,1,1.66,3.52,14.29,14.29,0,0,1-2.08,1,7.48,7.48,0,0,0-1.22-2.66c-1.38-1.93-3.69-2.95-5.86-3.63A.27.27,0,0,1,137,300a.19.19,0,0,1,0-.2A.41.41,0,0,1,137,299.64Z" style="fill:#263238"></path><path d="M149,303.07a12,12,0,0,0-.93-2.46,10.89,10.89,0,0,0-4.91-4.79c-.18-.1-.4-.21-.44-.44,0-.66,3.08.28,3.42.43a8.34,8.34,0,0,1,3.32,3,9.54,9.54,0,0,1,.77,1.4,6.94,6.94,0,0,1-.4,1.52A5.4,5.4,0,0,1,149,303.07Z" style="fill:#263238"></path><path d="M161.33,93.17c-4.7-8.27-3.41-27.58,3.57-31.5,6.59-3.7,21.76,15.74,21.76,15.74S174.19,91.17,161.33,93.17Z" style="fill:#37474f"></path><path d="M169.3,88.21c8.78-5.11,17.36-10.8,17.36-10.8S172.19,58.93,166.77,62C163.36,63.48,159.89,74.32,169.3,88.21Z" style="fill:#ffa8a7"></path><path d="M181.67,77.71a8.58,8.58,0,0,1-3.58-3.28A9,9,0,0,1,176.43,69c-3.26,2.23-4.62,7.62-4.62,7.62-4.75-.77-4.45-5.52-4.45-5.52-2.42,2.61-2.33,9.19,1.83,12.6a11.5,11.5,0,0,0,6.58-1.1C179.48,80.94,181.42,79,181.67,77.71Z" style="fill:#f28f8f"></path><path d="M171.71,85c-3.12-2.17-5.08-6.78-3.76-10,0,0,2.16,2.72,4.67,2.82,0,0,1.23-9,6.21-10.36,0,0-1.08,5.92,3.32,9.14C183.53,85,171.71,85,171.71,85Z" style="fill:#455a64"></path><path d="M198.68,73.38c4.37-7.26,16.93-14.41,24.53-9.1,4.28,3-4.05,24.23-4.05,24.23S204.92,82.75,198.68,73.38Z" style="fill:#37474f"></path><path d="M204.77,79.31c7,4.81,14.39,9.2,14.39,9.2s8.33-21.25,4.05-24.23C220.29,62.9,211.54,65.9,204.77,79.31Z" style="fill:#ffa8a7"></path><path d="M218.29,83.81a9.19,9.19,0,0,1,1.79-2.45c.46-1.34,1-2.91,1.47-4.56a16,16,0,0,0-6.85-1.64c-.15-2.33,2-4.68,2-4.68-2.82-.81-7.49,1.94-8.47,6.71a14.42,14.42,0,0,0,3.09,4.88c1.55.83,3,1.52,4.12,2.07A6.71,6.71,0,0,0,218.29,83.81Z" style="fill:#f28f8f"></path><path d="M209.39,78.83c.93-3.3,4.08-6.33,6.91-6.14,0,0-1.61,2.64-1.06,4.82,0,0,7.38-1.61,9.69,2.23,0,0-4.93.83-6.37,5.54C212.32,88.92,209.39,78.83,209.39,78.83Z" style="fill:#455a64"></path><path d="M195.75,72.85c20.84,2,33.63,21.28,39.33,34.62,2.77,6.47-9.49,28.37-25.81,30.84-22.61,3.42-46-8.74-54.44-21.25C147.41,106.07,169.42,74,195.75,72.85Z" style="fill:#455a64"></path><path d="M197.22,113c9.17-5.28,4.37-28,4.37-28,4.79,9.94,6.57,21.75,16,25.65,8.24,3.38,12.64,6.15,10.63,15.17C224,132.06,217.35,138,209.5,139c-6.78.87-15.18.46-25.22-2.59C180,124.28,185.63,119.7,197.22,113Z" style="fill:#fafafa"></path><path d="M186.82,104.44a3.34,3.34,0,1,0,3.81-2.79A3.34,3.34,0,0,0,186.82,104.44Z" style="fill:#263238"></path><circle cx="219.12" cy="102.05" r="3.34" transform="translate(-11.06 28.27) rotate(-7.2)" style="fill:#263238"></circle><path d="M182.86,118.83l0,0a.66.66,0,0,0,.19-.89c-1.93-3.23-5.52-6.91-11.71-6.17a.62.62,0,0,0-.53.71.64.64,0,0,0,.69.58c5.55-.66,8.78,2.66,10.52,5.56A.61.61,0,0,0,182.86,118.83Z" style="fill:#263238"></path><path d="M181.12,120.37a.52.52,0,0,0,.17-.13.68.68,0,0,0,0-.91,10.78,10.78,0,0,0-8.51-2.59.64.64,0,0,0-.47.76.63.63,0,0,0,.72.52,9.57,9.57,0,0,1,7.42,2.23A.57.57,0,0,0,181.12,120.37Z" style="fill:#263238"></path><path d="M181.37,123a.55.55,0,0,0,.25-.29.67.67,0,0,0-.31-.86,12.41,12.41,0,0,0-11.48.93.66.66,0,0,0-.2.89.6.6,0,0,0,.83.24h0a11.21,11.21,0,0,1,10.35-.88A.57.57,0,0,0,181.37,123Z" style="fill:#263238"></path><path d="M228.72,112.06l-.06,0a.67.67,0,0,1-.36-.84c1.25-3.54,4-7.86,10.26-8.36a.62.62,0,0,1,.66.6.63.63,0,0,1-.56.7c-5.57.45-8.09,4.34-9.21,7.52A.6.6,0,0,1,228.72,112.06Z" style="fill:#263238"></path><path d="M230.72,113.23a.82.82,0,0,1-.19-.09.69.69,0,0,1-.15-.91A10.77,10.77,0,0,1,238.2,108a.64.64,0,0,1,.62.65.63.63,0,0,1-.61.65,9.56,9.56,0,0,0-6.83,3.65A.58.58,0,0,1,230.72,113.23Z" style="fill:#263238"></path><path d="M231,115.89a.64.64,0,0,1-.31-.23.68.68,0,0,1,.14-.91,12.45,12.45,0,0,1,11.44-1.35.66.66,0,0,1,.37.83.61.61,0,0,1-.77.4h0a11.19,11.19,0,0,0-10.31,1.17A.56.56,0,0,1,231,115.89Z" style="fill:#263238"></path><path d="M201.3,126.26a10.41,10.41,0,0,1-2.53-.33.76.76,0,1,1,.38-1.47,6.9,6.9,0,0,0,6-1,8.1,8.1,0,0,0,3-6.12.76.76,0,0,1,.74-.73.75.75,0,0,1,.77.71,6.81,6.81,0,0,0,2.92,4.8,4.61,4.61,0,0,0,4.43.14.77.77,0,0,1,1,.4.76.76,0,0,1-.4,1,6.06,6.06,0,0,1-5.82-.25,7.65,7.65,0,0,1-2.71-3,9.25,9.25,0,0,1-3,4.23A7.84,7.84,0,0,1,201.3,126.26Z" style="fill:#263238"></path><path d="M209.13,119.16c1.06-.07,3.61-2.57,3.71-4.29s-8.45-.57-8.46.78C204.37,117.58,208.07,119.24,209.13,119.16Z" style="fill:#f28f8f"></path><path d="M33.19,255.08c17.18-6.07,61.3,0,73.43,13.81S120.76,299.2,120.09,314c0,0-27.58,11.07-51.2-1.75C44.4,299,9.62,264.84,33.19,255.08Z" style="fill:#37474f"></path><path d="M120.09,314s-21.69,11.05-44.85,1.11c-13-7.28-14.92-13-16-17.47,5.75,3.62,20.48.52,20.48.52s-14.31-15.25-15.86-24.09c10.84,4.3,28.69,3,28.69,3s-1.14-9-7.42-14c5-.77,13.13-.38,21.49,5.81C121.09,283.08,122.29,299.51,120.09,314Z" style="fill:#fafafa"></path><path d="M59.24,297.66c1.33,2.72,5.55,9.12,19.41,13.1,20.27,5.81,38.69-.79,38.69-.79a58,58,0,0,0,1.37-21.84c2.78,8.74,2.63,17.63,1.38,25.89,0,0-21.69,11.05-44.85,1.11C63.84,308.74,60.2,303.34,59.24,297.66Z" style="fill:#f0f0f0"></path></g></g><g id="freepik--Net--inject-194"><g id="freepik--net--inject-194"><g id="freepik--magnifying-glass--inject-194"><path d="M177.67,389.54a5.2,5.2,0,0,1,2.33-4.08,1.66,1.66,0,0,1,1.65-.17h0L238.5,418h0a1.68,1.68,0,0,1,.69,1.51,5.23,5.23,0,0,1-2.33,4.08,1.68,1.68,0,0,1-1.66.17h0l-56.84-32.74h0A1.62,1.62,0,0,1,177.67,389.54Z" style="fill:#37474f"></path><path d="M178.37,391.05a1.62,1.62,0,0,1-.7-1.51,4.36,4.36,0,0,1,.4-1.76l60.1,34.62a4.58,4.58,0,0,1-1.3,1.23,1.68,1.68,0,0,1-1.66.17l-56.84-32.74Z" style="fill:#263238"></path><path d="M235,423.59a6.76,6.76,0,0,1,3-5.3,2.14,2.14,0,0,1,2.12-.23h0l0,0h0l64.77,35.82-5.58,9.85-63.48-38.17A2.15,2.15,0,0,1,235,423.59Z" style="fill:#BA68C8"></path><path d="M299.35,463.74l-63.48-38.17a2.15,2.15,0,0,1-.9-2,6.3,6.3,0,0,1,1-3.21l66.25,38.28Z" style="opacity:0.1"></path><path d="M302.17,463.45a8.86,8.86,0,0,0,4-7c0-2.55-1.81-3.58-4-2.29a8.84,8.84,0,0,0-4,6.95C298.17,463.7,300,464.73,302.17,463.45Z" style="fill:#BA68C8"></path><g style="opacity:0.2"><path d="M302.17,463.45a8.86,8.86,0,0,0,4-7c0-2.55-1.81-3.58-4-2.29a8.84,8.84,0,0,0-4,6.95C298.17,463.7,300,464.73,302.17,463.45Z"></path></g></g><path d="M121.14,364.48c-17.54,6.24-46.91,11.5-49.9,14.16-6.48,5.79,3.93,17.61,19.11,24,20.12,8.41,42.44,10.84,50.4,7s78.41-45.95,78.41-45.95l-48.23-28.08Z" style="fill:#BA68C8"></path><path d="M121.14,364.48c-17.54,6.24-46.91,11.5-49.9,14.16-6.48,5.79,3.93,17.61,19.11,24,20.12,8.41,42.44,10.84,50.4,7s78.41-45.95,78.41-45.95l-48.23-28.08Z" style="fill:#fff;opacity:0.85"></path><path d="M211.42,364.74l.76-5.16-.26-.16-.76,5.17-5.43-3.11.77-5.21-.26-.15-.77,5.21L200,358.21l.78-5.25-.27-.15-.77,5.25L194.35,355l.78-5.3-.26-.15-.78,5.3-5.43-3.12.79-5.34-.26-.15-.79,5.34L183,348.41l.8-5.38-.27-.15-.79,5.38-5.42-3.11.79-5.43-.26-.15L177,345l-5.42-3.12.8-5.47-.26-.15-.81,5.47-5.42-3.11,0-.16-.43.25.1.06-.93,6.33-5.12-2.93-.28.16,5.36,3.07-.94,6.34-5.42-3.12.91-6.24-.31.18-.87,5.91-4.68-2.69L153,346l4.92,2.82L157,355.1,151.6,352l.84-5.69-.31.18-.79,5.36-4.25-2.44-.28.17,4.48,2.57-.93,6.33-5.42-3.11.75-5.14-.31.18-.71,4.81L140.86,353l-.28.16,4,2.33-.93,6.33-5.43-3.11.68-4.59-.32.18-.62,4.26-3.37-1.94-.28.16,3.6,2.07-.93,6.34-5.42-3.12.59-4-.31.18-.55,3.7-2.93-1.68-.28.16,3.17,1.82-.93,6.34-5.43-3.12.51-3.49-.31.19-.46,3.15-2.5-1.43-.28.16,2.73,1.57L123.7,372l-5.43-3.12.53-3.55-.3.1-.49,3.3-3.54-2-.36.11L118,369l-.93,6.33-5.43-3.11.72-4.91-.29.08-.69,4.68-5.27-3-.48.13-.92,6.27-5.43-3.12.24-1.57-.3.08-.2,1.34-1.57-.9-.39.1,1.92,1.1L98,378.78l-5.43-3.11.49-3.35-.29.08-.46,3.12-3.68-2.11-.39.1,4,2.31-.93,6.33L85.92,379l.76-5.14-.29.07-.73,4.92-5.42-3.12,0-.25-.29.08v0h0l-.39.1.37.21L79,382.26l-5.43-3.12.25-1.72-.3.11L73.31,379l-1.37-.79-.29.16,1.61.93-.93,6.33-3-1.7a2.29,2.29,0,0,0,.07.36l2.86,1.64-.49,3.35.23.33.52-3.53L78,389.19l-.83,5.61.26.21.83-5.67,5.43,3.11-.93,6.28.26.16.93-6.29,5.43,3.12-.89,6,.26.12.89-6L95,399l-.76,5.17.27.1.76-5.12,5.42,3.11-.58,3.94.28.08.57-3.87,5.42,3.12-.35,2.39.28.07.34-2.31,5.42,3.11-.08.53.28.06.06-.44,1.22.7.84.16-2-1.16.93-6.33,5.43,3.11-.74,5,.28,0,.72-4.88,5.43,3.12-.36,2.44.28,0,.34-2.31,4.42,2.53h.57l-5-2.84.94-6.34,5.42,3.12-.89,6.05h.29l.86-5.9,5.43,3.11-.33,2.29.29-.06.3-2.07,2.4,1.37.35-.12-2.7-1.55.93-6.34,5.43,3.12L143,408.4l.31-.17.42-2.87,2.33,1.34.29-.17-2.58-1.47.93-6.34,5.43,3.12-.41,2.77.31-.18.36-2.44,2,1.12.28-.17-2.18-1.25.93-6.33,5.43,3.11-.33,2.25.31-.19.28-1.91,1.51.87.28-.16-1.75-1,.94-6.33,5.42,3.11-.24,1.68.31-.18.19-1.35,1.06.61.28-.16-1.29-.75.93-6.33,5.43,3.11-.16,1.09.31-.19.11-.75.59.34.28-.16-.83-.47.94-6.34,5.42,3.11-.07.48.31-.19,0-.13.11.06.28-.17-.34-.19.93-6.34,5.31,3.05.45-.27.91-6.15,4.81,2.77.27-.17-5-2.89.93-6.34,5.43,3.12-.86,5.84.31-.18.81-5.51,4.31,2.47.28-.17-4.54-2.6.93-6.34,5.42,3.12-.76,5.2.31-.19.72-4.86,3.8,2.18.28-.16-4-2.32.93-6.34,5.43,3.12-.67,4.55.31-.18.62-4.22L208,370.3l.28-.17-3.52-2,.93-6.33,5.42,3.11-.57,3.9.31-.19.53-3.56,2.77,1.59.28-.16ZM188.62,352l5.43,3.11-.93,6.34-5.43-3.12Zm-5.69-3.27,5.43,3.12-.93,6.33L182,355.05Zm-80,40.42,5.43,3.12-.94,6.33L102,395.47Zm-1.2,6.19-5.42-3.12.93-6.33,5.43,3.11Zm1.24-6.49.93-6.33,5.43,3.11-.93,6.34Zm6.62-3.07,5.43,3.12-.93,6.33-5.43-3.11Zm0-.29.93-6.34,5.43,3.12-.94,6.33ZM115.3,389l5.43,3.12-.93,6.33-5.43-3.11Zm0-.3.93-6.33,5.43,3.11-.94,6.34Zm6.62-3.07,5.43,3.12-.94,6.33L121,392Zm0-.3.93-6.33,5.43,3.11-.93,6.34Zm5.65,3.57,5.42,3.11-.93,6.34-5.42-3.12Zm0-.3.93-6.34,5.43,3.12-.93,6.33Zm1-6.63.93-6.34,5.43,3.12-.94,6.33Zm5.64,3.56,5.43,3.11-.93,6.34-5.43-3.11Zm.05-.3.93-6.33,5.43,3.11-.94,6.34Zm1-6.63.93-6.34,5.43,3.12-.93,6.33Zm5.65,3.56,5.42,3.12-.93,6.33-5.42-3.11Zm0-.3.93-6.33,5.43,3.11-.93,6.34Zm1-6.63.93-6.34,5.43,3.12-.94,6.33Zm5.64,3.56,5.43,3.12-.93,6.33-5.43-3.11Zm0-.3.93-6.33,5.43,3.11-.94,6.34Zm1-6.63.93-6.34,5.43,3.12L154.1,375Zm5.65,3.56,5.43,3.12-.94,6.33-5.42-3.11Zm0-.29.93-6.34,5.43,3.12-.93,6.33Zm1-6.64.93-6.33,5.43,3.11-.93,6.34Zm5.64,3.57,5.43,3.11-.93,6.34-5.43-3.12Zm.05-.3.93-6.34,5.43,3.12-.94,6.33Zm1-6.64.94-6.33,5.42,3.11-.93,6.34Zm5.65,3.57,5.43,3.11-.94,6.34-5.42-3.12Zm0-.3.93-6.34,5.43,3.12-.93,6.33Zm7.34-9.85-.94,6.33-5.42-3.11.93-6.34Zm-5.39-3.42.94-6.33,5.42,3.11-.93,6.34Zm4.67,10.2,5.43,3.11-.93,6.34-5.43-3.11Zm.05-.3.93-6.33,5.43,3.11-.94,6.34Zm1-6.63.94-6.34,5.42,3.12-.93,6.33Zm6.62-3.07,5.43,3.11-.93,6.34L181,361.68Zm-4.71-9.9,5.43,3.11-.93,6.34-5.43-3.12Zm-5.69-3.27L177,345.3l-.93,6.33-5.43-3.11Zm-5.69-3.26,5.43,3.11-.93,6.34-5.43-3.12Zm-1,6.63,5.42,3.12-.93,6.33L164,351.89Zm-1,6.64,5.43,3.11-.93,6.34L163,358.52Zm-5.69-3.27,5.43,3.11-.93,6.34-5.43-3.11Zm-1,6.63,5.42,3.12-.93,6.33-5.43-3.11Zm-5.69-3.26L157,355.4l-.93,6.34-5.43-3.12Zm-1,6.63L156,362l-.93,6.33-5.43-3.11Zm-5.69-3.26,5.43,3.11-.93,6.34L144,362Zm-1,6.63,5.42,3.11-.93,6.34L143,368.62ZM138.23,359l5.42,3.12-.93,6.33-5.43-3.11Zm-1,6.64,5.43,3.11-.93,6.34L136.32,372Zm-5.69-3.27,5.43,3.12-.93,6.33-5.43-3.11Zm-1,6.64,5.42,3.11-.93,6.34-5.43-3.12Zm-5.69-3.27,5.42,3.12-.93,6.33L124,372.1Zm-1,6.64,5.43,3.11-.93,6.34L123,378.73Zm-5.69-3.27,5.43,3.11-.93,6.34-5.43-3.12Zm-1,6.63,5.43,3.12-.93,6.33-5.43-3.11Zm-5.68-3.26,5.42,3.11-.93,6.34-5.43-3.12Zm-5.69-3.27,5.42,3.12-.93,6.33-5.43-3.11Zm-1,6.64,5.43,3.11-.94,6.34L104,382.2Zm-5.69-3.27,5.43,3.12-.93,6.33-5.43-3.11Zm-1,6.63,5.43,3.12-.93,6.33-5.43-3.11ZM92.55,376,98,379.08,97,385.42l-5.43-3.12Zm-1,6.63L97,385.72l-.94,6.33-5.42-3.11Zm-5.69-3.26,5.43,3.11-.93,6.34L85,385.67Zm-5.69-3.27,5.43,3.12-.93,6.33-5.43-3.11ZM78,388.89l-5.43-3.11.94-6.34L79,382.55Zm5.69,3.27L78.28,389l.94-6.33,5.42,3.11Zm5.69,3.26L84,392.31,84.9,386l5.43,3.12Zm5.69,3.27-5.43-3.12.93-6.33L96,392.35Zm5.69,3.26-5.43-3.11.93-6.34,5.43,3.12Zm5.69,3.27L101,402.1l.93-6.33,5.43,3.11Zm5.69,3.26-5.43-3.11.93-6.34,5.43,3.12Zm1-6.63-5.42-3.12.93-6.33,5.42,3.11Zm5.69,3.26L113.39,402l.94-6.34,5.42,3.12Zm5.69,3.27-5.43-3.12.94-6.33,5.42,3.11Zm1-6.63-5.43-3.12.93-6.33,5.43,3.11Zm5.69,3.26-5.43-3.11.93-6.34,5.43,3.12Zm5.69,3.27-5.43-3.12.93-6.33,5.43,3.11Zm1-6.64-5.43-3.11.94-6.34,5.42,3.12Zm5.69,3.27-5.43-3.12.94-6.33,5.42,3.11Zm1-6.63-5.43-3.12.93-6.34,5.43,3.12Zm5.69,3.26-5.43-3.11.93-6.34,5.43,3.12Zm1-6.63-5.43-3.12.94-6.33,5.42,3.11Zm5.69,3.26-5.43-3.11.94-6.34,5.42,3.12Zm1-6.63-5.43-3.12.93-6.33,5.43,3.11Zm5.69,3.26-5.43-3.11.93-6.34,5.43,3.12Zm1-6.63-5.42-3.11.93-6.34,5.42,3.11Zm5.69,3.27-5.43-3.12.94-6.34,5.42,3.12Zm1-6.64-5.43-3.11.93-6.34,5.43,3.12Zm5.69,3.27L171.43,385l.93-6.33,5.43,3.11Zm1-6.64-5.42-3.11.93-6.34,5.42,3.12Zm5.69,3.27-5.43-3.12.94-6.33,5.42,3.11Zm1-6.63L179.07,375l.93-6.34,5.43,3.12Zm1-6.64-5.42-3.11L181,362l5.43,3.12Zm5.69,3.27-5.42-3.12.93-6.33,5.43,3.11Zm1-6.64L186.71,365l.93-6.34,5.43,3.12Zm5.69,3.27-5.43-3.12.93-6.33,5.43,3.11Zm1-6.64-5.42-3.11.93-6.34,5.43,3.12Zm5.69,3.27-5.42-3.11.93-6.34,5.43,3.11Z" style="fill:#BA68C8"></path><path d="M211.42,364.74l.76-5.16-.26-.16-.76,5.17-5.43-3.11.77-5.21-.26-.15-.77,5.21L200,358.21l.78-5.25-.27-.15-.77,5.25L194.35,355l.78-5.3-.26-.15-.78,5.3-5.43-3.12.79-5.34-.26-.15-.79,5.34L183,348.41l.8-5.38-.27-.15-.79,5.38-5.42-3.11.79-5.43-.26-.15L177,345l-5.42-3.12.8-5.47-.26-.15-.81,5.47-5.42-3.11,0-.16-.43.25.1.06-.93,6.33-5.12-2.93-.28.16,5.36,3.07-.94,6.34-5.42-3.12.91-6.24-.31.18-.87,5.91-4.68-2.69L153,346l4.92,2.82L157,355.1,151.6,352l.84-5.69-.31.18-.79,5.36-4.25-2.44-.28.17,4.48,2.57-.93,6.33-5.42-3.11.75-5.14-.31.18-.71,4.81L140.86,353l-.28.16,4,2.33-.93,6.33-5.43-3.11.68-4.59-.32.18-.62,4.26-3.37-1.94-.28.16,3.6,2.07-.93,6.34-5.42-3.12.59-4-.31.18-.55,3.7-2.93-1.68-.28.16,3.17,1.82-.93,6.34-5.43-3.12.51-3.49-.31.19-.46,3.15-2.5-1.43-.28.16,2.73,1.57L123.7,372l-5.43-3.12.53-3.55-.3.1-.49,3.3-3.54-2-.36.11L118,369l-.93,6.33-5.43-3.11.72-4.91-.29.08-.69,4.68-5.27-3-.48.13-.92,6.27-5.43-3.12.24-1.57-.3.08-.2,1.34-1.57-.9-.39.1,1.92,1.1L98,378.78l-5.43-3.11.49-3.35-.29.08-.46,3.12-3.68-2.11-.39.1,4,2.31-.93,6.33L85.92,379l.76-5.14-.29.07-.73,4.92-5.42-3.12,0-.25-.29.08v0h0l-.39.1.37.21L79,382.26l-5.43-3.12.25-1.72-.3.11L73.31,379l-1.37-.79-.29.16,1.61.93-.93,6.33-3-1.7a2.29,2.29,0,0,0,.07.36l2.86,1.64-.49,3.35.23.33.52-3.53L78,389.19l-.83,5.61.26.21.83-5.67,5.43,3.11-.93,6.28.26.16.93-6.29,5.43,3.12-.89,6,.26.12.89-6L95,399l-.76,5.17.27.1.76-5.12,5.42,3.11-.58,3.94.28.08.57-3.87,5.42,3.12-.35,2.39.28.07.34-2.31,5.42,3.11-.08.53.28.06.06-.44,1.22.7.84.16-2-1.16.93-6.33,5.43,3.11-.74,5,.28,0,.72-4.88,5.43,3.12-.36,2.44.28,0,.34-2.31,4.42,2.53h.57l-5-2.84.94-6.34,5.42,3.12-.89,6.05h.29l.86-5.9,5.43,3.11-.33,2.29.29-.06.3-2.07,2.4,1.37.35-.12-2.7-1.55.93-6.34,5.43,3.12L143,408.4l.31-.17.42-2.87,2.33,1.34.29-.17-2.58-1.47.93-6.34,5.43,3.12-.41,2.77.31-.18.36-2.44,2,1.12.28-.17-2.18-1.25.93-6.33,5.43,3.11-.33,2.25.31-.19.28-1.91,1.51.87.28-.16-1.75-1,.94-6.33,5.42,3.11-.24,1.68.31-.18.19-1.35,1.06.61.28-.16-1.29-.75.93-6.33,5.43,3.11-.16,1.09.31-.19.11-.75.59.34.28-.16-.83-.47.94-6.34,5.42,3.11-.07.48.31-.19,0-.13.11.06.28-.17-.34-.19.93-6.34,5.31,3.05.45-.27.91-6.15,4.81,2.77.27-.17-5-2.89.93-6.34,5.43,3.12-.86,5.84.31-.18.81-5.51,4.31,2.47.28-.17-4.54-2.6.93-6.34,5.42,3.12-.76,5.2.31-.19.72-4.86,3.8,2.18.28-.16-4-2.32.93-6.34,5.43,3.12-.67,4.55.31-.18.62-4.22L208,370.3l.28-.17-3.52-2,.93-6.33,5.42,3.11-.57,3.9.31-.19.53-3.56,2.77,1.59.28-.16ZM188.62,352l5.43,3.11-.93,6.34-5.43-3.12Zm-5.69-3.27,5.43,3.12-.93,6.33L182,355.05Zm-80,40.42,5.43,3.12-.94,6.33L102,395.47Zm-1.2,6.19-5.42-3.12.93-6.33,5.43,3.11Zm1.24-6.49.93-6.33,5.43,3.11-.93,6.34Zm6.62-3.07,5.43,3.12-.93,6.33-5.43-3.11Zm0-.29.93-6.34,5.43,3.12-.94,6.33ZM115.3,389l5.43,3.12-.93,6.33-5.43-3.11Zm0-.3.93-6.33,5.43,3.11-.94,6.34Zm6.62-3.07,5.43,3.12-.94,6.33L121,392Zm0-.3.93-6.33,5.43,3.11-.93,6.34Zm5.65,3.57,5.42,3.11-.93,6.34-5.42-3.12Zm0-.3.93-6.34,5.43,3.12-.93,6.33Zm1-6.63.93-6.34,5.43,3.12-.94,6.33Zm5.64,3.56,5.43,3.11-.93,6.34-5.43-3.11Zm.05-.3.93-6.33,5.43,3.11-.94,6.34Zm1-6.63.93-6.34,5.43,3.12-.93,6.33Zm5.65,3.56,5.42,3.12-.93,6.33-5.42-3.11Zm0-.3.93-6.33,5.43,3.11-.93,6.34Zm1-6.63.93-6.34,5.43,3.12-.94,6.33Zm5.64,3.56,5.43,3.12-.93,6.33-5.43-3.11Zm0-.3.93-6.33,5.43,3.11-.94,6.34Zm1-6.63.93-6.34,5.43,3.12L154.1,375Zm5.65,3.56,5.43,3.12-.94,6.33-5.42-3.11Zm0-.29.93-6.34,5.43,3.12-.93,6.33Zm1-6.64.93-6.33,5.43,3.11-.93,6.34Zm5.64,3.57,5.43,3.11-.93,6.34-5.43-3.12Zm.05-.3.93-6.34,5.43,3.12-.94,6.33Zm1-6.64.94-6.33,5.42,3.11-.93,6.34Zm5.65,3.57,5.43,3.11-.94,6.34-5.42-3.12Zm0-.3.93-6.34,5.43,3.12-.93,6.33Zm7.34-9.85-.94,6.33-5.42-3.11.93-6.34Zm-5.39-3.42.94-6.33,5.42,3.11-.93,6.34Zm4.67,10.2,5.43,3.11-.93,6.34-5.43-3.11Zm.05-.3.93-6.33,5.43,3.11-.94,6.34Zm1-6.63.94-6.34,5.42,3.12-.93,6.33Zm6.62-3.07,5.43,3.11-.93,6.34L181,361.68Zm-4.71-9.9,5.43,3.11-.93,6.34-5.43-3.12Zm-5.69-3.27L177,345.3l-.93,6.33-5.43-3.11Zm-5.69-3.26,5.43,3.11-.93,6.34-5.43-3.12Zm-1,6.63,5.42,3.12-.93,6.33L164,351.89Zm-1,6.64,5.43,3.11-.93,6.34L163,358.52Zm-5.69-3.27,5.43,3.11-.93,6.34-5.43-3.11Zm-1,6.63,5.42,3.12-.93,6.33-5.43-3.11Zm-5.69-3.26L157,355.4l-.93,6.34-5.43-3.12Zm-1,6.63L156,362l-.93,6.33-5.43-3.11Zm-5.69-3.26,5.43,3.11-.93,6.34L144,362Zm-1,6.63,5.42,3.11-.93,6.34L143,368.62ZM138.23,359l5.42,3.12-.93,6.33-5.43-3.11Zm-1,6.64,5.43,3.11-.93,6.34L136.32,372Zm-5.69-3.27,5.43,3.12-.93,6.33-5.43-3.11Zm-1,6.64,5.42,3.11-.93,6.34-5.43-3.12Zm-5.69-3.27,5.42,3.12-.93,6.33L124,372.1Zm-1,6.64,5.43,3.11-.93,6.34L123,378.73Zm-5.69-3.27,5.43,3.11-.93,6.34-5.43-3.12Zm-1,6.63,5.43,3.12-.93,6.33-5.43-3.11Zm-5.68-3.26,5.42,3.11-.93,6.34-5.43-3.12Zm-5.69-3.27,5.42,3.12-.93,6.33-5.43-3.11Zm-1,6.64,5.43,3.11-.94,6.34L104,382.2Zm-5.69-3.27,5.43,3.12-.93,6.33-5.43-3.11Zm-1,6.63,5.43,3.12-.93,6.33-5.43-3.11ZM92.55,376,98,379.08,97,385.42l-5.43-3.12Zm-1,6.63L97,385.72l-.94,6.33-5.42-3.11Zm-5.69-3.26,5.43,3.11-.93,6.34L85,385.67Zm-5.69-3.27,5.43,3.12-.93,6.33-5.43-3.11ZM78,388.89l-5.43-3.11.94-6.34L79,382.55Zm5.69,3.27L78.28,389l.94-6.33,5.42,3.11Zm5.69,3.26L84,392.31,84.9,386l5.43,3.12Zm5.69,3.27-5.43-3.12.93-6.33L96,392.35Zm5.69,3.26-5.43-3.11.93-6.34,5.43,3.12Zm5.69,3.27L101,402.1l.93-6.33,5.43,3.11Zm5.69,3.26-5.43-3.11.93-6.34,5.43,3.12Zm1-6.63-5.42-3.12.93-6.33,5.42,3.11Zm5.69,3.26L113.39,402l.94-6.34,5.42,3.12Zm5.69,3.27-5.43-3.12.94-6.33,5.42,3.11Zm1-6.63-5.43-3.12.93-6.33,5.43,3.11Zm5.69,3.26-5.43-3.11.93-6.34,5.43,3.12Zm5.69,3.27-5.43-3.12.93-6.33,5.43,3.11Zm1-6.64-5.43-3.11.94-6.34,5.42,3.12Zm5.69,3.27-5.43-3.12.94-6.33,5.42,3.11Zm1-6.63-5.43-3.12.93-6.34,5.43,3.12Zm5.69,3.26-5.43-3.11.93-6.34,5.43,3.12Zm1-6.63-5.43-3.12.94-6.33,5.42,3.11Zm5.69,3.26-5.43-3.11.94-6.34,5.42,3.12Zm1-6.63-5.43-3.12.93-6.33,5.43,3.11Zm5.69,3.26-5.43-3.11.93-6.34,5.43,3.12Zm1-6.63-5.42-3.11.93-6.34,5.42,3.11Zm5.69,3.27-5.43-3.12.94-6.34,5.42,3.12Zm1-6.64-5.43-3.11.93-6.34,5.43,3.12Zm5.69,3.27L171.43,385l.93-6.33,5.43,3.11Zm1-6.64-5.42-3.11.93-6.34,5.42,3.12Zm5.69,3.27-5.43-3.12.94-6.33,5.42,3.11Zm1-6.63L179.07,375l.93-6.34,5.43,3.12Zm1-6.64-5.42-3.11L181,362l5.43,3.12Zm5.69,3.27-5.42-3.12.93-6.33,5.43,3.11Zm1-6.64L186.71,365l.93-6.34,5.43,3.12Zm5.69,3.27-5.43-3.12.93-6.33,5.43,3.11Zm1-6.64-5.42-3.11.93-6.34,5.43,3.12Zm5.69,3.27-5.42-3.11.93-6.34,5.43,3.11Z" style="opacity:0.1"></path><g style="opacity:0.1"><path d="M95.47,391c6.58,4.33,21.56,13.92,21.86,14.91s-22-.53-36-8a57.25,57.25,0,0,0,9,4.75c19.23,8,40.46,10.61,49.25,7.46h0L90.89,381.24C89.21,385.5,88.89,386.62,95.47,391Z"></path><path d="M139.6,410.06s1.68-19.48,13.67-28.82S220,363.64,220,363.64Z"></path><path d="M170.93,335.56c1.65,6.38-17.86,36.35-28.15,41.24s-50.37,5.26-50.37,5.26Z"></path></g><g style="opacity:0.05"><path d="M95.47,391c6.58,4.33,21.56,13.92,21.86,14.91s-22-.53-36-8a57.25,57.25,0,0,0,9,4.75c19.23,8,40.46,10.61,49.25,7.46h0L90.89,381.24C89.21,385.5,88.89,386.62,95.47,391Z"></path></g><path d="M220.75,361.79a5.33,5.33,0,0,0-3-4.51L177.34,334a12.74,12.74,0,0,0-11.68,0L93.35,375.7a5.33,5.33,0,0,0-3,4.5v1.86a5.32,5.32,0,0,0,3,4.5l40.41,23.34a12.72,12.72,0,0,0,11.68,0l72.31-41.75a5.33,5.33,0,0,0,3-4.51ZM95.31,381l72.31-41.75a8.81,8.81,0,0,1,7.76,0l40.41,23.33.26.18-.26.17-72.31,41.75a8.88,8.88,0,0,1-7.76,0L95.31,381.31l-.26-.18A1.67,1.67,0,0,1,95.31,381Z" style="fill:#37474f"></path><path d="M139.6,409.46a11.85,11.85,0,0,1-5.84-1.42L93.35,384.71a4.88,4.88,0,0,1,0-9L165.66,334a12.74,12.74,0,0,1,11.68,0l40.41,23.33a4.88,4.88,0,0,1,0,9L145.44,408A11.85,11.85,0,0,1,139.6,409.46Zm31.9-73a8,8,0,0,0-3.88.89L95.31,379.1c-.71.41-1,.85-1,1.1s.32.7,1,1.11l40.41,23.33a8.88,8.88,0,0,0,7.76,0h0l72.31-41.75c.71-.41,1-.85,1-1.1s-.32-.7-1-1.11l-40.41-23.33A8,8,0,0,0,171.5,336.46Z" style="fill:#455a64"></path></g></g><g id="freepik--speech-bubble--inject-194"><g id="freepik--speech-bubble--inject-194"><g id="freepik--speech-bubble--inject-194"><path d="M354.85,105.29l-4.33-7.35,3.57-9V83.37l-9.6,5.54v5.54l4.13,7.15a.61.61,0,0,0,.28.25h0Z" style="fill:#BA68C8"></path><path d="M354.85,105.29l-4.33-7.35,3.57-9V83.37l-9.6,5.54v5.54l4.13,7.15a.61.61,0,0,0,.28.25h0Z" style="opacity:0.2"></path><path d="M375.63,40.53a6.37,6.37,0,0,0-2.88-5l-2.35-1.35a6.33,6.33,0,0,0-5.75,0L328.71,55a6.38,6.38,0,0,0-2.87,5V99.49a6.38,6.38,0,0,0,2.87,5l2.35,1.35a6.33,6.33,0,0,0,5.75,0l13.71-7.89,4.12,7.13a.61.61,0,0,0,1.11-.1L360.1,92.4l12.65-7.35a6.37,6.37,0,0,0,2.88-5Z" style="fill:#BA68C8"></path><path d="M325.84,99.49a6.38,6.38,0,0,0,2.87,5l2.35,1.35a6.42,6.42,0,0,0,5.26.23c-1.35.52-2.38-.25-2.38-1.89V64.63a5.85,5.85,0,0,1,.84-2.83l-8.1-4.68a5.89,5.89,0,0,0-.84,2.84Z" style="opacity:0.2"></path><path d="M375.53,39.71c-.33-1.22-1.45-1.61-2.78-.85L336.81,59.65a5.78,5.78,0,0,0-2,2.15l-8.09-4.67a5.63,5.63,0,0,1,2-2.15l35.92-20.79a6.42,6.42,0,0,1,5.76,0l2.35,1.36A6.3,6.3,0,0,1,375.53,39.71Z" style="fill:#fff;opacity:0.5"></path></g><path d="M342.67,74.44a18.3,18.3,0,0,1,1.51-7.12h0l0,0a12.35,12.35,0,0,1,4.54-5.8c3.1-1.83,5.69,1.88,6.09,6.26.37-4.83,2.91-11.56,6-13.38,1.8-1.06,3.44-.81,4.56.45l0,0h0A8.12,8.12,0,0,1,367,60.14c0,7.4-4.41,14.12-8.14,21.18l-4,6.82L351,86C347.19,83.3,342.7,81.84,342.67,74.44Z" style="fill:#fafafa"></path></g></g></svg>