<?xml version="1.0" encoding="utf-8"?>
<svg version="1.1" id="Layer_1" x="0px" y="0px" viewBox="0 0 1280 1280" style="enable-background:new 0 0 1280 1280;" xmlns="http://www.w3.org/2000/svg">
  <style type="text/css">
	.st0{fill:#010202;}
	.st1{font-family:'Poppins-SemiBold';}
	.st2{font-size:146.5019px;}
</style>
  <g transform="matrix(4.121465, 0, 0, 4.672336, -585.746106, -2197.151902)">
    <path class="st0" d="M198.34,524.32c-1.57,2.47,0.54,4.85,2.98,4.8c1.76-0.03,3.59,0.19,5.4,0.71c1.81,0.52,3.46,1.29,4.9,2.24 c1.99,1.32,5.16,0.45,5.32-2.42c0.29-5.19-2.26-9.73-6.61-10.98C205.99,517.43,201.18,519.86,198.34,524.32z"/>
    <path class="st0" d="M380.76,533.63c1.65-0.59,3.45-0.96,5.34-1.04c1.89-0.09,3.72,0.12,5.42,0.55c2.35,0.61,5.02-1.21,4.14-3.97 c-1.58-4.98-5.62-8.45-10.16-8.24c-4.54,0.21-8.2,4.02-9.27,9.12C375.63,532.88,378.48,534.45,380.76,533.63z"/>
    <path class="st0" d="M448.73,732.86c2.63-3.85,3.96-8.3,3.96-12.72c0-12.69-10.5-24.17-29-25.34c-0.26-0.06-0.53-0.11-0.8-0.14 c-24.73-23.85-36.07-81.63-29.35-116.34c22.5-1.65,38.33-14.08,44.25-35.31c2.61-9.38-2.02-16.62-11.62-18.33 c-4.71-0.84-7.83-3.47-9.56-8.03c-0.06-0.15-0.12-0.29-0.18-0.43c-9.08-18.93-24.79-21.27-35.21-22.14c0-0.04,0.04-0.11,0-0.11 c-3.77,0.2-8.44,0.19-5.94-2.41c6.65-6.94,7.82-10.21,8.59-12.74c1.69-5.57-4.59-9.21-9.3-8.48 c-25.87,4.02-51.24,25.75-64.64,55.21c-1.75,3.85-4.73,10.46-8.46,18.94c-4.73-10.69-14.37-36.44-42.13-50 c-12.23-5.97-24.25-7.85-36.81-7.12c-10.48,0.6-32.28,1.84-44.03,26.62c-0.36,0.34-3.22,2.61-15.59,3.86 c-7.59,0.77-14.63,0.7-14.7,0.7c-0.02,0-0.05,0-0.07,0c-3.29,0-5.97,2.49-6.01,5.58c-0.44,32.1,14.95,46.08,26.49,52.05 c0.01,0.01,0.03,0.02,0.04,0.03c6.95,3.94,15.73,4.86,23.88,4.86c4.42,0,8.44-0.27,11.44-0.55c2.26,13.42,6.46,67.7-22.11,114.29 c-18.34,1.28-28.67,12.77-28.67,25.32c0,4.43,1.34,8.88,3.96,12.72c0,0,6.48,11.31,26.28,11.31c3.46,0,57.11,0,64.64,0 c3.32,0,6.02-2.53,6.02-5.66c0-3.12-2.69-5.66-6.02-5.66c-7.49,0-60.04,0-66.63,0c-11.21,0-16.23-6.39-16.23-12.72 c0-8.06,7.49-13.75,19-14.09c5.28,1.1,11.67,3.92,14.3,10.96c1.1,2.95,4.54,4.5,7.67,3.47c3.13-1.03,4.78-4.26,3.68-7.21 c-2.71-7.27-8.16-12.75-15.7-15.97c26.78-46,24.75-99.01,21.84-117.15c-0.54-3.35-1.94-7.55-2.22-8.14 c-1.09-2.3-3.73-3.69-6.46-3.27c-5.23,0.81-19.46,2.21-29.32-0.9c-0.29-0.09-0.56-0.19-0.83-0.28 c-10.78-4.42-17.91-13.1-21.11-25.49c3.9-0.83,9.56-3.83,13.24-13.6c11.35-1.69,17.8-4.82,20.12-9.75 c5.55-11.77,13.45-16.56,22.19-18.6c4.52-1.06,16.16-2.54,26.06,3.69c2.77,1.74,5,4.6,6.34,8.25c2.24,6.09,0.62,12.89-4.56,19.16 c-13.42,16.24-16.8,24.52-15.56,35.3c0.78,6.79,4.72,12.36,11.08,15.68c8.75,4.56,20.2,4.71,28.94-0.36 c9.41-5.46,14.86-15.19,17.51-31.58c0.01-0.03,0.01-0.06,0.02-0.09c-2.29-5.5-5.91-13.06-10.37-18.33 c0.35,4.57,1.05,10.33-0.38,16.43c-2.88,12.24-4.7,18.38-12.02,23.39c-5.66,3.87-13.15,3.12-17.87,0.65c-2.93-1.53-4.6-3.89-4.96-7 c-0.67-5.83,0.02-11.31,13.1-27.14c8.24-9.97,10.85-22.62,4.58-33.78c1.51,0.72,3.25,1.68,4.88,2.79v0c0,0,8.39,5,17.17,15.63 c2.54,3.08,11.47,14.14,19.42,36.58c-18.19,42.48-44.79,109.25-44.79,136.37c0,26.71,23.11,48.44,51.51,48.44 c28.4,0,51.51-21.73,51.51-48.44c0-14.68-9.3-46-27.65-93.07c-4.19-10.76-8.45-21.27-12.43-30.86l-6.11,16.36 c16.07,39.62,34.16,89.09,34.16,107.57c0,20.47-17.71,37.13-39.48,37.13c-21.77,0-39.48-16.66-39.48-37.13 c0-28.66,34.21-109.51,45.73-136.24c0-0.01-0.01-0.01-0.01-0.02c6.42-14.91,11.4-25.93,13.01-29.47 c8.53-18.75,25.77-39.01,46.78-46.28c-15.7,14.14-10.08,21.54-4.33,21.54c7.76,0,9.32,0,15.55,0c9.67,0.75,19.76,1.77,26.39,15.42 c2.6,6.69,7.48,11.49,13.98,13.88c-1.41,3.32-2.49,9.01,4.5,11.99c-5.29,11.75-16.89,22.7-42.01,20.34 c-3.32-0.31-6.25,1.96-6.58,5.07c-0.33,3.11,2.08,5.88,5.39,6.19c0.24,0.02,0.48,0.03,0.72,0.06c-3.1,18.05-1.98,41.67,3.14,64.18 c5.32,23.4,14.32,42.87,25.71,55.9c-6.45,3.3-11.14,8.41-13.59,14.98c-1.38,3.7,1.56,7.53,5.67,7.53c2.48,0,4.81-1.46,5.68-3.79 c2.61-7.01,8.95-9.83,14.22-10.94c24.87,1.1,23.79,26.8,2.23,26.8c-10.04,0-59.17,0-68.99,0c-3.32,0-6.01,2.53-6.01,5.66 c0,3.12,2.69,5.66,6.01,5.66c9.83,0,49.96,0,68.99,0C443.46,744.17,448.73,732.86,448.73,732.86z"/>
  </g>
</svg>