<svg xmlns="http://www.w3.org/2000/svg" viewBox="0 0 500 500"><g id="freepik--background-complete--inject-192"><g><g><rect x="407.46" y="200.53" width="47.5" height="89.55" style="fill:#e0e0e0;"></rect><rect x="396.83" y="200.53" width="55.8" height="89.55" style="fill:#ebebeb;"></rect><rect x="405.31" y="208.49" width="38.81" height="73.64" style="fill:#fff;"></rect></g><path d="M396.83,200.53c.69,0,8.48,7.95,8.48,7.95h38.81l8.51-7.95h-55.8Z" style="fill:#e0e0e0;"></path><path d="M452.63,290.08c-.69,0-8.48-7.95-8.48-7.95h-38.81l-8.51,7.95h55.8Z" style="fill:#e0e0e0;"></path><rect x="418.58" y="227.67" width="13.81" height="21.83" style="fill:#e0e0e0;"></rect></g><g><g><g><path d="M443.92,316.25h-180.75c-3.23,0-5.86-2.63-5.86-5.86V47.11c0-3.23,2.63-5.86,5.86-5.86h180.75c3.23,0,5.86,2.63,5.86,5.86V310.38c0,3.23-2.63,5.86-5.86,5.86ZM263.17,41.5c-3.09,0-5.61,2.52-5.61,5.61V310.38c0,3.09,2.52,5.61,5.61,5.61h180.75c3.09,0,5.61-2.52,5.61-5.61V47.11c0-3.09-2.52-5.61-5.61-5.61h-180.75Z" style="fill:#e0e0e0;"></path><path d="M235.49,316.25H54.75c-3.23,0-5.86-2.63-5.86-5.86V47.11c0-3.23,2.63-5.86,5.86-5.86H235.49c3.23,0,5.86,2.63,5.86,5.86V310.38c0,3.23-2.63,5.86-5.86,5.86ZM54.75,41.5c-3.09,0-5.61,2.52-5.61,5.61V310.38c0,3.09,2.52,5.61,5.61,5.61H235.49c3.09,0,5.61-2.52,5.61-5.61V47.11c0-3.09-2.52-5.61-5.61-5.61H54.75Z" style="fill:#e0e0e0;"></path></g><rect x="0" y="377.31" width="500" height=".25" style="fill:#e0e0e0;"></rect></g><rect x="51.67" y="391.58" width="16.06" height=".25" style="fill:#e0e0e0;"></rect><rect x="170.35" y="388.87" width="53.53" height=".25" style="fill:#e0e0e0;"></rect><rect x="68.73" y="400.87" width="36.25" height=".25" style="fill:#e0e0e0;"></rect><rect x="378.35" y="388.74" width="43.19" height=".25" style="fill:#e0e0e0;"></rect><rect x="430.45" y="388.74" width="6.33" height=".25" style="fill:#e0e0e0;"></rect><rect x="316.21" y="394.97" width="53.89" height=".25" style="fill:#e0e0e0;"></rect></g><g><rect x="33.66" y="97.13" width="34.73" height="11.53" style="fill:#e6e6e6;"></rect><rect x="51.02" y="108.65" width="34.73" height="11.53" style="fill:#f5f5f5;"></rect></g><g><rect x="376.84" y="133.44" width="34.73" height="11.53" style="fill:#e6e6e6;"></rect><rect x="394.21" y="144.97" width="34.73" height="11.53" style="fill:#f5f5f5;"></rect></g><g><rect x="34.9" y="346.55" width="34.73" height="11.53" style="fill:#e6e6e6;"></rect><rect x="52.27" y="358.08" width="34.73" height="11.53" style="fill:#f5f5f5;"></rect></g><rect x="145.12" y="35.74" width="34.73" height="11.53" style="fill:#f5f5f5;"></rect><rect x="33.66" y="206.76" width="34.73" height="11.53" style="fill:#f5f5f5;"></rect><g><rect x="431.13" y="331.89" width="34.73" height="11.53" style="fill:#f5f5f5;"></rect><rect x="444.66" y="343.42" width="34.73" height="11.53" style="fill:#ebebeb;"></rect></g><g><rect x="309.94" y="29.47" width="34.73" height="11.53" style="fill:#f5f5f5;"></rect><rect x="323.47" y="41" width="34.73" height="11.53" style="fill:#ebebeb;"></rect></g></g><g id="freepik--Shadow--inject-192"><path d="M458.88,439.76c0,3.39-93.52,6.13-208.88,6.13s-208.88-2.75-208.88-6.13,93.52-6.13,208.88-6.13,208.88,2.75,208.88,6.13Z" style="fill:#f5f5f5;"></path></g><g id="freepik--Picture--inject-192"><g><g><rect x="406.68" y="96.11" width="47.4" height="89.36" style="fill:#BA68C8;"></rect><rect x="406.68" y="96.11" width="47.4" height="89.36" style="opacity:.3;"></rect><rect x="396.08" y="96.11" width="55.68" height="89.36" style="fill:#BA68C8;"></rect><rect x="404.54" y="104.05" width="38.73" height="73.49" style="fill:#fff;"></rect></g><path d="M396.08,96.11c.69,0,8.46,7.94,8.46,7.94h38.73l8.49-7.94h-55.68Z" style="opacity:.3;"></path><path d="M451.76,185.47c-.69,0-8.46-7.94-8.46-7.94h-38.73l-8.49,7.94h55.68Z" style="opacity:.3;"></path><rect x="417.78" y="123.18" width="13.78" height="21.78" style="fill:#BA68C8;"></rect></g></g><g id="freepik--Notebook--inject-192"><g><rect x="119.3" y="71.46" width="239.13" height="365.69" style="fill:#BA68C8;"></rect><rect x="119.3" y="71.46" width="239.13" height="365.69" style="fill:#fff; opacity:.8;"></rect><path d="M142.23,80.39c0,1.17-.94,2.12-2.11,2.12s-2.11-.95-2.11-2.12,.94-2.12,2.11-2.12,2.11,.95,2.11,2.12Z" style="opacity:.5;"></path><path d="M164.28,80.39c0,1.17-.94,2.12-2.11,2.12s-2.11-.95-2.11-2.12,.94-2.12,2.11-2.12,2.11,.95,2.11,2.12Z" style="opacity:.5;"></path><path d="M186.33,80.39c0,1.17-.94,2.12-2.11,2.12s-2.11-.95-2.11-2.12,.94-2.12,2.11-2.12,2.11,.95,2.11,2.12Z" style="opacity:.5;"></path><path d="M208.39,80.39c0,1.17-.94,2.12-2.11,2.12s-2.11-.95-2.11-2.12,.94-2.12,2.11-2.12,2.11,.95,2.11,2.12Z" style="opacity:.5;"></path><path d="M230.44,80.39c0,1.17-.94,2.12-2.11,2.12s-2.11-.95-2.11-2.12,.94-2.12,2.11-2.12,2.11,.95,2.11,2.12Z" style="opacity:.5;"></path><path d="M252.49,80.39c0,1.17-.94,2.12-2.11,2.12s-2.11-.95-2.11-2.12,.94-2.12,2.11-2.12,2.11,.95,2.11,2.12Z" style="opacity:.5;"></path><path d="M274.55,80.39c0,1.17-.94,2.12-2.11,2.12s-2.11-.95-2.11-2.12,.94-2.12,2.11-2.12,2.11,.95,2.11,2.12Z" style="opacity:.5;"></path><path d="M296.6,80.39c0,1.17-.94,2.12-2.11,2.12s-2.11-.95-2.11-2.12,.94-2.12,2.11-2.12,2.11,.95,2.11,2.12Z" style="opacity:.5;"></path><path d="M318.65,80.39c0,1.17-.94,2.12-2.11,2.12s-2.11-.95-2.11-2.12,.94-2.12,2.11-2.12,2.11,.95,2.11,2.12Z" style="opacity:.5;"></path><path d="M340.71,80.39c0,1.17-.94,2.12-2.11,2.12s-2.11-.95-2.11-2.12,.94-2.12,2.11-2.12,2.11,.95,2.11,2.12Z" style="opacity:.5;"></path><path d="M140.3,81.39c-5.58,0-10.13-4.56-10.13-10.17s4.54-10.17,10.13-10.17,10.13,4.56,10.13,10.17h-2c0-4.5-3.65-8.17-8.13-8.17s-8.13,3.66-8.13,8.17,3.65,8.17,8.13,8.17v2Z" style="fill:#263238;"></path><path d="M162.52,81.39c-5.58,0-10.13-4.56-10.13-10.17s4.54-10.17,10.13-10.17,10.13,4.56,10.13,10.17h-2c0-4.5-3.65-8.17-8.13-8.17s-8.13,3.66-8.13,8.17,3.65,8.17,8.13,8.17v2Z" style="fill:#263238;"></path><path d="M184.73,81.39c-5.58,0-10.13-4.56-10.13-10.17s4.54-10.17,10.13-10.17,10.13,4.56,10.13,10.17h-2c0-4.5-3.65-8.17-8.13-8.17s-8.13,3.66-8.13,8.17,3.65,8.17,8.13,8.17v2Z" style="fill:#263238;"></path><path d="M206.95,81.39c-5.58,0-10.13-4.56-10.13-10.17s4.54-10.17,10.13-10.17,10.13,4.56,10.13,10.17h-2c0-4.5-3.65-8.17-8.13-8.17s-8.13,3.66-8.13,8.17,3.65,8.17,8.13,8.17v2Z" style="fill:#263238;"></path><path d="M229.16,81.39c-5.58,0-10.13-4.56-10.13-10.17s4.54-10.17,10.13-10.17,10.13,4.56,10.13,10.17h-2c0-4.5-3.65-8.17-8.13-8.17s-8.13,3.66-8.13,8.17,3.65,8.17,8.13,8.17v2Z" style="fill:#263238;"></path><path d="M251.38,81.39c-5.58,0-10.13-4.56-10.13-10.17s4.54-10.17,10.13-10.17,10.13,4.56,10.13,10.17h-2c0-4.5-3.65-8.17-8.13-8.17s-8.13,3.66-8.13,8.17,3.65,8.17,8.13,8.17v2Z" style="fill:#263238;"></path><path d="M273.59,81.39c-5.58,0-10.13-4.56-10.13-10.17s4.54-10.17,10.13-10.17,10.13,4.56,10.13,10.17h-2c0-4.5-3.65-8.17-8.13-8.17s-8.13,3.66-8.13,8.17,3.65,8.17,8.13,8.17v2Z" style="fill:#263238;"></path><path d="M295.81,81.39c-5.58,0-10.13-4.56-10.13-10.17s4.54-10.17,10.13-10.17,10.13,4.56,10.13,10.17h-2c0-4.5-3.65-8.17-8.13-8.17s-8.13,3.66-8.13,8.17,3.65,8.17,8.13,8.17v2Z" style="fill:#263238;"></path><path d="M318.02,81.39c-5.58,0-10.13-4.56-10.13-10.17s4.54-10.17,10.13-10.17,10.13,4.56,10.13,10.17h-2c0-4.5-3.65-8.17-8.13-8.17s-8.13,3.66-8.13,8.17,3.65,8.17,8.13,8.17v2Z" style="fill:#263238;"></path><path d="M340.24,81.39c-5.58,0-10.13-4.56-10.13-10.17s4.54-10.17,10.13-10.17,10.13,4.56,10.13,10.17h-2c0-4.5-3.65-8.17-8.13-8.17s-8.13,3.66-8.13,8.17,3.65,8.17,8.13,8.17v2Z" style="fill:#263238;"></path><polygon points="378.82 437.15 358.43 437.15 358.43 71.46 368.62 71.46 378.82 437.15" style="fill:#BA68C8;"></polygon><g><path d="M326.83,146.01h-127.74c-.55,0-1-.45-1-1s.45-1,1-1h127.74c.55,0,1,.45,1,1s-.45,1-1,1Z" style="fill:#263238;"></path><path d="M326.52,154.04h-127.74c-.55,0-1-.45-1-1s.45-1,1-1h127.74c.55,0,1,.45,1,1s-.45,1-1,1Z" style="fill:#263238;"></path><path d="M260.23,162.2h-61.45c-.55,0-1-.45-1-1s.45-1,1-1h61.45c.55,0,1,.45,1,1s-.45,1-1,1Z" style="fill:#263238;"></path><g><path d="M187.12,162.05h-21.86v-21.95h21.86v21.95Zm-20.86-1h19.86v-19.95h-19.86v19.95Z" style="fill:#263238;"></path><polygon points="178.87 159.39 167.45 150.85 170.42 146.85 178.08 152.58 188.6 139.97 192.4 143.18 178.87 159.39" style="fill:#BA68C8;"></polygon></g></g><g><path d="M327.98,187.54h-127.74c-.55,0-1-.45-1-1s.45-1,1-1h127.74c.55,0,1,.45,1,1s-.45,1-1,1Z" style="fill:#263238;"></path><path d="M327.67,195.57h-127.74c-.55,0-1-.45-1-1s.45-1,1-1h127.74c.55,0,1,.45,1,1s-.45,1-1,1Z" style="fill:#263238;"></path><path d="M261.38,203.73h-61.45c-.55,0-1-.45-1-1s.45-1,1-1h61.45c.55,0,1,.45,1,1s-.45,1-1,1Z" style="fill:#263238;"></path><g><path d="M187.12,205.61h-21.86v-21.95h21.86v21.95Zm-20.86-1h19.86v-19.95h-19.86v19.95Z" style="fill:#263238;"></path><polygon points="178.87 202.95 167.45 194.41 170.42 190.41 178.08 196.14 188.6 183.53 192.4 186.74 178.87 202.95" style="fill:#BA68C8;"></polygon></g></g><g><path d="M326.98,229.7h-127.74c-.55,0-1-.45-1-1s.45-1,1-1h127.74c.55,0,1,.45,1,1s-.45,1-1,1Z" style="fill:#263238;"></path><path d="M326.67,237.74h-127.74c-.55,0-1-.45-1-1s.45-1,1-1h127.74c.55,0,1,.45,1,1s-.45,1-1,1Z" style="fill:#263238;"></path><path d="M260.38,245.9h-61.45c-.55,0-1-.45-1-1s.45-1,1-1h61.45c.55,0,1,.45,1,1s-.45,1-1,1Z" style="fill:#263238;"></path><g><path d="M187.12,249.17h-21.86v-21.95h21.86v21.95Zm-20.86-1h19.86v-19.95h-19.86v19.95Z" style="fill:#263238;"></path><polygon points="178.87 246.51 167.45 237.97 170.42 233.97 178.08 239.69 188.6 227.09 192.4 230.29 178.87 246.51" style="fill:#BA68C8;"></polygon></g></g><g><path d="M326.98,272.95h-127.74c-.55,0-1-.45-1-1s.45-1,1-1h127.74c.55,0,1,.45,1,1s-.45,1-1,1Z" style="fill:#263238;"></path><path d="M326.67,280.99h-127.74c-.55,0-1-.45-1-1s.45-1,1-1h127.74c.55,0,1,.45,1,1s-.45,1-1,1Z" style="fill:#263238;"></path><path d="M260.38,289.14h-61.45c-.55,0-1-.45-1-1s.45-1,1-1h61.45c.55,0,1,.45,1,1s-.45,1-1,1Z" style="fill:#263238;"></path><path d="M187.12,292.41h-21.86v-21.95h21.86v21.95Zm-20.86-1h19.86v-19.95h-19.86v19.95Z" style="fill:#263238;"></path></g><g><path d="M326.98,316.51h-127.74c-.55,0-1-.45-1-1s.45-1,1-1h127.74c.55,0,1,.45,1,1s-.45,1-1,1Z" style="fill:#263238;"></path><path d="M326.67,324.54h-127.74c-.55,0-1-.45-1-1s.45-1,1-1h127.74c.55,0,1,.45,1,1s-.45,1-1,1Z" style="fill:#263238;"></path><path d="M260.38,332.7h-61.45c-.55,0-1-.45-1-1s.45-1,1-1h61.45c.55,0,1,.45,1,1s-.45,1-1,1Z" style="fill:#263238;"></path><path d="M187.12,335.97h-21.86v-21.95h21.86v21.95Zm-20.86-1h19.86v-19.95h-19.86v19.95Z" style="fill:#263238;"></path></g><g><path d="M326.98,360.07h-127.74c-.55,0-1-.45-1-1s.45-1,1-1h127.74c.55,0,1,.45,1,1s-.45,1-1,1Z" style="fill:#263238;"></path><path d="M326.67,368.1h-127.74c-.55,0-1-.45-1-1s.45-1,1-1h127.74c.55,0,1,.45,1,1s-.45,1-1,1Z" style="fill:#263238;"></path><path d="M260.38,376.26h-61.45c-.55,0-1-.45-1-1s.45-1,1-1h61.45c.55,0,1,.45,1,1s-.45,1-1,1Z" style="fill:#263238;"></path><path d="M187.12,379.53h-21.86v-21.95h21.86v21.95Zm-20.86-1h19.86v-19.95h-19.86v19.95Z" style="fill:#263238;"></path></g><rect x="144.93" y="71.46" width="1" height="365.94" style="fill:#BA68C8;"></rect><polygon points="378.82 437.15 358.43 437.15 358.43 71.46 368.62 71.46 378.82 437.15" style="fill:#fff; opacity:.6;"></polygon><rect x="119.3" y="109.34" width="239.46" height="1" style="opacity:.1;"></rect><rect x="119.3" y="128.81" width="239.46" height="1" style="opacity:.1;"></rect><rect x="119.3" y="148.27" width="239.46" height="1" style="opacity:.1;"></rect><rect x="119.3" y="167.74" width="239.46" height="1" style="opacity:.1;"></rect><rect x="119.3" y="187.2" width="239.46" height="1" style="opacity:.1;"></rect><rect x="119.3" y="206.67" width="239.46" height="1" style="opacity:.1;"></rect><rect x="119.3" y="226.13" width="239.46" height="1" style="opacity:.1;"></rect><rect x="119.3" y="245.6" width="239.46" height="1" style="opacity:.1;"></rect><rect x="119.3" y="265.06" width="239.46" height="1" style="opacity:.1;"></rect><rect x="119.3" y="284.53" width="239.46" height="1" style="opacity:.1;"></rect><rect x="119.3" y="303.99" width="239.46" height="1" style="opacity:.1;"></rect><rect x="119.3" y="323.45" width="239.46" height="1" style="opacity:.1;"></rect><rect x="119.3" y="342.92" width="239.46" height="1" style="opacity:.1;"></rect><rect x="119.3" y="362.38" width="239.46" height="1" style="opacity:.1;"></rect><rect x="119.3" y="381.85" width="239.46" height="1" style="opacity:.1;"></rect><rect x="119.3" y="401.31" width="239.46" height="1" style="opacity:.1;"></rect><rect x="119.3" y="420.78" width="239.46" height="1" style="opacity:.1;"></rect><rect x="175.34" y="108.03" width="151.18" height="7.12" style="fill:#BA68C8;"></rect></g></g><g id="freepik--Plant--inject-192"><g><g><g><path d="M407.87,400.77c-.01-.42-1.46-42.13-8.39-48.72-6.74-6.41-14.48-.24-14.81,.03l-.7-.82c.09-.07,8.82-7.05,16.26,.03,7.24,6.89,8.66,47.72,8.72,49.45l-1.08,.03Z" style="fill:#263238;"></path><path d="M408.47,408.97c-.05-.5-4.74-50.07,13.76-70.85l.82,.7c-18.19,20.43-13.55,69.55-13.5,70.05l-1.08,.1Z" style="fill:#263238;"></path><path d="M407.78,403.72l-1.08-.07c.04-.56,3.62-56.36-9.95-68.57l.73-.78c13.95,12.56,10.45,67.1,10.3,69.42Z" style="fill:#263238;"></path><path d="M409.55,403.69h-1.08c.01-1.55,.45-37.69,10.94-43.58,2.33-1.31,4.62-1.53,6.79-.65,6.34,2.57,9.49,13.62,9.62,14.09l-1.05,.28c-.03-.11-3.14-11.02-8.99-13.39-1.85-.75-3.81-.55-5.83,.59-9.96,5.58-10.39,42.29-10.4,42.66Z" style="fill:#263238;"></path><path d="M405.46,403.72l-1.08-.06c.02-.29,1.58-28.57-6.22-38.53-1.89-2.41-3.94-3.56-6.11-3.42-5.11,.35-9.4,7.67-9.44,7.74l-.94-.52c.19-.32,4.61-7.89,10.31-8.28,2.55-.18,4.92,1.11,7.05,3.83,8.04,10.28,6.51,38.06,6.44,39.24Z" style="fill:#263238;"></path><path d="M407.17,407.56c-.21-2.74-5.1-67.32,3.5-78.7l.87,.63c-8.36,11.06-3.34,77.32-3.29,77.99l-1.08,.08Z" style="fill:#263238;"></path></g><path d="M430.09,363.03s-5.49,1.98-3.62,6.25c5.25,12.03,17.76,13.31,17.76,13.31,0,0,5.87-9.09,1.06-16.16-6.63-9.74-15.05-6.55-15.19-3.41Z" style="fill:#BA68C8;"></path><path d="M406.11,357.65s5.49-.23,5.8,4.41c.31,4.63-11.9,17.45-11.9,17.45,0,0-8.71-3.08-6.84-14.64,1.87-11.56,11.57-10.06,12.94-7.21Z" style="fill:#BA68C8;"></path><path d="M408.77,330.65s-2.31-.28-3.17-2.31c-2.59-6.06,6.3-12.59,18.19-9.14,0,0,.31,10.24-6.08,14.28-6.4,4.04-8.94-2.83-8.94-2.83Z" style="fill:#BA68C8;"></path><path d="M396.81,337.47s-.61,2.89-3.39,3.77c-8.28,2.63-15.97-9.31-10.15-23.99,0,0,13.56,.69,18.21,9.21,4.66,8.52-4.68,11.01-4.68,11.01Z" style="fill:#BA68C8;"></path><path d="M388.4,362.4s1.91-2.57-.98-2.82c-2.89-.25-15.41,5.24-12.12,17.8,0,0,16.1-5.14,16.66-10.4,.56-5.26-3.56-4.58-3.56-4.58Z" style="fill:#BA68C8;"></path><path d="M422.73,335.15s.72-2.33,3.45-3.31c2.73-.97,12.86-.36,13,12.61,0,0-15.59,2.53-17.52-2.41-1.93-4.94,1.07-6.9,1.07-6.9Z" style="fill:#BA68C8;"></path><path d="M414.32,345.93s1.05-1.78,3.05-.83c2,.95,7.91,6.9,2.28,14.07,0,0-10.46-6.15-9.61-10.47,.79-3.98,4.28-2.77,4.28-2.77Z" style="fill:#BA68C8;"></path><path d="M388.69,349.06s1.51-1.94-.7-2.18c-2.21-.24-12.13,2.35-9.82,12.04,0,0,12.08-.89,12.6-4.91,.52-4.02-2.08-4.95-2.08-4.95Z" style="fill:#BA68C8;"></path><polygon points="425.79 436.83 391.14 436.83 387.4 399.7 429.53 399.7 425.79 436.83" style="fill:#263238;"></polygon><rect x="385.55" y="395.61" width="45.82" height="8.19" style="fill:#263238;"></rect></g><polygon points="387.82 403.8 429.11 403.8 428.74 407.56 388.19 407.56 387.82 403.8" style="opacity:.3;"></polygon></g></g><g id="freepik--Character--inject-192"><g><g><path d="M100.79,273.54l-20.05,89.68-16.33,68.05-8.64-2.76s-4.5-23.44,1.32-49.58c1.34-6.03,4.64-12.5,5.33-17.37,.62-4.27-1.82-14.01-1.36-23.97,.55-12.04-1.23-24.49,2.78-35.97,0,0-2.96-12.9,4.81-29.09l32.14,1.02Z" style="fill:#eec1bb;"></path><path d="M79.37,435.03c-7.57-1.76-11.33-3.3-12.57-6.42-.91-2.28,2.21-10.07,2.45-13.11,.05-.58-.38-1.07-.93-1.08l-14.53,.16c0,.25,.31,6.23,.63,10.59,.12,1.64-.19,3.34-.22,3.46l-1.43,9.28c-.21,.77,.22,1.58,.95,1.8,.13,.04,.27,.06,.4,.06h22.01c4.09,0,4.93-4.33,3.25-4.73Z" style="fill:#BA68C8;"></path></g><g><path d="M112.05,272.42l-28.63,6.97c-3.29,16.75,9.55,29.04,9.55,29.04-.75,11.47,2.3,26.19,5.25,37.18,2.45,9.05,4.18,11.56,4.79,15.58,.7,4.57-.8,11.33-.43,17.12,1.64,25.14,7.93,52.96,7.93,52.96l8.53-.63,5.82-73.82-12.81-84.4Z" style="fill:#eec1bb;"></path><path d="M133.25,435.03c-7.57-1.76-11.33-3.3-12.57-6.42-.91-2.28,1.19-10.32,1.43-13.36,.05-.58-.38-1.07-.93-1.08l-14.59,.25c0,.25,1.39,6.39,1.71,10.75,.12,1.64-.19,3.34-.22,3.46l-1.43,9.28c-.21,.77,.22,1.58,.95,1.8,.13,.04,.27,.06,.4,.06h22.01c4.09,0,4.93-4.33,3.25-4.73Z" style="fill:#BA68C8;"></path></g><g><path d="M115.78,277.39c-1.77-6.27-3.69-15.95-5.09-21.46h-37.48s-11.98,8.12-12.94,32.62c-.4,10.05-4.02,22.8-4.49,34.02l33.45,6.47,6.57-30.12,19.98-21.53Z" style="fill:#BA68C8;"></path><polygon points="115.78 277.39 124.56 322.4 94.32 329.05 91.11 310.88 91.38 294.17 115.78 277.39" style="fill:#BA68C8;"></polygon><polygon points="92.16 316.82 97.17 293.85 104.73 287.36 99.63 298.22 94.32 329.05 92.16 316.82" style="opacity:.3;"></polygon></g><g><g><path d="M116.65,224.57l3.42,19.4,17.63-6.87,4.44,6.24s-19.53,20.36-30.32,17.38c-6.12-1.69-4.87-32.19-4.87-32.19l9.7-3.97Z" style="fill:#eec1bb;"></path><path d="M107.08,205.04s2.03,.67,4,3.08c1.97,2.41,11.53,17.13,11.53,17.13l-15,7.03-.53-27.24Z" style="fill:#263238;"></path><path d="M113.11,229.7s.25-4.46,0-7.74c-.25-3.28-1.75-6.47-1.75-6.47,0,0,3,3.89,3.84,7.1,.84,3.21,1.44,5.44,1.44,5.44l-3.54,1.66Z" style="opacity:.3;"></path></g><path d="M102.89,203.63l4.19,1.41s6.03,12.9,6.03,18.24-2.55,34.06-2.55,34.06l-37.59-.71-2.05-13.16-2.79-17.85s5.46-10.21,3.21-19.65l2.25-1.22,29.3-1.11Z" style="fill:#263238;"></path><path d="M137.84,243.53c3.24,3.04,9.78-1.99,9.78-1.99l4.01-2.12c1.35-.71,1.99-2.29,1.52-3.75l-1.25-3.64v-.03c-.6-1.64-2.4-2.5-4.05-1.92l-4.11,1.48c-.83,.3-1.59,.76-2.25,1.35l-5.93,5.32,2.29,5.3Z" style="fill:#eec1bb;"></path><path d="M144.42,231.28c.82-.48,4.91-1.65,6.99-2.44,2.07-.79,4.78-1.52,5.63-1.77,.85-.25,1.4,1.19,.75,2.13-.65,.94-4.66,2.24-6.09,2.88-1.43,.64-3.78,1.77-3.69,2.54,0,0-4.41-2.87-3.58-3.34Z" style="fill:#eec1bb;"></path></g><g><path d="M71.39,170.32c-.97,3.47-1.45,7.06-1.43,10.66-.05,4.12,1.43,7.91,.36,11.96-1.25,4.73-2.73,13.16,2.94,15.79,1.48,.59,3.09,.74,4.66,.44,5.53-.7,10.68-3.12,16.17-4.04,6.82-1.1,14.87,2.02,21.31-.7,2.43-1.03,4.73-5.77,4.9-8.63,.22-3.24-2.79-5.56-4.36-8.03-1.16-1.86-4.21-4.23-4.69-6.37-.07-4.36,2.19-7.26,.27-14.66-1.14-3.54-4.48-8.31-8.26-9.76-8.23-3.21-16.4,1.89-16.4,1.89-7.29-.65-13.37,4.61-15.47,11.46Z" style="fill:#263238;"></path><g><path d="M95.44,200.59c-1.22-1.2-1.48-2.15-1.26-3.91,.15-1.35,.58-2.76,1.09-4.13l-1.81-1.95-9.43-8.76c.48,6.09,2.13,15.91-2.5,19.42,0,0-5.65,2.59-8.12,3.34,1.59,1.2,16.83,17.75,25.94,16.63,8.28-1.02,4.72-16.61,3.29-18.96-2.39-.64-4.96-1.27-7.2-1.68Z" style="fill:#eec1bb;"></path><path d="M94.2,197.46c-2.59-.59-6.32-2.31-6.96-5.26-.26-1.21-.3-2.42-.23-3.22l7.73,4.8c-.09,1.15-.72,2.03-.54,3.69Z" style="opacity:.2;"></path><path d="M80.22,172.19c1.28,9.26,1.63,13.19,6.65,17.84,7.55,7,18.54,4.02,20.03-5.28,1.34-8.37-.98-22.1-10.29-25.59-9.17-3.43-17.67,3.77-16.39,13.03Z" style="fill:#eec1bb;"></path><path d="M92.09,175.33c.02,.87,.52,1.61,1.14,1.64,.61,.04,1.09-.64,1.08-1.51-.02-.87-.52-1.61-1.14-1.64-.61-.04-1.09,.64-1.08,1.52Z" style="fill:#263238;"></path><path d="M90.63,172.09c.12,0,.24-.03,.32-.12,1.36-1.41,2.99-1.03,3.01-1.03,.24,.06,.48-.09,.52-.34,.04-.25-.13-.49-.37-.55-.09-.02-2.14-.49-3.83,1.25-.17,.17-.15,.46,.03,.65,.09,.09,.2,.14,.31,.14Z" style="fill:#263238;"></path><path d="M104.13,169.44c.11-.04,.2-.11,.25-.22,.1-.22,0-.48-.24-.6-2.36-1.11-4.18-.11-4.25-.07-.22,.12-.28,.39-.14,.6,.14,.21,.43,.28,.64,.16,.07-.04,1.49-.8,3.37,.09,.12,.06,.25,.06,.37,.02Z" style="fill:#263238;"></path><path d="M99.05,173.87s1.61,3.41,3.36,5.51c.3,.37,.15,.93-.29,1.11-1.13,.48-2.49,.16-2.49,.16l-.58-6.77Z" style="fill:#d8847c;"></path><path d="M92.98,173.79l2.15-.42s-1.52,1.55-2.15,.42Z" style="fill:#263238;"></path><path d="M101.7,174.73c.02,.87,.52,1.61,1.14,1.64,.61,.04,1.09-.64,1.08-1.51-.02-.87-.52-1.61-1.14-1.64-.61-.04-1.09,.64-1.08,1.52Z" style="fill:#263238;"></path><path d="M102.59,173.19l2.15-.42s-1.52,1.55-2.15,.42Z" style="fill:#263238;"></path><path d="M97.82,184.91c-1.69,0-3.34-.94-4.19-2.41-.07-.12-.03-.27,.09-.34,.12-.07,.27-.03,.34,.09,.81,1.4,2.43,2.26,4.04,2.15,.13,0,.26,.09,.27,.23,0,.14-.09,.26-.23,.27-.11,0-.21,.01-.32,.01Z" style="fill:#263238;"></path></g><path d="M77.1,158.31c-1.18-1.28-2.05-2.84-2.53-4.51,1.58,1.6,3.77,2.57,6.02,2.68-1.84-1.7-1.97-4.87-.39-6.81,1.58-1.94,4.59-2.48,6.82-1.32s3.57,4.42,3.26,6.9c-.31,2.49-1.22,6.47-6.61,6.59-4.44,.81-9.28-1.73-11.14-5.85,1.31,1.13,2.9,1.93,4.58,2.32Z" style="fill:#263238;"></path><path d="M83.2,187.22c-9.07-5.9-8.78-28.49,7.46-29.8,16.24-1.32,16.29,18.2,16.29,18.2-2.81-18.07-18.74-11.61-18.74-11.61,3.12,7.19-3.21,11.91-3.21,11.91-2.25,4.92-1.8,11.3-1.8,11.3Z" style="fill:#263238;"></path><path d="M77.76,179.9c1.19,1.86,3.03,2.97,4.68,3.31,2.49,.5,3.58-3.51,2.62-5.94-.86-2.18-3.34-3.54-5.72-2.95-2.34,.59-2.94,3.46-1.59,5.58Z" style="fill:#eec1bb;"></path><path d="M81.85,180.92s-.04,0-.06,0c-1.52-.35-2.22-1.14-2.54-1.74-.32-.59-.39-1.27-.2-1.76,.3-.78,1.24-1.38,2.18-1.03,.13,.05,.2,.19,.15,.32-.05,.13-.19,.2-.32,.15-.64-.24-1.33,.2-1.54,.74-.1,.27-.12,.78,.18,1.35,.27,.51,.88,1.19,2.21,1.49,.13,.03,.22,.16,.19,.3-.03,.12-.13,.19-.24,.19Z" style="opacity:.2;"></path></g><path d="M81.41,188.24c-1.59,0-2.99-1.18-3.21-2.8h0c-.25-1.77,1-3.41,2.77-3.66,.86-.12,1.71,.1,2.4,.63,.69,.52,1.14,1.28,1.26,2.14s-.1,1.71-.63,2.4c-.52,.69-1.28,1.14-2.14,1.26-.15,.02-.3,.03-.45,.03Zm-2.96-2.83c.23,1.64,1.74,2.79,3.38,2.55,.79-.11,1.49-.52,1.98-1.16,.48-.64,.69-1.43,.58-2.22-.11-.79-.52-1.49-1.16-1.98-.64-.48-1.42-.69-2.22-.58-1.64,.23-2.78,1.74-2.56,3.38h0Z" style="fill:#BA68C8;"></path><g><g><path d="M107.55,274.11s5.34-16.9-7.86-21.07c-8.07-2.53-10.92,.69-10.92,.69l1.92,16.09c5.4,6.33,14.93,9.45,21.82,10.54,5.01,.84-4.95-6.25-4.95-6.25Z" style="fill:#e0e0e0;"></path><path d="M93.05,229.52c-.49,6.08,12.04,8.84,16.1,8.06,0,0,4.35,4.97,7.4,3.24,1.33-.75-2.32-3.11-3.98-5.58s-8.11-3.57-9.48-6.62c-2.41-5.38-9.45-6.15-10.05,.91Z" style="fill:#fff;"></path><path d="M83.82,230.74c-5.35,16.48-8.91,33.64-2.95,40.19,5.96,6.54,12.92,12.65,20.27,13.61,5.32,.68-5.35-8.62-5.35-8.62,0,0,20.12-8.5,4.84-20.34,3.77-5.45,.86-19.86,2.02-25.56s-13.86-14.63-18.83,.72Z" style="fill:#fff;"></path><path d="M98.15,210.42c-.42-1.49,3.83-1.92,6.31-4.66,1.49,2.59-2.18,8.31-2.18,8.31,0,0-3.37-.95-4.13-3.65Z" style="fill:#263238;"></path><path d="M87.77,224.24c-.12-2.95-2.74-6.06-.88-10.74,1.77-4.3,6.21-6.87,10.82-6.28,4.42,.58,7.8,4.23,8.03,8.68,.33,4.14-5.44,8.08-4.68,12.03,.76,3.96-13.28-3.69-13.28-3.69Z" style="fill:#fff;"></path><path d="M98.99,207.5c-1.27,1.36,3.03,3.64,5.14,3.68-1.21-1.81-3.04-3.11-5.14-3.68Z" style="fill:#e0e0e0;"></path><path d="M81.33,309.2h-.13c-2.53-.05-4.69-1.68-5.96-4.45-.29-.67,.01-1.44,.68-1.73s1.44,.01,1.73,.68c.84,1.85,2.13,2.87,3.62,2.87,1.86-.13,3.49-1.3,4.22-3.02,1.81-3.62,.62-8.68-3.18-13.54-6.91-8.83-6.89-15.33-5.65-19.16,1.16-3.64,3.73-5.91,5.61-6.47,.69-.21,1.42,.19,1.62,.88s-.19,1.42-.88,1.62h0c-1.01,.31-2.95,1.86-3.83,4.79-1.04,3.27-.96,8.83,5.22,16.76,4.44,5.66,5.75,11.76,3.46,16.29-1.15,2.62-3.68,4.35-6.53,4.47Z" style="fill:#fff;"></path><path d="M81.32,309.2c-2.5,0-4.79-1.61-6.05-4.45-.22-.69,.17-1.43,.86-1.64,.58-.18,1.21,.06,1.52,.59,1.04,2.31,2.83,3.33,4.74,2.75,.69-.21,1.42,.17,1.63,.86,.21,.69-.17,1.42-.86,1.63-.6,.18-1.22,.27-1.84,.27Z" style="fill:#e0e0e0;"></path><path d="M91.23,210.12c.41-1.49-3.83-1.92-6.31-4.66-1.5,2.59,2.17,8.31,2.17,8.31,0,0,3.38-.95,4.14-3.65Z" style="fill:#263238;"></path><path d="M99.03,209.74c.99-.43,2.12-.38,3.06,.15,.54,.36-.37,1.21-.96,1.18-.58-.03-2.92-.94-2.1-1.33Z" style="fill:#263238;"></path><path d="M99.77,213.08c-.95-.05-1.89-.32-2.72-.79-.08-.04-.11-.14-.07-.22,.04-.08,.14-.11,.22-.07h0c2.06,1.04,3.3,.84,3.77,.32,.34-.44,.34-1.06,0-1.5-.06-.07-.06-.16,0-.23,.07-.05,.16-.03,.21,.04h0c.45,.57,.45,1.37,0,1.93-.38,.37-.9,.56-1.43,.53Z" style="fill:#263238;"></path><path d="M103.43,213.2c-.81-.17-1.56-.54-2.2-1.06-.07-.06-.08-.16-.03-.23,.06-.07,.16-.08,.23-.03h0c.7,.52,1.83,1.16,2.16,.96,.13-.08,.12-.34,.09-.54-.02-.08,.04-.16,.12-.18h.01c.08-.02,.16,.02,.18,.1,0,.01,0,.02,0,.03,.08,.43,0,.72-.23,.86-.1,.06-.22,.09-.34,.09Z" style="fill:#263238;"></path><path d="M96.21,208.12c-.68-.55-2.35-.07-2.4,.71-.06,.78,3.62,.26,2.4-.71Z" style="fill:#263238;"></path><path d="M101.03,208.4c.67-.28,1.92,.51,1.77,1.14-.14,.63-2.98-.68-1.77-1.14Z" style="fill:#263238;"></path><path d="M99.3,211c.03,.06,0,.14-.07,.16-.02,0-.04,.01-.06,0-.11,0-.2-.07-.25-.17-.03-.05-.01-.13,.04-.16,.02-.01,.05-.02,.07-.01,.11,0,.21,.07,.26,.17Z" style="fill:#263238;"></path><path d="M98.03,210.55c.03,.06,0,.14-.07,.16-.02,0-.04,.01-.06,0-.11,0-.2-.07-.25-.16-.03-.05-.01-.13,.04-.16,.02-.01,.05-.02,.07-.01,.11,0,.21,.07,.26,.16Z" style="fill:#263238;"></path><path d="M98.54,211.48c.03,.05,.01,.13-.04,.16-.02,.01-.05,.02-.07,.01-.11,0-.21-.07-.25-.17-.03-.05-.01-.13,.04-.16,.02-.01,.05-.02,.07-.01,.11,0,.21,.07,.25,.17Z" style="fill:#263238;"></path><path d="M103.42,210.96c.03,.06,0,.13-.05,.15-.02,.01-.05,.01-.07,0-.11,0-.2-.07-.25-.16-.03-.05-.01-.13,.04-.16,.02-.01,.05-.02,.07-.01,.11,0,.21,.07,.26,.17Z" style="fill:#263238;"></path><path d="M102.67,211.44c0,.09,0,.16-.11,.16-.11,0-.2-.07-.25-.16-.03-.05-.01-.13,.04-.16,.02-.01,.05-.02,.07-.01,.11,0,.2,.07,.25,.17Z" style="fill:#263238;"></path></g><g><path d="M62,211.75s-11.48,38.21-3.26,44.89c8.22,6.69,13.54-.1,18.22-2.32,4.4-2.09,15.39-8.88,15.39-8.88l-4.12-7.31-18.07,5.52,6.22-24.1-3.52-14.89c-5.04,.22-8.86,2.29-10.87,7.08Z" style="fill:#eec1bb;"></path><g><path d="M105.48,239.46c.24-.86-.69-1.58-.69-1.58,0,0,.04-1.21-1.77-2.45-1.8-1.24-5.49-1.58-5.49-1.58,0,0,.96-.76,.82-1.68-.14-.92-3.17,.45-3.17,.45,0,0-3.57,1.43-4.66,2.4-1.08,.97-2.91,4.67-2.91,4.67l3.31,6.54c1.27-.05,2.43-1.32,3.3-2.37,.87-1.05,3.69-2.58,4.86-2.55,1.17,.03,1.99,.24,3.24,.73,.98,.38,1.09-.1,1.09-.33,.05,.07,.21,.14,.73,.09,.91-.1,.65-1.43,.65-1.43,0,0,.43,.02,.68-.9Z" style="fill:#eec1bb;"></path><path d="M91.99,235.96c-.07,0-.14-.03-.19-.08-.09-.1-.08-.26,.02-.35,1.96-1.76,3.84-1.93,5.61-1.93h.09c.14,0,.25,.11,.25,.25,0,.14-.11,.25-.25,.25-.02,0-.06,0-.09,0-1.74,0-3.45,.16-5.27,1.8-.05,.04-.11,.06-.17,.06Z" style="opacity:.2;"></path><path d="M103.41,241.96s-.02,0-.04,0c-.14-.02-.23-.14-.21-.28,0-.03,.04-.62-1.03-1.06-.99-.42-2.56-1.07-4.54-.79-.14,.01-.26-.08-.28-.21s.08-.26,.21-.28c2.11-.3,3.82,.42,4.74,.81,1.51,.63,1.4,1.57,1.39,1.61-.02,.12-.12,.22-.25,.22Z" style="opacity:.2;"></path><path d="M104.78,240.46h-.02c-.14-.01-.24-.13-.23-.27,.02-.22-.09-.46-.29-.68-.29-.31-1.05-.76-1.37-.91-1.34-.63-2.58-.94-4.02-1-.14,0-.25-.12-.24-.26,0-.14,.12-.25,.26-.24,1.51,.06,2.81,.39,4.21,1.05,.26,.12,1.13,.61,1.52,1.02,.31,.33,.46,.71,.43,1.07-.01,.13-.12,.23-.25,.23Z" style="opacity:.2;"></path><path d="M104.78,238.13c-.07,0-.13-.03-.18-.08-1.78-1.91-5.57-2.21-5.61-2.21-.14-.01-.24-.13-.23-.27,.01-.14,.12-.25,.27-.23,.16,.01,4.03,.31,5.94,2.37,.09,.1,.09,.26-.01,.35-.05,.04-.11,.07-.17,.07Z" style="opacity:.2;"></path></g><path d="M68.93,204.92s-5.16,1.28-7.41,7.49c-2.11,5.84-4.85,17.83-4.85,17.83l16.73,8.64,3.16-20.21-3.1-14.4-4.53,.66Z" style="fill:#263238;"></path></g></g><path d="M86.95,227.47c-3.43,5.04,4.93,13.87,8.19,16.41,0,0-.85,6.54,2.46,7.66,1.44,.51,.8-3.83,1.57-6.71,.77-2.87-2.29-9.28-2.22-12.62,.09-5.82-6.04-10.6-10-4.75Z" style="fill:#263238;"></path></g></g></svg>
