<svg xmlns="http://www.w3.org/2000/svg" viewBox="0 0 500 500"><g id="freepik--Grass--inject-5"><ellipse id="freepik--Floor--inject-5" cx="251.11" cy="366.2" rx="229.63" ry="116.22" style="fill:#BA68C8"></ellipse></g><g id="freepik--Shadows--inject-5"><path id="freepik--Shadow--inject-5" d="M356,394.41C339,401.73,339,413.59,356,420.9s44.3,7.32,61.2,0,16.91-19.17,0-26.49S372.85,387.1,356,394.41Z" style="opacity:0.1"></path><path id="freepik--shadow--inject-5" d="M244.62,381.7c-5.57,3.21-5.57,8.43,0,11.65s14.61,3.22,20.19,0,5.57-8.44,0-11.65S250.19,378.48,244.62,381.7Z" style="opacity:0.1"></path><ellipse id="freepik--shadow--inject-5" cx="316.65" cy="341.61" rx="37.25" ry="21.51" style="opacity:0.1"></ellipse><path id="freepik--shadow--inject-5" d="M236.57,307.74,103.64,384.49a5.42,5.42,0,0,1-4.9,0l-41-23.7c-1.35-.78-1.35-2.05,0-2.83l132.94-76.74a5.34,5.34,0,0,1,4.89,0l41,23.69C237.92,305.69,237.92,307,236.57,307.74Z" style="opacity:0.1"></path></g><g id="freepik--Flowers--inject-5"><g id="freepik--flowers--inject-5"><path d="M413.43,319.42s-.2-2.81-2.41-3.11c0,0-1.8-.3-2.8,2.51a5.77,5.77,0,0,0-5.22.6,3.25,3.25,0,0,0,2.41,3.61s-1.71,1.3-.9,4.41c0,0,4.51,1.5,5.61-1.31,0,0,.4,2.51,4.81,2.51a4.19,4.19,0,0,0,0-5s3.11-.1,3.61-2.41C418.54,321.22,416.43,317.71,413.43,319.42Z" style="fill:#fafafa"></path><path d="M410.72,319.86a3.08,3.08,0,0,0-3.34,2.07s0,1.63,2.82,1.87,3.24-1.4,3.24-1.4A2.77,2.77,0,0,0,410.72,319.86Z" style="fill:#f0997a"></path><path d="M427.41,313.65s-1-2-2.61-2.23a4.45,4.45,0,0,0-1.6,2.87,4.13,4.13,0,0,0-3.55.87,3.77,3.77,0,0,0,2.26,2.6,5.06,5.06,0,0,0,.11,3.7s3.12.23,4.22-2.37c0,0,1.16,1.73,4.33,1.12a3.24,3.24,0,0,0-1.15-3.78s2-1.13,1.73-3A4.91,4.91,0,0,0,427.41,313.65Z" style="fill:#fafafa"></path><path d="M425.64,314.83a2.29,2.29,0,0,0-2.22,1.88s.19,1.2,2.28,1.06,2.21-1.39,2.21-1.39A2,2,0,0,0,425.64,314.83Z" style="fill:#f0997a"></path><path d="M412.43,310.41s-.61-1.79-1.78-1.18-.77,1.74.25,2c0,0-2.19.72-1.58,1.89s2.5-.05,2.91-.66c0,0,.41,1.79,1.94,1.15s0-2.18,0-2.18,2.34-.91,1.07-2S412.43,310.41,412.43,310.41Z" style="fill:#fafafa"></path><path d="M426.1,327.48s.18-1.88-1.14-1.81-1.41,1.27-.59,1.92c0,0-2.29-.26-2.22,1.06s2.3,1,2.92.6c0,0-.37,1.81,1.29,1.85s.9-2,.9-2,2.51.14,1.8-1.36S426.1,327.48,426.1,327.48Z" style="fill:#fafafa"></path><path d="M396.77,326.4s-1.52-2-.36-2.49,1.63,1.25,1.63,1.25,1.15-1.37,1.7-.4-.85,2-.85,2,1.58.85.67,1.7-2-.48-2-.48-.62,1.51-1.59,1.09S395.62,326.88,396.77,326.4Z" style="fill:#fafafa"></path></g><g id="freepik--flowers--inject-5"><path d="M90.47,401.16s-1.41-2.87-3.74-3.2a6.44,6.44,0,0,0-2.31,4.13,5.87,5.87,0,0,0-5.09,1.25,5.44,5.44,0,0,0,3.24,3.74,7.23,7.23,0,0,0,.16,5.31s4.49.33,6.06-3.4c0,0,1.67,2.48,6.23,1.61a4.68,4.68,0,0,0-1.66-5.44s2.83-1.62,2.49-4.34A7,7,0,0,0,90.47,401.16Z" style="fill:#fafafa"></path><path d="M87.92,402.85a3.28,3.28,0,0,0-3.17,2.71s.26,1.72,3.26,1.53,3.19-2,3.19-2A3,3,0,0,0,87.92,402.85Z" style="fill:#f0997a"></path><path d="M69.43,385.07s-.49-2.49-2.21-3.23a5.11,5.11,0,0,0-2.62,2.68,4.68,4.68,0,0,0-4.16-.1,4.32,4.32,0,0,0,1.7,3.54,5.71,5.71,0,0,0-1,4.11s3.36,1.18,5.35-1.35c0,0,.75,2.24,4.43,2.53a3.7,3.7,0,0,0-.14-4.51s2.5-.66,2.81-2.81A5.57,5.57,0,0,0,69.43,385.07Z" style="fill:#fafafa"></path><path d="M67.12,385.84a2.59,2.59,0,0,0-3,1.41s-.16,1.38,2.18,1.85,2.86-.87,2.86-.87A2.34,2.34,0,0,0,67.12,385.84Z" style="fill:#f0997a"></path><path d="M83,387.55s-.88-2.57-2.57-1.69-1.1,2.49.37,2.86c0,0-3.15,1-2.28,2.71s3.6-.07,4.18-.95c0,0,.59,2.58,2.79,1.66s0-3.13,0-3.13,3.37-1.32,1.54-2.86S83,387.55,83,387.55Z" style="fill:#fafafa"></path><path d="M68.86,404.51s-2.18-2.88-.52-3.57,2.35,1.78,2.35,1.78,1.66-2,2.44-.56S71.91,405,71.91,405s2.27,1.22,1,2.45-2.88-.7-2.88-.7-.89,2.18-2.28,1.57S67.2,405.21,68.86,404.51Z" style="fill:#fafafa"></path></g></g><g id="freepik--Plant--inject-5"><g id="freepik--Plants--inject-5"><path d="M404.65,285.51c.05-.8-1.13-22.08,5.64-33.41,8.29-13.88,16.65-17.18,21.88-12.55,4.71,4.17-.62,10.68-7.15,17.46-7.75,8-13.18,16.81-14.4,27.65Z" style="fill:#37474f"></path><path d="M408.2,283.75a.42.42,0,0,0,.4-.41c.38-22.82,15.72-38.08,19.81-40.91a.43.43,0,0,0,.1-.59.42.42,0,0,0-.58-.1c-4.16,2.89-19.78,18.41-20.17,41.58a.42.42,0,0,0,.42.43Z" style="fill:#fff"></path><path d="M416.9,300.79c.58-.05,1.17-.11,1.74-.18a10.61,10.61,0,0,0,5.44-1.76c1.53-1.18,2.4-3.43,1.43-5.1-.48-.84-1.34-1.44-1.68-2.34a3.27,3.27,0,0,1,1.48-3.62,13.3,13.3,0,0,1,3.92-1.51,10,10,0,0,0,4.85-2.87,4.94,4.94,0,0,0,.86-5.32c-.64-1.21-1.95-2.19-1.91-3.55s1.24-2.2,2-3.05A17.45,17.45,0,0,0,438,268.1a4.64,4.64,0,0,0,.27-4.35,5.31,5.31,0,0,0-2.85-2.23,14,14,0,0,0-7.51-.6,26,26,0,0,0-7.16,2.55,35.19,35.19,0,0,0-11.58,9,25.44,25.44,0,0,0-4.84,9.45,38.29,38.29,0,0,0-1.41,11.16c.12,2.55.5,4.9,3,6.13C409.32,300.89,413.19,301.09,416.9,300.79Z" style="fill:#455a64"></path><path d="M404.6,296.27l-.12,0a.35.35,0,0,1-.22-.45c8.65-25,28.45-30.87,28.65-30.92a.35.35,0,0,1,.44.24.36.36,0,0,1-.25.44c-5.43,1.56-21.09,10.05-28.17,30.47A.35.35,0,0,1,404.6,296.27Z" style="fill:#fafafa"></path><path d="M412.75,280.92a.35.35,0,0,1-.29-.15.34.34,0,0,1,.09-.49c5.17-3.66,13.79-2.9,18.26-1.19a.36.36,0,1,1-.26.67c-4.31-1.66-12.63-2.41-17.59,1.1A.39.39,0,0,1,412.75,280.92Z" style="fill:#fafafa"></path></g></g><g id="freepik--Trees--inject-5"><g id="freepik--Tree--inject-5"><g id="freepik--tree--inject-5"><path d="M375.21,191.46l4-2.05,19.25,37.92V180.77h7.58v36.47l19.67-31.78,3.84,2.38-23.51,38v73.89a1.88,1.88,0,0,1-1.11,1.54,5.89,5.89,0,0,1-5.36,0,1.88,1.88,0,0,1-1.11-1.54V237.33Z" style="fill:#BA68C8"></path><path d="M375.21,191.46l4-2.05,19.25,37.92V180.77h7.58v36.47l19.67-31.78,3.84,2.38-23.51,38v73.89a1.88,1.88,0,0,1-1.11,1.54,5.89,5.89,0,0,1-5.36,0,1.88,1.88,0,0,1-1.11-1.54V237.33Z" style="opacity:0.55"></path><circle cx="363.82" cy="143.75" r="55.24" transform="translate(-18.33 60.13) rotate(-9.22)" style="fill:#BA68C8"></circle><circle cx="363.82" cy="143.75" r="55.24" transform="translate(-18.33 60.13) rotate(-9.22)" style="opacity:0.15"></circle><path d="M346.5,129.62c-7.12-22.43-14.71-31.21-9.9-33.94a55.24,55.24,0,1,1-15.4,83.22C337.57,183.68,355.74,158.72,346.5,129.62Z" style="opacity:0.1"></path><circle cx="450.84" cy="159.38" r="38.82" style="fill:#BA68C8"></circle><circle cx="450.84" cy="159.38" r="38.82" style="opacity:0.15"></circle><path d="M450.84,120.56a38.64,38.64,0,0,1,22.69,7.33c1.05,23.71-19.09,46.84-13.46,54.61s19.5,3,24.32-3.6a38.82,38.82,0,1,1-33.55-58.34Z" style="opacity:0.15"></path><circle cx="402.29" cy="117.52" r="71.22" transform="translate(-16.62 104.67) rotate(-14.53)" style="fill:#BA68C8"></circle><path d="M333,133.8A71.22,71.22,0,1,0,437.33,55.52,71.35,71.35,0,0,1,454,68.59,71.21,71.21,0,0,1,333,133.8Z" style="opacity:0.1"></path></g></g><g id="freepik--tree--inject-5"><g id="freepik--tree--inject-5"><path d="M78.16,191.46l4-2.05,19.26,37.92V180.77H109v36.47l19.67-31.78,3.85,2.38-23.52,38v73.89a1.88,1.88,0,0,1-1.11,1.54,5.87,5.87,0,0,1-5.35,0,1.88,1.88,0,0,1-1.11-1.54V237.33Z" style="fill:#BA68C8"></path><path d="M78.16,191.46l4-2.05,19.26,37.92V180.77H109v36.47l19.67-31.78,3.85,2.38-23.52,38v73.89a1.88,1.88,0,0,1-1.11,1.54,5.87,5.87,0,0,1-5.35,0,1.88,1.88,0,0,1-1.11-1.54V237.33Z" style="opacity:0.55"></path><circle cx="66.76" cy="143.75" r="55.24" transform="translate(-22.16 12.55) rotate(-9.22)" style="fill:#BA68C8"></circle><circle cx="66.76" cy="143.75" r="55.24" transform="translate(-22.16 12.55) rotate(-9.22)" style="opacity:0.15"></circle><path d="M49.45,129.62c-7.12-22.43-14.72-31.21-9.9-33.94a55.24,55.24,0,1,1-15.4,83.22C40.52,183.68,58.69,158.72,49.45,129.62Z" style="opacity:0.1"></path><circle cx="153.79" cy="159.38" r="38.82" style="fill:#BA68C8"></circle><circle cx="153.79" cy="159.38" r="38.82" style="opacity:0.15"></circle><path d="M153.79,120.56a38.58,38.58,0,0,1,22.68,7.33c1.06,23.71-19.08,46.84-13.45,54.61s19.49,3,24.32-3.6a38.82,38.82,0,1,1-33.55-58.34Z" style="opacity:0.15"></path><circle cx="105.24" cy="117.52" r="71.22" transform="matrix(0.95, -0.31, 0.31, 0.95, -30.85, 37.72)" style="fill:#BA68C8"></circle><path d="M35.91,133.8A71.22,71.22,0,1,0,140.28,55.52,71.77,71.77,0,0,1,157,68.59a71.22,71.22,0,0,1-69.33,87.48A71.05,71.05,0,0,1,35.91,133.8Z" style="opacity:0.1"></path></g></g></g><g id="freepik--soccer-ball--inject-5"><g id="freepik--soccer-ball--inject-5"><circle cx="252.44" cy="367.41" r="15.46" transform="matrix(0.92, -0.38, 0.38, 0.92, -121.39, 124.57)" style="fill:#f5f5f5"></circle><path d="M255.16,359.88a16.59,16.59,0,0,0-6.23,1.75,34.56,34.56,0,0,0,0,6.25,21.12,21.12,0,0,0,5.57,1.92s3-2.46,3.77-4.67A12.89,12.89,0,0,0,255.16,359.88Z" style="fill:#455a64"></path><path d="M244.79,359l-.43-.87-.09.13-.07.09.41.82,4.25,2.56.46.34.05-.09a.52.52,0,0,1,.11-.1l-.49-.35Z" style="fill:#455a64"></path><path d="M253.62,353c-.35,0-.74-.08-1.17-.11a10.48,10.48,0,0,0-6.4,1.65l-.86.5a2.09,2.09,0,0,1,.08.23l.92-.53a10.12,10.12,0,0,1,6.25-1.61c.54,0,1,.09,1.45.15A.81.81,0,0,1,253.62,353Z" style="fill:#455a64"></path><path d="M256.65,355.06l-.21.68-1.4,4.1-.33.87a.86.86,0,0,1,.23.06l.33-.85,1.4-4.1.21-.69A.88.88,0,0,1,256.65,355.06Z" style="fill:#455a64"></path><path d="M264.1,365.26a4.81,4.81,0,0,1-.49.36,48.29,48.29,0,0,0-5.33-.61h-.09a3.16,3.16,0,0,0-.32,0,1.93,1.93,0,0,1,0,.24,1.88,1.88,0,0,1,.41,0,50.23,50.23,0,0,1,5.34.61h0l0,0a2.66,2.66,0,0,0,.47-.35A2.1,2.1,0,0,1,264.1,365.26Z" style="fill:#455a64"></path><path d="M261.86,356.67a12,12,0,0,1,3.44,4.94,3.06,3.06,0,0,1,.12.57,1.09,1.09,0,0,1,.23-.09,2.86,2.86,0,0,0-.12-.55,12.23,12.23,0,0,0-3.5-5l-.3-.29c-.2-.19-.39-.36-.58-.51a.54.54,0,0,1,0,.11l-.09.08c.18.14.36.3.56.49S261.75,356.56,261.86,356.67Z" style="fill:#455a64"></path><path d="M254.63,369.8a8.35,8.35,0,0,1,.28-.84.88.88,0,0,1-.29.09c-.14.4-.22.67-.23.72v0l1.52,5.75,0,0,1.1.75.06,0a1,1,0,0,1,.25-.06c-.45-.3-.91-.61-1.23-.84Z" style="fill:#455a64"></path><path d="M265.33,370.58c-.11.29-.24.59-.38.89a15.35,15.35,0,0,1-3.76,4.69c-.22.11-.6.31-1,.48a.81.81,0,0,1,.19.18c.46-.21.85-.41.95-.46a15.31,15.31,0,0,0,3.85-4.79c.13-.28.25-.56.36-.83A1,1,0,0,1,265.33,370.58Z" style="fill:#455a64"></path><path d="M249.6,367.36l-.73.42a33.61,33.61,0,0,0-4.58,3.67l0,0c-.06.1-.26.44-.48.89l.17.22c.18-.39.37-.74.5-1A35.82,35.82,0,0,1,249,368c.3-.18.57-.32.8-.44A1.07,1.07,0,0,1,249.6,367.36Z" style="fill:#455a64"></path><path d="M253,378.9c-.41,0-.87,0-1.38-.08a11,11,0,0,1-5.7-2.1l0,0h0s-.33-.08-.74-.23a2.13,2.13,0,0,1,0,.25c.34.11.61.18.69.2a11.34,11.34,0,0,0,5.81,2.14c.47,0,.9.06,1.29.07A.54.54,0,0,1,253,378.9Z" style="fill:#455a64"></path><path d="M239.88,369.57a.49.49,0,0,1,.24,0,7.45,7.45,0,0,1-.17-.82,23.59,23.59,0,0,1,.3-6.09,9.14,9.14,0,0,1,.27-1.09.49.49,0,0,1-.17,0h-.08a10.33,10.33,0,0,0-.26,1,23.81,23.81,0,0,0-.29,6.17A5.28,5.28,0,0,0,239.88,369.57Z" style="fill:#455a64"></path><path d="M252.44,353a12.07,12.07,0,0,1,4.12,2.75,14.65,14.65,0,0,1,5.09.52,10,10,0,0,0-.27-1.51A15.39,15.39,0,0,0,253.7,352,13.73,13.73,0,0,0,252.44,353Z" style="fill:#455a64"></path><path d="M267.44,363.63a11.88,11.88,0,0,0-2-2.05,21.47,21.47,0,0,1-1.78,4.17,40.17,40.17,0,0,1,1.43,5.77,14.75,14.75,0,0,0,2.47-.73,15.1,15.1,0,0,0,.38-3.38A15.72,15.72,0,0,0,267.44,363.63Z" style="fill:#455a64"></path><path d="M242.18,377.85a9.74,9.74,0,0,0,3.67-1s-.78-2.34-1.48-5.28a30,30,0,0,1-4.54-2.78s-1,1-1.19,4.2A15.64,15.64,0,0,0,242.18,377.85Z" style="fill:#455a64"></path><path d="M238.9,359.94a6.26,6.26,0,0,0,1.23,2.68,10.74,10.74,0,0,1,4.57-3.53,32.63,32.63,0,0,1,1.41-4.43,15.05,15.05,0,0,0-2.29-.09A15.65,15.65,0,0,0,238.9,359.94Z" style="fill:#455a64"></path><path d="M261.24,376.26a22.79,22.79,0,0,1-5.24-.78,27,27,0,0,1-4.38,3.46,8.76,8.76,0,0,0,2.46,3.06,17,17,0,0,0,5.7-1.64A11.7,11.7,0,0,0,261.24,376.26Z" style="fill:#455a64"></path><path d="M265.76,375.27c-2.59,3.68-12.56,6-18.92-2.26s-2.69-17.74,1.94-20.62a15.46,15.46,0,1,0,17,22.88Z" style="opacity:0.1"></path></g></g><g id="freepik--Dog--inject-5"><g id="freepik--dog--inject-5"><path d="M342.65,378.83c0,2.88-6.58,15-8.83,15.33-4.32.71-8.51.47-11.24,2.1-2.09,1.25-5.42,4.44-4.29,6.3s2.56,1.75,4.35,1c2.27-.89,3.66-2.27,4.94-2.29s8.76.65,11.87-.68,9.23-7.13,10-9.26S342.65,378.83,342.65,378.83Z" style="fill:#37474f"></path><path d="M407.86,385.71c-.87-3.21-12.29-2.64-13.94-5.5l-12.05,5.1a12.44,12.44,0,0,0,4,4.37c2,1.39,3.49,1.15,5.47,1.25s8.62-1.25,10-.36c1.66,1.07,1.48,1.09,1.87,3l.42,2a5.37,5.37,0,0,0,1,2.56,2.16,2.16,0,0,0,2.8.35,3,3,0,0,0,.45-.34,5.5,5.5,0,0,0,1.4-3.83A36.11,36.11,0,0,0,407.86,385.71Z" style="fill:#37474f"></path><path d="M388.52,364.9c3.55-6.71,10.92-9.26,13-13.33,2.83-5.65-1-9.86-1-11.69s3.73-.67,5.12,5.37c1,4.52-.22,8.56-3.31,12.1-2.84,3.27-8.78,7.53-9.41,11.32Z" style="fill:#37474f"></path><path d="M421.4,385.64c-.74-3.23-12.17-3.12-13.7-6-5-14.69-6.33-15.59-11.78-17.91-5.88-2.51-13.74,0-19.29,3.51-4.34,2.78-14.68,6.9-18.31,4.67-8.95,1-19.91,4-17,9.59s3,8.39,8.07,13.91c8.09,8.85,23.32,6.87,31.34-.88,3.93-3.8,10.67-6.58,14.72-7.83a23.34,23.34,0,0,0,3.85,4.07c1.91,1.47,3.43,1.29,5.41,1.47s8.66-.9,10,.05c1.62,1.13,1.44,1.14,1.75,3.07l.33,2a5.44,5.44,0,0,0,.9,2.6,2.16,2.16,0,0,0,2.79.46,2.37,2.37,0,0,0,.46-.32,5.45,5.45,0,0,0,1.55-3.77A35.87,35.87,0,0,0,421.4,385.64Z" style="fill:#455a64"></path><path d="M354.81,387.37c-2.53-3.4-3.59-8.71-4.05-10.86L344,375.3l-3,3.37a7.22,7.22,0,0,1,.32.79,34.15,34.15,0,0,0,8.1,14.82c6.68,7.32,22.55,6,27.52,1.12C368.16,397.28,358.47,392.3,354.81,387.37Z" style="fill:#f5f5f5"></path><path d="M336.24,352.92c-3.52-.47-7.43,2.43-8.05,3.55s1.37,5.49,1.37,5.49Z" style="fill:#263238"></path><path d="M351.22,378.66a12.21,12.21,0,0,1-9.85-.58,1.45,1.45,0,0,1-.82-.74c.05-.81-.65-2.48-1.92-2.1a45.51,45.51,0,0,0-5,2.3h0a7.23,7.23,0,0,1-.82.38c-3.42,1.39-5.84.12-6.6-1.32-3.6-.31-5.7-3.77-6-4.4-.9-1.9,3.74-4.77,5.8-6.56s1.53-2.14,1.35-4.08c-.1-1.12,1.87-3.47,2.8-4.55,3-3.48,7-5.76,12.08-4.23s8.42,4.89,12.05,10.91c1.71,2.84,1.81,4.21,3.08,5.54" style="fill:#455a64"></path><path d="M352.75,379.93c4.46-3,4.49-4.54,5-7.78l-11.17,5.77-3.7-.05c-.47.27-.93.57-1.39.88-.06.24-.13.46-.19.71.15.69.33,1.57.58,2.59A14.35,14.35,0,0,0,352.75,379.93Z" style="opacity:0.1"></path><path d="M326,365.66a5.49,5.49,0,0,1,1.9-.88,2.31,2.31,0,0,1,2.31.69,4.09,4.09,0,0,1,.46,2.51c0,1-.27,2.32.16,3.22a5.2,5.2,0,0,0,2.61,1.87c3.53,1.27,6.28-.51,9.37-1.49,1.75-.55,4.12-1.21,5.78-.19s2.47,4.21,2,5.68c-3.92,2.09-8.92,2.53-10.08.27a6.63,6.63,0,0,0-.19-.66c-.09-.23-.7-1.55-1.85-1.24a30.56,30.56,0,0,0-4.4,1.95,13.89,13.89,0,0,1-1.27.6c-3.42,1.39-5.85.05-6.61-1.39-3.6-.31-5.7-3.77-6-4.4C319.35,370.31,324,367.45,326,365.66Z" style="fill:#f5f5f5"></path><path d="M340.55,377.34c2.85,1.61,8.64,1.1,11.67-1.66,2.48-2.26,3.88-4.32,4.37-7.56a2.59,2.59,0,0,1,1.73,1.75c-.25,1.85-.61,3.3-3.11,6.12-3.23,3.65-9.66,6-13.88,3.47A2.2,2.2,0,0,1,340.55,377.34Z" style="fill:#BA68C8"></path><path d="M321.81,374.33c1.2-.19,2.33-.54,2.77-1.4s.23-2.18-.59-2.49a6.57,6.57,0,0,0-3.25-.32,2.11,2.11,0,0,0-1.08,1.95C319.89,373.05,320.73,373.63,321.81,374.33Z" style="fill:#263238"></path><path d="M326.23,376.6c1.8.19,5.94-1.47,9.48-4a13.76,13.76,0,0,1-5.58,4C327,377.67,326.23,376.6,326.23,376.6Z" style="opacity:0.1"></path><path d="M328.6,376.24a10.51,10.51,0,0,1,5.49,2.6c1.65,1.5,4.56.4,3.64-1.79s-4.16-3.05-4.16-3.05A25.23,25.23,0,0,1,328.6,376.24Z" style="fill:#ffa8a7"></path><path d="M336.93,364a1.39,1.39,0,1,0-1.35,1.42A1.39,1.39,0,0,0,336.93,364Z" style="fill:#263238"></path><path d="M346.75,360.49a9.85,9.85,0,0,0-2.82.16,6.91,6.91,0,0,1-1.42.24,1.59,1.59,0,0,1-1.27-.57,2,2,0,0,1,.25-2.11,10.36,10.36,0,0,1,5.61-4.53,32.66,32.66,0,0,1,7.48-2.06c2.95-.25,5.59.79,6.57,3.2a6.31,6.31,0,0,0,1.92,2.44c1.09.81,2.15,1.38,2.57,2.4,1.21,3-1,4.88-3.9,4.84a29.51,29.51,0,0,1-8-1.6c-1.19-.37-2.28-1.17-3.47-1.6A14.47,14.47,0,0,0,346.75,360.49Z" style="fill:#263238"></path><path d="M354.66,383.25c1,2.68-.46,16.33-2.42,17.53-3.73,2.28-7.69,3.64-9.61,6.17-1.47,1.94-3.36,6.16-1.61,7.45s3,.66,4.42-.66c1.77-1.69,2.54-3.49,3.72-4s8.36-2.69,10.74-5.1,5.87-10.08,5.8-12.34S354.66,383.25,354.66,383.25Z" style="fill:#455a64"></path><path d="M335.69,377.7a.4.4,0,0,0,.35-.62,7,7,0,0,0-3.69-2.41c-.32.17-.69.35-1.12.54a6.94,6.94,0,0,1,4.15,2.31A.4.4,0,0,0,335.69,377.7Z" style="fill:#f28f8f"></path></g></g><g id="freepik--Daughter--inject-5"><g id="freepik--Kid--inject-5"><path d="M358.38,306.38a8.65,8.65,0,0,0-.94-.87,9.18,9.18,0,0,1-2.62-3.11c-.67-1.54-.58-3.36-1.55-4.75a4,4,0,0,0-2.91-1.62c-1.42-.14-2,.6-3.28.8a16.86,16.86,0,0,1-4.89-.36l-.2,7.31c1.31,0,2.5-.06,3.49,0,1.66.42,3,1.78,4.24,2.91a26.05,26.05,0,0,1,3.43,3.93,6.36,6.36,0,0,1,.88,1.59,11.1,11.1,0,0,0,.34,1.12,2.23,2.23,0,0,0,3.15.79,4.73,4.73,0,0,0,1.9-3.47A5.33,5.33,0,0,0,358.38,306.38Z" style="fill:#ffa8a7"></path><path d="M352.72,295.82a2.49,2.49,0,0,1,2.41,1.86,13.79,13.79,0,0,0,1.79,4.45c.95,1.24,3,3.21,3.43,4.63s1,5-.26,6.46a4.44,4.44,0,0,1-4.16,1.76C354.47,314.74,352.72,295.82,352.72,295.82Z" style="fill:#37474f"></path><path d="M278.56,255.61c-2.51-.79-5-1.64-7.45-2.63a17.85,17.85,0,0,1-4-2.07,7.47,7.47,0,0,1-2.75-3.51,4.09,4.09,0,0,1-.12-2.47,2.63,2.63,0,0,1,1.65-1.77A3.77,3.77,0,0,1,269,244a18.41,18.41,0,0,0,2.29,1.55c.17.1,1.52,1,1.43.44a.83.83,0,0,0-.19-.34,2.52,2.52,0,0,1-.29-2.29.59.59,0,0,1,.29-.36c.26-.1.52.14.69.36a25.58,25.58,0,0,0,2.55,2.76,9,9,0,0,0,2.61,2.05,147.46,147.46,0,0,0,15.17,2.67A130,130,0,0,0,302.9,240c2.9-4.13,5.32-5.95,10.53-4.93-.82,2.31-.27,4.94-1.35,9,0,0-11,15.24-15.69,16a10.59,10.59,0,0,1-3.95-.4c-3.55-.8-7-1.93-10.5-3Z" style="fill:#ffa8a7"></path><path d="M337.18,295.19c-3.06-1-6.07-1.78-9.67-1.21-1.9-11.41-1.85-23.92-5.59-32.25-4.9.64-10.76,7-16.54,6.67a65.2,65.2,0,0,0,3.1,18.64,69.37,69.37,0,0,0,7.31,15.13c2.2,3.65,5.28,3.69,10.72,3,3.65-.45,10.42-1.22,15.48-1.41a7.33,7.33,0,0,0,.2-7.31A43.51,43.51,0,0,1,337.18,295.19Z" style="fill:#455a64"></path><path d="M353.15,311.3a42,42,0,0,0-5.8-6c-.86-.48-2.23-.43-1.54-1.08s2.46-2.28,2.13-3.39,1-.35,1.45-.78-1-1.13-1.78-1.92-1.16-1.22-1.16-1.22h-.83s-.2-.64,1.39-.81,2.92-.69,4-.6a5.12,5.12,0,0,1,1.67.34,7,7,0,0,1,1.68,3.27c.4,2.75,2.26,4.79,3.19,5.94,1.62,2,2.1,3.31,1.41,5S353.15,311.3,353.15,311.3Z" style="fill:#BA68C8"></path><path d="M353.15,311.3a42,42,0,0,0-5.8-6c-.86-.48-2.23-.43-1.54-1.08s2.46-2.28,2.13-3.39,1-.35,1.45-.78-1-1.13-1.78-1.92-1.16-1.22-1.16-1.22h-.83s-.2-.64,1.39-.81,2.92-.69,4-.6a5.12,5.12,0,0,1,1.67.34,7,7,0,0,1,1.68,3.27c.4,2.75,2.26,4.79,3.19,5.94,1.62,2,2.1,3.31,1.41,5S353.15,311.3,353.15,311.3Z" style="opacity:0.5"></path><path d="M318.28,304.69l8.43-16.31h0l-10.18,14.84A5.87,5.87,0,0,0,318.28,304.69Z" style="opacity:0.2"></path><path d="M313.83,276c-1.46,3.24-4.1,9.17-5.16,11.67l3.3-10.89c-2.83-2.27-3.28-2.66-4.41-5.14A13.23,13.23,0,0,0,313.83,276Z" style="fill:#263238"></path><path d="M325.33,231.53l-4.29.31a13.89,13.89,0,0,1-14.87-14.79h0c.5-7.46,7.8-13.14,15.26-12.63h0c7.46.5,13.64,6.94,13.14,14.4l-.13,1.84C334,226.81,329.82,231.37,325.33,231.53Z" style="fill:#263238"></path><path d="M330.89,208.91a7.17,7.17,0,0,1,8.25-1.1c2.46,1.27,5,5.37,5.37,9.32s2.09,6.87,4.26,7.32c1.72.35,3.48,1.43,3.63,3.37a4.35,4.35,0,0,1-1.42,3.4,7.25,7.25,0,0,1-3.37,1.67A9,9,0,0,1,337,227.05c-1.4-3.81-.53-8.05-1-12.08-.16-1.33-.62-2.83-1.85-3.34s-2.26.09-3.29.46c0-.55,0-1.11,0-1.66C330.89,210.21,330.74,209.06,330.89,208.91Z" style="fill:#263238"></path><path d="M307.23,334.58c.13-.49.7-2,1.47-4.07l-8.19-1.77c-.19,1.81-.38,3.55-.54,5.13a13.88,13.88,0,0,1-.89,3.68,32.92,32.92,0,0,1-8.72,9.91c-.1.07-.19.11-.3.2a1.67,1.67,0,0,0-.33.29.85.85,0,0,0-.18.69,1,1,0,0,0,.39.47,8.06,8.06,0,0,0,6.11,1.06,6.21,6.21,0,0,0,4.28-2.71,20.44,20.44,0,0,1,2.74-3.23c1.16-1.18,3.48-.9,4.29-2.29.59-1,0-2-.22-2.77A7.26,7.26,0,0,1,307.23,334.58Z" style="fill:#ffa8a7"></path><path d="M328.5,259.17h0c-.3-.62-.49-1-.49-1l-21.36-.76c-.24,4.54-1,7.66-.79,11,1.17,1.07.77,1.58,1.7,3.18,1,2,4.82,4.56,6.27,4.36-2.61,5.71-5.52,12.55-8.14,18.48-2.35,5.35-2.7,6.4-3.15,13.57-.37,5.85-1.28,13.88-2,20.73a10.49,10.49,0,0,0,8.19,1.77c2-5.41,5.53-14.33,6.05-16.52.9-3.74,1.08-6.45.5-8.89,0,0,5.41-8,8.34-12.13,4.31-6.17,8.91-13,9.17-19.34S331.18,264,328.5,259.17Z" style="fill:#455a64"></path><path d="M307.86,341.21c.37.12.17,1.26,0,1.63a3.91,3.91,0,0,1-2,1.51,5.7,5.7,0,0,0-3.18,2.4,6.5,6.5,0,0,1-3.67,3.91,10.71,10.71,0,0,1-7.34.74c-2.07-.61-2.72-1.64-2.85-2.17a12.71,12.71,0,0,1,0-2.13Z" style="fill:#37474f"></path><path d="M305,343.47a5.76,5.76,0,0,0,2.87-1.86c.2-2.43-.67-3.11-.45-4.43.34-2.09,0-2.37-.21-2.36-.09.29-.31,1.05-.31,1.05a3.35,3.35,0,0,1-.88,1.25,2,2,0,0,1-1.29.22,1.08,1.08,0,0,1-.52-.18,1.32,1.32,0,0,1-.34-.46,4,4,0,0,0-1.07-1.38,4.23,4.23,0,0,0-3.47-.75,1,1,0,0,0-.41.13c-.28.19-.25.61-.32.95-.3,1.43-1.66,3-2.9,4.26a14.91,14.91,0,0,1-2.77,2.37,13.48,13.48,0,0,0-2.91,2.14,4.09,4.09,0,0,0-.91,3.65,3.17,3.17,0,0,0,2.07,1.95,8.88,8.88,0,0,0,2.7.54,9,9,0,0,0,3.48-.49,7.28,7.28,0,0,0,4.19-3.32A7.06,7.06,0,0,1,305,343.47Z" style="fill:#BA68C8"></path><path d="M305,343.47a5.76,5.76,0,0,0,2.87-1.86c.2-2.43-.67-3.11-.45-4.43.34-2.09,0-2.37-.21-2.36-.09.29-.31,1.05-.31,1.05a3.35,3.35,0,0,1-.88,1.25,2,2,0,0,1-1.29.22,1.08,1.08,0,0,1-.52-.18,1.32,1.32,0,0,1-.34-.46,4,4,0,0,0-1.07-1.38,4.23,4.23,0,0,0-3.47-.75,1,1,0,0,0-.41.13c-.28.19-.25.61-.32.95-.3,1.43-1.66,3-2.9,4.26a14.91,14.91,0,0,1-2.77,2.37,13.48,13.48,0,0,0-2.91,2.14,4.09,4.09,0,0,0-.91,3.65,3.17,3.17,0,0,0,2.07,1.95,8.88,8.88,0,0,0,2.7.54,9,9,0,0,0,3.48-.49,7.28,7.28,0,0,0,4.19-3.32A7.06,7.06,0,0,1,305,343.47Z" style="opacity:0.5"></path><path d="M301.58,338.85a5.28,5.28,0,0,0-3.91-1.29s-.7.17-.62.82a5.91,5.91,0,0,1,4.17,1.36c.26.21.48.24.7,0S301.8,339,301.58,338.85Z" style="fill:#f5f5f5"></path><path d="M300.43,340.64a5.91,5.91,0,0,0-4.13-1.39s-.86.23-.87.89c0,0,1.93-.51,4.39,1.33a.52.52,0,0,0,.85-.18h0A.62.62,0,0,0,300.43,340.64Z" style="fill:#f5f5f5"></path><path d="M298.94,343.19a.59.59,0,0,0-.12-.77,6,6,0,0,0-4.1-1.52s-1,.28-1.16.92a6.46,6.46,0,0,1,4.5,1.48.59.59,0,0,0,.87-.09Z" style="fill:#f5f5f5"></path><path d="M297.71,345.62a4.56,4.56,0,0,1,1.16,3.77,7.85,7.85,0,0,1-1.55.68,9,9,0,0,1-3.48.49,8.88,8.88,0,0,1-2.7-.54c-.89-.34-2.14-1-2.44-2a4.59,4.59,0,0,1,1-3.87,3.47,3.47,0,0,1,1.39-.89h0C293,342.68,296.12,343.79,297.71,345.62Z" style="fill:#f5f5f5"></path><path d="M329.11,237.25c2.58.45,3.27,1.93,3.83,4.49a20.65,20.65,0,0,1,.49,4.48l-1,14.48.8,9.75c-4.3,2.95-19.45,5.51-28.49-1.09-.21-3.23-.36-18.44,1.09-24,2-7.73,5.85-10.74,9.64-10.45l9.11,1.31Z" style="fill:#f5f5f5"></path><path d="M347.45,273.09c.1,2.65.22,5,.38,7a17.23,17.23,0,0,1-.73,7.59,4.18,4.18,0,0,1-2.43,2.49,4.59,4.59,0,0,1-2.24.06,2.49,2.49,0,0,1-1.56-.78,2.91,2.91,0,0,1-.21-2.41c.22-1.08.42-2.17.65-3.26,0-.15.61-2.09.05-1.74a.78.78,0,0,0-.24.3,2.49,2.49,0,0,1-2,1.14.58.58,0,0,1-.45-.12c-.19-.21-.06-.54.08-.78a26.81,26.81,0,0,0,1.57-3.4,9,9,0,0,0,.91-3.2c0-.79-1.39-12.63-2.4-15.41l-7.34-10.35c-3-5-4.86-10.47-2.37-13,6.31-.32,7.64,4.08,16.21,17.59C347.2,257.81,347.28,268.88,347.45,273.09Z" style="fill:#ffa8a7"></path><path d="M326.9,222.48c.49.35.61.51,1-.31.89-1.77,3.79-2.26,4.66,0s-1.31,5.08-3,5.47c-2.88.67-3.16-1.17-3.16-1.17l-1,10.13a9.1,9.1,0,0,1-7.22,4.66c-5,.29-4.67-3.88-2.88-5.77l.22-2.85a12,12,0,0,1-3.66-.65c-1.55-.55-2.69-1.6-3.55-4.09-1.15-3.36-1.06-6.92.48-13.5,1.79-7.62,11.3-7.12,15.93-3.69S326.9,222.48,326.9,222.48Z" style="fill:#ffa8a7"></path><path d="M327.92,222.17l-.22,2.28h0a2.19,2.19,0,0,1-2-2.29l.23-4.78,3.09.81Z" style="fill:#263238"></path><path d="M318.31,204.58h0a12.53,12.53,0,0,0-13.73,11.21l-.16,1.62,6.1.61a5.69,5.69,0,0,0,6.12-4.34h0l-1.16,4.67h0a5,5,0,0,0,5.34-3.13l.35-1.15h0a5.69,5.69,0,0,0,5.1,5.55l1.47,0,.59-8.74Z" style="fill:#263238"></path><path d="M317.33,221.5a1,1,0,1,0,2.09.08,1.06,1.06,0,0,0-1-1.12A1.08,1.08,0,0,0,317.33,221.5Z" style="fill:#263238"></path><path d="M317.26,227.22l-2.88,1a1.49,1.49,0,0,0,1.89,1A1.58,1.58,0,0,0,317.26,227.22Z" style="fill:#f28f8f"></path><path d="M308.31,217.48l2.43-.78a1.22,1.22,0,0,0-1.56-.85A1.32,1.32,0,0,0,308.31,217.48Z" style="fill:#263238"></path><path d="M309.15,220.91a1,1,0,1,0,1.09-1A1.06,1.06,0,0,0,309.15,220.91Z" style="fill:#263238"></path><polygon points="314.69 219.85 314.17 225.41 311.3 224.3 314.69 219.85" style="fill:#f28f8f"></polygon><path d="M315.57,232.64s5-.13,7.36-1.41a6.32,6.32,0,0,0,2.4-2,6.23,6.23,0,0,1-1.46,2.5c-2.43,2.46-8.39,2.15-8.39,2.15Z" style="fill:#f28f8f"></path><path d="M352.41,310.35c2.41-.17,5.35-2.8,5.62-4.75a6.46,6.46,0,0,1,1.77,4.7c0,3.24-1.76,4.14-3.87,4.68C353.6,315,352.93,313.79,352.41,310.35Z" style="fill:#f5f5f5"></path><path d="M350.72,308.49s2.7-.74,3.44-2.09a.59.59,0,0,1,.9-.13c.54.42.05,1.16-.79,1.85a4.77,4.77,0,0,1-2.77,1.2C350.78,309.32,350.14,308.67,350.72,308.49Z" style="fill:#f5f5f5"></path><path d="M349.15,306.78s2.69-.73,3.43-2.08a.59.59,0,0,1,.9-.13c.54.42,0,1.15-.79,1.85a4.77,4.77,0,0,1-2.77,1.2C349.21,307.62,348.56,307,349.15,306.78Z" style="fill:#f5f5f5"></path><path d="M347.36,305.18s2.7-.74,3.44-2.09a.59.59,0,0,1,.9-.12c.54.41.05,1.15-.79,1.85a4.84,4.84,0,0,1-2.77,1.2C347.43,306,346.78,305.37,347.36,305.18Z" style="fill:#f5f5f5"></path></g></g><g id="freepik--Parents--inject-5"><g id="freepik--Bench--inject-5"><path d="M162.27,311.74a2.84,2.84,0,0,1-1.43-.38L130,293.52a11,11,0,0,1-5.48-9.48V248.37a2.87,2.87,0,0,1,5.74,0V284a5.24,5.24,0,0,0,2.6,4.52l30.9,17.83a2.87,2.87,0,0,1-1.44,5.35Z" style="fill:#263238"></path><path d="M99.21,347.35a2.85,2.85,0,0,1-1.43-.39L66.89,329.12a11,11,0,0,1-5.48-9.48V284a2.87,2.87,0,0,1,5.73,0v35.67a5.23,5.23,0,0,0,2.61,4.52L100.64,342a2.87,2.87,0,0,1-1.43,5.35Z" style="fill:#263238"></path><path d="M223.17,275.87a2.84,2.84,0,0,1-1.43-.38l-30.89-17.84a11,11,0,0,1-5.48-9.48V212.5a2.87,2.87,0,1,1,5.73,0v35.67a5.23,5.23,0,0,0,2.61,4.52l30.89,17.83a2.87,2.87,0,0,1-1.43,5.35Z" style="fill:#263238"></path><path d="M104.55,343.79v33a1.59,1.59,0,0,1-1,1.32,5.06,5.06,0,0,1-4.61,0,1.6,1.6,0,0,1-.95-1.32v-33Z" style="fill:#263238"></path><path d="M77.31,328.27v33a1.6,1.6,0,0,1-1,1.33,5,5,0,0,1-4.6,0,1.6,1.6,0,0,1-1-1.33v-33Z" style="fill:#263238"></path><path d="M228.41,272.28v33a1.62,1.62,0,0,1-1,1.33,5.1,5.1,0,0,1-4.6,0,1.62,1.62,0,0,1-1-1.33v-33Z" style="fill:#263238"></path><path d="M201.16,256.76v33a1.6,1.6,0,0,1-.95,1.32,5.06,5.06,0,0,1-4.61,0,1.59,1.59,0,0,1-.95-1.32v-33Z" style="fill:#263238"></path><path d="M55,292.07l-.57-.33a3.68,3.68,0,0,1-1.65-2.87v-5.14a3.67,3.67,0,0,1,1.65-2.87l136.16-78.61a3.64,3.64,0,0,1,3.31,0l.57.33a3.65,3.65,0,0,1,1.66,2.87v5.14a3.67,3.67,0,0,1-1.66,2.87L58.33,292.07A3.71,3.71,0,0,1,55,292.07Z" style="fill:#455a64"></path><path d="M60.56,286.3l-7.28-4.2a3.33,3.33,0,0,0-.48,1.63v5.14a3.68,3.68,0,0,0,1.65,2.87l.57.33a3.71,3.71,0,0,0,3.31,0l2.23-1.29Z" style="fill:#263238"></path><path d="M58.33,283.1l136.16-78.61c.92-.53,1.66-.1,1.66,1v5.14a3.67,3.67,0,0,1-1.66,2.87L58.33,292.07c-.91.52-1.65.1-1.65-1V286A3.67,3.67,0,0,1,58.33,283.1Z" style="fill:#37474f"></path><path d="M55,307.79l-.57-.33a3.67,3.67,0,0,1-1.65-2.87v-5.14a3.67,3.67,0,0,1,1.65-2.87L190.61,218a3.64,3.64,0,0,1,3.31,0l.57.33a3.65,3.65,0,0,1,1.66,2.87v5.14a3.67,3.67,0,0,1-1.66,2.87L58.33,307.79A3.71,3.71,0,0,1,55,307.79Z" style="fill:#455a64"></path><path d="M60.56,302l-7.28-4.2a3.36,3.36,0,0,0-.48,1.63v5.14a3.67,3.67,0,0,0,1.65,2.87l.57.33a3.71,3.71,0,0,0,3.31,0l2.23-1.29Z" style="fill:#263238"></path><path d="M58.33,298.82l136.16-78.61c.92-.53,1.66-.1,1.66,1v5.14a3.67,3.67,0,0,1-1.66,2.87L58.33,307.79c-.91.52-1.65.1-1.65-1v-5.14A3.67,3.67,0,0,1,58.33,298.82Z" style="fill:#37474f"></path><path d="M55,323.51l-.57-.33a3.67,3.67,0,0,1-1.65-2.87v-5.14a3.67,3.67,0,0,1,1.65-2.87l136.16-78.61a3.64,3.64,0,0,1,3.31,0l.57.33a3.65,3.65,0,0,1,1.66,2.87V242a3.65,3.65,0,0,1-1.66,2.87L58.33,323.51A3.71,3.71,0,0,1,55,323.51Z" style="fill:#455a64"></path><path d="M60.56,317.74l-7.28-4.2a3.36,3.36,0,0,0-.48,1.63v5.14a3.67,3.67,0,0,0,1.65,2.87l.57.33a3.71,3.71,0,0,0,3.31,0l2.23-1.29Z" style="fill:#263238"></path><path d="M58.33,314.54l136.16-78.61c.92-.53,1.66-.1,1.66,1V242a3.65,3.65,0,0,1-1.66,2.87L58.33,323.51c-.91.52-1.65.1-1.65-1v-5.14A3.67,3.67,0,0,1,58.33,314.54Z" style="fill:#37474f"></path><path d="M60.56,333v.66a3.65,3.65,0,0,0,1.66,2.87l4.45,2.57a3.64,3.64,0,0,0,3.31,0l136.16-78.61a3.66,3.66,0,0,0,1.65-2.86V257a3.67,3.67,0,0,0-1.65-2.87l-4.46-2.57a3.64,3.64,0,0,0-3.31,0L62.22,330.16A3.65,3.65,0,0,0,60.56,333Z" style="fill:#37474f"></path><path d="M68.32,331.11v8.41a3.33,3.33,0,0,1-1.65-.4l-4.45-2.57a3.65,3.65,0,0,1-1.66-2.87V333a3.65,3.65,0,0,1,1.66-2.86l2.22-1.29Z" style="fill:#263238"></path><path d="M70,334.64,206.14,256a1,1,0,0,0,0-1.91l-4.46-2.57a3.64,3.64,0,0,0-3.31,0L62.22,330.16a1,1,0,0,0,0,1.91l4.45,2.57A3.64,3.64,0,0,0,70,334.64Z" style="fill:#455a64"></path><path d="M74.15,340.87v.66a3.65,3.65,0,0,0,1.65,2.86L80.25,347a3.71,3.71,0,0,0,3.31,0l136.16-78.62a3.63,3.63,0,0,0,1.66-2.86v-.66a3.65,3.65,0,0,0-1.66-2.87l-4.45-2.57a3.64,3.64,0,0,0-3.31,0L75.8,338A3.67,3.67,0,0,0,74.15,340.87Z" style="fill:#37474f"></path><path d="M81.91,339v8.4a3.45,3.45,0,0,1-1.66-.39l-4.45-2.58a3.65,3.65,0,0,1-1.65-2.86v-.66A3.67,3.67,0,0,1,75.8,338L78,336.72Z" style="fill:#263238"></path><path d="M83.56,342.48l136.16-78.61a1,1,0,0,0,0-1.91l-4.45-2.57a3.64,3.64,0,0,0-3.31,0L75.8,338a1,1,0,0,0,0,1.91l4.45,2.57A3.64,3.64,0,0,0,83.56,342.48Z" style="fill:#455a64"></path><path d="M87.73,348.71v.66a3.65,3.65,0,0,0,1.66,2.87l4.45,2.57a3.64,3.64,0,0,0,3.31,0L233.31,276.2a3.67,3.67,0,0,0,1.65-2.87v-.66a3.65,3.65,0,0,0-1.65-2.86l-4.46-2.58a3.71,3.71,0,0,0-3.31,0L89.39,345.84A3.67,3.67,0,0,0,87.73,348.71Z" style="fill:#37474f"></path><path d="M95.49,346.8v8.4a3.44,3.44,0,0,1-1.65-.39l-4.45-2.57a3.65,3.65,0,0,1-1.66-2.87v-.66a3.67,3.67,0,0,1,1.66-2.87l2.22-1.28Z" style="fill:#263238"></path><path d="M97.15,350.33l136.16-78.61a1,1,0,0,0,0-1.91l-4.46-2.58a3.71,3.71,0,0,0-3.31,0L89.39,345.84a1,1,0,0,0,0,1.92l4.45,2.57A3.71,3.71,0,0,0,97.15,350.33Z" style="fill:#455a64"></path><path d="M64.28,282.74a2.36,2.36,0,0,0-1.07,1.85c0,.68.48,1,1.07.61a2.33,2.33,0,0,0,1.06-1.84C65.34,282.68,64.87,282.4,64.28,282.74Z" style="fill:#263238"></path><path d="M64.28,298.43a2.35,2.35,0,0,0-1.07,1.84c0,.68.48,1,1.07.62A2.35,2.35,0,0,0,65.34,299C65.34,298.36,64.87,298.09,64.28,298.43Z" style="fill:#263238"></path><path d="M64.28,314.12A2.35,2.35,0,0,0,63.21,316c0,.68.48,1,1.07.62a2.35,2.35,0,0,0,1.06-1.85C65.34,314.05,64.87,313.78,64.28,314.12Z" style="fill:#263238"></path><path d="M188.24,211.31a2.35,2.35,0,0,0-1.07,1.84c0,.68.48,1,1.07.62a2.35,2.35,0,0,0,1.06-1.85C189.3,211.24,188.83,211,188.24,211.31Z" style="fill:#263238"></path><path d="M188.24,227a2.36,2.36,0,0,0-1.07,1.85c0,.68.48.95,1.07.61a2.32,2.32,0,0,0,1.06-1.84C189.3,226.93,188.83,226.65,188.24,227Z" style="fill:#263238"></path><path d="M188.24,242.68a2.36,2.36,0,0,0-1.07,1.85c0,.68.48.95,1.07.61a2.33,2.33,0,0,0,1.06-1.84C189.3,242.62,188.83,242.34,188.24,242.68Z" style="fill:#263238"></path><path d="M73.12,327.06a.57.57,0,0,0,0,1.08,2.08,2.08,0,0,0,1.88,0,.57.57,0,0,0,0-1.08A2.06,2.06,0,0,0,73.12,327.06Z" style="fill:#263238"></path><path d="M86.74,335c-.52.29-.52.78,0,1.08a2.12,2.12,0,0,0,1.87,0c.52-.3.52-.79,0-1.08A2.06,2.06,0,0,0,86.74,335Z" style="fill:#263238"></path><path d="M100.36,342.87c-.51.3-.52.79,0,1.08a2.06,2.06,0,0,0,1.87,0c.52-.29.52-.78,0-1.08A2.06,2.06,0,0,0,100.36,342.87Z" style="fill:#263238"></path><path d="M197,255.59c-.52.3-.52.79,0,1.08a2.06,2.06,0,0,0,1.87,0c.52-.29.52-.78,0-1.08A2.06,2.06,0,0,0,197,255.59Z" style="fill:#263238"></path><path d="M210.59,263.5a.57.57,0,0,0,0,1.08,2.06,2.06,0,0,0,1.87,0,.57.57,0,0,0,0-1.08A2.06,2.06,0,0,0,210.59,263.5Z" style="fill:#263238"></path><path d="M224.21,271.41a.57.57,0,0,0,0,1.08,2.06,2.06,0,0,0,1.87,0,.57.57,0,0,0,0-1.08A2.08,2.08,0,0,0,224.21,271.41Z" style="fill:#263238"></path><path d="M127.34,247.18a2.35,2.35,0,0,0-1.07,1.84c0,.68.48,1,1.07.62a2.35,2.35,0,0,0,1.06-1.85C128.4,247.11,127.93,246.84,127.34,247.18Z" style="fill:#263238"></path><path d="M127.34,262.87a2.35,2.35,0,0,0-1.07,1.84c0,.68.48,1,1.07.62a2.35,2.35,0,0,0,1.06-1.85C128.4,262.8,127.93,262.53,127.34,262.87Z" style="fill:#263238"></path><path d="M127.34,278.55a2.36,2.36,0,0,0-1.07,1.85c0,.68.48,1,1.07.61a2.33,2.33,0,0,0,1.06-1.84C128.4,278.49,127.93,278.21,127.34,278.55Z" style="fill:#263238"></path><path d="M136.07,291.46c-.52.3-.52.79,0,1.08a2.06,2.06,0,0,0,1.87,0c.52-.29.52-.78,0-1.08A2.12,2.12,0,0,0,136.07,291.46Z" style="fill:#263238"></path><path d="M149.69,299.37a.57.57,0,0,0,0,1.08,2.06,2.06,0,0,0,1.87,0,.57.57,0,0,0,0-1.08A2.06,2.06,0,0,0,149.69,299.37Z" style="fill:#263238"></path><path d="M163.32,307.28a.57.57,0,0,0,0,1.08,2.08,2.08,0,0,0,1.88,0,.57.57,0,0,0,0-1.08A2.06,2.06,0,0,0,163.32,307.28Z" style="fill:#263238"></path></g><g id="freepik--Characters--inject-5"><path d="M126.17,282.89s-4.14-10.94-7-17.42c-3.49-8-5.88-9-10.74-8.57l3.09,18.81s5.66,12.06,8.59,15.64c1.37,2.14,3.67,2.16,7.66.66s13.47-7.51,16-9a67.24,67.24,0,0,0,6.62-4.33c2.76-2.2,3.11-7.66.8-8.36-1.36-.41-2.48.76-3.67,1.47-1.51.9-3.09,1.95-4.25,2.61a9.39,9.39,0,0,1,1-2.17,3,3,0,0,0,.41-1.45c0-.36-.28-1.18-.75-1.17s-1,.89-1.24,1.13a20.25,20.25,0,0,0-2.29,2.68,7.26,7.26,0,0,0-1,1.82,4,4,0,0,1-1.27,1.77C135.6,279,126.17,282.89,126.17,282.89Z" style="fill:#ffa8a7"></path><path d="M150,273.73c-2.44-6-4.56-18.28-6-23.52-1.6-6-3.91-3.9,1.67-7.49,4.14-.18,7.58-.95,9.89,8.43s4.66,17.79,4.66,17.79c.82.77,12,10.27,15.87,12.07a3.18,3.18,0,0,0,2.26.12c2.08-.62,4.27-.32,6.23-.42,1.53-.08,2.37-.57,2.51-.25a1.82,1.82,0,0,1-1.06,2.16,13.27,13.27,0,0,1-2.8,1,15.52,15.52,0,0,0,5,.93c3.95.1,5.12,1.85,1.48,5.64-2.28,2.38-5.48,3-12.06.31a70.2,70.2,0,0,1-6.79-3.25c-5.35-2.91-9.33-4.63-12.89-6.58C151.3,277,150.9,276,150,273.73Z" style="fill:#b16668"></path><path d="M175.64,329c-.54.54-1.15,1.17-1.1,1.87a7.09,7.09,0,0,0,1.82,4c1.44,1.61,2.34,4.65,2.58,6.7s.33,7.29,2.89,9.39,8.85,3.25,8.92-.57-7.2-18.61-7.2-18.61Z" style="fill:#263238"></path><path d="M179.09,331.46a55.8,55.8,0,0,1,2.4,8.24c.59,3.07,1.46,5.24,3,6.09s3.88.74,3-1.35-4-12.71-4-12.71Z" style="fill:#9a4a4d"></path><path d="M158.35,277.63s11.44,5.66,17.41,9,14,8.23,15.16,10.86.78,9.34,0,15.64-2.35,17.63-2.35,17.63L171.39,304l-19.9-13.65Z" style="fill:#37474f"></path><path d="M157.5,289.92l.93-1.09s11.38,7,14.9,9.31,7.27,5,8.94,9.11,6.8,20.22,6.8,20.22L177,305Z" style="fill:#263238"></path><path d="M189.73,350.61c-.51.33-.46,1.59-.43,2.52s-.66,2.13.66,3.58,3.58,1.61,5.38,3.59,4.55,5.63,9.59,6,8.53-1.79,9.24-3.38-.31-2.85-3.69-4.19c-3.59-1.43-4.6-1.86-4.6-1.86Z" style="fill:#263238"></path><path d="M193.58,339.82s3.28,6.2,5.14,9a34.88,34.88,0,0,0,7.42,7.62c.63.5,2,1.39,2.53,1.79a1,1,0,0,1,.17,1.46c-.86,1.21-5.29,2.29-8.15.88s-6-4.51-7.78-5.75c-.89-.61-1.73-1.2-2.35-1.64a2.07,2.07,0,0,1-.87-1.83c0-.21,0-.45,0-.73.08-1.51-2.95-7.08-2.95-7.08Z" style="fill:#b16668"></path><path d="M129.94,283.91c0,5,.16,7.86,2.72,12.51s9,7.67,16.53,10.36c6.26,2.23,17.84,7,19.66,7.46s2.2,1.41,2.57,4.68,2.47,8.32,7.28,14.23c5.09,6.25,8.08,10.38,8.08,10.38a7.6,7.6,0,0,0,7.2-3.26s-12.07-30.7-14.29-34.64-23-16.17-23-16.17a119.32,119.32,0,0,0,1.63-11.83Z" style="fill:#37474f"></path><path d="M160.12,283.79s-.23,3.94-2.62,6.13l1.5.89A8.55,8.55,0,0,0,160.12,283.79Z" style="fill:#263238"></path><path d="M131.94,244.94l-7.2,1.86s4.11,2.55,3.4,10.17c-.5,5.4.07,6.48-2.64,8-.47,6.82,4.71,25.29,4.71,25.29s7.15,2.21,17.17-.79a19.61,19.61,0,0,0,12.51-11.12l-6.35-5.93L152.09,267s4.75-4.17,3.13-10.37-9.55-13.86-9.55-13.86l-5,.78Z" style="fill:#BA68C8"></path><path d="M131.94,244.94l-7.2,1.86s4.11,2.55,3.4,10.17c-.5,5.4.07,6.48-2.64,8-.47,6.82,4.71,25.29,4.71,25.29s7.15,2.21,17.17-.79a19.61,19.61,0,0,0,12.51-11.12l-6.35-5.93L152.09,267s4.75-4.17,3.13-10.37-9.55-13.86-9.55-13.86l-5,.78Z" style="fill:#fff;opacity:0.7000000000000001"></path><path d="M139.5,238.56l-8.9.82c-2.88-1.59-9.23-6.75-9.56-14h0c-.4-8.74,5.78-15.29,14.52-15.69h0a15.8,15.8,0,0,1,11,3.76c5.89,0,6.94,4.94,6.25,8.74a6.81,6.81,0,0,1-3.74,5C149.39,234.5,146.79,238.23,139.5,238.56Z" style="fill:#263238"></path><path d="M134.16,208.58c1.34,3.24-.63,7.12-4.39,8.68s-7.91.22-9.25-3,.63-7.11,4.39-8.68S132.82,205.35,134.16,208.58Z" style="fill:#263238"></path><path d="M145.63,216.29c1.72.92,4,5,4.17,13.85.17,7.47-2.16,9.43-3.36,10s-3.55.37-5.84.09l.16,3.64s4.13,3.88,4,6-5.2,3.22-8.24,1.35a25.74,25.74,0,0,1-5.67-5.26l-.45-10.73s-1.28,1.37-3.65-.52c-2-1.55-2.71-4.29-1.31-5.84a3.26,3.26,0,0,1,5.25.8,18.1,18.1,0,0,0,8.36-2.92A13.62,13.62,0,0,0,145.63,216.29Z" style="fill:#b16668"></path><path d="M141.38,228.64a.94.94,0,1,1-1.87.17.94.94,0,0,1,.84-1.05A1,1,0,0,1,141.38,228.64Z" style="fill:#263238"></path><path d="M141.92,235l2.21.6a1.12,1.12,0,0,1-1.38.84A1.2,1.2,0,0,1,141.92,235Z" style="fill:#9a4a4d"></path><path d="M149,225.34l-2.43-.94a1.24,1.24,0,0,1,1.64-.77A1.35,1.35,0,0,1,149,225.34Z" style="fill:#263238"></path><path d="M149.05,228.09a.94.94,0,1,1-1-.88A1,1,0,0,1,149.05,228.09Z" style="fill:#263238"></path><path d="M140.6,240.25c-2.42-.2-7.43-1.4-8.29-3.32a5.13,5.13,0,0,0,1.85,2.42c1.53,1.19,6.5,2.4,6.5,2.4Z" style="fill:#9a4a4d"></path><polygon points="144.37 227.7 144.83 233.23 147.8 231.78 144.37 227.7" style="fill:#9a4a4d"></polygon><path d="M137.06,325.26c3.35,2.15,11.8-3.37,13.62-6.51s2-4.94-.47-6.59S132.44,318.42,137.06,325.26Z" style="fill:#BA68C8"></path><path d="M137.05,326c3.36,2.14,11.81-4.09,13.63-7.23s2-4.94-.47-6.59S130.21,320.64,137.05,326Z" style="fill:#263238"></path><path d="M134.21,324.48c.81.72,2.41,2.9-3.2,7.06s-8.56,7.65-12.12,5.55C112.78,333.49,126.56,320.17,134.21,324.48Z" style="fill:#263238"></path><path d="M182.36,375,179,372.38a14.72,14.72,0,0,1-2.27-1.8,17.31,17.31,0,0,1-1.09-1.76,57.23,57.23,0,0,1-5.13-10.08c-1.56-5.52-9.13-32.16-10.69-36.05-1.85-4.62-16.38-14.33-23.53-18.89-2.38-1.52-15.43-8.33-15.43-8.33l-13.82-6.79c-1.38,5-2.5,8.93-1.17,14.25s5.94,8.79,12.79,13.49c5.67,3.89,22.19,10.6,23.9,11.51s3.56.94,3.86,4.38-.13,4.92,2.84,9.57c3.81,5.95,10.89,13.67,12.94,19.84.14.43.08.89.21,1.33a13.33,13.33,0,0,1,.48,1.75,20.81,20.81,0,0,0,.66,3.52c.68,1.92,2.24,3.36,3.66,4.82s3,3.25,4.59,4.73a14.66,14.66,0,0,0,5.59,3.39,8,8,0,0,0,6.37-.66,2.76,2.76,0,0,0,1.52-2.5,3.49,3.49,0,0,0-1.53-2Z" style="fill:#ffa8a7"></path><path d="M147.91,330.29c.2-4.28-5.12-6.91-9.26-10-3.51-2.62-21.39-14.75-21.39-14.75,2-3.14,2-11.16,2-11.16L105.31,298a19.35,19.35,0,0,0,.59,5c1.33,5.33,5.94,8.79,12.79,13.49,5.67,3.89,22.19,10.6,23.9,11.51s3.56.94,3.86,4.38-.13,4.92,2.84,9.57C146.78,337,147.79,332.74,147.91,330.29Z" style="fill:#f28f8f"></path><path d="M148.62,385.07a27.94,27.94,0,0,1-4.51-4.84c-1.11-1.67-1-4-1.28-5.88a21.09,21.09,0,0,0-3.67-8.63c-1.8-2.55-3.4-5.23-5.27-7.77-2.23-3.06-4.62-6-6.66-9.21-3-4.64-2.55-6.18-2.86-9.58s-2.13-3.43-3.85-4.36c-.72-.39-4-1.8-8.08-3.55-2.15-.91-4.47-1.93-6.74-2.93a.91.91,0,0,1-.17-.08c-7.93-4.19-13.22-9.74-15.07-13.47A39,39,0,0,1,87,300.23l5.85-2.42,5.64-.27,18.35-.91a.15.15,0,0,0,0,.06c-.26.75-4.33,9.44-4.33,9.44a96.79,96.79,0,0,0,12.84,11.7c5.8,4.33,11.3,9,12.4,11.73,1.46,3.68,2.44,7.59,3.57,11.38,1.65,5.58,3.82,11,5.42,16.58.84,2.93,1.69,5.89,2.66,8.78a48.92,48.92,0,0,0,2.48,6.59,28.89,28.89,0,0,0,9.16,10.65c1.63,1.15,4.85,1.86,4.63,4.28a3.37,3.37,0,0,1-2.32,2.64,12.08,12.08,0,0,1-4.53.31C154.61,390.48,151.61,387.81,148.62,385.07Z" style="fill:#ffa8a7"></path><path d="M133.85,324.16l.36.32s-3.73-1.47-9.4,2.32c-3,2-9,6.9-5.92,10.29,0,0-19.26-11-25-16.36s-6.89-11.1-7.56-20.09l32.92-6.22s12.15,6.19,19.72,10.68c8.86,5.24,11.26,7.06,11.26,7.06s-2.41-.59-6.82,2.43c-6.34,4.35-8.17,9.64-6.34,11.39Z" style="fill:#BA68C8"></path><path d="M133.85,324.16l.36.32s-3.73-1.47-9.4,2.32c-3,2-9,6.9-5.92,10.29,0,0-19.26-11-25-16.36s-6.89-11.1-7.56-20.09l32.92-6.22s12.15,6.19,19.72,10.68c8.86,5.24,11.26,7.06,11.26,7.06s-2.41-.59-6.82,2.43c-6.34,4.35-8.17,9.64-6.34,11.39Z" style="opacity:0.4"></path><path d="M133.85,324.16,118.19,312a23,23,0,0,0,5.08-6.73,9.22,9.22,0,0,1-2.85,6.68l9.72,7.93,6.91,6.06Z" style="opacity:0.4"></path><path d="M162.44,369.66a4.56,4.56,0,0,0,.28,1.6,7.19,7.19,0,0,0,2.73,2,6.12,6.12,0,0,1,3,3.09,10.74,10.74,0,0,0,5.08,4.9,15.38,15.38,0,0,0,9.12.76c3.8-.76,4.07-3,4.07-3s.16-2.12-.8-2.43S162.44,369.66,162.44,369.66Z" style="fill:#263238"></path><path d="M161.46,360.36a20.49,20.49,0,0,1,.25,5.47c-.08,1.11-.1,2.86.73,3.83,1.15,1.53,3.57,2,5.14,4.08s3.91,5.9,8.92,6.79,8.76-.77,9.66-2.2,0-2.76-3.21-4.43c-3.43-1.77-8-7.14-8-7.14a19.32,19.32,0,0,1-3.23-5.37l-1-3.66c-.26-.75-5.74.65-6.31,1.73l.67,3.34-1.5-3.13Z" style="fill:#455a64"></path><path d="M173.24,379.4a6.36,6.36,0,0,1,3.59-5.49c3.73-2,6-.8,7.21,0,1.39,1,3.39,3,2.23,4.5s-3.3,2.45-7.14,2.57A9.16,9.16,0,0,1,173.24,379.4Z" style="fill:#fafafa"></path><path d="M167.86,367.84a.44.44,0,0,0,.34-.19c.42-.6,3.11-2.88,5.77-2.2.13-.3-.1-.62-.65-.93a7.73,7.73,0,0,0-5.84,2.68.4.4,0,0,0,.12.57A.48.48,0,0,0,167.86,367.84Z" style="fill:#fafafa"></path><path d="M175.52,367.41a1.28,1.28,0,0,0-.76-.9,7.86,7.86,0,0,0-5.5,2.69.4.4,0,0,0,.12.57.36.36,0,0,0,.26.07.42.42,0,0,0,.34-.18C170.39,369.07,172.94,366.91,175.52,367.41Z" style="fill:#fafafa"></path><path d="M172.77,363.65a.77.77,0,0,0-.54-1c-3-.66-6,1.79-6.54,2.58a.4.4,0,0,0,.13.57.36.36,0,0,0,.26.07.43.43,0,0,0,.34-.18C166.86,365,169.94,362.42,172.77,363.65Z" style="fill:#fafafa"></path><path d="M179.76,371.62a2.37,2.37,0,0,0-1.21-1.09,7.82,7.82,0,0,0-5.73,2.68.41.41,0,0,0,.13.58.4.4,0,0,0,.26.06.43.43,0,0,0,.34-.18C174,373,177,370.53,179.76,371.62Z" style="fill:#fafafa"></path><path d="M171.43,371.85a.41.41,0,0,0,.33-.19c.42-.59,3.06-2.82,5.68-2.21a1.48,1.48,0,0,0-.9-.94,7.9,7.9,0,0,0-5.5,2.7.41.41,0,0,0,.12.57A.54.54,0,0,0,171.43,371.85Z" style="fill:#fafafa"></path><path d="M142.4,379.49a4.56,4.56,0,0,0,.28,1.6,7.11,7.11,0,0,0,2.73,2,6.12,6.12,0,0,1,3,3.09,10.7,10.7,0,0,0,5.08,4.9,15.46,15.46,0,0,0,9.12.76c3.8-.76,4.07-3,4.07-3s.16-2.12-.8-2.43S142.4,379.49,142.4,379.49Z" style="fill:#263238"></path><path d="M141.41,370.18a20.24,20.24,0,0,1,.26,5.48c-.08,1.11-.1,2.85.73,3.83,1.15,1.53,3.57,2,5.14,4.08s3.91,5.9,8.92,6.79,8.76-.77,9.66-2.21,0-2.76-3.21-4.42c-3.43-1.77-8-7.14-8-7.14a19.47,19.47,0,0,1-3.23-5.37l-1-3.66c-.26-.75-5.74.65-6.31,1.73l.67,3.34-1.5-3.13Z" style="fill:#455a64"></path><path d="M153.2,389.23a6.36,6.36,0,0,1,3.59-5.49c3.73-2,6-.8,7.21,0,1.39,1,3.39,3,2.23,4.5s-3.3,2.45-7.14,2.57A9.16,9.16,0,0,1,153.2,389.23Z" style="fill:#fafafa"></path><path d="M147.82,377.67a.47.47,0,0,0,.34-.19c.41-.6,3.11-2.88,5.77-2.2.13-.31-.1-.62-.65-.93a7.73,7.73,0,0,0-5.84,2.68.39.39,0,0,0,.12.57A.48.48,0,0,0,147.82,377.67Z" style="fill:#fafafa"></path><path d="M155.48,377.24a1.28,1.28,0,0,0-.76-.9,7.86,7.86,0,0,0-5.5,2.69.4.4,0,0,0,.12.57.41.41,0,0,0,.26.07.45.45,0,0,0,.34-.18C150.35,378.9,152.9,376.74,155.48,377.24Z" style="fill:#fafafa"></path><path d="M152.73,373.48a.77.77,0,0,0-.54-1c-3-.66-6,1.79-6.54,2.58a.4.4,0,0,0,.13.57.41.41,0,0,0,.26.07.46.46,0,0,0,.34-.18C146.82,374.83,149.9,372.24,152.73,373.48Z" style="fill:#fafafa"></path><path d="M159.72,381.44a2.4,2.4,0,0,0-1.21-1.08,7.82,7.82,0,0,0-5.73,2.68.4.4,0,0,0,.13.57.36.36,0,0,0,.26.07.43.43,0,0,0,.34-.18C153.94,382.86,156.92,380.36,159.72,381.44Z" style="fill:#fafafa"></path><path d="M151.38,381.68a.43.43,0,0,0,.34-.19c.41-.6,3.06-2.83,5.68-2.22a1.49,1.49,0,0,0-.9-.93A7.9,7.9,0,0,0,151,381a.4.4,0,0,0,.12.57A.51.51,0,0,0,151.38,381.68Z" style="fill:#fafafa"></path><path d="M91.75,259.09l-5.68.91s-.85,15.9-3.85,17.37c-.39,15.72,4.65,31.52,4.65,31.52s8.38,2.07,20.68-2.24c10.77-3.77,11.67-12.26,11.67-12.26s-3.12-4.54-3.75-6.62c-1.68-5.57-1.11-15.26-1.67-19-1.31-8.72-5.32-11.82-5.32-11.82h-7Z" style="fill:#fafafa"></path><path d="M91.33,300.81c-3.7-3.33-4.6-12.43-4.29-15.46s3.09-12,1.82-18.34l-2.61-3.41c-.63,4.84-2,12.76-4,13.77-.39,15.72,4.65,31.52,4.65,31.52s8.38,2.07,20.68-2.24a19.56,19.56,0,0,0,7.24-4.29C108.73,305.19,94.91,304,91.33,300.81Z" style="fill:#ebebeb"></path><path d="M86.79,231.81c.87-.88,2.34-1.48,3.41-.52a2.09,2.09,0,0,1,.4.57c.06.13.11.26.16.39a9.93,9.93,0,0,1,.23,3.3l.15,2.9c.06,1.23.12,2.46.19,3.7l.76-.05.11,5.24-.07,4.35-.44-.06a3.62,3.62,0,0,1-2.31-2.1c-.66-1.3-1.51-2.52-2.12-3.87a32.18,32.18,0,0,1-1.59-4.27,13.55,13.55,0,0,1-.66-5.78,6.89,6.89,0,0,1,1.77-3.78Z" style="fill:#263238"></path><path d="M113.41,230.69a.37.37,0,0,1,.18,0,.44.44,0,0,1,.18.15,5.26,5.26,0,0,1,1,3.11,4.84,4.84,0,0,1-.57,2.45,3.37,3.37,0,0,1-1.91,1.59,1.34,1.34,0,0,1-.74,0,1.52,1.52,0,0,1-.7-.48,6.92,6.92,0,0,1-.85-1.21,3.52,3.52,0,0,1-.65-2.46,1,1,0,0,1,.18-.38,1.11,1.11,0,0,1,.32-.21,16.41,16.41,0,0,0,1.35-1c.41-.28.81-.56,1.19-.86S113,230.82,113.41,230.69Z" style="fill:#263238"></path><path d="M92.2,243c-.57.31-1.32-.79-2-1.54a2.43,2.43,0,0,0-4.09.5c-1.24,2.37.53,5.46,2.1,6.46a2.79,2.79,0,0,0,3.59-.44l-.47,11a11.92,11.92,0,0,0,7.87,5.31c5.39.94,4.45-3.57,2.75-5.82l.12-3.36a19.16,19.16,0,0,0,4.12.37c2.26-.26,4.24-.7,5.12-4.41s1.41-7,1.07-15.07c-.35-8.49-11-8.56-16.43-5.43S92.2,243,92.2,243Z" style="fill:#ffa8a7"></path><path d="M92.17,243.92c-.28,0-1.28-1.82-2-2.48a1.94,1.94,0,0,1-.29-1.19c0-1.22.21-2.41.07-3.62a14.13,14.13,0,0,0-1.15-3.33,6.44,6.44,0,0,1-.41-3.62,5.46,5.46,0,0,1,2.34-3.2,10.07,10.07,0,0,1,3.77-1.41c2.86-.54,5.81-.36,8.72-.51s5.93-.69,8.25-2.46c.18-.14.42-.29.62-.18a.52.52,0,0,1,.16.17c.78,1.17.09,2.73.16,4.13a4.15,4.15,0,0,0,2.89-.64,2.79,2.79,0,0,1,.55,2.7,8.74,8.74,0,0,1-2,4.34c-1,1.11-2.94,1-4.24.48a.54.54,0,0,0-.25-.06c-.14,0-.24.13-.34.24a5.76,5.76,0,0,1-5,1.54c-1.81-.2-3.54-.87-5.33-1.2a4.8,4.8,0,0,0-2.1,0c-.84.24-1.11.76-1.58,1.46a6.49,6.49,0,0,0-.58,1,5.71,5.71,0,0,0-.28,1.17C94,238.14,93.67,244,92.17,243.92Z" style="fill:#263238"></path><path d="M102.08,255.11s-5-1.2-6.69-2.2a5.72,5.72,0,0,1-2.33-2.5,7.94,7.94,0,0,0,1.27,2.89c1.21,1.68,7.7,3.14,7.7,3.14Z" style="fill:#f28f8f"></path><path d="M102.35,241.88a1,1,0,1,1-1-1.09A1,1,0,0,1,102.35,241.88Z" style="fill:#263238"></path><path d="M100.65,237.1l-2.19,1.11a1.28,1.28,0,0,1,.56-1.69A1.19,1.19,0,0,1,100.65,237.1Z" style="fill:#263238"></path><path d="M101.5,248.45l2.5,1.05a1.33,1.33,0,0,1-1.76.78A1.42,1.42,0,0,1,101.5,248.45Z" style="fill:#f28f8f"></path><path d="M111.29,238.49l-1.9-1.58a1.2,1.2,0,0,1,1.72-.2A1.3,1.3,0,0,1,111.29,238.49Z" style="fill:#263238"></path><path d="M110.49,241.76a1,1,0,0,1-1,1,1,1,0,0,1,.08-2.09A1,1,0,0,1,110.49,241.76Z" style="fill:#263238"></path><polygon points="105.38 240.95 105.48 247 109.18 245.9 105.38 240.95" style="fill:#f28f8f"></polygon><path d="M71.85,297.37c.25-6.93,3.6-19.92,4.53-25.66,1.07-6.57,2.65-10.66,9.69-11.71,2.22,1.59,4.63,9.33,1.14,18.17-1.2,4.88-3.19,19-3.19,19,.46,1.12,7.23,15.36,10.21,18.82a3.46,3.46,0,0,0,2.17,1.11c2.3.32,4.33,1.57,6.29,2.34,1.53.59,2.57.48,2.57.87s-.5,1.48-2,1.64a14.38,14.38,0,0,1-3.18-.25,16.58,16.58,0,0,0,4.48,3.1c3.82,1.84,4.19,4.08-1,6.18-3.28,1.32-6.69.53-12-5-1.51-1.59-3.54-4-5.22-6.17-3.94-5.22-7.09-8.65-9.72-12.13C71.72,301.19,71.76,300,71.85,297.37Z" style="fill:#ffa8a7"></path><path d="M151.43,310.83a16.63,16.63,0,0,1-4.08-3.61,13.74,13.74,0,0,0,3.13.62,2,2,0,0,0,2.18-1.39c0-.38-1-.39-2.45-1.17-1.86-1-3.72-2.47-6-3a3.47,3.47,0,0,1-2-1.37h0c-3.85-4.39-9.35-13.79-12.26-18.26l-.72-20.18s2.47-12.64-3.76-15.82c-4.93,1.1-6.62,3.13-7.41,7.83s.31,27.35.71,30.65a8.89,8.89,0,0,0,1.67,3.71s3,3.66,3.79,4.49v0c3,3.46,6.85,7.8,8.69,9.77,2.05,2.44,4.17,5.67,5.49,7.43,4.57,6.12,7.86,7.31,11.27,6.39C155.12,315.37,155,313.11,151.43,310.83Z" style="fill:#b16668"></path></g></g></svg>