<svg xmlns="http://www.w3.org/2000/svg" viewBox="0 0 500 500" xmlns:xlink="http://www.w3.org/1999/xlink"><defs><path d="M500 0v500H0V0z" id="a"/><path fill="none" stroke="none" d="M500 0v500H0V0z" id="c"/><path d="M197 429.5s80 12.9 142.8-43.4c62.7-56.2 80-147.6 96-221.2 15.8-73.6-18-139-80.5-160S265.7 37.1 188.6 54 88 63.6 33.8 120.3c-54.2 56.8-41.7 164.5 27 233 68.6 68.4 136.3 76.2 136.3 76.2" id="e"/><linearGradient gradientUnits="objectBoundingBox" x1="0" y1="0" x2="1" y2="1" id="f"><stop offset="0%" stop-color="#2E2E2E"/><stop offset="100%" stop-color="#343434"/></linearGradient><linearGradient gradientUnits="objectBoundingBox" x1=".5" y1="0" x2=".6" y2=".7" id="g"><stop offset="0%" stop-color="#FFBCAC"/><stop offset="100%" stop-color="#FFC9BC"/></linearGradient><clipPath id="b"><use href="#a"/></clipPath><clipPath id="d"><use href="#a"/></clipPath></defs><g clip-path="url(#b)"><use href="#c"/><use href="#c"/><g clip-path="url(#d)"><use href="#c"/><g fill="#FFF" transform="translate(21 28.5)"><use href="#e"/><use href="#e"/></g><path d="M50 415.5c0-8 87-14.5 194-14.5 107.2 0 194 6.5 194 14.5S351.3 430 244 430c-107 0-194-6.5-194-14.5" fill="#202020" fill-rule="evenodd"/><path d="M468.1 381s5.8 1.4 8.6 5.8c2.7 4.5 5.1 10 9.6 10s-7.6 2.8-16.1-.3c-8.6-3-22.7-5.1-22.7-5.1s9.3-9.7 20.6-10.4" fill="#2A2A2A" stroke="#202020" stroke-linecap="round" stroke-linejoin="round"/><path d="M422.5 401.2s12 6.2 21.6 2.4c9.6-3.7 10-14 15-18.1 5.2-4.2 9-4.5 9-4.5s-24.4 3-36.4 0c-8-2-15.5-5.6-22-10.6-3-2.4-5.8-4.2-5.8-4.2s-1 11 4.1 21c3.2 6 8.3 11 14.5 14" fill="#A15FFF" stroke="#202020" stroke-linecap="round" stroke-linejoin="round"/><path d="M444.1 403.6c9.6-3.7 10-14 15-18.1 4.8-3.8 8.4-4.4 9-4.5-1 .1-8.5 1-17 1.3-4 5-7.4 11.6-13.6 15.8-10 6.9-22.3-2.3-22.3-2.3l-.2.3c2.2 2 4.7 3.8 7.5 5.1 0 0 12 6.2 21.6 2.4" fill="#2A2A2A" stroke="#202020" stroke-linecap="round" stroke-linejoin="round"/><path d="M378.5 228.9s11 24.7 11 60.8c0 36 20.6 81.3 23.4 91 2.7 9.6 11.6 20.6 11.6 20.6s-23-2.4-36.7-9.6c-13.7-7.2-32.7-12.4-32.7-32.7 0-20.2-1.3-78.6-5.4-105.4-4.1-26.7 6.2-34.6 14.4-33.2a27.8 27.8 0 0 1 14.4 8.5m-133.8 116s1 8.3 10.6 8.3 13.7-14 14.8-16.5c1-2.4-24.1 5.8-25.4 8.3" fill="#343434" stroke="#202020" stroke-linecap="round" stroke-linejoin="round"/><path d="M311.6 109.1s-17.5-3-29.2 13.8-15.1 34-10 44.6c5.1 10.6 1.7 16.1-6.2 18.5-7.9 2.4-24.7-5.8-35 10.7-10.3 16.4-3.8 27.4 2 35.7 6 8.2-7.1 9.6-15.4 21-8.2 11.2-2 52 40.9 44.2 42.9-7.9 45-26.8 47.7-44.3 2.7-17.5 16.1-31.6 30.9-30.9 14.7.7 27.1-5.5 26-21.6-1-16.2-13.3-17.9-12.6-27.5.7-9.6 9.2-18.2 2.7-36.7-6.5-18.5-27-29.5-41.7-27.5" fill="#202020" stroke="#202020" stroke-linecap="round" stroke-linejoin="round"/><path d="M117.8 75.5s1.4 18.2 3 20.6c1.8 2.4 9.3 6.1 20 9.6 10.5 3.4 16 20.5 12.3 39.7-3.8 19.2-12 42.8-11 47.6 1 4.8 15 19.5 11 40-4.1 20.5-5.8 17.5-5.8 17.5s5.8-3.4 10-.4c4 3.1 8.1 4.8 13.6 4.1 5.5-.6 12 .7 17.8 8.3 5.8 7.5 8.6 16 16.1 20.2 7.5 4 35.6 7.5 35.6 9.2 0 1.7-13.7 10.3-29.4 14.4-15.8 4.1-49.7 4.8-71 5.5-21.2.6-40.3 3-61.6 4.4-21.2 1.4-24 1-41.4-6.8-17.4-7.9-24-10-26.4-22.6-2.3-12.7 7-22 16.1-30.8 8.4-8.1 39-42.5 42.8-51 3.8-8.6 6.9-15.5 8.6-20.2 1.7-4.8-6.5-26.4-10.6-41.1-4.1-14.8-1.4-24.3-1.4-24.3s-18.5-6.9-25.3-16.5c-6.9-9.6-2.1-12.6 9.2-15.4 11.3-2.7 20.2-2 26.4-2 6.1 0 15.4 3.1 17 3.1 1.8 0-1-10.3-1-10.3a38 38 0 0 0 12.7 2.8c6.2 0 12.7-5.6 12.7-5.6" fill="url(#f)" stroke="#202020" stroke-linecap="round" stroke-linejoin="round" transform="translate(214.7 108.9)"/><path d="M335.6 205c-1.7-2.4-3.1-20.5-3.1-20.5s-6.5 5.4-12.8 5.4a38 38 0 0 1-12.6-2.8s2.7 10.3 1 10.3c-1.2 0-5.8-1.4-10.5-2.3-.4 5.5-1.6 36.4 13.1 40 12.1 2.9 23.3-12.4 30.8-26-3-1.7-5.2-3-6-4.2" fill="#FFC9BC" stroke="#202020" stroke-linecap="round" stroke-linejoin="round"/><path d="M419.5 391.6c-7.6-4.1-10.3-12.7-16.1-20.2-5.9-7.6-12.4-9-17.8-8.3a18 18 0 0 1-13.7-4c-3-2.3-7-1-8.9-.3l.8-1.6-9 10.8s4.1 2.4 10.7 1.3a19 19 0 0 1 20.6 11.4c4.8 10.3 3.4 10.2 7.5 14.7a96 96 0 0 0 28.2 15.5c7 2 10.5 2 11.1 2 12.5-4.4 22.2-10.7 22.2-12 0-1.8-28.1-5.2-35.6-9.3" fill="#FFF" stroke="#202020" stroke-linecap="round" stroke-linejoin="round"/><path d="M251.3 393.3c1.7-4.2 4-8 6.8-11.6 10.1-12.6 49.1-37.5 64.3-48.7m-74 74c0-2.4.3-4.7.8-7m82.5-75.2a64 64 0 0 1 5.2-.5m-43 13.7c9.3-5 19.3-9 29.6-11.6m38.5 33s-26.3 36-55.9 46.3" fill="#100F0F" stroke="#202020" stroke-linecap="round" stroke-linejoin="round"/><path d="M329.7 392s-6.4 10.2-14.7 16m29.7-1.5c14.6-2.7 39.5-8.3 57.2-18m-69 20 5.5-.9" fill="#100F0F" stroke="#202020" stroke-linecap="round" stroke-linejoin="round"/><path d="M361 216.2s-9 6.2-20.3 20c-11.3 13.7-27.7 66.8-38.4 84.7-10.6 18-36.6 23.4-45 23.7l-12.7.4s25-16.5 34.3-31c9.4-14.3 14.5-46.6 28.2-67.6 13.7-20.9 30.2-40.8 30.2-40.8s15.5 4.4 23.7 10.6" fill="#A15FFF" stroke="#202020" stroke-linecap="round" stroke-linejoin="round"/><path d="m340.5 206.6-3.2-1s-16.4 19.9-30.2 40.8c-13.7 21-18.9 53.2-28.1 67.7a59.7 59.7 0 0 1-7.3 8.8c9.2-4.5 13.6-11.6 18-21.8 5.4-12.6 21-50.8 30.8-66.2a427 427 0 0 1 20-28.4" fill="#343434" stroke="#202020" stroke-linecap="round" stroke-linejoin="round"/><path d="M302.3 320.9c10.7-17.8 27.1-71 38.5-84.8a115 115 0 0 1 20.2-19.9c-1.4-1-2.8-1.9-4.3-2.7-10.5 6-19 14.9-24.8 25.5-13.1 24-26.2 73.1-46.8 88a58.1 58.1 0 0 1-32.3 12.2c-4.7 3.6-8.1 5.8-8.1 5.8s4.4 0 12.7-.3c8.2-.4 34.3-6 45-23.8" fill="#343434" stroke="#202020" stroke-linecap="round" stroke-linejoin="round"/><path d="M335.6 157.7s1.3-8.2 5.1-6.8c3.8 1.3 2.4 8.2 1.4 11.6a8.2 8.2 0 0 1-4.5 4.8zm-42.9 10.4s-5.8-5.9-8.1-2.6c-2.3 3.3 2.8 8 5.7 10.3a8.2 8.2 0 0 0 6.4 1.1z" fill="#FFC9BC" stroke="#202020" stroke-linecap="round" stroke-linejoin="round"/><path d="M94.2 21.8s-10 20.9-20.6 30.8c0 0 6.9 17.1 10.6 24.3 3.8 7.2 17.2 12.7 24 12.7 7 0 13.7-11.3 15.5-17.2 1.7-5.8-3.5-37-3.5-37s-21.2-6.8-26-13.6" fill="url(#g)" stroke="#202020" stroke-linecap="round" stroke-linejoin="round" transform="translate(214.7 108.9)"/><path d="M322.7 161.8a4.7 4.7 0 0 1-.4-4 6.4 6.4 0 0 1 2.5-3.3 6.7 6.7 0 0 1 5.8-.9l1.7 1v.3c-1 0-2 .3-3.1.5-1 .3-2 .7-2.9 1.3-1.7 1.2-3 3-3.4 5.1zm-25.7 1.8c.2-1.4 1-2.7 2.3-3.4a6.4 6.4 0 0 1 7.7.6c.5.4 1 1 1.3 1.5.3.6.6 1.2.7 1.9l-.2.2c-.8-.6-1.8-1.2-2.7-1.6a8.6 8.6 0 0 0-9 .9z" fill="#202020"/><path d="M295.9 156.7s.6-6.5 8.5-6.9m13-3.4a13 13 0 0 1 11 1.7" fill="#100F0F" stroke="#202020" stroke-width="2" stroke-linecap="round" stroke-linejoin="round"/><path d="M314.4 173.5c1.5.4 3.1.6 4.7.7 2 0 3.5-3.5 3.5-3.5m-8.2 8.2s7.5 2.8 11.6-4" fill="#100F0F" stroke="#202020" stroke-linecap="round" stroke-linejoin="round"/><path d="M312 144.2a1.5 1.5 0 1 1-3 0 1.5 1.5 0 0 1 3 0" fill="#202020"/><path d="M336.8 250.8s.9-12.4 6.7-10.4c5.7 2 1.7 15.3 0 18.5-1.8 3.1-7-2.9-6.7-8.1" fill="#FFF" stroke="#202020" stroke-linecap="round" stroke-linejoin="round"/><path d="M307.4 207.8c5 4.1 9 9.3 11.8 15.2a166 166 0 0 1 7 20s6.9-.9 15.2 9a35.4 35.4 0 0 1 5 34.6c-7.3 15.6-30.6 12.4-42.2 11.6-11.5-1-17.6-9.6-22.8-21.7-5.2-12.1-2.3-37.5-.6-44.5 1.7-6.9 2-12.4 0-19.3-2-7 12.4-14.5 26.6-5" fill="#FFF" stroke="#202020" stroke-linecap="round" stroke-linejoin="round"/><path d="M336.2 255.1s5.2-7 7.8-5.5c2.6 1.5 4.7 9.3 4.7 9.3s1.4-11 6-10.7c4.6.3 4 9.8.9 21.6-3.1 11.9-8.4 9.6-9.2 6.4a45 45 0 0 0-1.8-5.2" fill="#FFF" stroke="#202020" stroke-linecap="round" stroke-linejoin="round"/><path d="M281.7 242s3 2.3 15 3.1c12 .8 20.6-6.4 20-2.6-2 16-28.3 16.5-36.5 5.7-1.6-2-1.7-6.1 1.5-6.2" fill="#202020" stroke="#202020" stroke-linecap="round" stroke-linejoin="round"/><path d="M282.3 257.4s3 2.3 15 3.1c12 .9 20.5-6.4 20-2.6-2 16-28.4 16.5-36.5 5.7-1.6-2-1.7-6 1.5-6.2" fill="#202020" stroke="#202020" stroke-linecap="round" stroke-linejoin="round"/><path d="M286.1 275.4s3.1 2 15.1 2 20-7.8 19.8-4c-.8 16-27.1 18.5-36 8.3-1.7-1.9-2.1-6 1-6.3" fill="#202020" stroke="#202020" stroke-linecap="round" stroke-linejoin="round"/><path d="M300 290.1s3.4 1.4 15.2-.8c11.8-2.3 18.3-11.5 18.8-7.7 2.1 16-23.3 23.2-34 14.9-2-1.6-3-5.5 0-6.4" fill="#202020" stroke="#202020" stroke-linecap="round" stroke-linejoin="round"/><path d="m359.2 247.1 1 46.9s-28.8 2.7-38 1.4c-9.2-1.4-13-3.1-13-3.1a82.1 82.1 0 0 1-5.1-9c-1.7-3.7-3.1-3.7-5.9-7.1-2.7-3.4-4.4-5.8-4.4-2 0 3.7 2 4.7 2.7 6.1.5 1.3.7 2.7.7 4.1 0 0-8.2-2-10.6-3-2.4-1.1-4.4-2.5-4.8-.8-.3 1.7 0 2.8 1.4 5.9 1.4 3 0 8.5 1.4 11.3 1.3 2.7 6.5 6.5 8.9 7.5 2.4 1 13.7.3 17.4.7a858 858 0 0 1 36 6.5c12.3 2.4 25.6 4 29.4 2 3.8-2 5.8-3.4 6.5-6.8a845 845 0 0 0 1.7-48c0-9.5-.3-22.5-3-28.7a24.5 24.5 0 0 0-16.1-13c-6.6-1.4-4.4-1.8-4.4-1.8" fill="#FFC9BC" stroke="#202020" stroke-linecap="round" stroke-linejoin="round"/><path d="m357 241.8 2.7 26a53.8 53.8 0 0 1 23.5-4.5l1.3.1v-3.7c0-9.5-.3-22.5-3-28.7a24.6 24.6 0 0 0-16.2-13c-1-.2-4-.3-4.6-.4" fill="#343434" stroke="#202020" stroke-linecap="round" stroke-linejoin="round"/><path d="M316.1 313.6a2.9 2.9 0 0 1-3-2.8l-.3-18.1a2.9 2.9 0 1 1 5.8-.1l.3 18.1a2.9 2.9 0 0 1-2.8 3z" fill="#FFF" stroke="#202020" stroke-linecap="round" stroke-linejoin="round"/><path d="M260.6 197.8s-25.7 3-27.4 10c-1.7 6.7 7.5 19.8 27.4 26 19.9 6 50.7 11 54.4 12 3.8 1 3.1 7.1 3.1 7.1l-1 14.4s-4.8 14-3.7 14.4c1 .3 2.3-1 4-5.2a67 67 0 0 1 5.5-9.6s2-.7 2 2.4c0 3.1-2.6 15.8-2.6 15.8s1.7 2.4 2.7-.4c1-2.7 5.8-14 5.8-14v14.8s1.4 1 2.4.6c1-.3 2.7-18 2.7-18l1.7 2c1 1 2.4 14.7 2.4 14.7s1.7 1 2.4-.7-1-15-1.3-18.8a148 148 0 0 0-10.3-23.3c-2-3.8-7.5-7.2-13.4-8.9a452 452 0 0 1-54.4-28.4" fill="#FFC9BC" stroke="#202020" stroke-linecap="round" stroke-linejoin="round"/><path d="M314.4 251.3h-.3a2.9 2.9 0 0 1-2.6-3.1c1.2-13.3 9.2-16.5 13.2-16.3a2.9 2.9 0 0 1-.1 5.8c-.7 0-6.3.3-7.4 11a2.9 2.9 0 0 1-2.8 2.6m-25.7-31.6c-6.2 0-19.5-1-22.3-5.1-2.7-4.2 1-9.6 1-9.6s-3.8-6.9-2.4-10.6c1.4-3.8 13.4-1 13.4-1l14-4.5s6.6-5.9 10.3-5.9c3.7 0 2 9.3 2 9.3s6.6 1.3 8.3 7.5c1.7 6.2-3.4 10.6-5.8 13-2.4 2.4-4.1 2.7-4.1 2.7" fill="#FFF" stroke="#202020" stroke-linecap="round" stroke-linejoin="round"/><path d="M294 208.4s-4.5.7-4.1 1.9c.4 1 2.2 1.8 4 1 2-.7 2.2-3.3 0-3" fill="#FFF" stroke="#202020" stroke-linecap="round" stroke-linejoin="round"/><path d="M287.5 206.1c.2 1.2 0 2.3-.7 2.4-.7.2-1.4-.7-1.7-1.9-.3-1.2 0-2.3.7-2.5.7 0 1.4.8 1.7 2m9.8-2.5c.2 1.3 0 2.3-.7 2.5-.7.1-1.4-.7-1.7-2-.3-1.1 0-2.2.7-2.4.7-.1 1.4.7 1.7 2" fill="#202020"/><path d="M293.5 212.3c.4.9.2 2-.4 2.7-1.2 1.1-3.6.7-4-.9m4.8 0s1.1 1.3 3.1 0a1.9 1.9 0 0 0 .5-3" fill="#100F0F" stroke="#202020" stroke-linecap="round" stroke-linejoin="round"/><path d="M292.7 191.2s-11 2.5-12.2 5c-1.2 2.6 12.1-1.3 13.8-3 1.7-1.5.2-2.6-1.7-2m-1.8 5.9s-7.2 2.6-6.4 3.3c.9.7 7.5-1 9-2.1 1.4-1.2 0-2-2.6-1.2m-25.3 13.5s11.1-7.1 10.4-3.7c-.7 3.4-8.2 8.8-8.2 8.8a4.3 4.3 0 0 1-2.2-5.1m7.9 7.5s6.8-8.2 6.4-4.4c-.5 3.8-2 5-2 5zm37.5-21.7s-7.5 1.6-7 3c.6 1.5 9.1 3 9.1 3s.5-4-2.1-6m-.2 12.6s-7.6-2.7-7-.7c.6 2 4.2 3.8 4.2 3.8z" fill="#202020" stroke="#202020" stroke-linecap="round" stroke-linejoin="round"/><path d="M265 194.4s4.5 1 6.6 3c2 2.1 2.7 2.8 0 5.5-2.8 2.8-4.2 2-4.2 2s-2.7-5.4-2.4-10.5m37.7-11.4s-3.8 7.9-2 10c1.8 2 4.1-.7 4.1-.7s2.4-9.6-2.1-9.3m-13.8 33.9s-5.6-.7-7.5 1.5c-1.9 2.3 0 3.8 5.3 4.2 5.2.3 8.5-3.2 2.2-5.7" fill="#FFF" stroke="#202020" stroke-linecap="round" stroke-linejoin="round"/><path d="M312.2 215.4s-9-2.6-14 .4c-4.8 3-9.7 11.3-4.4 14.6 5.2 3.4 6.7-6.7 6.7-6.7s9 11.2 17.3 4.9m73 14.4c-10-2.6-21.3 9-24.2 18.8-3 9.8-4.7 23.7-11.9 28a15.5 15.5 0 0 1-11.7 1.8 19.4 19.4 0 0 1-4.3 3.3c6.1 1.7 17.7 3.5 25-4.3 10.4-11 8-26 16.5-33.2 8.3-7.2 13.5 6.4 18.7 1.7 5.2-4.6 2-13.5-8-16" fill="#FFF" stroke="#202020" stroke-linecap="round" stroke-linejoin="round"/><path d="m367.2 286.1-6.5-4.2c-.7 1.7-1.7 3.4-2.8 4.9l4 5.4 1.6-1.5c1.3-1.4 2.5-2.9 3.6-4.5m23.7-43.2-1.9-.3a20 20 0 0 0-4.9 12.7c6.2-1.2 10.6 7.6 14.9 3.8 5.2-4.7 2-13.6-8-16.2m-39.2 48.2c-1.1.4-2.2.6-3.4.7l1.3 4.4h0a24 24 0 0 0 5.6-.7c-1-1.6-2.2-3-3.6-4.4m13.5-24-1.5 6 7.7 3.9 2.4-8zm4.7-12.4 6.7 7.3a18 18 0 0 1 2.8-4l-5.6-8.2a33.6 33.6 0 0 0-3.9 4.9" fill="#202020" stroke="#202020" stroke-linecap="round" stroke-linejoin="round"/><path d="M361 216.7v-.5s-.7.2 0 .5" fill="#FFF" stroke="#202020" stroke-linecap="round" stroke-linejoin="round"/><path d="M98 327.6s-5.4-2-10.1-15c-4.8-12.9-15.9-16-27.1-12.2-11.1 3.7-8.5 15.8-5 17 3.5 1.3 6.3-5 13.6-8.5s11.1 4.4 13 10.1c2 5.7 9.6 12 13.7 12s3-.2 2-3.4m3.7 5.1s1-12.1 10.8-18.8c9.8-6.6 26.3 1 29.5 7a35 35 0 0 1 3.5 13z" fill="#202020" stroke="#202020" stroke-linecap="round" stroke-linejoin="round"/><path d="M120.9 319.5s-5.4 4.2-5.9 10.2c-.4 6 16.5 6.8 22 4.7 5.5-2.1 4.2-13.5-3-19s-13 4.2-13 4.2m90.6-4.4c-3.8-2.5-12 .3-12 .3s2.1-4.4 2.1-8c0-3.4-9.8-7-9.8-7-4.3-3.9-10-5.9-15.9-5.3 0 0 .6-12.3-.6-12-1.3.3-8 4.4-14.6 14.9-6.7 10.4 1.4 18.8 3.3 24.1l.1.5-5.1 7.6c-1.8 2.4 13.2 1.2 20.6.5h26.4c.4-1 .6-2.1.7-3.2-.1-1.7-.3-3.4-.7-5.1 1.2 2.6 4 3.8 6.7 2.9 4.8-1.6 2.6-7.7-1.2-10.2" fill="#FFF" stroke="#202020" stroke-linecap="round" stroke-linejoin="round"/><path d="M199.5 315.5c-4.1 3.2-6.7 8-7 13.3" fill="#100F0F" stroke="#202020" stroke-linecap="round" stroke-linejoin="round"/><path d="M182.8 303.5c1.9-3.3 4.2-6.4 6.8-9.2 1.4-1.5 6.2-6.1 8.7-4.9 1.6.8.3 3.6 0 4.9-2 6.3-2 15.8-5.4 18.7-3.5 2.8-9.9-.3-9.9-.3" fill="#FFF" stroke="#202020" stroke-linecap="round" stroke-linejoin="round"/><path d="M176 295.2s-8.2.3-12.7 6.4" fill="#100F0F" stroke="#202020" stroke-linecap="round" stroke-linejoin="round"/><path d="M91 327.6h117v95.5H91zm-15.8 0-7.4 20.6h12.7z" fill="#D8A770" fill-rule="evenodd" stroke="#202020" stroke-linecap="round" stroke-linejoin="round"/><path d="M91 327.6H75.2v82.5l15.8 13zm0 0 10.2 31.7h115.1l-8.2-31.7z" fill="#D8A770" fill-rule="evenodd" stroke="#202020" stroke-linecap="round" stroke-linejoin="round"/><path d="M126.6 291.4s12.3-7 13.6-4.1c1.3 2.9-6 11-6 11z" fill="#202020" stroke="#202020" stroke-linecap="round" stroke-linejoin="round"/><path d="M128.5 322.2c-13 1.5-17.2-4.5-19.7-5.7-2.5-1.3-8 .3-9.5 0-1.6-.3.6-8 5-15.3 2.5-4.1 5.7-7.8 9.6-10.7 0 0 7.9-1.6 14 .3 6 1.9 9.2 8 13 8.2 3.8.3 3.5 2.9 3.1 6.4-.3 3.5-.3 6.3-3.1 9.8-2 2.3-4.4 4-7 5.4" fill="#FFF" stroke="#202020" stroke-linecap="round" stroke-linejoin="round"/><path d="M113.8 290.5c-3.8 3-7 6.6-9.4 10.7-4.5 7.3-6.7 15-5.1 15.3 1.6.3 7-1.3 9.5 0 2 1 4.8 4.7 12 5.7a9 9 0 0 1 .6-4.4c2-5.9 11.4-8.4 15.1-13.9 3.8-5.5-2.5-9.2-2.5-9.2v-.2a18 18 0 0 0-6.1-3.8c-6.1-2-14-.3-14-.3" fill="#202020" stroke="#202020" stroke-linecap="round" stroke-linejoin="round"/><path d="M108.3 297.2s4.5-12.3 12.2-15.3c4.5-1.9 3.2 13 3.2 13" fill="#202020" stroke="#202020" stroke-linecap="round" stroke-linejoin="round"/><path d="M140.8 299s-2.2.7-.6 3.2 3.2 4.8 4.4 1.9c1.3-2.8-1.5-6-3.8-5m-21-15s-5.6 12.7-1.8 13.7 5-3.2 5.7-9c.7-5.6-1-7.5-3.9-4.7" fill="#FFF" stroke="#202020" stroke-linecap="round" stroke-linejoin="round"/><path d="M133.8 298.8c.8 1 1 2.2.5 2.6-.5.4-1.6-.2-2.3-1.2-.8-1.1-1-2.3-.6-2.6.5-.4 1.6.1 2.4 1.2" fill="#FFF"/><path d="m116.8 323.7-5.5-6.3s-3.5-2.2-5.7-.3c-2.2 2-7.6 12.7-2.8 16.9 4.7 4.1 7.9-6.4 8.9-7.3l1-1" fill="#202020" stroke="#202020" stroke-linecap="round" stroke-linejoin="round"/><path d="M111.3 327.2c-2-2.9-5.2-4.8-8.7-5.3-1.7 4-2.9 9.4.2 12 4.2 3.7 7.2-4.3 8.5-6.7" fill="#FFF" stroke="#202020" stroke-linecap="round" stroke-linejoin="round"/><path d="m140.2 323.4 2.9-6s3.5-2.2 5.7-.3c2.2 1.9 7.6 12.7 2.8 16.8-4.7 4.1-8-6.3-8.9-7.3l-1-1" fill="#202020" stroke="#202020" stroke-linecap="round" stroke-linejoin="round"/><path d="M152.4 323.6c-5 .8-7.3 3.3-8.2 5.8 1.5 3.1 4 7.4 7.4 4.5 2.7-2.3 2.2-6.6.8-10.3" fill="#FFF" stroke="#202020" stroke-linecap="round" stroke-linejoin="round"/></g></g></svg>