<svg xmlns="http://www.w3.org/2000/svg" viewBox="0 0 750 500" xmlns:xlink="http://www.w3.org/1999/xlink"><defs><clipPath id="b"><use href="#a"/></clipPath><path id="a" d="M750 0v500H0V0z"/></defs><g clip-path="url(#b)"><path fill="none" d="M750 0v500H0V0z"/><path fill="#292929" fill-rule="evenodd" d="m46.7 369 82-.3 82.1-.1 164.2-.2 164.2.2h82l82.1.3-82 .3h-82.1l-164.2.2-164.2-.2h-82z"/><path fill-opacity=".2" fill-rule="evenodd" d="M90.2 431.2c0-14 127.5-25.2 284.8-25.2s284.8 11.3 284.8 25.2c0 14-127.5 25.3-284.8 25.3S90.2 445 90.2 431.2"/><path fill="#64C869" d="M120.2 291.4s21.1-4.8 32.7-15.5a84 84 0 0 0 18-29.8q-12 2.3-23.6 6.3a38 38 0 0 0-7.2 10.1q-.3-3.6 0-7.3a32 32 0 0 0-7.6 4.6c-9.6 8.4-12.3 31.6-12.3 31.6"/><path fill="#382E26" d="m157.7 255.4 8.8-6v-.1l-.2-.1a260 260 0 0 0-21.4 14.4l.4-.6a88 88 0 0 1 6.4-9.3q-2.5 2.8-4.8 5.8l-2 3-1 1.6-.3.5a142 142 0 0 0-12.5 11.3l2.4-7.6q0-.2-.1 0-1.6 4-2.6 8l-4.7 5.4.1-.3 2.5-8.7a33 33 0 0 1 5.6-10.9 41 41 0 0 0-8.8 19.7l-.3 1.4-1.9 2.7a92 92 0 0 0-9 17.5 201 201 0 0 0-6.5 21.2c4-12.4 8.3-25 15.4-36q2.3-3.5 4.8-6.7a41 41 0 0 0 20.6-7l5.2-4.2a53 53 0 0 1-25.1 10.3q3-3.7 6.3-7l2.2-2a51 51 0 0 1 7.8-4.5l10.3-5.2 5.8-3-10.6 4.8q-5 2.2-9.8 4.8l-.4.2a161 161 0 0 1 17.4-13.4"/><path fill="#382E26" d="m156.6 266.3-5.2 2.3-5 2.8q2.6-1.1 5-2.4l5.2-2.5z"/><path fill="#64C869" d="M51.4 184.8c4 5 6.2 11.2 6.4 17.6l-.5 7.6a50 50 0 0 1 13.8 11.8 25 25 0 0 0-14-3.3q.2 3.2.8 6.3c1.5 0 4.3.1 9 1.8a20 20 0 0 0-8 1.6c3.7 12 15 24.3 45.9 29.6a65 65 0 0 0-5.5-43.6C90 196 51.4 184.8 51.4 184.8"/><path fill="#382E26" d="M115.5 309.1a329 329 0 0 0-8.2-45.6q-1.8-7-4.5-13.8l.1-2.5v-3q0-3-.3-6-.5-5.9-1.9-11.6l-1.8-6.5h-.2q1.5 5.7 2.3 11.6t1 11.6v4.6a98 98 0 0 0-5.2-10.8q-4.6-8.3-10.6-15.9l-.2-1.7-.5-2-1-4.3-2.6-8.3h-.2q1.2 4.2 2 8.4l1 4.2.4 2v.2l-3.8-4.7q-9-10.3-19-19.7l-2.4-2.3q-.2 0 0 .1a420 420 0 0 1 22.2 25l-2.1-1.3a94 94 0 0 0-11.3-6.5q-3-1.2-6-2.9-.2 0 0 .2 2.9 1.4 5.6 3l5.6 3.5 5.4 3.5 4.6 3a146 146 0 0 1 15 24l-1.1-.4-3-1.3-5.4-2.4L79 236a49 49 0 0 1-5.6-3c6.4 4.4 13.5 7.5 20.5 10.6l3 1.3 2.5 1.1q3.2 7 5.3 14.4a292 292 0 0 1 6.7 30q2.6 15 3.9 30.4l.4 3.9a.4.4 0 0 0 .8 0q-.1-7.9-1-15.6"/><path fill="#382E26" d="M96.7 223.6a110 110 0 0 0-2.4-9.3q1.1 4.5 1.9 9.2l1.5 9.3q-.3-4.7-1.1-9.3m-13.3 8.6a58 58 0 0 0-6.7-3.8l-3.4-1.5-3.6-1.7v.1l3.3 2 3.4 1.8q3.4 1.9 6.9 3.5z"/><path fill="#382E26" fill-opacity=".1" d="M120.6 254.8s19.5-4.7 28.5-17.8c8.6-12.6 11.4-34 11.6-35.8-.3 1.7-4.4 20.4-17.7 29-10.3 6.9-20 12.3-22.4 24.6"/><path fill="#382E26" d="M138.7 221a25 25 0 0 0-7.3 11.8 29 29 0 0 1 7.1-12"/><path fill="#64C869" d="M120.6 254.8s19.5-4.7 28.5-17.8c8.6-12.6 11.4-34 11.6-35.8v-.2s-9.4 13.4-19.3 16.8a33 33 0 0 0-20.7 37"/><path fill="#382E26" d="M157.3 208.4q-2.7 5.4-6 10.3-3.5 4.8-8.1 8.3l-8.2 6.1 1.7-2.3 3.6-4q3.7-4 7-8.2a30 30 0 0 0 3-5c-3.1 6.6-9.4 10.8-14 16.4a31 31 0 0 0-2.9 4.5q-3.7 3-6.7 6.7a27 27 0 0 1 2.8-8.8q-1.5 2.3-2.3 4.9-.7 2.1-.7 4.2-1.5 2-2.7 4.1l.3-1.2 1.3-5.9a35 35 0 0 1 4.6-11 42 42 0 0 0-6.8 16.6l-.6 2.9-.3 1.5q-3 6.4-4.5 13.3a206 206 0 0 0-5.5 51l.1 3.3c0 .3.5.4.5 0l.5-13a286 286 0 0 1 5.3-38.3 65 65 0 0 1 7.6-20.6q3-4.7 7-8.4 4.3-3.6 8.7-6.9a47 47 0 0 0 14-17.8zq0-.2-.2-.1m-3.2 3"/><path fill="#64C869" d="M48.7 246.1S48.4 274 65 282s25.5 1.3 36.9 4c-.5-.7-8.6-12.3-21.4-15.5-13.2-3.3-27.8-12.7-31.8-24.4"/><path fill-opacity=".1" d="M48.7 246.1S48.4 274 65 282s25.5 1.3 36.9 4q-9-4.2-19-5.6a38 38 0 0 1-34.2-34.3"/><path fill="#382E26" d="M103 286.5q-3-2.7-6.6-4.5l-1.1-.5-.6-.6a22 22 0 0 0-4.9-4q-4.1-2.1-8.6-4.1v.2l4 2.3 4 2.3a29 29 0 0 1 4.1 3.3q-2.7-.9-5.6-1.5l-9.1-1.7-4.5-1.2-4-3.4a33 33 0 0 1-4.4-4.7q3 4.1 6.8 7.5l-2.2-.8A34 34 0 0 1 56 263.2a39 39 0 0 0 18.8 14.6q4.5 1.4 9 2 4.5.9 8.8 2.2 4 1.3 7.4 3.9 6.4 5 10 12.3a62 62 0 0 1 5.5 20.4c0 .3.5.3.5 0-.9-11.7-4-23.9-13-32"/><path fill="#382E26" d="M83.7 277.4q-1.3-2-3.4-3-2.4-1.3-4.1-3.4h-.1q1.5 2 3.6 3.3 2.3 1.2 3.9 3.2"/><path fill="#4F4337" fill-rule="evenodd" d="m92.5 307 .8 15.3 2.3 46.8h34.9l2.3-46.8.8-15.3z"/><path fill="#382E26" fill-rule="evenodd" d="m92.5 307 .8 15.3h39.4l.8-15.3z"/><path fill="#4F4337" fill-rule="evenodd" d="M136 315.2H90v-14.6h46z"/><path fill="#455A64" fill-rule="evenodd" d="M367 182.2h-46.9l3-16h41z"/><path fill="#EFEFEF" fill-rule="evenodd" d="M336.7 172.4h13.7v3.8h-13.7z"/><path fill="#EFEFEF" fill-rule="evenodd" d="M334.1 172.2a2.6 2.6 0 1 1 5.2 0 2.6 2.6 0 0 1-5.1 0"/><path fill="#EFEFEF" fill-rule="evenodd" d="M334.1 176.2a2.6 2.6 0 1 1 5.2 0 2.6 2.6 0 0 1-5.1 0m13.7-4a2.5 2.5 0 1 1 5 0 2.5 2.5 0 0 1-5 0"/><path fill="#EFEFEF" fill-rule="evenodd" d="M347.9 176.2a2.5 2.5 0 1 1 5 0 2.5 2.5 0 0 1-5 0"/><path fill="#A6A6A6" fill-rule="evenodd" d="M308.5 343h186v10.2H308.6z"/><path fill="#DBDBDB" fill-rule="evenodd" d="M302.1 353.2h200.6V369H302.1zm0-145h200.6v15.7H302.1zm0 15.7h8.2v129.3h-8.2zm25.5 0h3.5v129.3h-3.6zm20.8 0h3.7v129.3h-3.6zm20.9 0h3.6v129.3h-3.6zm20.8 0h3.7v129.3h-3.7zm21 0h3.5v129.3h-3.5zm20.8 0h3.6v129.3h-3.6zm20.9 0h3.6v129.3h-3.6zm20.9 0h3.6v129.3h-3.6zm20.9 0h8.1v129.3h-8.1z"/><path fill="#EFEFEF" d="M474.4 143c4-.9 10.3-13.8 11.2-15 .9-1 7.4-.1 8-2 .6-2-2.2-6.2-4.3-7.2s-8.6.3-10.4 1.5q-2.4 1.5-4.2 4c-.4.5-13.7 2.6-15.3 4.5s10 15.4 15 14.2"/><path fill-opacity=".2" d="M474.4 143c4-.9 10.3-13.8 11.2-15 .9-1 7.4-.1 8-2 .6-2-2.2-6.2-4.3-7.2s-8.6.3-10.4 1.5q-2.4 1.5-4.2 4c-.4.5-13.7 2.6-15.3 4.5s10 15.4 15 14.2"/><path fill="#EFEFEF" d="M409.8 152.4a55 55 0 0 0 8.9 13.3 34 34 0 0 0 13.7 5.1c1.8-.2 6.4-.4 6.8-1.7s-1.4-3.5-2.2-3.7l-4.2-1.1c-.5 0-4.6-5-4.7-5.7s3.8-10 1.2-13.1c-2.5-3.2-19.5 7-19.5 7"/><path fill-opacity=".2" d="M409.8 152.4a55 55 0 0 0 8.9 13.3 34 34 0 0 0 13.7 5.1c1.8-.2 6.4-.4 6.8-1.7s-1.4-3.5-2.2-3.7l-4.2-1.1c-.5 0-4.6-5-4.7-5.7s3.8-10 1.2-13.1c-2.5-3.2-19.5 7-19.5 7"/><path fill="#EFEFEF" d="M462.8 83.9c6.7 1.4 8.4 14.5 14 15.5 5.4 1 12.4-3.1 13.6-1.8s1.1 10.9-2.8 15-15.5 5.8-17.5 7.8a9 9 0 0 0-2.3 7.2 39 39 0 0 0 14.9 21.9c2 1 3.7 0 4.4.8s1.7 2 1 2.9a23 23 0 0 1-8.2 3c-1.4 0-2.7-2.1-3.3-2.3s-10.7-1-15-6.3c-.5-.5-5 4.5-14.4 8-4.8 1.8-18.4 2.5-21.5 2.7q-4.4.3-5 1c-.3.7-2.8 6.7-4.3 9.7-1.6 3-7.2 7.7-7.5 8.6-.4.9 5.1 1.5 5 2.9q-.2 2.3-2.3 3.5c-1 .3-7.6-1.8-9-3.2s1.2-7 1.4-8.6c.3-1.6-5.5-16.1-6.1-19.6-.6-3.4 1.2-20.8 5.2-23.2s28.4-9.5 34.3-16.4c2.4-2.8 3-14 5.4-18.4 2.5-4.5 15.7-11.7 20.1-10.7"/><path fill="#EFEFEF" d="M406.7 127.8a11 11 0 0 1-12.8-3.6c-3.2-4.3-1.1-10-1.6-10.2s-5.2 7.8-2.5 14.2c3.2 7.5 9.7 9.6 10.5 9.2.8-.3 6.4-9.6 6.4-9.6"/><path fill="#263238" d="M455.2 85.7c3 1.4 10.6 21.1-4.4 32.6-2 1.6-12.9-14-12.3-20.3s14.5-13.4 16.7-12.3m13.2 14.3c-2.8.6-1.4 5.8 1.1 5.3 2.6-.6 1.2-5.8-1.1-5.3m20.5 3.9c1.1-.3 3-5.1 2.2-6.6s-8.7 2.5-8.8 4c-.1 1.4 5.4 2.9 6.6 2.6"/><path fill="#263238" d="M468.9 122.3c-1.8-.1-12 0-17.6-1.4a41 41 0 0 1-13.7-9c-.5-.6-2.6 2.1-2.7 2.8a31 31 0 0 0 15.6 10.3 89 89 0 0 0 18.2 1.2c.6-.7 1-3.8.2-3.9"/><path fill="#A6A6A6" fill-rule="evenodd" d="M308.5 182.2h186v10.2H308.6z"/><path fill="#DBDBDB" fill-rule="evenodd" d="M302.1 192.4h200.6v15.8H302.1zm0-145h200.6v15.7H302.1z"/><path fill="#DBDBDB" fill-rule="evenodd" d="M302.1 63.1h8.2v129.4h-8.2zm25.5 0h3.5v129.4h-3.6zm20.8 0h3.7v129.4h-3.6zm20.9 0h3.6v129.4h-3.6zm20.8 0h3.7v129.4h-3.7zm21 0h3.5v129.4h-3.5zm20.8 0h3.6v129.4h-3.6zm20.9 0h3.6v129.4h-3.6zm20.9 0h3.6v129.4h-3.6zm20.9 0h8.1v129.4h-8.1z"/><path fill="#EFEFEF" d="M610.9 327.2c0 .8-3.7 3.8-8 4.1-4.4.4-11.5-1.3-13-1.2s-1.3 4.3-2.8 5.2-5-1.6-5.6-2.8c-.8-1.2.6-5.5 1.8-6s9-4 10-7.6 17.6 6.8 17.6 8.3"/><path fill-opacity=".1" d="M610.9 327.2c0 .8-3.7 3.8-8 4.1-4.4.4-11.5-1.3-13-1.2s-1.3 4.3-2.8 5.2-5-1.6-5.6-2.8c-.8-1.2.6-5.5 1.8-6s9-4 10-7.6 17.6 6.8 17.6 8.3"/><path fill="#EFEFEF" d="M656.7 329.5c.4 2.3-3 7.8-4.5 8.6-1.5.9-5.5 2-6.3 2.7-.7.6-1.2 2.3-2.3 3-1 .6-5 .5-5.5 0s0-2.7.8-3l2-1c.5-.5 2.2-9.8 4.5-12 2.4-2.3 10.9-.4 11.3 1.7"/><path fill-opacity=".1" d="M656.7 329.5c.4 2.3-3 7.8-4.5 8.6-1.5.9-5.5 2-6.3 2.7-.7.6-1.2 2.3-2.3 3-1 .6-5 .5-5.5 0s0-2.7.8-3l2-1c.5-.5 2.2-9.8 4.5-12 2.4-2.3 10.9-.4 11.3 1.7"/><path fill="#EFEFEF" d="M569.8 300c4.1 5 13.2 6.9 15.5 8.1s6.4 8.4 8.7 11.2a51 51 0 0 0 20.2 12c6.6 1.1 19.2-2 21.8-2a117 117 0 0 1 12.3 2c.3 0 4.5 4.6 5.6 5.8l5.1 4.6a1 1 0 0 1-.2 1.5c-.6.3-1.5 2.2-.6 2.7s3.8 1 4.9.3c1-.5 1.8-2.3 2.3-3.2.6-1-2.9-7.4-3.6-9.3-.6-2 3.4-10.3 2.3-13.3-1-3-11-13.2-16.1-13h-3.5c-5 0-13.5-.2-21.4-.6a84 84 0 0 1-16.4-2.1c-8.1-2.6-11.3-13.6-15.8-14.7-4.4-1.2-8.9.5-10.8 0-2.8-.6-10-5.7-11.3-5-2 1.2-1.7 11.7 1 15"/><path fill="#263238" d="M649 331.6q-.6-.4-.9-1.2l-.6-1.4-1-3q0 1.3.3 2.5l-.5-.8h-.1q.2.6.7 1a5 5 0 0 0 2 3z"/><path fill="#EFEFEF" d="M648 307.4c3-.2 7.3-.1 10 1.6s8 10.4 12 12.4c4.1 1.9 11 .8 11 1.2.1.4-6.4 2-11 .5-4.6-1.4-10.6-11.6-15-12.2q-4.1-.6-7-3.5"/><path fill="#263238" d="M586.6 295.3c-1.6-1.5-4.2 1.5-2.8 2.8 1.4 1.4 4-1.6 2.8-2.8m-18.7-5.1c-1-.4-1.3-4.4-.4-5.7s7 2.6 6.9 4-5.3 2.1-6.5 1.7m25 1c-.2-.6 3.3 1.1 6.2 3.8q2 2 3.4 4.9c.5 1.5-1.7 11.5-5 13-2.3 1-5.3-6.4-5.5-8.1-.1-1.8 2.5-8.5 1-13.6m34.4 24.8q2.3 1.2 5 1.3 3.5.5 6.7 2c3 1.1 6.1 1.7 7.7-1.7s.1-7.3-2.3-10.2c-5 0-13.6-.2-21.5-.6-.4 3.5 1.5 7.7 4.4 9.2m-13.7-.8c1.8 1.2 5.2.9 6.1-1.4.6-1.3-.5-2.2-1.3-3.1l-.8-.7q-.7-.9-1.7-1.4c-1-.6-2.3-.4-3 .4a4.2 4.2 0 0 0 .7 6.2"/><path fill="#455A64" d="M603.8 303.4c-.1 1-1.7 13-11.6 13.5-.6 0 0 2 1.2 2s12-1.8 12-15c0-.9-1.6-1.4-1.7-.6"/><path fill="#EFEFEF" d="M613.5 323.2a30 30 0 0 1 5 13c-.5 1.7-3.6 5.1-4 5.5-.2.4 0 1-1 1.3-.8.5-5.4.2-6-.3q-.8-1.6.2-3.1c.7-.6 2.5-.6 2.8-1s1.1-2.6.8-3.3-7.2-5-8-8.3 7.5-6 10.2-3.8"/><path fill="#263238" d="m616.9 329-.6-1.5-.6-3.3.3 1.6.2 1.3-.1-.4q-1-2.3-2.3-4.5l1.9 4.7 1 2.3 1 2.4z"/><path fill="#A6A6A6" fill-rule="evenodd" d="M509.1 343h186v10.2h-186z"/><path fill="#DBDBDB" fill-rule="evenodd" d="M502.7 353.2h200.6V369H502.7zm0-145h200.6v15.7H502.7zm0 15.7h8.2v129.3h-8.2zm25.4 0h3.7v129.3h-3.7zm21 0h3.5v129.3h-3.5zm20.8 0h3.6v129.3h-3.6zm20.9 0h3.6v129.3h-3.6zm20.9 0h3.5v129.3h-3.5zm20.9 0h3.5v129.3h-3.6zm20.8 0h3.6v129.3h-3.6zm20.9 0h3.6v129.3h-3.6zm20.8 0h8.2v129.3h-8.1z"/><path fill="#263238" fill-rule="evenodd" d="M563.1 342.9h-46.7l3-16h40.8z"/><path fill="#EFEFEF" fill-rule="evenodd" d="M532.9 333.2h13.8v3.7h-13.8z"/><path fill="#EFEFEF" d="M535.5 332.9a2.6 2.6 0 1 1-5.1 0 2.5 2.5 0 0 1 5 0"/><path fill="#EFEFEF" d="M535.5 336.8a2.6 2.6 0 1 1-5.1 0 2.5 2.5 0 0 1 5 0m13.7-3.9a2.5 2.5 0 1 1-5 0 2.5 2.5 0 0 1 5 0"/><path fill="#EFEFEF" d="M549.1 336.8a2.5 2.5 0 1 1-5 0 2.5 2.5 0 0 1 5 0"/><path fill="#EFEFEF" fill-rule="evenodd" d="M690.8 182.2H644l3-16h40.8z"/><path fill="#EFEFEF" fill-rule="evenodd" d="M660.5 172.4h13.8v3.8h-13.8z"/><path fill="#EFEFEF" fill-rule="evenodd" d="M658 172.2a2.5 2.5 0 1 1 5 0 2.5 2.5 0 0 1-5 0"/><path fill="#EFEFEF" fill-rule="evenodd" d="M658 176.2a2.5 2.5 0 1 1 5 0 2.5 2.5 0 0 1-5 0"/><path fill="#EFEFEF" d="M676.8 172.2a2.5 2.5 0 1 1-5 0 2.5 2.5 0 0 1 5 0"/><path fill="#EFEFEF" d="M676.8 176.2a2.5 2.5 0 1 1-5 0 2.5 2.5 0 0 1 5 0"/><path fill="#333" d="M549.5 100c-.3-1.7-3.3-7.8-6-10.2a52 52 0 0 0-12.8-7.3c-1 .1 5 8.2 4.1 13.7-.3 2.5 14.7 3.8 14.7 3.8m55.9 31.5c5.7-1 17.4-5.1 17.5-17 0 0 6.9 19.8-8 26z"/><path fill="#1E1E1E" d="M573.9 155.4c2 3.6-3.1 17-3.4 18.5-.2 1.4 5 5.5 4 7.3s-6 2.6-8.1 1.7c-2.2-.9-5.7-6.5-6-8.6q-.5-2.8 0-5.8c.1-.6-7.4-11.8-7.2-14.2.3-2.5 18.1-3.3 20.7 1.1m38.4 2.6a55 55 0 0 1-4.3 15.4 34 34 0 0 1-11.5 9c-1.7.4-6.2 1.7-7 .6-.7-1 .3-3.8 1-4.2l3.6-2.4a27 27 0 0 0 2.8-6.9c-.1-.7-6.8-8.3-5.3-12 1.4-3.8 20.7.5 20.7.5"/><path fill="#2B2B2B" d="M523.5 122.2c3.8 2.1 13.8 4.6 14 5.2 0 .6 3.7 25.3 9.7 30.2s20.2 9.6 27.3 10.8 18.5-2.2 21.7-2.4q4 0 8.1.6s4 5.8 4.6 7.4c.8 1.7 6.7 7.2 7 9 .2 1.9-2 2.9-3 4-.8 1.3.8 2.6 2 3 1.2.6 6.2-1 7.3-2.2s.8-17 0-21c-.7-4.1-5.4-29.5-9.3-32.8s-15-2.5-22.8-4.3a63 63 0 0 1-24.6-14.7c-2.5-3.7-2.5-12.5-3.7-14.9s-10.5-8.9-15.2-9l-1.7.1q-6.2 1.8-11.3 6c-1.7 1.6-3.5 7.6-6.7 9.8q-.9.6-1.9.8c-4.4.6-6.9-1.4-7.9-.6s2.6 12.8 6.4 15"/><path fill="#333" d="M572.1 162c-.7 4.2-11.8 14-15.3 16.2-3.6 2-8.7 6.5-10.1 7.5s-10.4 0-11.5-1.7 1-4.5 2.2-5.1c1.1-.6 3.8-1.2 5-2.1s5-7.5 4.8-8.6c-.2-1.2-3.5-11-3.7-16.2s29.3 5.8 28.6 10m-9.8-60.4c.1-2.1-1.3-9.9-3.6-13.5a57 57 0 0 0-15.9-11c-1.2-.1 6.7 9.7 4 15.7-1.2 2.6 15.5 8.8 15.5 8.8"/><path fill="#1E1E1E" d="M526.9 107c3 7.3 11.4 13 18.9 9.2 5-2.4 6.9-9.7 6.5-15-.5-4.4-3.3-8.2-7.4-10q-6.2 1.8-11.3 6c-1.7 1.6-3.5 7.6-6.7 9.8"/><path fill="#8E8E8E" d="M537.8 106.4c2.8.3 2.1 5.6-.5 5.4-2.7-.3-2-5.6.5-5.4"/><path fill="#343434" d="M519.9 112.3c-1.2.1-4.5-4-4.2-5.6.3-1.7 9.1-.3 9.7 1s-4.2 4.5-5.5 4.6"/><path fill="#EFEFEF" d="M537.3 127.2c1.8-.3 9.6-.6 15-2.5 5.6-2 12.4-9.6 12.9-10.2s2.7 2 3 2.5c.2.7-7.6 9.9-14.6 11.7-7.1 1.9-16 2.5-16.4 2.1s-.7-3.5.1-3.6"/><path fill="#686868" d="M569.6 128.9c3.4-2.7 15.4-.1 19 4.8s-5.7 14-13 13.2c-7.4-.9-10.9-14.2-6-18m25.2 8c-1.8 1.6-1.4 6.9 2 8.3a5.6 5.6 0 0 0 7.8-4.1c.6-3.8-5.8-7.8-9.8-4.2m-23.7-12.5c0-1.3-2.3-2.8-3.9-2a2.8 2.8 0 0 0-.9 4.5c1.3 1.4 5 .2 4.8-2.5"/><path fill="#A6A6A6" fill-rule="evenodd" d="M509.1 182.2h186v10.2h-186z"/><path fill="#DBDBDB" fill-rule="evenodd" d="M502.7 192.4h200.6v15.8H502.7zm0-145h200.6v15.7H502.7z"/><path fill="#DBDBDB" fill-rule="evenodd" d="M502.7 63.1h8.2v129.4h-8.2zm25.4 0h3.7v129.4h-3.7zm21 0h3.5v129.4h-3.5zm20.8 0h3.6v129.4h-3.6zm20.9 0h3.6v129.4h-3.6zm20.9 0h3.5v129.4h-3.5zm20.9 0h3.5v129.4h-3.6zm20.8 0h3.6v129.4h-3.6zm20.9 0h3.6v129.4h-3.6zm20.8 0h8.2v129.4h-8.1z"/><path fill="#E6B7B2" d="M458 435.2c2 .7 61.7-.6 63.9-2.1.8-.5-4.3-57.1-4.3-57.1l-37.9.7 4.4 37.9S462 425 459.8 426.9c-2.3 1.8-4 7.7-1.9 8.3"/><path fill="#AA947C" d="M458 435.2c2 .7 61.7-.6 63.9-2.1.2-.2.3-6-.6-13.4-10.9 1.8-49.5 7.8-52.5 6-2.1-1.2-.3-3.1 1.5-4.4-5 2.4-9.6 4.8-10.5 5.6-2.3 1.8-4 7.7-1.9 8.3"/><path fill="#131313" d="m483 405.4 37.1-.4s-7.3-89.1-7-90.8c.4-2.2 26.8-105.6 26.8-105.6h-35.5s-28 96.4-29 105.7c-1.6 15 7.6 91.1 7.6 91.1"/><path fill="#1D1D1D" d="m516.8 396.6-6.6-.2h-6.6l-13.3.3h-3.6q-1.8.3-3.8.4-.2.1 0 .2l3.2.2h10l13.2-.3 7.5-.4a.1.1 0 0 0 0-.2M532 216.9q-4.6 17-8.9 34l-12.7 51c-1.4 5.4-3 11-3.3 16.7s.4 11.7.9 17.4l1.5 17.5 3.2 34.8.5 4.3q.1.3.2 0a2537 2537 0 0 0-4-52.2l-1.3-17.5q0-8.7 2.3-17.1l4.2-16.7 8.5-34a1351 1351 0 0 0 9-38.2"/><path fill="#1D1D1D" d="m539.9 208.6-19.3 75.6-15-75.6z"/><path fill="#E6B7B2" d="M502.5 435.4c2 .6 61.8-.7 64-2.2.9-.5-2.3-57.1-2.3-57.1l-37.3.7 1.8 37.9s-22 10.4-24.3 12.3c-2.3 1.8-4 7.7-1.9 8.4"/><path fill="#AA947C" d="M502.5 435.4c2 .6 61.8-.7 64-2.2.2-.1.2-5.7 0-13.4-10.9 1.9-50.1 7.8-53.1 6-2.1-1.2-.3-3.1 1.5-4.4-5 2.4-9.6 4.8-10.5 5.6-2.3 1.8-4 7.7-1.9 8.4"/><path fill="#131313" d="M505.5 208.5a154 154 0 0 0 6.2 33.7q5.3 2 10.3 5s2.5 65 2.5 69c-.2 15 3.7 88.5 3.7 88.5l37.5-.3s-4-83-4-88.6c0-8.9-7.8-107.2-7.8-107.2z"/><path fill="#1D1D1D" d="m513.7 231.4-.4-2.9-1-5.1-2.3-11.7.6 4.7.6 4.6q.5 4.7 1.4 9.2c.2 1.2 1 3.3-.8 3.7-1.3.3-2.3-1-2.7-2.1l-1-4.3-.7-4.6-1.7-10.2a104 104 0 0 0 1.5 15.3q.3 2.4 1.2 4.7.7 1.8 2.8 2.2a13 13 0 0 0 .3 3.4l.4 1.6.3.7.5.7h.2v-.8l-.2-.8-.4-1.5-.4-1.6-.4-1.6q1.7 0 2.3-1.5.3-1.1 0-2.2m11.2 17.3q-1.7-1.3-3.5-2.4l-4-2-8.3-3-.1.2q4 1.7 8 3.8l3.8 1.8 4 1.8a.1.1 0 0 0 0-.2m21.3-23.7q-3 0-5.7-.7l-2.5-.8q-1.2-.3-2.3-1.1-1.8-2-2.4-4.4l-1.7-5.4q0 3 .8 6a9 9 0 0 0 2.4 4.8 10 10 0 0 0 5.2 1.9 24 24 0 0 0 6.2-.2m12.3 133.7-2-35.5-4.2-70.8-3-39.8q1.6 35.6 3.8 71l4.3 70.8 2.7 39.9h.1zm5.5 38.4-6.6-.1h-6.6q-6.7 0-13.3.2l-3.6.1-3.8.4q-.1 0 0 .1l3.2.2h10q6.6 0 13.2-.3 3.8 0 7.5-.4a.1.1 0 0 0 0-.2m-66.2-221 6.1.4a19 19 0 0 0 2.4-11.3c0-.9 1.9 4.3.8 11.5 6.5.4 15.3 1 23.1 1.3l.6-5.8q.3 3 1 6h3.2q.3-6.3 1.2-12.8.6 6.9 3.3 13c5 .3 8.2.3 8 0-7.1-8.7-1.5-13.5-3.3-21-2.2-9.1-10-10.9-9.4-17.6.3-5.5 1.4-15.5-5.5-17.9a13 13 0 0 0-14.4-3.3c-11.2 3.8-7.4 21-8.3 24.4-1.3 4.9-3.7 6.5-5.6 12-2 5.6.4 9.6.6 13.4s-5 7.7-3.7 7.7"/><path fill="#1D1D1D" d="M547.6 177.3q-1.5-2.4-2.2-5a10 10 0 0 1 .2-5.1q.7-2.7 1.1-5.4.5-3-.3-5.7-.8-2.9-2.8-5a33 33 0 0 0-4-3.8q-2.2-1.5-3.9-3.7a10 10 0 0 1-1.8-5q-.2 2.8 1.3 5.3 1.5 2.4 3.6 4.3 2 1.7 3.8 3.8a12 12 0 0 1 2.7 9.6l-.9 5.4-.2 2.7q0 1.5.5 2.9 1 2.6 3 4.7m-39.4-52.6q-1.3 3.1-1.8 6.5l-.8 6.7-.4 3.3-.6 3.2q-1 3-3.2 5.5l-2 3a16 16 0 0 0-1.9 6.6v3.5l.7 3.3q.4 1.5.4 3.2 0 3.5-2.9 5.6a7 7 0 0 0 3.6-5.5q.1-1.8-.1-3.5l-.5-3.3a18 18 0 0 1 2-9.3l1.8-2.7 2-2.8a14 14 0 0 0 2-6.7l.2-3.3.4-6.7a32 32 0 0 1 1-6.6"/><path fill="#E6B7B2" d="M523 162.5c-1.5 6.7-20.1 67.3-24 68.2-11.2 2.6-24.7 4.7-24.6-4.6.1-14.5 25.6-50.1 39-65 8.1-8.9 11.2-5.2 9.7 1.4"/><path fill="#E2AA39" d="m516 188.1-17.2-10.6s9.6-12.5 16.2-19.1c6.6-6.3 11.2-6 8 7q-2.9 11.6-7 22.6"/><path fill="#1D1D1D" d="m516.6 182.7-7-4.3-3.6-2-3.8-1.9q-.1 0 0 .1l3.4 2.2 3.6 2z"/><path fill="#E2AA39" d="m497.4 228.6 3.4-11.6 2.3-17s-5.4-9.6-2.3-16.4c1.6-3.5 15.6-25 21.5-29.2 5.5-4 13.5.3 16.5 3.4 11.5 12.1 14.3 42.2 18.5 74.9z"/><path fill="#1D1D1D" d="M499.9 185.6q.6-2.2 1.9-4l1.6-2.6.7-1.6 1.3-2.4-1 2.4 3.2-4.6c-1.2 1.6-5 8.4-6 10.2q-1.4 2.6-1.4 5.6t.8 6q0 .2-.2 0a16 16 0 0 1-1-9"/><path fill="#E6B7B2" d="M535.4 163.4c3.7 5.5 21.7 27.6 22.3 29.6s-4.7 6.8-4.7 7.7c.2 3.4 6.7 26.7 9.8 24.5 4-2.9 23.2-23.7 21.3-33.3-2-9.7-40-34.2-46-36.5s-6.3 2.6-2.7 8"/><path fill="#E2AA39" d="m550.2 184.7 12-15.5s-12.2-8.9-20.7-12.8-12.6-2.1-5.3 9.2q6.5 10 14 19"/><path fill="#1D1D1D" d="M559 168a157 157 0 0 0-8.2 9.3l-2.6 3.3.1.1 2.8-3 2.7-3.2zm-8.8 16.7q-2.5-3.4-5.4-6.8l-5.3-6.9q1.1 2 2.4 3.7l1.1 1.7-.6-.5-2-1.6h-.1q.9 1 1.9 1.8l1.5 1.2.7 1a47 47 0 0 0 5.7 6.4"/><path fill="#E6B7B2" d="M547.8 232.9c-2.3-2.3 1.7-3.7 1.7-3.7s-6.2.6-7.7-2.6 3.5-4.7 3.8-4.8c-.3 0-6 .5-7.2-3-1.1-3.4 4-4.2 4.3-4.2-.3-.1-4.5-1-4.8-3.9-.5-4.8 11.9-3 15-5.4l-.1-6.4a7 7 0 0 0 3 3.6c2.4 1.3 4.7 2.1 5.5 3.6.9 1.3.7 3-.3 4.2 0 0 3.4.2 4.4 2.9.5 1.4-1.3 3.4-1.3 3.4q2.6.4 3.5 2.7c.6 2-1.3 3.6-1.3 3.6s2.5 1.5 2.5 3.7c0 4.4-16 11-21 6.3"/><path fill="#1D1D1D" d="M566 223.3a30 30 0 0 1-16.8 5.9q-.4-.1 0-.4 8.8-1.4 16.8-5.4m-1.8-6.8a28 28 0 0 1-18.8 5.4q-.4-.1-.1-.3a51 51 0 0 0 18.8-5.1m-21.8-2.2a39 39 0 0 0 18.6-3.8c-2.6 2-6.6 3.3-9.7 4q-4.5 1.2-9 0z"/><path fill="#1D1D1D" d="M566.5 223q2-1.5 1.7-4-.2-1.1-1.2-1.8-1.1-.7-2.4-.7a4 4 0 0 0 .9-4.5 3 3 0 0 0-1.8-1.4q-1.2-.3-2.6-.4 1.4-1.1 1.3-3a4 4 0 0 0-1.9-3q-1.8-1-4-1.7l-2-1a4 4 0 0 1-1.4-2q-.1 0 0 .2.2.8.8 1.4.5.8 1.2 1.2 1.8 1.1 3.8 1.9 1.6.8 2.6 2.5.7 1.9-.6 3.5l.1.1 2.3.7q.8.5 1.4 1.3.9 2.2-.5 4.3 1.2.4 2.3 1l1 1.6q.5 2.2-1.2 3.7l.9.5z"/><path fill="#E6B7B2" d="M532.4 153.5c-.2 1-7.1 7-11.4 6.8-1.5 0 1-7.6 1-7.6l-.2-.6-1.8-8 9.4-6 1.3-.8.8 5.4.1.5.2 1.2.1 1 .1 1q.4 3.6.4 7.1"/><path fill="#1D1D1D" d="M531.5 142.4a16 16 0 0 1-9.7 9.7l-1.8-8 9.4-6 1.3-.8z"/><path fill="#E6B7B2" d="M507.8 133.8c-.3 14.3 8.3 16 11.4 16 2.8.2 12.3 0 14-14.2 1.8-14.2-4.7-18.9-11-19.3-6.5-.5-14.2 3.1-14.4 17.5"/><path fill="#1D1D1D" d="M533 134.6c-3.4.2-3.8-5.1-3.8-5.1s-3.8-.1-4.5-6.3a9 9 0 0 1-6.8 5c-1.1.2 2.4-3 2.4-3s-4.2 4.4-12.5 3.4c-.6 0 0-8.8 6.3-12.2a14 14 0 0 1 16.5 1.7q3.7 1.7 4.6 5.8c.9 4.5-.9 10.6-2.2 10.7"/><path fill="#E6B7B2" d="M530.8 135.6s2.8-4.6 5-3.6c2 1 .1 7.5-2.2 8.6a2.4 2.4 0 0 1-3.3-1z"/><path fill="#1D1D1D" d="M535.2 133.8a6 6 0 0 0-3 4 1.3 1.3 0 0 1 2-.5q-1 0-1.5.7l-.7 1.4h-.3c-.3-2.2 1.2-5.3 3.5-5.7m-24.6-2.6 1-.3q.5 0 .9-.4v-.6q-.7-.4-1.3-.3-.8.2-1.1.8a.6.6 0 0 0 .5.8m9.2-.5-1-.2q-.6 0-1-.3v-.6q.5-.6 1.2-.4.8 0 1.2.6a.6.6 0 0 1-.4.9m-1.8 3.7c0 1 .1 2.2 1 2.5-1-.1-1.2-1.6-1-2.5"/><path fill="#1D1D1D" d="M518.8 133.4c1.5-.2 1.7 3 .3 3-1.5.2-1.6-3-.3-3"/><path fill="#1D1D1D" d="m519.4 133.4.9.6q.4-.1.9-.7.1 1-.8 1.4-.9 0-1.2-1 0-.2.2-.2m-6.8 1.2c0 1 0 2.2-.9 2.5 1.1-.1 1.2-1.6 1-2.5"/><path fill="#1D1D1D" d="M511.7 133.7c-1.6 0-1.5 3.2 0 3.2s1.3-3.2 0-3.2"/><path fill="#1D1D1D" d="M511 133.9q-.3.4-.7.6-.4 0-.9-.7 0 1 .8 1.4 1-.1 1-1zm7.4 8.4q-.2.4-.8.6l-1-.1q.5.5 1.2.4.6-.4.7-1zm-4.3-3.4v2.2h.3q2 .3 3.1-1.3v-.1q-1.5 1-3 1l.2-2.5q-.7 0-1.5.4c.1-3 .8-6 1-9h-.2q-1.2 4.7-1.5 9.7c0 .4 1.4-.2 1.6-.4"/><path fill="#1D1D1D" d="M514.9 140.8q.5.7 1.4 1 .5.3 1 .1.9-.4.6-1.4l-.4-.8q-1 1-2.6 1"/><path fill="#FF9CBD" d="M516.3 141.9h1q.9-.4.6-1.4-1.3.1-1.6 1.4"/><path fill="#E2AA39" d="M509.4 119.7c1.6-.2 10.7.9 14.7 3 3.9 2.1 10.6 8.7 11 9 .3.4 3.6-14.4-8.3-18.3-13-4.2-17.4 6.3-17.4 6.3"/><path fill="#E2AA39" d="M534.4 131.1s-7-11.3-11.3-14.2a28 28 0 0 0-20.6-3c-5 1.7 6.2 9 6.2 9q.5-1.6 2.1-2.2c3.1-.9 8.8.6 12 2 4 1.8 11.6 8.4 11.6 8.4"/><path fill-opacity=".2" d="M534.4 131.1s-7-11.3-11.3-14.2a28 28 0 0 0-20.6-3c-5 1.7 6.2 9 6.2 9q.5-1.6 2.1-2.2c3.1-.9 8.8.6 12 2 4 1.8 11.6 8.4 11.6 8.4"/><path fill="#E2AA39" d="m522 152.7 1.9 6.5 8.6-7.2 2 2.7s-8.9 12-8.9 11.4l-2-5.7-4.2 3.5 1.2-9.5z"/><path fill="#1D1D1D" d="m519.7 159.1.8-4.6h.1c.2 1.5-.8 7.5-1 8.9l3.9-3c.4 1 2 5 2 5.5l8.5-10.5c-1.3 2-8.3 11.3-8.4 11.3q-1.3-3-2.2-6l-4.3 3.6z"/><path fill="#4A4A4A" fill-rule="evenodd" d="m474.2 189.4 35-11.4 14.8 45.6-35 11.3z"/><path fill="#1D1D1D" fill-rule="evenodd" d="m500.7 183.7-16.6 5.4-1.6-5 16.5-5.4z"/><path fill="#1D1D1D" fill-rule="evenodd" d="m486.2 182.9 2-.7-.7-2.3 5-1.6.7 2.3 2-.7-1.3-4.2-9 3z"/><path fill="#E6B7B2" d="M516.2 195.4a4 4 0 0 1 .8 4.2q2 .5 3.3 2c1.4 1.9-1 4.9-1 4.9a7 7 0 0 1 3.2 2.6c1.1 2-.8 5.3-.8 5.3a6 6 0 0 1 1.3 4c-.3 3.9-5.6 6.6-9 8.4-3.3 1.8-14.5 3.7-16.6 4.2l-11.6-21.5s12.8-12.2 17-13.8c3.6-1.2 11.3-2.4 13.4-.4"/><path fill="#E6B7B2" d="M487.3 208.1c-3.9 3-15.3 14.7-12.5 20.5s12.1 5 25 2z"/><path fill="#1D1D1D" d="M516.6 199.4c-4 .4-7.9 2-11.7 3.5v.1c3.8-1.4 8-2.1 11.8-3.5zm2.5 6.8q-1.3.3-2.7 1a96 96 0 0 0-8.1 4 158 158 0 0 1 10.9-4.8zm2.6 8.2q-1.4.3-2.4 1l-2.5 1.2-5 2.3v.1l5.2-2.2 2.5-1.1q1.2-.4 2.2-1.2zm-34.9-6-3.8 3.1-1 1-.3.3a20 20 0 0 0-4.3 4l3-2.6.4-.2-1.4 1.7-3.2 5c1.8-3 10-11.2 10.9-12.2.8-1 .4-.8-.3-.3"/><path fill="#EBEBEB" d="m155 384.6-16.5 34.2-6-1.7-.5-.3s-18.6 16.1-21.2 17.4c-2.6 1.4-8.7.5-8.5-1.6a632 632 0 0 1 27.1-56.8c.9-.6 8.8 2.6 18.4 6.7h.2c.5.3 3.2 1 7 2.1"/><path fill="#5674C9" d="M102.1 432.8c.2-2.2 25-56 27.2-57.4.9-.5 9 2.6 18.5 6.7l-15.7 34.7s-18.7 16.4-21.3 17.7-8.8.5-8.6-1.7"/><path fill="#212121" d="M104.6 433a1398 1398 0 0 0 24.8-54.4 1574 1574 0 0 0-24.9 54.4m9.6-1q1.5-3.2.4-6.5a8 8 0 0 0-4-4.2 9 9 0 0 1 3.6 10.7m15.4-12c1.7-3.7 2.3-8.4.4-12q-.1-.2-.3 0a55 55 0 0 1-.5 12zm-2.4 2.2c1.7-3.6 2.4-8.4.4-12l-.2.1a55 55 0 0 1-.5 12zm-2.4 2.3c1.7-3.6 2.4-8.4.5-12h-.3a55 55 0 0 1-.5 12.1zm-2.3 2.2a14 14 0 0 0 .4-12l-.3.1a55 55 0 0 1-.5 12h.4m14.5-42c1.8-4-4.4-6.9-6.3-2.8-1.9 4 4.4 7 6.3 2.8"/><path fill="#212121" fill-rule="evenodd" d="M137.3 428.2c2.4-1.1 2-4.1.9-6a21 21 0 0 0-7.8-7.5q-.7 0-.7.6c.6 3.4.8 7 2.4 10.1 1 1.9 3 3.9 5.2 2.8m-5.6-8-1-5a62 62 0 0 1 6.3 7c.8 1.3 2.2 6.3-1.9 4.8-2.3-.8-3-4.8-3.4-6.7z"/><path fill="#212121" fill-rule="evenodd" d="M133.2 405.1c-1.9 3-2.5 6.6-3.4 10q0 .5.5.5h.2q5-2.2 8.4-6.6c1.2-1.7 2-4.7-.3-6-2.2-1.4-4.2.4-5.4 2.1m3-1.2c4.3-1 2.4 3.8 1.4 5l-2 2.2-4.9 4 1.5-4.8c.6-2 1.8-5.8 4.1-6.4"/><path fill="#212121" d="M233.7 279.6s-.7 20.9-3.8 31.1l-4.5 2.5s26 62 24.5 85.8c-.5 7.8-9.4 20.7-18.3 26.3-15.9 9.8-93.1 1.2-93.1 1.2l11.2-46.5s48.8 2.7 50 0c1.6-3.3-8-29.3-15.9-50.5-.8-2.2-8.6-10-7.7-24.4a74 74 0 0 1 6.8-25.5z"/><path fill="#0A0A0A" d="M158.6 385.2c10.6-.2 19.3.7 30 .7h12q1.5 0 2.9-.3t2.1-1.2c.7-1 .3-2.4 0-3.6q-.7-3.8-1.7-7.4c-2.7-10.1-6.2-20-9.5-29.8l-5.1-15.3a44 44 0 0 0-3-6.9q-1.8-3-3-6.3c-2.8-9.4 0-19.2 3.3-28.2l1.6-3.6c-3 9.5-6.8 19.3-4.7 29.4q.7 3.5 2.5 6.8l1.8 3.2q.8 1.5 1.5 3.4 2.7 7.5 5 15.1c3.4 10 7 20 9.8 30.3l1.9 7.6c.4 2 1.4 4.5-.3 6q-2 1.6-4.7 1.4h-8a1135 1135 0 0 1-34.5-1.2zm-11.9 39.1q1.4-8.2 3.2-16.3l4-16.1 1.1-4.6.6-2.1.7-2.2h.1q-.2 2.1-.7 4.2l-.8 4a637 637 0 0 1-5.6 24l-2.4 9.1q-.2.3-.2 0"/><path fill="#0A0A0A" d="m241 355.6-54.9-19.9-2.3-6.2c-.8-2.2-8.6-10-7.7-24.4a74 74 0 0 1 6.8-25.5h50.8s-.7 20.9-3.8 31.1l-4.5 2.5s8.6 20.4 15.6 42.4"/><path fill="#EBEBEB" d="M324.4 435a604 604 0 0 1-62.9-2.8 78 78 0 0 1-1-19.4v-.3l1-8 38.4 1.6-1.5 7.2v.6s22 10.8 24.3 12.7c2.2 1.9 3.8 7.8 1.7 8.5"/><path fill="#5674C9" d="M324.8 435.3c-2 .6-61.2-1.3-63.4-2.8a80 80 0 0 1-1-19.7l38.1 1.2s22.3 10.9 24.6 12.8c2.2 1.9 3.8 7.9 1.7 8.5"/><path fill="#212121" d="M324.1 433c-10-.7-50-2-59.8-1.8a1582 1582 0 0 0 59.8 1.8m-4.8-8.5a8 8 0 0 0-6 2.2 8 8 0 0 0-2.4 5.3h.1a9 9 0 0 1 8.4-7.4m-17.1-9.6c-4-.1-8.6 1.2-11.2 4.3q0 .3.2.2a55 55 0 0 1 11.2-4.2q0-.2-.2-.2m3 1.3c-4-.2-8.6 1-11.2 4.2q0 .3.2.2a55 55 0 0 1 11.3-4v-.3zm3.1 1.3c-4-.2-8.7 1-11.2 4.2q-.1.3.2.2a55 55 0 0 1 11.2-4.2zm3 1.3c-4-.2-8.6 1-11.2 4.2q-.1.3.2.2a55 55 0 0 1 11.2-4.2zm-44.3 2.8c-4.4-.1-4.6 6.8-.2 7 4.5 0 4.7-6.9.2-7"/><path fill="#212121" fill-rule="evenodd" d="M307 404.6c-2-1.7-4.6-.1-5.9 1.5a21 21 0 0 0-3.9 10.1h.1a.5.5 0 0 0 .7.4c3-1.9 6.2-3.5 8.5-6.2 1.2-1.5 2.3-4.1.5-5.8m-5.2 8.3-4.2 2.8a61 61 0 0 1 4-8.4c.9-1.3 4.9-4.5 5.1-.1.2 2.4-3.2 4.6-4.9 5.7"/><path fill="#212121" fill-rule="evenodd" d="M287.3 417.3c3.4.7 7-.2 10.4-.6a.5.5 0 0 0 .3-.7v-.2a21 21 0 0 0-9.4-5.2c-2-.5-5 0-5.5 2.6s2.1 3.7 4.2 4.1M285 415c-2.6-3.5 2.5-3.6 4-3.2l3 1q2.7 1.3 5.5 2.9l-5 .5c-2.1.2-6.1.7-7.5-1.2"/><path fill="#212121" d="M305 410.4h-49.2s8.2-62.4 5.4-66.5c-1.1-1.8-60.7 4.2-78.1-14.7-16-17.2.3-49.6.3-49.6h48.7s1 13.9 3.7 19.4c1.1 2.4 61.4 1.5 70 17.1 11.4 20.9-1 94.3-1 94.3"/><path fill="#0A0A0A" d="m260.6 401.7 16.6-.4 16.7.2 4.7.2h2.2l2.3.3q-2.2.4-4.3.3h-4a566 566 0 0 1-24.7 0l-9.4-.3q-.3-.2 0-.3m-30.5-107.1-1.4-14.6q.2-.5.4 0l.9 7.8 1 7.8c.1.7.4 2 1.4 2 1.4 0 1.6-1.7 1.7-2.7q.4-3.7.1-7.3-.1-4.1-.7-8.3h.1c1.2 5.4 2.3 11 1.3 16.5a3 3 0 0 1-1.8 2.6v1.7a.2.2 0 0 1-.4 0l-.2-.1v-1.6a2 2 0 0 1-1.6-.9 7 7 0 0 1-.8-3"/><path fill="#0A0A0A" d="M235.1 298.6a78 78 0 0 0-10.5 8.6q-.1.2.2.2 5.3-4 10.7-8.4a.3.3 0 1 0-.4-.4m-40.1 2.6a21 21 0 0 0 5.9-1c1.7-.4 3.7-1 5-2.4a18 18 0 0 0 2.8-4.8q1.3-2.9 1.7-5.9h.1a30 30 0 0 1-1 6.2 20 20 0 0 1-2.8 5.5 10 10 0 0 1-5.5 2.6q-3.1.6-6.2 0-.4-.1 0-.2"/><path fill="#0A0A0A" d="M266.2 341q-.4-1.8-2.2-2.2h-13.2c-12 0-24.2-.3-36-2.7a84 84 0 0 1-16.8-5 27 27 0 0 1-12-9c-3.4-4.9-3.6-11.2-3.5-17a65 65 0 0 1 4.4-22.5 63 63 0 0 0-5.2 26.4q0 4.4 1.2 8.7c3.1 10.6 15 15 24.7 17.7 11.6 3.3 23.7 4.2 35.7 4.3h18.2c1.1 0 3-.4 3.7.8q.5 1.1.5 2.2.3 1.3.3 2.6.3 4.8-.1 9.6-.5 9.8-1.4 19.6l-1.7 19.6-.4 4.8q.2.3.3 0 2.5-19.5 3.7-39l.6-9.6q.2-4.8-.8-9.4"/><path fill="#0A0A0A" d="M236.8 343.3q-6 0-12.2-.8-5.7-.7-11.4-1.7a95 95 0 0 1-19.5-4.9 34 34 0 0 1-9.5-5.3 38 38 0 0 0 17 9 138 138 0 0 0 35.6 4.2c.3 0 .3-.5 0-.5"/><path fill="#DEB4AF" d="M235.1 235.6c2.7 14.5 9 36.4 17.2 45.3 6.6 7.2 31.9 15.6 44.8 16.5 4.6.3 3.1-18.1.1-22.1-1.8-2.4-29.3-7.6-32.3-10.7-4.7-4.6-12.5-20.4-20.5-32.3-4.2-6.3-11.7-9.6-9.3 3.3"/><path fill="#DEB4AF" d="M288.8 272.7s6.6-2.2 9.7-2.5c3.2-.3 15.2 2.8 14.7 5.4-.7 3.4-8 3-11.5 2.4 0 0-1.6 7.8-6.9 8.7s-6-14-6-14"/><path fill="#DEB4AF" d="M292.8 296.6a115 115 0 0 0 18.3 2c3.4-.3 13.4-2 13.5-4.6 0-2.7-3-2.5-3-2.5s4.2-1.3 4-4-4.8-2.2-4.8-2.2 4-1.7 3.7-4.4c-.4-2.7-5-1.4-5-1.4s3.9-1.4 2.6-3.5c-1.5-2.5-8.3.8-12.2.9l-17.8-1.1z"/><path fill="#212121" d="M320 279.4c-5 2.4-7.6 2.6-13 2q-.2 0 0 .1c5.2 1.1 8.5 1.4 13.2-1.9q0-.2-.2-.2m1.1 5.6c-5.4 2.1-8.2 2.4-14 2.1v.2c5.7.7 9 .8 14.1-2q.3-.2 0-.2m.2 6.4a26 26 0 0 1-14.1 1.2c4.7 1.6 9.8 1.2 14.1-1q.5-.3 0-.2m-8.7-15c-2.9 2.7-7.5 1.5-11 1.1q-.4 0-.4.4c-.8 3.2-3 7.6-6.4 8.8v.2c3.8-.9 6.3-5 7-8.6 3.6.5 8.3 1.5 10.8-1.9"/><path fill="#3A3A3A" d="m283.7 269.7-4.2 29.8s-23.4-12.7-28.8-17.5-14.7-34.4-17-47c-2-11.2 5.7-12.2 13-.5a262 262 0 0 0 19.4 29c1.6.8 17.6 6.3 17.6 6.3"/><path fill="#212121" d="M279.1 269.2q-1.3 6.5-2 13.1a175 175 0 0 0-1.2 13q1.2-6.5 2-13 1-6.6 1.6-13a.2.2 0 1 0-.3 0m-17 20.4c-5-3-9.5-6-11.5-7.8-5.3-4.8-14.7-34.4-17-47-1-5.5.4-8.6 3-8.8z"/><path fill="#FFF" d="M240.7 301.4c-1.1.8-62.4-9.5-62.6-9.9-.6-1.2 26.8-57.1 41.7-66.1 7.7-4.6 16.9-.7 19 3.4q3.3 7.5 4.4 15.5c1.7 14.3-1.5 56.3-2.5 57"/><path fill="#3A3A3A" d="M223.1 224.1s1.8 12.7 3 27.9c1.2 14-4.5 51.4-4.5 51.4l-47-7.8s12.6-25 13.3-26.8 21.9-42.3 35.2-44.8m14.7 2.9s4 16.7 3.4 27c-.3 5.4-3.7 49.2-3.7 49.2l3.7-1.9s3.2-35.6 3-52.3c0-9.1-3.7-19-6.4-22"/><path fill="#DEB4AF" d="M232.8 237c-3.4 0-7.5-6.4-8.5-11q1-3.3 2.5-6.4 1.3-3.1 2.2-6.5l12.6 7.2a36 36 0 0 0-3.8 9c-.3 1.7-1.8 8-5 7.8"/><path fill="#212121" d="M241.6 220.3a35 35 0 0 0-3.8 8.9q-.8 0-1.4-.3c-7.8-2.4-7.3-12.8-7-15.6z"/><path fill="#DEB4AF" d="M233.3 195.6c-3 4.2-5.6 18.6-3.3 22.8 3.2 6.1 11 9.4 16.8 5 5.6-4.3 8.5-23.1 5.8-27.2-4-6-14.6-6.7-19.3-.6"/><path fill="#212121" d="M253.1 202.1c-5.4 2.3-11-4-11-4a5 5 0 0 1-6 2.3s-2.5 7.9-4.6 7.5c-3.2-.7-2-12-.6-13.9s4.3-2 4.3-2a5 5 0 0 1 2.9-2.7c2.5-1.3 9.7 2.5 9.7 2.5q1-1.5 2.5-2.2a2 2 0 0 1 2.8.8 5 5 0 0 0-1.1 1.8c-.9 2.3 1 2.7 1.4.6q.3-1.3-.3-2.4c1.3-1.2 3-1.4 3.7-.4 1.5 1.7.8 10.2-3.7 12.1m-9.3 6.9c-.1 1-.4 2.1-1.3 2.3 1 0 1.4-1.4 1.4-2.3"/><path fill="#212121" d="M243.1 207.8c-1.6-.3-2.2 2.8-.7 3.1 1.4.3 2-2.8.7-3m6.3 2.1c-.1 1-.2 2.1.6 2.6-1-.3-1-1.8-.6-2.7"/><path fill="#212121" d="M250.5 209.2c1.5.2 1 3.3-.4 3.1s-1-3.2.4-3.1m-8.2-3.2h1.3q.7 0 1.3-.4.3-.3 0-.8-.5-.7-1.5-.6t-1.6.6a.7.7 0 0 0 .5 1.2m9.9 2.4-1.1-.6a2 2 0 0 1-1-.9q-.2-.4.1-.7 1-.6 1.7 0 .9.3 1.3 1.2a.7.7 0 0 1-1 1m-11.1 8.9q.2.6.6.8l1 .2q-.6.3-1.3 0a1 1 0 0 1-.4-1.1z"/><path fill="#212121" d="M242.9 214.7q.5 1.4 1.9 2l1.2.2h.4q.2 0 .3-.2l.3-2c.2.2 1.5 1 1.5.7a50 50 0 0 0 .5-10.2c-.6 3.1-.5 6.3-1 9.4l-1.5-.8-.3 2.6a5 5 0 0 1-3.2-1.7z"/><path fill="#212121" d="M245.3 216.3q-.7.6-1.6.7l-1-.1q-.8-.7-.2-1.5.1-.4.5-.7.9 1.1 2.3 1.6"/><path fill="#FF9CBD" d="m243.7 217-1-.1q-.8-.7-.2-1.5 1.1.4 1.2 1.6"/><path fill="#DEB4AF" d="M232.4 208.7s-1.5-5.5-3.9-5-2.2 7.6-.2 9.3a2.5 2.5 0 0 0 3.6-.2z"/><path fill="#212121" d="M228.6 205.7q2 2 1.8 4.9a1.4 1.4 0 0 0-1.8-1v.1q1 0 1.4 1l.3 1.6q.1.3.4 0c.7-2.1 0-5.6-2.1-6.6"/><path fill="#FFF" d="M336.7 384.5c2-10.2 15.7-12.4 21.5-11.5s13.6 5.4 13.3 10.6a79 79 0 0 1-8 22.8c-2 2.7-4.2 5-5 7.4-1 2.4-2.2 11-4 12s-15 1-17.6 0c-2.7-1.2-2.7-5 .7-6.5s5.2-.6 7-1.8c1-.7 1-6 .8-7.4-.2-1.3-12-9.5-8.7-25.6"/><path fill-opacity=".1" d="M336.7 384.5c2-10.2 15.7-12.4 21.5-11.5s13.6 5.4 13.3 10.6a79 79 0 0 1-8 22.8c-2 2.7-4.2 5-5 7.4-1 2.4-2.2 11-4 12s-15 1-17.6 0c-2.7-1.2-2.7-5 .7-6.5s5.2-.6 7-1.8c1-.7 1-6 .8-7.4-.2-1.3-12-9.5-8.7-25.6"/><path fill="#DBDBDB" d="M334.8 276.7c-.2-1.9 3.7-4.1.8-10.4s-5.8-8.4-5.4-9c.5-.6 11.7 4.3 14.9 10.8 3.1 6.5.8 11.3.4 11.7s-10.6-2.3-10.7-3"/><path fill="#FFF" fill-opacity=".1" d="M334.8 276.7c-.2-1.9 3.7-4.1.8-10.4s-5.8-8.4-5.4-9c.5-.6 11.7 4.3 14.9 10.8 3.1 6.5.8 11.3.4 11.7s-10.6-2.3-10.7-3"/><path fill="#ACADAE" d="M331.1 307.5s-11-20.8-14.4-23.8-16.5-7-18.5-5.2-.1 7.5 1.2 9c1.3 1.6 10.5 5 11.3 5.6.4.4-2.1 12.3 1.5 23.4a49 49 0 0 0 7 14.4c1 .7 11-22 12-23.4"/><path fill="#FFF" fill-opacity=".1" d="M331.1 307.5s-11-20.8-14.4-23.8-16.5-7-18.5-5.2-.1 7.5 1.2 9c1.3 1.6 10.5 5 11.3 5.6.4.4-2.1 12.3 1.5 23.4a49 49 0 0 0 7 14.4c1 .7 11-22 12-23.4"/><path fill="#FFF" d="M373.3 433.4c-1.2.4-16.2 1.5-18-1-1.8-2.6-.1-4.9 1.8-5.7 2-1 6-.3 7-1.8s1.4-5.7.8-7.4c-.7-1.8-11.8-9.1-8.7-25.6l-12.8-4.7c-5.7-2-32.4-40.9-33-47.6-1.4-15.7 11-33.6 11-33.6s-8.8-5.1-12-11.1c-3.3-6-2-16.5.2-20.2 1.1-2.1 4.8 3.5 6.8 4.6 1.9 1 8.9 2.9 10.7 2 1.9-.7 6-5.3 9.9-6.2s15 3.2 17.5 5.9.5 30.1.5 30.1 2.4 4.8 3.8 7c4 6.5 21.2 42.4 27 53.2q3.4 5.7 5.7 11.9c1.2 3.8-3.8 23.8-9.2 31.4-1.8 2.5-4.3 4.9-5.5 9.8-1.1 5-2.2 8.5-3.5 9"/><path fill="#FFF" d="M349.5 282c1.5-1.7 6.4-.2 9.4-7.6s2.5-11.5 3.4-11.6 5.5 13.3 2.5 21-8.8 9.4-9.5 9.4-6.4-10.6-5.8-11.3"/><path fill="#212121" d="m363 273-.4-3.1-.7-3.7h-.2q.6 2 .5 4a34 34 0 0 1-1.3 10.6q-1.9 6-6.7 10.3-.1.2.2.2c5.9-4 9-11.3 8.6-18.3"/><path fill="#FFF" d="M389.5 380.4c3.1 3.6 13.3 7.8 19.3 3 6-5 7.2-19.7 7.2-19.7s7.7 19.3 2.4 26-16.7 7.8-28.9-3.1z"/><path fill="#212121" d="M333.5 286.2c2.7 2-1.3 6.9-3.8 5s1.5-6.7 3.8-5m-24.8-4.9c-1-.8-.7-7 .9-8.1 1.5-1.2 8 7 7.5 8.5-.6 1.6-7.2.5-8.4-.4"/><path fill-opacity=".1" d="M374.4 348.4q-5.7.4-10.6-2.3c-6.5-3.5-15.8-7.2-16.6-15.7-.6-6.6 10.1-14.3 10.3-14.4 4.3 6.7 11.8 21.2 16.9 32.4m-37.6-20.8c-4.6 2.3-12.7.3-12.8-5.7 0-4.1 3.6-7.5 7.2-6.8a7 7 0 0 1 2.5.3c4.3 1.4 8.4 9.5 3 12.2m7.4 11c1.9 3 1.2 8.6-2.8 9.1-2.8.4-5.4-1.8-5.3-4.3v-1.7c.7-3 5.8-6.5 8-3"/><path fill="#212121" d="M321.4 306c2 .8 9.3 5.9 16 7.3a43 43 0 0 0 18.1-2.5c.8-.3 2.6 3 2.4 3.8a35 35 0 0 1-22 3.5 57 57 0 0 1-17-8.5c-.1-.7 1.6-4 2.5-3.6"/><path fill="#FFF" d="M322.1 321.7s-13.5-19.3-17.3-21.8-17.2-5-19-2.8c-1.8 2 .8 7.4 2.3 8.8 1.5 1.3 11 3.6 12 4 .4.4-.6 12.6 4.3 23.2a49 49 0 0 0 8.8 13.3c1 .6 8.2-23.2 9-24.7"/><path fill="#212121" d="M325.6 322.2v-.1l-3.6-1.6q-2.8-3-5.3-6.3h-.2l3.9 5.5q2 2.6 4.5 4.7.3 0 .2-.2l-2.7-3.2a10 10 0 0 0 3.2 1.2"/><path fill="#DEB4AF" d="M212.5 242.2c-1.4 14.6-1.8 45 4.3 54 3 4.5 31.2 15.3 39 15 3.2 0 7.5-27.2 4.1-26.8-2.2.3-21.6.2-23.6-1.4-2-1.7-8.7-29.2-11.8-41.2-3.9-15.2-10.8-12-12 .4"/><path fill="#DEB4AF" d="M257.7 284.7s10.3-1.4 17-2a41 41 0 0 1 13.3.6c4.3 1.5 21.5 10.6 19.4 14.8-2 3.9-15.7-5.9-15.7-5.9s14.7 8.6 11.6 12.8c-3.2 4-17.2-9-17.2-9s15 9.1 11 13c-3 2.8-16.4-8.3-16.4-8.3s12.8 8 9.8 11c-3.2 3.4-16.2-6-16.2-6a24 24 0 0 1-20.4 5c-1.2-.1 3.8-26 3.8-26"/><path fill="#212121" d="M286.8 289q2.8 1.3 5.2 3 2.6 1.5 5 3.5 3 2.4 5.6 5.4a74 74 0 0 0-10.9-8.5zm-4.1 6q3.4 1.8 6.6 3.8l6.1 4.5h-.1l-6.3-4q-3.1-2.3-6.3-4.3m-4.4 4.5a57 57 0 0 1 9.5 6.7z"/><path fill="#3A3A3A" d="M211.8 242.5c-1.3 9.6-1 46 1.6 52 3.5 7.8 33.4 17.8 33.4 17.8l10.7-29.3s-19.4-1-20.4-1.7-8.5-25-11.2-37.8c-3-13.6-11.5-20.4-14-1"/><path fill="#212121" d="M252.4 284.7q-3 6-5.3 12.1a182 182 0 0 0-4.4 12.4l5.2-12.2q2.6-6 4.8-12.2 0-.3-.3-.1m-31.4 16a20 20 0 0 1-6.7-6.3q-1.2-2.4-1.3-5l-.5-6q-.8-10.5-1.1-21.2v-2l-.4-13q-.3 5.2-.3 10.5v-.4l-1.2-4.7.8 4.8.3 1.7a289 289 0 0 0 1.3 30.2 14 14 0 0 0 1.2 5c1.6 3 4.8 5 7.7 6.6q.2 0 .2-.2m20.8-18.7q-1.9-.5-3.8-.5z"/><path fill="#FF65CC" fill-rule="evenodd" d="M287.8 181c1.1 7.3-3 15.1-3 15.1s-8.7 1.3-15.3-2.3c-5.5-3-7.5-8.9-4.7-12.5 4-5.1 11.6 2.9 11.6 2.9s-5-9.9 1.2-12c4.3-1.4 9.3 2.6 10.2 8.7m10.6-21a21 21 0 0 1-9.6 6.2s-5.2-4-6.7-9.3c-1.2-4.4.8-8.5 4.2-9 4.8-.4 4.5 7.7 4.5 7.7s2.6-7.7 6.9-5.5c3 1.6 3.4 6.2.7 9.8"/><path fill="#5E418F" fill-rule="evenodd" d="M96.4 55.1h170.5V136H96.4z"/><path fill="#DBDBDB" fill-rule="evenodd" d="M107.9 0h4.7v55.1h-4.7zm142.7 0h4.7v55.1h-4.7z"/><path fill="#FFF" fill-rule="evenodd" d="M147.2 83.5h-6.1l-1.2 3.2q-.4.8-1.3.9h-.5q-1-.7-.8-1.9l5.5-14.7q.4-.8 1.3-.9t1.3.9l5.6 14.7q.3 1.2-.9 1.8h-.4q-1 0-1.3-.8zm-1-2.8-2-5.4-2 5.4z"/><path fill="#FFF" d="M157.2 86.2a1.4 1.4 0 0 1-2.8 0V71.6q0-.6.6-1.1 1-.6 1.9.3l8 11.2V71.7q.2-1.3 1.4-1.4 1.3.1 1.4 1.4v14.5q-.1 1.3-1.4 1.4-.6 0-1-.5l-.1-.2-8-11zM173 71.4a1.4 1.4 0 0 1 1.4-1.3q1.2.1 1.4 1.3v14.8q-.2 1.3-1.4 1.4a1.3 1.3 0 0 1-1.4-1.4zm22.5 0v14.8a1.4 1.4 0 0 1-2.3 1q-.5-.4-.5-1V75.7l-3.5 5q-.5.5-1.2.5-.8 0-1.2-.5l-3.6-5v10.5a1.4 1.4 0 0 1-2.7 0V71.4q.1-1.2 1.3-1.3h.2q.6 0 1 .5l5 7 5-7q.4-.5 1.2-.5 1.2.1 1.3 1.3"/><path fill="#FFF" fill-rule="evenodd" d="M208.9 83.5h-6l-1.3 3.2q-.4.8-1.3.9h-.5q-1-.7-.8-1.9l5.4-14.7a1.4 1.4 0 0 1 2.7 0l5.5 14.7q.3 1.4-.8 1.8l-.5.1q-.9 0-1.3-.9zm-1-2.8-2-5.4-2 5.4z"/><path fill="#FFF" d="M216.1 86.2V71.4q.1-1.2 1.4-1.3a1.4 1.4 0 0 1 1.5 1.3v13.4h6.7a1.4 1.4 0 0 1 0 2.8h-8.2a1.4 1.4 0 0 1-1.4-1.4m-86.4 27.1q.8-1 1.8-.2 2 1.7 4.8 2 1.7 0 3-1 1-.6 1.2-1.8 0-.5-.3-.8l-.7-.8q-1.5-1-3.5-1.1-1.7-.4-3.3-1-1.5-.8-2.3-2-.6-1-.6-2 .1-2.4 2-3.7a7 7 0 0 1 4.4-1.3q3 .1 5.4 2a1.3 1.3 0 0 1-.4 2.3q-.6 0-1-.2a7 7 0 0 0-4-1.6q-1.5 0-2.8.9-1 .6-1 1.6l.2.7.7.6q1.5 1 3.1 1.1 1.9.3 3.5 1 1.5.7 2.5 2 .6 1.1.6 2.2 0 2.5-2.1 3.9-2.1 1.5-4.7 1.4-3.6-.1-6.4-2.5-.7-.8-.1-1.7m17.2 2.9v-14.7a1.4 1.4 0 0 1 1.4-1.4 1.4 1.4 0 0 1 1.4 1.4v6h6.5v-6a1.4 1.4 0 0 1 1.2-1.5 1.4 1.4 0 0 1 1.4 1.4v14.7a1.4 1.4 0 0 1-1.4 1.4 1.4 1.4 0 0 1-1.4-1.4v-6h-6.4v6a1.4 1.4 0 0 1-1.4 1.4 1.4 1.4 0 0 1-1.4-1.4m17.8.1v-14.7a1.4 1.4 0 0 1 1.4-1.4h8.2q1.2.1 1.4 1.4-.1 1.2-1.4 1.4h-6.8v4.6h5.8a1.4 1.4 0 0 1 0 2.7h-5.8v4.6h6.8a1.4 1.4 0 0 1 0 2.8h-8.1a1.4 1.4 0 0 1-1.5-1.4m14.8 0v-14.7a1.4 1.4 0 0 1 1.5-1.4 1.4 1.4 0 0 1 1.3 1.4v13.3h6.8a1.4 1.4 0 0 1 0 2.8h-8.1a1.4 1.4 0 0 1-1.4-1.4m22.3-13.3h-4v13.3a1.4 1.4 0 0 1-2.8 0V103h-4a1.4 1.4 0 0 1-1.4-1.4 1.4 1.4 0 0 1 1.4-1.4h10.7q1.3.1 1.4 1.4-.1 1.2-1.3 1.4m5.5 13.2v-14.7a1.4 1.4 0 0 1 1.4-1.4h8.1q1.3.1 1.4 1.4-.1 1.2-1.4 1.4h-6.7v4.6h5.8a1.4 1.4 0 0 1 0 2.7h-5.8v4.6h6.7a1.4 1.4 0 0 1 0 2.8h-8.1a1.4 1.4 0 0 1-1.4-1.4"/><path fill="#FFF" fill-rule="evenodd" d="M234.2 115.5a1.4 1.4 0 0 1-.9 1.8h-.5q-.6 0-1-.2-.6-.3-.8-.9-.6-1.5-.5-3l-.3-1-.8-.8q-.6-.5-1.4-.6h-3v5.5q-.1 1.2-1.3 1.3-1.3-.1-1.4-1.3v-14.8a1.4 1.4 0 0 1 1.3-1.4h4.5a5.3 5.3 0 0 1 3.4 9.5q.6.4 1 1 .7 1 .7 2.6l.1 1.5q.7.2 1 .8m-3.5-10a2.6 2.6 0 0 0-2.6-2.6h-3v5.1h3c1.4 0 2.6-1.1 2.6-2.5"/><path fill="#FFF" d="M245.4 84.5c-2 1.5-2-1.8-4.6-2.6s-4.6 2-5.4-.4 3.6-9.6 8-8.2c4.4 1.3 4 9.8 2 11.2m-7.7-13.1c.7 1.5.4 3.1-.7 3.6-1 .5-2.5-.4-3.1-1.9s-.4-3.1.7-3.6c1-.5 2.4.4 3.1 2m5.8-2.5c0 1.7-1 3-2 3-1.2 0-2.2-1.3-2.2-3s1-3 2.1-3 2.1 1.4 2.1 3m5.7 6c-1.5.8-2 2.3-1.5 3.3s2.3 1 3.7.2c1.4-1 2-2.4 1.4-3.4s-2.2-1.1-3.6-.2m-3.5-5.2c-1 1.3-1 3 0 3.6s2.5.1 3.4-1.3c1-1.3 1-3 0-3.6s-2.5-.1-3.4 1.3M125.8 99.1c-.5 2.5-2.8.1-5.3 1.3-2.4 1-2 4.4-4.3 3.2s-3.7-9.5.5-11.4 9.6 4.5 9 7m-14.5-4.6q2.5 1.2 1.9 3.2c-.5 1-2 1.3-3.6.6-1.5-.6-2.4-2-1.9-3.1.5-1 2.1-1.4 3.6-.7M114 89c1 1.2 1.3 2.8.4 3.6s-2.4.4-3.5-.8-1.5-2.9-.5-3.8 2.4-.4 3.6.8m8.1.7c-.5 1.6 0 3.2 1.2 3.5 1 .3 2.4-.8 2.8-2.3.4-1.6-.1-3.2-1.2-3.5s-2.4.7-2.9 2.3m-6-1.5c.2 1.6 1.3 2.8 2.5 2.7 1.1-.2 1.8-1.6 1.6-3.3s-1.3-2.8-2.5-2.7c-1.1.2-1.9 1.6-1.6 3.3"/></g></svg>