<svg xmlns="http://www.w3.org/2000/svg" viewBox="0 0 500 500"><g id="freepik--Floor--inject-102"><path id="freepik--floor--inject-102" d="M87,252.05C-3,304-3,388.29,87,440.26s236,52,326,0S503,304,413,252.05,177,200.08,87,252.05Z" style="fill:#fafafa"></path></g><g id="freepik--Paws--inject-102"><g id="freepik--Paw--inject-102"><path d="M251.73,45.38c-1.62.37-3,1.47-4.52,2.06-2.33.89-5,.62-7.31,1.55a8.19,8.19,0,0,0-4.91,7.7,9.37,9.37,0,0,0,5,7.82c2,1.06,4.2,1.67,6.21,2.73,1.82,1,3.27,2.41,5.29,3.07a8.08,8.08,0,0,0,5.73-.17,5.87,5.87,0,0,0,2.66-2.29c1.09-1.67,2.42-4.27,2.15-6.35-.25-1.9-1.43-3.42-2.17-5.14s-.84-3.82-1.25-5.73C257.91,47.35,255.38,44.53,251.73,45.38Z" style="fill:#f5f5f5"></path><path d="M243.09,44.82a11.43,11.43,0,0,0,1.54-.83,4,4,0,0,0,1.92-3.86,12.1,12.1,0,0,0-.91-4,9.63,9.63,0,0,0-1.48-2.75,2.31,2.31,0,0,0-1.77-.9A3.3,3.3,0,0,0,240,34a13.93,13.93,0,0,0-2.09,4,7.61,7.61,0,0,0-.41,3.66,4.12,4.12,0,0,0,2,3,4.41,4.41,0,0,0,3.27.24Z" style="fill:#f5f5f5"></path><path d="M250.42,31.25c1.05-2.16,2.72-3.93,5.22-3.89,2.92.05,3.79,3.6,3.54,6a11.47,11.47,0,0,1-3,7c-2.38,2.27-5.39,1.18-6.48-1.75A9.76,9.76,0,0,1,250.42,31.25Z" style="fill:#f5f5f5"></path><path d="M263.81,55.6a9.9,9.9,0,0,1-.35-1.72,4,4,0,0,1,1.72-3.94,12.28,12.28,0,0,1,3.69-1.89,9.43,9.43,0,0,1,3.05-.63,2.32,2.32,0,0,1,1.84.78,3.31,3.31,0,0,1,.3,2.83,14.14,14.14,0,0,1-1.74,4.19,7.83,7.83,0,0,1-2.55,2.66,4.14,4.14,0,0,1-3.57.38,4.42,4.42,0,0,1-2.28-2.36C263.88,55.8,263.84,55.7,263.81,55.6Z" style="fill:#f5f5f5"></path><path d="M270.33,41.1c1-2.19,1.23-4.62-.42-6.49-1.92-2.2-5.2-.56-6.82,1.15a11.6,11.6,0,0,0-3.39,6.84c-.18,3.28,2.61,4.86,5.54,3.8A9.79,9.79,0,0,0,270.33,41.1Z" style="fill:#f5f5f5"></path></g><g id="freepik--paw--inject-102"><path d="M56.87,56.47c-.88,1.7-.93,3.7-1.57,5.5-1,2.71-3.19,4.83-4.11,7.55a9.44,9.44,0,0,0,3.06,10.06A10.79,10.79,0,0,0,64.83,81c2.43-1,4.6-2.42,7-3.39,2.21-.87,4.55-1.05,6.64-2.33a9.25,9.25,0,0,0,4.13-5.14,6.6,6.6,0,0,0,0-4c-.64-2.21-1.93-5.31-3.94-6.63s-4.06-1.32-6.12-2-4-2.11-6-3.19C63.21,52.54,58.85,52.65,56.87,56.47Z" style="fill:#ebebeb"></path><path d="M49.92,63.61a11.7,11.7,0,0,0,.43-2,4.55,4.55,0,0,0-1.94-4.56,14.07,14.07,0,0,0-4.21-2.23,11.49,11.49,0,0,0-3.51-.76,2.71,2.71,0,0,0-2.12.88,3.79,3.79,0,0,0-.38,3.25,15.92,15.92,0,0,0,2,4.84,8.89,8.89,0,0,0,2.9,3.1,4.73,4.73,0,0,0,4.1.48A5.07,5.07,0,0,0,49.79,64C49.84,63.84,49.88,63.73,49.92,63.61Z" style="fill:#ebebeb"></path><path d="M43.54,47.05c-1.11-2.52-1.4-5.31.5-7.47,2.22-2.52,6-.62,7.84,1.35s3.73,5,3.88,7.87c.21,3.78-3,5.6-6.37,4.36C46.71,52.18,44.66,49.6,43.54,47.05Z" style="fill:#ebebeb"></path><path d="M74.85,53.55a12.24,12.24,0,0,1-1.77-1,4.52,4.52,0,0,1-2.15-4.45A13.85,13.85,0,0,1,72,43.48a11.38,11.38,0,0,1,1.73-3.15,2.73,2.73,0,0,1,2.06-1,3.79,3.79,0,0,1,2.7,1.86,16.19,16.19,0,0,1,2.36,4.65A8.8,8.8,0,0,1,81.29,50,4.71,4.71,0,0,1,79,53.44a5.08,5.08,0,0,1-3.77.24Z" style="fill:#ebebeb"></path><path d="M67,37c-1.2-2.49-3.12-4.53-6-4.5-3.35.05-4.37,4.14-4.08,6.84s1.33,6,3.44,8.07c2.74,2.61,6.21,1.36,7.46-2C68.86,42.75,68.24,39.51,67,37Z" style="fill:#ebebeb"></path></g><g id="freepik--paw--inject-102"><path d="M417.43,61.07c-.5,1.51-.27,3.17-.56,4.74-.43,2.36-2,4.41-2.38,6.77a7.87,7.87,0,0,0,3.88,7.88,9,9,0,0,0,8.92-.21c1.86-1.11,3.46-2.61,5.33-3.73,1.7-1,3.61-1.48,5.16-2.82a7.74,7.74,0,0,0,2.72-4.79,5.62,5.62,0,0,0-.55-3.32c-.83-1.73-2.3-4.12-4.14-4.93s-3.52-.54-5.3-.79S427,58.66,425.17,58C422.13,57,418.55,57.65,417.43,61.07Z" style="fill:#f5f5f5"></path><path d="M412.66,67.89a10.58,10.58,0,0,0,.09-1.69,3.79,3.79,0,0,0-2.21-3.49,11.59,11.59,0,0,0-3.77-1.27,9.44,9.44,0,0,0-3-.16,2.23,2.23,0,0,0-1.62,1,3.15,3.15,0,0,0,.12,2.74,13.24,13.24,0,0,0,2.26,3.72,7.42,7.42,0,0,0,2.8,2.17,3.92,3.92,0,0,0,3.44-.16,4.19,4.19,0,0,0,1.83-2.56C412.62,68.09,412.65,68,412.66,67.89Z" style="fill:#f5f5f5"></path><path d="M405.18,55.1c-1.25-1.94-1.87-4.2-.59-6.23,1.49-2.37,4.85-1.32,6.65.06a11.1,11.1,0,0,1,4.25,6c.67,3.09-1.73,5-4.67,4.45A9.36,9.36,0,0,1,405.18,55.1Z" style="fill:#f5f5f5"></path><path d="M431.85,56.25a9.34,9.34,0,0,1-1.58-.57,3.81,3.81,0,0,1-2.38-3.38,11.81,11.81,0,0,1,.28-4,9.48,9.48,0,0,1,1-2.83,2.26,2.26,0,0,1,1.56-1.11,3.14,3.14,0,0,1,2.47,1.17,13.34,13.34,0,0,1,2.57,3.52,7.35,7.35,0,0,1,.92,3.41,3.94,3.94,0,0,1-1.47,3.12,4.18,4.18,0,0,1-3.07.7A1.55,1.55,0,0,1,431.85,56.25Z" style="fill:#f5f5f5"></path><path d="M423.2,43.66c-1.32-1.89-3.18-3.31-5.54-2.89-2.76.48-3.05,4-2.46,6.18a11.09,11.09,0,0,0,3.93,6.18c2.6,1.79,5.29.3,5.88-2.64A9.4,9.4,0,0,0,423.2,43.66Z" style="fill:#f5f5f5"></path></g><g id="freepik--paw--inject-102"><path d="M360.3,123.8c-2.38,1-4.15,3.07-6.37,4.41-3.33,2-7.49,2.33-10.79,4.39a12.79,12.79,0,0,0-5.42,13.18,14.66,14.66,0,0,0,9.84,10.62c3.36,1.07,6.9,1.39,10.28,2.47,3.06,1,5.67,2.8,9,3.25a12.59,12.59,0,0,0,8.75-1.84A9.15,9.15,0,0,0,379,156c1.21-2.87,2.53-7.22,1.54-10.33-.9-2.86-3.12-4.87-4.74-7.3s-2.34-5.62-3.5-8.45C370.32,125.12,365.66,121.49,360.3,123.8Z" style="fill:#ebebeb"></path><path d="M346.88,125.32a15.21,15.21,0,0,0,2.14-1.7c2-1.79,2.4-3.81,1.88-6.44a19.13,19.13,0,0,0-2.5-6,15.52,15.52,0,0,0-3-3.81,3.63,3.63,0,0,0-3-.89c-1.51.29-2.51,1.71-3.2,3.08a22,22,0,0,0-2.1,6.75,12.07,12.07,0,0,0,.38,5.73,6.4,6.4,0,0,0,3.89,4,6.8,6.8,0,0,0,5.08-.53Z" style="fill:#ebebeb"></path><path d="M354.4,102.48c1-3.6,3.09-6.78,6.94-7.41,4.49-.73,6.81,4.48,7.07,8.15.27,3.85-.36,8.4-2.69,11.58-3,4.14-8,3.29-10.43-.9C353.33,110.58,353.39,106.11,354.4,102.48Z" style="fill:#ebebeb"></path><path d="M381.65,136.16a16,16,0,0,1-1-2.54c-.84-2.55-.19-4.49,1.57-6.52a19,19,0,0,1,5.12-3.93,15.14,15.14,0,0,1,4.52-1.81,3.67,3.67,0,0,1,3,.7c1.16,1,1.33,2.73,1.24,4.26a21.78,21.78,0,0,1-1.52,6.9,12.08,12.08,0,0,1-3.17,4.79,6.42,6.42,0,0,1-5.37,1.56,6.78,6.78,0,0,1-4.15-3C381.82,136.45,381.73,136.31,381.65,136.16Z" style="fill:#ebebeb"></path><path d="M387.66,112.11c.89-3.63.62-7.42-2.43-9.85-3.56-2.84-8.13.58-10.15,3.65-2.12,3.23-3.79,7.51-3.31,11.42.62,5.09,5.33,6.76,9.54,4.31C384.64,119.7,386.77,115.77,387.66,112.11Z" style="fill:#ebebeb"></path></g><g id="freepik--paw--inject-102"><path d="M453.3,149.62c-1.36.52-2.42,1.62-3.7,2.31-1.92,1-4.27,1.11-6.18,2.18a7.17,7.17,0,0,0-3.4,7.26,8.21,8.21,0,0,0,5.24,6.23c1.86.69,3.84,1,5.71,1.67,1.69.63,3.11,1.73,4.95,2.07a7.07,7.07,0,0,0,5-.8,5,5,0,0,0,2.06-2.29c.76-1.58,1.61-4,1.14-5.76s-1.62-2.82-2.46-4.23a25.91,25.91,0,0,1-1.74-4.85C458.9,150.64,456.38,148.47,453.3,149.62Z" style="fill:#ebebeb"></path><path d="M445.72,150.12a9.21,9.21,0,0,0,1.25-.9,3.46,3.46,0,0,0,1.23-3.57,10.78,10.78,0,0,0-1.25-3.41,8.62,8.62,0,0,0-1.59-2.23,2.05,2.05,0,0,0-1.65-.58,2.86,2.86,0,0,0-1.88,1.64,12.46,12.46,0,0,0-1.37,3.74,6.91,6.91,0,0,0,.06,3.23,3.63,3.63,0,0,0,2.08,2.37,3.9,3.9,0,0,0,2.87-.16Z" style="fill:#ebebeb"></path><path d="M450.56,137.49c.67-2,1.93-3.73,4.1-4,2.55-.29,3.71,2.7,3.76,4.77a10.15,10.15,0,0,1-1.83,6.44c-1.81,2.24-4.56,1.63-5.84-.79A8.59,8.59,0,0,1,450.56,137.49Z" style="fill:#ebebeb"></path><path d="M465,157.15a9.2,9.2,0,0,1-.5-1.45,3.47,3.47,0,0,1,1-3.63,10.64,10.64,0,0,1,3-2.06,8.58,8.58,0,0,1,2.59-.9,2.06,2.06,0,0,1,1.68.47,2.91,2.91,0,0,1,.59,2.43,12.18,12.18,0,0,1-1.05,3.84,6.8,6.8,0,0,1-1.91,2.61,3.62,3.62,0,0,1-3.06.73,3.86,3.86,0,0,1-2.25-1.79A2,2,0,0,1,465,157.15Z" style="fill:#ebebeb"></path><path d="M469,143.8c.59-2,.54-4.16-1.1-5.6-1.93-1.69-4.59.1-5.81,1.77a10.24,10.24,0,0,0-2.17,6.33c.22,2.88,2.82,3.94,5.25,2.68A8.58,8.58,0,0,0,469,143.8Z" style="fill:#ebebeb"></path></g><g id="freepik--paw--inject-102"><path d="M51.9,182.58c-1,1.91-1.17,4.2-1.95,6.25-1.17,3.07-3.77,5.44-4.9,8.53A10.81,10.81,0,0,0,48.29,209a12.38,12.38,0,0,0,12.07,1.95c2.8-1,5.32-2.66,8.13-3.7,2.55-.94,5.24-1.08,7.66-2.5A10.56,10.56,0,0,0,81,199a7.67,7.67,0,0,0,.09-4.62c-.68-2.55-2.07-6.13-4.34-7.69-2.09-1.43-4.61-1.61-7-2.39s-4.49-2.52-6.73-3.81C59.26,178.25,54.27,178.25,51.9,182.58Z" style="fill:#f5f5f5"></path><path d="M43.76,190.57a14.19,14.19,0,0,0,.54-2.25c.4-2.23-.39-3.78-2.1-5.26a16.09,16.09,0,0,0-4.77-2.67,13.08,13.08,0,0,0-4-1,3.1,3.1,0,0,0-2.45.95,4.32,4.32,0,0,0-.52,3.71,18.38,18.38,0,0,0,2.11,5.59,10.14,10.14,0,0,0,3.23,3.62,5.38,5.38,0,0,0,4.68.65,5.73,5.73,0,0,0,3.11-3C43.66,190.83,43.71,190.7,43.76,190.57Z" style="fill:#f5f5f5"></path><path d="M36.89,171.45c-1.21-2.92-1.47-6.12.76-8.54,2.61-2.82,6.87-.56,9,1.75s4.13,5.78,4.23,9.11c.13,4.33-3.59,6.32-7.41,4.82C40.38,177.4,38.1,174.39,36.89,171.45Z" style="fill:#f5f5f5"></path><path d="M72.55,179.71a12.91,12.91,0,0,1-2-1.17c-1.89-1.25-2.46-2.89-2.35-5.15a16.28,16.28,0,0,1,1.37-5.29,13.16,13.16,0,0,1,2.07-3.55A3.13,3.13,0,0,1,74,163.44a4.34,4.34,0,0,1,3,2.19A18.35,18.35,0,0,1,79.64,171a10.22,10.22,0,0,1,.38,4.84,5.42,5.42,0,0,1-2.77,3.83,5.74,5.74,0,0,1-4.31.17Z" style="fill:#f5f5f5"></path><path d="M64,160.57c-1.3-2.88-3.45-5.27-6.74-5.3-3.84,0-5.11,4.62-4.86,7.71.27,3.25,1.38,7,3.73,9.33,3.07,3.07,7.07,1.72,8.6-2.09C66,167.19,65.36,163.47,64,160.57Z" style="fill:#f5f5f5"></path></g></g><g id="freepik--Shadows--inject-102"><path id="freepik--Shadow--inject-102" d="M107.64,422.39c-18.31,9.95-48,9.95-66.28,0s-18.31-26.08,0-36,48-9.95,66.28,0S125.94,412.44,107.64,422.39Z" style="fill:#e6e6e6"></path><path id="freepik--shadow--inject-102" d="M420.94,401.64c-46.07,25.05-120.77,25.05-166.84,0S208,336,254.1,311s120.77-25,166.84,0S467,376.6,420.94,401.64Z" style="fill:#e6e6e6"></path><path id="freepik--shadow--inject-102" d="M205.07,391.6c-31.33,17-82.14,17-113.47,0s-31.34-44.65,0-61.68,82.14-17,113.47,0S236.41,374.57,205.07,391.6Z" style="fill:#e6e6e6"></path><path id="freepik--shadow--inject-102" d="M462.05,422.39c-18.31,9.95-48,9.95-66.28,0s-18.31-26.08,0-36,48-9.95,66.28,0S480.35,412.44,462.05,422.39Z" style="fill:#e6e6e6"></path></g><g id="freepik--Dog--inject-102"><g id="freepik--dog--inject-102"><path d="M166.66,260.68l-.66-.06c-5.34-.44-9.34,0-14,2.8l-11.52,6.88c-2.69,1.6-5.38,3.21-7.93,5a14.58,14.58,0,0,0-4.9,5,6.43,6.43,0,0,0-.31,5.17,7.05,7.05,0,0,0,1,1.75,16.32,16.32,0,0,0,1.65,1.07,8,8,0,0,0,9.66,5.53,1.89,1.89,0,0,1,1-.14,1.94,1.94,0,0,1,.82.57,9.47,9.47,0,0,0,8.52,1.92,19,19,0,0,0,7.88-4.38c2.31-2,4.38-4.19,6.73-6.11,5.81-4.74,12.84-3,19.51-1.66q12.66,2.52,25.17,5.66c2.67.67,5.74,1.72,6.59,4.34.28.87.27,1.82.57,2.68a2,2,0,0,0,2,1.52,2.47,2.47,0,0,0,1.09-.61l3.1-2.43c-.52,1.54,1.46,3,3,2.57s2.53-2,3-3.55a24.26,24.26,0,0,1,1.55-4.61,13,13,0,0,1,2.58-2.86c7.5-6.84,14.43-14.5,19.19-23.47a24.16,24.16,0,0,0,3-8.39c.72-6.15-3.66-10.32-7.63-14.48a71.87,71.87,0,0,0-14.2-11.52c-2.59-1.6-5.41-3.07-8.45-3.21a4.12,4.12,0,0,0-2.06.34,4.8,4.8,0,0,0-1.77,2c-5.66,10-7.61,21.87-14,31.41a7.2,7.2,0,0,1-2.65,2.66,7.86,7.86,0,0,1-3.71.47Q183.55,262.06,166.66,260.68Z" style="fill:#455a64"></path><path d="M229.41,285.06a12.31,12.31,0,0,0,2.42-3.86A4.14,4.14,0,0,0,231,277a5.58,5.58,0,0,0-2.89-1.17A33,33,0,0,0,218,275.5c.51-2.11,1-4.35.33-6.39s-3.12-3.66-5.05-2.69a60.79,60.79,0,0,0,1-11.27,4.22,4.22,0,0,0-.5-2.33,2.51,2.51,0,0,0-2.88-.84,50.24,50.24,0,0,1-4.1,7.52,7.2,7.2,0,0,1-2.65,2.66,7.86,7.86,0,0,1-3.71.47q-16.93-.57-33.82-1.95l-.66-.06c-5.34-.44-9.34,0-14,2.8l-11.52,6.88c-2.69,1.6-5.38,3.21-7.93,5a14.58,14.58,0,0,0-4.9,5,6.43,6.43,0,0,0-.31,5.17,7.05,7.05,0,0,0,1,1.75,3.43,3.43,0,0,0,1.65,1.07,8,8,0,0,0,9.66,5.53,1.89,1.89,0,0,1,1-.14,1.94,1.94,0,0,1,.82.57,9.47,9.47,0,0,0,8.52,1.92,19,19,0,0,0,7.88-4.38c2.31-2,4.38-4.19,6.73-6.11,5.81-4.74,12.84-3,19.51-1.66q12.66,2.52,25.17,5.66c2.67.67,5.74,1.72,6.59,4.34.28.87.27,1.82.57,2.68a2,2,0,0,0,2,1.52,2.47,2.47,0,0,0,1.09-.61l3.1-2.43c-.52,1.54,1.46,3,3,2.57s2.53-2,3-3.55a24.26,24.26,0,0,1,1.55-4.61,13,13,0,0,1,2.58-2.86l.95-.89A6.91,6.91,0,0,0,229.41,285.06Z" style="fill:#e0e0e0"></path><path d="M140.58,293.48c-1.16-3.54-.06-6.5,2.86-8.75a34,34,0,0,1,8.23-4.94l-3.88,2.79c-4,3.08-7.89,5.1-7.21,10.9Z" style="opacity:0.2"></path><path d="M130,288.13c-.23-3.31,1.9-5.92,4.67-7.46A32.12,32.12,0,0,1,143,277c-2.3,1.3-5.58,3.08-7.81,4.42-2.66,1.46-4.65,3.57-5.16,6.67Z" style="opacity:0.2"></path><path d="M286.08,255a32.81,32.81,0,0,0-4.91,3.32,39.42,39.42,0,0,0-6.76,7.31c-8.43,11.55-11.66,27.53-5.62,40.48,6.38,13.7,22.23,21.58,37.32,20.74-6.61,3-14.62.68-21.57,2.84-3.51,1.09-6.15,4.9-6.82,8.51s.43,7.33,5,7.33c0,1.77,3.36,5,9.32,3.38.3,1.3,1,3.66,11,2s39-13.45,50.84-20.19a69.46,69.46,0,0,0,13.1-9c7.26-6.28,12.06-15.42,14.24-24.87,2.75-12,1.8-24.44.15-36.6-2.66-19.57-7.33-42.5-29.56-47.8a17.55,17.55,0,0,0-7.79-.35c-4.12.89-7.5,3.95-9.79,7.49C329,227.7,328.73,238,329.3,247.7c.46,7.93-5.41,4-10.46,3.2a65,65,0,0,0-15.69-.85A42.16,42.16,0,0,0,286.08,255Z" style="fill:#37474f"></path><path d="M282.72,345.53c-.7-4.2-.44-9.23,3.54-10.95s11.26-1.33,11.26-1.33-9.67-1.45-13.25.8S281.57,342.31,282.72,345.53Z" style="fill:#263238"></path><path d="M292,348.88c-.71-4.19-.44-9.23,3.53-10.95s11.26-1.32,11.26-1.32-9.67-1.46-13.24.79S290.88,345.66,292,348.88Z" style="fill:#263238"></path><path d="M313.21,314.56c2,.21,4.23-.77,4.88-2.67-1.73,4.36,1,9.53,5.14,11.79s9.09,2.21,13.72,1.44c16.5-2.74,31.53-14.78,36.3-30.81,2.54-8.55,2.22-17.73.45-26.47a85.14,85.14,0,0,0-16.58-35.6c-6.33-8-14.52-15.12-24.45-17.49s-21.73,1.14-26.7,10.06a29,29,0,0,0-3,9.91c-1.82,12.69.64,25.52-.91,38.22-1,8.08-3,16.37-1.43,24.51C301.89,304,305.24,313.7,313.21,314.56Z" style="fill:#f5f5f5"></path><path d="M357.7,278.92c-4.6-2.2-9.94-2.4-15-1.64-3.67.55-7.55,1.77-9.74,4.78-.47-2.47-4-3.17-6.12-1.81s-3.09,3.89-3.94,6.26c-.58-3.54-1.52-7.59-4.72-9.22s-7.66.6-9.87,3.13a19,19,0,0,0-3.68,7.22c-.55-1.14-2.2-1.13-3.41-.74a10,10,0,0,0-1,.41,38.74,38.74,0,0,0,.42,10.14c1.27,6.59,4.62,16.25,12.59,17.11,2,.21,4.23-.77,4.88-2.67-1.73,4.36,1,9.53,5.14,11.79s9.09,2.21,13.72,1.44a46.91,46.91,0,0,0,13.75-4.59,75.65,75.65,0,0,0,13-20c1.42-3.09,2.73-6.38,2.55-9.78C366,285.62,362.31,281.13,357.7,278.92Z" style="fill:#e0e0e0"></path><path d="M263.66,180.76c-.33.57-.65,1.14-1,1.72-5.11,9.48-8.42,20.73-5,31.34,3.6,11.11,13.67,20.36,23.14,26.64,5.16,3.41,20.35,11.77,24.93,3.28,1.23-2.3,1.16-5,1.24-7.65.1-3.33.56-6.82,2.55-9.48s6-4.09,8.78-2.32c2.25,1.42,3.07,4.3,3.33,7s.16,5.43,1.31,7.83a3.15,3.15,0,0,0,1.26,1.5c.83.43,1.84.2,2.75.42,5.78,1.38,4.08,17.1,3.49,21.26-.26,1.85-.22,4.26,1.53,4.94,1.22.47,2.55-.27,3.7-.91a28.61,28.61,0,0,1,8.49-3.11c1-.19,2.33-.17,2.72.78s-.42,1.75-1,2.49a8.53,8.53,0,0,0-1.79,4.42,1.61,1.61,0,0,0,.27,1.26,1.66,1.66,0,0,0,1.15.41c2.34.19,4.69-.11,7-.06,6.24.15,12,5.91,11.67,12.2C349,278.22,334.33,288.77,326,301a35.86,35.86,0,0,0-6.31,22.92,33.66,33.66,0,0,0,6.39,17.82c4.47,6.47,16.85,14,24,13.78a72.45,72.45,0,0,1-10.28,2.36c-10.76,1.82-14.13.7-19.5,2.36-3.51,1.1-6.15,4.9-6.83,8.51s.43,7.33,5,7.33c.05,1.77,3.37,5,9.32,3.38.31,1.3,1.05,3.66,11,2s39-13.45,50.84-20.19a69.31,69.31,0,0,0,13.1-9C410,346,414.81,336.87,417,327.42c2.76-12,1.81-24.44.15-36.6-6.89-50.71-34.59-75.69-45-86.22-8.14-8.22-17.56-14.48-27.59-20.14-9.39-5.3-19.14-10.7-26-19.3-2.95-3.74-5.36-7.89-8.36-11.59-2.67-3.28-6.16-7.15-10.65-7.19-4.83,0-9.38,3.34-12.87,6.33A104.75,104.75,0,0,0,263.66,180.76Z" style="fill:#455a64"></path><path d="M318.52,376.11c-.7-4.2-.44-9.23,3.53-10.95s11.26-1.33,11.26-1.33-9.67-1.45-13.24.8S317.36,372.89,318.52,376.11Z" style="fill:#263238"></path><path d="M327.83,379.46c-.7-4.19-.43-9.23,3.54-10.95s11.26-1.32,11.26-1.32-9.67-1.46-13.25.79S326.68,376.24,327.83,379.46Z" style="fill:#263238"></path><path d="M279,288.39c2.23,10.57,3.41,13.95,4.15,27.94s6.63,24.07,5.49,31.61-3.54,20.25-11,28.38c-7,7.66-13.13,6.61-12.51,15,.15.8,1.09,4.06,4.58,4,1.08,3.51,5.81,3,5.81,3s1.57,4.44,15.37.32c7.3-2.19,8.8-11.26,10.27-15.75a178.2,178.2,0,0,1,7.63-19.21,36.36,36.36,0,0,0,3.45-13.31c1.84-.94,5.53,1.2,5.53,1.2s.21-4.77-3.78-7.07c5.43-2.76,3.41-7.54,3.41-7.54s-3,3.68-5.52,0-1.48-18,.73-39.56c1.18-11.52,4.09-12.39,5.17-23.93.46-4.95,1.1-10.75-.05-15.64s-4.21-9.5-5.89-14.27c-1.75-5-2.61-10.51-.75-15.42,1-2.56,2.63-4.84,3.4-7.47.95-3.26.44-6.77-.27-10.1-2.54-11.88-7.72-22.32-14-32.63-4.14-6.82-10.36-17.42-19.63-17.09-23.62,1.12-58.42,43.36-52.72,89" style="fill:#455a64"></path><path d="M313.94,344.49c5.43-2.76,3.41-7.54,3.41-7.54s-3,3.68-5.52,0c-1.73-2.47-1.8-9.74-1-20.75l-.12-.11a3.16,3.16,0,0,0-2.28-1c-1.37.16-2,1.74-2.38,3.06q-.89,3.13-1.75,6.26c-.23.81-.63,1.77-1.47,1.83s-1.25-.61-1.68-1.19a6.08,6.08,0,0,0-2-1.79,2.72,2.72,0,0,0-2.57-.05c-1.4.82-1.36,3.86-3.29,3.87a2.46,2.46,0,0,1-1.69-1,32.27,32.27,0,0,1-5.13-7.34,13,13,0,0,0-2.06-3.37,2.74,2.74,0,0,0-1.44-.83c0,.59.07,1.17.1,1.75.73,14,6.63,24.07,5.49,31.61s-3.54,20.25-11,28.38c-7,7.66-13.13,6.61-12.51,15,.15.8,1.09,4.06,4.58,4,1.08,3.51,5.81,3,5.81,3s1.57,4.44,15.37.32c7.3-2.19,8.8-11.26,10.27-15.75a178.2,178.2,0,0,1,7.63-19.21,36.36,36.36,0,0,0,3.45-13.31c1.84-.94,5.53,1.2,5.53,1.2S317.93,346.79,313.94,344.49Z" style="fill:#f5f5f5"></path><path d="M275.47,398.31c-.65-1.83-1.21-4.83,1.43-6.05s5.7-2.85,5.7-2.85-5.9,1.83-7.22,2.69S273.58,395.51,275.47,398.31Z" style="fill:#e0e0e0"></path><path d="M269.67,395.33c-.66-1.83-1.22-4.83,1.43-6.05s5.7-2.85,5.7-2.85-5.91,1.83-7.23,2.7S267.78,392.53,269.67,395.33Z" style="fill:#e0e0e0"></path><path d="M210.93,218.44c-2.52,8.56-2.59,18.19,1.65,26l3.93-5.86c.14,15.34,9.73,29.41,22.11,38.49s26.49,13,41.3,16.37c-.66-4.07-1.74-8.38-2.4-12.45-1-6.1-1.89-12.7,1-18.17,2.4-4.57,7-7.5,10.45-11.36a26.65,26.65,0,0,0,6.6-15.52,5.77,5.77,0,0,0-.39-3.06c-1-1.85-3.38-2.33-5.46-2.19s-4.22.66-6.17,0c1.66-3.61,4.9-6.19,7.51-9.18a31.31,31.31,0,0,0,7.64-20.67,24.9,24.9,0,0,0-6.78-.52q1.23-7.66,2.44-15.35a6.15,6.15,0,0,0-.09-3.38c-.74-1.78-3-2.47-4.9-2.08a14,14,0,0,0-5.05,2.73A81.44,81.44,0,0,1,244.66,197a50.22,50.22,0,0,1-14-.69c-3.1-.58-5.44-1.67-8.24.27C216.8,200.4,212.77,212.21,210.93,218.44Z" style="fill:#f5f5f5"></path><path d="M258.29,267.57a8.92,8.92,0,0,0-.29-1.79c-.07-.23-.22-.51-.46-.47a.5.5,0,0,0-.3.24,9.44,9.44,0,0,0-1.09,3.26,2,2,0,0,1-.43,1c-.59.61-1.28-.1-1.83-.38a26.07,26.07,0,0,1-4.68-3.5c-1.12-.93-3.35-2.36-4.44-.52-.82,1.38.2,3,.23,4.44a30.68,30.68,0,0,1-13.27-14.63c-.21-.48-.56.06-.47.38a27.65,27.65,0,0,0,14.22,17.08c.55.29,1.48.39,1.83-.28a4.6,4.6,0,0,0,.4-2.92c-.08-.56-.23-1.11-.3-1.67a.57.57,0,0,1,0-.13c.29.27.72.54,1,.75l1.22,1a19.69,19.69,0,0,0,2.6,1.84c1.36.8,4,2.18,5.39.76.68-.69.66-1.94.71-2.83A15.49,15.49,0,0,0,258.29,267.57Z" style="fill:#ebebeb"></path><path d="M265.31,233a18.85,18.85,0,0,0-1,2.34,18.1,18.1,0,0,0-.78,1.93c-.51,1.58-1.05,3.13-1.5,4.73-.37,1.3-.57,2.66-1,3.95-.09.3-.26.94-.58,1.13l-.14-.06a6.25,6.25,0,0,1-1-.51c-.72-.36-1.43-.72-2.16-1.06a4.26,4.26,0,0,0-2-.65c-1.36.07-1.06,1.53-1.06,2.47a13.6,13.6,0,0,1-.22,2.38,5,5,0,0,1-.36,1.78c-.67.88-3.19-1.14-3.87-1.68-.3-.23-.37.4-.25.56a8.17,8.17,0,0,0,3.43,2.7c1.36.55,1.88-.27,2.33-1.43a10.53,10.53,0,0,0,.62-2.31c.11-.71,0-1.53.17-2.21l.43.28c.37.24.74.48,1.12.71a19.33,19.33,0,0,0,2.16,1.26,3,3,0,0,0,3.75-.78,12,12,0,0,0,1.49-4.13,47.06,47.06,0,0,0,1.23-5.75,27.85,27.85,0,0,0,.47-4.9C266.57,233.32,265.69,232.39,265.31,233Z" style="fill:#ebebeb"></path><path d="M212.57,197.72c-1.39,3.64-.38,8,.79,11.87a104.35,104.35,0,0,0,8.39,21c3.7,6.6,8.66,12.62,15,16.72,1.21.79,2.79,1.51,4,.77,1-.59,1.31-1.87,1.52-3,.7-3.84,1.29-7.78,3.17-11.2,2-3.61,5.24-6.32,8.33-9,6.94-6.08,13.23-12.75,19.87-19.09a123.94,123.94,0,0,0,17.64-21.08c4.25-6.41,8.69-14.65,7.11-22.6-7.57,2-14.9,5.45-22.51,7.55a206.76,206.76,0,0,1-23.87,5.08,193.93,193.93,0,0,1-22.82,2.11c-3.86.11-10.94-.76-13.61,2.87-2.56,3.48.52,5.95,1.41,9.11.76,2.72-2.12,4.9-3.65,7.28A9.48,9.48,0,0,0,212.57,197.72Z" style="fill:#BA68C8"></path><path d="M212.57,197.72c-1.39,3.64-.38,8,.79,11.87a104.35,104.35,0,0,0,8.39,21c3.7,6.6,8.66,12.62,15,16.72,1.21.79,2.79,1.51,4,.77,1-.59,1.31-1.87,1.52-3,.7-3.84,1.29-7.78,3.17-11.2,2-3.61,5.24-6.32,8.33-9,6.94-6.08,13.23-12.75,19.87-19.09a123.94,123.94,0,0,0,17.64-21.08c4.25-6.41,8.69-14.65,7.11-22.6-7.57,2-14.9,5.45-22.51,7.55a206.76,206.76,0,0,1-23.87,5.08,193.93,193.93,0,0,1-22.82,2.11c-3.86.11-10.94-.76-13.61,2.87-2.56,3.48.52,5.95,1.41,9.11.76,2.72-2.12,4.9-3.65,7.28A9.48,9.48,0,0,0,212.57,197.72Z" style="fill:#fff;opacity:0.30000000000000004"></path><path d="M231.08,204a12,12,0,0,0,6.27,1.93,24.72,24.72,0,0,0,7.35-1.31q6-1.75,11.84-4a6.43,6.43,0,0,1,3.16-.66,2.17,2.17,0,0,1,2,2.17c-.14,1-1.11,1.62-1.64,2.38a12.21,12.21,0,0,1-2.33,2.5l-6.84,5.82-8.17,7c-1.39,1.18-2.83,2.33-4.18,3.56s-2.15,2.08-3.93,1.72a8.14,8.14,0,0,1-4.18-2.65,39.76,39.76,0,0,1-7.37-12,31.75,31.75,0,0,1-2.3-6.35c-.43-2.27-1.57-4.31-1.72-6.68-.11-1.75,1.09-3.39,2.81-1.78C224.77,198.35,227.59,201.87,231.08,204Z" style="fill:#BA68C8;opacity:0.30000000000000004"></path><path d="M240.9,201.34c-1.79.06-3.73.2-5.36-.66-.85-.46-3-1.78-1.45-2.7,1-.58,2.49-.28,3.57-.35,1.35-.09,2.7-.26,4-.47,2.69-.42,5.34-1,8-1.56.87-.17,2.07-.13,2.28.74.15.56-.28,1.11-.71,1.51C248.53,200.38,244.62,201.2,240.9,201.34Z" style="fill:#BA68C8;opacity:0.30000000000000004"></path><path d="M234.1,85.17l-6.46-6.34c-1.55-1.53-3.11-3-5.51-1.9l-8,3.52A10.45,10.45,0,0,0,211,82.29a8,8,0,0,0-1.73,3,83.21,83.21,0,0,0-4.29,15.93,2.41,2.41,0,0,0,.24,2c.9,1.16,3,.61,4.32-.18,2.33-1.37,4.34-3.36,6.57-4.9.58,1.95,1.73,6.42,2.56,6.95,2.07,1.31,4.81-.81,6.74-1.43,3.77-1.21,7.56-2.39,11.26-3.75,1.65-.6,6.92-2,7.54-3.59S241,92,239.92,90.88Z" style="fill:#455a64"></path><path d="M225.87,85.19a9.85,9.85,0,0,1,1.93,8c.47.29,1.11-.05,1.49-.41s.82-.82,1.39-.75a1.69,1.69,0,0,1,.89.5c1.62,1.44,3.3,3,3.84,4.92a1.1,1.1,0,0,1,0,.8,1.58,1.58,0,0,1-.94.66,9.91,9.91,0,0,1-6.75.11,3.15,3.15,0,0,1-1.45,3,4.46,4.46,0,0,1-3.76.42.67.67,0,0,0-.24,0,.41.41,0,0,0-.27.15,8.26,8.26,0,0,1-.93.94,1.31,1.31,0,0,1-1.34.18,1.36,1.36,0,0,1-.5-.59,20.19,20.19,0,0,1-1.76-4.33,2.6,2.6,0,0,1-.07-1.58,2.91,2.91,0,0,1,.65-.89,53.06,53.06,0,0,0,4.89-5.2,22.53,22.53,0,0,0,1.73-2.91C224.88,87.75,226.16,85.57,225.87,85.19Z" style="fill:#37474f"></path><path d="M287.76,168.72a51.6,51.6,0,0,1-16.45,9A27.59,27.59,0,0,1,259.25,179c-4.29-.64-8.17-2.84-12.05-4.65a8.94,8.94,0,0,0-2.48-.87,8.71,8.71,0,0,0-3.35.39c-4.36,1.11-8.69,2.45-13.14,3.16-4.78.77-10.78,1.21-14.91-1.72-1.91-1.35-3.08-3.5-4.18-5.58-1.35-2.54-2.65-5.12-3.95-7.68a3.82,3.82,0,0,0-1.14-1.54c-1.31-.9-4.34.31-5.7.59a1.3,1.3,0,0,1-.52,0c-.46-.12-.58-.72-.59-1.19a16.93,16.93,0,0,1,3.59-10.64l-3.13.72c-.28.07-.64.1-.79-.14a.62.62,0,0,1,0-.48c.87-5.61,5.18-9.5,8.46-13.79a21.32,21.32,0,0,0,4-7.13q1.49-5.27,2.66-10.61c.7-3.15,1.34-6.39,3-9.17a23.81,23.81,0,0,1,7.32-7.19,69.05,69.05,0,0,1,18.5-9.08c6.77-2.14,13.47-3.59,20.53-1.88,19,4.6,28.51,9.78,33.89,29.14.51,1.92,2,17.55,2.78,19C299.89,151.64,295.92,162.25,287.76,168.72Z" style="fill:#455a64"></path><path d="M295.84,170.48c-9.93,7.87-24.3,14.24-35.17,7.82-.09,0-.63-1.7-.72-1.67s-7.71,1.87-16.19,4.1A59.32,59.32,0,0,1,231,182.67c-5.33.06-10.58-5.54-13.69-9.42-1.38-1.72-2.07-3.6-3.16-5.45-.27-.46-2.79-5.93-2.4-6l-5.33,1.07a1.3,1.3,0,0,1-.52,0c-.46-.12-.58-.72-.58-1.19a16.86,16.86,0,0,1,3.58-10.64l-3.13.72c-.28.06-.64.1-.79-.14a.72.72,0,0,1-.05-.48c.68-4.42,3.93-8,7.19-11s6.81-6.1,8.43-10.27a42.42,42.42,0,0,0,1.37-5c.81-3.17,1.77-6.26,2.53-9.46.5-2.13.94-4.92,2.36-6.67,7.77-9.62,26.51-20.34,42.55-16.44,19,4.6,28.51,9.78,33.89,29.14.52,1.91,2,17.55,2.79,19C308,153.4,304,164,295.84,170.48Z" style="fill:#455a64"></path><path d="M313.83,149c-.61-6.29-5.55-11.14-10.05-15.58s-9.14-9.77-8.89-16.08L249.83,171.7l4,8.9c.33.74.79,1.58,1.59,1.71a4,4,0,0,0,1.78-.47c3.3-1.14,6.13,2.68,9.51,3.54a10.64,10.64,0,0,0,9.87-2.71c2.7-2.48,5.53-6.64,9.19-6.5,1.28.05,2.52.47,3.8.45,2.55,0,4.8-1.89,6.05-4.12a22,22,0,0,0,2.09-7.33c3.59.54,6.84-2.76,7.59-6.31s-.32-7.2-1.38-10.67A82,82,0,0,0,313.83,149Z" style="fill:#455a64"></path><path d="M229.55,184.38a12.1,12.1,0,0,0,5.63,3.8,7.08,7.08,0,0,0,7.34-2.89c3.09,1.94,7.71,4.16,11.46,3.92a1.46,1.46,0,0,0,1-.37,1.51,1.51,0,0,0,.24-.86l.21-3.34a35.86,35.86,0,0,0,17.4.71q-2.93-4.08-5.87-8.15a33.39,33.39,0,0,1-4.35-7.3c-.42-1.08-.84-2.34-1.92-2.77a3.73,3.73,0,0,0-2,0A111.28,111.28,0,0,0,233,174.89c-2.84,1.25-5.81.92-8.76,1.89a4.67,4.67,0,0,0-1.4.68c-1.35,1.11-1.06,3.39.1,4.7a5.15,5.15,0,0,0,5.71,1.28Z" style="fill:#e0e0e0"></path><path d="M229.55,184.38a12.1,12.1,0,0,0,5.63,3.8,7.08,7.08,0,0,0,7.34-2.89c3.09,1.94,7.71,4.16,11.46,3.92a1.46,1.46,0,0,0,1-.37,1.51,1.51,0,0,0,.24-.86l.21-3.34a35.86,35.86,0,0,0,17.4.71q-2.93-4.08-5.87-8.15a33.39,33.39,0,0,1-4.35-7.3c-.42-1.08-.84-2.34-1.92-2.77a3.73,3.73,0,0,0-2,0A111.28,111.28,0,0,0,233,174.89c-2.84,1.25-5.81.92-8.76,1.89a4.67,4.67,0,0,0-1.4.68c-1.35,1.11-1.06,3.39.1,4.7a5.15,5.15,0,0,0,5.71,1.28Z" style="opacity:0.05"></path><path d="M208.14,172.23c.23.48.47,1,.71,1.44a8.19,8.19,0,0,0,1.79,2.57,8.43,8.43,0,0,0,2.64,1.38,30.4,30.4,0,0,0,8.19,2.29,25.62,25.62,0,0,0,7.34-.68c3.49-.72,6.93-1.66,10.33-2.72a15.73,15.73,0,0,1,4.09-.92c3.34-.12,6.24,1.9,9.3,2.92,1.49.5,2.85.91,4.21,0a3.84,3.84,0,0,0,1.84-3.91c1.19.61,5.05,2,5.77.27,1.23-2.91-2.09-7.64-3.32-10.22-1.86-3.86-4-10.66-6.21-14.33-4.94-8.2-16.12-12.16-16-15.29.21-10.4.77-17.07,3-23.21s10.08-13.43,7.57-14.08c-2-.5-13.47,8.79-15.23,11.89-2.1,3.69-7.89,20.82-11.88,24.1-2.35,1.94-10.92,4.95-11,5-.64.28-3.11,5.34-3.85,6.78a82.73,82.73,0,0,0-3.58,7.92,15,15,0,0,0-1.11,3.58c-.27,2.91,1.28,5.67,2.36,8.26C206,167.57,207,169.93,208.14,172.23Z" style="fill:#f5f5f5"></path><path d="M227.79,170.51a.84.84,0,0,0-.57.14c-4.33,2.26-11.07,1-13-3.84-.38-.92-.57-1.91-1-2.81a.79.79,0,0,0-.43-.48c-1.74-.49-.61,3.6-.43,4.28.74,2.69,3.78,4.46,6.35,5.09a12.52,12.52,0,0,0,5.38.11,7.2,7.2,0,0,0,2.5-1c.25-.16,1.74-1.26,1.3-1.49Z" style="opacity:0.05"></path><path d="M215,152.46l.19,0a8.53,8.53,0,0,1,2.62,1,8.27,8.27,0,0,1,1.74,1.55,7.62,7.62,0,0,1,1.76,2.74,3.67,3.67,0,0,1-1.44,4.37,26,26,0,0,1-6.05,3.19,7.19,7.19,0,0,1-4.9-.28,6.74,6.74,0,0,1-2.07-1.91,24.71,24.71,0,0,1-2.78-4.49,4.45,4.45,0,0,1-.54-1.76c-.09-2.83,3.83-5,6.27-5.16A18.73,18.73,0,0,1,215,152.46Z" style="fill:#263238"></path><path d="M281.14,77c.72-.93,1.59-1.95,2.76-2a3.85,3.85,0,0,1,2.28,1.09c3.26,2.59,8.48,5.37,10.91,8.74,2,2.79.67,8.12.29,11.47a206.81,206.81,0,0,1-5.05,27.42c-1.23.71-4.39-.45-5.59-1.21a154.67,154.67,0,0,1-19.21-14.27c-2.12-1.84-5.75-4.8-6.08-7.82s2.7-4.64,4.58-6.46A156.33,156.33,0,0,0,281.14,77Z" style="fill:#455a64"></path><path d="M278.34,85.37a2.17,2.17,0,0,1,0,.25A18.38,18.38,0,0,1,278,88.2a7.46,7.46,0,0,1-2.34,3.13L272.77,94a14,14,0,0,0-3.46,4.24.73.73,0,0,0-.08.46c.07.24.36.33.61.38a10.33,10.33,0,0,0,3.88,0c-.08.58-.15,1.16-.23,1.74a11.48,11.48,0,0,0-.11,3.65,4,4,0,0,0,2,3,1.93,1.93,0,0,0,1.31.2,2.93,2.93,0,0,0,1-.57l2-1.57a9.86,9.86,0,0,0,.91,4.87c.42.91,1.15,1.85,2.15,1.86s1.8-1.08,2.37-1.9c.73,1.18,2.84,4.74,4.64,3.68a3.15,3.15,0,0,0,1.06-1.3c2.51-4.81,2.91-10.26,3.86-15.5a9.39,9.39,0,0,1-3.09,2.76c-1.32.72-3,1.1-4.28.3a4.63,4.63,0,0,1-1.45-1.71,21.76,21.76,0,0,1-2.18-8.94c-.15-1.89-.22-3.79-.45-5.68a25.41,25.41,0,0,0-.79-4.86C280.65,80.91,278.81,82.9,278.34,85.37Z" style="fill:#37474f"></path><path d="M252.29,125.49a4.6,4.6,0,0,0-3.88,4.62c0,2.39,1.63,4.18,3.74,4A4.6,4.6,0,0,0,256,129.5C256.07,127.11,254.4,125.32,252.29,125.49Z" style="fill:#fff"></path><path d="M252.51,124.68a4.6,4.6,0,0,0-3.89,4.63c0,2.38,1.64,4.17,3.74,4a4.6,4.6,0,0,0,3.89-4.62C256.29,126.31,254.61,124.51,252.51,124.68Z" style="fill:#263238"></path><path d="M253.47,128.74a1.05,1.05,0,0,1-1.28-1,1.43,1.43,0,0,1,1-1.56,1.05,1.05,0,0,1,1.28,1A1.43,1.43,0,0,1,253.47,128.74Z" style="fill:#fafafa"></path><path d="M219.33,122.38a4.05,4.05,0,0,0-3.63,3.88,3.21,3.21,0,0,0,3.1,3.7,4.06,4.06,0,0,0,3.63-3.88A3.21,3.21,0,0,0,219.33,122.38Z" style="fill:#fff"></path><path d="M219.56,121.68a4.05,4.05,0,0,0-3.63,3.88,3.21,3.21,0,0,0,3.1,3.7,4,4,0,0,0,3.62-3.88A3.2,3.2,0,0,0,219.56,121.68Z" style="fill:#263238"></path><path d="M220.21,125.29a.92.92,0,0,1-1.08-.92,1.26,1.26,0,0,1,.93-1.32.93.93,0,0,1,1.09.92A1.26,1.26,0,0,1,220.21,125.29Z" style="fill:#fafafa"></path><path d="M307,156.33a20.16,20.16,0,0,0-2.24-7.16c-.18-.33-.43.16-.38.36a12.35,12.35,0,0,1,.63,4.92,18.28,18.28,0,0,1-1.73,5.79c-1.36,2.54-4.2,4.76-7.21,4.55-.86-.06-1.92.39-1.65,1.46a7.22,7.22,0,0,1-2.68,7.48,11.76,11.76,0,0,1-8.52,1.93c-2.45-.24-4.05,1.81-5.45,3.53a38.92,38.92,0,0,1-6.85,6.6,6.78,6.78,0,0,0,1.24-.08,10.23,10.23,0,0,0,1.73-.84,27.46,27.46,0,0,0,4.89-3.85c.72-.66,1.42-1.33,2.15-2a3.09,3.09,0,0,1,2.85-.92c3.59.38,7.46-.27,10.31-2.61a9.82,9.82,0,0,0,3.7-8,10.49,10.49,0,0,0,7.87-5.05A9.68,9.68,0,0,0,307,156.33Z" style="fill:#37474f"></path><path d="M344.91,199.1a8.37,8.37,0,0,0-1.26-4c-2.48-4.3-6.72-7.27-11-9.8-2-1.18-4.18-2.34-6.48-2.1.12.66.75,1.07,1.31,1.41a64.51,64.51,0,0,1,8.27,5.93c2.21,1.86,4.83,3.91,5.62,6.79a2.65,2.65,0,0,1-1.14,3.43,8.57,8.57,0,0,1-4,1.45c-.61.06-1.39.18-1.51.78s.4.95.82,1.29c1.1.9,1.95,2.38,1.49,3.73a3.11,3.11,0,0,1-2.31,1.89,7.54,7.54,0,0,1-3.1-.09c-.43-.08-.95-.15-1.24.18-.66.72.93,2,1.53,2.28a6.84,6.84,0,0,0,4.49.15,5.37,5.37,0,0,0,3.59-3.24,4.06,4.06,0,0,0-1.25-4.52,10.16,10.16,0,0,0,4.25-1.75A4.58,4.58,0,0,0,344.91,199.1Z" style="fill:#37474f"></path><path d="M302.93,286c-.19-.23-.79.14-1.36.27a4.83,4.83,0,0,1-3.89-.85,6.24,6.24,0,0,1-2.32-4.74,9.76,9.76,0,0,1-2.95,2.22,3.34,3.34,0,0,1-3.5-.41,3.53,3.53,0,0,1-.9-1.64,10.37,10.37,0,0,1-.22-3.85,28.36,28.36,0,0,1,1.56-7.1c.38-1.05.74-2.11,1.2-3.12s1.31-1.89,1.4-3c-.64-.16-1.22.4-1.63.92-3.76,4.82-6,11.1-4.88,17.11a6.2,6.2,0,0,0,2,3.9,5.48,5.48,0,0,0,5.36.25.53.53,0,0,1,.42-.06.48.48,0,0,1,.2.22,6.66,6.66,0,0,0,4.8,3.09,5,5,0,0,0,3.18-.6,3.42,3.42,0,0,0,1.53-1.88C303,286.36,303,286.14,302.93,286Z" style="fill:#37474f"></path><path d="M288,141.62a6.36,6.36,0,0,0-.89-1,3.39,3.39,0,0,0,.57-.13,6.22,6.22,0,0,0,1.84-.87c1.31-1.06.42-2.55-.53-3.54a25.85,25.85,0,0,0-3.68-3,17.6,17.6,0,0,0-4.69-2.58c-.42-.14-.34.7-.15.86,1.27,1.06,2.63,2,3.94,3,.63.48,1.24,1,1.84,1.48a6.28,6.28,0,0,1,1.47,1.34c.16.29.17.18,0,.44a2.85,2.85,0,0,1-1,.43,14,14,0,0,1-1.91.48,1.52,1.52,0,0,0-.78,2.67c.37.41.85.65,1.24,1a4.63,4.63,0,0,1,.95,1.58,5.28,5.28,0,0,1,.38,3.34,1.79,1.79,0,0,1-2.25,1.07,5.73,5.73,0,0,1-1.69-.9c-.55-.36-1.15-.57-1.7-.91a5,5,0,0,0-.83-.48c-.34-.14-.32.5-.27.65a5.75,5.75,0,0,0,.85,2.08,6.47,6.47,0,0,0,1.09,1,6,6,0,0,0,2.63,1.11,4.54,4.54,0,0,0,4.57-1.67c1-1.48.74-3.42.23-5A8.81,8.81,0,0,0,288,141.62Z" style="fill:#37474f"></path><path d="M439.53,325.66c3.62-.74,7.77-.9,10.82-3-7.05,14-25.59,19.16-39.72,20.29A51.09,51.09,0,0,0,417,327.42a83.07,83.07,0,0,0,1.44-24.54c3.17-6.74,4-13.76,6.1-20.74a8.18,8.18,0,0,1,4.2,5.69,31.75,31.75,0,0,0-.68-18.12C425.92,264,421.4,259,415.58,257c-4.65-1.53-9.44-.53-15.54.32-6.66.94-15.21,0-20.78-3.39,2.26-1.64,7.74-4.33,10.76-11.79a64.69,64.69,0,0,1-45.11,13.44c2.51.21,4.46-7.17,4.54-8.8.2-3.69-.09-7.48.43-11.24a39.44,39.44,0,0,1,11.86-23.21A72.79,72.79,0,0,0,346.59,222c2.88-7,5.86-14.27,11-19.85.28-.29.55-.59.85-.87a51.22,51.22,0,0,1,4.93-4.47c6.76-5.45,15-9.38,23.07-10.08,13.95-1.19,25.66.93,34.13,6.16a21.49,21.49,0,0,0-8.69-9.55c34.38,3.77,57.79,41.26,58.41,72.85C471.28,282.36,462.79,310.06,439.53,325.66Z" style="fill:#263238"></path><path d="M415.58,257a18.05,18.05,0,0,1,5.47,3c.39.3,2.63-3.63,2.75-4.07a6.86,6.86,0,0,0-.49-4.84,13,13,0,0,0-3-3.28,44.06,44.06,0,0,0,6.76-1c2.42-.54,5-1.4,6.45-3.38s1.28-5.37-1-6.42c5.37-.09,11.12-.31,15.43-3.51a5.23,5.23,0,0,0,1.76-2,5.7,5.7,0,0,0-.14-4.08c-1.29-3.93-3.71-6.52-6.58-9.34-1.63-1.6-6.34-7.09-9-6.69q6.76-1,13.44-2.52a8.87,8.87,0,0,0,4.3-1.82l.14-.15c-10.09-12.57-23.83-21.81-40-23.58a21.49,21.49,0,0,1,8.69,9.55c-8.47-5.23-20.18-7.35-34.13-6.16-8.11.7-16.31,4.63-23.07,10.08a51.22,51.22,0,0,0-4.93,4.47c-.3.28-.57.58-.85.87-5.18,5.58-8.16,12.81-11,19.85a72.79,72.79,0,0,1,15.15-9.66,39.44,39.44,0,0,0-11.86,23.21c-.52,3.76-.23,7.55-.43,11.24-.08,1.63-2,9-4.54,8.8A64.69,64.69,0,0,0,390,242.18c-3,7.46-8.5,10.15-10.76,11.79,5.57,3.39,14.12,4.33,20.78,3.39C406.14,256.51,410.93,255.51,415.58,257Z" style="fill:#f5f5f5"></path><path d="M379.26,254c5.57,3.39,14.12,4.33,20.78,3.39,6.1-.85,10.89-1.85,15.54-.32a18.05,18.05,0,0,1,5.47,3c.39.3,2.63-3.63,2.75-4.07a6.86,6.86,0,0,0-.49-4.84,13,13,0,0,0-3-3.28,44.06,44.06,0,0,0,6.76-1,11.54,11.54,0,0,0,6-2.86l-1.18.12a18.13,18.13,0,0,1-12.76-3.84c-1-.77-1.93-1.91-1.57-3.09-4.79,3.08-10.14,6.28-15.78,5.48a4.18,4.18,0,0,1-2.59-1.13,4.66,4.66,0,0,1-.7-3.69,26.54,26.54,0,0,1,1.68-6.67c-8.59-1.83-16.95,4.49-25.74,4.4-1.16,0-2.61-.39-2.8-1.53a2.77,2.77,0,0,1,.36-1.55l2.93-6.36a85.11,85.11,0,0,1-14.2,7.48c-1.95.81-4.43,1.47-6,.05a5.2,5.2,0,0,1-1.33-3.63,21.39,21.39,0,0,1,1.11-8.25,39.12,39.12,0,0,0-4.6,13.81c-.52,3.76-.23,7.55-.43,11.24-.08,1.63-2,9-4.54,8.8A64.69,64.69,0,0,0,390,242.18C387,249.64,381.52,252.33,379.26,254Z" style="fill:#e0e0e0"></path></g></g><g id="freepik--Cat--inject-102"><g id="freepik--cat--inject-102"><path d="M170.82,320c-5,50,11.44,62.68,16.11,64.13s10.93,1.9,14.51-3.75-7.85-8.88-7.85-8.88c-3.79-13.2.55-33.5,5.19-41.1,6.71-11,10-29.31,5-43.56S171.56,295,170.82,320Z" style="fill:#37474f"></path><path d="M192.74,367.75h0a38.31,38.31,0,0,0,.85,3.76,11,11,0,0,0-9.63,2.13S182.1,368.24,192.74,367.75Z" style="fill:#263238"></path><path d="M190.15,377.18a.61.61,0,0,1,.27,0,6.37,6.37,0,0,1,2.4.55,5.58,5.58,0,0,1,2.51,2.92,6.79,6.79,0,0,1,.33,3.6c0,.17-.07.35-.11.52a10.65,10.65,0,0,1-1.85.3c0-.15.09-.29.13-.45a5.77,5.77,0,0,0-.18-3,8.69,8.69,0,0,0-3.5-4.12.26.26,0,0,1-.09-.09.14.14,0,0,1,0-.15A.16.16,0,0,1,190.15,377.18Z" style="fill:#263238"></path><path d="M199.29,382.85a8.68,8.68,0,0,0-.09-2.16,8.55,8.55,0,0,0-2.51-4.76c-.12-.12-.26-.25-.23-.43.13-.5,2.23.94,2.45,1.14a6.49,6.49,0,0,1,1.77,3,7.27,7.27,0,0,1,.26,1.44A10,10,0,0,1,199.29,382.85Z" style="fill:#263238"></path><path d="M84.57,340c-9.91-2.59-18.08-8.49-25.18-15.69-1.5-1.52-3-3.08-4.33-4.72-14.75-17.73-15.37-44.4-1-62.43,5.85-7.33,13.44-13.1,21.51-17.87,6-3.52,11.88-5.66,16.61-10.8,4.27-4.63,4.06-10.28,2.66-14.33a30.25,30.25,0,0,1,16.07,18.56c2.87,9.63.36,19.89-5.63,27.77-7.43,9.78-18.15,16.62-25,26.67-6.26,9.19-7.9,21.31-2.89,31.44a29.2,29.2,0,0,0,21.21,15.45,5.54,5.54,0,0,1,2.94,1c1.38,1.27.84,3.73-.61,4.91a8.5,8.5,0,0,1-5.32,1.4A41.89,41.89,0,0,1,84.57,340Z" style="fill:#37474f"></path><path d="M110.94,232.74c2.87,9.63.36,19.89-5.63,27.77-1.06,1.4-2.19,2.73-3.37,4a24.57,24.57,0,0,0,2.5-8.8c-.17,1.94-9.78,9.1-10.37,7.51a1.61,1.61,0,0,1,.08-1c1.18-3.74,3-7,3.47-10.92-5.29,2.7-9.76,6.93-15.35,8.92-.36.13-.85.21-1.06-.11a.8.8,0,0,1-.07-.59,11.54,11.54,0,0,1,1.25-3.39,77.1,77.1,0,0,1,6.67-10.82,72.21,72.21,0,0,0-10.47,6.07c-1.48,1-3.16,2.18-4.93,1.82a13,13,0,0,1,3.84-8.9,104.9,104.9,0,0,0-22,11.19A80.12,80.12,0,0,1,75.6,239.31c6-3.52,11.88-5.66,16.61-10.8,4.27-4.63,4.06-10.28,2.66-14.33A30.25,30.25,0,0,1,110.94,232.74Z" style="fill:#f5f5f5"></path><path d="M123.74,367.46c8.52,4,23.63,2.71,29.56-8.39s6.22-37.77-9.33-42.88S109.93,351,123.74,367.46Z" style="fill:#455a64"></path><path d="M119.44,357.86l6.27-23.37a24.2,24.2,0,0,0-4.2-6.41c.35-1.22.72-2.43,1.11-3.61a29.16,29.16,0,0,1,7.72,9.1c7,13.07,2.66,30.24,2.66,30.24s5.14,4.18,14.66-5.54c4.12-4.21,6.89-10,8.7-15.19-.21,6.75-1.28,12.65-3.06,16-5.93,11.1-21,12.42-29.56,8.39A22,22,0,0,1,119.44,357.86Z" style="fill:#37474f"></path><path d="M193.62,249.79c-6,13,16.09,30,10.44,55.33-4.22,18.92-25.8,30.42-31.54,37.23s-8.88,26.68-4.69,39.77c0,0,11.51,2.87,8.11,8.63s-9.68,5.49-14.39,4.19S138,380.55,138.79,330.57c0,0-10.06-6.54-13.08,3.92a40.27,40.27,0,0,1,3.61,17.35c-.29,8.38-5.58,15.62-5.58,15.62a46.29,46.29,0,0,1,10.46.79c4.45,1,5.5,5,4.45,7.58s-6,5.24-11,4.19-28.84-5.71-40.55-19.36-16.37-36.5-9.23-49.82c9.36-17.46,17.67-23.31,48.87-38.31,13.45-6.46,19.31-17.23,19.83-28.56Z" style="fill:#455a64"></path><path d="M204.23,290.07a10.37,10.37,0,0,0-2.93-2.32,17.22,17.22,0,0,1,.26,11.94,31.38,31.38,0,0,1-2,4.17,15.11,15.11,0,0,0-1-3.87c.49,1.78-.44,5.12-.95,6.51a50.22,50.22,0,0,1-12.53,18.08c2-4.24,1.45-9.49-1.38-12.71l-.6,4.52c-3.14-1.51-4.72-4.56-6.48-7.36-1.06-1.68-3.39-7.89-1.32-9.63a7.09,7.09,0,0,0-2.47,4.75c-.06.79-.3,1.89-1.09,1.81a1.27,1.27,0,0,1-.73-.42c-8.13-7.56-11.84-22.34-3-37,2-3.26,26.18-4,27.32-3.09,4.22,3.24,4.84,4.52,6.2,7,1.81,3.32,3,6.53,3.29,12.64A21.62,21.62,0,0,1,204.23,290.07Z" style="fill:#fafafa"></path><path d="M193.62,249.79l-47-5.82a33.25,33.25,0,0,1-3.32,13c3.79,4.58,11.71,8.13,15.87,9.42a61.52,61.52,0,0,0,27.28,2.35,23.3,23.3,0,0,0,2.87-.63,27,27,0,0,0,6.13-2.68C192.94,259.56,191.5,254.41,193.62,249.79Z" style="fill:#BA68C8"></path><path d="M108.63,317.77a32.83,32.83,0,0,1,19.52,12.37,11.61,11.61,0,0,0-2.44,4.35C121.77,325.12,108.63,317.77,108.63,317.77Z" style="fill:#37474f"></path><path d="M145.54,375.53a152.81,152.81,0,0,1-9.12-46.69c.61-15.84,5.59-18,5.59-18s-2.92,6.25-3.22,19.73C138.79,330.57,138.92,346.82,145.54,375.53Z" style="fill:#37474f"></path><path d="M166.86,378.38h0a38.57,38.57,0,0,0,1,3.74,11,11,0,0,0-9.57,2.41S156.24,379.19,166.86,378.38Z" style="fill:#37474f"></path><path d="M117,371.71a14.06,14.06,0,0,0,6.73-4.25,54,54,0,0,1,6.21.15C125.38,373.2,117,371.71,117,371.71Z" style="fill:#37474f"></path><path d="M164.56,387.88a.57.57,0,0,1,.26,0,6.08,6.08,0,0,1,2.42.48,5.53,5.53,0,0,1,2.6,2.83,6.79,6.79,0,0,1,.44,3.59l-.09.53a11.82,11.82,0,0,1-1.85.35c0-.15.09-.29.12-.45a5.78,5.78,0,0,0-.27-3,8.66,8.66,0,0,0-3.63-4l-.08-.08a.15.15,0,0,1,0-.16A.16.16,0,0,1,164.56,387.88Z" style="fill:#263238"></path><path d="M173.87,393.27a9.13,9.13,0,0,0-.16-2.15,8.63,8.63,0,0,0-2.66-4.69c-.12-.11-.26-.24-.23-.42.11-.51,2.25.88,2.48,1.07a6.5,6.5,0,0,1,1.86,2.95,7.84,7.84,0,0,1,.3,1.44A10,10,0,0,1,173.87,393.27Z" style="fill:#263238"></path><path d="M128.59,374.22a.58.58,0,0,1,.25-.12,6.33,6.33,0,0,1,2.45-.21,5.59,5.59,0,0,1,3.28,2,6.61,6.61,0,0,1,1.3,2.77,11.16,11.16,0,0,1-1.63.78,5.88,5.88,0,0,0-1-2.08,8.61,8.61,0,0,0-4.6-2.86.24.24,0,0,1-.1-.05.17.17,0,0,1,0-.15A.19.19,0,0,1,128.59,374.22Z" style="fill:#263238"></path><path d="M138,376.91a8.82,8.82,0,0,0-.73-1.93,8.64,8.64,0,0,0-3.85-3.76c-.15-.08-.32-.17-.35-.35,0-.51,2.42.22,2.68.34a6.52,6.52,0,0,1,2.61,2.33,6.92,6.92,0,0,1,.6,1.1,5.07,5.07,0,0,1-.31,1.19A4.09,4.09,0,0,1,138,376.91Z" style="fill:#263238"></path><path d="M173.14,318.75s1.42,17.24-3.06,27.57h0a18,18,0,0,1,2.44-4,35.74,35.74,0,0,1,4.43-4.13A58.38,58.38,0,0,0,173.14,318.75Z" style="fill:#37474f"></path><path d="M142.14,219.86c-4.31-7.57-3.13-25.26,3.26-28.84,6-3.39,19.93,14.4,19.93,14.4S153.91,218,142.14,219.86Z" style="fill:#37474f"></path><path d="M149.43,215.31c8-4.67,15.9-9.89,15.9-9.89s-13.26-16.91-18.21-14.08C144,192.67,140.82,202.59,149.43,215.31Z" style="fill:#ffa8a7"></path><path d="M160.76,205.7a7.86,7.86,0,0,1-3.28-3,8.26,8.26,0,0,1-1.52-4.94c-3,2.05-4.23,7-4.23,7-4.35-.69-4.07-5-4.07-5-2.22,2.39-2.14,8.41,1.67,11.54a10.49,10.49,0,0,0,6-1C158.76,208.65,160.53,206.9,160.76,205.7Z" style="fill:#f28f8f"></path><path d="M151.64,212.36c-2.86-2-4.65-6.2-3.44-9.11,0,0,2,2.49,4.27,2.58,0,0,1.13-8.23,5.69-9.49,0,0-1,5.42,3,8.37C162.46,212.36,151.64,212.36,151.64,212.36Z" style="fill:#455a64"></path><path d="M176.34,201.74c4-6.65,15.5-13.2,22.45-8.34,3.92,2.74-3.71,22.19-3.71,22.19S182,210.32,176.34,201.74Z" style="fill:#37474f"></path><path d="M181.91,207.17c6.42,4.4,13.17,8.42,13.17,8.42s7.63-19.45,3.71-22.19C196.12,192.14,188.11,194.89,181.91,207.17Z" style="fill:#ffa8a7"></path><path d="M194.29,211.28a8.41,8.41,0,0,1,1.63-2.23c.43-1.23.9-2.67,1.35-4.18a14.47,14.47,0,0,0-6.27-1.5c-.14-2.14,1.79-4.29,1.79-4.29-2.58-.74-6.86,1.78-7.76,6.15a13.3,13.3,0,0,0,2.83,4.47c1.42.75,2.71,1.39,3.77,1.89A6.05,6.05,0,0,0,194.29,211.28Z" style="fill:#f28f8f"></path><path d="M186.13,206.73c.86-3,3.74-5.8,6.33-5.63,0,0-1.47,2.42-1,4.41,0,0,6.76-1.47,8.88,2.05,0,0-4.51.75-5.84,5.07C188.82,216,186.13,206.73,186.13,206.73Z" style="fill:#455a64"></path><path d="M173.65,201.25a36.25,36.25,0,0,1,20.1,9,58.72,58.72,0,0,1,12.78,16.26,36.65,36.65,0,0,1,3.9,8.52,20.34,20.34,0,0,1-.21,10.89,13.88,13.88,0,0,0-1.81-4.18,11.81,11.81,0,0,1-1.2,6.21,6.78,6.78,0,0,0-.75-2.66,15.81,15.81,0,0,1-1.3,2c-.57.84-1.16,1.65-1.78,2.45a39,39,0,0,1-4.23,4.57,27.07,27.07,0,0,1-10.61,6.27,21.16,21.16,0,0,1-2.51.55,53.69,53.69,0,0,1-23.78-2.05,60.79,60.79,0,0,1-10.52-4.37c-1.4-.75-6.2-4.17-6.39-6.51a2.92,2.92,0,0,0-1.74,2.44,10.1,10.1,0,0,1-3.11-11.16,10.35,10.35,0,0,0-4,4.46c-1.83-2.23-2.13-5.34-1.92-8.21.36-4.88,2.75-8.93,5.33-12.95C147.14,211.5,159.81,201.85,173.65,201.25Z" style="fill:#455a64"></path><path d="M206.46,245.31A33,33,0,0,1,204,249a33.4,33.4,0,0,1-2.81,3.48,32.9,32.9,0,0,1-6.86,5.75,22.57,22.57,0,0,1-8.38,3.18,48,48,0,0,1-9,.54,57.71,57.71,0,0,1-17.57-3.45,56.17,56.17,0,0,1-8.2-3.68,25.4,25.4,0,0,1-3.61-2.74,14.54,14.54,0,0,1-1.56-1.67,4.57,4.57,0,0,1-1-2.16l.44.27a2.6,2.6,0,0,0-1.55,2.16l0,.6-.46-.37a10.33,10.33,0,0,1-3.16-11.5l.38.32a10.07,10.07,0,0,0-4,4.33l-.15.32-.23-.28a9.74,9.74,0,0,1-1.93-5.4,18.6,18.6,0,0,1,.48-5.71c.92-3.73,3-7,5-10.19-2,3.21-4,6.55-4.78,10.25a19,19,0,0,0-.36,5.62,9.29,9.29,0,0,0,1.9,5.15l-.38,0a10.58,10.58,0,0,1,4.11-4.58l.65-.4-.27.72a9.84,9.84,0,0,0,3,10.82l-.5.22a3.22,3.22,0,0,1,1.93-2.71l.38-.16.06.43a3.94,3.94,0,0,0,.89,1.81,13.21,13.21,0,0,0,1.5,1.59,23.69,23.69,0,0,0,3.51,2.64,61.1,61.1,0,0,0,8.08,3.63A57.33,57.33,0,0,0,177,261.39a51.44,51.44,0,0,0,8.86-.43,25.34,25.34,0,0,0,4.28-1.09,24.76,24.76,0,0,0,4-1.93,34.19,34.19,0,0,0,6.9-5.57,31.16,31.16,0,0,0,2.89-3.39A34.32,34.32,0,0,0,206.46,245.31Z" style="fill:#263238"></path><path d="M175,238c8.39-4.83,4-25.68,4-25.68,4.38,9.1,6,19.92,14.68,23.49,7.54,3.1,11.58,5.63,9.74,13.89-3.92,5.72-10,11.13-17.18,12-6.21.8-13.9.42-23.09-2.37C159.22,248.34,164.38,244.14,175,238Z" style="fill:#fafafa"></path><path d="M165.37,230.12a3.61,3.61,0,1,0,4.11-3A3.62,3.62,0,0,0,165.37,230.12Z" style="fill:#fff"></path><path d="M164.75,229.83a3.61,3.61,0,1,0,4.11-3A3.61,3.61,0,0,0,164.75,229.83Z" style="fill:#263238"></path><path d="M168.31,229.39a1.08,1.08,0,1,1-1.08-1.08A1.08,1.08,0,0,1,168.31,229.39Z" style="fill:#fafafa"></path><path d="M190.46,227.94a3.33,3.33,0,1,0,3.8-2.79A3.32,3.32,0,0,0,190.46,227.94Z" style="fill:#fff"></path><path d="M189.89,227.67a3.33,3.33,0,1,0,3.79-2.79A3.33,3.33,0,0,0,189.89,227.67Z" style="fill:#263238"></path><path d="M193.18,227.26a1,1,0,1,1-1-1A1,1,0,0,1,193.18,227.26Z" style="fill:#fafafa"></path><path d="M161.85,243.35l.05,0a.61.61,0,0,0,.16-.82c-1.76-2.95-5.05-6.32-10.72-5.64a.57.57,0,0,0-.48.65.59.59,0,0,0,.63.53c5.08-.61,8,2.43,9.63,5.09A.56.56,0,0,0,161.85,243.35Z" style="fill:#263238"></path><path d="M160.26,244.76a.79.79,0,0,0,.15-.12.63.63,0,0,0,0-.84,9.9,9.9,0,0,0-7.79-2.36.6.6,0,0,0,.23,1.17,8.74,8.74,0,0,1,6.79,2A.54.54,0,0,0,160.26,244.76Z" style="fill:#263238"></path><path d="M160.48,247.21a.56.56,0,0,0,.23-.27.61.61,0,0,0-.28-.79,11.4,11.4,0,0,0-10.51.85.61.61,0,0,0-.19.82.56.56,0,0,0,.76.22h0a10.3,10.3,0,0,1,9.48-.81A.52.52,0,0,0,160.48,247.21Z" style="fill:#263238"></path><path d="M203.83,237.15l-.05,0a.62.62,0,0,1-.33-.77c1.15-3.24,3.71-7.19,9.4-7.65a.56.56,0,0,1,.6.55.58.58,0,0,1-.51.64c-5.1.41-7.41,4-8.44,6.89A.55.55,0,0,1,203.83,237.15Z" style="fill:#263238"></path><path d="M205.67,238.22a.53.53,0,0,1-.17-.08.62.62,0,0,1-.15-.83,9.9,9.9,0,0,1,7.17-3.86.58.58,0,0,1,.56.59.57.57,0,0,1-.55.6,8.73,8.73,0,0,0-6.25,3.35A.54.54,0,0,1,205.67,238.22Z" style="fill:#263238"></path><path d="M205.93,240.66a.54.54,0,0,1-.28-.22.62.62,0,0,1,.13-.83,11.4,11.4,0,0,1,10.47-1.23.61.61,0,0,1,.34.76.56.56,0,0,1-.7.37h0a10.28,10.28,0,0,0-9.45,1.08A.54.54,0,0,1,205.93,240.66Z" style="fill:#263238"></path><path d="M194.09,246.87a.68.68,0,0,0-.89-.36,4.25,4.25,0,0,1-4.08-.13,6.28,6.28,0,0,1-2.6-3.91c0-.19-.05-.37-.08-.56a.68.68,0,0,0-1.35.16,4.94,4.94,0,0,0,.08.63,5.69,5.69,0,0,1-2.89,5.92c-2.13,1.15-4.82,1-6.26-.33a.68.68,0,0,0-1,0,.69.69,0,0,0,0,1,6.1,6.1,0,0,0,4.15,1.45,7.81,7.81,0,0,0,3.68-.92,6.65,6.65,0,0,0,3.42-4.32,6.86,6.86,0,0,0,2.07,2.05,5.58,5.58,0,0,0,5.32.22A.68.68,0,0,0,194.09,246.87Z" style="fill:#263238"></path><path d="M185.9,243.66c1-.07,3.31-2.36,3.4-3.94s-7.74-.52-7.75.72C181.54,242.21,184.93,243.73,185.9,243.66Z" style="fill:#f28f8f"></path></g></g><g id="freepik--food-2--inject-102"><g id="freepik--Food--inject-102"><path d="M469.52,394.62h0l-4.75-19.23H440.86a70.57,70.57,0,0,0-23.91,0h-23.9l-4.76,19.23h0c-1.81,7.16,2,14.7,11.59,20.2,16,9.26,42,9.26,58.05,0C467.47,409.32,471.33,401.78,469.52,394.62Z" style="fill:#BA68C8"></path><path d="M469.52,394.62h0l-4.75-19.23H440.86a70.57,70.57,0,0,0-23.91,0h-23.9l-4.76,19.23h0c-1.81,7.16,2,14.7,11.59,20.2,16,9.26,42,9.26,58.05,0C467.47,409.32,471.33,401.78,469.52,394.62Z" style="opacity:0.1"></path><ellipse cx="428.91" cy="378.35" rx="36.22" ry="20.91" style="fill:#BA68C8"></ellipse><ellipse cx="428.91" cy="378.35" rx="36.22" ry="20.91" style="fill:#fff;opacity:0.5"></ellipse><path d="M406.59,390.53c12.28,6.82,32.18,6.82,44.46,0s12.27-17.85,0-24.66-32.18-6.81-44.46,0S394.31,383.72,406.59,390.53Z" style="fill:#BA68C8;opacity:0.7000000000000001"></path><path d="M460.22,379.05a7.61,7.61,0,0,0-6.38-3.38c-.22,0-.43,0-.65,0a3.57,3.57,0,0,0,.09-.8,4.18,4.18,0,0,0-4.26-4.09,4.28,4.28,0,0,0-3.63,2,7.46,7.46,0,0,0-7.31-5.54,7.75,7.75,0,0,0-4.87,1.71,4.26,4.26,0,0,0-8.43.65,4.26,4.26,0,0,0,.08.8,7.72,7.72,0,0,0-8.5,2.52,4.26,4.26,0,0,0-3.71-2.13,4.17,4.17,0,0,0-4.25,4.09,3.44,3.44,0,0,0,.05.45,7.76,7.76,0,0,0-3.53-.85,7.48,7.48,0,0,0-7.34,5.62c.75,3.8,3.75,7.5,9,10.41,12.28,6.82,32.18,6.82,44.46,0C456.79,387.35,459.85,383.23,460.22,379.05Z" style="fill:#b16668"></path><path d="M409.31,387.25a3.87,3.87,0,0,1-.51-5,4.26,4.26,0,0,1,5.78-1.12,3.92,3.92,0,0,1,1.83,2.88,3.86,3.86,0,0,0-1.16-1.15,4.08,4.08,0,0,0-5.5,1.07A3.67,3.67,0,0,0,409.31,387.25Z" style="fill:#9a4a4d"></path><path d="M428,387.76a4.19,4.19,0,0,1,8.3.06,3.9,3.9,0,0,1-1.18,3.18,3.68,3.68,0,0,0,.2-1.59,3.93,3.93,0,0,0-4.33-3.43A4,4,0,0,0,428,387.76Z" style="fill:#9a4a4d"></path><path d="M413.88,382.07a3.33,3.33,0,0,1-.44-4.32,3.67,3.67,0,0,1,5-1,3.39,3.39,0,0,1,1.57,2.47,3.23,3.23,0,0,0-1-1,3.49,3.49,0,0,0-4.72.92A3.15,3.15,0,0,0,413.88,382.07Z" style="fill:#9a4a4d"></path><path d="M435.67,388.18a3.37,3.37,0,0,1,1.43-4.12,3.67,3.67,0,0,1,4.95,1.07,3.25,3.25,0,0,1,.38,2.87,3.05,3.05,0,0,0-.49-1.29,3.48,3.48,0,0,0-4.7-1A3.26,3.26,0,0,0,435.67,388.18Z" style="fill:#9a4a4d"></path><path d="M427.86,378.54a3.38,3.38,0,0,1,1.44-4.12,3.66,3.66,0,0,1,4.94,1.07,3.28,3.28,0,0,1,.39,2.87,3.25,3.25,0,0,0-.49-1.29,3.49,3.49,0,0,0-4.7-1A3.28,3.28,0,0,0,427.86,378.54Z" style="fill:#9a4a4d"></path><path d="M433.82,376.21a2.71,2.71,0,0,1,1.15-3.3,2.94,2.94,0,0,1,4,.86,2.64,2.64,0,0,1,.31,2.3,2.43,2.43,0,0,0-.4-1,2.79,2.79,0,0,0-3.76-.81A2.58,2.58,0,0,0,433.82,376.21Z" style="fill:#9a4a4d"></path></g></g><g id="freepik--food-1--inject-102"><g id="freepik--food--inject-102"><path d="M115.11,394.62h0l-4.75-19.23H86.45a70.57,70.57,0,0,0-23.91,0H38.64l-4.76,19.23h0c-1.81,7.16,2,14.7,11.59,20.2,16,9.26,42,9.26,58.05,0C113.06,409.32,116.92,401.78,115.11,394.62Z" style="fill:#BA68C8"></path><path d="M115.11,394.62h0l-4.75-19.23H86.45a70.57,70.57,0,0,0-23.91,0H38.64l-4.76,19.23h0c-1.81,7.16,2,14.7,11.59,20.2,16,9.26,42,9.26,58.05,0C113.06,409.32,116.92,401.78,115.11,394.62Z" style="opacity:0.1"></path><ellipse cx="74.5" cy="378.35" rx="36.22" ry="20.91" style="fill:#BA68C8"></ellipse><ellipse cx="74.5" cy="378.35" rx="36.22" ry="20.91" style="fill:#fff;opacity:0.5"></ellipse><path d="M52.18,390.53c12.28,6.82,32.18,6.82,44.46,0s12.27-17.85,0-24.66-32.18-6.81-44.46,0S39.9,383.72,52.18,390.53Z" style="fill:#BA68C8;opacity:0.7000000000000001"></path><path d="M105.81,379.05a7.61,7.61,0,0,0-6.37-3.38c-.23,0-.44,0-.66,0a3.57,3.57,0,0,0,.09-.8,4.18,4.18,0,0,0-4.26-4.09,4.28,4.28,0,0,0-3.63,2,7.46,7.46,0,0,0-7.31-5.54A7.75,7.75,0,0,0,78.8,369a4.26,4.26,0,0,0-8.43.65,4.26,4.26,0,0,0,.08.8,7.72,7.72,0,0,0-8.5,2.52,4.26,4.26,0,0,0-3.71-2.13A4.17,4.17,0,0,0,54,374.9a3.44,3.44,0,0,0,0,.45,7.76,7.76,0,0,0-3.53-.85,7.48,7.48,0,0,0-7.34,5.62c.75,3.8,3.75,7.5,9,10.41,12.28,6.82,32.18,6.82,44.46,0C102.38,387.35,105.44,383.23,105.81,379.05Z" style="fill:#b16668"></path><path d="M54.9,387.25a3.88,3.88,0,0,1-.51-5,4.26,4.26,0,0,1,5.78-1.12A3.92,3.92,0,0,1,62,384a3.86,3.86,0,0,0-1.16-1.15,4.06,4.06,0,0,0-5.49,1.07A3.67,3.67,0,0,0,54.9,387.25Z" style="fill:#9a4a4d"></path><path d="M73.54,387.76a4.19,4.19,0,0,1,8.3.06A3.87,3.87,0,0,1,80.66,391a3.68,3.68,0,0,0,.2-1.59A3.93,3.93,0,0,0,76.53,386,4,4,0,0,0,73.54,387.76Z" style="fill:#9a4a4d"></path><path d="M59.47,382.07a3.33,3.33,0,0,1-.44-4.32,3.67,3.67,0,0,1,5-1,3.39,3.39,0,0,1,1.57,2.47,3.23,3.23,0,0,0-1-1,3.49,3.49,0,0,0-4.72.92A3.15,3.15,0,0,0,59.47,382.07Z" style="fill:#9a4a4d"></path><path d="M81.26,388.18a3.37,3.37,0,0,1,1.43-4.12,3.67,3.67,0,0,1,5,1.07A3.28,3.28,0,0,1,88,388a3.21,3.21,0,0,0-.5-1.29,3.48,3.48,0,0,0-4.7-1A3.26,3.26,0,0,0,81.26,388.18Z" style="fill:#9a4a4d"></path><path d="M73.45,378.54a3.39,3.39,0,0,1,1.44-4.12,3.66,3.66,0,0,1,4.94,1.07,3.28,3.28,0,0,1,.39,2.87,3.25,3.25,0,0,0-.49-1.29,3.49,3.49,0,0,0-4.7-1A3.28,3.28,0,0,0,73.45,378.54Z" style="fill:#9a4a4d"></path><path d="M79.41,376.21a2.71,2.71,0,0,1,1.15-3.3,2.94,2.94,0,0,1,4,.86,2.64,2.64,0,0,1,.31,2.3,2.43,2.43,0,0,0-.4-1,2.79,2.79,0,0,0-3.76-.81A2.61,2.61,0,0,0,79.41,376.21Z" style="fill:#9a4a4d"></path></g></g><g id="freepik--speech-bubble--inject-102"><g id="freepik--speech-bubble--inject-102"><g id="freepik--speech-bubble--inject-102"><path d="M103.58,145.55a40.69,40.69,0,0,0,27.62,11.67l4.67-.15a40.79,40.79,0,0,0-.69-81.32l-4.67-.08a40.8,40.8,0,0,0-26.93,69.88Z" style="fill:#fafafa"></path><path d="M101.16,148a44.33,44.33,0,0,0,57,4.28l12.64,5.45a2.57,2.57,0,0,0,3.36-3.42l-5.66-12.54A44.29,44.29,0,1,0,101.16,148Zm1.93-60.21a40.7,40.7,0,0,1,27.42-12.14l4.67.08a40.79,40.79,0,0,1,.69,81.32l-4.67.15a40.8,40.8,0,0,1-28.11-69.41Z" style="fill:#e0e0e0"></path></g><path id="freepik--Heart--inject-102" d="M132.2,141.5c28.79-15.34,31.11-31.79,22.74-39.84-7.5-7.2-21.21-2.45-22.74,7.85-1.52-10.3-15.24-15.05-22.73-7.85C101.1,109.71,103.42,126.16,132.2,141.5Z" style="fill:#BA68C8"></path></g></g></svg>
