<svg xmlns="http://www.w3.org/2000/svg" viewBox="0 0 500 500" xmlns:xlink="http://www.w3.org/1999/xlink"><defs><path id="a" d="M500 0v500H0V0z"/><path id="c" fill="#000" d="M416.8 343.5h33.1v.2h-33.1zm-94.3 2.7h8.7v.3h-8.7zm74.1-12h19.2v.3h-19.2zm-344.1 1.7h43.2v.2H52.5zm52.1 0h6.3v.2h-6.3zm26.9 4.2h93.7v.3h-93.7zM237 282.8H44a5.7 5.7 0 0 1-5.8-5.7V5.7C38.2 2.5 40.8 0 44 0h193c3.2 0 5.7 2.6 5.7 5.7v271.4c0 3.1-2.5 5.7-5.7 5.7M44 .2c-3 0-5.5 2.4-5.5 5.5V277c0 3 2.4 5.4 5.4 5.4H237c3 0 5.5-2.4 5.5-5.4V5.7c0-3-2.5-5.5-5.5-5.5zm409.3 282.6h-193a5.7 5.7 0 0 1-5.8-5.7V5.7c0-3.2 2.6-5.7 5.7-5.7h193.1c3.1 0 5.7 2.5 5.7 5.7V277c0 3.1-2.5 5.7-5.7 5.7M260.3.2a5.6 5.6 0 0 0-5.6 5.5V277c0 3 2.5 5.4 5.5 5.4h193.1c3 0 5.5-2.4 5.5-5.4V5.7c0-3-2.5-5.5-5.5-5.5zM0 327.4h500v.3H0z"/><path id="d" fill="#727272" d="m140.7 161.5 3.2-1.7-.6 3.5 2.5 2.5-3.5.5-1.6 3.2-1.5-3.2-3.5-.5 2.5-2.5-.6-3.5z"/><path id="e" fill="#000" d="M320.2 86.9c-22.5-7-40-20.6 4-39 44-18.6 32.4 39.7 67 43.8 34.4 4.1 55 14.7 13.7 35.4-41.4 20.6-31.6-23.7-84.7-40.2"/><path id="f" fill="#000" d="m150.3 27 4.5-2.3-.9 5 3.7 3.6-5 .8-2.3 4.6L148 34l-5-.8 3.6-3.6-.9-5zm277.6 164.1 9-4.7-1.7 10 7.4 7.2-10.2 1.5-4.5 9.2-4.6-9.2-10.1-1.5 7.3-7.1-1.7-10.2z"/><path id="g" fill="#9B9B9B" d="m351.4 25.7 6-3.2-1.2 6.6 4.8 4.7-6.6 1-3 6-3-6-6.6-1 4.8-4.7-1.1-6.6z"/><path id="h" fill="#000" d="m65.3 129.3 3.2-1.7-.6 3.5 2.5 2.5-3.5.5-1.6 3.2-1.5-3.2-3.5-.5 2.5-2.5-.6-3.5zm39-40.5 3.2-1.6-.6 3.5 2.5 2.5-3.5.5-1.6 3.1-1.5-3.1-3.5-.5 2.5-2.5-.6-3.5zm300.6-30.9 3.1-1.7-.6 3.5 2.6 2.5-3.5.5-1.6 3.2-1.6-3.2-3.5-.5 2.6-2.5-.6-3.5z"/><path id="i" fill="#4B4B4B" d="m331.5 76.8 3-1.7-.5 3.5 2.5 2.5-3.5.5-1.6 3.2-1.5-3.2-3.5-.5 2.5-2.5-.6-3.5z"/><path id="j" fill="#363636" d="m334.9 60-1.8 1 .3-2-1.5-1.4 2-.3 1-1.9 1 1.9 2 .3-1.5 1.4.3 2zM222 46l-2 1 .4-2-1.5-1.5 2.1-.2 1-1.9.8 1.9 2 .3-1.4 1.4.3 2z"/><path id="k" fill="#4B4B4B" d="m399.7 118 3.2-1.7-.6 3.5 2.5 2.5-3.5.5-1.6 3.2-1.6-3.2-3.5-.5 2.6-2.5-.6-3.5z"/><path id="l" fill="#000" d="m367 303.7 3-1.6-.5 3.5 2.5 2.5-3.5.5-1.6 3.1-1.5-3.1-3.5-.5 2.5-2.5-.6-3.5z"/><path id="m" fill="#9B9B9B" d="m296.4 34 3.2-1.7-.6 3.6 2.6 2.5-3.6.5-1.6 3.3-1.6-3.3-3.7-.5 2.6-2.5-.6-3.6z"/><path id="n" fill="#000" d="M54 207.7c10.6-8.7 51-38.5 53.9-8.8 3 29.8 53.6 27.1 32.3 38-21.2 10.7-108.6-10.7-86.1-29.2"/><path id="o" fill="#727272" d="m71.3 206.6 3.2-1.7-.7 3.5 2.6 2.5-3.5.5-1.6 3.2-1.6-3.2-3.5-.5 2.6-2.5-.6-3.5z"/><path id="p" fill="#4B4B4B" d="m116.8 224.3 2-1-.3 2.2 1.7 1.7-2.3.3-1 2-1.1-2-2.3-.3 1.7-1.7-.4-2.3z"/><path id="q" fill="#727272" d="m421.9 255.6 3-1.6-.5 3.5 2.5 2.4-3.5.6-1.5 3.1-1.6-3.1-3.5-.6 2.5-2.4-.6-3.5z"/><path id="r" fill="#9B9B9B" d="M125.6 304a9.4 9.4 0 1 1-16.6-8.9 9.4 9.4 0 0 1 16.6 8.9"/><path id="s" fill="#727272" d="m126.3 302.3-.5 1.2c3.5 2.3 5.7 4 5.4 4.6-.6 1-7.4-1.7-15.3-6s-13.9-8.4-13.4-9.4c.3-.5 3 .2 6.8 1.9l.8-1c-8.8-4.3-15.4-6.6-16-5.4-.8 1.5 8.7 8.2 21.3 15 12.6 6.7 23.5 11 24.3 9.4.6-1-5-5.4-13.4-10.3"/><path id="t" fill="#000" d="m316.4 208.6 3-1.6-.5 3.5 2.5 2.4-3.5.5-1.5 3.2-1.6-3.2-3.5-.5 2.5-2.4-.6-3.5z"/><path id="u" fill="#9B9B9B" d="M406.9 160.5c-2.7-5.2-13.1-2.4-24.4 2q-1.8.7-3.4-.4a8.7 8.7 0 0 0-13.8 6q-.3 2-2 2.8c-8 3.4-14 5.6-14.9 3.6-2.5-6.2 30.7-19.3 30.7-19.3s-44.7 13.4-37.5 24.2c2.7 4.2 12 1.7 22.4-2.6q3.2-1.2 6.5.2a8.7 8.7 0 0 0 11.8-5.6 8 8 0 0 1 4.3-5c8-3.7 14.2-6.2 15-4.4 2.5 5.5-33.4 21-33.4 21s45-10 38.7-22.5"/><path id="v" d="M0 7.7C0 3.5 33.7 0 75.2 0s75.1 3.5 75.1 7.7-33.6 7.7-75.1 7.7S0 12 0 7.7m174.8-1.9c0-3.2 16.8-5.8 37.6-5.8 20.7 0 37.5 2.6 37.5 5.8s-16.8 5.8-37.5 5.8c-20.8 0-37.6-2.6-37.6-5.8"/><path id="w" fill="#D26966" d="m53.6 67.8-.2-.4c-.5-1.5-2.7-2-2.7-2q-.8 1.1-.8 2.5l-.3.1-.3.1a5 5 0 0 0-2.3-1.4s-1.3 1.9-.7 3.4l.1.3q-.7 1.2-.3 2.6c.6 1.8 3.3 2.5 5.9 1.5s4.2-3.2 3.5-5a3 3 0 0 0-2-1.7"/><path id="x" fill="#FFF" d="m53.6 67.8-.2-.4c-.5-1.5-2.7-2-2.7-2q-.8 1.1-.8 2.5l-.3.1-.3.1a5 5 0 0 0-2.3-1.4s-1.3 1.9-.7 3.4l.1.3q-.7 1.2-.3 2.6c.6 1.8 3.3 2.5 5.9 1.5s4.2-3.2 3.5-5a3 3 0 0 0-2-1.7"/><path id="y" fill="#D26966" d="M57.5 21.6c-11.9.8-26 83.7-38.9 78.5-5.5-2.2-10.3-21.2-14.2-42.4L0 59.4C2.6 72.7 15.3 130 31.1 94.9 49 55.3 54.2-5.5 67.3 42.8l1.4-.7S65 21 57.5 21.6"/><path id="z" fill="#878787" d="M57.5 21.6c-11.9.8-26 83.7-38.9 78.5-5.5-2.2-10.3-21.2-14.2-42.4L0 59.4C2.6 72.7 15.3 130 31.1 94.9 49 55.3 54.2-5.5 67.3 42.8l1.4-.7S65 21 57.5 21.6"/><path id="A" fill="#B9B9B9" d="M75 34.2s2-13.8 17.5-26.4 26-4 26-4l4.2 2.6.3 11.7-6 10.3L102.5 40l-15.2 4.3-7.4-3.3z"/><path id="B" fill="#FFF" d="M75 34.2s2-13.8 17.5-26.4 26-4 26-4l4.2 2.6.3 11.7-6 10.3L102.5 40l-15.2 4.3-7.4-3.3z"/><path id="C" fill="#1D1D1D" d="m40.6 44 23.7 10 16-10.9-24-4.7c-5.5-1-11.2.1-15.9 3.3a1.3 1.3 0 0 0 .2 2.3m30.1 44.5-.4-25.7 16-10.8-4.6 24c-1 5.5-4.3 10.4-9 13.6a1.3 1.3 0 0 1-2-1"/><path id="D" d="m.8 6 23.7 10 16-11-24-4.6A21 21 0 0 0 .7 3.6 1.3 1.3 0 0 0 .8 6m30.1 44.5-.4-25.7 16-10.8L42 38c-1 5.5-4.3 10.4-9 13.5a1.3 1.3 0 0 1-2-1"/><path id="E" fill="#1D1D1D" d="M149.2.5A69 69 0 0 0 122 2.6l1.8 9.6-.8 5.9-9.3 13-9.5 6.4-13.4 5.3-11-1.8-7.3-4.4a315 315 0 0 0-15 15A142 142 0 0 0 70 70a324 324 0 0 0 53.7-26.8 68 68 0 0 0 28-39.2 3 3 0 0 0-2.5-3.6"/><path id="F" fill="#FFF" d="M149.2.5A69 69 0 0 0 122 2.6l1.8 9.6-.8 5.9-9.3 13-9.5 6.4-13.4 5.3-11-1.8-7.3-4.4a315 315 0 0 0-15 15A142 142 0 0 0 70 70a324 324 0 0 0 53.7-26.8 68 68 0 0 0 28-39.2 3 3 0 0 0-2.5-3.6"/><path id="G" fill="#1D1D1D" d="M63.5 61q-3-4.4-5.6-8.7l-4.8 5a139 139 0 0 0 10 14.7l6.4-2.6z"/><path id="H" fill="#878787" d="M150.7 2.8c-8.5 8.9-20.7 19-35 28.6-9.3 6.3-31 20.1-49.1 31a1.4 1.4 0 0 0-.5 2l1.7 2.3q.5 1 1.7.5a420 420 0 0 0 51.5-28 83 83 0 0 0 30-34.6 2 2 0 0 0-.2-1.9"/><path id="I" d="M16.5 37.7Q8 44.7.5 52a1.4 1.4 0 1 0 2 2.1Q11 47 20 39.8zM63.3 5.5l.8 4a103 103 0 0 1 26.3-9l-.3-.5q-14 .3-26.8 5.5"/><path id="J" fill="#1D1D1D" d="m123.6 2.2-5 1.5q3.4 7.7 1.9 13.8-2 8.5-14.6 16.4t-21.2 6q-5.6-1.5-9.6-5.7l-3.9 3.6c10.2 10.1 22 10.2 37.4.5 16.3-10.1 21-21.5 15-36"/><path id="K" fill="#FFF" d="m123.6 2.2-5 1.5q3.4 7.7 1.9 13.8-2 8.5-14.6 16.4t-21.2 6q-5.6-1.5-9.6-5.7l-3.9 3.6c10.2 10.1 22 10.2 37.4.5 16.3-10.1 21-21.5 15-36"/><path id="L" d="M2.5 33.3a1.4 1.4 0 1 1-2.3 1.5 1.4 1.4 0 0 1 2.3-1.5m14.5-.4a1.4 1.4 0 1 1-2.3 1.5 1.4 1.4 0 0 1 2.3-1.5m13.7-7.6a1.4 1.4 0 1 1-2.3 1.5 1.4 1.4 0 0 1 2.3-1.5m10.2-10.1a1.4 1.4 0 1 1-2.3 1.4 1.4 1.4 0 0 1 2.3-1.4M43.2.6a1.4 1.4 0 1 1-2.3 1.5A1.4 1.4 0 0 1 43.2.6"/><path id="M" fill="#D26966" d="M126.5 1.5q6 13 15.7 23.3a69 69 0 0 0 9.5-20.7 3 3 0 0 0-2.5-3.6q-11.5-1.4-22.7 1"/><path id="N" fill="#1D1D1D" d="M78.5 50.9c1 1.6-4 7-5.7 8-1.6 1.1-20.4 12-21.5 10.3s16-15 17.5-16.1c1.7-1.2 8.5-3.8 9.7-2.2"/><path id="O" fill="#FFF" d="M78.5 50.9c1 1.6-4 7-5.7 8-1.6 1.1-20.4 12-21.5 10.3s16-15 17.5-16.1c1.7-1.2 8.5-3.8 9.7-2.2m23.9-45.5q-4.8 1.5-8.7 4.9C81 20.7 79.3 32.1 79.3 32.1l1.2 1.6a44 44 0 0 1 23-25.9zm5.3-.8.5 2q3.5-.4 6.9.7l-.2-.6q-3.3-2.1-7.2-2"/><path id="P" fill="#A256FF" stroke="none" d="M35.5 64.6H35q-2.4 0-4.5 1.3a67.2 67.2 0 0 0 53.6 121.3q1-.2 1.7-1a3.4 3.4 0 0 0-2.1-5.8A61.9 61.9 0 0 1 42 79a8.8 8.8 0 0 0-6.5-14.3"/><path id="Q" fill="#FFF" stroke="none" d="M86 186.2q-.7.8-1.6 1A67.2 67.2 0 0 1 0 124.6l.1-6.4a67 67 0 0 1 30.4-52.3 8 8 0 0 1 4.5-1.3h.4A8.8 8.8 0 0 1 42 78.9a62 62 0 0 0 24.8 97.6 62 62 0 0 0 17 4 3.4 3.4 0 0 1 2.1 5.7"/><path id="R" fill="#262626" stroke="none" d="M86.7 182.6q-.8-1.8-2.9-2.2A61.9 61.9 0 0 1 42 79c2-2.4 2.6-5.8 1.4-8.7q-1.6 0-3 1h-.1c-25.4 16.5-30.8 53.1-12 81.8a63 63 0 0 0 58.4 29.6"/><path id="S" fill="#A256FF" stroke="none" d="M87.1 180c-1.8-1.7-3.2-.7-4.1.3l.8.1a3.4 3.4 0 0 1 2.1 5.8v.1l-.8.6c3.2 3 5-4.2 2-7"/><path id="T" fill="#FFF" stroke="none" d="M4.1.9C2.3-.8 1 .2 0 1.3h.8a3.4 3.4 0 0 1 2.1 5.9q-.4.5-.8.6c3.2 3.1 5-4.1 2-7"/><path id="U" fill="#A256FF" stroke="none" d="M109 87.2c-3.8-5.7-7.9-7.8-6.1-27.5S83.7 35.8 76.8 42.5s-1.2 18.7 12.4 20.3c0 0-12 57.6 16.5 45 4.3-1.9 9.1-11.9 3.3-20.6"/><path id="V" fill="#FFF" stroke="none" d="M109 87.2c-3.8-5.7-7.9-7.8-6.1-27.5S83.7 35.8 76.8 42.5s-1.2 18.7 12.4 20.3c0 0-12 57.6 16.5 45 4.3-1.9 9.1-11.9 3.3-20.6"/><path id="W" fill="#FFF" stroke="none" d="M89 60.4c-3.4-.3-15-5.9-6.3-11.8s19.9 13.3 6.2 11.8"/><path id="X" fill="#A256FF" stroke="none" d="M88.9 65c6.1.4 11.8-3.5 15-8.4.8-1.2-1.2-2.4-2-1.2-2.8 4.3-7.7 7.7-13 7.4-1.5 0-1.5 2.2 0 2.2"/><path id="Y" d="M9.4 13C6.1 12.6-5.5 7 3.1 1.1s20 13.4 6.3 12"/><path id="Z" d="M9.3 17.6c6.2.4 11.8-3.5 15-8.4.8-1.3-1.1-2.4-1.9-1.2-2.8 4.3-7.8 7.7-13.1 7.4-1.5-.1-1.5 2.1 0 2.2"/><path id="aa" fill="#262626" stroke="none" d="M105.7 107.9c4.3-2 9.1-12 3.3-20.7l-2.7-3.8Q100 95.6 91 106c2.9 3.8 7.5 5.1 14.7 2"/><path id="ab" fill="#A256FF" stroke="none" d="M90 156.6c2.4-7.2 3.4-49.9-22.5-20.3 0 0 2.3-37.6-14.5-27.8-18.6 10.8-.7 18.9-3.9 40.3s16.5 6.1 16.5 6.1 12 38 24.4 1.7"/><path id="ac" fill="#FFF" stroke="none" d="M90 156.6c2.4-7.2 3.4-49.9-22.5-20.3 0 0 2.3-37.6-14.5-27.8-18.6 10.8-.7 18.9-3.9 40.3s16.5 6.1 16.5 6.1 12 38 24.4 1.7"/><path id="ad" fill="#000" stroke="none" d="M49.2 111c-12 9.7 2.9 18 0 37.8q-.9 3.8 0 7.6c.2.5 9.7 14 13.1-20.5 3.5-33.7-12-25.5-13-24.9"/><path id="ae" fill="#FFF" stroke="none" d="M49.2 111c-12 9.7 2.9 18 0 37.8q-.9 3.8 0 7.6c.2.5 9.7 14 13.1-20.5 3.5-33.7-12-25.5-13-24.9"/><path id="af" d="m1 7.4 8-6C9.9 1 9-.4 8.4.1l-8 6c-.8.6 0 2 .8 1.3m1 6.5L12 7.5c.8-.5 0-1.8-.8-1.3l-9.8 6.4c-.8.5 0 1.8.8 1.3m1.4 6.6 9.9-6.4c.8-.5 0-1.8-.8-1.3l-9.8 6.4c-.8.5 0 1.8.7 1.3m1.1 7.2 8.1-5.3c.8-.5.1-1.8-.7-1.3l-8.2 5.3c-.8.5 0 1.8.8 1.3m0 6.8 7.1-4.7c.8-.5.1-1.8-.7-1.3L4 33.2c-.8.5 0 1.8.7 1.3m-.4 7 7-4.6c.9-.5 0-1.8-.7-1.3l-7 4.6c-.9.5-.2 1.8.7 1.3"/><path id="ag" fill="#A256FF" stroke="none" d="M67.5 134.7c.2 7.2-1.7 14.6-4 21.3-.5 1.4 1.7 2 2.2.6a63 63 0 0 0 4-22c0-1.4-2.2-1.4-2.2 0"/><path id="ah" fill="#FFF" stroke="none" d="M4 1.1c.3 7.2-1.7 14.6-4 21.4-.4 1.4 1.8 2 2.2.6A63 63 0 0 0 6.3 1C6.3-.4 4-.4 4.1 1"/><path id="ai" fill="#262626" stroke="none" d="M69 163.2c4.5 8.6 12.7 17.7 21-6.6 2-5.6 3-33.4-9.4-30.4l-3.8 5.8c-3.4 5.8-8 19-7.8 31.2"/><path id="aj" fill="#F9F9F9" stroke="none" d="M159 100s24 59-37 84.3c-53 22.1-50.8-34.4-44-49 8.2-17.3 33.4-41 33.7-63.6z"/><path id="ak" fill="#FFF" stroke="none" d="M159 100s24 59-37 84.3c-53 22.1-50.8-34.4-44-49 8.2-17.3 33.4-41 33.7-63.6z"/><path id="al" fill="#A256FF" stroke="none" d="M208.7 52a52 52 0 1 1-104 0 52 52 0 0 1 104 0"/><path id="am" fill="#FFF" stroke="none" d="M208.7 52a52 52 0 1 1-104 0 52 52 0 0 1 104 0"/><path id="an" fill="#A256FF" stroke="none" d="M162.5 98.7A47 47 0 0 0 203.8 52v-1c-.1-7.3-6-13.1-13.3-13.3h-.8A47.3 47.3 0 0 0 142.4 85v.8c.2 7.3 6 13.2 13.3 13.3h1q3 0 5.8-.4"/><path id="ao" fill="#FFF" stroke="none" d="M162.5 98.7A47 47 0 0 0 203.8 52v-1c-.1-7.3-6-13.1-13.3-13.3h-.8A47.3 47.3 0 0 0 142.4 85v.8c.2 7.3 6 13.2 13.3 13.3h1q3 0 5.8-.4"/><path id="ap" fill="#272727" stroke="none" d="m161 106.1-2-6.1-47.3-28.3q0 3.9-1 7.6l7.6 11 10.3 8.7 14 5 14.1 2.9z"/><path id="aq" fill="#FFF" stroke="none" d="m161 106.1-2-6.1-47.3-28.3q0 3.9-1 7.6l7.6 11 10.3 8.7 14 5 14.1 2.9z"/><path id="ar" fill="#272727" stroke="none" d="M150.5 30.3c-.5 11.1-5.9 20.6-12 21.1-6.2.5-11-8.2-10.5-19.3s12-21.2 12-21.2 10.9 8.2 10.5 19.4"/><path id="as" fill="#FFF" stroke="none" d="M150.5 30.3c-.5 11.1-5.9 20.6-12 21.1-6.2.5-11-8.2-10.5-19.3s12-21.2 12-21.2 10.9 8.2 10.5 19.4"/><path id="at" fill="#262626" stroke="none" d="M144 28.8c-.3 6.6-3.4 12-7 12.4-3.7.3-6.4-4.8-6.2-11.3s7-12.4 7-12.4 6.4 4.8 6.2 11.3"/><path id="au" fill="#A256FF" stroke="none" d="M176 42.6c-8.1 7.5-11.8 17.8-8.2 23s13.1 3.3 21.3-4.2c8.1-7.6 8.2-23 8.2-23S184 35 176 42.6"/><path id="av" fill="#262626" stroke="none" d="M176 42.6c-8.1 7.5-11.8 17.8-8.2 23s13.1 3.3 21.3-4.2c8.1-7.6 8.2-23 8.2-23S184 35 176 42.6"/><path id="aw" fill="#262626" stroke="none" d="M178.4 44.7c-4.7 4.4-6.9 10.4-4.8 13.4s7.7 1.9 12.5-2.5 4.8-13.4 4.8-13.4-7.7-2-12.5 2.5"/><path id="ax" fill="#FFF" stroke="none" d="m181.8 89.8.9.7c.6.5 1.6-.2 1.5-1q-.3-4-.1-8c2.5-18-1.1-42-18.6-50.4-17.6-8.3-38 4.2-50 17.9a62 62 0 0 1-6.1 5c-.7.5-.6 1.7.2 1.9l1 .2-4.1 3q-.7.7-.4 1.5l3.2 6.2h-.3a1.1 1.1 0 0 0-1 1.7q2.3 2.7 4.4 5.6a54 54 0 0 0 54.8 26q3.4-.3 7-.1a1.2 1.2 0 0 0 .7-2l-.2-.2 6.7-1.5q.8-.4.8-1.3z"/><path id="ay" fill="#A256FF" stroke="none" d="M165.5 74.6c19.2-.4 18.8 15.7 18.7 14.9q-.3-4-.1-8c1.8-12.8.5-28.6-6.6-39.6-9.1-2.3-21.6-.1-27.7 22.3-1.9 7 7.3 10.6 15.7 10.4M139.2 69s-2.2-4-1.4-5.2c.7-.8 2.7.2 3.5.6s3 1.3 2.7 2.3c-.3 1.5-4.8 2.2-4.8 2.2"/><path id="az" fill="#262626" stroke="none" d="M139.2 69s-2.2-4-1.4-5.2c.7-.8 2.7.2 3.5.6s3 1.3 2.7 2.3c-.3 1.5-4.8 2.2-4.8 2.2"/><path id="aA" fill="#272727" stroke="none" d="M132.5 70.3q1.3-.6 2.4 0a3 3 0 0 1 1.4 2q.3 1 1.1.8 1.2-.5 2.4 0 1.1.8 1.4 2.1c.4 1.2 2.5 1 1.8-.5-.5-2.6-2.9-4.3-5.2-3.8-1-2.4-3.5-3.6-5.7-2.6-1 .4-.7 2.4.4 2m2.9-15.7c-1.5 3.3-4 5.4-5.5 4.7s-1.5-4 0-7.3 4-5.5 5.5-4.7 1.5 4 0 7.3"/><path id="aB" fill="#FFF" stroke="none" d="M134.3 51.3c-.6 1.3-1.5 2.2-2.1 1.9s-.6-1.6 0-2.9 1.6-2.1 2.1-1.9.6 1.6 0 3"/><path id="aC" fill="#272727" stroke="none" d="M162.5 68c-1.5 3.3-4 5.4-5.5 4.7s-1.5-4 0-7.4c1.5-3.3 4-5.4 5.5-4.7s1.5 4 0 7.3"/><path id="aD" fill="#FFF" stroke="none" d="M161.4 64.7c-.6 1.3-1.5 2.2-2.1 1.9s-.6-1.6 0-2.9q1-2 2.1-1.9c.6.3.6 1.6 0 3"/><path id="aE" fill="#272727" stroke="none" d="M126.2 62.8q-5.1-7.6-13.4-12c-.4-.2-.8.5-.4.7a34 34 0 0 1 13.2 11.7c.3.4 1 0 .6-.3m-.9 2.4q-7.2-6.9-16.7-10c-.4-.2-.6.6-.2.7q9.3 3 16.4 9.8c.3.3.9-.2.5-.6m33.8 14q9.2-1 17.3 2.6c.5.2.9-.4.4-.6a35 35 0 0 0-17.7-2.8c-.4 0-.4.8 0 .8m-1.4 2.3q9.7 1.3 18 6.4c.4.3.7-.4.3-.6a44 44 0 0 0-18-6.6c-.5 0-.7.7-.3.7"/><path id="aF" fill="#262626" stroke="none" d="M1 3.3a9 9 0 0 1 6.5-1.8c1 .2 1.3-1.3.4-1.4Q3.7-.4.3 2c-.8.6 0 1.9.8 1.3"/><path id="aG" fill="#262626" stroke="none" d="M.2 1.3a9 9 0 0 1 2.4 6.2c0 1 1.5 1 1.5 0q0-4.2-2.8-7.3c-.7-.7-1.8.4-1 1"/><path id="aH" fill="#000" stroke="none" d="M208.7 52a52 52 0 1 1-104 0 52 52 0 0 1 104 0"/><path id="aI" fill="#A256FF" stroke="none" d="M77.2 50Q76 50 75 49l-.4-.6v-.1q-.2-.5-.7-.5V50q1.3 1.5 3.3 1.6c1 .2 1-1.3 0-1.5m3.4-4.9q-1.2-2-.4-4.3v-.5l-1.6.8a5 5 0 0 0 1 5c.5.7 1.6-.3 1-1"/><path id="aJ" d="M3.5 9.6Q2 9.6 1.2 8.4L.8 8v-.2q-.2-.5-.7-.5v2.2q1.2 1.5 3.4 1.7c1 .1 1-1.4 0-1.5m3.3-5q-1.3-2-.3-4.2V0L4.8.8a5 5 0 0 0 1 5c.6.7 1.7-.3 1-1"/><path id="aK" fill="#A256FF" stroke="none" d="M86.7 123.6c6.9-.8 14.3 1 20.6 3.6 18.2 7.7 29.7 25.1 36.5 43 1.4 3.6 7.2 2 5.8-1.6-7.3-19.1-19.3-37.5-38.6-46.2a48 48 0 0 0-24.3-4.8c-3.7.5-3.8 6.5 0 6m76.4-20q-3.1.4-6.4.4a52 52 0 0 1-47.6-31 1.5 1.5 0 0 0-2.6-.4 4 4 0 0 0-.3 4.7 57 57 0 0 0 56.9 30.8q2.5-.2 3.7-2.6a1.6 1.6 0 0 0-1.6-2.2z"/><path id="aL" fill="#FFF" stroke="none" d="M174.6 9.9a44 44 0 0 0-8.4-3.1 1.5 1.5 0 0 0-1.8 1.5l.2 2.4q.2 1.1 1.2 1.3 3.8.6 7.4 1.9a1.5 1.5 0 0 0 2-1.1l.2-1.4q0-1-.8-1.5M156.3 9l-.5-1.5Q155 6 153.2 6a44.8 44.8 0 0 0-33.4 71v-.2a45 45 0 0 1 34.4-64.4 2.5 2.5 0 0 0 2.1-3.4"/><path id="aM" fill="#A256FF" stroke="none" d="M105.1 139.6s11.2-39.4-9-32.9c-22.2 7.2-5 19.9-13.4 41.8-5.8 15 3.9 14.4 10.5 12.5 0 0-18.3 34 11 24.7s31.7-30.8 24.7-42.4-23.8-3.7-23.8-3.7"/><path id="aN" fill="#FFF" stroke="none" d="M105.1 139.6s11.2-39.4-9-32.9c-22.2 7.2-5 19.9-13.4 41.8-5.8 15 3.9 14.4 10.5 12.5 0 0-18.3 34 11 24.7s31.7-30.8 24.7-42.4-23.8-3.7-23.8-3.7"/><path id="aO" fill="#000" stroke="none" d="M91.6 108.6c-15 7.4-1.2 19.8-8.9 40a21 21 0 0 0-1.7 8.1c.2.6 7 17 18.8-18.7 11.4-35-6.9-29.9-8.2-29.4"/><path id="aP" fill="#FFF" stroke="none" d="M91.6 108.6c-15 7.4-1.2 19.8-8.9 40a21 21 0 0 0-1.7 8.1c.2.6 7 17 18.8-18.7 11.4-35-6.9-29.9-8.2-29.4"/><path id="aQ" d="m4.9 5.8 11.7-4.3c1-.3.6-1.8-.4-1.4L4.5 4.4c-1 .3-.6 1.8.4 1.4m0 7.2 11.7-4.4c1-.4.6-1.8-.4-1.5L4.5 11.5c-1 .3-.6 1.8.4 1.4m.3 7.1L17 15.7c.9-.4.5-1.8-.4-1.5L4.8 18.6c-1 .3-.5 1.8.4 1.4m.1 7.8 9.7-3.6c1-.3.6-1.7-.4-1.4L5 26.4c-1 .3-.5 1.8.4 1.4M3.3 36l8.5-3.2c.9-.4.5-1.8-.4-1.5l-8.5 3.2c-1 .3-.6 1.8.4 1.4M1 43.2 9.3 40c1-.3.6-1.7-.4-1.4L.5 41.7c-.9.4-.5 1.8.4 1.5"/><path id="aR" fill="#A256FF" stroke="none" d="M105.1 139.6s16.8-8 23.8 3.7 4.7 33-24.7 42.4c-13 4.1-16.6-.3-16.6-6.5-.6 7.3 2.6 13.1 17.4 8.4 30.8-9.8 33.3-32.3 26-44.5-7.4-12.2-25-4-25-4z"/><path id="aS" fill="#FFF" stroke="none" d="M105.1 139.6s16.8-8 23.8 3.7 4.7 33-24.7 42.4c-13 4.1-16.6-.3-16.6-6.5-.6 7.3 2.6 13.1 17.4 8.4 30.8-9.8 33.3-32.3 26-44.5-7.4-12.2-25-4-25-4z"/><path id="aT" fill="#A256FF" stroke="none" d="M105.1 137.6q-3.8 12.7-12.9 22.3c-1.3 1.4.8 3.6 2.2 2.2a59 59 0 0 0 13.7-23.7c.5-1.8-2.4-2.6-3-.8"/><path id="aU" fill="#FFF" stroke="none" d="M13.3 1Q9.5 13.7.4 23.4c-1.3 1.4.8 3.5 2.1 2A59 59 0 0 0 16.2 2c.6-2-2.3-2.7-2.9-.8"/><path id="aV" fill="#A256FF" stroke="none" d="M158.9 113.8c-6.8-2.6-10.3-4.4-19.8-17.5-11.7-16.2-34.4 10-30 17.1s18.2 10.5 20-4.1h1.1s4 11 6.8 16.8c5.7 11.7 20.3 16.3 26.7 6.4 2.8-4.2 4.1-15.4-4.8-18.7"/><path id="aW" fill="#FFF" stroke="none" d="M158.9 113.8c-6.8-2.6-10.3-4.4-19.8-17.5-11.7-16.2-34.4 10-30 17.1s18.2 10.5 20-4.1h1.1s4 11 6.8 16.8c5.7 11.7 20.3 16.3 26.7 6.4 2.8-4.2 4.1-15.4-4.8-18.7"/><path id="aX" fill="#A256FF" stroke="none" d="M158.9 113.8c9.8 3.7 6.1 15.3 3 19.2-4.7 5.6-9.3 6-13.4 3.7 4.2 4 9.5 4.5 15.7-2.2 4.4-4.7 6.5-20.2-5.3-20.7"/><path id="aY" fill="#FFF" stroke="none" d="M158.9 113.8c9.8 3.7 6.1 15.3 3 19.2-4.7 5.6-9.3 6-13.4 3.7 4.2 4 9.5 4.5 15.7-2.2 4.4-4.7 6.5-20.2-5.3-20.7"/><path id="aZ" fill="#A256FF" stroke="none" d="M126.4 92c3.1 5.1 4 11.2 2.2 16.9-.4 1.4 1.7 2.3 2 .9a23 23 0 0 0-2.4-19c-.8-1.3-2.6 0-1.8 1.3"/><path id="ba" fill="#FFF" stroke="none" d="M.2 1.8c3.1 5 4 11.2 2.2 16.8-.4 1.4 1.7 2.3 2 1A23 23 0 0 0 2 .4C1.2-.7-.6.6.2 1.8"/><path id="bb" fill="#A256FF" stroke="none" d="M113 108a10 10 0 0 0-2.5 7.3l1.2 1.2q.3-.3.3-.7c-.2-2.3.3-5 2-6.7.6-.7-.3-1.9-1-1.2m5.9 3.1a9 9 0 0 0-3.2 7.7l1.6.5v-.1c-.5-2.6.5-5.2 2.5-7 .7-.5-.2-1.7-1-1.1"/><path id="bc" d="M2.6.2A10 10 0 0 0 0 7.6l1.2 1.1q.4-.2.3-.6c-.2-2.3.3-5 2-6.7.7-.7-.2-1.9-1-1.2m5.9 3.1A9 9 0 0 0 5.3 11l1.5.4c-.4-2.6.5-5.3 2.5-7 .8-.6-.1-1.8-.9-1.1"/><path id="bd" fill="#FFF" stroke="none" d="m153.1 116.5 6.7 2.7c.7 4.6-.8 9.2-4.1 12.4 0 0-3.3.3-7.9-4.5 0 0 5-4.3 5.3-10.6"/><path id="be" fill="#A256FF" stroke="none" d="M153.9 126.2a2 2 0 1 1 1.7-3.4 2 2 0 0 1-1.7 3.4"/><path id="bf" fill="#A256FF" stroke="none" d="m154.2 126.4-.2-.1q-.7 1.1-1 1s.4-1.4 1.2-3 1.7-2.9 1.9-2.8q.3.2-.4 1.4l.2.1c.8-1.7 1.3-3.1 1-3.2-.2-.1-1.6 1.8-2.9 4.4-1.3 2.5-2.1 4.8-1.8 5s1-1.1 2-2.8"/><path id="bg" fill="#FFF" stroke="none" d="m154.2 126.4-.2-.1q-.7 1.1-1 1s.4-1.4 1.2-3 1.7-2.9 1.9-2.8q.3.2-.4 1.4l.2.1c.8-1.7 1.3-3.1 1-3.2-.2-.1-1.6 1.8-2.9 4.4-1.3 2.5-2.1 4.8-1.8 5s1-1.1 2-2.8"/><path id="bh" fill="#A256FF" stroke="none" d="M42 79a62 62 0 0 0-11 19c-3.4 1.6-8.4-17.6-7.1-27.2q3.2-2.7 6.6-5h.1a8 8 0 0 1 4.5-1.3h.4A8.7 8.7 0 0 1 42 78.9m-7.5 68.7-1 .3h-.3a46 46 0 0 1-33-23.3v-6.4a2 2 0 0 1 1.8 1l.5.8q.3.5.3 1.1a42 42 0 0 0 29.9 22.7q.8 2 1.8 3.8m32.3 28.9q0 .5-.6.8-9 7.3-20.8 8.5-3.7-1.4-7.3-3 .6-1 1.8-1c8.3.5 16.4-2 23-7z"/><path id="bi" fill="#8E8E8E" d="M54.7 75.3A37.8 37.8 0 1 1 65.7.4a37.8 37.8 0 0 1-11 74.9"/><path id="bj" fill="#FFF" d="M54.7 75.3A37.8 37.8 0 1 1 65.7.4a37.8 37.8 0 0 1-11 74.9"/><path id="bk" fill="#8E8E8E" d="M81.4 6.6c-1 5-4.4 9.6-6.4 15-2.4 6.7 3.3 11-2.3 22S60.5 54 56.8 59.2c-2.5 3.7-7.6 10.2-10.5 13.9q9.5 3.7 19.6 2.1c4.2-4.9 12-12 10.4-12.8-2.3-1.3-7.8 6.4-10.4 5-2.5-1.3 2-4.4 12.3-11.9S87.8 34.2 88.5 27q.7-5.2 3.7-9.2A38 38 0 0 0 81.4 6.6"/><path id="bl" fill="#000" d="M81.4 6.6c-1 5-4.4 9.6-6.4 15-2.4 6.7 3.3 11-2.3 22S60.5 54 56.8 59.2c-2.5 3.7-7.6 10.2-10.5 13.9q9.5 3.7 19.6 2.1c4.2-4.9 12-12 10.4-12.8-2.3-1.3-7.8 6.4-10.4 5-2.5-1.3 2-4.4 12.3-11.9S87.8 34.2 88.5 27q.7-5.2 3.7-9.2A38 38 0 0 0 81.4 6.6M38.1 32.2c1.4.3 2.2 2.4 1.7 4.8-.4 2.3-2 4-3.3 3.7-1.4-.2-2.2-2.3-1.7-4.7.4-2.3 2-4 3.3-3.8"/><path id="bm" fill="#8E8E8E" d="M62.8.1c-5.3 14-13 10-17.4 20.5-4.6 10.9 5.8 10.9-3 24.7A59 59 0 0 1 30 60.5q3 4.2 7.3 7.4c2-1.3 5.5-4.4 10-11.2 6.7-10.1 9.3-5 15.6-14.3 6.3-9.2-1-16 3.3-25 2.5-5 5.4-10.5 6.9-15A38 38 0 0 0 62.8 0m-4.4 31c-.7 3.5-2.8 6-4.8 5.6s-3.2-3.5-2.5-7c.6-3.4 2.8-5.8 4.8-5.4s3.1 3.4 2.5 6.9"/><path id="bn" fill="#8E8E8E" d="M86.2 53.5c1.1.8 1 3-.4 5s-3.3 3-4.5 2.2-1-3 .3-5 3.4-3 4.6-2.2"/><path id="bo" d="M33 0c-5.4 14-13 10-17.4 20.5-4.6 10.9 5.7 10.9-3 24.7A59 59 0 0 1 0 60.4q3.1 4.2 7.3 7.4c2-1.3 5.6-4.4 10-11.2 6.8-10.1 9.4-5 15.7-14.3 6.2-9.2-1.1-16 3.2-25 2.5-5 5.4-10.5 7-15A38 38 0 0 0 32.8 0m-4.5 31c-.6 3.5-2.8 6-4.8 5.6s-3.1-3.5-2.5-7c.7-3.4 2.8-5.8 4.9-5.4 2 .3 3 3.4 2.4 6.9"/><path id="bp" d="M56.3 53.4c1.2.8 1 3-.3 5s-3.4 3-4.6 2.2c-1.1-.9-1-3 .4-5s3.3-3 4.5-2.2"/><path id="bq" fill="#8E8E8E" d="m91.2 16.2 1.5 2.4.6 1c4-1.4 6.8-1.7 7.4-.7 1.6 2.8-14.2 15.2-35.4 27.7S25.7 67.1 24 64.3q-.7-1.6 4.2-6.1l-.6-1-1.3-2.5C9 66.9-1.6 76.7.2 79.7c2.7 4.6 33-8.3 67.6-28.9 34.7-20.5 60.6-40.9 57.8-45.4-1.7-3-15.4 1.5-34.4 10.8"/><clipPath id="b"><use fill-rule="evenodd" clip-rule="evenodd" href="#a"/></clipPath></defs><path fill="none" d="M500 0v500H0V0z"/><g clip-path="url(#b)" transform="translate(0 55)"><use fill-opacity="0" fill-rule="evenodd" href="#c"/><use fill-opacity=".7" fill-rule="evenodd" href="#d"/><use fill-opacity=".4" href="#e"/><use fill-opacity=".4" fill-rule="evenodd" href="#f"/><use fill-opacity=".6" fill-rule="evenodd" href="#g"/><use fill-opacity=".4" fill-rule="evenodd" href="#h"/><use fill-opacity=".7" fill-rule="evenodd" href="#i"/><use fill-opacity=".4" fill-rule="evenodd" href="#j"/><use fill-opacity=".7" fill-rule="evenodd" href="#k"/><use fill-opacity=".4" fill-rule="evenodd" href="#l"/><use fill-opacity=".6" fill-rule="evenodd" href="#m"/><use fill-opacity=".4" href="#n"/><use fill-opacity=".7" fill-rule="evenodd" href="#o"/><use fill-opacity=".7" fill-rule="evenodd" href="#p"/><use fill-opacity=".7" fill-rule="evenodd" href="#q"/><use fill-opacity=".6" href="#r"/><use fill-opacity=".7" href="#s"/><use fill-opacity="0" fill-rule="evenodd" href="#t"/><use fill-opacity=".6" href="#u"/></g><g clip-path="url(#b)" transform="translate(0 55)"><use fill-opacity="0" fill-rule="evenodd" href="#c"/><use fill-opacity=".7" fill-rule="evenodd" href="#d"/><use fill-opacity=".4" href="#e"/><use fill-opacity=".4" fill-rule="evenodd" href="#f"/><use fill-opacity=".6" fill-rule="evenodd" href="#g"/><use fill-opacity=".4" fill-rule="evenodd" href="#h"/><use fill-opacity=".7" fill-rule="evenodd" href="#i"/><use fill-opacity=".4" fill-rule="evenodd" href="#j"/><use fill-opacity=".7" fill-rule="evenodd" href="#k"/><use fill-opacity=".4" fill-rule="evenodd" href="#l"/><use fill-opacity=".6" fill-rule="evenodd" href="#m"/><use fill-opacity=".4" href="#n"/><use fill-opacity=".7" fill-rule="evenodd" href="#o"/><use fill-opacity=".7" fill-rule="evenodd" href="#p"/><use fill-opacity=".7" fill-rule="evenodd" href="#q"/><use fill-opacity=".6" href="#r"/><use fill-opacity=".7" href="#s"/><use fill-opacity="0" fill-rule="evenodd" href="#t"/><use fill-opacity=".6" href="#u"/></g><g fill-opacity=".4" fill-rule="evenodd" clip-path="url(#b)" transform="translate(124.2 401)"><use href="#v"/></g><g fill-opacity=".4" fill-rule="evenodd" clip-path="url(#b)" transform="translate(124.2 401)"><use href="#v"/></g><g clip-path="url(#b)" transform="translate(243.2 263.4)"><use href="#w"/><use fill-opacity=".8" href="#x"/><use href="#y"/><use fill-opacity=".3" href="#z"/><use href="#A"/><use fill-opacity=".5" href="#B"/><use href="#C"/><use fill="#FFF" href="#D" opacity=".5" transform="translate(39.8 38)"/><use href="#E"/><use fill-opacity=".6" href="#F"/><use href="#G"/><use fill-opacity=".1" href="#H"/><use fill="#FFF" href="#I" opacity=".4" transform="translate(59.4 1)"/><use href="#J"/><use fill-opacity=".5" href="#K"/><use fill="#878787" href="#L" opacity=".2" transform="translate(81 7.8)"/><use href="#M"/><use href="#N"/><use fill-opacity=".5" href="#O"/></g><g clip-path="url(#b)" transform="translate(243.2 263.4)"><use href="#w"/><use fill-opacity=".8" href="#x"/><use href="#y"/><use fill-opacity=".3" href="#z"/><use href="#A"/><use fill-opacity=".5" href="#B"/><use href="#C"/><use fill="#FFF" href="#D" opacity=".5" transform="translate(39.8 38)"/><use href="#E"/><use fill-opacity=".6" href="#F"/><use href="#G"/><use fill-opacity=".1" href="#H"/><use fill="#FFF" href="#I" opacity=".4" transform="translate(59.4 1)"/><use href="#J"/><use fill-opacity=".5" href="#K"/><use fill="#878787" href="#L" opacity=".2" transform="translate(81 7.8)"/><use href="#M"/><use href="#N"/><use fill-opacity=".5" href="#O"/></g><g clip-path="url(#b)" transform="translate(102 166)"><use href="#P"/><use fill-opacity=".5" href="#Q"/><use fill-opacity=".1" href="#R"/><use href="#S"/><use href="#T" opacity=".2" transform="translate(83 179)"/><use href="#U"/><use fill-opacity=".5" href="#V"/><use href="#W"/><use href="#X"/><g fill="#FFF" opacity=".2" transform="translate(79.5 47.4)"><use href="#Y"/><use href="#Z"/></g><use fill-opacity=".1" href="#aa"/><use href="#ab"/><use fill-opacity=".5" href="#ac"/><use href="#ad"/><use fill-opacity=".2" href="#ae"/><use fill="#FFF" href="#af" opacity=".5" transform="translate(47 112.3)"/><use href="#ag"/><use href="#ah" opacity=".2" transform="translate(63.4 133.5)"/><use fill-opacity=".1" href="#ai"/><use href="#aj"/><use fill-opacity=".7" href="#ak"/><use href="#al"/><use fill-opacity=".3" href="#am"/><use href="#an"/><use fill-opacity=".3" href="#ao"/><use href="#ap"/><use fill-opacity=".5" href="#aq"/><use href="#ar"/><use fill-opacity=".6" href="#as"/><use fill-opacity=".2" href="#at"/><use href="#au"/><use fill-opacity=".2" href="#av"/><use fill-opacity=".2" href="#aw"/><use href="#ax"/><use fill-opacity=".8" href="#ax"/><use href="#ay"/><use fill-opacity=".3" href="#az"/><use href="#aA"/><use href="#aB"/><use href="#aC"/><use href="#aD"/><use href="#aE"/><use href="#aF" opacity=".5" transform="translate(131.7 40.5)"/><use href="#aG" opacity=".5" transform="translate(165.5 54)"/><use fill-opacity=".3" href="#aH"/><use href="#aI"/><use fill="#262626" href="#aJ" opacity=".2" transform="translate(73.8 40.4)"/><use href="#aK"/><use fill-opacity=".5" href="#aL"/><use href="#aM"/><use fill-opacity=".5" href="#aN"/><use href="#aO"/><use fill-opacity=".2" href="#aP"/><use fill="#FFF" href="#aQ" opacity=".5" transform="translate(82.4 112.1)"/><use href="#aR"/><use fill-opacity=".2" href="#aS"/><use href="#aT"/><use href="#aU" opacity=".2" transform="translate(91.8 136.6)"/><use href="#aV"/><use href="#aV"/><use fill-opacity=".5" href="#aW"/><use href="#aX"/><use fill-opacity=".2" href="#aY"/><use href="#aZ"/><use href="#ba" opacity=".2" transform="translate(126.2 90.3)"/><use href="#bb"/><use fill="#262626" href="#bc" opacity=".2" transform="translate(110.5 107.7)"/><use href="#bd"/><use href="#be"/><use href="#bf"/><use fill-opacity=".4" href="#bg"/><use fill-opacity=".3" href="#bh"/></g><g clip-path="url(#b)" transform="translate(102 166)"><use href="#P"/><use fill-opacity=".5" href="#Q"/><use fill-opacity=".1" href="#R"/><use href="#S"/><use href="#T" opacity=".2" transform="translate(83 179)"/><use href="#U"/><use fill-opacity=".5" href="#V"/><use href="#W"/><use href="#X"/><g fill="#FFF" opacity=".2" transform="translate(79.5 47.4)"><use href="#Y"/><use href="#Z"/></g><use fill-opacity=".1" href="#aa"/><use href="#ab"/><use fill-opacity=".5" href="#ac"/><use href="#ad"/><use fill-opacity=".2" href="#ae"/><use fill="#FFF" href="#af" opacity=".5" transform="translate(47 112.3)"/><use href="#ag"/><use href="#ah" opacity=".2" transform="translate(63.4 133.5)"/><use fill-opacity=".1" href="#ai"/><use href="#aj"/><use fill-opacity=".7" href="#ak"/><use href="#al"/><use fill-opacity=".3" href="#am"/><use href="#an"/><use fill-opacity=".3" href="#ao"/><use href="#ap"/><use fill-opacity=".5" href="#aq"/><use href="#ar"/><use fill-opacity=".6" href="#as"/><use fill-opacity=".2" href="#at"/><use href="#au"/><use fill-opacity=".2" href="#av"/><use fill-opacity=".2" href="#aw"/><use href="#ax"/><use fill-opacity=".8" href="#ax"/><use href="#ay"/><use fill-opacity=".3" href="#az"/><use href="#aA"/><use href="#aB"/><use href="#aC"/><use href="#aD"/><use href="#aE"/><use href="#aF" opacity=".5" transform="translate(131.7 40.5)"/><use href="#aG" opacity=".5" transform="translate(165.5 54)"/><use fill-opacity=".3" href="#aH"/><use href="#aI"/><use fill="#262626" href="#aJ" opacity=".2" transform="translate(73.8 40.4)"/><use href="#aK"/><use fill-opacity=".5" href="#aL"/><use href="#aM"/><use fill-opacity=".5" href="#aN"/><use href="#aO"/><use fill-opacity=".2" href="#aP"/><use fill="#FFF" href="#aQ" opacity=".5" transform="translate(82.4 112.1)"/><use href="#aR"/><use fill-opacity=".2" href="#aS"/><use href="#aT"/><use href="#aU" opacity=".2" transform="translate(91.8 136.6)"/><use href="#aV"/><use href="#aV"/><use fill-opacity=".5" href="#aW"/><use href="#aX"/><use fill-opacity=".2" href="#aY"/><use href="#aZ"/><use href="#ba" opacity=".2" transform="translate(126.2 90.3)"/><use href="#bb"/><use fill="#262626" href="#bc" opacity=".2" transform="translate(110.5 107.7)"/><use href="#bd"/><use href="#be"/><use href="#bf"/><use fill-opacity=".4" href="#bg"/><use fill-opacity=".3" href="#bh"/></g><g clip-path="url(#b)" transform="translate(94.3 104.8)"><use fill-rule="evenodd" href="#bi"/><use fill-opacity=".6" fill-rule="evenodd" href="#bj"/><use fill-opacity=".2" href="#bk"/><use fill-opacity=".2" href="#bl"/><use fill-rule="evenodd" href="#bm"/><use href="#bn"/><g fill="#FFF" opacity=".3" transform="translate(29.9 .1)"><use fill-rule="evenodd" href="#bo"/><use href="#bp"/></g><use href="#bq"/></g><g clip-path="url(#b)" transform="translate(94.3 104.8)"><use fill-rule="evenodd" href="#bi"/><use fill-opacity=".6" fill-rule="evenodd" href="#bj"/><use fill-opacity=".2" href="#bk"/><use fill-opacity=".2" href="#bl"/><use fill-rule="evenodd" href="#bm"/><use href="#bn"/><g fill="#FFF" opacity=".3" transform="translate(29.9 .1)"><use fill-rule="evenodd" href="#bo"/><use href="#bp"/></g><use href="#bq"/></g></svg>