<svg xmlns="http://www.w3.org/2000/svg" viewBox="0 0 750 500"><g id="freepik--background-complete--inject-166"><rect x="340.4" y="249.28" width="57.89" height="15.37" style="fill:#ebebeb"></rect><path d="M370.3,280.83s0-.1,0-.28v-.79c0-.72,0-1.73,0-3,0-2.65-.05-6.47-.1-11.28l.18.18-57.89.12.3-.3h0v3.9c0,1.31,0,2.6,0,3.88v7.56l-.29-.29,41.26.13,12.17.09,3.3,0,.86,0,.3,0a1.15,1.15,0,0,1-.27,0l-.82,0-3.23,0-12.11.08-41.46.13h-.29V265.49h0l.29-.29,57.89.11h.18v.18c0,4.86-.07,8.71-.1,11.39,0,1.27,0,2.27,0,3,0,.31,0,.56,0,.76S370.31,280.84,370.3,280.83Z" style="fill:#e0e0e0"></path><rect x="634.63" y="38.76" width="57.89" height="15.37" style="fill:#ebebeb"></rect><path d="M664.54,70.32a1.73,1.73,0,0,1,0-.28c0-.21,0-.47,0-.79,0-.72,0-1.73,0-3,0-2.66-.06-6.47-.1-11.28l.18.18-57.89.12.29-.3h0V70.32l-.29-.29,41.25.13,12.18.08,3.29,0,.87,0,.3,0-.27,0-.82,0-3.23,0-12.11.09-41.46.13h-.29V62.76c0-1.28,0-2.58,0-3.88V55h0l.3-.3,57.89.12h.18V55c0,4.85-.08,8.7-.1,11.38,0,1.28,0,2.27,0,3,0,.31,0,.56,0,.75A1.15,1.15,0,0,1,664.54,70.32Z" style="fill:#e0e0e0"></path><rect x="200.05" y="71.16" width="57.89" height="15.37" style="fill:#ebebeb"></rect><rect x="363.11" y="157.81" width="57.89" height="15.37" style="fill:#ebebeb"></rect><rect x="43.17" y="190.22" width="64.16" height="16.97" style="fill:#ebebeb"></rect><path d="M105.43,75.37s0-.11,0-.31,0-.51,0-.87c0-.79,0-1.91,0-3.34,0-2.93-.06-7.14-.11-12.45l.2.2-64.15.13c.14-.15-.33.32.32-.33h0v17l-.32-.32L87,75.2l13.49.09,3.65,0,1,0,.34,0a.87.87,0,0,1-.3,0l-.91,0-3.58,0-13.42.09-45.94.14H41v-.32q0-4.09,0-8.35V58.41h0l.33-.33,64.15.13h.2v.2c0,5.36-.08,9.61-.11,12.57,0,1.41,0,2.51,0,3.3,0,.34,0,.62,0,.83S105.44,75.38,105.43,75.37Z" style="fill:#e0e0e0"></path><path d="M114.13,58.4a1.27,1.27,0,0,1,0-.32c0-.25,0-.54,0-.9,0-.84,0-2-.06-3.41,0-3-.07-7.17-.12-12.34l.23.23-38.54.09.32-.32h0v8.73c0,2.84,0,5.59,0,8.23l-.31-.31,27.58.15,8,.08,2.17,0a6.24,6.24,0,0,1,.77,0,4.42,4.42,0,0,1-.7,0l-2.1,0-8,.08-27.79.15h-.31V58.4c0-2.64,0-5.39,0-8.23V41.44h0l.33-.33,38.54.09h.24v.24c-.06,5.23-.1,9.48-.13,12.49,0,1.41,0,2.53-.06,3.35A9.08,9.08,0,0,1,114.13,58.4Z" style="fill:#e0e0e0"></path><path d="M420.94,75.05s0-.11,0-.3,0-.52,0-.87c0-.8,0-1.92,0-3.34,0-2.93-.06-7.15-.11-12.46l.2.2-64.15.13c.14-.15-.33.33.32-.33h0V75.05l-.32-.32,45.72.15L416,75l3.65,0,1,0,.34,0a.94.94,0,0,1-.29,0l-.92,0-3.58,0-13.42.09-45.94.14h-.32v-.33c0-2.72,0-5.51,0-8.34v-8.6h0c.65-.65.18-.18.33-.32l64.15.12h.2v.2c-.05,5.36-.08,9.62-.11,12.57,0,1.41,0,2.51,0,3.3,0,.34,0,.62,0,.84S421,75.06,420.94,75.05Z" style="fill:#e0e0e0"></path><path d="M429.64,58.08a1.27,1.27,0,0,1,0-.32q0-.36,0-.9c0-.84,0-2-.06-3.4,0-3-.07-7.18-.12-12.35l.23.23-38.54.1c-.3.29.39-.4.32-.33h0v8.73c0,2.84,0,5.59,0,8.23l-.31-.31,27.58.15,8,.08,2.17,0,.77,0a3.25,3.25,0,0,1-.7,0l-2.1,0-8,.09-27.79.14h-.31v-.32c0-2.64,0-5.39,0-8.23V41.12h0l.33-.33,38.54.09h.24v.23c-.06,5.23-.1,9.48-.13,12.49,0,1.41,0,2.53-.06,3.35A9.08,9.08,0,0,1,429.64,58.08Z" style="fill:#e0e0e0"></path><path d="M700.12,355.41a2.08,2.08,0,0,1,0-.31c0-.23,0-.52,0-.87,0-.8,0-1.92-.05-3.34,0-2.93-.06-7.15-.11-12.46l.2.2-64.15.13c.14-.15-.33.33.32-.33h0v8.6c0,2.83,0,5.62,0,8.35l-.32-.32,45.72.14,13.5.09,3.65,0,.95,0a1.37,1.37,0,0,1,.34,0l-.3,0-.91,0-3.58,0-13.42.09-45.95.15h-.32V338.46h0c.65-.65.18-.18.33-.32l64.15.12h.2v.2c-.05,5.36-.08,9.62-.11,12.57,0,1.41,0,2.51-.05,3.3,0,.34,0,.62,0,.84A1.39,1.39,0,0,1,700.12,355.41Z" style="fill:#e0e0e0"></path><path d="M713.92,208.3s0-.11,0-.31,0-.51,0-.87c0-.8,0-1.91,0-3.34,0-2.93-.06-7.14-.11-12.45l.2.2-64.15.12.32-.32h0v17l-.32-.32,45.72.14,13.49.1,3.65,0,1,0a2.3,2.3,0,0,1,.34,0,1.38,1.38,0,0,1-.29,0l-.92,0-3.58,0-13.42.09-45.94.15h-.32v-.32c0-2.73,0-5.52,0-8.35v-8.61h0l.33-.33,64.15.13h.2v.2c0,5.36-.08,9.61-.11,12.57,0,1.41,0,2.51,0,3.29,0,.35,0,.62,0,.84A.75.75,0,0,1,713.92,208.3Z" style="fill:#e0e0e0"></path><path d="M722.62,191.33a2.4,2.4,0,0,1,0-.33q0-.36,0-.9c0-.83,0-2-.06-3.4,0-3-.07-7.18-.12-12.35l.23.24-38.54.09c-.3.29.39-.4.32-.32h0v8.73c0,2.84,0,5.59,0,8.23l-.32-.31,27.58.14,8,.09,2.17,0a4.46,4.46,0,0,1,.77,0,5.66,5.66,0,0,1-.7,0l-2.1,0-8,.09-27.79.15h-.31v-.31c0-2.64,0-5.39,0-8.23v-8.73h0c-.07.06.62-.63.33-.33l38.54.09h.24v.23c-.06,5.23-.1,9.48-.13,12.49,0,1.41,0,2.53-.06,3.35A9.59,9.59,0,0,1,722.62,191.33Z" style="fill:#e0e0e0"></path><path d="M25.45,418.33l19.87-26.61L112,394.14l24.93,30.27-34.37,24.44s-52.15-1.08-54.35-2.55S25.45,418.33,25.45,418.33Z" style="fill:#f5f5f5"></path><path d="M129,396c3.65,1.46,23.26,27.31,23.26,27.31L190.64,430,236,415.47l-12.72-23.75Z" style="fill:#f5f5f5"></path><polygon points="114.57 452.64 146.17 428.74 188.93 435.38 199.03 448.85 175.12 462.46 114.57 452.64" style="fill:#f5f5f5"></polygon><polygon points="205.66 433.48 270.29 414.02 306.58 418.33 325.59 440.63 301.49 454.46 255.94 454.46 219.83 447.2 205.66 433.48" style="fill:#f5f5f5"></polygon><path d="M714.74,421.55,694.88,395l-66.65,2.41L603.3,427.63l34.37,24.44S689.81,451,692,449.53,714.74,421.55,714.74,421.55Z" style="fill:#f5f5f5"></path><path d="M611.23,399.26c-3.64,1.45-23.26,27.31-23.26,27.31l-38.42,6.69L504.18,418.7,516.9,395Z" style="fill:#f5f5f5"></path><polygon points="625.63 455.86 594.02 431.96 551.26 438.6 541.17 452.07 565.07 465.69 625.63 455.86" style="fill:#f5f5f5"></polygon><polygon points="534.54 436.71 469.91 417.25 433.62 421.55 414.61 443.86 438.71 457.69 484.26 457.69 520.37 450.43 534.54 436.71" style="fill:#f5f5f5"></polygon><polygon points="278.05 387.65 287.78 405.79 330.02 410.33 353.73 386.7 278.05 387.65" style="fill:#f5f5f5"></polygon><path d="M327.85,425.47c-.32,1.11,9.42,16.11,9.42,16.11l34,7.27,27.62-3.25,27.27-20.13s-2.23-15-3.82-14.59-57.12-.19-57.12-.19Z" style="fill:#f5f5f5"></path><polygon points="406.62 391.72 404.37 400.99 433.49 407.75 466.63 405.54 466.63 390.2 406.62 391.72" style="fill:#f5f5f5"></polygon></g><g id="freepik--Floor--inject-166"><path d="M704.73,384.6c0,.15-147.62.27-329.69.27s-329.72-.12-329.72-.27,147.59-.27,329.72-.27S704.73,384.45,704.73,384.6Z" style="fill:#263238"></path></g><g id="freepik--cats-3--inject-166"><path d="M615.82,382.52c8.43,2.54,17.94-2.34,22.39-9.93s4.47-17.17,1.91-25.6-7.45-15.92-12.5-23.13-10.35-14.35-13.92-22.39c-6.26-14.15-6.62-30.93-.39-45.09s19.12-25.35,34.16-29,31.89.7,42.94,11.52c11.72,11.47,16.15,28.66,16.3,45.06.06,5.48-.33,11.08-2.4,16.16s-6,9.6-11.27,11.22c-6.41,2-13.65-.82-18.19-5.77s-6.7-11.67-7.49-18.33c-.93-7.83-.54-16.8-6.23-22.27-6.45-6.21-18.15-3.76-23.49,3.43s-5.24,17.27-2.17,25.68,8.68,15.6,13.95,22.85c8.66,11.92,16.8,25,18.28,39.67a47.48,47.48,0,0,1-63.64,49.29" style="fill:#BA68C8"></path><g style="opacity:0.30000000000000004"><path d="M706.71,284c-.31,5.47-.33,11.08-2.4,16.16s-6,9.6-11.27,11.22c-6.41,2-13.65-.82-18.19-5.77s-6.7-11.67-7.49-18.33l-1.82-14.19a67.79,67.79,0,0,1,15.25-17.83l.71,8.52s10.87-8.63,21.77-3.9C703.27,259.88,707.22,275.09,706.71,284Z" style="fill:#fff"></path></g><path d="M479.49,364a20.48,20.48,0,0,0-15.22,9.7,27.72,27.72,0,0,0-3.63,18,43.31,43.31,0,0,0,6.51,17.39c-4.49.26-7.95,4.59-8.55,9.05-.38,2.81.26,5.94,2.4,7.8s5.41,2.09,8.35,2.07c11.52-.06,23-1.21,34.48-2.36Z" style="fill:#BA68C8"></path><g style="opacity:0.30000000000000004"><path d="M479.49,364a20.48,20.48,0,0,0-15.22,9.7,27.72,27.72,0,0,0-3.63,18,43.31,43.31,0,0,0,6.51,17.39c-4.49.26-7.95,4.59-8.55,9.05-.38,2.81.26,5.94,2.4,7.8s5.41,2.09,8.35,2.07c11.52-.06,23-1.21,34.48-2.36Z"></path></g><path d="M472.21,318.15c-2.88,30.93-2.52,62.23,2.65,92.86a21,21,0,0,0-6.55,5.92c-1.62,2.48-2.28,5.76-1,8.45,1.51,3.25,5.36,4.81,8.94,4.92S483.43,430,487,430c4,0,10.76.28,14.54-.75l2.28-30.09Z" style="fill:#BA68C8"></path><path d="M472.21,318.15c.85,2.14,13.3,33.79,31.85,81l0,0v.06c-.71,9.42-1.47,19.56-2.26,30.09l0,.19-.18.05a33.64,33.64,0,0,1-7.35.77c-2.5.06-5,0-7.6,0-3.39,0-6.77.35-10.14.27a13.37,13.37,0,0,1-5-1,9,9,0,0,1-3.94-3.08,7.45,7.45,0,0,1-1.24-4.77,10.41,10.41,0,0,1,1.49-4.62,20.71,20.71,0,0,1,6.84-6.32l-.12.26a340.21,340.21,0,0,1-4.17-66.67c.28-8.26.74-14.83,1.11-19.32.18-2.25.39-4,.5-5.18s.15-1.49.17-1.74c0,.57-.18,2.62-.49,6.93-.32,4.5-.73,11.06-1,19.32A345.38,345.38,0,0,0,475.11,411l0,.17-.15.09a20.32,20.32,0,0,0-6.66,6.16,9.85,9.85,0,0,0-1.42,4.38,6.93,6.93,0,0,0,1.16,4.44,8.29,8.29,0,0,0,3.71,2.88,12.83,12.83,0,0,0,4.76,1c3.33.08,6.7-.25,10.13-.27,2.57,0,5.1.06,7.59,0a33.29,33.29,0,0,0,7.22-.76l-.19.24c.8-10.52,1.57-20.67,2.28-30.09l0,.11Z" style="fill:#263238"></path><path d="M482.51,265.64s-14.39,44.5-10.37,84.13,33.11,74.74,33.11,74.74L558.92,430l42.14-14.55-6-88.79c-13.19-23.65-24.9-46.54-24-62.91Z" style="fill:#BA68C8"></path><path d="M588.88,359.14c-1-.49-38.63-5.8-40.63,29.12,0,0-2.61,10.3,7.69,20.26,0,0-10.7-.68-12,14.77a6.72,6.72,0,0,0,6.2,7.26c11.07.8,34.05,1.86,44-2.1,13.28-5.31,22.58-12.61,24.24-34.7s-6.64-48-23.33-67.06C584.93,315.15,588.88,359.14,588.88,359.14Z" style="fill:#BA68C8"></path><path d="M506.56,351.42a37.31,37.31,0,0,0-4.7-23.86c-2.48-4.24-6.26-8.23-11.14-8.8s-9.88,2.76-12.4,7.13-3.11,9.6-3.2,14.65a88.23,88.23,0,0,0,29.78,67.11" style="fill:#fff"></path><path d="M507,340.05c0,2.51-1.46,63.36-5.26,68.91s-15.23.5-8.36,21.07h33.45s5.51-.5,12.54-21.07,12-43.64,12-43.64l-4.58-47.86Z" style="fill:#BA68C8"></path><path d="M557.29,332.47s0,.18-.07.52l-.25,1.52c-.23,1.35-.57,3.32-1,5.85-.89,5.1-2.19,12.47-3.8,21.63-.2,1.15-.41,2.33-.63,3.53s-.54,2.41-.82,3.65c-.57,2.49-1.2,5.07-1.86,7.75C547.53,382.26,546,388,544.3,394s-3.65,12.27-6,18.7a78.92,78.92,0,0,1-4.27,9.55,31.77,31.77,0,0,1-2.9,4.55,12.42,12.42,0,0,1-.87,1.05,11.33,11.33,0,0,1-1,1,5.78,5.78,0,0,1-2.45,1.49H493.17l-.05-.19a37.58,37.58,0,0,1-2.15-9.89,9.12,9.12,0,0,1,1-4.89,7.66,7.66,0,0,1,3.83-3,26.43,26.43,0,0,0,4.22-2,5.55,5.55,0,0,0,1.56-1.57,4.52,4.52,0,0,0,.44-1,8.87,8.87,0,0,0,.32-1.07,72,72,0,0,0,1.41-8.75c1.23-11.49,1.71-21.79,2.16-30.36s.66-15.46.83-20.19c.08-2.35.14-4.18.18-5.44,0-.6,0-1.07,0-1.4l0-.48a4.34,4.34,0,0,1,0,.48v1.41c0,1.25-.06,3.08-.1,5.43-.11,4.74-.3,11.62-.67,20.2s-.84,18.88-2,30.4a72.61,72.61,0,0,1-1.4,8.82,9.48,9.48,0,0,1-.33,1.12A5.08,5.08,0,0,1,502,409a6,6,0,0,1-1.69,1.7,25.21,25.21,0,0,1-4.3,2,7.16,7.16,0,0,0-3.58,2.84,8.49,8.49,0,0,0-.92,4.61,37.24,37.24,0,0,0,2.13,9.75l-.25-.18h33.42a5.63,5.63,0,0,0,2.14-1.35,9.26,9.26,0,0,0,.93-.95,10.57,10.57,0,0,0,.85-1,31.36,31.36,0,0,0,2.86-4.47,78.88,78.88,0,0,0,4.25-9.48c2.35-6.4,4.27-12.68,6-18.66s3.25-11.68,4.6-17q1-4,1.89-7.72c.28-1.25.56-2.46.84-3.65s.43-2.37.64-3.51c1.68-9.15,3-16.51,4-21.61.47-2.52.84-4.48,1.09-5.83l.3-1.51C557.24,332.64,557.29,332.47,557.29,332.47Z" style="fill:#263238"></path><path d="M498.75,410.69s-.16-.1-.41-.33l-1.1-1c-.48-.45-1.06-1-1.69-1.7s-1.39-1.44-2.15-2.34c-1.56-1.76-3.31-3.95-5.14-6.47a93.25,93.25,0,0,1-5.38-8.58,91.2,91.2,0,0,1-4.3-9.16,80.3,80.3,0,0,1-2.67-7.82c-.35-1.12-.58-2.16-.81-3.07s-.4-1.69-.52-2.34-.21-1.08-.28-1.48a1.78,1.78,0,0,1-.06-.53,2.36,2.36,0,0,1,.17.5l.37,1.47c.15.64.35,1.41.61,2.31s.51,1.92.88,3c.68,2.25,1.61,4.88,2.76,7.75a90.1,90.1,0,0,0,9.64,17.63c1.79,2.53,3.5,4.73,5,6.51.74.91,1.46,1.69,2.08,2.39s1.16,1.28,1.61,1.75l1,1.11A2.88,2.88,0,0,1,498.75,410.69Z" style="fill:#263238"></path><path d="M588.88,359.14l-.27,0-.79-.07c-.7-.06-1.73-.22-3.08-.3a45.86,45.86,0,0,0-11.6.55,31.91,31.91,0,0,0-7.82,2.58,27.25,27.25,0,0,0-7.77,5.65c-4.79,5-8.2,12.4-9,20.75v0a16.66,16.66,0,0,0-.15,5.24,20.58,20.58,0,0,0,1.33,5.31,27.08,27.08,0,0,0,6.45,9.47l.46.45h-.66a11,11,0,0,0-8.8,4.33c-2.12,2.77-2.93,6.4-3.12,10a7.77,7.77,0,0,0,.08,2.51,6.08,6.08,0,0,0,1,2.23,6,6,0,0,0,4.14,2.36c3.35.27,6.7.46,10,.6,6.56.28,12.89.35,18.91.05s11.77-.89,16.71-2.94a41.69,41.69,0,0,0,12.7-7.55,29.05,29.05,0,0,0,7-9.92,48,48,0,0,0,2.68-8.86c.46-2.5.76-4.46.87-5.8.08-.65.14-1.15.18-1.51s.08-.52.08-.52,0,.18,0,.52-.07.87-.13,1.52c-.08,1.35-.35,3.31-.77,5.83a46.49,46.49,0,0,1-2.62,8.94,29.1,29.1,0,0,1-7,10.08A42.06,42.06,0,0,1,595,428.32c-5,2.11-10.85,2.64-16.86,3s-12.38.26-18.95,0c-3.28-.14-6.61-.32-10-.6a6.52,6.52,0,0,1-4.51-2.57,6.44,6.44,0,0,1-1.13-2.43,8.22,8.22,0,0,1-.1-2.66,19.27,19.27,0,0,1,.28-2.74L544,419a12.28,12.28,0,0,1,.36-1.32,14.1,14.1,0,0,1,2.37-4.86,11.49,11.49,0,0,1,9.25-4.54l-.2.45a27.66,27.66,0,0,1-6.56-9.65,21.62,21.62,0,0,1-1.34-5.45,17.19,17.19,0,0,1,.17-5.41v.05a38.14,38.14,0,0,1,3.13-11.8,35.08,35.08,0,0,1,2.74-5,30.73,30.73,0,0,1,3.38-4.2,27.39,27.39,0,0,1,7.91-5.69,31.77,31.77,0,0,1,7.91-2.55,44.33,44.33,0,0,1,11.67-.42c1.35.1,2.38.29,3.08.37l.78.12A.84.84,0,0,1,588.88,359.14Z" style="fill:#263238"></path><path d="M574.94,412.47a24.48,24.48,0,0,1-2.93-1,55.08,55.08,0,0,0-14.52-2.92,26.24,26.24,0,0,1-3.08-.22,12.76,12.76,0,0,1,3.1-.16,42.26,42.26,0,0,1,14.63,2.94A14.29,14.29,0,0,1,574.94,412.47Z" style="fill:#263238"></path><g style="opacity:0.30000000000000004"><path d="M559.67,364.91a29.33,29.33,0,0,1,23.2-13.29c4.49-.17,9.34.91,12.29,4.3,1,1.09,1.54,3,.3,3.78a3,3,0,0,1-2.43-.09c-9.86-3.13-22.77-1.12-32.9,5.3"></path></g><g style="opacity:0.30000000000000004"><path d="M535,285.06c8.14-1.15,15.83-4.47,23.75-6.7-11,7.19-23.22,12.73-36.19,14.69s-26.73.13-38-6.51C484.47,286.54,502,289.69,535,285.06Z"></path></g><path d="M657.61,144c-2.18-1.55-4.58-2.95-7.2-2.39a13.91,13.91,0,0,0-6.73,4.15c-9.38,9.55-10.7,24.72-19.4,34.89a30.67,30.67,0,0,1-30.21,9.58l-6,14.69c16,7.76,36.23,4,49.83-7.44s22.42-23.61,24.11-42.56C662.25,152.7,662.07,147.13,657.61,144Z" style="fill:#BA68C8"></path><path d="M499.38,158.29s-43-4.38-59.14,32.31L431,218.26s-7.22,16,4,35.64c9.73,17,24.38,29.9,62.48,33.66,37.05,3.65,76.54-7.7,89.65-33.66,11.48-22.73,8.09-49.33,2.64-59.1C582.37,181.45,554.72,156.47,499.38,158.29Z" style="fill:#BA68C8"></path><path d="M489.42,159.7s-21.69-13-26-15.74c-11.68-7.41-26.55-14.6-31.9-4.25-4.19,8.13,12.45,55.94,12.45,55.94l29.2-23.1Z" style="fill:#BA68C8"></path><g style="opacity:0.30000000000000004"><path d="M482.68,163.23s-42.49-27.85-46.06-24.46,11,43.18,11,43.18S477.16,177.41,482.68,163.23Z"></path></g><path d="M443.28,181.3c2.65-7,9-14,14.63-18.81a14.51,14.51,0,0,0-.58,8.79c9.79-7.34,20.15-14.91,32.24-16.41l-3.27,8.24-22.38,24Z" style="fill:#BA68C8"></path><path d="M485.82,155.54a1.85,1.85,0,0,0-.68,0c-.43.08-1.09.14-1.91.35a41.45,41.45,0,0,0-6.83,2.21,59.52,59.52,0,0,0-19.63,13.32l.75.19-.12-.44a12.13,12.13,0,0,1,.1-4.37c.24-1.45.59-2.86.84-4.26l.19-1.09-.87.63a40.59,40.59,0,0,0-11.92,13.82,27.42,27.42,0,0,0-2,5,8,8,0,0,0-.42,1.91,52.31,52.31,0,0,1,3-6.62,42,42,0,0,1,11.93-13.36l-.68-.46c-.24,1.36-.6,2.78-.85,4.27a12.68,12.68,0,0,0-.1,4.73c.05.18.09.36.13.52l.2.76.56-.57a62.82,62.82,0,0,1,19.23-13.37,48.53,48.53,0,0,1,6.67-2.46A19.66,19.66,0,0,0,485.82,155.54Z" style="fill:#263238"></path><g style="opacity:0.4"><path d="M481.37,216.49h0a18.5,18.5,0,0,1,10.53-5.16l7.48-53c9-.49,19,.4,27,1.37,0,0-12.25,18.34-16.65,52.09a23.81,23.81,0,0,1,5.53,3.08c8.56,6.43,12.52,18.7,9.46,29.16s-12.9,18.4-23.48,19-21.17-6.15-25.43-16.16A28.72,28.72,0,0,1,481.37,216.49Z" style="fill:#fff"></path></g><path d="M507.5,216.81c-5.76-2.41-9.79-2.66-15.94-.73-1.67.36-3.3,2.79-2.18,4.13l6.67,8a1.94,1.94,0,0,0,2.57.38l11.21-7.51C511.46,220,509.8,217.54,507.5,216.81Z" style="fill:#263238"></path><path d="M497.91,224.78a4.74,4.74,0,0,0-.34,1.47,16.48,16.48,0,0,0,0,4.12,16.26,16.26,0,0,0,1.8,5.84,14.08,14.08,0,0,0,5.09,5.37,12.18,12.18,0,0,0,7.06,1.8,11.7,11.7,0,0,0,5.64-2,10.84,10.84,0,0,0,2.87-2.89,4.1,4.1,0,0,0,.66-1.35,13.62,13.62,0,0,1-3.79,3.81,11.5,11.5,0,0,1-5.41,1.74,11.82,11.82,0,0,1-6.68-1.76,13.67,13.67,0,0,1-4.88-5.08A16.49,16.49,0,0,1,498,230.3,28.85,28.85,0,0,1,497.91,224.78Z" style="fill:#263238"></path><path d="M476.5,232.92a4.6,4.6,0,0,0,.62,1.25,23.29,23.29,0,0,0,2.13,3.14,10.37,10.37,0,0,0,4.5,3.34,8.8,8.8,0,0,0,6.75-.62,12,12,0,0,0,5-4.74,18.25,18.25,0,0,0,2-5.32,24.58,24.58,0,0,0,.52-3.79,4.75,4.75,0,0,0,0-1.4c-.13,0-.22,2-1,5.07a18.93,18.93,0,0,1-2.08,5.09,11.61,11.61,0,0,1-4.76,4.45A8.35,8.35,0,0,1,484,240a10.08,10.08,0,0,1-4.33-3.06C477.59,234.59,476.61,232.84,476.5,232.92Z" style="fill:#263238"></path><path d="M488.49,247.12a5.48,5.48,0,0,0,1.73,2.27,11.24,11.24,0,0,0,12.8,1.75,5.41,5.41,0,0,0,2.24-1.73c-.08-.11-.94.53-2.48,1.17a12,12,0,0,1-12.19-1.67C489.26,247.88,488.6,247,488.49,247.12Z" style="fill:#263238"></path><path d="M518.55,228.72c0,.24,28.87,4.7,64.55,10s64.64,9.35,64.68,9.12-28.87-4.7-64.56-10S518.58,228.48,518.55,228.72Z" style="fill:#263238"></path><path d="M517.89,233a4.75,4.75,0,0,0,1.05.37l3,.9c2.64.77,6.47,1.82,11.22,3.07,9.5,2.5,22.68,5.71,37.32,8.82s28,5.5,37.68,7.07c4.85.78,8.77,1.38,11.49,1.75l3.13.4a5,5,0,0,0,1.1.09,5.34,5.34,0,0,0-1.08-.26l-3.11-.57-11.43-2c-9.65-1.72-23-4.22-37.61-7.32s-27.82-6.22-37.35-8.57L522.05,234l-3.07-.74A7.08,7.08,0,0,0,517.89,233Z" style="fill:#263238"></path><path d="M388.23,229.43c0,.24,21.35-.09,47.67-.74s47.66-1.36,47.65-1.6-21.34.09-47.67.74S388.23,229.19,388.23,229.43Z" style="fill:#263238"></path><path d="M405.69,243.91c.05.24,16.65-2.74,37.08-6.66s37-7.27,36.93-7.51-16.64,2.75-37.08,6.66S405.65,243.68,405.69,243.91Z" style="fill:#263238"></path><path d="M593.35,213.13s12.91-65.5,4.19-74.72-60.22,26.7-60.22,26.7l48.18,34.45Z" style="fill:#BA68C8"></path><g style="opacity:0.30000000000000004"><path d="M584.21,194.74s12.6-48.6,7.13-50.82-44.24,24.27-44.24,24.27S565.56,194.21,584.21,194.74Z"></path></g><path d="M545,163c7.35.06,16,3.71,22.37,7.35a13.66,13.66,0,0,0-8.25,2.55c10.17,6.77,20.76,14,26.39,25l-8.69-.21L547,184.8Z" style="fill:#BA68C8"></path><path d="M582.79,195.39s0-.24-.22-.64-.42-1-.83-1.74a34.87,34.87,0,0,0-4-5.81,58.39,58.39,0,0,0-18.12-14l-.19-.1.06.79a17,17,0,0,1,7.52-3.05l1.05-.14-.84-.65a32.89,32.89,0,0,0-15.71-6.57,28.72,28.72,0,0,0-5-.25,6.93,6.93,0,0,0-1.79.2c0,.15,2.53-.08,6.67.61a34,34,0,0,1,15.27,6.72l.22-.8a17.52,17.52,0,0,0-7.93,3.18l-.61.44.66.35.18.09a61.68,61.68,0,0,1,18,13.66C581.17,192,582.62,195.49,582.79,195.39Z" style="fill:#263238"></path><path d="M569.72,273.09s-.07.06-.22.14l-.67.37L566.22,275l-1.89,1c-.7.34-1.48.68-2.3,1.06-1.67.74-3.53,1.66-5.68,2.46L553,280.8c-1.17.45-2.41.83-3.69,1.27-2.54.92-5.32,1.65-8.24,2.48A130.2,130.2,0,0,1,502,288.64c-3-.2-5.9-.35-8.58-.72-1.33-.16-2.63-.27-3.87-.47l-3.55-.6c-2.27-.33-4.28-.84-6.06-1.22-.89-.21-1.72-.37-2.47-.57l-2.06-.57-2.83-.81-.74-.22c-.16-.06-.25-.09-.24-.1l.26,0,.75.18,2.85.71,2.07.53c.75.17,1.59.33,2.47.51,1.79.35,3.8.84,6.07,1.15l3.54.56c1.23.19,2.53.29,3.86.44,2.67.35,5.54.48,8.55.67a133.12,133.12,0,0,0,39-4.08c2.91-.81,5.7-1.53,8.23-2.42,1.28-.43,2.52-.8,3.69-1.24l3.35-1.28c2.15-.77,4-1.66,5.69-2.37.83-.37,1.62-.69,2.32-1l1.91-.94,2.65-1.29.7-.33A.75.75,0,0,1,569.72,273.09Z" style="fill:#263238"></path><path d="M475.71,195.35a13.36,13.36,0,1,0,6.7,18A13.57,13.57,0,0,0,475.71,195.35Z" style="fill:#fff"></path><path d="M477.07,192.49c-6.87-3.26-14.86-.83-17.84,5.44s.16,14,7,17.27,14.86.84,17.84-5.43S483.94,195.76,477.07,192.49Z" style="fill:#263238"></path><path d="M532.4,199.52a13.36,13.36,0,1,0,17.44,8A13.58,13.58,0,0,0,532.4,199.52Z" style="fill:#fff"></path><path d="M531.34,196.54c-7.17,2.54-11.1,9.91-8.78,16.46s10,9.78,17.19,7.24,11.1-9.92,8.77-16.46S538.51,194,531.34,196.54Z" style="fill:#263238"></path><path d="M594.34,209a19.91,19.91,0,0,1,.55-3c.39-1.85.91-4.4,1.39-7.23s.83-5.42,1.08-7.29a20.23,20.23,0,0,1,.46-3,15.08,15.08,0,0,1-.09,3.07c-.14,1.88-.44,4.49-.92,7.34s-1.06,5.4-1.55,7.23A14.94,14.94,0,0,1,594.34,209Z" style="fill:#263238"></path><path d="M484.57,148.66a27,27,0,0,0-14.27,28.45c.78,4.1,3,8.41,7,9.65,4.83,1.51,9.88-2.28,12.19-6.78s2.82-9.69,4.58-14.43,5.5-9.42,10.55-9.68Z" style="fill:#BA68C8"></path><path d="M484.57,148.66s.12,0,.35.09l1.05.35,4,1.39,14.68,5.18,1,.36-1.07.05a9.76,9.76,0,0,0-6.52,3.3,18.9,18.9,0,0,0-4.15,7.26c-.94,2.81-1.53,5.86-2.46,8.94a27.51,27.51,0,0,1-1.8,4.56,15,15,0,0,1-3.05,4,11.66,11.66,0,0,1-5.08,2.92,7.85,7.85,0,0,1-5.64-.62,9.94,9.94,0,0,1-3.88-3.89,16.87,16.87,0,0,1-1.86-4.92,24.91,24.91,0,0,1-.07-9.65,28.22,28.22,0,0,1,2.75-7.94,26.63,26.63,0,0,1,4-5.68,25.46,25.46,0,0,1,3.89-3.5,22.9,22.9,0,0,1,2.82-1.74l.77-.38a.76.76,0,0,1,.26-.11l-.25.16-.74.44a25.49,25.49,0,0,0-2.74,1.79,27.54,27.54,0,0,0-7.66,9.19,27.88,27.88,0,0,0-2.65,7.85,24.36,24.36,0,0,0,.12,9.46,16.22,16.22,0,0,0,1.81,4.77,9.5,9.5,0,0,0,3.68,3.68,7.27,7.27,0,0,0,5.27.57,11.22,11.22,0,0,0,4.85-2.79,15,15,0,0,0,2.94-3.88,27.28,27.28,0,0,0,1.76-4.47c.93-3,1.53-6.1,2.49-9a19.42,19.42,0,0,1,4.29-7.43,10.25,10.25,0,0,1,6.84-3.39l-.06.4L490,150.72l-4-1.5-1-.4Z" style="fill:#263238"></path><path d="M551.68,153.36h-21.8c-5.78,9.74-9.65,22.22-4.57,32.43,1.86,3.73,5.15,7.29,9.32,7.4,5.06.15,8.9-4.87,9.9-9.82s.1-10.1.51-15.14S548.23,157.75,551.68,153.36Z" style="fill:#BA68C8"></path><path d="M551.68,153.36l-.15.23-.51.73c-.44.63-1.08,1.56-1.83,2.8a34.5,34.5,0,0,0-2.37,4.73,22,22,0,0,0-1.62,6.75c-.18,2.59,0,5.44,0,8.51a35.48,35.48,0,0,1-.23,4.77,15.69,15.69,0,0,1-1.36,4.9,13.58,13.58,0,0,1-3.13,4.34,10.63,10.63,0,0,1-2.32,1.57,8,8,0,0,1-8.31-.9,14.71,14.71,0,0,1-4-4.41,23.29,23.29,0,0,1-3.08-9.52,31.46,31.46,0,0,1,.66-9.41,51.62,51.62,0,0,1,6.23-15.2l.06-.1h.12l16,.13,4.33.05h1.11a2.13,2.13,0,0,1,.36,0h-.41l-1.17,0-4.4.05-15.82.13.18-.11a52,52,0,0,0-6.1,15.1,31.13,31.13,0,0,0-.62,9.25,22.88,22.88,0,0,0,3,9.29,14.2,14.2,0,0,0,3.85,4.26,7.88,7.88,0,0,0,5.19,1.54,7.69,7.69,0,0,0,2.59-.68,10,10,0,0,0,2.2-1.48,13.06,13.06,0,0,0,3-4.17,15.17,15.17,0,0,0,1.34-4.75,34.49,34.49,0,0,0,.26-4.71c0-3.05-.18-5.92,0-8.53a22.1,22.1,0,0,1,1.71-6.85A32.87,32.87,0,0,1,549,157c.78-1.24,1.45-2.15,1.92-2.76.23-.3.41-.51.54-.66S551.67,153.36,551.68,153.36Z" style="fill:#263238"></path><g style="opacity:0.30000000000000004"><path d="M503.16,157.92l-24.77-3.61c3.08,6,9.07,10.15,15.5,12.21s13.31,2.23,20.06,1.95a69.22,69.22,0,0,0,16.22-2.29,33.2,33.2,0,0,0,14.2-7.88Z"></path></g><path d="M509.33,87.63s-25.56-2.6-35.16,19.21l-5.47,16.45s-4.29,9.52,2.4,21.19c5.78,10.09,14.49,17.77,37.14,20,22,2.17,45.5-4.58,53.3-20,6.82-13.52,4.81-29.33,1.56-35.14C558.67,101.4,542.23,86.56,509.33,87.63Z" style="fill:#BA68C8"></path><path d="M503.41,88.47S490.52,80.74,488,79.11c-6.94-4.4-15.79-8.67-19-2.52-2.5,4.83,7.4,33.26,7.4,33.26l17.36-13.74Z" style="fill:#BA68C8"></path><g style="opacity:0.30000000000000004"><path d="M499.4,90.57S474.15,74,472,76s6.56,25.67,6.56,25.67S496.12,99,499.4,90.57Z"></path></g><path d="M476,103.71c1.58-4.17,5.38-8.32,8.7-11.18a8.62,8.62,0,0,0-.35,5.22c5.82-4.36,12-8.86,19.17-9.75l-1.94,4.9-13.31,14.26Z" style="fill:#BA68C8"></path><path d="M518.79,121.25l0,0a9.87,9.87,0,0,0-5.71-1.87l-6.9-.16a9.85,9.85,0,0,0-3.84.64,10.61,10.61,0,0,0-3.68,2.4,17.06,17.06,0,0,0-3.29,18,15.36,15.36,0,0,0,29.07-1.69A16.48,16.48,0,0,0,518.79,121.25Z" style="fill:#fff;opacity:0.30000000000000004"></path><path d="M514.16,122.43a12.08,12.08,0,0,0-9.48-.44c-1,.21-2,1.66-1.29,2.46l4,4.76a1.15,1.15,0,0,0,1.53.22l6.67-4.46C516.51,124.32,515.53,122.86,514.16,122.43Z" style="fill:#263238"></path><path d="M508.46,127.16a3,3,0,0,0-.2.88,9.57,9.57,0,0,0,0,2.45A9.79,9.79,0,0,0,509.3,134a8.45,8.45,0,0,0,3,3.19,7.24,7.24,0,0,0,4.2,1.07,6.94,6.94,0,0,0,3.35-1.17,6.3,6.3,0,0,0,1.7-1.72,2.21,2.21,0,0,0,.4-.8,8.15,8.15,0,0,1-2.26,2.27,6.85,6.85,0,0,1-3.21,1,7,7,0,0,1-4-1.05,8.12,8.12,0,0,1-2.91-3,9.9,9.9,0,0,1-1.11-3.32A17.52,17.52,0,0,1,508.46,127.16Z" style="fill:#263238"></path><path d="M495.73,132a3,3,0,0,0,.37.74,14.14,14.14,0,0,0,1.27,1.86,6.06,6.06,0,0,0,2.67,2,5.24,5.24,0,0,0,4-.37,7.18,7.18,0,0,0,3-2.82,10.54,10.54,0,0,0,1.19-3.16,15.28,15.28,0,0,0,.32-2.25,3.22,3.22,0,0,0,0-.84c-.08,0-.13,1.19-.59,3a11.1,11.1,0,0,1-1.24,3,6.83,6.83,0,0,1-2.82,2.65,5,5,0,0,1-3.72.38,6.07,6.07,0,0,1-2.58-1.82C496.38,133,495.8,132,495.73,132Z" style="fill:#263238"></path><path d="M502.86,140.44c-.05,0,.25.63,1,1.35a6.82,6.82,0,0,0,3.66,1.73,6.7,6.7,0,0,0,4-.69,3.21,3.21,0,0,0,1.33-1c-.05-.07-.56.31-1.48.69a7.38,7.38,0,0,1-3.75.51,7.52,7.52,0,0,1-3.49-1.5C503.32,140.9,502.92,140.39,502.86,140.44Z" style="fill:#263238"></path><path d="M520.73,129.51c0,.14,17.16,2.79,38.38,5.92s38.43,5.56,38.45,5.42-17.16-2.79-38.38-5.93S520.75,129.37,520.73,129.51Z" style="fill:#263238"></path><path d="M520.34,132.06a3,3,0,0,0,.62.22l1.8.53c1.57.46,3.85,1.08,6.67,1.82,5.65,1.49,13.48,3.4,22.19,5.25s16.65,3.27,22.4,4.2c2.88.47,5.21.82,6.83,1l1.86.24a5.29,5.29,0,0,0,.65.06,2.8,2.8,0,0,0-.64-.16l-1.84-.34-6.8-1.2c-5.74-1-13.65-2.5-22.36-4.34s-16.54-3.7-22.2-5.1l-6.71-1.66-1.83-.44A2.62,2.62,0,0,0,520.34,132.06Z" style="fill:#263238"></path><path d="M443.25,129.93c0,.14,12.7-.05,28.34-.44s28.34-.81,28.33-1-12.69.05-28.34.44S443.25,129.79,443.25,129.93Z" style="fill:#263238"></path><path d="M453.64,138.54c0,.14,9.89-1.63,22-4s22-4.33,21.95-4.47-9.89,1.64-22,4S453.61,138.4,453.64,138.54Z" style="fill:#263238"></path><path d="M565.2,120.24s7.67-38.94,2.49-44.43-35.8,15.88-35.8,15.88l28.64,20.48Z" style="fill:#BA68C8"></path><g style="opacity:0.30000000000000004"><path d="M559.76,109.31s7.49-28.9,4.24-30.22-26.3,14.43-26.3,14.43S548.68,109,559.76,109.31Z"></path></g><path d="M537.7,92.32c4.37,0,9.51,2.21,13.31,4.37a8.2,8.2,0,0,0-4.91,1.52c6,4,12.34,8.32,15.69,14.88l-5.17-.12-17.74-7.68Z" style="fill:#BA68C8"></path><path d="M498.82,123.4c-.39,0-.75-1.3-1.36-3.25a11.06,11.06,0,0,0-1.44-3,5.06,5.06,0,0,0-2.83-2.08,5.52,5.52,0,0,0-3.54.54,10.91,10.91,0,0,0-2.67,2c-1.43,1.43-2.33,2.49-2.66,2.29s0-1.53,1.18-3.48a9.58,9.58,0,0,1,2.95-2.95,7.21,7.21,0,0,1,5.34-1,6.91,6.91,0,0,1,4.31,3.36,9.66,9.66,0,0,1,1.22,4C499.49,122.05,499.16,123.36,498.82,123.4Z" style="fill:#263238"></path><path d="M537.32,123.46c-.34.19-1.2-.91-2.52-2.46a10.69,10.69,0,0,0-2.51-2.21,5,5,0,0,0-3.42-.81,5.44,5.44,0,0,0-3,1.88,10.58,10.58,0,0,0-1.69,2.87c-.75,1.88-1.16,3.2-1.55,3.14s-.62-1.39-.27-3.66a9.53,9.53,0,0,1,1.56-3.87,7.24,7.24,0,0,1,4.53-3,6.91,6.91,0,0,1,5.28,1.41,9.56,9.56,0,0,1,2.67,3.18C537.41,122,537.62,123.29,537.32,123.46Z" style="fill:#263238"></path><path d="M476.46,151.55c6.28,7.66,16.07,11.84,25.9,13.08s31.22,3.13,50.7-10.25" style="fill:#BA68C8"></path><path d="M553.06,154.38a3.63,3.63,0,0,1-.67.5l-2,1.33c-.86.61-2,1.2-3.3,1.93s-2.85,1.42-4.54,2.22A64.64,64.64,0,0,1,530,164.28a75.06,75.06,0,0,1-16,1.47c-2.86,0-5.65-.23-8.34-.49a68.55,68.55,0,0,1-7.69-1.15,43,43,0,0,1-12.29-4.7,32.7,32.7,0,0,1-7-5.4l-1-1-.65-.78a6.8,6.8,0,0,1-.52-.67,4.53,4.53,0,0,1,.6.59c.19.22.42.47.68.75l1,1a34.29,34.29,0,0,0,7.08,5.22,43.15,43.15,0,0,0,12.2,4.54,65.12,65.12,0,0,0,7.65,1.11c2.67.26,5.44.46,8.29.48a76.85,76.85,0,0,0,15.93-1.41A67.38,67.38,0,0,0,542.39,160c1.69-.77,3.26-1.4,4.55-2.14s2.46-1.25,3.33-1.83l2.06-1.25A6.47,6.47,0,0,1,553.06,154.38Z" style="fill:#263238"></path><g style="opacity:0.30000000000000004"><path d="M516.81,109.69c.06,1.47-2.47,2.78-5.64,2.54s-5.49-1.88-5.21-3.33,2.76-2.22,5.6-2S516.75,108.21,516.81,109.69Z" style="fill:#fff"></path></g><path d="M532.51,78.42c-.15-.52-.82-.64-1.37-.64A16.76,16.76,0,0,0,524.93,79a93.22,93.22,0,0,0,1.89-11.12,14.44,14.44,0,0,0-11.48,6.24c-.3.44-.72,1-1.24.84s-.59-.54-.73-.93l-1.68-4.69c-3.52-.47-6.76,11.59-.31,22.33l13.65-1c1.62-4.37,5.74-7,7.36-11.41A1.28,1.28,0,0,0,532.51,78.42Z" style="fill:#BA68C8"></path></g><g id="freepik--cat-2--inject-166"><path d="M333.26,410.73c-13.51-1.33-13.1-9.48-12.23-15.64s4.16-11.64,7-17.2,4-13.73,4-17.86c0-7.16-.07-12.83-7.18-16.76-2.55-1.41-7.31-.92-11.78,3-2.19,1.91-3.41,9.16-2.64,16.59,1.22,11.76-5.35,15.87-5.89,25.39s.06,18.71,6.64,25.61,17.19,10.19,26.14,6.88Z" style="fill:#BA68C8"></path><path d="M402.21,400.54a10.55,10.55,0,0,1,7.84,5,14.23,14.23,0,0,1,1.87,9.26,22.34,22.34,0,0,1-3.35,8.95c2.31.13,4.09,2.36,4.4,4.66a4.51,4.51,0,0,1-1.24,4c-1.13,1-2.78,1.07-4.3,1.06-5.93,0-11.84-.62-17.74-1.21Z" style="fill:#BA68C8"></path><g style="opacity:0.30000000000000004"><path d="M402.21,400.54a10.55,10.55,0,0,1,7.84,5,14.23,14.23,0,0,1,1.87,9.26,22.34,22.34,0,0,1-3.35,8.95c2.31.13,4.09,2.36,4.4,4.66a4.51,4.51,0,0,1-1.24,4c-1.13,1-2.78,1.07-4.3,1.06-5.93,0-11.84-.62-17.74-1.21Z"></path></g><path d="M406,376.92a184.78,184.78,0,0,1-1.36,47.8,11,11,0,0,1,3.37,3,4.62,4.62,0,0,1,.53,4.35c-.78,1.67-2.76,2.47-4.6,2.53s-3.71-.14-5.56-.14c-2.06,0-5.54.14-7.48-.39l-1.17-15.48Z" style="fill:#BA68C8"></path><path d="M406,376.92l-4.54,11.86-11.5,30,0-.11c.37,4.85.77,10.07,1.18,15.48l-.19-.23a35.43,35.43,0,0,0,7.59.37c1.77,0,3.51.18,5.21.15a5.22,5.22,0,0,0,4.26-1.92,4.1,4.1,0,0,0-.14-4.4,10.26,10.26,0,0,0-3.39-3.13l-.14-.09,0-.17a179.15,179.15,0,0,0,2.28-34.25c-.1-4.25-.3-7.62-.45-9.94-.13-2.06-.19-3.05-.22-3.57,0,.2.05.44.1.88s.19,1.52.29,2.68c.2,2.31.45,5.69.6,9.94a172.31,172.31,0,0,1-2.1,34.34l-.11-.25a10.71,10.71,0,0,1,3.56,3.29,5.45,5.45,0,0,1,.79,2.43,4,4,0,0,1-.66,2.54,5.74,5.74,0,0,1-4.69,2.15c-1.74,0-3.48-.13-5.22-.14-2.62,0-5.25.18-7.73-.4l-.18,0,0-.2c-.4-5.41-.79-10.63-1.15-15.48v-.06l0-.05c4.84-12.21,9-22.65,11.91-30.08C404.14,381.5,405.56,377.93,406,376.92Z" style="fill:#263238"></path><path d="M400.66,349.89c0,.1,5.94,8.09,7,26.67.71,12.69-18.68,55.11-18.68,55.11l-27.63,2.84L339.64,427l3.1-45.7c6.78-12.18,12.81-24,12.34-32.39Z" style="fill:#BA68C8"></path><path d="M345.91,398c.51-.25,19.88-3,20.91,15,0,0,1.34,5.3-4,10.43,0,0,5.51-.35,6.16,7.6a3.46,3.46,0,0,1-3.19,3.74c-5.7.41-17.53,1-22.63-1.08-6.83-2.74-11.62-6.49-12.48-17.86s3.42-24.71,12-34.52C347.94,375.37,345.91,398,345.91,398Z" style="fill:#BA68C8"></path><path d="M388.06,388.19c0,1.29.75,32.62,2.7,35.48s7.85.25,4.31,10.84H377.85s-2.84-.26-6.45-10.84-6.2-22.47-6.2-22.47l2.35-24.64Z" style="fill:#BA68C8"></path><path d="M362.17,384.29a1.23,1.23,0,0,1,.07.26c0,.2.1.46.17.78.14.72.33,1.72.58,3,.5,2.65,1.2,6.43,2.08,11.12.38,2.36,1.08,4.9,1.75,7.65s1.48,5.68,2.38,8.76,1.9,6.3,3.1,9.59a39.62,39.62,0,0,0,2.19,4.86,16.14,16.14,0,0,0,1.46,2.29,7.75,7.75,0,0,0,.9,1,3.08,3.08,0,0,0,1,.66h17.19l-.25.18a19.85,19.85,0,0,0,1.08-5,4.25,4.25,0,0,0-.45-2.31,3.61,3.61,0,0,0-1.79-1.41,13.27,13.27,0,0,1-2.22-1.07,3.58,3.58,0,0,1-.91-.91,4.45,4.45,0,0,1-.43-1.18,37.78,37.78,0,0,1-.72-4.56c-.61-5.93-.83-11.23-1-15.65s-.26-8-.31-10.4c0-1.19,0-2.12,0-2.8v-.72a.67.67,0,0,1,0-.25,1.15,1.15,0,0,1,0,.25c0,.19,0,.43,0,.72,0,.67.07,1.61.12,2.8.11,2.47.27,6,.47,10.39s.49,9.71,1.13,15.61a37.45,37.45,0,0,0,.73,4.49,3.8,3.8,0,0,0,.38,1,3,3,0,0,0,.77.77,13.37,13.37,0,0,0,2.15,1,4.06,4.06,0,0,1,2,1.61,4.87,4.87,0,0,1,.53,2.58,20.17,20.17,0,0,1-1.1,5.13l-.05.18H377.83a3.06,3.06,0,0,1-1.34-.8,8.07,8.07,0,0,1-1-1.07,15.91,15.91,0,0,1-1.5-2.36,42.11,42.11,0,0,1-2.21-4.93c-1.2-3.32-2.18-6.56-3.08-9.64s-1.65-6-2.34-8.79-1.33-5.31-1.69-7.68c-.8-4.7-1.45-8.49-1.91-11.15-.21-1.28-.38-2.29-.49-3l-.12-.78A1.1,1.1,0,0,1,362.17,384.29Z" style="fill:#263238"></path><path d="M330.94,407.74a2.68,2.68,0,0,1-.05.54c0,.35-.1.87-.16,1.56a25.68,25.68,0,0,0,.13,6h0a28,28,0,0,0,1.86,8.37,15.46,15.46,0,0,0,2.8,4.41,16.58,16.58,0,0,0,4.65,3.45,20.09,20.09,0,0,0,5.91,2.17,46,46,0,0,0,6.77.64c2.33.08,4.73.05,7.19,0,1.22,0,2.46-.1,3.71-.18l1.88-.12a3.76,3.76,0,0,0,1.73-.38,3,3,0,0,0,1.53-3,11.29,11.29,0,0,0-.68-3.63,5.91,5.91,0,0,0-2.11-2.79,5.6,5.6,0,0,0-3.22-1h-.65l.45-.45a13.81,13.81,0,0,0,3.3-4.81,10.06,10.06,0,0,0,.61-5.37V413a19.31,19.31,0,0,0-1.58-6,20.37,20.37,0,0,0-1.36-2.54,15.83,15.83,0,0,0-1.73-2.11,14.47,14.47,0,0,0-8-4.19,13.48,13.48,0,0,0-1.79-.28l-1.6-.08a10.86,10.86,0,0,0-1.38,0l-1.15.09-1.57.11a3.13,3.13,0,0,1-.54,0l.53-.09,1.57-.18,1.16-.12a10.72,10.72,0,0,1,1.39,0l1.62,0a14.08,14.08,0,0,1,1.81.26,14.61,14.61,0,0,1,8.2,4.19,16,16,0,0,1,1.79,2.15,22.09,22.09,0,0,1,1.42,2.59,19.64,19.64,0,0,1,1.65,6.14V413a10.34,10.34,0,0,1-.61,5.66,14.33,14.33,0,0,1-3.4,5l-.19-.45a6.11,6.11,0,0,1,3.55,1.12,6.36,6.36,0,0,1,2.3,3,11.7,11.7,0,0,1,.73,3.8,3.51,3.51,0,0,1-1.82,3.48,4.27,4.27,0,0,1-1.94.45l-1.89.12c-1.25.07-2.49.13-3.73.17-2.46.09-4.87.11-7.22,0a47.18,47.18,0,0,1-6.84-.67,20.78,20.78,0,0,1-6-2.25,16.79,16.79,0,0,1-4.74-3.57,15.51,15.51,0,0,1-2.84-4.55,27.52,27.52,0,0,1-1.78-8.49h0a24.42,24.42,0,0,1,0-6c.08-.68.17-1.21.24-1.55A4,4,0,0,1,330.94,407.74Z" style="fill:#263238"></path><path d="M353.08,425.47a17.17,17.17,0,0,1,10.57-2.12c0,.16-2.44.14-5.35.74S353.15,425.62,353.08,425.47Z" style="fill:#263238"></path><g style="opacity:0.30000000000000004"><path d="M360.94,401A15.09,15.09,0,0,0,349,394.15c-2.31-.09-4.81.47-6.33,2.21-.49.56-.79,1.56-.15,1.95a1.56,1.56,0,0,0,1.25-.05c5.08-1.61,11.72-.58,16.94,2.73"></path></g><g style="opacity:0.30000000000000004"><path d="M404.57,375.09c-2.56-1.27-5.81,0-7.61,2.27s-2.46,5.13-3,7.94c-1.87,9.94-2.63,20.17-1.11,30.17,1.79-1.91,13.91-30.34,14.18-33.43C407.29,379.29,407,376.32,404.57,375.09Z" style="fill:#fff"></path></g><path d="M390.28,420.28a9.63,9.63,0,0,1,.74-1.51c.51-.95,1.23-2.34,2.11-4,1.75-3.44,4.07-8.24,6.43-13.64s4.34-10.34,5.71-13.95c.65-1.74,1.18-3.19,1.59-4.29a9.34,9.34,0,0,1,.61-1.56,11.62,11.62,0,0,1-.42,1.63c-.31,1-.79,2.52-1.42,4.35-1.29,3.65-3.2,8.64-5.58,14s-4.75,10.19-6.59,13.59c-.92,1.7-1.69,3.06-2.26,4A9.64,9.64,0,0,1,390.28,420.28Z" style="fill:#263238"></path><path d="M331.35,351.77a15.43,15.43,0,0,0-3.13-7.3c-2.71-3.28-7-4.9-11.19-5.53-5.2-.77-11-.07-14.82,3.51a2,2,0,0,0-.72,1.13,1.45,1.45,0,0,0,1.29,1.43,4.24,4.24,0,0,0,2.06-.35,11.39,11.39,0,0,0-3,8.93,17.14,17.14,0,0,0,3.67,8.87c1.6,2.08,3.55,3.89,5,6.06s2.48,4.88,1.83,7.42l19.26-16.15A35.83,35.83,0,0,0,331.35,351.77Z" style="fill:#BA68C8"></path><path d="M394.61,272.4a2.12,2.12,0,0,0-1.4-.38,7.34,7.34,0,0,0-6.19,3.49,21.46,21.46,0,0,0-1.68-6.74,2.43,2.43,0,0,0-1.13-1.41c-.87-.36-1.81.31-2.44,1-3.08,3.45-3.84,8.58-2.6,13A22.46,22.46,0,0,0,387,292.55l3.6.44a29.45,29.45,0,0,1,3.69-17.29C394.93,274.65,395.53,273.18,394.61,272.4Z" style="fill:#BA68C8"></path><path d="M399.14,283.82s26.58-2.7,36.56,20l3.37,10.11a38.88,38.88,0,0,1-2.36,30.57c-.18.34.23-.3,0,0-7,9.25-12.88,16.94-36.43,19.26C377.37,366,353,359,344.85,342.94c-7.1-14.06-5-30.51-1.63-36.54C347.83,298.14,364.93,282.7,399.14,283.82Z" style="fill:#BA68C8"></path><path d="M399.14,284.09s11.7-12.5,14-15.09c6.24-7,14.55-14.36,19.69-7.79,4,5.16,1.34,41.69,1.34,41.69l-22.51-12.09Z" style="fill:#BA68C8"></path><g style="opacity:0.30000000000000004"><path d="M404,285.59s22.53-26.17,25.38-24.28.13,32.39.13,32.39S409.92,294.87,404,285.59Z"></path></g><path d="M430.88,294.56c-2.58-3.85-7.41-7.15-11.46-9.27a9,9,0,0,1,1.59,5.22c-6.93-3.05-14.23-6.15-21.72-5.35l3.13,4.5L419.26,301Z" style="fill:#BA68C8"></path><path d="M401.64,285a1.16,1.16,0,0,1,.42-.06,11.07,11.07,0,0,1,1.2-.06,25.36,25.36,0,0,1,4.42.36,36.91,36.91,0,0,1,13.69,5.27l-.42.22c0-.09,0-.19,0-.29a7.64,7.64,0,0,0-.68-2.62c-.35-.84-.75-1.63-1.1-2.45l-.27-.62.61.26a24.87,24.87,0,0,1,9.12,6.64,17,17,0,0,1,1.93,2.72,4.91,4.91,0,0,1,.52,1.09,31.76,31.76,0,0,0-2.7-3.57,25.94,25.94,0,0,0-9.07-6.37l.35-.37c.34.78.75,1.59,1.11,2.45a7.68,7.68,0,0,1,.73,2.84c0,.11,0,.22,0,.33v.48l-.41-.26a39.05,39.05,0,0,0-13.46-5.35,30.16,30.16,0,0,0-4.36-.54A12.51,12.51,0,0,1,401.64,285Z" style="fill:#263238"></path><path d="M410.27,320a10.87,10.87,0,0,0-3.58-2.39,10.29,10.29,0,0,0-4.21-.77l-7.29.17a10.18,10.18,0,0,0-5.86,1.94l0,0a17.14,17.14,0,0,0-5.84,18,16,16,0,0,0,30.23,1.75A17.74,17.74,0,0,0,410.27,320Z" style="fill:#fff;opacity:0.30000000000000004"></path><path d="M394.12,320a12.58,12.58,0,0,1,9.86-.45c1,.22,2,1.73,1.34,2.56l-4.12,4.95a1.21,1.21,0,0,1-1.59.23l-6.93-4.64C391.67,322,392.7,320.46,394.12,320Z" style="fill:#263238"></path><path d="M400.05,324.93a3.37,3.37,0,0,1,.21.91,10.88,10.88,0,0,1,0,2.55,10.26,10.26,0,0,1-1.12,3.61,8.74,8.74,0,0,1-3.15,3.32,7.47,7.47,0,0,1-4.36,1.11,7.13,7.13,0,0,1-3.49-1.22,6.5,6.5,0,0,1-1.77-1.78,2.62,2.62,0,0,1-.41-.84,8.48,8.48,0,0,0,2.34,2.36,7.1,7.1,0,0,0,3.35,1.07,7.38,7.38,0,0,0,4.13-1.08,8.69,8.69,0,0,0,3-3.14,10.3,10.3,0,0,0,1.16-3.46A18.8,18.8,0,0,0,400.05,324.93Z" style="fill:#263238"></path><path d="M413.29,330a3.47,3.47,0,0,1-.39.77,14.93,14.93,0,0,1-1.32,1.94,6.43,6.43,0,0,1-2.78,2.07,5.44,5.44,0,0,1-4.17-.39,7.43,7.43,0,0,1-3.09-2.93,11.19,11.19,0,0,1-1.25-3.29,15.19,15.19,0,0,1-.32-2.34,3.24,3.24,0,0,1,0-.87c.08,0,.14,1.23.62,3.14a11.42,11.42,0,0,0,1.28,3.14,7.13,7.13,0,0,0,2.94,2.75,5.17,5.17,0,0,0,3.87.4,6.32,6.32,0,0,0,2.68-1.89C412.61,331,413.22,329.91,413.29,330Z" style="fill:#263238"></path><path d="M405.87,338.74a3.32,3.32,0,0,1-1.06,1.4,6.95,6.95,0,0,1-7.92,1.09,3.29,3.29,0,0,1-1.38-1.07c.05-.07.57.33,1.53.72a7.59,7.59,0,0,0,3.9.53,7.68,7.68,0,0,0,3.63-1.56C405.4,339.21,405.81,338.69,405.87,338.74Z" style="fill:#263238"></path><path d="M343.1,312.37s-5.42-39-1.06-43.83S371,287.65,371,287.65l-23.87,17.26Z" style="fill:#BA68C8"></path><g style="opacity:0.30000000000000004"><path d="M347.78,302.18s-5.49-29.08-2.8-30.06,21.18,16.76,21.18,16.76S356.85,303,347.78,302.18Z"></path></g><path d="M367.41,288.41c-3.83-.23-8.46,1.37-11.92,3a7.12,7.12,0,0,1,4.21,1.62c-5.54,3.18-11.31,6.58-14.64,12.13l4.54.2,16-5.7Z" style="fill:#BA68C8"></path><path d="M346.59,304a1,1,0,0,1,.14-.32c.11-.2.25-.51.49-.88a17.67,17.67,0,0,1,2.28-2.89,30.46,30.46,0,0,1,9.94-6.69l.1-.05-.05.41a8.87,8.87,0,0,0-3.82-1.85l-.54-.11.46-.31a17.24,17.24,0,0,1,8.42-2.88,14.76,14.76,0,0,1,2.6,0,4.21,4.21,0,0,1,.93.16c0,.08-1.32-.13-3.5.09a17.58,17.58,0,0,0-8.2,3l-.08-.42a9.07,9.07,0,0,1,4,1.93l.3.25-.36.16-.09,0a32.36,32.36,0,0,0-9.9,6.49A29,29,0,0,0,346.59,304Z" style="fill:#263238"></path><path d="M355.65,354.8a2.83,2.83,0,0,1,.59.24l1.65.78c.71.35,1.58.77,2.62,1.19s2.19,1,3.52,1.46l2.07.78c.73.27,1.5.5,2.28.76,1.57.55,3.29,1,5.09,1.48A82.13,82.13,0,0,0,397.53,364c1.86-.11,3.63-.19,5.28-.4.82-.09,1.62-.15,2.38-.27l2.19-.33c1.4-.19,2.65-.49,3.75-.7s2-.43,2.81-.63l1.77-.42a2.73,2.73,0,0,1,.63-.11,2.72,2.72,0,0,1-.6.22l-1.75.52c-.76.22-1.69.48-2.79.72s-2.35.56-3.75.77l-2.2.37c-.76.13-1.57.2-2.39.3-1.66.24-3.44.33-5.31.46a88,88,0,0,1-12.2-.34,86.69,86.69,0,0,1-12-2.2c-1.8-.51-3.53-1-5.1-1.54-.78-.27-1.56-.51-2.28-.79l-2.07-.82c-1.33-.5-2.48-1.07-3.51-1.53s-1.89-.9-2.58-1.29l-1.61-.87A3.3,3.3,0,0,1,355.65,354.8Z" style="fill:#263238"></path><g style="opacity:0.30000000000000004"><path d="M377.14,362.2c-5-.71-9.78-2.76-14.68-4.14,6.79,4.44,14.35,7.87,22.37,9.08s16.53.08,23.52-4C408.35,363.12,397.55,365.06,377.14,362.2Z"></path></g><path d="M343.94,315.71a16,16,0,0,1-14,9.43,13.9,13.9,0,0,0,7.89,7l-6.07,1.47c6,7.19,19.91,16.58,28.46,20Z" style="fill:#BA68C8"></path><path d="M451,320.81a14.83,14.83,0,0,1-16.43-10.33l-14.24,44.58c10.45-6.14,25.56-17.46,30.3-25.56l-6.23-.44A13.9,13.9,0,0,0,451,320.81Z" style="fill:#BA68C8"></path><path d="M376.62,331c0,1.65-2.26,3-5,3s-5-1.33-5-3,2.26-3,5-3S376.62,329.33,376.62,331Z" style="opacity:0.30000000000000004"></path><path d="M428,326.11c0,1.65-2.25,3-5,3s-5-1.34-5-3,2.25-3,5-3S428,324.46,428,326.11Z" style="opacity:0.30000000000000004"></path><path d="M417.26,304.42a9.63,9.63,0,1,1-7,11.23A9.35,9.35,0,0,1,417.26,304.42Z" style="fill:#fff"></path><path d="M417.17,304c4.91-1,9.64,1.83,10.55,6.31s-2.33,8.93-7.25,9.93-9.63-1.82-10.54-6.31S412.26,305,417.17,304Z" style="fill:#263238"></path><path d="M381.89,309.74a9.42,9.42,0,1,1-12.9,2.12A9.25,9.25,0,0,1,381.89,309.74Z" style="fill:#fff"></path><path d="M382.4,309.06c4,3,5.06,8.4,2.33,12.07s-8.21,4.21-12.23,1.22-5.06-8.4-2.33-12.07S378.38,306.06,382.4,309.06Z" style="fill:#263238"></path></g><g id="freepik--cat-1--inject-166"><path d="M149.28,357c-7.71,4.66-18.23,3.16-25.28-2.45s-10.83-14.65-11.41-23.64,1.77-17.95,5.21-26.28c3-7.15,6.72-14,9.23-21.29s3.69-15.41,1.32-22.78-8.24-13.42-15.1-17.13c-16.35-8.81-37.87-4.63-51.74,7.73s-20.32,30.62-20.32,50.07c0,18.57,6.56,36.63,15.32,53L60,341.12A41.62,41.62,0,0,0,73.53,374q1.16-5.36,2.33-10.7a65,65,0,0,0,88,21.58Z" style="fill:#BA68C8"></path><g style="opacity:0.30000000000000004"><path d="M128.64,260.57c-2.39-7.42-8.25-13.42-15.11-17.13-16.35-8.81-38-5-51.88,7.34a60.71,60.71,0,0,0-18,30.5,97.62,97.62,0,0,0-2.44,18.38c-.26,5.33,4.73,8.22,10,6.72,4.39-1.27,7.64-4.88,10.65-8.34a70.94,70.94,0,0,0,5.95,20.46c.46,1,1.08,2.1,2.15,2.37,1.39.35,2.65-.86,3.53-2A61.33,61.33,0,0,0,81,306.44c4.35,10.58,20.63,17.95,31.3,22.08,0,0,.61-14.56,5.36-22.87,3-7.15,7.17-15,9.68-22.3S131,267.94,128.64,260.57Z" style="fill:#fff"></path></g><path d="M267.53,355.08a20.23,20.23,0,0,1,15,9.58,27.4,27.4,0,0,1,3.59,17.78,42.74,42.74,0,0,1-6.44,17.19c4.44.25,7.86,4.53,8.46,8.94.37,2.77-.26,5.87-2.37,7.71s-5.36,2.06-8.26,2.05c-11.39-.06-22.74-1.2-34.07-2.33Z" style="fill:#BA68C8"></path><g style="opacity:0.30000000000000004"><path d="M267.53,355.08a20.23,20.23,0,0,1,15,9.58,27.4,27.4,0,0,1,3.59,17.78,42.74,42.74,0,0,1-6.44,17.19c4.44.25,7.86,4.53,8.46,8.94.37,2.77-.26,5.87-2.37,7.71s-5.36,2.06-8.26,2.05c-11.39-.06-22.74-1.2-34.07-2.33Z"></path></g><path d="M274.72,309.73c2.85,30.57,2.49,61.51-2.61,91.78a20.72,20.72,0,0,1,6.47,5.84c1.6,2.46,2.25,5.7,1,8.36-1.49,3.21-5.29,4.75-8.83,4.86s-7.12-.27-10.66-.27c-4,0-10.64.28-14.38-.74l-2.24-29.74Z" style="fill:#BA68C8"></path><path d="M274.72,309.73l-31,80.19,0-.11c.71,9.3,1.47,19.33,2.26,29.73l-.2-.24a32.63,32.63,0,0,0,7.14.74c2.46.06,5,0,7.5,0,3.39,0,6.73.34,10,.27a12.72,12.72,0,0,0,4.71-.94,8.23,8.23,0,0,0,3.67-2.85,6.79,6.79,0,0,0,1.13-4.38,9.74,9.74,0,0,0-1.39-4.33,20,20,0,0,0-6.59-6.09l-.14-.09,0-.17a341.53,341.53,0,0,0,4.3-65.79c-.23-8.16-.63-14.64-1-19.09-.3-4.26-.45-6.28-.49-6.85,0,.25.07.72.17,1.72s.32,2.9.49,5.12c.37,4.44.83,10.93,1.1,19.09a335.53,335.53,0,0,1-4.12,65.89l-.11-.26a20.55,20.55,0,0,1,6.76,6.25,10.27,10.27,0,0,1,1.47,4.57,7.34,7.34,0,0,1-1.23,4.71,8.67,8.67,0,0,1-3.9,3,13.22,13.22,0,0,1-4.9,1c-3.32.08-6.66-.25-10-.27-2.52,0-5,.07-7.51,0a33,33,0,0,1-7.27-.77l-.18,0v-.19c-.78-10.4-1.53-20.43-2.23-29.74v0l0-.06Z" style="fill:#263238"></path><path d="M264.55,257.83s17.37,12.05,13.4,51.22-35.87,105.8-35.87,105.8L189,420.3l-41.65-14.38,6-87.75c13-23.37,24.61-46,23.7-62.17Z" style="fill:#BA68C8"></path><path d="M159.42,350.24c1-.49,38.18-5.73,40.15,28.78,0,0,2.58,10.18-7.59,20,0,0,10.56-.68,11.81,14.59a6.62,6.62,0,0,1-6.13,7.17c-10.94.79-33.65,1.84-43.43-2.07-13.13-5.25-22.32-12.46-24-34.29s6.57-47.44,23.06-66.28C163.33,306.76,159.42,350.24,159.42,350.24Z" style="fill:#BA68C8"></path><path d="M240.35,331.37c0,2.48,1.44,62.63,5.2,68.11s15.05.5,8.27,20.82H220.76s-5.46-.49-12.4-20.82-11.89-43.13-11.89-43.13l4.51-47.3Z" style="fill:#BA68C8"></path><path d="M190.64,323.89s.05.16.12.5.17.85.29,1.49c.25,1.34.62,3.27,1.08,5.76.93,5,2.26,12.31,3.92,21.35.2,1.13.42,2.29.63,3.48s.55,2.37.83,3.6q.87,3.68,1.87,7.64c1.33,5.27,2.83,10.91,4.55,16.82s3.64,12.11,5.95,18.43a79.48,79.48,0,0,0,4.2,9.38,32.05,32.05,0,0,0,2.83,4.41,11.66,11.66,0,0,0,.84,1,10.18,10.18,0,0,0,.92.94,5.6,5.6,0,0,0,2.11,1.33h33l-.26.18a36.72,36.72,0,0,0,2.1-9.63,8.38,8.38,0,0,0-.9-4.56,7.11,7.11,0,0,0-3.54-2.81,23.89,23.89,0,0,1-4.25-2,5.81,5.81,0,0,1-1.67-1.68,5,5,0,0,1-.48-1.09,7.78,7.78,0,0,1-.33-1.11,70.65,70.65,0,0,1-1.38-8.72c-1.19-11.38-1.63-21.55-2-30s-.56-15.28-.66-20c0-2.32-.08-4.13-.1-5.37v-1.39a4.34,4.34,0,0,1,0-.48l0,.48.05,1.39c0,1.24.1,3,.18,5.37.17,4.67.41,11.47.82,19.95s.92,18.65,2.14,30a68.19,68.19,0,0,0,1.39,8.65,9.25,9.25,0,0,0,.31,1.06,5,5,0,0,0,.44,1,5.41,5.41,0,0,0,1.54,1.55,25,25,0,0,0,4.17,1.95,7.63,7.63,0,0,1,3.78,3,8.9,8.9,0,0,1,1,4.83,37,37,0,0,1-2.11,9.78l-.06.19H220.73a5.74,5.74,0,0,1-2.42-1.47,11.1,11.1,0,0,1-1-1,12.16,12.16,0,0,1-.86-1,32.46,32.46,0,0,1-2.87-4.49,78.79,78.79,0,0,1-4.22-9.45c-2.31-6.36-4.2-12.56-5.93-18.48s-3.19-11.57-4.5-16.85c-.66-2.64-1.27-5.2-1.84-7.65-.28-1.23-.55-2.44-.81-3.61s-.42-2.35-.63-3.49c-1.58-9.05-2.86-16.34-3.75-21.38-.42-2.5-.76-4.44-1-5.78-.1-.65-.18-1.14-.24-1.5S190.64,323.89,190.64,323.89Z" style="fill:#263238"></path><path d="M159.42,350.24a.84.84,0,0,1,.27-.05l.77-.12c.69-.08,1.7-.27,3-.37a44.14,44.14,0,0,1,11.53.42,31.2,31.2,0,0,1,7.82,2.52,26.94,26.94,0,0,1,7.82,5.62,31.46,31.46,0,0,1,3.35,4.15,35.91,35.91,0,0,1,2.7,4.94A37.79,37.79,0,0,1,199.81,379V379a17.11,17.11,0,0,1,.18,5.35,21.11,21.11,0,0,1-1.34,5.38,27.24,27.24,0,0,1-6.48,9.54l-.2-.45a11.41,11.41,0,0,1,9.15,4.49c2.19,2.86,3,6.56,3.2,10.15a8,8,0,0,1-.1,2.63,6.43,6.43,0,0,1-5.57,4.95c-3.36.27-6.65.45-9.9.59-6.49.27-12.76.32-18.73,0s-11.69-.91-16.66-3A41.15,41.15,0,0,1,140.72,411a28.6,28.6,0,0,1-6.95-10,45.77,45.77,0,0,1-2.58-8.83c-.42-2.49-.68-4.44-.77-5.76,0-.65-.09-1.15-.12-1.51s0-.51,0-.51a5.08,5.08,0,0,1,.08.51c.05.36.1.85.18,1.49.12,1.33.41,3.26.86,5.74a47.82,47.82,0,0,0,2.65,8.75,28.77,28.77,0,0,0,6.93,9.81,41.33,41.33,0,0,0,12.55,7.45c4.88,2,10.6,2.55,16.52,2.91s12.2.23,18.68-.05c3.23-.14,6.54-.32,9.86-.59a5.91,5.91,0,0,0,5.11-4.54,7.59,7.59,0,0,0,.08-2.48c-.19-3.53-1-7.12-3.08-9.86a10.87,10.87,0,0,0-8.7-4.28h-.66l.47-.45a27,27,0,0,0,6.37-9.35,20.58,20.58,0,0,0,1.31-5.26,16.53,16.53,0,0,0-.14-5.17v0c-.84-8.25-4.22-15.61-8.94-20.5A27.15,27.15,0,0,0,182.7,353,31.82,31.82,0,0,0,175,350.4a45.23,45.23,0,0,0-11.47-.54c-1.33.07-2.35.24-3,.29l-.78.08A1.38,1.38,0,0,1,159.42,350.24Z" style="fill:#263238"></path><path d="M173.2,403a12.88,12.88,0,0,1,2.76-1.33,41.34,41.34,0,0,1,14.47-2.9,13.56,13.56,0,0,1,3.06.15,24.24,24.24,0,0,1-3.05.23,56.23,56.23,0,0,0-7.27.95,57.47,57.47,0,0,0-7.08,1.93A25.06,25.06,0,0,1,173.2,403Z" style="fill:#263238"></path><g style="opacity:0.30000000000000004"><path d="M188.28,355.94a28.94,28.94,0,0,0-22.92-13.13c-4.44-.17-9.24.9-12.15,4.24-.94,1.08-1.51,3-.29,3.74a2.94,2.94,0,0,0,2.39-.08c9.76-3.09,22.51-1.11,32.53,5.23"></path></g><g style="opacity:0.30000000000000004"><path d="M212.71,277c-8.05-1.13-15.65-4.41-23.47-6.61,10.85,7.1,22.94,12.58,35.76,14.51s26.42.13,37.6-6.42C262.6,278.5,245.32,281.6,212.71,277Z"></path></g><path d="M288.12,298.55C287,287.6,282.72,278,275.6,273.77l-20.27,78.09c12.49-10.93,20.21-24.09,24.91-40a17.5,17.5,0,0,0,1.66,5.79c2.85-8.59,3.49-19,1.07-24.81C284.69,294.74,286.4,296.65,288.12,298.55Z" style="fill:#BA68C8"></path><path d="M136.51,321l8.9-.35a80.84,80.84,0,0,0-15.72,15.25l9.82-3.87c-10.38,10.58-13.66,34.79-7.31,48.17L166.4,294A65.17,65.17,0,0,1,136.51,321Z" style="fill:#BA68C8"></path><path d="M166.4,294a62.39,62.39,0,0,0,6-14.19Z" style="fill:#BA68C8"></path><path d="M244.61,393a4.86,4.86,0,0,1,.39-.8l1.22-2.25c.54-1,1.19-2.16,1.91-3.56s1.59-3,2.48-4.75c3.61-7.06,8.37-16.94,13.21-28s8.93-21.27,11.75-28.69c1.39-3.71,2.47-6.74,3.21-8.83.35-1,.63-1.82.84-2.41a7.5,7.5,0,0,1,.32-.84,5.2,5.2,0,0,1-.22.87l-.74,2.45c-.68,2.11-1.71,5.16-3.06,8.89-2.72,7.46-6.73,17.68-11.61,28.78s-9.66,21-13.37,28c-.9,1.77-1.79,3.34-2.54,4.72s-1.43,2.57-2,3.52-1,1.66-1.3,2.2A5.63,5.63,0,0,1,244.61,393Z" style="fill:#263238"></path><path d="M254.78,336.45s-.12-.12-.32-.37-.49-.64-.83-1.15a31.74,31.74,0,0,1-2.57-4.61,34.77,34.77,0,0,1-3-17.53l.39.26a15.91,15.91,0,0,0-4,4.06,15.66,15.66,0,0,1-2.18,2.35,8.58,8.58,0,0,1-2.74,1.55,4.85,4.85,0,0,1-3.08,0,4.25,4.25,0,0,1-2.23-1.93,14.46,14.46,0,0,1-1.4-5.12,29.74,29.74,0,0,1-.23-4.6,28.74,28.74,0,0,1,.95-6.57,16,16,0,0,1,.54-1.72,2.92,2.92,0,0,1,.24-.59,2.54,2.54,0,0,1-.14.62c-.11.39-.26,1-.44,1.74a31.12,31.12,0,0,0-.77,6.53,32,32,0,0,0,.29,4.53,14.28,14.28,0,0,0,1.39,4.93,3.76,3.76,0,0,0,2,1.7,4.26,4.26,0,0,0,2.73-.05,8.05,8.05,0,0,0,2.57-1.46,16.39,16.39,0,0,0,2.11-2.27,16.05,16.05,0,0,1,4.19-4.19l.44-.26,0,.51a35.41,35.41,0,0,0,2.79,17.34,38.4,38.4,0,0,0,2.41,4.65C254.43,335.87,254.81,336.43,254.78,336.45Z" style="fill:#263238"></path><path d="M240.63,117.93a3.42,3.42,0,0,0-2.24-.61,11.74,11.74,0,0,0-9.89,5.58,34.35,34.35,0,0,0-2.68-10.78,3.91,3.91,0,0,0-1.81-2.25c-1.39-.58-2.89.5-3.9,1.62-4.92,5.5-6.14,13.72-4.16,20.83s6.82,13.19,12.58,17.81l5.76.71a46.94,46.94,0,0,1,5.9-27.64C241.14,121.53,242.1,119.17,240.63,117.93Z" style="fill:#BA68C8"></path><path d="M247.87,151.74s42.5-4.32,58.45,31.94l5.38,16.15a62.18,62.18,0,0,1-3.78,48.88c-.28.54.38-.49,0,0-11.19,14.79-20.57,27.07-58.23,30.79-36.62,3.61-75.64-7.61-88.6-33.26-11.35-22.47-8-48.76-2.61-58.41C165.86,174.63,193.18,150,247.87,151.74Z" style="fill:#BA68C8"></path><path d="M247.87,152.17s18.71-20,22.4-24.13c10-11.21,23.26-22.95,31.47-12.45,6.45,8.25,2.15,66.65,2.15,66.65l-36-19.33Z" style="fill:#BA68C8"></path><g style="opacity:0.30000000000000004"><path d="M255.7,154.57s36-41.83,40.57-38.82.21,51.78.21,51.78S265.11,169.4,255.7,154.57Z"></path></g><path d="M298.61,168.91c-4.13-6.15-11.85-11.43-18.31-14.82a14.31,14.31,0,0,1,2.53,8.33c-11.07-4.86-22.74-9.82-34.71-8.55l5,7.2L280,179.13Z" style="fill:#BA68C8"></path><path d="M251.87,153.67a2.15,2.15,0,0,1,.67-.1,17,17,0,0,1,1.92-.1,40.17,40.17,0,0,1,7.07.59,59,59,0,0,1,21.89,8.41l-.69.35c0-.14,0-.29,0-.45a12.18,12.18,0,0,0-1.08-4.19c-.56-1.34-1.21-2.61-1.76-3.91l-.43-1,1,.42A40,40,0,0,1,295,164.3a28.2,28.2,0,0,1,3.09,4.34,8.16,8.16,0,0,1,.83,1.74,53.48,53.48,0,0,0-4.32-5.7,41.72,41.72,0,0,0-14.49-10.18l.55-.59c.54,1.25,1.2,2.54,1.78,3.92a12.5,12.5,0,0,1,1.16,4.53c0,.18,0,.36,0,.53l0,.78-.66-.43a62.23,62.23,0,0,0-21.52-8.55,50.41,50.41,0,0,0-7-.87A18,18,0,0,1,251.87,153.67Z" style="fill:#263238"></path><path d="M265.67,209.53a17.4,17.4,0,0,0-5.73-3.83,16.28,16.28,0,0,0-6.73-1.22l-11.65.27a16.25,16.25,0,0,0-9.36,3.1l0,0c-8.47,6.35-12.38,18.47-9.35,28.81s12.75,18.19,23.2,18.78,20.92-6.09,25.14-16A28.4,28.4,0,0,0,265.67,209.53Z" style="fill:#fff;opacity:0.30000000000000004"></path><path d="M239.85,209.58c5.69-2.39,9.67-2.63,15.75-.72,1.65.35,3.26,2.76,2.16,4.08l-6.6,7.91a1.91,1.91,0,0,1-2.54.38l-11.08-7.42C235.93,212.73,237.58,210.3,239.85,209.58Z" style="fill:#263238"></path><path d="M249.32,217.45a4.7,4.7,0,0,1,.34,1.45,16.18,16.18,0,0,1,0,4.08,15.88,15.88,0,0,1-1.78,5.77,14,14,0,0,1-5,5.31,12,12,0,0,1-7,1.77,11.45,11.45,0,0,1-5.57-1.94,10.41,10.41,0,0,1-2.83-2.86,3.94,3.94,0,0,1-.66-1.33,13.66,13.66,0,0,0,3.75,3.77,11.25,11.25,0,0,0,5.35,1.71,11.74,11.74,0,0,0,6.6-1.73,13.73,13.73,0,0,0,4.82-5,16.58,16.58,0,0,0,1.86-5.52A28.63,28.63,0,0,0,249.32,217.45Z" style="fill:#263238"></path><path d="M270.49,225.5a5.59,5.59,0,0,1-.62,1.24,23.21,23.21,0,0,1-2.11,3.09,10,10,0,0,1-4.45,3.31,8.69,8.69,0,0,1-6.67-.61,11.91,11.91,0,0,1-4.93-4.69,18.19,18.19,0,0,1-2-5.25,25.49,25.49,0,0,1-.52-3.75,4.47,4.47,0,0,1,0-1.39c.12,0,.21,2,1,5a18.75,18.75,0,0,0,2.06,5,11.5,11.5,0,0,0,4.7,4.39,8.22,8.22,0,0,0,6.18.63,9.91,9.91,0,0,0,4.28-3C269.41,227.15,270.37,225.42,270.49,225.5Z" style="fill:#263238"></path><path d="M258.63,239.53a5.38,5.38,0,0,1-1.7,2.24,11.32,11.32,0,0,1-6.07,2.87,11.21,11.21,0,0,1-6.59-1.14,5.26,5.26,0,0,1-2.21-1.7c.08-.12.93.52,2.45,1.15a12.13,12.13,0,0,0,6.24.84,12.41,12.41,0,0,0,5.81-2.49C257.87,240.29,258.53,239.44,258.63,239.53Z" style="fill:#263238"></path><path d="M158.29,197.37s-8.67-62.27-1.7-70.05,46.24,30.55,46.24,30.55l-38.15,27.59Z" style="fill:#BA68C8"></path><g style="opacity:0.30000000000000004"><path d="M165.78,181.09S157,134.6,161.3,133s33.86,26.78,33.86,26.78S180.28,182.34,165.78,181.09Z"></path></g><path d="M197.15,159.08c-6.13-.37-13.53,2.19-19.06,4.87a11.39,11.39,0,0,1,6.73,2.59c-8.85,5.07-18.08,10.51-23.39,19.39l7.25.32,25.6-9.11Z" style="fill:#BA68C8"></path><path d="M163.87,184a1.62,1.62,0,0,1,.22-.52,15.27,15.27,0,0,1,.79-1.4,28.34,28.34,0,0,1,3.64-4.63,48.71,48.71,0,0,1,15.9-10.69l.15-.07-.09.65a14.11,14.11,0,0,0-6.09-3l-.88-.18.74-.49a27.41,27.41,0,0,1,13.46-4.6,24.35,24.35,0,0,1,4.17.07,5.38,5.38,0,0,1,1.47.27c0,.12-2.1-.21-5.59.13a28.38,28.38,0,0,0-13.11,4.75l-.13-.68a14.6,14.6,0,0,1,6.43,3.1l.49.4-.58.25-.15.07a51.61,51.61,0,0,0-15.82,10.37A45.2,45.2,0,0,0,163.87,184Z" style="fill:#263238"></path><path d="M178.35,265.2s.09,0,.25.09l.69.32,2.62,1.27,1.88.93c.7.33,1.47.65,2.29,1,1.65.71,3.5,1.59,5.63,2.35l3.31,1.26c1.15.44,2.39.8,3.64,1.23,2.51.88,5.26,1.59,8.14,2.39a131.35,131.35,0,0,0,38.5,4c3-.19,5.81-.31,8.45-.66,1.32-.15,2.6-.25,3.82-.44l3.5-.55c2.24-.3,4.23-.79,6-1.13.88-.19,1.7-.34,2.45-.51l2-.52,2.82-.71.74-.17a1.27,1.27,0,0,1,.26,0l-.24.09-.73.23-2.8.8-2,.56c-.75.19-1.57.36-2.45.56-1.76.38-3.74.88-6,1.21l-3.51.59c-1.22.2-2.5.31-3.82.47-2.64.37-5.49.51-8.48.71a128,128,0,0,1-38.65-4.05c-2.88-.81-5.64-1.54-8.15-2.44-1.26-.44-2.49-.81-3.64-1.26l-3.31-1.3c-2.13-.78-4-1.69-5.61-2.42-.82-.38-1.59-.71-2.28-1.05l-1.87-1-2.58-1.36-.66-.37Z" style="fill:#263238"></path><path d="M154.62,205.21a25.65,25.65,0,0,1-22.42,15.07,22.24,22.24,0,0,0,12.61,11.23l-9.7,2.36c9.63,11.49,31.83,26.5,45.5,31.92Z" style="fill:#BA68C8"></path><path d="M337.15,213.88c-9.41,1.38-22.15-3.1-26.27-16.51l-22.76,71.27c16.71-9.82,40.85-27.93,48.43-40.87l-10-.71A22.19,22.19,0,0,0,337.15,213.88Z" style="fill:#BA68C8"></path><ellipse cx="203.82" cy="227.12" rx="8.06" ry="4.77" style="opacity:0.30000000000000004"></ellipse><ellipse cx="286.01" cy="219.34" rx="8.06" ry="4.77" style="opacity:0.30000000000000004"></ellipse><path d="M218.63,141.09a9.3,9.3,0,0,0-6.43-1.74c-2,.42-3.27,2.4-3.8,4.36-1.36,5,1,10.42,4.17,14.55,1.5,1.92,3.38,3.77,5.78,4.14,2.71.4,5.39-1.28,7-3.52s2.27-6.67,2.93-9.33A55.82,55.82,0,0,0,218.63,141.09Z" style="fill:#ebebeb"></path><path d="M235.73,137.73a9.23,9.23,0,0,1,4.76-4.67c1.94-.6,4,.49,5.44,1.95,3.66,3.74,4.26,9.56,3.47,14.74-.36,2.39-1.1,4.94-3,6.42-2.17,1.68-5.33,1.53-7.8.34s-5.24-4.72-7.11-6.71A55.9,55.9,0,0,1,235.73,137.73Z" style="fill:#ebebeb"></path><path d="M224,145.25c1.57-1.22,3.7-1.39,5.68-1.51a3.84,3.84,0,0,1,1.69.14,3.52,3.52,0,0,1,1.74,2.24,15.16,15.16,0,0,1,.9,4.8,4.54,4.54,0,0,1-.74,3,3.29,3.29,0,0,1-2.4,1.16,5.67,5.67,0,0,1-5-3.15,15.49,15.49,0,0,1-1.51-6" style="fill:#ebebeb"></path><path d="M233.88,153.27a17,17,0,0,0-.19-4.85,17.17,17.17,0,0,0-2-4.41s.5.3,1,1a9.07,9.07,0,0,1,1.65,6.82A2.89,2.89,0,0,1,233.88,153.27Z" style="fill:#263238"></path><path d="M227.14,153.32c-.16,0-.3-2-1.24-4.18s-2.22-3.73-2.1-3.83a9.94,9.94,0,0,1,3.34,8Z" style="fill:#263238"></path><path d="M225.31,148.87a33.92,33.92,0,0,1-4.17.06A31.84,31.84,0,0,1,217,149a16.23,16.23,0,0,1,8.34-.13Z" style="fill:#263238"></path><path d="M220,155.54a10.06,10.06,0,0,1,2.55-3.71,9.91,9.91,0,0,1,3.63-2.66c.09.13-1.56,1.27-3.25,3S220.14,155.62,220,155.54Z" style="fill:#263238"></path><path d="M241.54,142.31a24,24,0,0,1-7.66,5.12,29.7,29.7,0,0,1,3.78-2.64A30.53,30.53,0,0,1,241.54,142.31Z" style="fill:#263238"></path><path d="M242.19,149.32c0,.15-1.83-.27-4.07-.5s-4.08-.21-4.09-.36a9.8,9.8,0,0,1,4.14-.18A10.06,10.06,0,0,1,242.19,149.32Z" style="fill:#263238"></path><path d="M289.17,210.73c-5.29,5.34-14.16,5.13-19.82-.47s-5.94-14.47-.65-19.81,14.16-5.13,19.81.47S294.46,205.39,289.17,210.73Z" style="fill:#fff"></path><path d="M289.66,211.21c-5.29,5.35-13.53,5.76-18.41.93s-4.53-13.08.76-18.42,13.53-5.75,18.4-.92S295,205.87,289.66,211.21Z" style="fill:#263238"></path><path d="M220.74,215.76a14.13,14.13,0,1,1,.83-19.6A13.87,13.87,0,0,1,220.74,215.76Z" style="fill:#fff"></path><path d="M221.58,216.71c-5.63,5-13.88,4.86-18.43-.28s-3.67-13.35,2-18.33,13.88-4.86,18.43.28S227.21,211.73,221.58,216.71Z" style="fill:#263238"></path></g></svg>
