<svg id="logo" xmlns="http://www.w3.org/2000/svg" xmlns:xlink="http://www.w3.org/1999/xlink" viewBox="0 0 1280 1280" shape-rendering="geometricPrecision" text-rendering="geometricPrecision"><g id="logo-s-g1" transform="matrix(4.12147 0 0 4.67234-585.746-2197.15)" paint-order="markers stroke fill"><g id="logo-s-g2"><path id="logo-s-path3" d="M456.661062,732.849999c3.663449-6.290595,4.213916-12.730984.6978-21.371059C452.474262,699.47612,442.19,695.97,423.69,694.8c-.26-.06-.53-.11-.8-.14-24.73-23.85-36.07-81.63-29.35-116.34c22.5-1.65,38.33-14.08,44.25-35.31c2.61-9.38-2.02-16.62-11.62-18.33-4.71-.84-7.83-3.47-9.56-8.03-.06-.15-.12-.29-.18-.43-9.08-18.93-24.79-21.27-35.21-22.14c0-.04.04-.11,0-.11-3.77.2-8.44.19-5.94-2.41c6.65-6.94,7.82-10.21,8.59-12.74c1.69-5.57-4.59-9.21-9.3-8.48-25.87,4.02-51.24,25.75-64.64,55.21-1.75,3.85-4.73,10.46-8.46,18.94-4.73-10.69-14.37-36.44-42.13-50-12.23-5.97-24.25-7.85-36.81-7.12-10.48.6-32.28,1.84-44.03,26.62-.36.34-3.22,2.61-15.59,3.86-7.59.77-14.63.7-14.7.7-.02,0-.05,0-.07,0-3.29,0-5.97,2.49-6.01,5.58-.44,32.1,14.95,46.08,26.49,52.05.01.01.03.02.04.03c6.95,3.94,15.73,4.86,23.88,4.86c4.42,0,8.44-.27,11.44-.55c2.26,13.42,6.46,67.7-22.11,114.29-18.34,1.28-28.67,12.77-28.67,25.32c0,4.43,1.34,8.88,3.96,12.72c0,0,6.48,11.31,26.28,11.31c3.46,0,57.11,0,64.64,0c3.32,0,25.24.02,53.64.02s134.530414-.020001,137.670514-.019999c11.339249-3.289542,15.351598-8.059896,17.270548-11.310002Z" transform="matrix(.843055 0 0 0.843055 46.675393 95.299591)" paint-order="stroke markers fill" fill="none" fill-rule="evenodd" stroke="#000" stroke-width="12" stroke-dashoffset="1792.930377" stroke-dasharray="3449.77"/></g></g></svg>
