<svg xmlns="http://www.w3.org/2000/svg" x="0" y="0" version="1.1" viewBox="0 0 1280 1280"><path d="M231.6 252.5c-6.2 11.7 2.5 22.9 12.3 22.4a75.8 86 0 0 1 42.5 14c8.2 6.1 21.4 2 21.8-11.2 1.3-24.3-9-45.8-27.2-51.4-17.7-6-37.5 5.6-49.4 26.2M983.8 296a74.6 84.6 0 0 1 44-2.4c10 2.8 20.7-5.6 17.4-18.7-6.6-23.3-23.5-39.2-42-38.3-18.6 1-33.9 18.7-38.4 42.5-2.5 13.6 9.5 21 19 16.9" class="prefix__st0"/><path d="M1263.6 1227.2a114 114 0 0 0 16.5-59.8c0-59.4-43.3-112.7-119.5-118.3a28.9 32.7 0 0 0-3.3-.4C1055.5 937 1008.9 666.9 1036 504.8a191.6 217.3 0 0 0 182.6-165c10.7-43.8-8.3-77.5-47.8-85.4-19.4-4.2-32.6-16.4-39.6-37.4l-.8-2.3c-37.1-88.8-102.2-99.6-145.1-103.3v-.5c-15.7 1-34.6 1-24.7-11.2C988.3 67 993.2 51.6 996.5 40c7-26.1-19-43-38.3-39.7-106.7 18.7-211.4 120.5-266.7 258a7105.4 8055.1 0 0 0-34.6 88.7c-19.8-50-59.3-170-174-233.6A296 335.5 0 0 0 331.4 80C288 82.9 198.2 88.5 150 204.4c-1.7 1.4-13.2 12.1-64.3 18.2-31.3 3.3-60.2 3.3-60.6 3.3-14 0-24.7 11.2-24.7 25.7-2 150 61.4 215.4 108.8 243v.4a202 229 0 0 0 98.9 22.9c18.1 0 34.6-1.4 47-2.8 9 62.6 26.4 316.3-91.1 534-75.8 6.1-118.3 59.8-118.3 118.3 0 21 5.4 42 16.5 59.8 0 0 26.4 52.8 108 52.8h266.6c13.6 0 24.8-12.2 24.8-26.7s-11.2-26.6-24.8-26.6H162.3c-46.5 0-67.1-29.4-67.1-59.3 0-37.4 30.9-64 78.3-65.5 21.8 4.7 48.2 18.3 59 51 4.4 14 18.9 21 31.6 16.3 12.8-4.7 19.8-20 15.3-33.6a114.6 129.9 0 0 0-64.7-74.8C325 846 316.5 598.3 304.5 513.2a193.7 219.6 0 0 0-9-37.8 25.1 28.5 0 0 0-26.8-15.4c-21.5 3.7-80 10.2-120.8-4.2-1.2 0-2-1-3.3-1.4a146.3 165.9 0 0 1-87-118.7c16.1-4.2 39.2-18.2 54.5-63.6 47-8 73.3-22.9 82.8-45.8a127.8 144.8 0 0 1 91.5-86.9c18.5-4.6 66.8-11.6 107.2 17.3 12 8 20.6 21.5 26.3 38.3 9.5 28.5 2.5 60.8-18.5 89.7-55.7 75.7-69.3 114.5-64.3 165a82.4 93.4 0 0 0 45.3 73.3 127 144 0 0 0 119.6-1.8c38.7-25.3 61.4-71 72-147.7-9-26.1-24.2-61.2-42.4-86 1.3 21.5 4.1 48.2-1.6 76.7-12 57.4-19.4 86-49.5 109.3a74.2 84.1 0 0 1-73.8 3.3 35.9 40.6 0 0 1-20.6-32.7c-2.4-27.1 0-52.8 54-127.1 34.2-46.7 45-105.6 19-157.5a308.3 349.5 0 0 0 90.7 86c10.7 14 47.8 65.9 80.3 171-75 198.6-184.6 510.2-184.6 636.8 0 124.8 95.2 226.7 212.2 226.7S870 1178.6 870 1053.3c0-68.2-38.3-214.9-113.8-434.5-17.3-50.4-35-99.5-51-144.4l-25.6 76.7c66.3 185 141 415.8 141 502.2 0 95.8-73 173.9-162.9 173.9-89.4 0-162.8-78-162.8-173.9 0-133.6 141.4-511.6 188.8-636.3A6489 6489 0 0 1 737.3 279c35-87.3 106-182.2 192.9-216.3-65.1 66.4-41.7 101-18.2 101h64.3c39.6 3.2 81.2 7.9 108.8 71.9a96.4 109.3 0 0 0 57.7 65c-6.1 15.4-10.3 42 18.2 56-21.5 54.7-69.3 106-173.1 94.8-13.6-1.4-25.6 9.4-26.8 23.4-1.7 15 8.2 28 21.8 29.4h3.3c-12.8 84.1-8.2 194.9 12.8 300a532 603.2 0 0 0 106 261.2 113 128 0 0 0-56.1 70c-5.8 17.4 6.6 35.1 23.5 35.1a24.7 28 0 0 0 23.5-17.7c10.7-32.7 37-45.8 58.5-51.4 102.6 5.6 98 125.7 9 125.7H879.1a25.5 25.5 0 0 0-24.8 26.1c0 15 11.2 26.7 24.8 26.7h284.3c78.4 0 100.2-52.8 100.2-52.8" class="prefix__st0"/></svg>