<svg xmlns="http://www.w3.org/2000/svg" xmlns:xlink="http://www.w3.org/1999/xlink" viewBox="0 0 500 500"><defs><clipPath id="freepik--clip-path--inject-170"><circle cx="111.17" cy="337.79" r="33.29" transform="translate(-243.13 368.37) rotate(-76.72)" style="fill:#BA68C8"></circle></clipPath></defs><g id="freepik--Floor--inject-170"><path id="freepik--floor--inject-170" d="M401.09,398.15C317.26,450,181.36,450,97.54,398.15s-83.83-135.88,0-187.72,219.72-51.84,303.55,0S484.91,346.31,401.09,398.15Z" style="fill:#f5f5f5"></path></g><g id="freepik--Shadows--inject-170"><path id="freepik--Shadow--inject-170" d="M342.83,389.66a4.88,4.88,0,0,0-2.17-2.34c-2.14-1-4.37-.62-6.69-.3s-4.94,1.8-7.32,2.9c-1.16.55-2.21,1.13-3.3,1.58a30.49,30.49,0,0,1-3.41,1.18c-2.26.63-4.92,1-6.7.51a.7.7,0,0,0-.19-.06,3.74,3.74,0,0,1-.41-.2,2.44,2.44,0,0,1-.45-.33,1.6,1.6,0,0,1-.51-.67.52.52,0,0,1,.07-.33,2.16,2.16,0,0,1,.61-.59c.92-.53,3.1-1.8,3.38-4.3a5.38,5.38,0,0,0-2.83-5,8.68,8.68,0,0,0-4.74-1.07,17.48,17.48,0,0,0-3.87.51,29.33,29.33,0,0,0-6.47,2.36c-1.72.88-3.1,1.75-4.38,2.5a17,17,0,0,0-2.15-1c-29.6-1.63-45.65,5.78-54.82,17.79-4.06,3.74,1.49,8,7.43,8.95,6.23,1,23.3-.3,39.92-7.6,10.4-4.56,14.05-10.93,13.58-14a3.22,3.22,0,0,0-.3-.89c.91-.56,1.86-1.13,2.84-1.64a25,25,0,0,1,5.39-2,17.13,17.13,0,0,1,3-.47,5.34,5.34,0,0,1,2.26.27c.9.5,1,.9,1,.92s0,.21-.24.45a2.94,2.94,0,0,1-.4.36l-.75.49a6,6,0,0,0-2,2.23,4.38,4.38,0,0,0-.19,3.46,5.43,5.43,0,0,0,1.85,2.38,6.91,6.91,0,0,0,1.2.73c.17.07.26.12.49.2l.74.23c3.38.65,6.05-.13,8.68-.94a28.75,28.75,0,0,0,3.73-1.57c1.2-.62,2.29-1.33,3.31-1.91a27.6,27.6,0,0,1,6.21-2.53c2-.53,4.16-.82,5.7-.28.95.37,2.41,1.29,1.38,2.35a7,7,0,0,1-.85.78c-1.09.86-2.57,1.2-3.46,2.27a1.41,1.41,0,0,0,1.12,0C340.06,394.24,344.2,392.54,342.83,389.66Z" style="fill:#e6e6e6"></path><path id="freepik--shadow--inject-170" d="M191.36,363a1.88,1.88,0,0,0-2.57-.69l-7.66,4.42a15.12,15.12,0,0,1-13.44,0c-1.42-.82-2.23-1.84-2.23-2.79s.81-2,2.23-2.79c2.65-1.53,4.11-3.68,4.11-6.06s-1.46-4.52-4.11-6.05c-4.83-2.79-14.07-1.82-21,2.21l-2.78,1.6c-1.52-3.14-4.41-6.09-8.68-8.56-13.27-7.66-34.78-7.66-48,0s-13.27,20.08,0,27.74,34.78,7.66,48.05,0c7.35-4.24,10.62-9.94,9.83-15.49l3.51-2c5.72-3.3,13.63-4.31,17.27-2.21,1.42.82,2.23,1.84,2.23,2.79s-.81,2-2.23,2.79c-2.65,1.54-4.12,3.69-4.12,6.06s1.47,4.52,4.12,6.06A18.76,18.76,0,0,0,183,370l7.66-4.43A1.86,1.86,0,0,0,191.36,363Z" style="fill:#e6e6e6"></path><ellipse id="freepik--shadow--inject-170" cx="297.95" cy="263.55" rx="127.16" ry="69.49" style="fill:#e6e6e6"></ellipse></g><g id="freepik--Plants--inject-170"><g id="freepik--plants--inject-170"><path d="M112.65,237.71,123,231.8s5-27.32,1.25-50.8c-5.21-33-27.69-44.4-35.85-41.12S78.29,152.94,93,172C101.74,183.27,112.93,207.07,112.65,237.71Z" style="fill:#BA68C8"></path><g style="opacity:0.1"><path d="M112.65,237.71,123,231.8s5-27.32,1.25-50.8c-5.21-33-27.69-44.4-35.85-41.12S78.29,152.94,93,172C101.74,183.27,112.93,207.07,112.65,237.71Z"></path></g><path d="M116.39,224.6h-.1a.75.75,0,0,1-.63-.83c4.27-30.91-8.16-64.78-22.12-78.43a.74.74,0,1,1,1-1.05c14.22,13.9,26.89,48.31,22.55,79.68A.73.73,0,0,1,116.39,224.6Z" style="fill:#fff"></path><path d="M84,254.28c-1.63.93-5-1.12-6.29-2a15.66,15.66,0,0,1-5.18-6,14.64,14.64,0,0,1-1.3-8.77,35.62,35.62,0,0,1,1.11-4.67c.43-1.51.87-3,1.3-4.53a11.55,11.55,0,0,0,.67-4.56c-.4-3.1-3.15-5.27-5.65-7.14-2.76-2.07-5.64-4.8-5.62-8.53,0-2.87,1.5-5.55,3.28-7.8s3.9-4.26,5.51-6.64a9.13,9.13,0,0,0,1.88-5.79,9.51,9.51,0,0,0-1.27-3.62c-1.31-2.43-3-4.65-4-7.26s-.77-5.85,1.26-7.71c1.67-1.54,4.15-1.75,6.42-1.6a14.7,14.7,0,0,1,6,2.1c5.92,3.29,9.3,10.3,15.58,12.83,2.42,1,5.07,1.19,7.6,1.86s5.1,2,6.27,4.29c2.3,4.61-2,10.28-.35,15.17,1.43,4.32,5.63,6,8,9.88a9.22,9.22,0,0,1,1.11,5.66,27.44,27.44,0,0,1-2.39,9.57,67.72,67.72,0,0,1-5.25,8.62C112.55,237.81,84.22,254.13,84,254.28Z" style="fill:#BA68C8"></path><path d="M100.75,245.34h0a.75.75,0,0,1-.72-.77c1.22-29.26-12.57-61.56-22.59-70.94a.74.74,0,0,1,1-1.08c10.22,9.57,24.29,42.41,23.06,72.08A.75.75,0,0,1,100.75,245.34Z" style="fill:#fff"></path><path d="M96.37,210.77a.78.78,0,0,1-.22,0c-9.4-2.91-21.12-3.42-21.23-3.43a.73.73,0,0,1-.71-.76.72.72,0,0,1,.77-.71c.12,0,12,.53,21.6,3.49a.74.74,0,0,1-.21,1.44Z" style="fill:#fff"></path></g></g><g id="freepik--Ball--inject-170"><g id="freepik--Yarn--inject-170"><path d="M174.41,368.49a17.45,17.45,0,0,1-8.61-2.09c-2.65-1.53-4.12-3.68-4.12-6.06s1.47-4.52,4.12-6c1.42-.82,2.23-1.84,2.23-2.79s-.81-2-2.23-2.79c-3.64-2.11-11.55-1.09-17.27,2.21L137,357.56a1.89,1.89,0,1,1-1.89-3.27l11.5-6.64c7-4,16.21-5,21-2.21,2.65,1.53,4.11,3.68,4.11,6.06s-1.46,4.52-4.11,6.06c-1.42.81-2.23,1.83-2.23,2.78s.81,2,2.23,2.8a15.12,15.12,0,0,0,13.44,0l7.66-4.43a1.89,1.89,0,0,1,1.88,3.27L183,366.4A17.44,17.44,0,0,1,174.41,368.49Z" style="fill:#BA68C8"></path><g style="opacity:0.1"><path d="M174.41,368.49a17.45,17.45,0,0,1-8.61-2.09c-2.65-1.53-4.12-3.68-4.12-6.06s1.47-4.52,4.12-6c1.42-.82,2.23-1.84,2.23-2.79s-.81-2-2.23-2.79c-3.64-2.11-11.55-1.09-17.27,2.21L137,357.56a1.89,1.89,0,1,1-1.89-3.27l11.5-6.64c7-4,16.21-5,21-2.21,2.65,1.53,4.11,3.68,4.11,6.06s-1.46,4.52-4.11,6.06c-1.42.81-2.23,1.83-2.23,2.78s.81,2,2.23,2.8a15.12,15.12,0,0,0,13.44,0l7.66-4.43a1.89,1.89,0,0,1,1.88,3.27L183,366.4A17.44,17.44,0,0,1,174.41,368.49Z"></path></g><circle cx="111.17" cy="337.79" r="33.29" transform="translate(-243.13 368.37) rotate(-76.72)" style="fill:#BA68C8"></circle><g style="clip-path:url(#freepik--clip-path--inject-170)"><path d="M154.6,367.94a71.5,71.5,0,0,1-22.17-10.56,45.89,45.89,0,0,0,5.29.84c4,.47,8.87,1.21,12.05-1.71.6-.55-.28-1-.76-.92a85.83,85.83,0,0,1-12.22.6,18.45,18.45,0,0,1-12.41-5.9c-.67-.71-1.33-1.45-2-2.2a31.58,31.58,0,0,0,9.69,2.44c7.73.65,13.64-1.84,18.88-7.35.59-.63,0-1.36-.75-1.22-1.44.27-2.22,1.06-3.4,2-3.78,2.81-7,3.7-11.66,3.85a26.09,26.09,0,0,1-9.66-1.57c-1.57-.59-3-1.48-4.49-2.2a9.19,9.19,0,0,1-3.85-3.24,31.36,31.36,0,0,1-1.86-3.66c6.09,3.67,16.18,3,22.35,2.06,6.52-1,12.57-3.61,15.73-9.59.56-1.06-1-1.26-1.57-.67a28.85,28.85,0,0,1-6.57,5.37A23.11,23.11,0,0,1,136,337c-6.89.77-15.61.72-21.86-2.78-.41-1.17-.78-2.35-1.09-3.56,5.53,1.38,11.55.68,17-.76a26.13,26.13,0,0,0,9.08-4.16c1.73-1.25,4.93-3.09,5.43-5.3.23-1.05-1.3-1-1.77-.41-3.32,4-8.57,6.37-13.5,7.78,1.16-4.44,2.43-8.2,5.38-12a54.39,54.39,0,0,1,4.6-5c.51-.52,1.1-1,1.18-1.71.12-1.09-1.71-.54-2,.14.06-.18-1,.24-1,.27a10.31,10.31,0,0,0-2.47,2.42,39.87,39.87,0,0,0-3.47,4.09c-2.75,3.83-4,7.9-4.88,12.43a41.11,41.11,0,0,1-7.08.54c-.49-1.4.12-3.77.25-5.15a43,43,0,0,1,.76-6.17c1.14-4.75,4.55-9,5.42-13.62.1-.54-1-.59-1.23-.26a37.89,37.89,0,0,0-7.08,16.34c-.36,2.31-1.23,6.17-.83,8.93a6.67,6.67,0,0,1-1.78-.15,5.84,5.84,0,0,1-1.82-.61c-1.3-.77-1.23-2.36-1.4-3.7a41.1,41.1,0,0,1-.34-4.7,36.38,36.38,0,0,1,1.49-11.32c1-3,3.11-5.78,3.53-9,.2-1.53-2-1.31-2.36-.12-.94,3.18-3.36,5.73-4.39,9a41.87,41.87,0,0,0-1.62,13.36,46.4,46.4,0,0,0,5.68,20.58A59.52,59.52,0,0,0,136,364.62a61,61,0,0,1-26.28-22.13c-7.36-11.09-11.19-27.28-6.32-40.11.18-.49-.73-.77-1-.43-4.22,5.1-4,13.7-3,19.86,1.17,7,2.77,14,6.6,20.16,4.18,6.68,8.94,12.54,15.41,17.16,2.52,1.79,5.21,3.66,8,5.27A44.17,44.17,0,0,1,118,359.31,68.66,68.66,0,0,1,106,348.47a46.8,46.8,0,0,1-11.79-22,50.25,50.25,0,0,1-1-10.74c0-3.43-.59-7.72.73-10.92.29-.73-1.23-.76-1.52-.25a18,18,0,0,0-2,8.11c-.09,1.56,0,3.1,0,4.65a7.18,7.18,0,0,1-.86,4.14,16.5,16.5,0,0,1-2.39,2.48c-.74.78-1.52,1.53-2.28,2.32a41.67,41.67,0,0,0-4.24,5.22c-4.14,5.92-4.85,13-4.94,20.06,0,.74,1.4.53,1.57,0,2-6.75,1.67-13.48,6.18-19.37,2.25-2.93,5-5.14,7.74-7.54,0,.1,0,.21,0,.31.28,1.75.65,3.5,1.1,5.22.37,1.37.78,2.91-.24,4.12a19.42,19.42,0,0,1-2.48,2,25,25,0,0,0-2.5,2.54c-1.36,1.53-2.59,3.17-3.87,4.77-4.16,5.2-7.5,13.21-6.38,20a.68.68,0,0,0,.72.48,14.48,14.48,0,0,0-.07,5,.58.58,0,0,0,1.14,0,35.84,35.84,0,0,1,6.71-13.9c2.62,4.3,8.19,7.71,12.56,9.08a34.17,34.17,0,0,0,10.35,1.72,28.84,28.84,0,0,0,11.29-2,34.06,34.06,0,0,0,15.4,4.36,1.54,1.54,0,0,0,1.24-.79,25,25,0,0,0,3.68.9,1.57,1.57,0,0,0,1.5-1.24,34,34,0,0,0,12.53,2.41C154.67,369.52,155.8,368.3,154.6,367.94Zm-55.43-23c.73,1,1.5,2,2.33,3,1.7,2,3.53,4,5.46,5.92-.14-.14-1.24,0-1.46,0-.52,0-1,0-1.56,0a18.62,18.62,0,0,1-3-.33,13.89,13.89,0,0,1-5.3-2.11,11.14,11.14,0,0,1-2-2c-.49-.59-.66-1.37.1-1.83.54-.33,1.09-.65,1.65-.95A33.43,33.43,0,0,1,99,345Zm-19.71,13.7a35.35,35.35,0,0,1,6.08-13.44,55.68,55.68,0,0,1,8.83-9,19,19,0,0,0,1.38,3c.36.71,1.54,2.16,1.31,3a.8.8,0,0,1-.28.4,3.2,3.2,0,0,1-1,.55A30.07,30.07,0,0,0,84,352,34.88,34.88,0,0,0,79.46,358.62Zm30.32,4.52a29.32,29.32,0,0,1-9.21-1.21c-4.64-1.31-10.64-4.58-13.24-9.11A31.76,31.76,0,0,1,90.39,350c1.29,2.23,4.26,4.13,6.2,5,3.52,1.55,9,2.71,12.67,1a62.92,62.92,0,0,0,8.12,6.26A36.88,36.88,0,0,1,109.78,363.14Z" style="opacity:0.1"></path></g></g></g><g id="freepik--Mouse--inject-170"><g id="freepik--mouse--inject-170"><path d="M287.62,389.9s-.08-.31-.1-.65a4,4,0,0,1,0-1.38c.1-1,1-1.2,2-1.84l3.56-2.1c1.38-.79,2.87-1.75,4.77-2.73a29.33,29.33,0,0,1,6.47-2.36,18.75,18.75,0,0,1,3.87-.51,8.79,8.79,0,0,1,4.74,1.08,5.38,5.38,0,0,1,2.83,5c-.28,2.49-2.46,3.77-3.38,4.3a2,2,0,0,0-.61.59.51.51,0,0,0-.07.32,1.56,1.56,0,0,0,.51.68,4,4,0,0,0,.45.33,3.47,3.47,0,0,0,.41.19l.19.06c1.78.49,4.44.13,6.7-.51a28.6,28.6,0,0,0,3.41-1.18c1.09-.44,2.14-1,3.3-1.58a26.71,26.71,0,0,1,7.06-2.23c2.33-.33,4.65-.51,6.79.47a5.78,5.78,0,0,1,2.6,2.3c.82,1.72-.39,3.65-1.82,4.6-.29.2-4.48,2.6-4.65,2.18-.06-.16.07-.33.19-.45a34.05,34.05,0,0,1,3.37-2.49c1-.79,2.32-1.89,1.49-3.31a3.69,3.69,0,0,0-1.81-1.42c-1.54-.54-3.67-.26-5.7.28A27.14,27.14,0,0,0,328,390.1c-1,.58-2.11,1.29-3.31,1.9a26.21,26.21,0,0,1-3.73,1.57c-2.63.81-5.3,1.59-8.68.95l-.74-.23c-.23-.08-.32-.14-.49-.21a6.35,6.35,0,0,1-1.2-.73A5.46,5.46,0,0,1,308,391a4.37,4.37,0,0,1,.19-3.46,5.88,5.88,0,0,1,2-2.23l.75-.5a2.4,2.4,0,0,0,.4-.36c.21-.23.26-.4.24-.44s-.07-.42-1-.92a5.47,5.47,0,0,0-2.26-.28,16.26,16.26,0,0,0-3,.48,25,25,0,0,0-5.39,2c-1.59.83-3.12,1.83-4.49,2.64l-3.54,2.14c-1,.53-1.61,1.29-2.57.88a4.29,4.29,0,0,1-1.21-.66C287.85,390.12,287.61,389.87,287.62,389.9Z" style="fill:#ffa8a7"></path><path d="M294.77,386c0-3.35-1.66-11.59-8-15.33-7-4.16-15.41-6.24-26.41,0-10.47,5.93-23.62,23.88-24,30.38l0,.22s0,.07,0,.1h0c-.06,1.87.9,3.46,3.21,4.8,7,4.06,25.5.25,38.48-4.8C288,397.5,296.09,392,294.77,386Z" style="fill:#fff"></path><path d="M240.34,401.33c-1-.48-1.18-2.07-.81-2.91,1.14-2.54,6.26.51,5.09,1.94A3.79,3.79,0,0,1,240.34,401.33Z" style="fill:#ffa8a7"></path><path d="M242.75,388.12s-4.27-2.11-4.32-6.29,3.46-6.05,6.95-5.13c4.64,1.22,4,7.27,1.76,10.19,0,0-.39.77-2.31,1.23A5.3,5.3,0,0,1,242.75,388.12Z" style="fill:#e6e6e6"></path><path d="M244.54,387.32c-1.86.3-4.08-2.37-4.2-4.1s1.1-3.15,3.31-3.58,3.59.42,3.82,2.71C247.61,383.83,247.14,386.89,244.54,387.32Z" style="fill:#ffa8a7"></path><path d="M255.93,390.58s-.85-4.68,2.48-7.21,6.92-.83,8.26,2.52c1.79,4.45-3.44,7.56-7.14,7.49,0,0-.85.14-2.36-1.13A5.33,5.33,0,0,1,255.93,390.58Z" style="fill:#e6e6e6"></path><path d="M257.64,391.54c-1.35-1.31-.53-4.68.79-5.81s3.19-1,4.84.52,1.81,3.14.1,4.69C262.27,391.93,259.53,393.38,257.64,391.54Z" style="fill:#ffa8a7"></path><path d="M251.77,393.24l1,.68h0a1.76,1.76,0,0,1,.88,1.33,3.37,3.37,0,0,1-1.83,3.33,1.85,1.85,0,0,1-1.65,0h0l-.94-.64.15-.29a2.05,2.05,0,0,1-.2-.62,3.39,3.39,0,0,1,1.83-3.33,2.28,2.28,0,0,1,.53-.16Z" style="fill:#37474f"></path><path d="M252.71,394.6a3.35,3.35,0,0,1-1.83,3.33,1.68,1.68,0,0,1-2.53-1.3,3.37,3.37,0,0,1,1.83-3.33A1.68,1.68,0,0,1,252.71,394.6Z" style="fill:#455a64"></path><path d="M250.54,394.5a.64.64,0,0,1-.34.62.31.31,0,0,1-.47-.24.63.63,0,0,1,.34-.62A.32.32,0,0,1,250.54,394.5Z" style="fill:#37474f"></path><path d="M251.79,395.07a.61.61,0,0,1-.34.62.31.31,0,0,1-.47-.24.64.64,0,0,1,.34-.62A.31.31,0,0,1,251.79,395.07Z" style="fill:#37474f"></path><path d="M249.82,395.69a.63.63,0,0,1-.34.62.32.32,0,0,1-.47-.24.64.64,0,0,1,.34-.62A.31.31,0,0,1,249.82,395.69Z" style="fill:#37474f"></path><path d="M251.08,396.26a.63.63,0,0,1-.34.61.31.31,0,0,1-.47-.24.6.6,0,0,1,.34-.61A.31.31,0,0,1,251.08,396.26Z" style="fill:#37474f"></path><path d="M241.44,389.12l1,.69h0a1.74,1.74,0,0,1,.88,1.33,3.37,3.37,0,0,1-1.83,3.33,1.86,1.86,0,0,1-1.64,0h0l-.94-.64.15-.29a2.37,2.37,0,0,1-.2-.62,3.37,3.37,0,0,1,1.83-3.33,2.28,2.28,0,0,1,.53-.16Z" style="fill:#37474f"></path><path d="M242.38,390.49a3.35,3.35,0,0,1-1.83,3.33,1.68,1.68,0,0,1-2.53-1.3,3.37,3.37,0,0,1,1.83-3.33A1.68,1.68,0,0,1,242.38,390.49Z" style="fill:#455a64"></path><path d="M240.21,390.39a.64.64,0,0,1-.34.62.31.31,0,0,1-.47-.24.63.63,0,0,1,.34-.62A.32.32,0,0,1,240.21,390.39Z" style="fill:#37474f"></path><path d="M241.46,391a.61.61,0,0,1-.34.62.32.32,0,0,1-.47-.24.64.64,0,0,1,.34-.62A.31.31,0,0,1,241.46,391Z" style="fill:#37474f"></path><path d="M239.49,391.58a.61.61,0,0,1-.34.62.32.32,0,0,1-.47-.25.63.63,0,0,1,.34-.61A.31.31,0,0,1,239.49,391.58Z" style="fill:#37474f"></path><path d="M240.75,392.15a.63.63,0,0,1-.34.61.31.31,0,0,1-.47-.24.6.6,0,0,1,.34-.61A.31.31,0,0,1,240.75,392.15Z" style="fill:#37474f"></path></g></g><g id="freepik--Cat--inject-170"><g id="freepik--Chat--inject-170"><path d="M447.36,192.76a19.24,19.24,0,0,1-14.52-6.53c-9.93-10.94-11.16-34.47-3.21-61.41,6-20.24,5.59-36.56-1-44.77-3.32-4.12-8.24-6-14.62-5.5-10.3.77-12.87,5.71-16.41,12.55-1.57,3-2.76,6.51-.69,8.46-3.22,3.44-13.21,7.15-20,7.35a7.06,7.06,0,1,1-.42-14.12c4-.12,5.2-1.66,8.6-8.2,3.88-7.48,9.74-18.77,27.91-20.12,10.95-.82,20.42,3,26.65,10.7,9.73,12,11,32.52,3.6,57.64-7.31,24.78-5.06,42.21.12,47.92a5.37,5.37,0,0,0,5.58,1.75,7.06,7.06,0,1,1,2.67,13.87A22.44,22.44,0,0,1,447.36,192.76Z" style="fill:#BA68C8"></path><path d="M447.36,192.76a19.24,19.24,0,0,1-14.52-6.53c-9.93-10.94-11.16-34.47-3.21-61.41,6-20.24,5.59-36.56-1-44.77-3.32-4.12-8.24-6-14.62-5.5-10.3.77-12.87,5.71-16.41,12.55-1.57,3-2.76,6.51-.69,8.46-3.22,3.44-13.21,7.15-20,7.35a7.06,7.06,0,1,1-.42-14.12c4-.12,5.2-1.66,8.6-8.2,3.88-7.48,9.74-18.77,27.91-20.12,10.95-.82,20.42,3,26.65,10.7,9.73,12,11,32.52,3.6,57.64-7.31,24.78-5.06,42.21.12,47.92a5.37,5.37,0,0,0,5.58,1.75,7.06,7.06,0,1,1,2.67,13.87A22.44,22.44,0,0,1,447.36,192.76Z" style="opacity:0.5"></path><path d="M240.63,230.77c-3.29,10.38-9.26,16.7-21.15,24.16s-25,17.79-29,23.62C186.79,284,186.2,288,188.68,290c0,0,1,4.49,6.11,2.17,0,0,2.52,3,5.59,1.33,3.72-2,5.51-6.5,8.42-10.2a28.85,28.85,0,0,1,13.3-9.12c5.72-1.92,32.8-9.44,41.18-21.31s9.64-16.57,13.59-27.08" style="fill:#BA68C8"></path><path d="M240.63,230.77c-3.29,10.38-9.26,16.7-21.15,24.16s-25,17.79-29,23.62C186.79,284,186.2,288,188.68,290c0,0,1,4.49,6.11,2.17,0,0,2.52,3,5.59,1.33,3.72-2,5.51-6.5,8.42-10.2a28.85,28.85,0,0,1,13.3-9.12c5.72-1.92,32.8-9.44,41.18-21.31s9.64-16.57,13.59-27.08" style="opacity:0.7000000000000001"></path><path d="M270.83,250.24c-3.3,10.38-9.26,16.71-21.15,24.17s-25,17.78-29,23.61c-3.73,5.44-4.32,9.45-1.83,11.42,0,0,1,4.5,6.1,2.17,0,0,2.53,3,5.6,1.34,3.72-2,5.51-6.5,8.42-10.2a28.79,28.79,0,0,1,13.29-9.12c5.73-1.92,36-7.54,44.36-19.41s12.92-17,17.57-27.61" style="fill:#BA68C8"></path><path d="M417.61,131.82c0-22-17.69-40.37-39.58-42.8-16.35-1.82-32.4,3.92-41.67,18.93a328.05,328.05,0,0,0-15.71,28.94C312.35,153.8,299,187,274.42,180.36l-3,44.2-25.34,8.85c9.81-.51,10.89,14.48,27.49,22.74s27,9.14,37.79-3.71c8.44-10,36.66-16.17,56.95-37.07,11.43-11.78,13.19-20.86,13.19-20.86a111.86,111.86,0,0,0,11.93,20.34c3.43,4.33-.28,21.48-.58,27.66-6.72,3.29-8.38,7.25-2.69,10.33,4.22,2.28,8.39.89,11.71-1.45a7.92,7.92,0,0,0,2.61-3.62C409,236.53,420,204.19,413,198.67c-5-3.91,1.81-39.43,3.5-52.63A113.28,113.28,0,0,0,417.61,131.82Z" style="fill:#BA68C8"></path><path d="M378.67,201.58a29,29,0,0,0,2.86-7.07c-4.22-5.07-4.71-36-4.71-36S370.24,180,378.67,201.58Z" style="opacity:0.5"></path><path d="M327.39,242h0s-2.62,1.33-3.82-2.42,3.82-13.83,3.82-13.83-11.06,19.29-16,26.68C314.5,248.75,320.3,245.58,327.39,242Z" style="opacity:0.5"></path><path d="M237.44,167.3s-7.25-7.41-15.14-10.05-11-2.86-13-2.09c-3.78,1.48,6.23,16.31,6.23,28.06Z" style="fill:#BA68C8"></path><path d="M237.44,167.3s-7.25-7.41-15.14-10.05-11-2.86-13-2.09c-3.78,1.48,6.23,16.31,6.23,28.06Z" style="opacity:0.7000000000000001"></path><path d="M215.53,159.28c-4.39-2.93-6.68-3.65-7.05-2.8-.41,4.15,7.05,16.59,7.05,26.74l9.93-7.21C225.85,170.54,220,162.27,215.53,159.28Z" style="fill:#e0e0e0"></path><path d="M279,177.15c-5.81-6.8-15.71-11.76-22.46-12.17-16.68-1-28.24,3.36-37.72,14.1s-7.78,16.77-7.4,22-2.12,13.45-1.59,19.11,8.84,14.29,14.25,16c7.6,2.33,18.07,1.46,25-1.46s24.53-4.28,28,4.94l14.2-38.54C284.46,193.14,285.88,185.21,279,177.15Z" style="fill:#BA68C8"></path><path d="M417.61,131.82c0-22-17.69-40.37-39.58-42.8-16.35-1.82-32.4,3.92-41.67,18.93a328.05,328.05,0,0,0-15.71,28.94c-7.43,15.13-18.87,43.29-38.83,44.3a25.88,25.88,0,0,0-2.83-4c-5.81-6.8-15.71-11.76-22.46-12.17-16.68-1-28.24,3.36-37.72,14.1s-7.78,16.77-7.4,22-2.12,13.45-1.59,19.11,8.84,14.29,14.25,16c7.6,2.33,18.07,1.46,25-1.46.34-.15.72-.29,1.12-.43,5.81,2.85,8.78,12.57,19.38,19.58-3.5,8.35-9.38,14-19.84,20.61-11.89,7.46-25,17.78-29,23.61-3.73,5.44-4.32,9.45-1.83,11.42,0,0,1,4.5,6.1,2.17,0,0,2.53,3,5.6,1.34,3.72-2,5.51-6.5,8.42-10.2a28.79,28.79,0,0,1,13.29-9.12c5.73-1.92,36-7.54,44.36-19.41,6.68-9.47,10.92-14.68,14.73-21.77h0c8.44-10,36.66-16.17,56.95-37.07,11.43-11.78,13.19-20.86,13.19-20.86a111.86,111.86,0,0,0,11.93,20.34c3.43,4.33-.28,21.48-.58,27.66-6.72,3.29-8.38,7.25-2.69,10.33,4.22,2.28,8.39.89,11.71-1.45a7.92,7.92,0,0,0,2.61-3.62C409,236.53,420,204.19,413,198.67c-5-3.91,1.81-39.43,3.5-52.63A113.28,113.28,0,0,0,417.61,131.82Z" style="opacity:0.5"></path><path d="M285.19,161.7c-1.88-2.16-10.25-4.26-31.42,8l1,10.68s11.24-.79,17.35,1.71a17.92,17.92,0,0,1,8,6.71,11.9,11.9,0,0,1,.65,1.11S289.79,166.16,285.19,161.7Z" style="fill:#BA68C8"></path><path d="M285.19,161.7c-1.88-2.16-10.25-4.26-31.42,8l1,10.68s11.24-.79,17.35,1.71a17.92,17.92,0,0,1,8,6.71,11.9,11.9,0,0,1,.65,1.11S289.79,166.16,285.19,161.7Z" style="opacity:0.7000000000000001"></path><path d="M282.65,161c-8.75.89-27.87,19.31-27.87,19.31s11.24-.79,17.35,1.71a17.92,17.92,0,0,1,8,6.71l0,.05C282,183.7,289.5,161.78,282.65,161Z" style="fill:#e0e0e0"></path><path d="M242,206.89c0-.24,1.41-5.34,5.4-5.84a6,6,0,0,1,5.87,2.92,6.22,6.22,0,0,1-4.38,4.95C244.81,210.31,242,206.89,242,206.89Z" style="fill:#263238"></path><path d="M220.89,205a5.47,5.47,0,0,0-2.57-5.7,3.41,3.41,0,0,0-2.06-.43,3.76,3.76,0,0,0-2.81,5.54,3.92,3.92,0,0,0,1.51,1.45A4.84,4.84,0,0,0,220.89,205Z" style="fill:#263238"></path><path d="M255.15,218.51a.91.91,0,0,1-.23,0,28.73,28.73,0,0,0-18.94,0,.71.71,0,1,1-.57-1.31c.36-.16,8.89-3.75,20,0a.73.73,0,0,1,.45.91A.71.71,0,0,1,255.15,218.51Z" style="fill:#263238"></path><path d="M253.85,227.5a.71.71,0,0,1-.54-.24c-6.54-7.32-18.05-5.92-18.16-5.9a.73.73,0,0,1-.8-.62.71.71,0,0,1,.61-.8c.5-.06,12.38-1.51,19.42,6.36a.73.73,0,0,1-.06,1A.71.71,0,0,1,253.85,227.5Z" style="fill:#263238"></path><path d="M213.5,216.93a1,1,0,0,1-.55-.17h0a22.52,22.52,0,0,0-16.48-4.4.69.69,0,0,1-.79-.63.72.72,0,0,1,.63-.79,24.11,24.11,0,0,1,17.28,4.54.79.79,0,0,1,.23.14l0,0,.07.06,0,0,0,0a1.11,1.11,0,0,1,.25.28.71.71,0,0,1-.27.84A.56.56,0,0,1,213.5,216.93Z" style="fill:#263238"></path><path d="M197,219.53a.69.69,0,0,1-.63-.39.71.71,0,0,1,.31-1,19.16,19.16,0,0,1,16.62-.13.71.71,0,0,1,.31,1,.73.73,0,0,1-1,.31c-.08,0-7.57-3.82-15.31.13A.64.64,0,0,1,197,219.53Z" style="fill:#263238"></path><path d="M231.34,229.07a9.68,9.68,0,0,1-5.31-1.53,5.79,5.79,0,0,1-2.37-2.48,14.76,14.76,0,0,1,1-7.57.57.57,0,1,1,1,.46,13.92,13.92,0,0,0-.86,6.93c.23.51,3.48,4.24,9.4,2.66a.57.57,0,0,1,.3,1.1A11.93,11.93,0,0,1,231.34,229.07Z" style="fill:#37474f"></path><path d="M224.62,214.55c-4.47.08-5.23,1.84-4.58,4a6.05,6.05,0,0,0,4.54,3.7c1.61.14,5.86-1,6.46-3.27C231.49,217.23,230,214.46,224.62,214.55Z" style="fill:#ffa8a7"></path><path d="M220.65,227.41a8.07,8.07,0,0,1-1.39-.14.57.57,0,0,1-.45-.67.58.58,0,0,1,.67-.46c3.14.6,4.19-1.34,4.23-1.43a.58.58,0,0,1,.77-.25.57.57,0,0,1,.26.76A4.45,4.45,0,0,1,220.65,227.41Z" style="fill:#37474f"></path></g></g></svg>