<svg xmlns="http://www.w3.org/2000/svg" xmlns:xlink="http://www.w3.org/1999/xlink" viewBox="0 0 500 500"><defs><clipPath id="freepik--clip-path--inject-5"><path d="M381.06,40.09a3.2,3.2,0,0,1,1.9-2.64,10.06,10.06,0,0,1,9.16,0,3.2,3.2,0,0,1,1.9,2.64h0V43h0a3.22,3.22,0,0,1-1.9,2.65,10.13,10.13,0,0,1-9.16,0,3.22,3.22,0,0,1-1.9-2.65h0V40.09Z" style="fill:none"></path></clipPath><clipPath id="freepik--clip-path-2--inject-5"><path d="M393.43,46.35a3.22,3.22,0,0,1,1.9-2.65,10.13,10.13,0,0,1,9.16,0,3.22,3.22,0,0,1,1.9,2.65h0v2.87h0a3.2,3.2,0,0,1-1.9,2.64,10.13,10.13,0,0,1-9.16,0,3.2,3.2,0,0,1-1.9-2.64h0V46.35Z" style="fill:none"></path></clipPath></defs><g id="freepik--Floor--inject-5"><path id="freepik--floor--inject-5" d="M80.54,450.68C-13,396.64-13,309,80.54,255s245.33-54,338.92,0,93.59,141.64,0,195.68S174.13,504.71,80.54,450.68Z" style="fill:#f5f5f5"></path></g><g id="freepik--Shadows--inject-5"><path id="freepik--Shadow--inject-5" d="M444.94,283.24c11,6.35,11,16.64,0,23s-28.83,6.35-39.82,0-11-16.64,0-23S433.94,276.89,444.94,283.24Z" style="fill:#e0e0e0"></path><path id="freepik--shadow--inject-5" d="M383.49,365.8c25.58,14.76,25.58,38.7,0,53.47s-67,14.77-92.62,0-25.57-38.7,0-53.47S357.92,351,383.49,365.8Z" style="fill:#e0e0e0"></path><path id="freepik--shadow--inject-5" d="M162.24,318.91,344,423.82c1.27.73,1.27,1.91,0,2.64l-80.87,46.69a5.06,5.06,0,0,1-4.58,0L76.79,368.24a1.39,1.39,0,0,1,0-2.64l80.87-46.69A5.09,5.09,0,0,1,162.24,318.91Z" style="fill:#e0e0e0"></path><path id="freepik--shadow--inject-5" d="M47.81,336.16c-10.52,6.07-10.52,15.91,0,22s27.56,6.07,38.08,0,10.51-15.91,0-22S58.32,330.08,47.81,336.16Z" style="fill:#e0e0e0"></path></g><g id="freepik--Shelves--inject-5"><g id="freepik--Shelf--inject-5"><path d="M358.27,90V87h0a1,1,0,0,1,.6-.8L377,75.72a3.11,3.11,0,0,1,2.79,0l52,30.05a1,1,0,0,1,.6.8h0v3h0a1,1,0,0,1-.6.8l-18.1,10.45a3.05,3.05,0,0,1-2.79,0l-52-30a1,1,0,0,1-.6-.81Z" style="fill:#f0f0f0"></path><path d="M431.8,107.38l-18.1,10.45a3.11,3.11,0,0,1-2.79,0l-52-30a.84.84,0,0,1,0-1.6L377,75.72a3.11,3.11,0,0,1,2.79,0l52,30.05A.85.85,0,0,1,431.8,107.38Z" style="fill:#fafafa"></path><path d="M412.31,118.16v3a2.93,2.93,0,0,0,1.38-.33l18.11-10.46a1,1,0,0,0,.6-.8h0v-3h0a.73.73,0,0,0-.12-.34c.21.38.06.83-.48,1.14l-18.11,10.45A2.69,2.69,0,0,1,412.31,118.16Z" style="fill:#e0e0e0"></path><path d="M381.94,86.84a6.7,6.7,0,0,0-5.86,0c-1.61.91-1.61,2.38,0,3.28a6.63,6.63,0,0,0,5.86,0C383.55,89.22,383.55,87.75,381.94,86.84Z" style="fill:#e0e0e0"></path><path d="M377.76,70.8l0,0a3.86,3.86,0,0,1-.66-4,10.56,10.56,0,0,0,.51-1.4c.22-.93,0-2.52,1.32-2.52s1.07,1.57,1.32,2.52a9.84,9.84,0,0,0,.5,1.34A3.87,3.87,0,0,1,380,70.8h0a.78.78,0,0,0-.19.51h0a.75.75,0,0,0,.54.73,3.81,3.81,0,0,1,.85.36,1.65,1.65,0,0,1,1,1.35l.71,14.2c0,.82-.76,1.64-2.26,2.09a6.17,6.17,0,0,1-3.51,0c-1.51-.45-2.26-1.27-2.26-2.09l.71-14.2a1.63,1.63,0,0,1,1-1.35,3.73,3.73,0,0,1,.84-.36.75.75,0,0,0,.55-.73h0A.78.78,0,0,0,377.76,70.8Z" style="fill:#f0f0f0"></path><path d="M377.76,70.8l0,0a3.86,3.86,0,0,1-.66-4,10.56,10.56,0,0,0,.51-1.4c.22-.93,0-2.52,1.32-2.52s1.07,1.57,1.32,2.52a9.84,9.84,0,0,0,.5,1.34A3.87,3.87,0,0,1,380,70.8h0a.78.78,0,0,0-.19.51h0a.75.75,0,0,0,.54.73,3.81,3.81,0,0,1,.85.36,1.65,1.65,0,0,1,1,1.35l.71,14.2c0,.82-.76,1.64-2.26,2.09a6.17,6.17,0,0,1-3.51,0c-1.51-.45-2.26-1.27-2.26-2.09l.71-14.2a1.63,1.63,0,0,1,1-1.35,3.73,3.73,0,0,1,.84-.36.75.75,0,0,0,.55-.73h0A.78.78,0,0,0,377.76,70.8Z" style="fill:#fff;opacity:0.7000000000000001"></path><path d="M381.73,86.31a6.31,6.31,0,0,0-5.68,0c-1.56.91-1.56,2.37,0,3.28a6.31,6.31,0,0,0,5.68,0C383.3,88.68,383.3,87.22,381.73,86.31Z" style="fill:#f0f0f0;opacity:0.2"></path><path d="M377.94,90.22a5.45,5.45,0,0,1-.8-.18c-1.51-.45-2.26-1.27-2.26-2.09l.71-14.2a1.63,1.63,0,0,1,1-1.35,3.73,3.73,0,0,1,.84-.36.75.75,0,0,0,.55-.73,1,1,0,0,1-.57,1.12c-.52.34-1.36.29-1.49,2.09s-.62,12.19-.62,13S375.52,89.46,377.94,90.22Z" style="fill:#fff;opacity:0.4"></path><path d="M375.58,88l.52-10.39h0a1.38,1.38,0,0,1,.82-1.14,4.36,4.36,0,0,1,3.95,0,1.39,1.39,0,0,1,.82,1.14h0L382.21,88a.88.88,0,0,1-.06.27,1.9,1.9,0,0,1-.92,1,5.19,5.19,0,0,1-4.67,0,1.82,1.82,0,0,1-.92-1A.66.66,0,0,1,375.58,88Z" style="fill:#f0f0f0"></path><path d="M381.23,86.56a5.13,5.13,0,0,0-4.67,0c-1.29.74-1.29,2,0,2.7a5.19,5.19,0,0,0,4.67,0C382.52,88.51,382.52,87.3,381.23,86.56Z" style="opacity:0.05"></path><path d="M376.13,89l.61-12.41.15-.1.63.06-.63,12.92a3.36,3.36,0,0,1-.33-.16A2.51,2.51,0,0,1,376.13,89Z" style="fill:#fff;opacity:0.30000000000000004"></path><path d="M377.94,76.64l.4-.08-.46,13.16a4.75,4.75,0,0,1-.57-.14Z" style="fill:#fff;opacity:0.30000000000000004"></path><path d="M380.29,88c-.06-1.21-.08-6.26-.25-9.8l.12-2.06a4.09,4.09,0,0,1,.71.3,1.39,1.39,0,0,1,.82,1.14h0L382.21,88a.88.88,0,0,1-.06.27,1.9,1.9,0,0,1-.92,1,5.19,5.19,0,0,1-4.67,0C378.55,89.78,380.35,89.2,380.29,88Z" style="opacity:0.05"></path><path d="M380.87,76.43a4.36,4.36,0,0,0-3.95,0,1.2,1.2,0,0,0,0,2.28,4.36,4.36,0,0,0,3.95,0A1.2,1.2,0,0,0,380.87,76.43Z" style="fill:#f0f0f0"></path><path d="M380.87,76.43a4.36,4.36,0,0,0-3.95,0,1.2,1.2,0,0,0,0,2.28,4.36,4.36,0,0,0,3.95,0A1.2,1.2,0,0,0,380.87,76.43Z" style="fill:#fff;opacity:0.30000000000000004"></path><path d="M379.2,85.2a6.6,6.6,0,0,1-3-.64A1.89,1.89,0,0,1,375.12,83l.24-4.72a1.75,1.75,0,0,0,1.05,1.42,6.28,6.28,0,0,0,2.79.6Z" style="opacity:0.05"></path><path d="M378.89,85.4a5.55,5.55,0,0,1-2.67-.64,1.89,1.89,0,0,1-1.11-1.54l.24-4.74a1.78,1.78,0,0,0,1,1.45,5.11,5.11,0,0,0,2.5.6Z" style="fill:#fff"></path><path d="M381.38,87.61c0-.81-.47-11.86-.6-13.15a2.63,2.63,0,0,0-1.45-2.24,1,1,0,0,1-.13-1.57,3.06,3.06,0,0,0,.88-3.17,18.29,18.29,0,0,1-.71-2.92c-.12-1.37-.47-1.73-1-1.63a1,1,0,0,1,.49-.11c1.3,0,1.07,1.57,1.32,2.52a9.84,9.84,0,0,0,.5,1.34A3.87,3.87,0,0,1,380,70.8a.78.78,0,0,0-.19.51.75.75,0,0,0,.54.73,3.81,3.81,0,0,1,.85.36,1.65,1.65,0,0,1,1,1.35l.71,14.2c0,.82-.76,1.64-2.26,2.09a6.17,6.17,0,0,1-3.51,0,4.84,4.84,0,0,1-.61-.22C380.23,90.82,381.37,88.41,381.38,87.61Z" style="fill:#f0f0f0;opacity:0.2"></path><path d="M377.29,67c.14-.34.36-.65.47-1a6.38,6.38,0,0,0,.2-1.38c0-.16,0-.52.2-.6s.26,0,.29.18a6.41,6.41,0,0,1,.14,1.8,6.23,6.23,0,0,1-.5,1.49,6,6,0,0,0-.12,1.69.69.69,0,0,1-.05.24.2.2,0,0,1-.19.12.31.31,0,0,1-.16-.11,1.5,1.5,0,0,1-.32-.44,2.47,2.47,0,0,1-.14-1.42A3.77,3.77,0,0,1,377.29,67Z" style="fill:#fff;opacity:0.4"></path><path d="M376.92,78.71a1.2,1.2,0,0,1,0-2.28,3.43,3.43,0,0,1,.7-.3c-2.37.89-1,2.92,1.27,2.86a3.32,3.32,0,0,0,2.72-1,1.64,1.64,0,0,1-.74.77A4.36,4.36,0,0,1,376.92,78.71Z" style="fill:#fff;opacity:0.5"></path><path d="M374,86.22c1.81-1,1.81-2.72,0-3.76a7.31,7.31,0,0,0-6.57,0c-1.82,1-1.82,2.72,0,3.76A7.37,7.37,0,0,0,374,86.22Z" style="fill:#e0e0e0"></path><path d="M367.28,73.22a3.81,3.81,0,0,1,.61-.29,1,1,0,0,0,.65-1v-2h3.78v2a1,1,0,0,0,.66,1,4.15,4.15,0,0,1,.6.29A2.22,2.22,0,0,1,374.89,75v8.73a2.22,2.22,0,0,1-1.31,1.82,7,7,0,0,1-6.3,0,2.2,2.2,0,0,1-1.3-1.82V75A2.2,2.2,0,0,1,367.28,73.22Z" style="fill:#f0f0f0"></path><path d="M367.28,73.22a3.81,3.81,0,0,1,.61-.29,1,1,0,0,0,.65-1v-2h3.78v2a1,1,0,0,0,.66,1,4.15,4.15,0,0,1,.6.29A2.22,2.22,0,0,1,374.89,75v8.73a2.22,2.22,0,0,1-1.31,1.82,7,7,0,0,1-6.3,0,2.2,2.2,0,0,1-1.3-1.82V75A2.2,2.2,0,0,1,367.28,73.22Z" style="fill:#fff;opacity:0.7000000000000001"></path><path d="M373.58,85.59c1.73-1,1.73-2.61,0-3.6a7.05,7.05,0,0,0-6.3,0c-1.74,1-1.74,2.6,0,3.6A7.05,7.05,0,0,0,373.58,85.59Z" style="fill:#f0f0f0;opacity:0.2"></path><path d="M373.58,85.59c1.73-1,1.73-2.61,0-3.6a7.05,7.05,0,0,0-6.3,0c-1.74,1-1.74,2.6,0,3.6A7.05,7.05,0,0,0,373.58,85.59Z" style="opacity:0.05"></path><path d="M366.68,77.59V83.5a1.85,1.85,0,0,0,1.1,1.53l.43.22.08,0,.1,0a6.37,6.37,0,0,0,2,.32,6.15,6.15,0,0,0,2.2-.38h0a3.42,3.42,0,0,0,.43-.21,1.87,1.87,0,0,0,1.1-1.53V77.59a1.87,1.87,0,0,0-1.1-1.53,5.85,5.85,0,0,0-5.31,0A1.85,1.85,0,0,0,366.68,77.59Z" style="fill:#f0f0f0"></path><path d="M369.69,82.8l.23.6a.55.55,0,0,0,1,0l.23-.6a5.24,5.24,0,0,0,.36-1.92V69.34h-2.2V80.88A5.24,5.24,0,0,0,369.69,82.8Z" style="fill:#f0f0f0;opacity:0.15"></path><path d="M371.53,75.52v5.36a5.24,5.24,0,0,1-.36,1.92l-.23.6a.55.55,0,0,1-1,0l-.23-.6a5.24,5.24,0,0,1-.36-1.92V75.52A6.25,6.25,0,0,1,371.53,75.52Z" style="opacity:0.05"></path><path d="M370.81,83.58l-.06,0-.07.05h0l-.09,0s.19-.06.24-.54S371,81.54,371,81v-5.5a5.17,5.17,0,0,1,.55.07v5.36a5.24,5.24,0,0,1-.36,1.92l-.23.6a.57.57,0,0,1-.08.13Z" style="opacity:0.05"></path><path d="M366.68,83.5a1.85,1.85,0,0,0,1.1,1.53l.43.22.08,0,.1,0a6.06,6.06,0,0,0,4.24-.06h0a3.42,3.42,0,0,0,.43-.21,1.62,1.62,0,0,0,0-3.07,5.91,5.91,0,0,0-5.31,0A1.86,1.86,0,0,0,366.68,83.5Z" style="opacity:0.05"></path><path d="M372.25,83.85V79L372,77.65l1.62-1.17a1.57,1.57,0,0,1,.53,1.11V83.5a1.87,1.87,0,0,1-1.1,1.53,3.42,3.42,0,0,1-.43.21h0a6.15,6.15,0,0,1-2.2.38,6.37,6.37,0,0,1-2-.32l-.1,0-.08,0-.12-.06C370.48,85.79,372.25,84.75,372.25,83.85Z" style="opacity:0.05"></path><path d="M368.05,85.17l-.27-.14a2.8,2.8,0,0,1-.62-.47V77h.89Z" style="fill:#fff;opacity:0.30000000000000004"></path><path d="M369,85.47l-.44-.12V77.49H369Z" style="fill:#fff;opacity:0.30000000000000004"></path><path d="M372.07,75.63c1.41.42,2.12,1.19,2.12,2s-.71,1.54-2.12,2a5.9,5.9,0,0,1-3.28,0c-1.41-.42-2.11-1.19-2.11-2s.7-1.54,2.11-2A5.9,5.9,0,0,1,372.07,75.63Z" style="fill:#f0f0f0"></path><path d="M372.07,75.63c1.41.42,2.12,1.19,2.12,2s-.71,1.54-2.12,2a5.9,5.9,0,0,1-3.28,0c-1.41-.42-2.11-1.19-2.11-2s.7-1.54,2.11-2A5.9,5.9,0,0,1,372.07,75.63Z" style="fill:#fff;opacity:0.30000000000000004"></path><path d="M369.33,77.59v2.07a6.25,6.25,0,0,0,2.2,0v-2a.58.58,0,0,1-.32.39,1.72,1.72,0,0,1-1.56,0A.53.53,0,0,1,369.33,77.59Z" style="fill:#f0f0f0"></path><path d="M371.21,78a.58.58,0,0,0,.32-.39v2a3.45,3.45,0,0,1-.55.07V78.14Z" style="opacity:0.05"></path><path d="M369.33,75.52v2.07a.53.53,0,0,0,.32.45,1.72,1.72,0,0,0,1.56,0,.58.58,0,0,0,.32-.39V75.52A6.25,6.25,0,0,0,369.33,75.52Z" style="opacity:0.05"></path><path d="M371.5,81.42a5.45,5.45,0,0,1-.33,1.38l-.23.6a.55.55,0,0,1-1,0l-.23-.6a5.45,5.45,0,0,1-.33-1.38A6.41,6.41,0,0,1,371.5,81.42Z" style="opacity:0.05"></path><path d="M373.45,83.79V75.3a1.25,1.25,0,0,0-.77-1.29c-1.31-.66-1.47-1.2-1.47-1.87v-2.2h1.11v2a1,1,0,0,0,.66,1,4.15,4.15,0,0,1,.6.29A2.22,2.22,0,0,1,374.89,75v8.73a2.22,2.22,0,0,1-1.31,1.82,7,7,0,0,1-4.62.6C372.57,86.43,373.45,84.9,373.45,83.79Z" style="fill:#f0f0f0;opacity:0.2"></path><path d="M367.28,73.22a3.81,3.81,0,0,1,.61-.29,1,1,0,0,0,.65-1v-2H369v2.43a1.13,1.13,0,0,1-.67.89c-.35.19-1.48.69-1.76,1.22a8.07,8.07,0,0,0-.17,2.74v6.15a2.78,2.78,0,0,0,1.78,2.6,5.2,5.2,0,0,1-.86-.38,2.19,2.19,0,0,1-1.3-1.83V75A2.2,2.2,0,0,1,367.28,73.22Z" style="fill:#fff;opacity:0.4"></path><path d="M371.53,75.52v2.13a.58.58,0,0,1-.32.39l-.23.1V75.45A5.17,5.17,0,0,1,371.53,75.52Z" style="opacity:0.05"></path><path d="M370.13,83.44c0,.09.13.15.3.15s.3-.06.3-.15-.13-.15-.3-.15S370.13,83.36,370.13,83.44Z" style="opacity:0.2"></path><path d="M370.33,82.9a3.64,3.64,0,0,1-.1-1.2V69.34h.2V81.75A3.48,3.48,0,0,1,370.33,82.9Z" style="fill:#fff;opacity:0.4"></path><path d="M369.61,69.34h.4V82.67h0a3.9,3.9,0,0,1-.4-1.71Z" style="fill:#fff;opacity:0.4"></path><path d="M368,69.35v.59a1.19,1.19,0,0,0,.7,1,3.77,3.77,0,0,0,3.4,0,1.48,1.48,0,0,0,.52-.46.86.86,0,0,0,.18-.52v-.6a.88.88,0,0,0,0-.16,1.31,1.31,0,0,0-.68-.82l0,0a3.78,3.78,0,0,0-3.36,0,1.31,1.31,0,0,0-.68.82A.47.47,0,0,0,368,69.35Z" style="fill:#fafafa"></path><path d="M370.23,70.72v-.88c0-.35-.09-.88.53-.88a1.69,1.69,0,0,0,1.33-.62l0,0a1.31,1.31,0,0,1,.68.82.88.88,0,0,1,0,.16v.6a.86.86,0,0,1-.18.52,1.48,1.48,0,0,1-.52.46,3.77,3.77,0,0,1-3.4,0C369.39,71.18,370.23,71.06,370.23,70.72Z" style="fill:#e0e0e0"></path><path d="M372.13,70.32a1,1,0,0,0,0-2,3.77,3.77,0,0,0-3.4,0,1,1,0,0,0,0,2A3.77,3.77,0,0,0,372.13,70.32Z" style="fill:#e0e0e0"></path><path d="M372.13,70.32a1,1,0,0,0,0-2,3.77,3.77,0,0,0-3.4,0,1,1,0,0,0,0,2A3.77,3.77,0,0,0,372.13,70.32Z" style="opacity:0.05"></path><path d="M368,67.51V69a.5.5,0,0,0,0,.17,1.27,1.27,0,0,0,.68.81,3.22,3.22,0,0,0,1.5.4,3.5,3.5,0,0,0,1.9-.4,1.68,1.68,0,0,0,.52-.45,1,1,0,0,0,.16-.36.88.88,0,0,0,0-.16V67.51a1.19,1.19,0,0,0-.7-1l-.13-.06a3.79,3.79,0,0,0-3.27.06A1.2,1.2,0,0,0,368,67.51Z" style="fill:#fafafa"></path><path d="M370.43,62.84a1.31,1.31,0,0,1,1.31,1.31V67.5h0a.65.65,0,0,1-.39.54,2.08,2.08,0,0,1-1.85,0,.66.66,0,0,1-.38-.54h0V64.15A1.31,1.31,0,0,1,370.43,62.84Z" style="fill:#e0e0e0"></path><path d="M369.68,63.08h0a1.29,1.29,0,0,1,.75-.24,1.31,1.31,0,0,1,1.31,1.31V67.5h0a.65.65,0,0,1-.39.54,2.08,2.08,0,0,1-1.85,0,1,1,0,0,1-.31-.3,1.21,1.21,0,0,0,1.1.14c.53-.21.68-.72.68-1.42V64.27C371,63.4,370.27,62.68,369.68,63.08Z" style="opacity:0.05"></path><path d="M369.73,66.05h0a.34.34,0,0,0,.34-.34V63.85a.34.34,0,0,0-.34-.34h0a.34.34,0,0,0-.34.34v1.86A.34.34,0,0,0,369.73,66.05Z" style="fill:#ebebeb"></path><path d="M369.39,66.8a.34.34,0,1,0,.34-.34A.34.34,0,0,0,369.39,66.8Z" style="fill:#ebebeb"></path><path d="M372.65,69.54a1.68,1.68,0,0,1-.52.45,3.5,3.5,0,0,1-1.9.4v-.55c0-.35-.1-.76.53-.88a2.48,2.48,0,0,0,1.65-.89,1.21,1.21,0,0,0-.41-1.61l.13.06a1.19,1.19,0,0,1,.7,1V69a.88.88,0,0,1,0,.16A1,1,0,0,1,372.65,69.54Z" style="fill:#e0e0e0"></path><path d="M367.78,76.06a2.49,2.49,0,0,1,.4-.2c-2.08,1.06-1.13,2.67.15,3.27a7.67,7.67,0,0,0,4.56.1,5.9,5.9,0,0,1-5.11-.11,1.61,1.61,0,0,1,0-3.06Z" style="fill:#fff;opacity:0.5"></path><path id="freepik--shadow--inject-5" d="M398,92.67c3.59,2.07,3.59,5.43,0,7.5a14.32,14.32,0,0,1-13,0c-3.59-2.07-3.59-5.43,0-7.5A14.32,14.32,0,0,1,398,92.67Z" style="fill:#e0e0e0"></path><g id="freepik--Jar--inject-5"><path d="M385.57,75.88a8.57,8.57,0,0,1,1.14-.55A2,2,0,0,0,388,73.54V71.35h7.14v2.19a2,2,0,0,0,1.24,1.79,8,8,0,0,1,1.14.55c1.65,1,2.47,2.19,2.47,3.43V95.8c0,1.25-.82,2.49-2.47,3.44a13.13,13.13,0,0,1-11.9,0c-1.64-.95-2.46-2.19-2.46-3.44V79.31C383.11,78.07,383.93,76.83,385.57,75.88Z" style="fill:#ebebeb"></path><path d="M397,99c3-1.72,3-4.51,0-6.23a12.2,12.2,0,0,0-10.89,0c-3,1.72-3,4.51,0,6.23A12.2,12.2,0,0,0,397,99Z" style="opacity:0.05"></path><path d="M387.27,73.65a9.28,9.28,0,0,1,5.72-.91V71.35h2.1v2.19a1.94,1.94,0,0,0,1.24,1.79,8,8,0,0,1,1.14.55.05.05,0,0,1,0,0c1.62.95,2.43,2.18,2.43,3.41V95.8c0,1.25-.82,2.49-2.47,3.44a13.18,13.18,0,0,1-8.74,1.14c6.84.47,8.49-2.43,8.49-4.53v-16A2.44,2.44,0,0,0,396.6,78a4.57,4.57,0,0,1-.83.61,9.43,9.43,0,0,1-8.5,0C384.92,77.2,384.92,75,387.27,73.65Z" style="opacity:0.05"></path><path d="M385.57,75.88a8.57,8.57,0,0,1,1.14-.55A2,2,0,0,0,388,73.54V71.35h.78v2.93A2.17,2.17,0,0,1,387.48,76c-.67.37-2.81,1.29-3.33,2.31s-.33,2.89-.33,5.16V95.07a5.3,5.3,0,0,0,3.36,4.91,9.08,9.08,0,0,1-1.61-.73c-1.64-.94-2.46-2.14-2.46-3.45V79.31C383.11,78.07,383.93,76.83,385.57,75.88Z" style="fill:#fff;opacity:0.4"></path><path d="M385.51,74.42V75a3,3,0,0,0,1.76,2.46,9.36,9.36,0,0,0,8.5,0,4.21,4.21,0,0,0,1.32-1.15,2.22,2.22,0,0,0,.43-1.3v-.64a1.9,1.9,0,0,0,0-.41,3.23,3.23,0,0,0-1.71-2l-.09,0a9.46,9.46,0,0,0-8.41,0,3.2,3.2,0,0,0-1.71,2A1.51,1.51,0,0,0,385.51,74.42Z" style="fill:#e0e0e0"></path><path d="M391,77.87V75.66c0-.87-.23.31,1.31.31,1.33,0,2.51-3.07,3.34-4.07l.09,0a3.23,3.23,0,0,1,1.71,2,1.9,1.9,0,0,1,0,.41v.64a2.22,2.22,0,0,1-.43,1.3,4.21,4.21,0,0,1-1.32,1.15,9.36,9.36,0,0,1-8.5,0C388.93,78.16,391,78.71,391,77.87Z" style="opacity:0.05"></path><path d="M395.77,76.86c2.34-1.36,2.34-3.55,0-4.91a9.43,9.43,0,0,0-8.5,0c-2.35,1.36-2.35,3.55,0,4.91A9.43,9.43,0,0,0,395.77,76.86Z" style="fill:#f5f5f5"></path><path d="M385.51,72.34v1.24a1.51,1.51,0,0,0,.05.42,3.25,3.25,0,0,0,1.71,2A8.45,8.45,0,0,0,391,77a8.92,8.92,0,0,0,4.74-1,4.19,4.19,0,0,0,1.32-1.14,2.37,2.37,0,0,0,.39-.9,1.81,1.81,0,0,0,0-.4V72.32a3,3,0,0,0-1.75-2.45l-.32-.17a9.45,9.45,0,0,0-8.18.17A3,3,0,0,0,385.51,72.34Z" style="fill:#e0e0e0"></path><path d="M395.77,74.75c2.34-1.36,2.34-3.55,0-4.91a9.43,9.43,0,0,0-8.5,0c-2.35,1.36-2.35,3.55,0,4.91A9.43,9.43,0,0,0,395.77,74.75Z" style="fill:#ebebeb"></path><path d="M397.09,74.9A4.19,4.19,0,0,1,395.77,76,8.92,8.92,0,0,1,391,77h0c0-.43-.26-.77,1.31-1.07,1.3-.25,3.24-.8,4.14-2.22a3,3,0,0,0-1-4l.32.17a3,3,0,0,1,1.75,2.45V73.6a1.81,1.81,0,0,1,0,.4A2.37,2.37,0,0,1,397.09,74.9Z" style="opacity:0.05"></path></g><path d="M408.88,105.85a8,8,0,0,1-7.28,0c-2-1.16-2-3,0-4.21a8,8,0,0,1,7.28,0C410.89,102.8,410.89,104.69,408.88,105.85Z" style="fill:#e0e0e0"></path><path d="M409.52,85.61v17.54a2.15,2.15,0,0,1-1.25,1.75,6.74,6.74,0,0,1-6.06,0,2.14,2.14,0,0,1-1.26-1.75V85.61Z" style="fill:#fff"></path><path d="M406.27,105.54a5.73,5.73,0,0,0,2-.64,2.15,2.15,0,0,0,1.25-1.75V85.61h-3.25Z" style="fill:#f5f5f5"></path><path d="M408.27,87.36a6.74,6.74,0,0,1-6.06,0c-1.67-1-1.67-2.54,0-3.5a6.67,6.67,0,0,1,6.06,0C409.94,84.82,409.94,86.39,408.27,87.36Z" style="fill:#f5f5f5"></path><path d="M408.35,82.2v3.06a1.56,1.56,0,0,1-.91,1.27,4.87,4.87,0,0,1-4.4,0,1.54,1.54,0,0,1-.91-1.27V82.2Z" style="fill:#ebebeb"></path><path d="M406,87a4.19,4.19,0,0,0,1.45-.47,1.56,1.56,0,0,0,.91-1.27V82.2H406Z" style="fill:#e0e0e0"></path><path d="M407.44,83.47a4.87,4.87,0,0,1-4.4,0,1.34,1.34,0,0,1,0-2.54,4.87,4.87,0,0,1,4.4,0A1.34,1.34,0,0,1,407.44,83.47Z" style="fill:#f5f5f5"></path><path d="M407.62,80.55v1.33a1.18,1.18,0,0,1-.7,1,3.75,3.75,0,0,1-3.36,0,1.18,1.18,0,0,1-.7-1V80.55Z" style="fill:#ebebeb"></path><path d="M405.81,83.21a3.21,3.21,0,0,0,1.11-.35,1.18,1.18,0,0,0,.7-1V80.55h-1.81Z" style="fill:#e0e0e0"></path><path d="M406.92,81.52a3.69,3.69,0,0,1-3.36,0,1,1,0,0,1,0-1.94,3.69,3.69,0,0,1,3.36,0A1,1,0,0,1,406.92,81.52Z" style="fill:#fafafa"></path><path d="M406.84,77.31v3.12a.79.79,0,0,1-.47.65,2.52,2.52,0,0,1-2.27,0,.81.81,0,0,1-.47-.65V77.31Z" style="fill:#ebebeb"></path><path d="M406,81.24a1.52,1.52,0,0,0,.39-.16.79.79,0,0,0,.47-.65V77.31H406Z" style="fill:#e0e0e0"></path><path d="M406.37,78a2.52,2.52,0,0,1-2.27,0,.69.69,0,0,1,0-1.31,2.52,2.52,0,0,1,2.27,0A.69.69,0,0,1,406.37,78Z" style="fill:#fafafa"></path><path d="M404.45,79.14a.75.75,0,0,0-.35-.6c-.19-.11-.34,0-.34.2a.76.76,0,0,0,.34.6C404.3,79.45,404.45,79.36,404.45,79.14Z" style="fill:#f5f5f5"></path><path d="M408.35,77a1.56,1.56,0,0,0-.91-1.27,4.87,4.87,0,0,0-4.4,0,1.54,1.54,0,0,0-.91,1.27V82.2a1.54,1.54,0,0,0,.91,1.27,4.87,4.87,0,0,0,4.4,0,1.56,1.56,0,0,0,.91-1.26h0V77Z" style="fill:#fafafa;opacity:0.30000000000000004"></path><path d="M407.44,78.24a4.87,4.87,0,0,1-4.4,0,1.34,1.34,0,0,1,0-2.54,4.87,4.87,0,0,1,4.4,0A1.34,1.34,0,0,1,407.44,78.24Z" style="fill:#fff;opacity:0.30000000000000004"></path><path d="M420.29,112.08a9.24,9.24,0,0,1-8.32,0c-2.3-1.33-2.3-3.48,0-4.81a9.17,9.17,0,0,1,8.32,0C422.59,108.6,422.59,110.75,420.29,112.08Z" style="fill:#e0e0e0"></path><path d="M421.25,109V88.66a5.13,5.13,0,1,0-10.25,0V109a2.55,2.55,0,0,0,1.51,2.09,8,8,0,0,0,7.24,0A2.56,2.56,0,0,0,421.25,109Z" style="fill:#f0f0f0"></path><path d="M419.32,94.17v14c0,2.6-4.61,3.83-7.58,2.39a3.35,3.35,0,0,0,.77.57,8,8,0,0,0,7.24,0,2.56,2.56,0,0,0,1.5-2.09V88.66a5.13,5.13,0,0,0-5.12-5.13V85C418.85,87,419.32,87.81,419.32,94.17Z" style="fill:#e0e0e0"></path><path d="M418.57,79.72v4.94a1.19,1.19,0,0,1-.71,1,3.77,3.77,0,0,1-3.46,0,1.2,1.2,0,0,1-.72-1V79.72Z" style="fill:#ebebeb"></path><path d="M417.86,80.71a3.77,3.77,0,0,1-3.46,0,1,1,0,0,1,0-2,3.83,3.83,0,0,1,3.46,0A1.05,1.05,0,0,1,417.86,80.71Z" style="fill:#f5f5f5"></path><path d="M415.38,80.43a1.79,1.79,0,0,0-1.42-.08,1.47,1.47,0,0,0,.44.36,3.21,3.21,0,0,0,1.26.39C415.79,80.87,415.7,80.61,415.38,80.43Z" style="fill:#e0e0e0"></path><path d="M419.75,94.16a8,8,0,0,1-7.24,0A2.55,2.55,0,0,1,411,92.07v9.73a2.55,2.55,0,0,0,1.51,2.09,8,8,0,0,0,7.24,0,2.54,2.54,0,0,0,1.5-2.09V92.07A2.56,2.56,0,0,1,419.75,94.16Z" style="fill:#fafafa"></path><path d="M419.75,94.16a3.36,3.36,0,0,1-.43.2v9.74c.14-.07.3-.13.43-.21a2.54,2.54,0,0,0,1.5-2.09V92.07A2.56,2.56,0,0,1,419.75,94.16Z" style="fill:#ebebeb"></path></g><g id="freepik--shelf--inject-5"><path d="M358.27,49.34v-3h0a1,1,0,0,1,.6-.8L377,35.07a3.05,3.05,0,0,1,2.79,0l52,30a1,1,0,0,1,.6.81h0v3h0a1,1,0,0,1-.6.81L413.7,80.19a3.11,3.11,0,0,1-2.79,0l-52-30a1,1,0,0,1-.6-.8Z" style="fill:#f0f0f0"></path><path d="M431.8,66.72,413.7,77.17a3.05,3.05,0,0,1-2.79,0l-52-30a.85.85,0,0,1,0-1.61L377,35.07a3.05,3.05,0,0,1,2.79,0l52,30A.85.85,0,0,1,431.8,66.72Z" style="fill:#fafafa"></path><path d="M412.31,77.51v3a2.82,2.82,0,0,0,1.38-.33L431.8,69.74a1,1,0,0,0,.6-.8h0v-3h0a.78.78,0,0,0-.12-.34c.21.39.06.83-.48,1.14L413.69,77.17A2.69,2.69,0,0,1,412.31,77.51Z" style="fill:#e0e0e0"></path><path d="M380,49a13.26,13.26,0,0,1-12,0c-3.32-1.91-3.31-5,0-6.93a13.26,13.26,0,0,1,12,0C383.3,43.94,383.3,47,380,49Z" style="fill:#e0e0e0"></path><path d="M366,45.44h0V31.14H380.3v14.3h0c.06,1.1-.63,2.21-2.09,3.05a11.14,11.14,0,0,1-10.12,0C366.62,47.65,365.93,46.54,366,45.44Z" style="fill:#ebebeb"></path><path d="M378.2,34.06a11.14,11.14,0,0,1-10.12,0c-2.8-1.61-2.8-4.23,0-5.84a11.14,11.14,0,0,1,10.12,0C381,29.83,381,32.45,378.2,34.06Z" style="fill:#fafafa"></path><path d="M377.89,33.82a10.65,10.65,0,0,1-9.5,0c-2.63-1.48-2.63-3.88,0-5.36a10.65,10.65,0,0,1,9.5,0C380.52,29.94,380.52,32.34,377.89,33.82Z" style="fill:#ebebeb"></path><path d="M368.39,29.15a10.72,10.72,0,0,1,9.5,0,3.45,3.45,0,0,1,1.94,2.34,3.46,3.46,0,0,1-1.94,2.33,10.65,10.65,0,0,1-9.5,0,3.49,3.49,0,0,1-1.94-2.33A3.48,3.48,0,0,1,368.39,29.15Z" style="fill:#f5f5f5"></path><path d="M380.3,43A3.54,3.54,0,0,1,378.2,46a11.14,11.14,0,0,1-10.12,0A3.54,3.54,0,0,1,366,43V33.47a3.54,3.54,0,0,0,2.1,2.92,11.14,11.14,0,0,0,10.12,0,3.54,3.54,0,0,0,2.1-2.94Z" style="fill:#e0e0e0"></path><path d="M368,42.14c.25-.65,1-1.35,1.46-1.08a6.46,6.46,0,0,1,1.47,2.77c.25,1,.18,1.84-.41,1.62s-.75-1.07-1.06-1.25-.47.49-1.05,0A1.91,1.91,0,0,1,368,42.14Z" style="fill:#fafafa"></path><path d="M369.66,39.27a1.8,1.8,0,0,0,.45,1.44c.29.22.57-.06.62-.63a1.82,1.82,0,0,0-.46-1.43C370,38.43,369.7,38.71,369.66,39.27Z" style="fill:#fafafa"></path><path d="M370.92,41.78a1.66,1.66,0,0,0,.37,1.32c.27.23.53,0,.6-.49a1.66,1.66,0,0,0-.37-1.32C371.26,41.06,371,41.28,370.92,41.78Z" style="fill:#fafafa"></path><path d="M369.17,39c.05.62-.16,1-.45.91s-.57-.71-.62-1.33.16-1,.45-.91S369.12,38.37,369.17,39Z" style="fill:#fafafa"></path><path d="M367.91,40c.06.57-.1,1-.37.9s-.53-.61-.6-1.18.1-1,.37-.9S367.84,39.47,367.91,40Z" style="fill:#fafafa"></path><path d="M370.21,49.34a11.29,11.29,0,0,0,8-.85,3.47,3.47,0,0,0,2.09-3.06h0V31.14a3.54,3.54,0,0,1-2.1,2.92,5.58,5.58,0,0,1-.69.35V47.18C377.51,48.37,373.52,49.79,370.21,49.34Z" style="opacity:0.05"></path><path d="M371.51,33.69l.76-.44c.61-.36.78-.84.36-1.08a2.17,2.17,0,0,0-1.86.22l-.76.44c-.62.35-.78.83-.37,1.07A2.14,2.14,0,0,0,371.51,33.69Z" style="fill:#e0e0e0"></path><path d="M372.3,32.84a.89.89,0,0,1-.81,0c-.23-.13-.23-.34,0-.47a.89.89,0,0,1,.81,0C372.53,32.5,372.53,32.71,372.3,32.84Z" style="fill:#f5f5f5"></path><ellipse cx="370.39" cy="33.42" rx="0.58" ry="0.33" style="fill:#f5f5f5"></ellipse><path d="M392.47,56.3a10.13,10.13,0,0,1-9.16,0c-2.53-1.46-2.53-3.83,0-5.29a10.13,10.13,0,0,1,9.16,0C395,52.47,395,54.84,392.47,56.3Z" style="fill:#e0e0e0"></path><path d="M381.43,42.88a3,3,0,0,1,1.79-2.49,9.53,9.53,0,0,1,8.64,0,3,3,0,0,1,1.79,2.49h0V53.26h0a3,3,0,0,1-1.79,2.5,9.53,9.53,0,0,1-8.64,0,3,3,0,0,1-1.79-2.5h0Z" style="fill:#f0f0f0"></path><path d="M383.78,40.1V56c-.19-.09-.38-.18-.56-.28a4.84,4.84,0,0,1-1-.74V41.12a4.47,4.47,0,0,1,1-.73A5.93,5.93,0,0,1,383.78,40.1Z" style="fill:#fff;opacity:0.4"></path><path d="M385.38,56.56a6.74,6.74,0,0,1-.88-.24V39.82c.29-.09.58-.17.88-.24Z" style="fill:#fff;opacity:0.4"></path><path d="M381.54,42.23A4.4,4.4,0,0,1,383,41a10.27,10.27,0,0,1,8.61-.28v-.47a1.59,1.59,0,0,1,.29.15,3,3,0,0,1,1.79,2.49v2.39h0v4.58h0v3.41a3,3,0,0,1-1.79,2.5,9.53,9.53,0,0,1-8.64,0,4.69,4.69,0,0,1-1.09-.85c1.14,1.06,4,1.64,6.07,1.23s3.37-1.76,3.37-2.71v-.92a9.22,9.22,0,0,1-4.22.94V48.79a9.19,9.19,0,0,0,4.22-.86V46.57a10.23,10.23,0,0,1-8.61-.29,4.21,4.21,0,0,1-1.53-1.4v-2A2.06,2.06,0,0,1,381.54,42.23Z" style="opacity:0.05"></path><path d="M392.62,53.7V40.92a2.64,2.64,0,0,1,1,2V53.26a3,3,0,0,1-1.79,2.5,7.7,7.7,0,0,1-2.32.83C391.83,56,392.62,54.4,392.62,53.7Z" style="opacity:0.05"></path><path d="M381.06,40.09a3.2,3.2,0,0,1,1.9-2.64,10.06,10.06,0,0,1,9.16,0,3.2,3.2,0,0,1,1.9,2.64h0V43h0a3.22,3.22,0,0,1-1.9,2.65,10.13,10.13,0,0,1-9.16,0,3.22,3.22,0,0,1-1.9-2.65h0V40.09Z" style="fill:#e0e0e0"></path><g style="clip-path:url(#freepik--clip-path--inject-5)"><g style="opacity:0.1"><rect x="380.91" y="39.82" width="0.31" height="4.47"></rect><rect x="381.62" y="41.03" width="0.31" height="4.49"></rect><rect x="382.7" y="41.86" width="0.31" height="4.52"></rect><rect x="383.94" y="42.38" width="0.31" height="4.54"></rect><rect x="385.29" y="42.72" width="0.31" height="4.56"></rect><rect x="386.73" y="42.89" width="0.31" height="4.59"></rect><rect x="388.18" y="42.89" width="0.31" height="4.61"></rect><rect x="389.61" y="42.7" width="0.31" height="4.64"></rect><rect x="390.94" y="42.32" width="0.31" height="4.66"></rect><rect x="392.15" y="41.72" width="0.31" height="4.68"></rect><rect x="393.11" y="40.89" width="0.31" height="4.71"></rect><rect x="393.86" y="39.56" width="0.31" height="4.73"></rect></g><path d="M386,46.59c3.21,0,4.9-1,5.41-1.87a6.69,6.69,0,0,0,.46-3s.36-2.7.29-2.71l1.39-.31a2.42,2.42,0,0,1,.48,1.41h0V43h0a3.22,3.22,0,0,1-1.9,2.65A10,10,0,0,1,386,46.59Z" style="opacity:0.05"></path></g><path d="M392.12,42.74a10.13,10.13,0,0,1-9.16,0c-2.53-1.47-2.53-3.83,0-5.29a10.06,10.06,0,0,1,9.16,0C394.65,38.91,394.65,41.27,392.12,42.74Z" style="fill:#ebebeb"></path><path d="M382.61,42.51c-2.17-1.47-2.06-3.68.35-5.06a9.23,9.23,0,0,1,4.46-1.1,7.32,7.32,0,0,1,2.36.81,2.72,2.72,0,0,1,0,5A9,9,0,0,1,382.61,42.51Z" style="fill:#f5f5f5"></path><path d="M391.51,55.48a10,10,0,0,1-7.94,0c-2.19-1.1-2.19-2.89,0-4a10,10,0,0,1,7.94,0C393.7,52.59,393.7,54.38,391.51,55.48Z" style="opacity:0.05"></path><path d="M393.65,45.57a3,3,0,0,1-1.79,2.49,8.82,8.82,0,0,1-4.32,1v4.57a8.82,8.82,0,0,0,4.32-1,3,3,0,0,0,1.79-2.49Z" style="fill:#fff"></path><path d="M393.52,41.53a8.64,8.64,0,0,1-6.17,2c-4.08-.11-5.7-2.34-5.92-3a2.54,2.54,0,0,1,.55-2.34,2.69,2.69,0,0,0-.92,1.92V43c0,.24-.12,1.08,1.19,2.16a3.16,3.16,0,0,1-.77-1.72v-2s1.44,2.41,5.87,2.41S393.3,41.89,393.52,41.53Z" style="fill:#fff"></path><path d="M404.84,62.56a10.13,10.13,0,0,1-9.16,0c-2.53-1.46-2.53-3.83,0-5.29a10.13,10.13,0,0,1,9.16,0C407.37,58.73,407.37,61.1,404.84,62.56Z" style="fill:#e0e0e0"></path><path d="M393.8,49.14a3,3,0,0,1,1.79-2.5,9.6,9.6,0,0,1,8.64,0,3,3,0,0,1,1.79,2.5h0V59.52h0a3.06,3.06,0,0,1-1.79,2.5,9.6,9.6,0,0,1-8.64,0,3.06,3.06,0,0,1-1.79-2.5h0Z" style="fill:#f0f0f0"></path><path d="M396.15,46.36V62.3l-.56-.28a4.84,4.84,0,0,1-1-.74V47.38a4.84,4.84,0,0,1,1-.74Z" style="fill:#fff;opacity:0.4"></path><path d="M397.75,62.82c-.3-.07-.59-.15-.88-.24V46.08c.29-.09.58-.17.88-.24Z" style="fill:#fff;opacity:0.4"></path><path d="M393.91,48.49a4.4,4.4,0,0,1,1.42-1.24,10.23,10.23,0,0,1,8.61-.28v-.48l.29.15a3,3,0,0,1,1.79,2.5v2.38h0V56.1h0v3.42a3.06,3.06,0,0,1-1.79,2.5,9.6,9.6,0,0,1-8.64,0,4.46,4.46,0,0,1-1.09-.86c1.14,1.06,4,1.65,6.07,1.23s3.37-1.75,3.37-2.7v-.93a9.1,9.1,0,0,1-4.22.94V55.05a9.07,9.07,0,0,0,4.22-.87V52.82a10.23,10.23,0,0,1-8.61-.28,4.14,4.14,0,0,1-1.53-1.41v-2A2.06,2.06,0,0,1,393.91,48.49Z" style="opacity:0.05"></path><path d="M405,60V47.18a2.63,2.63,0,0,1,1,2V59.52a3.06,3.06,0,0,1-1.79,2.5,7.7,7.7,0,0,1-2.32.83C404.2,62.23,405,60.66,405,60Z" style="opacity:0.05"></path><path d="M393.43,46.35a3.22,3.22,0,0,1,1.9-2.65,10.13,10.13,0,0,1,9.16,0,3.22,3.22,0,0,1,1.9,2.65h0v2.87h0a3.2,3.2,0,0,1-1.9,2.64,10.13,10.13,0,0,1-9.16,0,3.2,3.2,0,0,1-1.9-2.64h0V46.35Z" style="fill:#e0e0e0"></path><g style="clip-path:url(#freepik--clip-path-2--inject-5)"><g style="opacity:0.1"><rect x="393.28" y="46.08" width="0.31" height="4.47"></rect><rect x="393.99" y="47.29" width="0.31" height="4.49"></rect><rect x="395.07" y="48.12" width="0.31" height="4.52"></rect><rect x="396.31" y="48.63" width="0.31" height="4.54"></rect><rect x="397.66" y="48.98" width="0.31" height="4.56"></rect><rect x="399.1" y="49.15" width="0.31" height="4.59"></rect><rect x="400.56" y="49.15" width="0.31" height="4.61"></rect><rect x="401.98" y="48.95" width="0.31" height="4.64"></rect><rect x="403.31" y="48.57" width="0.31" height="4.66"></rect><rect x="404.52" y="47.98" width="0.31" height="4.68"></rect><rect x="405.48" y="47.15" width="0.31" height="4.71"></rect><rect x="406.23" y="45.82" width="0.31" height="4.73"></rect></g><path d="M398.36,52.85c3.21,0,4.9-1,5.41-1.88a6.66,6.66,0,0,0,.46-3s.36-2.69.29-2.7l1.39-.31a2.42,2.42,0,0,1,.48,1.41h0v2.87h0a3.2,3.2,0,0,1-1.9,2.64A10,10,0,0,1,398.36,52.85Z" style="opacity:0.05"></path></g><path d="M404.49,49a10.13,10.13,0,0,1-9.16,0c-2.53-1.46-2.53-3.83,0-5.29a10.13,10.13,0,0,1,9.16,0C407,45.16,407,47.53,404.49,49Z" style="fill:#ebebeb"></path><path d="M395,48.77c-2.17-1.47-2.06-3.68.35-5.07a9.34,9.34,0,0,1,4.46-1.09,7.09,7.09,0,0,1,2.36.81,2.72,2.72,0,0,1,0,5A8.92,8.92,0,0,1,395,48.77Z" style="fill:#f5f5f5"></path><path d="M403.88,61.74a10,10,0,0,1-7.94,0c-2.19-1.1-2.19-2.89,0-4a10,10,0,0,1,7.94,0C406.07,58.85,406.07,60.64,403.88,61.74Z" style="opacity:0.05"></path><path d="M406,51.83a3,3,0,0,1-1.79,2.49,8.82,8.82,0,0,1-4.32,1v4.58a8.82,8.82,0,0,0,4.32-1A3,3,0,0,0,406,56.4Z" style="fill:#fff"></path><path d="M405.89,47.78a8.64,8.64,0,0,1-6.17,2c-4.08-.11-5.7-2.33-5.92-3a2.56,2.56,0,0,1,.55-2.35,2.73,2.73,0,0,0-.92,1.93v2.87c0,.24-.12,1.08,1.19,2.16a3.21,3.21,0,0,1-.77-1.72v-2s1.44,2.41,5.87,2.41S405.67,48.14,405.89,47.78Z" style="fill:#fff"></path><path id="freepik--shadow--inject-5" d="M422.11,63.7c3.59,2.07,3.59,5.43,0,7.5a14.32,14.32,0,0,1-13,0c-3.59-2.07-3.59-5.43,0-7.5A14.32,14.32,0,0,1,422.11,63.7Z" style="fill:#e0e0e0"></path><g id="freepik--jar--inject-5"><path d="M409.66,46.91a8.57,8.57,0,0,1,1.14-.55A2,2,0,0,0,412,44.57V42.38h7.14v2.19a2,2,0,0,0,1.24,1.79,8.57,8.57,0,0,1,1.14.55c1.64,1,2.47,2.19,2.47,3.43V66.83c0,1.25-.83,2.49-2.47,3.44a13.13,13.13,0,0,1-11.9,0c-1.64-1-2.47-2.19-2.47-3.44V50.34C407.19,49.1,408,47.86,409.66,46.91Z" style="fill:#ebebeb"></path><path d="M421.05,70c3-1.72,3-4.51,0-6.23a12.2,12.2,0,0,0-10.89,0c-3,1.72-3,4.51,0,6.23A12.2,12.2,0,0,0,421.05,70Z" style="opacity:0.05"></path><path d="M411.36,44.68a9.28,9.28,0,0,1,5.72-.91V42.38h2.1v2.19a2,2,0,0,0,1.24,1.79,8.57,8.57,0,0,1,1.14.55l0,0c1.62,1,2.42,2.18,2.42,3.41V66.83c0,1.25-.82,2.49-2.46,3.44a13.18,13.18,0,0,1-8.74,1.14c6.84.47,8.49-2.43,8.49-4.53v-16a2.44,2.44,0,0,0-.62-1.87,4.66,4.66,0,0,1-.84.61,9.41,9.41,0,0,1-8.49,0C409,48.23,409,46,411.36,44.68Z" style="opacity:0.05"></path><path d="M409.66,46.91a8.57,8.57,0,0,1,1.14-.55A2,2,0,0,0,412,44.57V42.38h.78v2.93A2.17,2.17,0,0,1,411.57,47c-.68.37-2.81,1.29-3.33,2.31s-.33,2.89-.33,5.16V66.1A5.28,5.28,0,0,0,411.27,71a9.08,9.08,0,0,1-1.61-.73c-1.65-.94-2.47-2.14-2.47-3.45V50.34C407.19,49.1,408,47.86,409.66,46.91Z" style="fill:#fff;opacity:0.4"></path><path d="M409.6,45.45v.62a3,3,0,0,0,1.76,2.46,9.36,9.36,0,0,0,8.5,0,4.06,4.06,0,0,0,1.31-1.15,2.17,2.17,0,0,0,.44-1.3v-.64a1.44,1.44,0,0,0-.05-.41,3.18,3.18,0,0,0-1.7-2.05l-.09,0a9.46,9.46,0,0,0-8.41,0A3.25,3.25,0,0,0,409.64,45,2,2,0,0,0,409.6,45.45Z" style="fill:#e0e0e0"></path><path d="M415.11,48.9V46.69c0-.87-.22.31,1.32.31,1.33,0,2.51-3.07,3.34-4.07l.09,0a3.18,3.18,0,0,1,1.7,2.05,1.44,1.44,0,0,1,.05.41v.64a2.17,2.17,0,0,1-.44,1.3,4.06,4.06,0,0,1-1.31,1.15,9.36,9.36,0,0,1-8.5,0C413,49.19,415.11,49.74,415.11,48.9Z" style="opacity:0.05"></path><path d="M419.85,47.89c2.35-1.36,2.35-3.55,0-4.91a9.41,9.41,0,0,0-8.49,0c-2.35,1.36-2.35,3.55,0,4.91A9.41,9.41,0,0,0,419.85,47.89Z" style="fill:#f5f5f5"></path><path d="M409.6,43.37v1.24a2,2,0,0,0,0,.42,3.27,3.27,0,0,0,1.72,2,8.44,8.44,0,0,0,3.75,1,8.94,8.94,0,0,0,4.75-1,4,4,0,0,0,1.31-1.14,2.1,2.1,0,0,0,.39-.9,1.37,1.37,0,0,0,.05-.4V43.35a3,3,0,0,0-1.75-2.45,3.41,3.41,0,0,0-.33-.17,9.43,9.43,0,0,0-8.17.17A3,3,0,0,0,409.6,43.37Z" style="fill:#e0e0e0"></path><path d="M419.85,45.78c2.35-1.36,2.35-3.55,0-4.91a9.41,9.41,0,0,0-8.49,0c-2.35,1.36-2.35,3.55,0,4.91A9.41,9.41,0,0,0,419.85,45.78Z" style="fill:#ebebeb"></path><path d="M421.17,45.93a4,4,0,0,1-1.31,1.14,8.94,8.94,0,0,1-4.75,1h0c0-.43-.26-.77,1.32-1.07,1.3-.25,3.23-.8,4.13-2.22a3,3,0,0,0-1-4.05,3.41,3.41,0,0,1,.33.17,3,3,0,0,1,1.75,2.45v1.28a1.37,1.37,0,0,1-.05.4A2.1,2.1,0,0,1,421.17,45.93Z" style="opacity:0.05"></path></g></g></g><g id="freepik--Board--inject-5"><g id="freepik--board--inject-5"><g id="freepik--board--inject-5"><path d="M151.63,14.82l.93.54V142.8c0,3-1.83,6.51-4.09,7.81L22.9,223.1a2.67,2.67,0,0,1-2.55.28c-.2-.1-.9-.52-1.06-.61-.86-.5-1.41-1.66-1.41-3.3V92Z" style="fill:#e0e0e0"></path><path d="M22.9,223.1l125.57-72.49c2.26-1.3,4.09-4.8,4.09-7.81V15.36L18.81,92.58V220C18.81,223,20.64,224.41,22.9,223.1Z" style="fill:#fafafa"></path><path d="M151.56,17.09V142.8c0,2.64-1.64,5.82-3.59,6.94L22.4,222.24a2.33,2.33,0,0,1-1.12.35c-1.08,0-1.47-1.39-1.47-2.58V93.16L151.56,17.09m1-1.73L18.81,92.58V220c0,2.24,1,3.58,2.47,3.58a3.27,3.27,0,0,0,1.62-.49l125.57-72.49c2.26-1.3,4.09-4.8,4.09-7.81V15.36Z" style="fill:#e0e0e0"></path></g><g id="freepik--Tube--inject-5"><path d="M18.15,96.53,15,91.11l136.88-79h0a1.52,1.52,0,0,1,1.6.12A4.93,4.93,0,0,1,155.74,16a1.6,1.6,0,0,1-.61,1.4h0l0,0h0Z" style="fill:#f0f0f0"></path><path d="M18.81,95.09a4.88,4.88,0,0,0-2.21-3.83c-1.22-.71-2.21-.14-2.21,1.28a4.9,4.9,0,0,0,2.21,3.83C17.82,97.07,18.81,96.5,18.81,95.09Z" style="fill:#e0e0e0"></path></g><path d="M122.12,61.22c-1.72.39-2.55-2.18-4.19-3.28s-7.24,4.42-9.42,7.6-2.18,7.38-5,15S96.75,96,89.19,100.8s-13.63,7-18.92,9.36-8.65,6.43-14.57,8.29-11.06-5.6-11.84-9.47c-.77,3.09-.15,9.56,2.42,14s7.4,6,15.42,1.65a53.88,53.88,0,0,0-1.09,11.54c.16,5.91.39,8-2,13.36s-4.59,9.25-4.59,9.25v22.42l6.7-3.87c-.16-2.66-.16-5.06-3.28-4.46,0-4.68.24-11.41,3.74-16.67s10.21-9.73,12.23-22.53a7.25,7.25,0,0,1,4.28-1.77c2.08-.19,7.48,3.13,15.81-3.72,0,0,.32,7.86.55,15.4A62.7,62.7,0,0,0,96,157l5.92-3.42c-.16-2.31-.24-6-3-4.89a60.59,60.59,0,0,1-.16-9.26,35.3,35.3,0,0,1,4-15.53,63.3,63.3,0,0,0,6.23-17.38c.94-5.22,1.48-14.17,3.82-19.83s3.35-8.77,7.09-11.53S126,69.83,127,65.66c.88-3.8,1.13-6.7.35-6.85S123.83,60.83,122.12,61.22Z" style="fill:#ebebeb"></path><path d="M104.84,121.68c-.85,2.09-4.44,8.68-4.78,14,0,0,1.56,7.76,2.89,10.35a33.29,33.29,0,0,0,3.26,5l5.44-3.14c0-1.73-.05-3.71-1.75-4.4s-3.4-1.17-4-3.2S103.89,133.36,104.84,121.68Z" style="fill:#e0e0e0"></path><path d="M79.35,133.48c-.61,3.49-4.3,12.68-10.4,17.65-.23,5.31.38,11.51,2.56,12.8,0,0,4.11-1.17,4.16,4.75l-6,3.47a36.12,36.12,0,0,1-4-8.48,93.47,93.47,0,0,1-2.22-9.27,40.7,40.7,0,0,0,6-7.69A34.85,34.85,0,0,0,74,134.45C76.38,133.09,78.36,133,79.35,133.48Z" style="fill:#e0e0e0"></path><path d="M73.69,124.65a35.55,35.55,0,0,1-.23,9,5.29,5.29,0,0,1,1.09-.79A17.65,17.65,0,0,0,73.69,124.65Z" style="fill:#e0e0e0"></path><polygon points="93.56 128.13 93.33 122.15 92.57 128.91 93.56 128.13" style="fill:#e0e0e0"></polygon><path d="M112.91,66c-.14,1.44-.22,2.88-.22,4.32s0,2.88.06,4.31a14.36,14.36,0,0,1-.07,4.43,15.31,15.31,0,0,1-1.79,4.09,14.42,14.42,0,0,1-1.32,1.81,5.88,5.88,0,0,1-1.82,1.5,1.51,1.51,0,0,1-1.47,0,2,2,0,0,1-.73-1.16,11.91,11.91,0,0,1-.23-2.24,36.87,36.87,0,0,1,.9-8.66c-.11,1.44-.21,2.88-.22,4.32a36.05,36.05,0,0,0,.09,4.29,15.53,15.53,0,0,0,.3,2c.1.28.23.58.38.64a.67.67,0,0,0,.59,0,5.41,5.41,0,0,0,1.47-1.27,13.67,13.67,0,0,0,1.2-1.7,14.2,14.2,0,0,0,1.73-3.79,8.15,8.15,0,0,0,.26-2c0-.68,0-1.42,0-2.15A38.65,38.65,0,0,1,112.91,66Z" style="fill:#e0e0e0"></path><path d="M61.7,124.58c1.32-3.7,1.72-4.79,3.36-6.85-2.6,2.06-4.31,7.35-4.31,7.35Z" style="fill:#e0e0e0"></path><path d="M123.2,117.18a.5.5,0,0,1-.43-.25.51.51,0,0,1,.18-.69l16.29-9.4a.5.5,0,0,1,.5.87l-16.29,9.4A.55.55,0,0,1,123.2,117.18Z" style="fill:#e0e0e0"></path><path d="M123.2,121.78a.5.5,0,0,1-.43-.25.51.51,0,0,1,.18-.69l16.29-9.4a.5.5,0,0,1,.68.18.51.51,0,0,1-.18.69l-16.29,9.4A.55.55,0,0,1,123.2,121.78Z" style="fill:#e0e0e0"></path><path d="M123.2,126.37a.5.5,0,0,1-.25-.93l16.29-9.4a.5.5,0,0,1,.68.18.51.51,0,0,1-.18.69l-16.29,9.4A.54.54,0,0,1,123.2,126.37Z" style="fill:#e0e0e0"></path><path d="M123.2,131a.49.49,0,0,1-.32-.12L108.37,118.3a.5.5,0,1,1,.65-.75l14.24,12.31,16-9.22a.5.5,0,0,1,.68.18.51.51,0,0,1-.18.69l-16.29,9.4A.51.51,0,0,1,123.2,131Z" style="fill:#e0e0e0"></path><path d="M66.37,84.6a.5.5,0,0,1-.43-.25.51.51,0,0,1,.18-.69l16.28-9.4a.5.5,0,0,1,.68.19.49.49,0,0,1-.18.68l-16.28,9.4A.47.47,0,0,1,66.37,84.6Z" style="fill:#e0e0e0"></path><path d="M66.37,89.2a.5.5,0,0,1-.43-.25.51.51,0,0,1,.18-.69l16.28-9.4a.5.5,0,0,1,.5.87l-16.28,9.4A.47.47,0,0,1,66.37,89.2Z" style="fill:#e0e0e0"></path><path d="M66.37,93.8a.5.5,0,0,1-.43-.25.51.51,0,0,1,.18-.69l16.28-9.4a.5.5,0,0,1,.68.18.51.51,0,0,1-.18.69l-16.28,9.4A.59.59,0,0,1,66.37,93.8Z" style="fill:#e0e0e0"></path><path d="M66.37,98.39a.5.5,0,0,1-.25-.93l16.28-9.4a.55.55,0,0,1,.25-.07h0l14.69,0a.5.5,0,0,1,0,1h0L82.78,89,66.62,98.33A.57.57,0,0,1,66.37,98.39Z" style="fill:#e0e0e0"></path><path d="M25.71,145.32a.5.5,0,0,1-.25-.93L41.75,135a.5.5,0,0,1,.5.86L26,145.25A.43.43,0,0,1,25.71,145.32Z" style="fill:#e0e0e0"></path><path d="M25.71,149.92a.5.5,0,0,1-.25-.93l16.29-9.4a.5.5,0,0,1,.5.86L26,149.85A.43.43,0,0,1,25.71,149.92Z" style="fill:#e0e0e0"></path><path d="M25.71,154.52a.5.5,0,0,1-.25-.93l16.29-9.41a.51.51,0,0,1,.68.19.49.49,0,0,1-.18.68L26,154.45A.43.43,0,0,1,25.71,154.52Z" style="fill:#e0e0e0"></path><path d="M25.71,159.12a.5.5,0,0,1-.43-.25.51.51,0,0,1,.18-.69l16.29-9.4a.47.47,0,0,1,.5,0l11.41,6.85a.51.51,0,0,1,.17.69.5.5,0,0,1-.69.17L42,149.8l-16,9.25A.52.52,0,0,1,25.71,159.12Z" style="fill:#e0e0e0"></path></g></g><g id="freepik--Diplomas--inject-5"><g id="freepik--diplomas--inject-5"><g id="freepik--Diploma--inject-5"><g id="freepik--Window--inject-5"><polygon points="485.08 133.22 483.59 134.08 446.34 112.57 447.82 111.71 485.08 133.22" style="fill:#f0f0f0"></polygon><polygon points="447.82 111.71 483.59 132.36 483.59 101.36 447.83 80.71 447.82 111.71" style="fill:#fafafa"></polygon><path d="M444.84,113.43l40.24,23.23V100.5L444.85,77.27Zm1.5-33.58,37.25,21.51v32.72l-37.25-21.51Z" style="fill:#ebebeb"></path><polygon points="446.34 112.57 447.82 111.71 447.83 80.71 446.34 79.85 446.34 112.57" style="fill:#e0e0e0"></polygon><polygon points="444.85 77.27 446.33 76.41 486.57 99.64 485.08 100.5 444.85 77.27" style="fill:#f5f5f5"></polygon><polygon points="486.57 99.64 485.08 100.5 485.08 136.66 486.57 135.8 486.57 99.64" style="fill:#e0e0e0"></polygon></g><path d="M476.57,118.53a5.56,5.56,0,0,1,2.52,4.36c0,1.6-1.13,2.25-2.52,1.45a5.55,5.55,0,0,1-2.51-4.36C474.06,118.38,475.18,117.73,476.57,118.53Z" style="fill:#e0e0e0"></path><path d="M456.25,88.51l18.94,10.93a2.11,2.11,0,0,1,.95,1.65v0c0,.61-.43.86-.95.55L456.25,90.78a2.09,2.09,0,0,1-1-1.65v-.07C455.29,88.46,455.72,88.21,456.25,88.51Z" style="fill:#e0e0e0"></path><path d="M453.25,93.67l24.93,14.39a1.92,1.92,0,0,1,.95,1.41c0,.48-.43.62-.95.31l-24.95-14.4a1.86,1.86,0,0,1-.94-1.41C452.29,93.5,452.72,93.36,453.25,93.67Z" style="fill:#f0f0f0"></path><path d="M453.25,97.11l24.93,14.39a1.91,1.91,0,0,1,.95,1.41c0,.47-.43.61-.95.31l-24.95-14.4a1.87,1.87,0,0,1-.94-1.41C452.29,96.94,452.72,96.8,453.25,97.11Z" style="fill:#f0f0f0"></path><path d="M453.25,100.54l24.93,14.4a1.91,1.91,0,0,1,.95,1.41c0,.47-.43.61-.95.31l-24.95-14.41a1.84,1.84,0,0,1-.94-1.4C452.29,100.38,452.72,100.24,453.25,100.54Z" style="fill:#f0f0f0"></path><path d="M472.1,120.72a2.72,2.72,0,0,1-.62-.55,1.74,1.74,0,0,1-.47-1.46c0-.16-.23-.69-.35-.61a10.24,10.24,0,0,1-1.08.45c-.22.1-.62.41-1.13-.29a1.5,1.5,0,0,1-.29-.89,1.22,1.22,0,0,0,.34-1.17c0-.18-.3-.69-.38-.57a2,2,0,0,0-.32,1.05,1.7,1.7,0,0,1-.81.27,2.65,2.65,0,0,1-.52.11.23.23,0,0,1-.2,0,.56.56,0,0,1-.19-.4.79.79,0,0,1,.09-.42h0s0,0,0,0h0c0-.17-.21-.67-.3-.56a1.57,1.57,0,0,1-1.46.75l-.1,0c0-.1,0-.23,0-.34a3.69,3.69,0,0,0-.12-.81c0-.15-.23-.54-.33-.51-.53.15-.95.57-1.66.37a1.61,1.61,0,0,1-.35-.16c-.11-.19.07-.59.09-.66a4.16,4.16,0,0,1,.25-.52,1.08,1.08,0,0,0,.2-.43c0-.16-.32-.89-.39-.68s-.12.24-.23.45a3.42,3.42,0,0,1-1.4.76,2.17,2.17,0,0,1-1.94-.37,2.51,2.51,0,0,1-.88-.9,2.16,2.16,0,0,1-.23-1,3.64,3.64,0,0,1,.23-1.46,7.31,7.31,0,0,0,2.16,1,2.25,2.25,0,0,0,1.64.08c.22-.14.35-.65-.19-1.5a3.21,3.21,0,0,0-1.16-1.06,3.11,3.11,0,0,0-1.19-.45,1.46,1.46,0,0,0-1.48,1c-.05.1-.11.24-.17.4a12.05,12.05,0,0,1-2.75-2.71c-.05-.07-.07,0,0,.09a12.94,12.94,0,0,0,2.69,2.85,3.72,3.72,0,0,0,.59,3.38,2.7,2.7,0,0,0,2.67,1.43,2.31,2.31,0,0,0,1-.48.13.13,0,0,1,.09,0,1.73,1.73,0,0,0,.57,1.41,1,1,0,0,0,1.18.23,5.27,5.27,0,0,0,.7-.25,2.26,2.26,0,0,0,.54,1.46c.4.38.76.07,1,0a1.74,1.74,0,0,0,.47-.24,1.52,1.52,0,0,0,.09.25c.35.77.76.85,1,.81a4.4,4.4,0,0,0,1-.2,3.46,3.46,0,0,0,.42.94c.53.87,1,1,1.34,1a2.29,2.29,0,0,0,1-.46,2.79,2.79,0,0,0,.36.93,3.62,3.62,0,0,0,1.26,1.37C472.43,121.38,472.27,120.84,472.1,120.72Zm-11.67-11.38c.25.16.77.54.79,1,0,.26-.2.3-.33.34a3,3,0,0,1-1.45-.13,7.54,7.54,0,0,1-1.82-.72C458.08,108.8,459,108.38,460.43,109.34Z" style="fill:#e0e0e0"></path></g><g id="freepik--diploma--inject-5"><g id="freepik--window--inject-5"><polygon points="485.08 185.13 483.59 186 446.34 164.49 447.82 163.63 485.08 185.13" style="fill:#f0f0f0"></polygon><polygon points="447.82 163.63 483.59 184.28 483.59 153.28 447.83 132.63 447.82 163.63" style="fill:#fafafa"></polygon><path d="M444.84,165.35l40.24,23.23V152.42l-40.23-23.23Zm1.5-33.58,37.25,21.51V186l-37.25-21.51Z" style="fill:#ebebeb"></path><polygon points="446.34 164.49 447.82 163.63 447.83 132.63 446.34 131.77 446.34 164.49" style="fill:#e0e0e0"></polygon><polygon points="444.85 129.19 446.33 128.33 486.57 151.56 485.08 152.42 444.85 129.19" style="fill:#f5f5f5"></polygon><polygon points="486.57 151.56 485.08 152.42 485.08 188.58 486.57 187.72 486.57 151.56" style="fill:#e0e0e0"></polygon></g><path d="M476.57,170.45a5.56,5.56,0,0,1,2.52,4.36c0,1.6-1.13,2.25-2.52,1.45a5.55,5.55,0,0,1-2.51-4.36C474.06,170.3,475.18,169.65,476.57,170.45Z" style="fill:#e0e0e0"></path><path d="M456.25,140.43l18.94,10.93a2.11,2.11,0,0,1,.95,1.65v.05c0,.61-.43.86-.95.55L456.25,142.7a2.12,2.12,0,0,1-1-1.65V141C455.29,140.37,455.72,140.13,456.25,140.43Z" style="fill:#e0e0e0"></path><path d="M453.25,145.59,478.18,160a1.91,1.91,0,0,1,.95,1.41c0,.47-.43.61-.95.31l-24.95-14.4a1.87,1.87,0,0,1-.94-1.41C452.29,145.42,452.72,145.28,453.25,145.59Z" style="fill:#f0f0f0"></path><path d="M453.25,149l24.93,14.4a1.91,1.91,0,0,1,.95,1.41c0,.47-.43.61-.95.31l-24.95-14.41a1.84,1.84,0,0,1-.94-1.4C452.29,148.86,452.72,148.72,453.25,149Z" style="fill:#f0f0f0"></path><path d="M453.25,152.46l24.93,14.39a1.94,1.94,0,0,1,.95,1.42c0,.47-.43.61-.95.31l-24.95-14.41a1.84,1.84,0,0,1-.94-1.4C452.29,152.29,452.72,152.16,453.25,152.46Z" style="fill:#f0f0f0"></path><path d="M472.1,172.64a3,3,0,0,1-.62-.55,1.74,1.74,0,0,1-.47-1.46c0-.16-.23-.69-.35-.61a8.43,8.43,0,0,1-1.08.44c-.22.11-.62.42-1.13-.28a1.5,1.5,0,0,1-.29-.89,1.22,1.22,0,0,0,.34-1.17c0-.18-.3-.69-.38-.57a2,2,0,0,0-.32,1,1.7,1.7,0,0,1-.81.27,2.65,2.65,0,0,1-.52.11.21.21,0,0,1-.2,0,.53.53,0,0,1-.19-.4.78.78,0,0,1,.09-.41h0v0h0c0-.18-.21-.67-.3-.56a1.57,1.57,0,0,1-1.46.75l-.1,0c0-.1,0-.23,0-.34a3.69,3.69,0,0,0-.12-.81c0-.16-.23-.55-.33-.52-.53.16-.95.58-1.66.38a2.29,2.29,0,0,1-.35-.16c-.11-.19.07-.6.09-.66a4.16,4.16,0,0,1,.25-.52,1.08,1.08,0,0,0,.2-.43c0-.16-.32-.89-.39-.69a4.72,4.72,0,0,1-.23.46,3.4,3.4,0,0,1-1.4.75,2.11,2.11,0,0,1-1.94-.37,2.39,2.39,0,0,1-.88-.89,2.19,2.19,0,0,1-.23-1,3.64,3.64,0,0,1,.23-1.46,7.58,7.58,0,0,0,2.16,1c.6.16,1.25.33,1.64.08.22-.14.35-.65-.19-1.5a3.21,3.21,0,0,0-1.16-1.06,3.11,3.11,0,0,0-1.19-.45,1.44,1.44,0,0,0-1.48,1c-.05.1-.11.24-.17.4a12.05,12.05,0,0,1-2.75-2.71c-.05-.07-.07,0,0,.09a13.17,13.17,0,0,0,2.69,2.85,3.7,3.7,0,0,0,.59,3.37c1,1.48,2.15,1.53,2.67,1.43a2.2,2.2,0,0,0,1-.47.13.13,0,0,1,.09,0,1.74,1.74,0,0,0,.57,1.41,1,1,0,0,0,1.18.23,5.27,5.27,0,0,0,.7-.25,2.26,2.26,0,0,0,.54,1.46c.4.38.76.07,1,0a1.47,1.47,0,0,0,.47-.23,1.52,1.52,0,0,0,.09.25c.35.77.76.85,1,.81a4.4,4.4,0,0,0,1-.2,3.46,3.46,0,0,0,.42.94c.53.86,1,1,1.34,1a2.17,2.17,0,0,0,1-.45,2.79,2.79,0,0,0,.36.93,3.62,3.62,0,0,0,1.26,1.37C472.43,173.3,472.27,172.76,472.1,172.64Zm-11.67-11.38c.25.16.77.54.79,1,0,.26-.2.3-.33.34a3.12,3.12,0,0,1-1.45-.13,7.54,7.54,0,0,1-1.82-.72C458.08,160.72,459,160.3,460.43,161.26Z" style="fill:#e0e0e0"></path></g></g></g><g id="freepik--Clock--inject-5"><g id="freepik--clock--inject-5"><path d="M451.55,28.81h0l5.34-3.09h0l.05,0h0c3.36-1.7,7.86-1.2,12.7,1.92,9.72,6.26,17.15,20.7,16.59,32.25-.28,5.76-2.49,9.71-5.85,11.45h0l-5.34,3.1h0l0,0h0c-3.37,1.71-7.87,1.21-12.71-1.91-9.72-6.26-17.15-20.7-16.59-32.26C446,34.51,448.2,30.55,451.55,28.81Z" style="fill:#ebebeb"></path><path d="M475.29,74.28l5.1-3h0l0,0c3.35-1.74,5.56-5.7,5.84-11.45a36,36,0,0,0-3.51-16.19l-5.35,3.1a35.86,35.86,0,0,1,3.51,16.19C480.65,68.58,478.53,72.48,475.29,74.28Z" style="fill:#e0e0e0"></path><path d="M462.3,72.52c-9.72-6.26-17.15-20.7-16.59-32.26s8.9-15.84,18.62-9.57,17.15,20.7,16.59,32.25S472,78.78,462.3,72.52Z" style="fill:#f0f0f0"></path><path d="M470.45,71.72c5.73.27,6.66-6.17,6.8-9,.49-10.19-6.33-23.46-14.91-29a12.94,12.94,0,0,0-6.16-2.29c-5.73-.28-6.66,6.17-6.8,9-.49,10.19,6.33,23.47,14.91,29a13,13,0,0,0,6.16,2.29Z" style="fill:#fff"></path><path d="M462.19,53.51a.64.64,0,0,0,.2,0,.61.61,0,0,0,.42-.59V38.15a.62.62,0,0,0-.62-.63.63.63,0,0,0-.62.63V51.07l-6.88-8.83a.63.63,0,0,0-.88-.11.62.62,0,0,0-.1.88l8,10.26A.6.6,0,0,0,462.19,53.51Z" style="fill:#e0e0e0"></path><path d="M465.71,64.4h.09a.25.25,0,0,0,.17-.33L462.52,52.4a.25.25,0,0,0-.33-.17.26.26,0,0,0-.18.32l3.46,11.66A.27.27,0,0,0,465.71,64.4Z" style="fill:#ebebeb"></path><path d="M462.39,49.94c-1.15-.74-2.13-.23-2.19,1.13a4.69,4.69,0,0,0,1.95,3.79c1.14.74,2.12.23,2.19-1.12A4.73,4.73,0,0,0,462.39,49.94Z" style="fill:#ebebeb"></path></g></g><g id="freepik--Calendar--inject-5"><g id="freepik--calendar--inject-5"><polygon points="160.16 123.38 202.14 99.14 202.14 24.26 160.16 48.5 160.16 123.38" style="opacity:0.15"></polygon><polygon points="161.39 88.48 203.37 64.24 203.37 25.05 161.39 49.29 161.39 88.48" style="fill:#fafafa"></polygon><polygon points="162.94 83.24 201.82 60.79 201.82 30.03 162.94 52.48 162.94 83.24" style="fill:#f5f5f5"></polygon><g id="freepik--calendar--inject-5"><polygon points="162.59 89.25 204.71 64.93 204.71 101.06 162.59 125.38 162.59 89.25" style="fill:#fafafa"></polygon><polygon points="161.39 88.56 161.39 124.69 162.59 125.38 162.59 89.25 161.39 88.56" style="fill:#e0e0e0"></polygon><polygon points="204.71 64.93 203.51 64.24 161.39 88.56 162.59 89.25 204.71 64.93" style="fill:#e0e0e0"></polygon><g style="opacity:0.5"><polygon points="204.71 64.93 203.51 64.24 161.39 88.56 162.59 89.25 204.71 64.93" style="fill:#fff"></polygon></g><polygon points="161.39 88.56 162.59 89.25 162.59 96.2 161.39 95.5 161.39 88.56" style="fill:#e0e0e0"></polygon><g style="opacity:0.5"><polygon points="161.39 88.56 162.59 89.25 162.59 96.2 161.39 95.5 161.39 88.56" style="fill:#455a64"></polygon></g><polygon points="162.59 96.2 204.71 71.88 204.71 64.93 162.59 89.25 162.59 96.2" style="fill:#e0e0e0"></polygon><path d="M165.45,98.44c0,.38.29.53.64.33l3.16-1.83a1.35,1.35,0,0,0,.64-1.06c0-.39-.28-.53-.64-.33l-3.16,1.83A1.37,1.37,0,0,0,165.45,98.44Z" style="fill:#455a64"></path><path d="M170.78,95.37c0,.38.29.52.64.32l3.16-1.82a1.39,1.39,0,0,0,.64-1.07c0-.38-.29-.53-.64-.32l-3.16,1.82A1.39,1.39,0,0,0,170.78,95.37Z" style="fill:#455a64"></path><path d="M176.11,92.29c0,.38.28.53.64.32l3.16-1.82a1.37,1.37,0,0,0,.64-1.06c0-.39-.29-.53-.64-.33l-3.16,1.82A1.38,1.38,0,0,0,176.11,92.29Z" style="fill:#455a64"></path><path d="M181.43,89.21c0,.39.29.53.64.33l3.16-1.82a1.38,1.38,0,0,0,.64-1.07c0-.38-.28-.53-.64-.32l-3.16,1.82A1.37,1.37,0,0,0,181.43,89.21Z" style="fill:#455a64"></path><path d="M186.76,86.14c0,.38.29.53.64.32l3.16-1.82a1.37,1.37,0,0,0,.64-1.06c0-.39-.29-.53-.64-.33l-3.16,1.82A1.39,1.39,0,0,0,186.76,86.14Z" style="fill:#455a64"></path><path d="M192.09,83.06c0,.39.28.53.64.33l3.16-1.83a1.37,1.37,0,0,0,.64-1.06c0-.38-.29-.53-.64-.33L192.73,82A1.35,1.35,0,0,0,192.09,83.06Z" style="fill:#455a64"></path><path d="M197.41,80c0,.38.29.53.65.32l3.15-1.82a1.38,1.38,0,0,0,.65-1.07c0-.38-.29-.53-.65-.32l-3.15,1.82A1.38,1.38,0,0,0,197.41,80Z" style="fill:#455a64"></path><polygon points="165.73 102.09 169.6 99.86 169.6 103.35 165.73 105.64 165.73 102.09" style="fill:#e0e0e0"></polygon><polygon points="165.73 107 169.6 104.77 169.6 108.26 165.73 110.55 165.73 107" style="fill:#e0e0e0"></polygon><polygon points="165.73 111.9 169.6 109.67 169.6 113.16 165.73 115.45 165.73 111.9" style="fill:#e0e0e0"></polygon><polygon points="165.73 116.81 169.6 114.58 169.6 118.07 165.73 120.35 165.73 116.81" style="fill:#e0e0e0"></polygon><polygon points="171.06 99.01 174.93 96.78 174.93 100.28 171.06 102.56 171.06 99.01" style="fill:#e0e0e0"></polygon><polygon points="171.06 103.92 174.93 101.69 174.93 105.18 171.06 107.47 171.06 103.92" style="fill:#e0e0e0"></polygon><polygon points="171.06 108.82 174.93 106.59 174.93 110.09 171.06 112.37 171.06 108.82" style="fill:#e0e0e0"></polygon><polygon points="171.06 113.73 174.93 111.5 174.93 114.99 171.06 117.28 171.06 113.73" style="fill:#e0e0e0"></polygon><polygon points="176.39 95.94 180.26 93.71 180.26 97.2 176.39 99.48 176.39 95.94" style="fill:#e0e0e0"></polygon><polygon points="176.39 100.84 180.26 98.61 180.26 102.1 176.39 104.39 176.39 100.84" style="fill:#e0e0e0"></polygon><polygon points="176.39 105.75 180.26 103.52 180.26 107.01 176.39 109.29 176.39 105.75" style="fill:#e0e0e0"></polygon><polygon points="176.39 110.65 180.26 108.42 180.26 111.91 176.39 114.2 176.39 110.65" style="fill:#e0e0e0"></polygon><polygon points="181.72 92.86 185.6 90.63 185.6 94.12 181.72 96.41 181.72 92.86" style="fill:#e0e0e0"></polygon><polygon points="181.72 97.76 185.6 95.53 185.6 99.03 181.72 101.31 181.72 97.76" style="fill:#e0e0e0"></polygon><polygon points="181.72 102.67 185.6 100.44 185.6 103.93 181.72 106.22 181.72 102.67" style="fill:#e0e0e0"></polygon><polygon points="181.72 107.57 185.6 105.34 185.6 108.83 181.72 111.12 181.72 107.57" style="fill:#e0e0e0"></polygon><polygon points="187.05 89.78 190.93 87.55 190.93 91.04 187.05 93.33 187.05 89.78" style="fill:#e0e0e0"></polygon><polygon points="187.05 94.69 190.93 92.46 190.93 95.95 187.05 98.23 187.05 94.69" style="fill:#e0e0e0"></polygon><polygon points="187.05 99.59 190.93 97.36 190.93 100.85 187.05 103.14 187.05 99.59" style="fill:#e0e0e0"></polygon><polygon points="187.05 104.5 190.93 102.27 190.93 105.76 187.05 108.04 187.05 104.5" style="fill:#e0e0e0"></polygon><polygon points="192.38 86.7 196.26 84.47 196.26 87.97 192.38 90.25 192.38 86.7" style="fill:#e0e0e0"></polygon><polygon points="192.38 91.61 196.26 89.38 196.26 92.87 192.38 95.16 192.38 91.61" style="fill:#e0e0e0"></polygon><polygon points="192.38 96.51 196.26 94.28 196.26 97.77 192.38 100.06 192.38 96.51" style="fill:#e0e0e0"></polygon><polygon points="192.38 101.42 196.26 99.19 196.26 102.68 192.38 104.97 192.38 101.42" style="fill:#e0e0e0"></polygon><polygon points="197.71 83.63 201.59 81.39 201.59 84.89 197.71 87.17 197.71 83.63" style="fill:#e0e0e0"></polygon><polygon points="197.71 88.53 201.59 86.3 201.59 89.79 197.71 92.08 197.71 88.53" style="fill:#e0e0e0"></polygon><polygon points="197.71 93.43 201.59 91.2 201.59 94.7 197.71 96.98 197.71 93.43" style="fill:#e0e0e0"></polygon><polygon points="197.71 98.34 201.59 96.11 201.59 99.6 197.71 101.89 197.71 98.34" style="fill:#e0e0e0"></polygon><path d="M201.49,80.14l.3.65a.07.07,0,0,0,.1,0l.68-.25c.1,0,.15.11.07.25l-.49.92a.28.28,0,0,0,0,.17l.12.83c0,.14-.1.31-.19.3l-.61-.08a.17.17,0,0,0-.12.07l-.6.78c-.1.12-.21.07-.19-.08l.11-1c0-.06,0-.11,0-.13l-.49-.36c-.08,0,0-.25.07-.34l.67-.52a.27.27,0,0,0,.1-.15l.31-1C201.3,80.12,201.44,80,201.49,80.14Z" style="fill:#BA68C8"></path></g><g id="freepik--Pushpin--inject-5"><path d="M183.29,40.29l0,0-.06,0s-.08,0-.12,0l-.36-.2-.5-.3c-.18-.12-.38-.23-.57-.36s0-.22.11-.19l.59.32.51.28.36.21s.09,0,.09.09a.31.31,0,0,1,0,.08Z" style="fill:#455a64"></path><path d="M183.65,40.55c-.27.48-.72.74-1.2.48h0a.53.53,0,0,1-.2-.46,1.62,1.62,0,0,1,.72-1.25.53.53,0,0,1,.49-.06h0l.05,0A.88.88,0,0,1,183.65,40.55Z" style="fill:#37474f"></path><path d="M184.23,41.5l.54-.92a5.12,5.12,0,0,1-1.13-.77,0,0,0,0,0,0,0l0,0h0a.3.3,0,0,0-.35,0,1,1,0,0,0-.47.82.31.31,0,0,0,.14.3h0l.09,0A4.63,4.63,0,0,1,184.23,41.5Z" style="fill:#455a64"></path><path d="M185.23,40.76a.56.56,0,0,0-.56-.56.6.6,0,0,0-.2,0h0l-.09,0a1.26,1.26,0,0,0-.57,1,.68.68,0,0,0,0,.14.56.56,0,0,0,1.12-.1s0,0,0,0A.58.58,0,0,0,185.23,40.76Z" style="fill:#37474f"></path><path d="M184.67,40.47c.31-.18.57,0,.57.33a1.26,1.26,0,0,1-.57,1c-.32.18-.57,0-.57-.33A1.25,1.25,0,0,1,184.67,40.47Z" style="fill:#455a64"></path></g><path d="M189.34,45.49l-9,5.19-1.08-5.75c-.1-.52-.59-.38-.83.24l-.86,2.37s-.27-.7-2.15.39a5.08,5.08,0,0,0-2.3,2.19l-1.23-1.33c-.25-.29-.72.19-.79.8L169.44,64c-.76,7.82,2.94,12.36,7.57,9.69l3.22-1.86a4.86,4.86,0,0,0,1.89-3.29c1-6.08,3.61-10.16,7.38-12.75-3.22,2.94-5.44,6.06-6.21,10.83-.31,1.91.54,3.13,1.71,2.46l4.11-2.38a13.71,13.71,0,0,0,5-6,20.36,20.36,0,0,0,2-8.62C196.19,46.25,193.12,43.3,189.34,45.49Zm-18.08,6.69.21-2.1L172,51.3a.52.52,0,0,1-.07.46l-.4.57C171.41,52.53,171.23,52.45,171.26,52.18Zm2.56,3c-.36.19-.29,1.09-1.23,1.46s-.86-.64-1.07-.55c.06-.91.41-2.15,1.34-2.52S173.88,54.39,173.82,55.18ZM175.3,57c-.19.11-.84-.28-.84-.57s.24-.65.84-1,.85-.27.85,0A4.08,4.08,0,0,1,175.3,57Zm2.61-3.46c-.94.73-1-.19-1.23,0a3.2,3.2,0,0,1,1-2.79c.92-.72,1.21.28,1.27,1C178.63,52.07,178.85,52.84,177.91,53.57Zm.94-5.46-.4-.11c-.09,0-.13-.19-.08-.37l.56-1.86.21,1.87C179.17,47.87,179,48.15,178.85,48.11Z" style="fill:#e0e0e0"></path></g></g><g id="freepik--Plants--inject-5"><g id="freepik--Plant--inject-5"><g id="freepik--Pot--inject-5"><g id="freepik--pot--inject-5"><path d="M441.52,297c8.83-9.11,14-46.16,5.4-53.38H403.13c-8.6,7.21-3.43,44.26,5.39,53.37l.24.25.31.3c.25.24.51.48.8.72l.21.16a8.27,8.27,0,0,0,.66.51c.38.27.76.52,1.14.74,7.26,4.24,19,4.24,26.29,0h0a13.14,13.14,0,0,0,1.15-.74c.22-.16.42-.32.62-.48l.26-.2c.27-.23.53-.46.77-.69l.35-.35Z" style="fill:#ebebeb"></path><path d="M406.93,240.73c-10,5.83-10,15.29,0,21.12s26.2,5.84,36.19,0,10-15.29,0-21.12S416.93,234.89,406.93,240.73Z" style="fill:#f5f5f5"></path><path d="M411.74,243.53c-7.34,4.29-7.34,11.23,0,15.52s19.23,4.28,26.57,0,7.34-11.23,0-15.52S419.08,239.25,411.74,243.53Z" style="fill:#e0e0e0"></path><path d="M438.31,250.9c-7.34-4.29-19.23-4.29-26.57,0a12.24,12.24,0,0,0-4.4,4.07,12.26,12.26,0,0,0,4.4,4.08c7.34,4.28,19.23,4.28,26.57,0a12.26,12.26,0,0,0,4.4-4.08A12.24,12.24,0,0,0,438.31,250.9Z" style="fill:#fafafa"></path></g><g id="freepik--plants--inject-5"><path d="M405.38,175.29,422,188.47l-16.08-7.42a44.35,44.35,0,0,0,2.79,15.23,98.33,98.33,0,0,1,12.52,8.87l-12.33-4.87s-.84,8.13,2.54,20.52c.88,3.24,4.53,9.44,6.83,14.07a54.32,54.32,0,0,0,3.58,6.18l.25.38q4.23-2.42,8.79-4.69c2-4.17,4.56-14.46,5.49-22.89,3.55-32.26-20.84-50.75-40.46-56.95C395.93,156.9,402.67,165.35,405.38,175.29Z" style="fill:#f0f0f0"></path><path d="M419.28,176.64c3.4,3.41,5.38,7.9,6.91,12.39a66,66,0,0,1,2.95,14,60.52,60.52,0,0,1-3.52,28h0a.47.47,0,0,0,.27.6.48.48,0,0,0,.61-.27h0a61.2,61.2,0,0,0,3.11-28.41,66.31,66.31,0,0,0-3.19-14C424.81,184.47,422.73,180,419.28,176.64Z" style="fill:#fff"></path><path d="M477.35,192.2l0,0c-.41.49-7.24,8.61-17.37,24.41l-16.87,2.71,12.44,2.18-6.68,10.58-16.6,3.43,13,2.11s-3.6,12.65-12.88,17.93c-5.12,2.91-7.63,3.35-9.16,1.89-1.08-1-1.33-7.09-2.22-12.5s-1-14.23,4.14-24.85a33.27,33.27,0,0,1,5.31-7.81C442.67,198.63,465.87,192,477.35,192.2Z" style="fill:#f5f5f5"></path><path d="M459.7,197.72c-8.72,3.83-17,9.08-23.47,16.21a46.14,46.14,0,0,0-8,11.93,43.64,43.64,0,0,0-3.67,13.86s0,.05,0,.05.05,0,.05,0A56.13,56.13,0,0,1,429,226.26a51.93,51.93,0,0,1,7.75-11.83c6.27-7.14,14.35-12.55,22.95-16.62a0,0,0,0,0,0-.06A0,0,0,0,0,459.7,197.72Z" style="fill:#fff"></path><path d="M376.84,199.17h0a34,34,0,0,1,4.24.2,67.53,67.53,0,0,1,16.24,3.95c1.94.72,3.89,1.54,5.8,2.45,1,.46,1.91.94,2.84,1.45a46.71,46.71,0,0,1,12.44,9.4,29.46,29.46,0,0,1,4.28,6c.15.28.32.55.46.84h0c.36.74.69,1.47,1,2.19a40.72,40.72,0,0,1,3.66,20C427.62,250.5,426,256,425,256.94a2.13,2.13,0,0,1-.43.31c-1.38.88-3.57.37-7.67-1.93-8.23-4.59-11.45-16.24-11.45-16.24l11.42-1.94-14.67-2.93-6-9.3,11-2-14.91-2.29a217.63,217.63,0,0,0-15.48-21.44l0,0Z" style="fill:#f0f0f0"></path><path d="M381.08,199.37a67.53,67.53,0,0,1,16.24,3.95c1.94.72,3.89,1.54,5.8,2.45,1,.46,1.91.94,2.84,1.45a46.71,46.71,0,0,1,12.44,9.4,29.46,29.46,0,0,1,4.28,6c.15.28.32.55.46.84h0c.36.74.69,1.47,1,2.19a40.72,40.72,0,0,1,3.66,20C427.62,250.5,426,256,425,256.94a2.13,2.13,0,0,1-.43.31,2.63,2.63,0,0,1-.9.34c1-7.51-2.68-26.54-8.27-34.37-5.82-8.14-19.61-20-38.58-24l0,0A35.34,35.34,0,0,1,381.08,199.37Z" style="fill:#e6e6e6"></path><path d="M423.76,257.59a64.7,64.7,0,0,0-1.08-16.6,53.63,53.63,0,0,0-5.51-15.74A46.67,46.67,0,0,0,406,212.8a62.29,62.29,0,0,0-14.31-8.57,0,0,0,0,0-.06,0,0,0,0,0,0,0,.06,82.7,82.7,0,0,1,13.75,9.21,59.73,59.73,0,0,1,6.05,5.63,36.59,36.59,0,0,1,5,6.47,53.12,53.12,0,0,1,5.69,15.46,64,64,0,0,1,1.44,16.5,0,0,0,0,0,0,.05A.07.07,0,0,0,423.76,257.59Z" style="fill:#fff"></path></g></g></g><g id="freepik--plant--inject-5"><g id="freepik--pot--inject-5"><g id="freepik--pot--inject-5"><path d="M48.76,350.69c-9.28-9.58-14.73-48.55-5.68-56.15H89.14c9,7.6,3.6,46.55-5.67,56.14l-.26.26c-.1.11-.21.21-.32.32-.26.25-.54.5-.83.75l-.23.18c-.22.18-.45.36-.7.53a11.17,11.17,0,0,1-1.2.78c-7.63,4.45-20,4.45-27.64,0h0c-.41-.23-.81-.5-1.21-.78l-.65-.5-.28-.22c-.28-.24-.55-.48-.81-.73l-.36-.36C48.91,350.83,48.83,350.76,48.76,350.69Z" style="fill:#BA68C8"></path><g style="opacity:0.7000000000000001"><path d="M48.76,350.69c-9.28-9.58-14.73-48.55-5.68-56.15H89.14c9,7.6,3.6,46.55-5.67,56.14l-.26.26c-.1.11-.21.21-.32.32-.26.25-.54.5-.83.75l-.23.18c-.22.18-.45.36-.7.53a11.17,11.17,0,0,1-1.2.78c-7.63,4.45-20,4.45-27.64,0h0c-.41-.23-.81-.5-1.21-.78l-.65-.5-.28-.22c-.28-.24-.55-.48-.81-.73l-.36-.36C48.91,350.83,48.83,350.76,48.76,350.69Z" style="fill:#fff"></path></g><path d="M85.14,291.48c10.51,6.14,10.51,16.09,0,22.22s-27.55,6.14-38.06,0-10.5-16.08,0-22.21S74.63,285.35,85.14,291.48Z" style="fill:#BA68C8"></path><g style="opacity:0.85"><path d="M85.14,291.48c10.51,6.14,10.51,16.09,0,22.22s-27.55,6.14-38.06,0-10.5-16.08,0-22.21S74.63,285.35,85.14,291.48Z" style="fill:#fff"></path></g><path d="M80.08,294.44c7.72,4.5,7.72,11.81,0,16.31s-20.22,4.51-27.94,0-7.72-11.81,0-16.31S72.37,289.93,80.08,294.44Z" style="fill:#BA68C8"></path><g style="opacity:0.75"><path d="M80.08,294.44c7.72,4.5,7.72,11.81,0,16.31s-20.22,4.51-27.94,0-7.72-11.81,0-16.31S72.37,289.93,80.08,294.44Z" style="fill:#fff"></path></g><path d="M52.14,302.18c7.72-4.51,20.23-4.51,27.94,0a12.85,12.85,0,0,1,4.63,4.29,12.92,12.92,0,0,1-4.63,4.28c-7.71,4.51-20.22,4.51-27.94,0a12.79,12.79,0,0,1-4.62-4.28A12.73,12.73,0,0,1,52.14,302.18Z" style="fill:#fafafa"></path></g></g><path d="M76.89,273.8l-9.1,11.54-1-39.8-1,42.87L60,277.31l5.61,15.79-.37,15a.76.76,0,0,0,.45.63,2.39,2.39,0,0,0,2.18,0,.76.76,0,0,0,.45-.63l-.48-19.26Z" style="fill:#BA68C8"></path><path d="M76.89,273.8l-9.1,11.54-1-39.8-1,42.87L60,277.31l5.61,15.79-.37,15a.76.76,0,0,0,.45.63,2.39,2.39,0,0,0,2.18,0,.76.76,0,0,0,.45-.63l-.48-19.26Z" style="fill:#fff;opacity:0.30000000000000004"></path><g id="freepik--plants--inject-5"><path d="M71.79,280.58a30,30,0,0,0,2.56,1.78c3.35,1.95,8.43,2.46,13.08,2.77,3.06.21,7.2.47,10.14-1.26,1.46-.85,2.68-2.44,2.56-4s-1.74-3-1.31-4.66c3.56-.37,7,1.32,10.47.14a14.73,14.73,0,0,0,6.5-4.88c1.06-1.28,2.09-3.24,1.92-4.75-.2-1.79-2.08-2.63-3.73-3.29a3,3,0,0,1-1.17-.7,1.16,1.16,0,0,1-.16-1.33,2,2,0,0,1,1.64-.75c1.29-.12,2.58-.08,3.88-.27a6.67,6.67,0,0,0,3.64-1.59,8.42,8.42,0,0,0,2.08-4.22,67.7,67.7,0,0,0,1.66-7.72c.08-.62,1.54-6.72,1.74-6.63-5.53-2.72-12.2-3.66-18.64-3.73-3.59,0-9,.47-11.75,3.71a7.76,7.76,0,0,0-1.53,3.13,11.56,11.56,0,0,0-.19,1.54c0,.32-.17,1.57-.69.86a1.06,1.06,0,0,1-.17-.57c-.21-1.77-.42-3.55-.64-5.33a2.61,2.61,0,0,0-.48-1.47c-.73-.82-3.42-.92-6.86.66a13,13,0,0,0-5.42,5.2c-2.07,3.42-2.81,7.31-3.52,11.09-.37-1.26-.75-2.52-1.12-3.78-1.31-4.4-5.45,2.18-6.09,3.66-1.7,3.89-3.11,10.21-2.79,14.18C67.77,273,68.84,277.27,71.79,280.58Z" style="fill:#BA68C8"></path><path d="M71.79,280.58a30,30,0,0,0,2.56,1.78c3.35,1.95,8.43,2.46,13.08,2.77,3.06.21,7.2.47,10.14-1.26,1.46-.85,2.68-2.44,2.56-4s-1.74-3-1.31-4.66c3.56-.37,7,1.32,10.47.14a14.73,14.73,0,0,0,6.5-4.88c1.06-1.28,2.09-3.24,1.92-4.75-.2-1.79-2.08-2.63-3.73-3.29a3,3,0,0,1-1.17-.7,1.16,1.16,0,0,1-.16-1.33,2,2,0,0,1,1.64-.75c1.29-.12,2.58-.08,3.88-.27a6.67,6.67,0,0,0,3.64-1.59,8.42,8.42,0,0,0,2.08-4.22,67.7,67.7,0,0,0,1.66-7.72c.08-.62,1.54-6.72,1.74-6.63-5.53-2.72-12.2-3.66-18.64-3.73-3.59,0-9,.47-11.75,3.71a7.76,7.76,0,0,0-1.53,3.13,11.56,11.56,0,0,0-.19,1.54c0,.32-.17,1.57-.69.86a1.06,1.06,0,0,1-.17-.57c-.21-1.77-.42-3.55-.64-5.33a2.61,2.61,0,0,0-.48-1.47c-.73-.82-3.42-.92-6.86.66a13,13,0,0,0-5.42,5.2c-2.07,3.42-2.81,7.31-3.52,11.09-.37-1.26-.75-2.52-1.12-3.78-1.31-4.4-5.45,2.18-6.09,3.66-1.7,3.89-3.11,10.21-2.79,14.18C67.77,273,68.84,277.27,71.79,280.58Z" style="fill:#fff;opacity:0.30000000000000004"></path><path d="M85.33,264.22a42.89,42.89,0,0,0,1.76-18.62v-.15a.55.55,0,0,1,.44-.57.41.41,0,0,1,.53.36v.14a44.3,44.3,0,0,1-1.36,17.55c11.77-10.91,26.7-20.45,33.43-22.31a.45.45,0,0,1,.59.35.59.59,0,0,1-.44.64c-6.63,1.83-21.38,11.26-33,22,11.09-2,18.64,2.8,18.72,2.85a.45.45,0,0,1,.08.66.55.55,0,0,1-.47.23.44.44,0,0,1-.22-.07c-.08-.05-7.94-5.06-19.39-2.47-5.39,5.17-10,10.58-12.55,15.58a.61.61,0,0,1-.48.33.41.41,0,0,1-.22,0,.45.45,0,0,1-.21-.66C75.17,275,79.84,269.48,85.33,264.22Z" style="fill:#fff"></path></g><g id="freepik--plants--inject-5"><path d="M62.77,281.8c-.22.21-2.16,1.31-2.43,1.45-3.12,1.56-7.52,1.85-11.52,2-2.63.09-6.19.19-8.44-1.36a3.45,3.45,0,0,1-1.6-3.48c.36-1.42,1.91-2.47,1.78-3.93-3-.41-6.12.92-8.91-.17A10.41,10.41,0,0,1,26.83,272a5.58,5.58,0,0,1-.95-4.1c.43-1.51,2.15-2.18,3.64-2.69a3.12,3.12,0,0,0,1.1-.57,1,1,0,0,0,.33-1.12c-.2-.48-.78-.63-1.29-.69-1.08-.14-2.18-.14-3.26-.34A5,5,0,0,1,23.53,261a6.47,6.47,0,0,1-1.16-3.66,56.3,56.3,0,0,1-.29-6.62,42.69,42.69,0,0,0-.52-5.7,39.94,39.94,0,0,1,16.38-2.65c3.06.07,7.59.65,9.46,3.49a5.78,5.78,0,0,1,.84,2.71,11.74,11.74,0,0,1-.05,1.32c0,.27-.09,1.34.46.75a1.17,1.17,0,0,0,.22-.48c.44-1.51.88-3,1.31-4.52a2.57,2.57,0,0,1,.63-1.25c.73-.67,3-.68,5.74.76a9.18,9.18,0,0,1,3.85,4.58c1.26,3,1.34,6.31,1.39,9.55l1.5-3.19c1.75-3.71,4.32,2,4.65,3.29a28.68,28.68,0,0,1,.32,12.16C67.28,275.47,65.76,279.06,62.77,281.8Z" style="fill:#BA68C8"></path><path d="M62.77,281.8c-.22.21-2.16,1.31-2.43,1.45-3.12,1.56-7.52,1.85-11.52,2-2.63.09-6.19.19-8.44-1.36a3.45,3.45,0,0,1-1.6-3.48c.36-1.42,1.91-2.47,1.78-3.93-3-.41-6.12.92-8.91-.17A10.41,10.41,0,0,1,26.83,272a5.58,5.58,0,0,1-.95-4.1c.43-1.51,2.15-2.18,3.64-2.69a3.12,3.12,0,0,0,1.1-.57,1,1,0,0,0,.33-1.12c-.2-.48-.78-.63-1.29-.69-1.08-.14-2.18-.14-3.26-.34A5,5,0,0,1,23.53,261a6.47,6.47,0,0,1-1.16-3.66,56.3,56.3,0,0,1-.29-6.62,42.69,42.69,0,0,0-.52-5.7,39.94,39.94,0,0,1,16.38-2.65c3.06.07,7.59.65,9.46,3.49a5.78,5.78,0,0,1,.84,2.71,11.74,11.74,0,0,1-.05,1.32c0,.27-.09,1.34.46.75a1.17,1.17,0,0,0,.22-.48c.44-1.51.88-3,1.31-4.52a2.57,2.57,0,0,1,.63-1.25c.73-.67,3-.68,5.74.76a9.18,9.18,0,0,1,3.85,4.58c1.26,3,1.34,6.31,1.39,9.55l1.5-3.19c1.75-3.71,4.32,2,4.65,3.29a28.68,28.68,0,0,1,.32,12.16C67.28,275.47,65.76,279.06,62.77,281.8Z" style="fill:#fff;opacity:0.5"></path><path d="M53.62,267.48a36.85,36.85,0,0,1,1.19-15.92l0-.12a.41.41,0,0,0-.29-.5.42.42,0,0,0-.5.3l0,.12a38.2,38.2,0,0,0-1.37,15c-8.44-9.63-19.75-18.18-25.21-20a.44.44,0,0,0-.55.28.44.44,0,0,0,.28.56C32.55,249,43.72,257.43,52,266.94a25.27,25.27,0,0,0-16.33,1.9.41.41,0,0,0-.16.56.44.44,0,0,0,.37.21.41.41,0,0,0,.19-.05A24.29,24.29,0,0,1,52.94,268c3.84,4.55,7,9.29,8.42,13.62a.44.44,0,0,0,.37.3.41.41,0,0,0,.19,0,.45.45,0,0,0,.28-.56C60.71,276.94,57.53,272.11,53.62,267.48Z" style="fill:#fff"></path></g><g id="freepik--plants--inject-5"><path d="M67.81,262A26.61,26.61,0,0,1,65,261.9c-3.47-.46-7.31-2.91-10.72-5.24C52,255.12,49,253,48,250.17a4.24,4.24,0,0,1,.57-4.26c1.07-1.11,2.95-1.15,3.65-2.59-2.26-2.22-5.64-2.92-7.36-5.67a12.84,12.84,0,0,1-1.65-7.06,6.82,6.82,0,0,1,1.46-4.44c1.19-1.16,3-.72,4.52-.28a2.74,2.74,0,0,0,1.23.14,1.07,1.07,0,0,0,.89-.85,1.71,1.71,0,0,0-.69-1.44c-.83-.8-1.75-1.48-2.54-2.33a5.68,5.68,0,0,1-1.6-3.14,7.73,7.73,0,0,1,1-4.15,63.07,63.07,0,0,1,3.39-6.41A52.38,52.38,0,0,0,53.56,202c5.44,1.11,10.63,4.12,15.14,7.62,2.52,2,6,5.3,6,9.12a7.33,7.33,0,0,1-.77,3.07,12.35,12.35,0,0,1-.78,1.2c-.16.25-.8,1.21,0,1a1.25,1.25,0,0,0,.45-.32l3.58-3.44a2.51,2.51,0,0,1,1.2-.78c1-.18,2.91,1.23,4.38,4.25a11.42,11.42,0,0,1,.71,6.68c-.58,3.59-2.35,6.76-4.08,9.84l3-2.07c3.51-2.41,2.51,4.55,2.09,6-1.11,3.71-3.85,9-6.41,11.63C75.06,258.86,71.81,261.31,67.81,262Z" style="fill:#BA68C8"></path><path d="M67.81,262A26.61,26.61,0,0,1,65,261.9c-3.47-.46-7.31-2.91-10.72-5.24C52,255.12,49,253,48,250.17a4.24,4.24,0,0,1,.57-4.26c1.07-1.11,2.95-1.15,3.65-2.59-2.26-2.22-5.64-2.92-7.36-5.67a12.84,12.84,0,0,1-1.65-7.06,6.82,6.82,0,0,1,1.46-4.44c1.19-1.16,3-.72,4.52-.28a2.74,2.74,0,0,0,1.23.14,1.07,1.07,0,0,0,.89-.85,1.71,1.71,0,0,0-.69-1.44c-.83-.8-1.75-1.48-2.54-2.33a5.68,5.68,0,0,1-1.6-3.14,7.73,7.73,0,0,1,1-4.15,63.07,63.07,0,0,1,3.39-6.41A52.38,52.38,0,0,0,53.56,202c5.44,1.11,10.63,4.12,15.14,7.62,2.52,2,6,5.3,6,9.12a7.33,7.33,0,0,1-.77,3.07,12.35,12.35,0,0,1-.78,1.2c-.16.25-.8,1.21,0,1a1.25,1.25,0,0,0,.45-.32l3.58-3.44a2.51,2.51,0,0,1,1.2-.78c1-.18,2.91,1.23,4.38,4.25a11.42,11.42,0,0,1,.71,6.68c-.58,3.59-2.35,6.76-4.08,9.84l3-2.07c3.51-2.41,2.51,4.55,2.09,6-1.11,3.71-3.85,9-6.41,11.63C75.06,258.86,71.81,261.31,67.81,262Z" style="fill:#fff;opacity:0.6000000000000001"></path><path d="M68,242.93a40.84,40.84,0,0,1,9.74-14.23l.09-.09a.51.51,0,0,0,0-.66.39.39,0,0,0-.58,0l-.1.09a42.44,42.44,0,0,0-9.37,13.25C66.07,227,61.3,212,57.72,206.94a.42.42,0,0,0-.62-.07.53.53,0,0,0-.07.69c3.53,5,8.24,19.81,10,33.87a24.12,24.12,0,0,0-14.69-8.29.43.43,0,0,0-.44.43.47.47,0,0,0,.19.42.36.36,0,0,0,.19.08A23.27,23.27,0,0,1,67.17,243c.71,6.65.72,13-.44,18a.55.55,0,0,0,.14.5.4.4,0,0,0,.18.1.43.43,0,0,0,.53-.35C68.76,256.19,68.75,249.7,68,242.93Z" style="fill:#fff"></path></g></g></g><g id="freepik--Character--inject-5"><g id="freepik--character--inject-5"><g id="freepik--Bottom--inject-5"><path d="M314.76,363.17c-.32.28-1,1.29-2.25,2.77a51,51,0,0,1-4.1,4.06,84.33,84.33,0,0,1-9.31,7.57c-3.89,2.8-7.47,4.66-12.17,7.52a4,4,0,0,0-1.28,1.1,2.75,2.75,0,0,0-.46,1.31,5.21,5.21,0,0,0,2.7,4.72,13.83,13.83,0,0,0,5.48,1.58,27,27,0,0,0,13-1.21,37.07,37.07,0,0,0,9.84-6.11,23.37,23.37,0,0,1,8.45-4.92c2.74-.76,6.2-1,8.42-3,1.72-3.56,1.06-5.35.59-8.83-.4-3,.09-7.14-1.59-6.81L329,361.77c0,1.62-3.75,2.84-6.77,3.21-2.49.31-7.29.24-7.42-.94C314.84,364,314.76,363.19,314.76,363.17Z" style="fill:#263238"></path><path d="M373.09,359.44c2.56,0,1.65,9.73,2.31,16.09.71,6.82,2.17,12,2.81,17.61.73,6.39.16,9.07-2.13,14.32-1.79,4.09-10.74,9.69-14.14,3.85s-4.14-12.52-3.75-18.89a115.76,115.76,0,0,0-.17-16c-.31-5-2.17-15.13,1.14-15.76l.16,1.72c1.19,2.38,12.54,4,13.88-.55Z" style="fill:#263238"></path><path d="M372.68,214.5c.25,12.39,2.87,94.39,2.87,94.39a179.24,179.24,0,0,1,1.63,20.2c.34,16.38-.63,41.91-.63,41.91-1.06,6.92-19.14,5.7-20.89,2.51,0,0-4.5-43.78-6.54-60-1.79-14.15-7-55.39-7-55.39l-4.35,42.51a117.14,117.14,0,0,1,0,17.06c-.54,7.5-4.18,45.92-4.18,45.92-.06,2.76-18,5.87-20.5-.54,0,0-1.31-60.5-1.44-67.38-.15-7.85.94-82.09.94-82.09Z" style="fill:#BA68C8"></path><path d="M372.68,214.5c.25,12.39,2.87,94.39,2.87,94.39a179.24,179.24,0,0,1,1.63,20.2c.34,16.38-.63,41.91-.63,41.91-1.06,6.92-19.14,5.7-20.89,2.51,0,0-4.5-43.78-6.54-60-1.79-14.15-7-55.39-7-55.39l-4.35,42.51a117.14,117.14,0,0,1,0,17.06c-.54,7.5-4.18,45.92-4.18,45.92-.06,2.76-18,5.87-20.5-.54,0,0-1.31-60.5-1.44-67.38-.15-7.85.94-82.09.94-82.09Z" style="opacity:0.30000000000000004"></path><path d="M340,235.75a41.55,41.55,0,0,1-13.93-9s2.22,6.5,11.34,11.84l.65,58.92,4-39.42Z" style="opacity:0.05"></path></g><g id="freepik--Top--inject-5"><path d="M274.72,150.68c-1.81-2-4.75-5-5.13-5.49-2.91-4.16-3.44-7.2-6.42-11.49a39.52,39.52,0,0,1-4.24-7.52c-.83-1.78-2.25-.13-2.69.8a8.87,8.87,0,0,0-.77,5c.18,1.21.39,2.44.5,3.64s-.3,1.22-1.35.84a31,31,0,0,1-6.36-3.19c-2-1.36-4-2.84-6-4.22a59.29,59.29,0,0,1-4.86-4.33c-1.28-1.07-3.36-2.39-4.46-.37-.66,1.22.32,2.36.87,3.37.64,1.17.37,2.14.32,3.39a6.35,6.35,0,0,0,.79,4c.87,1.19,1.61,1.9,1.69,3.47a14.64,14.64,0,0,0,.21,3.85c.33,1.06,1.26,1.72,1.93,2.57a20.54,20.54,0,0,0,4.23,3.89,42.18,42.18,0,0,0,6,3.61c5,2.73,6.86,3.54,8.54,4.44a41.28,41.28,0,0,1,8.14,6.12C269.53,159.51,273.2,156.11,274.72,150.68Z" style="fill:#455a64"></path><path d="M322.73,122.49c-12,2.89-13.47,9.25-19.57,19.92s-11,20.32-11,20.32l-19.9-15.13A28.37,28.37,0,0,1,260.89,163s16.26,14.1,23.46,18.71c6.73,4.29,13,9.86,20.12.91a223,223,0,0,0,18.26-27.28Z" style="fill:#ebebeb"></path><path d="M292.18,162.73c2.87,2.38,5.53,7.44,5.53,7.44s.22-6.67-3.84-10.71Z" style="fill:#e0e0e0"></path><path d="M352.11,120.92c2.31.55,9.66,2.53,15.63,4.63a16.73,16.73,0,0,1,7.53,5.76c4.33,6.33.42,20.38-2.76,46.85.24,17.1.73,38.35.73,38.35-7.86,5.73-44.53,9.62-61.07-2.46,0,0-.55-64.16.55-72.5,2.09-16,8.34-20.23,21.25-21Z" style="fill:#BA68C8"></path><path d="M352.11,120.92c2.31.55,9.66,2.53,15.63,4.63a16.73,16.73,0,0,1,7.53,5.76c4.33,6.33.42,20.38-2.76,46.85.24,17.1.73,38.35.73,38.35-7.86,5.73-44.53,9.62-61.07-2.46,0,0-.55-64.16.55-72.5,2.09-16,8.34-20.23,21.25-21Z" style="opacity:0.2"></path><path d="M348.14,82A17.25,17.25,0,1,1,331.3,64.31,17.25,17.25,0,0,1,348.14,82Z"></path><path d="M360.41,94.54s-3.1,13.06-4.28,15.19a6,6,0,0,1-3.5,2.69l.42-9.23Z"></path><path d="M357.36,75.64a6.49,6.49,0,0,1,5.31,2c2.24,2.41.78,9.74-2.26,16.89l-5.28.48Z"></path><path d="M353.56,95c1,.66,2.59-1.33,3.93-2.66s5.62-3.09,7.64,1.42-2.13,10.53-5.5,11.5c-5.81,1.67-6.58-2-6.58-2l-1,23.55h0c-4.11,5-11.13,9.16-18.55,10.58-2.4-3.55-2.62-8.76-.16-13.92l.18-6.75s-5.25.67-7.78.21c-4.23-.75-6.83-4.16-8-8.78-1.78-7.06-2.21-15-.44-27.86,2.18-15.86,20.79-15.57,30.63-9S353.56,95,353.56,95Z" style="fill:#ffa8a7"></path><path d="M353.51,96.76c.53,0,2.63-3.28,4-4.44,1.86-1.62-.13-16.68-.13-16.68a7.29,7.29,0,0,0-1.06-8.13c-3.69-4.25-8.53-5.49-14.07-5.36-2,.05-4,.22-6,.26a22.13,22.13,0,0,1-7.07-1.23c-3.1-1-6.1-2.33-9.26-3.08-1-.25-2.26-.37-3,.39a2.77,2.77,0,0,0-.48,2.27,9.49,9.49,0,0,0,2.22,5,13,13,0,0,0-3.29-.16A4.51,4.51,0,0,0,312.42,67a4.21,4.21,0,0,0-.51,4.39,7.48,7.48,0,0,0,3.19,3.3A12.25,12.25,0,0,0,323.77,76c.51,1.64,2.1,2.68,3.66,3.37a19.32,19.32,0,0,0,15.66-.15,22.53,22.53,0,0,0,1.79,2.31,11.74,11.74,0,0,0,2.43,1.85,10.09,10.09,0,0,0,1.32.65,8.31,8.31,0,0,1,1.48.51c.56.42.5,1.54.6,2.21.28,1.9.52,3.8.88,5.68.23,1.2.43,2.94,1.27,3.9A.93.93,0,0,0,353.51,96.76Z"></path><path d="M357.32,76.81l6.46-3.28A3.52,3.52,0,0,0,359,71.82,3.8,3.8,0,0,0,357.32,76.81Z"></path><path d="M333.53,116.65s8.68-1.83,12-3.51c2.24-1.13,4.45-4.93,5-6.22,0,0-.19,4.75-2.23,7.23-2.5,3-14.89,5.21-14.89,5.21Z" style="fill:#f28f8f"></path><path d="M336.72,92.67a1.93,1.93,0,0,0,2,1.87,2,2,0,0,0,1.8-2.08,1.9,1.9,0,1,0-3.79.21Z"></path><path d="M337.94,85.53l4.17,2A2.43,2.43,0,0,0,341,84.38,2.26,2.26,0,0,0,337.94,85.53Z"></path><path d="M318.31,87.29l4.42-1.52a2.26,2.26,0,0,0-2.89-1.5A2.46,2.46,0,0,0,318.31,87.29Z"></path><path d="M320.47,92.13a1.9,1.9,0,1,0,2.07-1.79A1.93,1.93,0,0,0,320.47,92.13Z"></path><polygon points="330.74 91.06 330.05 102.46 324.1 100.4 330.74 91.06" style="fill:#f28f8f"></polygon><path d="M337.18,104.4l-7.47,2a3.8,3.8,0,0,0,4.68,2.84A4,4,0,0,0,337.18,104.4Z" style="fill:#b16668"></path><path d="M337.18,106.29a3.41,3.41,0,0,0-1-.17,3.56,3.56,0,0,0-3.52,3.2l.14,0a3.52,3.52,0,0,0,1.61-.07A3.94,3.94,0,0,0,337.18,106.29Z" style="fill:#f28f8f"></path><path d="M354.37,118s-5.93,21.5-7.61,34.69-1.36,50.44-.46,74.08c.65,17.22,3.22,49,3.22,49s4.25.86,14.51-.84c8.74-1.44,13.16-4,15-5.15,0,0-1.62-48.4-2.84-65.29-1.13-15.58-1.09-24.15-1.09-24.15l3.67-35.57s-.38-19.08-6.95-21.49C364.83,120.78,354.37,118,354.37,118Z" style="fill:#fafafa"></path><path d="M358.89,214.42l2,1.16h0l.19-.3a3.36,3.36,0,0,1,.48-.51,1.56,1.56,0,0,1,.27-.2l16.44-9.47,4.87-2.8,2-1.13,28.38-16.36a.93.93,0,0,1,.86-.13l-1.93-1.13a.68.68,0,0,0-.35-.09,1.11,1.11,0,0,0-.59.18L384.4,199.25l-3.21,1.85-4.79,2.75-.12.07-16.45,9.49a2.34,2.34,0,0,0-.27.2A2.85,2.85,0,0,0,358.89,214.42Z" style="fill:#BA68C8"></path><path d="M358.89,214.42l2,1.16h0l.19-.3a3.36,3.36,0,0,1,.48-.51,1.56,1.56,0,0,1,.27-.2l16.44-9.47,4.87-2.8,2-1.13,28.38-16.36a.93.93,0,0,1,.86-.13l-1.93-1.13a.68.68,0,0,0-.35-.09,1.11,1.11,0,0,0-.59.18L384.4,199.25l-3.21,1.85-4.79,2.75-.12.07-16.45,9.49a2.34,2.34,0,0,0-.27.2A2.85,2.85,0,0,0,358.89,214.42Z" style="fill:#fff;opacity:0.30000000000000004"></path><path d="M361,263.4l-.06,0-2.07-1.2a1,1,0,0,1-.36-.85v-45.6a2.66,2.66,0,0,1,.4-1.32l2,1.17h0a2.65,2.65,0,0,0-.39,1.32v45.77A.78.78,0,0,0,361,263.4Z" style="fill:#BA68C8"></path><path d="M361,263.4l-.06,0-2.07-1.2a1,1,0,0,1-.36-.85v-45.6a2.66,2.66,0,0,1,.4-1.32l2,1.17h0a2.65,2.65,0,0,0-.39,1.32v45.77A.78.78,0,0,0,361,263.4Z" style="opacity:0.05"></path><path d="M414.83,185.58l0,45.54a2.93,2.93,0,0,1-1.33,2.31l-51.83,29.92a.79.79,0,0,1-1.19-.68V216.9a2.75,2.75,0,0,1,.39-1.32,3,3,0,0,1,.95-1l16.44-9.49,4.87-2.78,30.34-17.5a1,1,0,0,1,.88-.13l.05,0h0A1,1,0,0,1,414.83,185.58Z" style="fill:#BA68C8"></path><path d="M404.71,215.84c-.51-3.3-1-6.49-1.47-9.56l-14,5.18A78.86,78.86,0,0,1,390.63,222a6.28,6.28,0,0,1-1.45,4.21c-2.6,3.19-2.46,5.62-4.06,9.07-1.26,2.7-2.74,3.77-2.27,4.33.61.72,2.46,1.59,4.6.06a17.55,17.55,0,0,0,3.27-3.54,38.77,38.77,0,0,1-2,11.62l-4.25,2.46s2.4,2.69,9.76.08c8.31-2.94,11.28-4.17,11.3-18.57A109.89,109.89,0,0,0,404.71,215.84Z" style="fill:#455a64"></path><path d="M371.85,123.35c8.34,2,12.7,4.42,15.32,9.72,4.58,9.26,10.84,20.7,14.92,38.52,3.82,16.68,3.18,30.46,4.36,45.64,0,0-5,10.46-17.85,5.84,0,0-3.05-22.52-6.33-39.61-2.86-14.89-11.47-29.87-11.47-29.87A57.65,57.65,0,0,1,371.85,123.35Z" style="fill:#ebebeb"></path><path d="M357.55,253.29c-.62.39-.89-.78-1-2.49l-.06-3.17s-2.42,2.17-3-5.15c-.65-8.06,3-9.53,3-9.53s0-1.34,0-4,.56-3.3,1.18-3.75l.9-.45v28S358.17,252.91,357.55,253.29Z" style="fill:#BA68C8"></path><g style="opacity:0.8"><path d="M357.55,253.29c-.62.39-.89-.78-1-2.49l-.06-3.17s-2.42,2.17-3-5.15c-.65-8.06,3-9.53,3-9.53s0-1.34,0-4,.56-3.3,1.18-3.75l.9-.45v28S358.17,252.91,357.55,253.29Z" style="fill:#fff"></path></g><path d="M358.43,228l2.08-.95c-.05.89.45,3.91,1.32,3.4.22-.12.54-.32.9-.55,0-3.51.26-6.19,1.09-6.68l1.81-1.1-.11,25.73L363.7,249c-.78.47-.94-2.08-1-4.69l-.45.27c-1.53.94-1.76,2.36-1.76,4.76l-2.33,1.62Z" style="fill:#BA68C8"></path><path d="M358.43,228l2.08-.95c-.05.89.45,3.91,1.32,3.4.22-.12.54-.32.9-.55,0-3.51.26-6.19,1.09-6.68l1.81-1.1-.11,25.73L363.7,249c-.78.47-.94-2.08-1-4.69l-.45.27c-1.53.94-1.76,2.36-1.76,4.76l-2.33,1.62Z" style="fill:#fff;opacity:0.7000000000000001"></path><path d="M359,152c0-.83.08-2.59.22-4.82.7-10.9-.3-26.66-4-27.46l-.33,1.51c2.7.58,3.12,20.56,2.78,25.86-.15,2.27-.26,4.07-.22,5Z" style="fill:#BA68C8"></path><path d="M352.63,114.12a4.7,4.7,0,0,1,3.29,2.09,20.75,20.75,0,0,0,2.91,3s.55,11.43-.45,14c-.87,2.26-6.64,12.92-6.64,12.92s.38,10.36.47,13.44-5.89,16-6.56,22c0,0-.3-24.37.59-31.14,1.54-11.77,3.51-26.51,6.11-31.34Z" style="fill:#ebebeb"></path><path d="M356.73,186.39a8.42,8.42,0,0,1-4.7,1.36l.13-1.07a6.78,6.78,0,0,0,3.63-1,13.18,13.18,0,0,1-2.7-2.9c-1.54-2.38-4-18.64-2.47-22.26,1.23-3,4.82-9.52,7.54-9.52h.08c2.73.11,5.8,7,6.78,10.13,1.17,3.73-2.62,19.73-4.35,22a13.45,13.45,0,0,1-2.94,2.66,6.93,6.93,0,0,0,3.53,1.31l0,1.08h-.13A8.58,8.58,0,0,1,356.73,186.39Zm-5.12-25.46c-1.36,3.32,1,19.06,2.38,21.26a12.66,12.66,0,0,0,2.8,2.9,12.23,12.23,0,0,0,3-2.65c1.61-2.08,5.26-17.56,4.18-21-1.31-4.19-4.19-9.31-5.8-9.38h0C356.54,152.07,353.27,156.89,351.61,160.93Z" style="fill:#455a64"></path><path d="M350.52,187.15a1.58,1.58,0,1,0,1.64-1.51A1.58,1.58,0,0,0,350.52,187.15Z" style="fill:#263238"></path><path d="M359.7,187.54a1.58,1.58,0,1,0,1.65-1.51A1.58,1.58,0,0,0,359.7,187.54Z" style="fill:#263238"></path><path d="M350.35,167.57l.9-.06a.36.36,0,0,0,.33-.38c-.18-3-.08-5.22.28-6.1,1.59-3.88,4.88-8.75,6.32-8.69s4.3,5.19,5.56,9.19c.28.92.2,3.13-.24,6.11a.35.35,0,0,0,.29.4l.9.14a.35.35,0,0,0,.4-.31c.5-3.34.56-5.63.19-6.82-.68-2.15-3.84-10.19-7-10.32s-7,7.61-7.88,9.69c-.48,1.15-.61,3.44-.4,6.81A.36.36,0,0,0,350.35,167.57Z" style="fill:#BA68C8"></path><path d="M333.47,118.82c-10.14,2.35-13.67,4.9-17.28,9.11-4.44,5.17-7.82,9.91-8.84,37.55s-1.23,100.11-1.23,100.11,7.56,2.8,12.37,2.5c0,0-.24-82.77.34-102.31s3.54-29.06,7.77-35.49c1.19-5.4,3.5-8.53,6.82-9.67Z" style="fill:#fafafa"></path><path d="M330.88,120.1c-1.89-.07-8.07,1.76-12.24,9.74s-6.29,21.26-6.85,25-1.45,10.92-1.45,10.92l1.32.23s1.29-9.13,1.66-11.5c1.61-10.44,3.8-19.2,6.8-24.2,3.57-6,6.78-7.53,10.48-8.56Z" style="fill:#BA68C8"></path><circle cx="311" cy="167.22" r="4.85" transform="translate(103.51 452.94) rotate(-82.28)" style="fill:#455a64"></circle><path d="M313.75,167.45a2.75,2.75,0,1,1-2.52-3A2.76,2.76,0,0,1,313.75,167.45Z" style="fill:#37474f"></path><path d="M326.6,130.29c-4.23,6.43-7.19,16-7.77,35.49-.07,2.33-.13,5.59-.18,9.51h0s-3.49-17.7-2.87-21.46,4.69-11.55,4.69-11.55c-.53-6.46,1-13.81,3.45-18.23.62-1.11,1.6-2,3.95-3.63a28.75,28.75,0,0,1,5.64-3.23l-.15,5.76C331.78,124.14,330.33,125.28,326.6,130.29Z" style="fill:#ebebeb"></path></g></g></g><g id="freepik--Table--inject-5"><g id="freepik--table--inject-5"><path d="M266.35,451.42H255.51L257.24,462h0a2,2,0,0,0,1.05,1.31,5.82,5.82,0,0,0,5.24,0A2,2,0,0,0,264.6,462h0Z" style="fill:#455a64"></path><path d="M98.86,354.72H88l1.74,10.58h0a1.94,1.94,0,0,0,1,1.3,5.76,5.76,0,0,0,5.24,0,1.93,1.93,0,0,0,1.06-1.3h0Z" style="fill:#455a64"></path><path d="M335.49,411.5H324.65l1.73,10.58h0a1.94,1.94,0,0,0,1.05,1.3,5.76,5.76,0,0,0,5.24,0,2,2,0,0,0,1.06-1.3h0Z" style="fill:#455a64"></path><polygon points="338.17 296.94 338.17 416.18 260.87 460.81 260.87 341.57 338.17 296.94" style="fill:#ebebeb"></polygon><polygon points="260.87 460.81 81.49 357.25 81.49 238.01 260.87 341.57 260.87 460.81" style="fill:#fafafa"></polygon><polygon points="210.06 431.48 207.93 430.24 207.93 311 210.06 312.23 210.06 431.48" style="fill:#e6e6e6"></polygon><polygon points="137.39 389.52 135.26 388.29 135.26 269.05 137.39 270.28 137.39 389.52" style="fill:#e6e6e6"></polygon><path d="M75.84,238.73a1.6,1.6,0,0,1,1-1.32l80.87-46.69a5.06,5.06,0,0,1,4.58,0L344,295.62a1.63,1.63,0,0,1,1,1.32v3a1.6,1.6,0,0,1-1,1.32L263.15,348a5.06,5.06,0,0,1-4.58,0L76.79,243a1.63,1.63,0,0,1-1-1.32Z" style="fill:#37474f"></path><path d="M345,296.94v3a1.6,1.6,0,0,1-1,1.32L263.15,348a4.71,4.71,0,0,1-2.28.54v-73.6L292,265.62l52,30A1.63,1.63,0,0,1,345,296.94Z" style="fill:#263238"></path><path d="M162.24,190.72,344,295.62c1.27.73,1.27,1.92,0,2.65L263.15,345a5.06,5.06,0,0,1-4.58,0L76.79,240.05a1.39,1.39,0,0,1,0-2.64l80.87-46.69A5.06,5.06,0,0,1,162.24,190.72Z" style="fill:#455a64"></path><path d="M244.62,350c0,.74-2.2.06-4.91-1.51l-6.48-3.72c-2.71-1.57-4.91-3.45-4.91-4.18v-1.34l16.31,9.42Z" style="fill:#455a64"></path><path d="M114.17,274.64c0,.74-2.2.06-4.92-1.5l-6.47-3.73c-2.72-1.57-4.92-3.45-4.92-4.18V263.9l16.31,9.41Z" style="fill:#455a64"></path><path d="M181.61,323.38c0,.73-2.2.06-4.92-1.51l-6.47-3.73c-2.72-1.57-4.92-3.44-4.92-4.18v-1.33L181.61,322Z" style="fill:#455a64"></path><path d="M181.61,351.62c0,.73-2.2.06-4.92-1.51l-6.47-3.72c-2.72-1.57-4.92-3.45-4.92-4.19v-1.33l16.31,9.42Z" style="fill:#455a64"></path><path d="M181.61,392.18c0,.73-2.2.06-4.92-1.51l-6.47-3.73c-2.72-1.56-4.92-3.44-4.92-4.18v-1.33l16.31,9.42Z" style="fill:#455a64"></path><polygon points="136.33 314.73 209.33 356.88 209.33 359.24 136.33 317.09 136.33 314.73" style="fill:#e6e6e6"></polygon><polygon points="136.33 355.29 209.33 397.44 209.33 399.79 136.33 357.64 136.33 355.29" style="fill:#e6e6e6"></polygon></g></g><g id="freepik--Dog--inject-5"><g id="freepik--dog--inject-5"><path id="freepik--shadow--inject-5" d="M168,235.71H166.2c-6.83,0-14.15.91-20.52,3.5-5.47,2.23-16.88,8.92-13,16.39C136,262,145.24,264.87,151.51,267c6.49,2.24,12.6,4.48,19,7a61.39,61.39,0,0,0,15.87,3.81c5.29.61,11.46-.26,16.48,1.56,16.78,6.08,34.9,11.32,52.52,4.27,3.6-1.45,8.6-5.19,10.45-8.71,2.6-5,.71-9.74-2.36-13.82-6.56-8.72-20-13.32-30-16-13.49-3.66-28.25-5.45-42.13-7.2-3.91-.49-7.34-.56-11.22-1.29A65.14,65.14,0,0,0,168,235.71Z" style="opacity:0.15"></path><ellipse cx="240.74" cy="164.45" rx="25.1" ry="43.47" transform="translate(-29.49 273.88) rotate(-56.38)" style="fill:#BA68C8"></ellipse><ellipse cx="240.74" cy="164.45" rx="25.1" ry="43.47" transform="translate(-29.49 273.88) rotate(-56.38)" style="fill:#fff;opacity:0.75"></ellipse><g id="freepik--dog--inject-5"><path d="M226.13,234.32c-.66-.86-3.27-1.7-3.36-2.64-.07-.75,1-1.49,1.3-2.08a4.06,4.06,0,0,0-.41-4c-.86-1.27-2.69-1.75-3.44-3s-.57-2.71-2.09-3.75c-2.6-1.77-5.58.37-8.32.32-1.56,0-2.09-1.4-3.32-2.13a6,6,0,0,0-3.87-.56,4.56,4.56,0,0,0-1.87.7c-.67.58-.23.9-1.18,1a22.08,22.08,0,0,1-2.34-.35,7.45,7.45,0,0,0-4.52,1.35c-2.34,1.58-3.92,4-3.58,6.86-3-.54-4.85,1.62-5.55,4.37-.41,1.64-.88,6.73,1.39,7.54-3.25-.93.77,11.07,3.09,8.81-.28,2.6,2.06,5.25,4.21,6.4.95.51,2.15.43,3,.83s1.3,1.24,2.07,1.65a5,5,0,0,0,2.71.62,9.53,9.53,0,0,0,1.1.73c.82.44,1.66.84,2.48,1.28a32.12,32.12,0,0,0,5.77,2.68,12,12,0,0,0,1.19.26,6.1,6.1,0,0,0,2.21.1c.54-.11.86-.66,1.31-.68.84,0,1.49.29,2.3-.15a1.88,1.88,0,0,0,.9-1.86c1.31-.41,1.51-2.29.88-3.3a6.08,6.08,0,0,0-1-1.21,1.82,1.82,0,0,0,0-.67,7.28,7.28,0,0,0,6.74-9.36c-.51-2,.11-2.26,1.45-3.69C227,238.68,227.66,236.29,226.13,234.32Z" style="fill:#BA68C8"></path><path d="M226.13,234.32c-.66-.86-3.27-1.7-3.36-2.64-.07-.75,1-1.49,1.3-2.08a4.06,4.06,0,0,0-.41-4c-.86-1.27-2.69-1.75-3.44-3s-.57-2.71-2.09-3.75c-2.6-1.77-5.58.37-8.32.32-1.56,0-2.09-1.4-3.32-2.13a6,6,0,0,0-3.87-.56,4.56,4.56,0,0,0-1.87.7c-.67.58-.23.9-1.18,1a22.08,22.08,0,0,1-2.34-.35,7.45,7.45,0,0,0-4.52,1.35c-2.34,1.58-3.92,4-3.58,6.86-3-.54-4.85,1.62-5.55,4.37-.41,1.64-.88,6.73,1.39,7.54-3.25-.93.77,11.07,3.09,8.81-.28,2.6,2.06,5.25,4.21,6.4.95.51,2.15.43,3,.83s1.3,1.24,2.07,1.65a5,5,0,0,0,2.71.62,9.53,9.53,0,0,0,1.1.73c.82.44,1.66.84,2.48,1.28a32.12,32.12,0,0,0,5.77,2.68,12,12,0,0,0,1.19.26,6.1,6.1,0,0,0,2.21.1c.54-.11.86-.66,1.31-.68.84,0,1.49.29,2.3-.15a1.88,1.88,0,0,0,.9-1.86c1.31-.41,1.51-2.29.88-3.3a6.08,6.08,0,0,0-1-1.21,1.82,1.82,0,0,0,0-.67,7.28,7.28,0,0,0,6.74-9.36c-.51-2,.11-2.26,1.45-3.69C227,238.68,227.66,236.29,226.13,234.32Z" style="opacity:0.35000000000000003"></path><path d="M159,220.1a3.51,3.51,0,0,0,.51-.63,11.19,11.19,0,0,0,1.18-4.11c.56-3.35,1.13-6.71,1.7-10.06a13.57,13.57,0,0,0,.26-4.44,4.61,4.61,0,0,0-2.42-3.53,2.82,2.82,0,0,0-3.74,1.34c-.1-1.44-.25-2.88-.47-4.31a3.51,3.51,0,0,0-.81-2.1c-1.07-1-2.89-.37-4,.65.51-3.55,2.66-6.82,2.5-10.4a3.3,3.3,0,0,0-.58-1.92c-.76-.94-2.14-1-3.34-1l3.53-1.9a8.63,8.63,0,0,0,2.37-1.63,3,3,0,0,0,.84-2.63,1.83,1.83,0,0,0-2.18-1.36,8.56,8.56,0,0,1,2-1.18c.67-.4,1.26-1.2,1-1.91a1.66,1.66,0,0,0-.64-.7,7.13,7.13,0,0,0-6.24-.64,17.69,17.69,0,0,0-5.53,3.36c.32-.54-.27-1.25-.9-1.27a2.49,2.49,0,0,0-1.64.8c-3.42,3.08-5.42,7.48-6.42,12a1.36,1.36,0,0,0-2-.08,3.44,3.44,0,0,0-.89,2,17.65,17.65,0,0,0,.06,6.6,13.13,13.13,0,0,0,2.35,5.16c-1.3-1.28-3.73-1-4,1-.42,2.83,1.86,4.59,3.81,6.16-.41.37-1.05.39-1.4,1a3.09,3.09,0,0,0,0,2.84c1,1.81,3.08,3.09,4.78,4.11-4,2.63,5.43,6.59,7.27,7.73a7.08,7.08,0,0,1,2.75,2.73A19.55,19.55,0,0,1,149.8,224c.19.48.36,1.5.86,1.78,1.61.9,4.79-3,5.88-3.9A27.34,27.34,0,0,0,159,220.1Z" style="fill:#BA68C8"></path><path d="M159,220.1a3.51,3.51,0,0,0,.51-.63,11.19,11.19,0,0,0,1.18-4.11c.56-3.35,1.13-6.71,1.7-10.06a13.57,13.57,0,0,0,.26-4.44,4.61,4.61,0,0,0-2.42-3.53,2.82,2.82,0,0,0-3.74,1.34c-.1-1.44-.25-2.88-.47-4.31a3.51,3.51,0,0,0-.81-2.1c-1.07-1-2.89-.37-4,.65.51-3.55,2.66-6.82,2.5-10.4a3.3,3.3,0,0,0-.58-1.92c-.76-.94-2.14-1-3.34-1l3.53-1.9a8.63,8.63,0,0,0,2.37-1.63,3,3,0,0,0,.84-2.63,1.83,1.83,0,0,0-2.18-1.36,8.56,8.56,0,0,1,2-1.18c.67-.4,1.26-1.2,1-1.91a1.66,1.66,0,0,0-.64-.7,7.13,7.13,0,0,0-6.24-.64,17.69,17.69,0,0,0-5.53,3.36c.32-.54-.27-1.25-.9-1.27a2.49,2.49,0,0,0-1.64.8c-3.42,3.08-5.42,7.48-6.42,12a1.36,1.36,0,0,0-2-.08,3.44,3.44,0,0,0-.89,2,17.65,17.65,0,0,0,.06,6.6,13.13,13.13,0,0,0,2.35,5.16c-1.3-1.28-3.73-1-4,1-.42,2.83,1.86,4.59,3.81,6.16-.41.37-1.05.39-1.4,1a3.09,3.09,0,0,0,0,2.84c1,1.81,3.08,3.09,4.78,4.11-4,2.63,5.43,6.59,7.27,7.73a7.08,7.08,0,0,1,2.75,2.73A19.55,19.55,0,0,1,149.8,224c.19.48.36,1.5.86,1.78,1.61.9,4.79-3,5.88-3.9A27.34,27.34,0,0,0,159,220.1Z" style="opacity:0.2"></path><path d="M220.57,232.78l1.05-.23C221.61,232,221.38,231.83,220.57,232.78Z" style="fill:#37474f"></path><path d="M236.81,241.7a6.11,6.11,0,0,0,.53-3.45c-.12-.83-.92-2-.47-2.81.26-.47.87-.57,1.25-.93a3.12,3.12,0,0,0,1-1.93,18.6,18.6,0,0,0-.23-2.58c0-1.12.7-1.63,1.18-2.52a9.51,9.51,0,0,0,1-3.09c.23-1.69-1.05-2.77-.17-4.34a4.07,4.07,0,0,0,.49-1.61c.08-.64.67-1.07.76-1.71a2.9,2.9,0,0,0-.51-2.64c-2.09-1.84-4.68.2-6.38,1.43-2.66,1.91-6.14,2.07-8.84,3.86a8.55,8.55,0,0,1-3.88,1.38c-.31,0-3,.22-3,0a22.87,22.87,0,0,0-.25,5.66,7.6,7.6,0,0,0,2.45,5,1.86,1.86,0,0,1,.74.94l-.89.2a7.84,7.84,0,0,1-.22,1.53A4.84,4.84,0,0,0,222,238a3.47,3.47,0,0,1,.82,1.5,3.42,3.42,0,0,1-.66,1.8,5.31,5.31,0,0,0,.26,5.27,4.36,4.36,0,0,1,.94,1.74,8,8,0,0,1-.31,1.86c-.11,1,.44,1.62.67,2.5a7.1,7.1,0,0,0,.16.88c.18.44.52.82.72,1.26a4.32,4.32,0,0,1,.38,1.94,17.57,17.57,0,0,0,.26,4.29,5.59,5.59,0,0,0,2.14,3.23A11,11,0,0,0,229,265.4c.81.44,1.65.84,2.47,1.28a32.44,32.44,0,0,0,5.77,2.68c.39.11.8.19,1.19.26a6.11,6.11,0,0,0,2.21.1c.55-.12.87-.66,1.32-.68.84,0,1.48.29,2.3-.15a1.91,1.91,0,0,0,.9-1.86c1.3-.41,1.5-2.29.87-3.3a7.8,7.8,0,0,0-2.65-2.49c-1.13-.69-2.91-1.3-3.33-2.66a3.59,3.59,0,0,0-.83-1.81c-.62-.62-1.61-1.39-1.78-2.29-.25-1.25.68-2.42.54-3.69a2.76,2.76,0,0,0-.22-.9c-.19-.38-.57-.62-.72-1-.29-.81.68-1.74.7-2.61a4.61,4.61,0,0,0-.58-1.84,6.82,6.82,0,0,1-.68-1.61A2.26,2.26,0,0,1,236.81,241.7Z" style="fill:#BA68C8"></path><path d="M236.81,241.7a6.11,6.11,0,0,0,.53-3.45c-.12-.83-.92-2-.47-2.81.26-.47.87-.57,1.25-.93a3.12,3.12,0,0,0,1-1.93,18.6,18.6,0,0,0-.23-2.58c0-1.12.7-1.63,1.18-2.52a9.51,9.51,0,0,0,1-3.09c.23-1.69-1.05-2.77-.17-4.34a4.07,4.07,0,0,0,.49-1.61c.08-.64.67-1.07.76-1.71a2.9,2.9,0,0,0-.51-2.64c-2.09-1.84-4.68.2-6.38,1.43-2.66,1.91-6.14,2.07-8.84,3.86a8.55,8.55,0,0,1-3.88,1.38c-.31,0-3,.22-3,0a22.87,22.87,0,0,0-.25,5.66,7.6,7.6,0,0,0,2.45,5,1.86,1.86,0,0,1,.74.94l-.89.2a7.84,7.84,0,0,1-.22,1.53A4.84,4.84,0,0,0,222,238a3.47,3.47,0,0,1,.82,1.5,3.42,3.42,0,0,1-.66,1.8,5.31,5.31,0,0,0,.26,5.27,4.36,4.36,0,0,1,.94,1.74,8,8,0,0,1-.31,1.86c-.11,1,.44,1.62.67,2.5a7.1,7.1,0,0,0,.16.88c.18.44.52.82.72,1.26a4.32,4.32,0,0,1,.38,1.94,17.57,17.57,0,0,0,.26,4.29,5.59,5.59,0,0,0,2.14,3.23A11,11,0,0,0,229,265.4c.81.44,1.65.84,2.47,1.28a32.44,32.44,0,0,0,5.77,2.68c.39.11.8.19,1.19.26a6.11,6.11,0,0,0,2.21.1c.55-.12.87-.66,1.32-.68.84,0,1.48.29,2.3-.15a1.91,1.91,0,0,0,.9-1.86c1.3-.41,1.5-2.29.87-3.3a7.8,7.8,0,0,0-2.65-2.49c-1.13-.69-2.91-1.3-3.33-2.66a3.59,3.59,0,0,0-.83-1.81c-.62-.62-1.61-1.39-1.78-2.29-.25-1.25.68-2.42.54-3.69a2.76,2.76,0,0,0-.22-.9c-.19-.38-.57-.62-.72-1-.29-.81.68-1.74.7-2.61a4.61,4.61,0,0,0-.58-1.84,6.82,6.82,0,0,1-.68-1.61A2.26,2.26,0,0,1,236.81,241.7Z" style="opacity:0.2"></path><path d="M191.05,245a14.54,14.54,0,0,0-2.44-1.08c-2.1-.81-5.05-1.17-7,.18s-2.46,4.32-2.71,6.55c-.11,1,.43,1.62.66,2.5.08.29.06.59.17.88.17.45.52.82.72,1.26a4.31,4.31,0,0,1,.37,1.94,18.08,18.08,0,0,0,.27,4.29,5.5,5.5,0,0,0,2.14,3.23,11.45,11.45,0,0,0,1.64,1.14c.82.45,1.66.84,2.48,1.28a32.12,32.12,0,0,0,5.77,2.68,11.42,11.42,0,0,0,1.19.26,5.88,5.88,0,0,0,2.21.1c.54-.11.86-.66,1.31-.68.84,0,1.49.29,2.3-.15a1.88,1.88,0,0,0,.9-1.86c1.31-.41,1.51-2.29.88-3.3a8.09,8.09,0,0,0-2.65-2.49c-1.13-.69-2.91-1.3-3.34-2.66a3.59,3.59,0,0,0-.83-1.81c-.61-.62-1.6-1.39-1.78-2.29-.24-1.25.68-2.42.55-3.69-.1-.95-.81-1.45-1.06-2.33-.19-.67,0-1.38-.2-2.05A3.4,3.4,0,0,0,191.05,245Z" style="fill:#BA68C8"></path><path d="M191.05,245a14.54,14.54,0,0,0-2.44-1.08c-2.1-.81-5.05-1.17-7,.18s-2.46,4.32-2.71,6.55c-.11,1,.43,1.62.66,2.5.08.29.06.59.17.88.17.45.52.82.72,1.26a4.31,4.31,0,0,1,.37,1.94,18.08,18.08,0,0,0,.27,4.29,5.5,5.5,0,0,0,2.14,3.23,11.45,11.45,0,0,0,1.64,1.14c.82.45,1.66.84,2.48,1.28a32.12,32.12,0,0,0,5.77,2.68,11.42,11.42,0,0,0,1.19.26,5.88,5.88,0,0,0,2.21.1c.54-.11.86-.66,1.31-.68.84,0,1.49.29,2.3-.15a1.88,1.88,0,0,0,.9-1.86c1.31-.41,1.51-2.29.88-3.3a8.09,8.09,0,0,0-2.65-2.49c-1.13-.69-2.91-1.3-3.34-2.66a3.59,3.59,0,0,0-.83-1.81c-.61-.62-1.6-1.39-1.78-2.29-.24-1.25.68-2.42.55-3.69-.1-.95-.81-1.45-1.06-2.33-.19-.67,0-1.38-.2-2.05A3.4,3.4,0,0,0,191.05,245Z" style="opacity:0.2"></path><path d="M189.28,190c-.88,1.53-1.73,3-3.69,3.24-2.47.27-6.39-.21-7.45,2.67-.32.89-.21,1.87-.78,2.7-1,1.37-2.29,1.45-3.79,1.62-2.81.32-6.72,1-7.48,4.16-.69,2.88-2.54,2.71-5,3.91a10.24,10.24,0,0,0-4,3.07c-1.42,2-.47,2.87-.79,4.95-.24,1.62-2.46,2.9-3.52,4.06-1.6,1.72-3.34,3.84-3.84,6.21a4.35,4.35,0,0,0,.11,2.65c.36.78,1.22,1.2,1.58,2,.84,1.85-.55,3.43-.94,5.18-.33,1.49-.3,3.43,1,4.44s2.85.77,3.65,2.45c.71,1.45.25,3.24.73,4.78a5.51,5.51,0,0,0,3.32,3.58,13.08,13.08,0,0,1,3.28,1.34c1.42,1,1.64,2.29,2.47,3.75a5.92,5.92,0,0,0,3.74,3c1.93.41,4.06-.26,5.94.54,2.75,1.15,4,5.22,7.53,4.9,1.47-.13,2.63-1.37,4.18-1.47s3,.58,4.53.5c2.37-.13,2.41-1.56,3.48-3.12s2.65-.65,3.82-1.59,1.16-4.54,1.09-5.94a5.75,5.75,0,0,1,.13-2.41,9.69,9.69,0,0,0,1-2.23c.22-1.89-1.14-3-1.59-4.72,1-.24,2.12.19,3.17-.24,1.31-.53,1.22-1.5,2-2.37,1.46-1.72,1,.23.82,1.3a4.86,4.86,0,0,0,.56,3.9,2.21,2.21,0,0,1,.16,3.31,5.31,5.31,0,0,0,.26,5.27,4.3,4.3,0,0,1,.94,1.74,8.13,8.13,0,0,1-.31,1.86c-.11,1,.43,1.61.66,2.49a8.55,8.55,0,0,0,.17.88c.17.45.52.82.72,1.26a4.23,4.23,0,0,1,.37,1.94,18.2,18.2,0,0,0,.27,4.3,5.57,5.57,0,0,0,2.14,3.22,11.52,11.52,0,0,0,1.64,1.15c.82.44,1.66.84,2.48,1.27a31.09,31.09,0,0,0,5.77,2.68c.39.11.8.19,1.19.26a5.9,5.9,0,0,0,2.21.11c.55-.12.87-.67,1.32-.68.83,0,1.48.28,2.3-.15a1.91,1.91,0,0,0,.89-1.87c1.31-.41,1.51-2.29.88-3.3a7.87,7.87,0,0,0-2.65-2.48c-1.13-.7-2.91-1.3-3.33-2.67a3.56,3.56,0,0,0-.83-1.8c-.62-.63-1.61-1.4-1.78-2.3a3.56,3.56,0,0,1,.26-1.73,3.2,3.2,0,0,0,0-1.71c-.18-.68-.62-1.27-.84-1.94a2.6,2.6,0,0,1,.11-1.9,4.42,4.42,0,0,0-.39-3.75,2.29,2.29,0,0,1-.45-1,2.15,2.15,0,0,1,.34-1.11,6,6,0,0,0,.26-4.58c-.21-.58-.5-1.23-.2-1.77a2.59,2.59,0,0,1,.7-.66,3.54,3.54,0,0,0,1.25-2.46c0-.64-.63-1.06-.7-1.68-.1-.83.37-.95.82-1.48a9.27,9.27,0,0,0,1.22-1.85,6.32,6.32,0,0,0,1-.5,4.33,4.33,0,0,0,1.89-2.42,16.78,16.78,0,0,0,.17-2.73,4.81,4.81,0,0,0,5-.66,7.54,7.54,0,0,0,2.57-4.49,4.77,4.77,0,0,0,4.69-2.45,9.91,9.91,0,0,0,1.07-5.45,5.19,5.19,0,0,0,3.59-.74,4.32,4.32,0,0,0,1.18-3.6,12,12,0,0,0-1.09-4.4,7.4,7.4,0,0,0,2.36.84,2.49,2.49,0,0,0,2.26-.82,3.22,3.22,0,0,0,0-3.05,11.72,11.72,0,0,0-1.32-2.53c-.16-.23-1.4-1.9-1.63-1.86a3.42,3.42,0,0,0,1.62-.67,2.27,2.27,0,0,0,.88-1.49,4,4,0,0,0-.92-2.51,13.56,13.56,0,0,0-3.95-3.66c-.79-.51-2.06-.86-2.63-1.58a15.48,15.48,0,0,1-1.18-2.61,28.56,28.56,0,0,0-8.32-10.51,21.18,21.18,0,0,0-5.92-3.05,24.46,24.46,0,0,0-3.5-.85,12.48,12.48,0,0,1-2.67-.7,5.88,5.88,0,0,0-2.89-.08,4.91,4.91,0,0,0-2.1.78c-1.58,1.07-1.68,2.87-3.62,3.85-1,.52-1.12,1.47-2.44,1.85s-2.64.24-3.84.77c-2.33,1-1.75,3.3-3.41,4.8-1.92,1.74-5.27.58-7.51,1.89A7.36,7.36,0,0,0,189.28,190Z" style="fill:#BA68C8"></path><path d="M242.14,191.21l-10.52,1-11.48-2.86-9-8.35c.28,4.93,4.61,14.53,14.46,17a19,19,0,0,0,13.73-1.61,6.46,6.46,0,0,0,3.4-4.72v-.06C242.75,191.5,242.12,191.36,242.14,191.21Z" style="opacity:0.2"></path><path d="M253.57,182.19c2.54,1,5.74,3.68,8,6s6.59,2.12,6.3-1.43-4.53-6.32-4.53-6.32A35.94,35.94,0,0,1,253.57,182.19Z" style="fill:#ffa8a7"></path><path d="M264.85,186.84a.53.53,0,0,0,.35-.05.58.58,0,0,0,.27-.77,10.34,10.34,0,0,0-4.91-4.17c-.5.18-1.07.37-1.72.57,2.42.82,4.78,2.49,5.58,4.11A.59.59,0,0,0,264.85,186.84Z" style="fill:#f28f8f"></path><path d="M243.18,157.64c.7.7,1.41,1.4,2.13,2.08a28.31,28.31,0,0,0,5.53,4.22,8.62,8.62,0,0,0,4.45,1.2,3.68,3.68,0,0,0,1.91-.46c.4-.37.2-.75.26-1.19,2.28-.46,1-2.53.15-3.77,2.73-.08.27-2.59-.51-3.5-2.2-2.6-3-6.38-5.66-8.58-1.25-1-2.75-1.32-5.23-1.67a37.16,37.16,0,0,0-7.54-.26c-1.39.08-4.54.49-4.82,2.14-.16.93,1.52,1.76,2.41,2.75s2,2.2,3.05,3.19C240.62,155.05,241.89,156.36,243.18,157.64Z" style="fill:#37474f"></path><path d="M214.55,172.84c.43,1.76,4.14,7.19,3.34,8.84-.52,1-1.78,1.64-1.41,2.82.49,1.61,2.61,3.35,4,4.25a20.88,20.88,0,0,0,6.41,2.77c3.11.79,6.35.37,9.52.15a7.82,7.82,0,0,0,6.18-3.47,3.25,3.25,0,0,0,2.66-1.77,6.54,6.54,0,0,0,4.22,2.16,4.9,4.9,0,0,0,2.21-.35c.29-.13,1.8-1.24,1.52-1.67.44.7,1,1.46,1.79,1.59a2.35,2.35,0,0,0,1.34-.29,5.81,5.81,0,0,0,3-3.7,1.6,1.6,0,0,0,2,.75,3.28,3.28,0,0,0,1.67-1.65,3.84,3.84,0,0,0,.53-2.35,1.44,1.44,0,0,0,1.79.27,2.29,2.29,0,0,0,1-1.6,5.87,5.87,0,0,0-.09-2,.66.66,0,0,0,.82.07,1.5,1.5,0,0,0,.55-.69,5.65,5.65,0,0,0,.07-4c-.43-1.29-.6-3-1.62-3.89a10.38,10.38,0,0,0-3.81-2.36,15.52,15.52,0,0,1-4.73-2.81c-1.22-1.07-2.85-2.13-2.95-3.94a19.74,19.74,0,0,0-.07-2.31,4.2,4.2,0,0,0-1.68-2.68c-.93-.79-1.76-1.41-2.65-2.25a38.69,38.69,0,0,0-3.14-2.54c-6.07-4.72-16-3.48-23.36,0C213,155.21,212.11,162.84,214.55,172.84Z" style="fill:#BA68C8"></path><circle cx="243.24" cy="168.77" r="2.24" style="fill:#263238"></circle><path d="M231.67,185.94a10.5,10.5,0,0,0,4.17,5.77l.55,0a7.82,7.82,0,0,0,6.18-3.47,3.25,3.25,0,0,0,2.66-1.77C238.45,189.59,231.67,185.94,231.67,185.94Z" style="opacity:0.2"></path><path d="M242.57,188.2c-5,3.77-13.35,2.93-18.69-.33-4.36-2.66-6.93-7.6-6.74-14,0,0-4.4,1.46-4.92,4.78-.25,3.5,1.52,9.59,7.31,13.49,5.14,3.46,17,6.68,22.86.91A4.08,4.08,0,0,0,242.57,188.2Z" style="fill:#455a64"></path><path d="M228.31,154c.46-.37-.67-1.82-2.28-2.22-2.86-.72-6.92.76-9.29,2.35s-5,3.54-6.23,6.26a42,42,0,0,0-3.42,10.93c-.3,1.85-.91,4.56.21,6.28a2.38,2.38,0,0,0,1.35,1,1.16,1.16,0,0,0,1-.25s-.25,1.32-.3,1.62a13.41,13.41,0,0,0-.1,1.68,4.14,4.14,0,0,0,1.25,3.34c1.39,1.23,3,.69,4.43-.14,1.69,2.3,5.59.21,5.86-2.25,1.85.9,3.67-1,3.71-3,2.15.86,2.37-1.58,1.72-5.23-.16-.92-.29-1.88-.47-2.76a34,34,0,0,1-.65-11C225.36,158.42,226.47,155.47,228.31,154Z" style="fill:#37474f"></path><path d="M265,175.31c-1.31.85-4.73.23-6.11-.89a3.11,3.11,0,0,1-.31-4.45c1.13-1.12,3.56-2.7,5-2.82a3.58,3.58,0,0,1,3.2,2.34C267.06,171.29,266.76,174.14,265,175.31Z" style="fill:#263238"></path><path d="M201.81,243.57c0-.27-.06-.52-.09-.68a13.26,13.26,0,0,1-.38-3,3.76,3.76,0,0,0-.75-2.91,18.56,18.56,0,0,1-1.69-2.56c-.76-1.27-2-1.47-3.33-1.86a15.22,15.22,0,0,1-3.32-1.8,7.34,7.34,0,0,0-4.86-.6c-1.33.25-2,1.2-3.21,1.63s-5.2,1.17-4.77,3.08c.64-.3,1-1,1.73-1.38a6.55,6.55,0,0,1,3.25-.34c1.84,0,3.27-1.1,5.16-.69a6.59,6.59,0,0,1,3.24,1.69c.87.9.74,1.65,1,2.75s1,1,1.83,1.47a5.49,5.49,0,0,1,2,2.07,4.79,4.79,0,0,1,.57,2.65,9.44,9.44,0,0,0-.22,1.14h0c1-.23,2.12.2,3.17-.23A2.39,2.39,0,0,0,201.81,243.57Z" style="opacity:0.2"></path></g><path d="M238.9,201.26h0a15.39,15.39,0,0,1-4.89.42c-9.55-.61-20.73-8-25-16.62a15.19,15.19,0,0,1-1.52-4.65h0l-4.76-25a34.45,34.45,0,0,0,2.58,6.83c8.71,17.57,31.63,32.8,51.19,34a32.9,32.9,0,0,0,8.53-.47Z" style="fill:#BA68C8"></path><path d="M238.9,201.26h0a15.39,15.39,0,0,1-4.89.42c-9.55-.61-20.73-8-25-16.62a15.19,15.19,0,0,1-1.52-4.65h0l-4.76-25a34.45,34.45,0,0,0,2.58,6.83c8.71,17.57,31.63,32.8,51.19,34a32.9,32.9,0,0,0,8.53-.47Z" style="fill:#fff;opacity:0.5"></path></g></g><g id="freepik--speech-bubble--inject-5"><g id="freepik--speech-bubble--inject-5"><g id="freepik--vet-icon--inject-5"><path d="M258.84,77.32c1.44-.16,2.46,1.87,4.46,1.12s.2-7.3-4.34-7.3-6.49,7.13-4.36,7.52C256.45,79,257.4,77.49,258.84,77.32Z" style="fill:#BA68C8"></path><path d="M258.37,68.36a1.94,1.94,0,0,1-1.48,2.24c-.89.05-1.67-.86-1.74-2a1.94,1.94,0,0,1,1.47-2.24C257.51,66.27,258.29,67.18,258.37,68.36Z" style="fill:#BA68C8"></path><path d="M254.72,70.81a1.39,1.39,0,1,1-1.84-1.24A1.6,1.6,0,0,1,254.72,70.81Z" style="fill:#BA68C8"></path><path d="M259.77,68.45a1.93,1.93,0,0,0,1.3,2.34c.89.13,1.73-.72,1.9-1.9a1.93,1.93,0,0,0-1.3-2.34C260.78,66.43,259.94,67.28,259.77,68.45Z" style="fill:#BA68C8"></path><path d="M263.3,71.07a1.39,1.39,0,1,0,1.84-1.24A1.6,1.6,0,0,0,263.3,71.07Z" style="fill:#BA68C8"></path><path d="M265,55.15V67.38h12.23V79.6H265V91.83H252.74V79.6H240.51V67.38h12.23V55.15H265m1-1H251.74V66.38H239.51V80.6h12.23V92.83H266V80.6h12.23V66.38H266V54.15Z" style="fill:#BA68C8"></path></g><g id="freepik--speech-bubble--inject-5"><path d="M283.12,104.71l-.91,0c-4.34-.23-8.12-2.11-9.81-4a35.2,35.2,0,0,1-13.48,2.64c-17.85,0-32.38-13.06-32.38-29.1s14.53-29.1,32.38-29.1,32.38,13,32.38,29.1a27.42,27.42,0,0,1-8,19.14,6.91,6.91,0,0,0,3.24,4.08,10.87,10.87,0,0,0,8,1.27.51.51,0,0,1,.49.84A16.48,16.48,0,0,1,283.12,104.71Zm-10.58-5.07a.51.51,0,0,1,.39.19c1.4,1.74,5.06,3.63,9.34,3.86A15.28,15.28,0,0,0,293.09,100,12.41,12.41,0,0,1,286,98.36a7.75,7.75,0,0,1-3.75-5,.49.49,0,0,1,.13-.46,26.46,26.46,0,0,0,7.9-18.63c0-15.5-14.08-28.1-31.38-28.1s-31.38,12.6-31.38,28.1,14.08,28.1,31.38,28.1a34.12,34.12,0,0,0,13.42-2.7A.48.48,0,0,1,272.54,99.64Z" style="fill:#455a64"></path></g></g></g></svg>